<?xml version="1.0" encoding="utf-8"?> <!-- Generator: Adobe Illustrator 21.1.0, SVG Export Plug-In . SVG Version: 6.00 Build 0)  --> <svg version="1.1" id="Layer_1" xmlns="http://www.w3.org/2000/svg" xmlns:xlink="http://www.w3.org/1999/xlink" x="0px" y="0px"viewBox="0 0 308 90" style="enable-background:new 0 0 308 90;" xml:space="preserve"> <style type="text/css"> .st0{fill:none;stroke:#000000;stroke-width:3;stroke-linecap:square;stroke-linejoin:round;} </style> <g> <line class="st0" x1="199.9" y1="61.3" x2="199.9" y2="64.7"/> <path class="st0" d="M30.8,75.1c0.2,5.2-6,7.9-9.7,4.3c-1.2-1.2-1.7-2.4-1.7-4.1c0-18.3-0.1-36.6-0.1-54.8c0-1,0-2.1-0.2-3.1 c-0.1-0.8-0.3-1.6-0.5-2.3c-0.2-0.6-0.5-1.2-0.8-1.7c-0.2-0.2-0.3-0.5-0.5-0.7c-0.2-0.2-0.4-0.4-0.6-0.6c-0.4-0.4-0.8-0.7-1.2-1 c-0.4-0.3-0.9-0.5-1.3-0.7c-0.5-0.2-1-0.3-1.5-0.4c-0.5-0.1-1.1-0.1-1.6-0.1c-2.8,0-5.6,0-8.3,0c0,26.2,0,52.3,0,78.5"/> <path class="st0" d="M199.9,66.3c0-1,0-9.8,7.8-9.8c3.3,0,6.6,0,9.9,0c4.6,0,8.4-3.7,8.4-8.3c0-3.6,0-7.2,0-10.8 c0-4.5-3.7-8.2-8.2-8.2c-4.5,0-8.2,3.7-8.2,8.2c0,5,0,10.1,0,15.1"/> <path class="st0" d="M8.4,80.4c0,0.9,0,1.7,0,2.6c0,3,2.5,5.5,5.5,5.5c3,0,5.5-2.5,5.5-5.5c0-2.5,0-5.1,0-7.6"/> <line class="st0" x1="58.9" y1="37.2" x2="58.9" y2="88.1"/> <path class="st0" d="M95.5,88.5c-2.1,0.1-4.3-0.7-6.1-2.4c-1.7-1.7-2.4-3.4-2.4-5.9c0-13.9,0-27.9,0-41.8c0-4.6,3.7-8.3,8.2-8.3 c4.6,0,8.3,3.7,8.2,8.3c0,0,0,0.1,0,0.1"/> <path class="st0" d="M58.9,37.3c0-4.6,3.7-8.3,8.2-8.3c4.6,0,8.3,3.7,8.2,8.3c0,17,0,33.9,0,50.9"/> <path class="st0" d="M137.1,30.6c3.6,1.1,6,4.6,5.7,8.4c-0.3-4.7,3.4-8.7,8.2-8.7c4.7,0,8.5,4,8.2,8.7c0,3.3,0,6.7,0,10"/> <path class="st0" d="M199.9,9.5c-3,0-6.1,0-9.1,0c-4.5,0-8.2,3.7-8.2,8.2"/> <path class="st0" d="M231.6,1.3c0,4.5-3.6,8.1-8,8.2c-7.9,0-15.8,0-23.7,0l0,78.7"/> <path class="st0" d="M296.7,88.5c-2.1,0-4.2-0.7-5.9-2.5c-1.7-1.7-2.4-3.4-2.4-5.9c0-1.7,0-3.3,0-5c0-2,0.5-4,1.3-6.1 c0.9-2.1,2.1-4.3,3.8-6.5c2.2-2.9,4.3-5.9,6.5-8.8c3.4-4.6,5.2-10.3,5-16"/> <path class="st0" d="M300.1,37.8c0,3.2-2.6,5.8-5.8,5.8c-3.2,0-5.8-2.6-5.8-5.8c-0.3-4.7,3.4-8.7,8.2-8.7c4.7,0,8.5,4,8.2,8.7 c0,1.7,0,3.4,0,5.1c0,12.4,0,24.9,0,37.3c0,5-4,8.3-8.3,8.3"/> <path class="st0" d="M288.6,49.5c0-3.9,0-7.8,0-11.8"/> <path class="st0" d="M265.2,38.9c-0.3-4.7,3.4-8.7,8.2-8.7c4.7,0,8.5,4,8.2,8.7c0,3.3,0,6.7,0,10"/> <path class="st0" d="M237.2,39c-0.3-4.7,3.4-8.7,8.2-8.7c4.7,0,8.5,4,8.2,8.7c0,3.3,0,6.7,0,10"/> <path class="st0" d="M259.5,30.6c3.6,1.1,6,4.6,5.7,8.4c0,16.4,0,32.8,0,49.2"/> <path class="st0" d="M231.5,30.6c3.6,1.1,6,4.6,5.7,8.4c0,16.4,0,32.8,0,49.2"/> <line class="st0" x1="201.5" y1="59.5" x2="201.6" y2="59.5"/> <path class="st0" d="M58.9,54.1c0,3.2-2.6,5.8-5.8,5.8c-3.2,0-5.8-2.6-5.8-5.8"/> <path class="st0" d="M86.9,41.7c0,3.2-2.6,5.8-5.8,5.8c-3.2,0-5.8-2.6-5.8-5.8"/> <path class="st0" d="M103.5,8.8l0,29.6l0,0.1c0,13.9,0,27.8,0.1,41.7c0,4.9-3.9,8.2-8,8.3"/> <path class="st0" d="M39.1,88.5c-2.1,0-4.2-0.7-5.9-2.5c-1.7-1.7-2.4-3.4-2.4-5.9c0-1.7,0-3.3,0-5c0-2,0.5-4,1.3-6.1 c0.9-2.1,2.1-4.3,3.8-6.5c2.2-2.9,4.3-5.9,6.5-8.8c3.4-4.6,5.2-10.3,5-16"/> <path class="st0" d="M42.6,37.8c0,3.2-2.6,5.8-5.8,5.8c-3.2,0-5.8-2.6-5.8-5.8C30.7,33,34.5,29,39.2,29c4.7,0,8.5,4,8.2,8.7 c0,1.7,0,3.4,0,5.1c0,12.4,0,24.9,0,37.3c0,5-4,8.3-8.3,8.3"/> <path class="st0" d="M31,49.5c0-3.9,0-7.8,0-11.8"/> <path class="st0" d="M123.1,88.5c-2.1,0-4.2-0.7-5.9-2.5c-1.7-1.7-2.4-3.4-2.4-5.9c0-1.7,0-3.3,0-5c0-2,0.5-4,1.3-6.1 c0.9-2.1,2.1-4.3,3.8-6.5c2.2-2.9,4.3-5.9,6.5-8.8c3.4-4.6,5.2-10.3,5-16"/> <path class="st0" d="M126.5,37.8c0,3.2-2.6,5.8-5.8,5.8c-3.2,0-5.8-2.6-5.8-5.8c-0.3-4.7,3.4-8.7,8.2-8.7c4.7,0,8.5,4,8.2,8.7 c0,1.7,0,3.4,0,5.1c0,12.4,0,24.9,0,37.3c0,5-4,8.3-8.3,8.3"/> <path class="st0" d="M115,49.5c0-3.9,0-7.8,0-11.8"/> <path class="st0" d="M175.3,88.5c-2.1,0-4.2-0.7-5.9-2.5c-1.7-1.7-2.4-3.4-2.4-5.9c0-1.7,0-3.3,0-5c0-2,0.5-4,1.3-6.1 c0.9-2.1,2.1-4.3,3.8-6.5c2.2-2.9,4.3-5.9,6.5-8.8c3.4-4.6,5.2-10.3,5-16"/> <path class="st0" d="M178.7,37.8c0,3.2-2.6,5.8-5.8,5.8c-3.2,0-5.8-2.6-5.8-5.8c-0.3-4.7,3.4-8.7,8.2-8.7c4.7,0,8.5,4,8.2,8.7 c0,1.7,0,3.4,0,5.1c0,12.4,0,24.9,0,37.3c0,5-4,8.3-8.3,8.3"/> <path class="st0" d="M167.2,49.5c0-3.9,0-7.8,0-11.8"/> <path class="st0" d="M114.8,77.2c-1.9,6.4-11.3,5.1-11.3-1.6"/> <line class="st0" x1="142.8" y1="38.9" x2="142.8" y2="88.1"/> <path class="st0" d="M142.8,64.7c-0.6,2.9-3.3,4.9-6.2,4.6c-3-0.3-5.2-2.8-5.2-5.7"/> <path class="st0" d="M237.2,70.1c0,3.1-2.4,5.8-5.6,5.8c-3.2,0-5.6-2.7-5.6-5.8l0-0.6c0,3.6,0,7.2,0,10.8c0,4.5-3.7,8.2-8.2,8.2 c-4.5,0-8.2-3.7-8.2-8.2c0-6.6,0-13.2,0-19.8"/> </g> </svg>