<?xml version="1.0" encoding="UTF-8"?>
<svg xmlns="http://www.w3.org/2000/svg" xmlns:xlink="http://www.w3.org/1999/xlink" version="1.2" >
<font id="Cousine Bold Italic for Powerline">
<font-face  font-family="Cousine for Powerline" units-per-em="2048" ascent="1297" descent="-428" font-style="italic" font-weight="700" font-stretch="normal" slope="-12" cap-height="1349" x-height="1082" underline-position="-681" underline-thickness="205" />
<missing-glyph  horiz-adv-x="1229" d="M147 0 L147 1349 L1082 1349 L1082 0 L147 0 Z M963 1230 L266 1230 L266 119 L963 119 L963 1230 Z " />
<glyph glyph-name="&amp;#x20;" unicode="&#x20;" horiz-adv-x="1229" d="" />
<glyph glyph-name="&amp;#xa0;" unicode="&#xa0;" horiz-adv-x="1229" d="" />
<glyph glyph-name="exclam" unicode="&#x21;" horiz-adv-x="1229" d="M708 426 L478 426 L625 1349 L919 1349 L708 426 Z M363 0 L415 270 L703 270 L651 0 L363 0 Z " />
<glyph glyph-name="quotedbl" unicode="&#x22;" horiz-adv-x="1229" d="M1001 844 L802 844 L890 1485 L1165 1485 L1001 844 Z M545 844 L346 844 L434 1485 L707 1485 L545 844 Z " />
<glyph glyph-name="numbersign" unicode="&#x23;" horiz-adv-x="1229" d="M1008 835 L876 511 L1113 511 L1084 362 L814 362 L666 0 L511 0 L660 362 L351 362 L203 0 L50 0 L198 362 L24 362 L53 511 L259 511 L392 835 L165 835 L194 983 L453 983 L603 1349 L756 1349 L607 983 L915 983 L1065 1349 L1218 1349 L1069 983 L1254 983 L1225 835 L1008 835 Z M545 835 L412 511 L721 511 L854 835 L545 835 Z " />
<glyph glyph-name="dollar" unicode="&#x24;" horiz-adv-x="1229" d="M533 -171 L424 -171 L457 1 Q244 9 142 102.5 Q40 196 40 389 L305 436 L305 425 Q305 316 351.5 267 Q398 218 497 208 L573 599 Q571 601 559.5 603.5 Q548 606 544 606 Q353 652 276 728 Q199 804 199 920 Q199 1006 231.5 1090 Q264 1174 331 1235 Q398 1296 497 1329 Q596 1362 723 1367 L749 1501 L858 1501 L832 1367 Q1026 1360 1116 1279.5 Q1206 1199 1215 1017 L943 978 L943 985 Q943 1150 794 1171 L725 819 L746 815 Q911 774 983 733 Q1055 692 1094 632 Q1133 572 1133 485 Q1133 391 1096 299.5 Q1059 208 988 144.5 Q917 81 812 45.5 Q707 10 567 4 L533 -171 Z M685 1175 Q500 1161 471 1015 L467 977 Q467 945 480 924 Q493 903 515.5 888 Q538 873 621 843 L685 1175 Z M867 428 Q867 464 852 487 Q837 510 811 526 Q785 542 751 552.5 Q717 563 678 575 L606 208 Q692 214 751 242 Q810 270 838.5 320.5 Q867 371 867 428 Z " />
<glyph glyph-name="percent" unicode="&#x25;" horiz-adv-x="1229" d="M131 0 L-44 0 L1151 1353 L1328 1353 L131 0 Z M451 1361 Q680 1361 680 1141 Q680 1062 656.5 972.5 Q633 883 585 817 Q537 751 470.5 717.5 Q404 684 315 684 Q82 684 82 912 Q82 988 106.5 1080.5 Q131 1173 178.5 1237 Q226 1301 292.5 1331 Q359 1361 451 1361 Z M503 1123 Q503 1180 482 1203 Q461 1226 422 1226 Q372 1226 337.5 1190 Q303 1154 281 1072 Q259 990 259 931 Q259 824 344 824 Q389 824 424.5 861.5 Q460 899 481.5 979 Q503 1059 503 1123 Z M971 665 Q1201 665 1201 444 Q1201 330 1158 218 Q1115 106 1033.5 47 Q952 -12 836 -12 Q603 -12 603 216 Q603 292 627.5 383.5 Q652 475 698.5 539 Q745 603 811.5 634 Q878 665 971 665 Z M1024 427 Q1024 484 1003 507 Q982 530 943 530 Q893 530 858.5 494 Q824 458 802 376 Q780 294 780 235 Q780 128 865 128 Q910 128 945.5 165.5 Q981 203 1002.5 283 Q1024 363 1024 427 Z " />
<glyph glyph-name="ampersand" unicode="&#x26;" horiz-adv-x="1229" d="M372 779 Q345 866 345 958 Q345 1071 394.5 1164 Q444 1257 543 1307 Q642 1357 775 1357 Q908 1357 985.5 1297 Q1063 1237 1063 1132 Q1063 1046 1019.5 975 Q976 904 885 840 Q794 776 619 702 Q683 532 775 400 Q882 553 946 724 L1144 697 Q1055 459 905 262 Q974 189 1060 189 Q1116 189 1156 206 L1118 10 Q1076 -11 1019 -11 Q856 -11 741 104 Q557 -19 358 -19 Q173 -19 77 56.5 Q-19 132 -19 275 Q-19 434 84.5 566 Q188 698 372 779 Z M612 239 Q485 421 420 599 Q332 554 281 480.5 Q230 407 230 320 Q230 244 275.5 203.5 Q321 163 404 163 Q507 163 612 239 Z M845 1102 Q845 1144 819.5 1169.5 Q794 1195 741 1195 Q656 1195 606 1138.5 Q556 1082 556 986 Q556 920 577 859 Q734 925 789.5 979.5 Q845 1034 845 1102 Z " />
<glyph glyph-name="quotesingle" unicode="&#x27;" horiz-adv-x="1229" d="M773 844 L574 844 L662 1485 L935 1485 L773 844 Z " />
<glyph glyph-name="parenleft" unicode="&#x28;" horiz-adv-x="1229" d="M453 -425 Q305 -129 305 181 Q305 387 363.5 630.5 Q422 874 533 1078 Q644 1282 824 1484 L1105 1484 Q920 1273 809 1069.5 Q698 866 641 632 Q584 398 584 193 Q584 -117 734 -425 L453 -425 Z " />
<glyph glyph-name="parenright" unicode="&#x29;" horiz-adv-x="1229" d="M119 -425 Q308 -211 418 -8 Q528 195 584.5 429 Q641 663 641 866 Q641 1028 604 1178 Q567 1328 490 1484 L771 1484 Q920 1186 920 880 Q920 680 863.5 438 Q807 196 696.5 -10.5 Q586 -217 400 -425 L119 -425 Z " />
<glyph glyph-name="asterisk" unicode="&#x2a;" horiz-adv-x="1229" d="M836 1209 L1091 1313 L1121 1116 L859 1055 L1004 842 L796 721 L699 973 L501 721 L339 844 L570 1055 L332 1116 L438 1313 L657 1209 L692 1483 L907 1483 L836 1209 Z " />
<glyph glyph-name="plus" unicode="&#x2b;" horiz-adv-x="1229" d="M726 569 L726 161 L500 161 L500 569 L101 569 L101 793 L500 793 L500 1201 L726 1201 L726 793 L1128 793 L1128 569 L726 569 Z " />
<glyph glyph-name="comma" unicode="&#x2c;" horiz-adv-x="1229" d="M82 -363 L380 299 L695 299 L255 -363 L82 -363 Z " />
<glyph glyph-name="&amp;#x2d;" unicode="&#x2d;" horiz-adv-x="1229" d="M299 409 L346 653 L926 653 L879 409 L299 409 Z " />
<glyph glyph-name="&amp;#xad;" unicode="&#xad;" horiz-adv-x="1229" d="M299 409 L346 653 L926 653 L879 409 L299 409 Z " />
<glyph glyph-name="period" unicode="&#x2e;" horiz-adv-x="1229" d="M365 0 L424 305 L713 305 L654 0 L365 0 Z " />
<glyph glyph-name="slash" unicode="&#x2f;" horiz-adv-x="1229" d="M-20 -20 L1093 1484 L1321 1484 L212 -20 L-20 -20 Z " />
<glyph glyph-name="zero" unicode="0" horiz-adv-x="1229" d="M502 -20 Q311 -20 212.5 88.5 Q114 197 114 408 Q114 563 162.5 764 Q211 965 295 1101.5 Q379 1238 497 1304 Q615 1370 780 1370 Q1168 1370 1168 952 Q1168 799 1121 601 Q1074 403 986 261.5 Q898 120 776 50 Q654 -20 502 -20 Z M891 963 Q891 1059 853.5 1104.5 Q816 1150 736 1150 Q621 1150 555 1059.5 Q489 969 439 747.5 Q389 526 389 393 Q389 288 430 244.5 Q471 201 547 201 Q659 201 727.5 300 Q796 399 843.5 618.5 Q891 838 891 963 Z M511 555 L559 804 L774 804 L726 555 L511 555 Z " />
<glyph glyph-name="one" unicode="1" horiz-adv-x="1229" d="M44 0 L85 209 L474 209 L647 1100 Q591 1017 463.5 961.5 Q336 906 209 906 L251 1120 Q391 1120 512.5 1181.5 Q634 1243 710 1349 L976 1349 L755 209 L1078 209 L1037 0 L44 0 Z " />
<glyph glyph-name="two" unicode="2" horiz-adv-x="1229" d="M18 0 L56 195 Q211 430 560 670 Q748 799 820.5 874 Q893 949 893 1027 Q893 1083 853.5 1114.5 Q814 1146 735 1146 Q645 1146 588 1097.5 Q531 1049 498 952 L218 968 Q279 1163 422 1266.5 Q565 1370 776 1370 Q967 1370 1075.5 1291 Q1184 1212 1184 1074 Q1184 940 1091 821 Q998 702 821 581 Q594 427 515 362.5 Q436 298 395 231 L1049 231 L1004 0 L18 0 Z " />
<glyph glyph-name="three" unicode="3" horiz-adv-x="1229" d="M506 -23 Q290 -23 174.5 66 Q59 155 59 329 Q59 358 60 368 L350 393 L350 376 Q350 205 549 205 Q626 205 686 234 Q746 263 779 317 Q812 371 812 428 Q812 497 748 534.5 Q684 572 563 572 L465 572 L509 799 L601 799 Q737 799 814.5 857 Q892 915 892 1009 Q892 1071 848 1108.5 Q804 1146 722 1146 Q533 1146 483 977 L206 997 Q262 1177 411 1273.5 Q560 1370 770 1370 Q967 1370 1077 1292.5 Q1187 1215 1187 1076 Q1187 989 1144.5 907.5 Q1102 826 1018 771.5 Q934 717 818 695 L817 691 Q954 674 1026.5 607.5 Q1099 541 1099 435 Q1099 354 1056 262.5 Q1013 171 936 108.5 Q859 46 750 11.5 Q641 -23 506 -23 Z " />
<glyph glyph-name="four" unicode="4" horiz-adv-x="1229" d="M931 287 L875 0 L607 0 L663 287 L22 287 L63 498 L823 1349 L1137 1349 L971 496 L1159 496 L1119 287 L931 287 Z M831 1105 Q823 1092 789.5 1048.5 Q756 1005 734 977.5 Q712 950 298 496 L703 496 L793 952 Q823 1082 831 1105 Z " />
<glyph glyph-name="five" unicode="5" horiz-adv-x="1229" d="M492 -20 Q287 -20 177 71.5 Q67 163 67 336 L67 352 L353 375 Q358 203 538 203 Q622 203 686 242.5 Q750 282 786 356.5 Q822 431 822 506 Q822 585 774.5 631 Q727 677 637 677 Q519 677 428 586 L154 586 L351 1349 L1198 1349 L1158 1140 L566 1140 L479 814 Q601 904 752 904 Q925 904 1021 812.5 Q1117 721 1117 562 Q1117 406 1036.5 268 Q956 130 813.5 55 Q671 -20 492 -20 Z " />
<glyph glyph-name="six" unicode="6" horiz-adv-x="1229" d="M532 -20 Q337 -20 232 99.5 Q127 219 127 442 Q127 599 177.5 788 Q228 977 316.5 1108.5 Q405 1240 528 1305 Q651 1370 809 1370 Q989 1370 1076.5 1291 Q1164 1212 1175 1046 L903 1009 Q898 1083 858.5 1115.5 Q819 1148 760 1148 Q646 1148 561 1039.5 Q476 931 435 722 Q495 797 582.5 837 Q670 877 771 877 Q929 877 1018.5 791 Q1108 705 1108 554 Q1108 447 1065.5 335.5 Q1023 224 947.5 145.5 Q872 67 766.5 23.5 Q661 -20 532 -20 Z M820 503 Q820 579 778 624.5 Q736 670 650 670 Q580 670 521.5 635 Q463 600 431 540.5 Q399 481 399 398 Q399 309 443.5 254 Q488 199 566 199 Q638 199 695.5 239 Q753 279 786.5 352 Q820 425 820 503 Z " />
<glyph glyph-name="seven" unicode="7" horiz-adv-x="1229" d="M524 0 L231 0 Q282 261 453 532 Q624 803 943 1118 L243 1118 L288 1349 L1249 1349 L1206 1126 Q887 783 731 521 Q575 259 524 0 Z " />
<glyph glyph-name="eight" unicode="8" horiz-adv-x="1229" d="M506 -20 Q296 -20 182.5 62 Q69 144 69 296 Q69 398 114.5 485.5 Q160 573 243.5 632 Q327 691 428 707 L429 711 Q331 734 279.5 800 Q228 866 228 953 Q228 1063 296 1162.5 Q364 1262 487.5 1316 Q611 1370 772 1370 Q970 1370 1077 1296.5 Q1184 1223 1184 1086 Q1184 949 1091.5 844 Q999 739 863 713 L862 709 Q972 692 1034 624.5 Q1096 557 1096 454 Q1096 330 1024 216 Q952 102 818 41 Q684 -20 506 -20 Z M889 1047 Q889 1173 734 1173 Q663 1173 613 1144 Q563 1115 537.5 1060 Q512 1005 512 943 Q512 808 665 808 Q741 808 793.5 841 Q846 874 867.5 936 Q889 998 889 1047 Z M809 460 Q809 611 623 611 Q542 611 483.5 575.5 Q425 540 394.5 472.5 Q364 405 364 333 Q364 178 547 178 Q633 178 691.5 214.5 Q750 251 779.5 323.5 Q809 396 809 460 Z " />
<glyph glyph-name="nine" unicode="9" horiz-adv-x="1229" d="M471 -20 Q285 -20 194.5 60 Q104 140 94 311 L366 348 Q376 201 517 201 Q630 201 716.5 306 Q803 411 845 619 Q792 545 698.5 502 Q605 459 503 459 Q351 459 262.5 547.5 Q174 636 174 794 Q174 908 215.5 1017.5 Q257 1127 336 1207 Q415 1287 525.5 1328.5 Q636 1370 767 1370 Q1163 1370 1163 945 Q1163 786 1112 590.5 Q1061 395 970 257.5 Q879 120 753 50 Q627 -20 471 -20 Z M883 955 Q883 1046 839 1098 Q795 1150 718 1150 Q648 1150 590 1110 Q532 1070 498 997 Q464 924 464 845 Q464 762 507.5 715 Q551 668 625 668 Q733 668 808 747 Q883 826 883 955 Z " />
<glyph glyph-name="colon" unicode="&#x3a;" horiz-adv-x="1229" d="M365 0 L424 305 L713 305 L654 0 L365 0 Z M517 780 L576 1085 L865 1085 L806 780 L517 780 Z " />
<glyph glyph-name="&amp;#x3b;" unicode="&#x3b;" horiz-adv-x="1229" d="M526 780 L585 1085 L874 1085 L815 780 L526 780 Z M150 -363 L448 299 L763 299 L323 -363 L150 -363 Z " />
<glyph glyph-name="&amp;#x37e;" unicode="&#x37e;" horiz-adv-x="1229" d="M526 780 L585 1085 L874 1085 L815 780 L526 780 Z M150 -363 L448 299 L763 299 L323 -363 L150 -363 Z " />
<glyph glyph-name="less" unicode="&#x3c;" horiz-adv-x="1229" d="M101 516 L101 838 L1128 1229 L1128 1001 L295 676 L1128 352 L1128 125 L101 516 Z " />
<glyph glyph-name="equal" unicode="&#x3d;" horiz-adv-x="1229" d="M101 842 L101 1065 L1128 1065 L1128 842 L101 842 Z M101 291 L101 512 L1128 512 L1128 291 L101 291 Z " />
<glyph glyph-name="greater" unicode="&#x3e;" horiz-adv-x="1229" d="M101 125 L101 352 L933 676 L101 1001 L101 1229 L1128 838 L1128 516 L101 125 Z " />
<glyph glyph-name="question" unicode="&#x3f;" horiz-adv-x="1229" d="M667 406 L400 406 Q415 465 440.5 512 Q466 559 501.5 599.5 Q537 640 581 673.5 Q625 707 756 792 Q840 845 878.5 896 Q917 947 917 1005 Q917 1065 868.5 1104.5 Q820 1144 726 1144 Q625 1144 545.5 1085.5 Q466 1027 435 929 L152 941 Q218 1144 380 1257 Q542 1370 766 1370 Q971 1370 1089 1287.5 Q1207 1205 1207 1058 Q1207 934 1136 839.5 Q1065 745 931 664 Q803 587 743 530 Q683 473 667 406 Z M313 0 L365 270 L654 270 L602 0 L313 0 Z " />
<glyph glyph-name="at" unicode="&#x40;" horiz-adv-x="1229" d="M799 104 Q682 104 682 212 Q682 238 687 261 L698 309 L692 309 Q641 219 566.5 161.5 Q492 104 417 104 Q336 104 293.5 163.5 Q251 223 251 336 Q251 503 327.5 691.5 Q404 880 519 990.5 Q634 1101 753 1101 Q816 1101 849.5 1061 Q883 1021 883 946 L883 928 L888 928 L951 1079 L1086 1079 L888 572 Q827 413 809 352.5 Q791 292 791 264 Q791 239 802 232.5 Q813 226 830 226 Q895 226 959.5 335 Q1024 444 1072 632 Q1120 820 1120 958 Q1120 1146 1044 1252 Q968 1358 829 1358 Q695 1358 574.5 1270 Q454 1182 360 1024 Q266 866 208 654.5 Q150 443 150 275 Q150 72 233 -41.5 Q316 -155 469 -155 Q561 -155 655 -120 Q749 -85 869 3 L921 -94 Q781 -196 665.5 -239.5 Q550 -283 434 -283 Q231 -283 121 -141 Q11 1 11 249 Q11 444 80.5 687 Q150 930 266 1109.5 Q382 1289 533.5 1386.5 Q685 1484 855 1484 Q1047 1484 1151 1352.5 Q1255 1221 1255 987 Q1255 802 1188 578.5 Q1121 355 1017.5 229.5 Q914 104 799 104 Z M812 873 Q812 979 731 979 Q659 979 583 879.5 Q507 780 455.5 620 Q404 460 404 339 Q404 230 466 230 Q514 230 562.5 272.5 Q611 315 658.5 399 Q706 483 760.5 641 Q815 799 812 873 Z " />
<glyph glyph-name="A" unicode="A" horiz-adv-x="1229" d="M1124 0 L830 0 L802 330 L346 330 L190 0 L-105 0 L600 1349 L944 1349 L1124 0 Z M737 1167 Q721 1126 690.5 1058 Q660 990 451 552 L783 552 L749 932 L738 1132 L737 1167 Z " />
<glyph glyph-name="B" unicode="B" horiz-adv-x="1229" d="M614 0 L32 0 L294 1349 L819 1349 Q1006 1349 1105 1283.5 Q1204 1218 1204 1088 Q1204 945 1118 843.5 Q1032 742 869 709 Q1014 693 1088.5 627.5 Q1163 562 1163 453 Q1163 373 1127 286.5 Q1091 200 1017.5 134 Q944 68 841 34 Q738 0 614 0 Z M897 1017 Q897 1130 756 1130 L547 1130 L485 811 L696 811 Q860 811 892 970 Q897 998 897 1017 Z M869 457 Q869 523 824 558 Q779 593 692 593 L442 593 L370 219 L627 219 Q705 219 758.5 249 Q812 279 840.5 337 Q869 395 869 457 Z " />
<glyph glyph-name="C" unicode="C" horiz-adv-x="1229" d="M386 486 Q386 212 595 212 Q759 212 883 456 L1146 404 Q928 -20 547 -20 Q317 -20 200 98.5 Q83 217 83 449 Q83 557 107 681 Q243 1370 809 1370 Q1184 1370 1230 981 L945 915 Q936 1022 890 1080 Q844 1138 768 1138 Q651 1138 567.5 1052.5 Q484 967 435 798 Q386 629 386 486 Z " />
<glyph glyph-name="D" unicode="D" horiz-adv-x="1229" d="M451 0 L30 0 L292 1349 L653 1349 Q1199 1349 1199 889 Q1199 734 1145 555.5 Q1091 377 993.5 252.5 Q896 128 758 64 Q620 0 451 0 Z M898 849 Q898 993 824.5 1057 Q751 1121 604 1121 L543 1121 L369 228 L471 228 Q790 228 880 685 Q898 778 898 849 Z " />
<glyph glyph-name="E" unicode="E" horiz-adv-x="1229" d="M32 0 L294 1349 L1262 1349 L1218 1121 L545 1121 L482 797 L1094 797 L1050 569 L438 569 L371 228 L1085 228 L1041 0 L32 0 Z " />
<glyph glyph-name="F" unicode="F" horiz-adv-x="1229" d="M575 1121 L500 737 L1121 737 L1077 509 L456 509 L357 0 L62 0 L324 1349 L1263 1349 L1219 1121 L575 1121 Z " />
<glyph glyph-name="G" unicode="G" horiz-adv-x="1229" d="M526 -20 Q310 -20 197 105.5 Q84 231 84 460 Q84 621 138.5 811.5 Q193 1002 283 1124.5 Q373 1247 502 1308.5 Q631 1370 799 1370 Q978 1370 1074 1278 Q1170 1186 1188 995 L904 941 Q888 1138 757 1138 Q640 1138 561.5 1057.5 Q483 977 434 800 Q385 623 385 483 Q385 216 587 216 Q642 216 705 237.5 Q768 259 809 290 L855 525 L581 525 L623 743 L1167 743 L1059 185 Q777 -20 526 -20 Z " />
<glyph glyph-name="H" unicode="H" horiz-adv-x="1229" d="M691 0 L803 574 L440 574 L328 0 L33 0 L295 1349 L590 1349 L487 818 L850 818 L953 1349 L1248 1349 L986 0 L691 0 Z " />
<glyph glyph-name="I" unicode="I" horiz-adv-x="1229" d="M314 1349 L1230 1349 L1186 1121 L870 1121 L696 228 L1012 228 L968 0 L52 0 L96 228 L412 228 L586 1121 L270 1121 L314 1349 Z " />
<glyph glyph-name="J" unicode="J" horiz-adv-x="1229" d="M455 -20 Q265 -20 169.5 81.5 Q74 183 74 370 L75 402 L374 445 L374 426 Q374 322 406.5 266.5 Q439 211 502 211 Q575 211 629.5 270 Q684 329 705 439 L837 1118 L536 1118 L581 1349 L1176 1349 L1001 446 Q958 228 812.5 104 Q667 -20 455 -20 Z " />
<glyph glyph-name="K" unicode="K" horiz-adv-x="1229" d="M776 0 L561 557 L407 415 L326 0 L31 0 L293 1349 L588 1349 L472 750 L1024 1349 L1367 1349 L795 770 L1124 0 L776 0 Z " />
<glyph glyph-name="L" unicode="L" horiz-adv-x="1229" d="M106 0 L368 1349 L663 1349 L445 228 L1061 228 L1017 0 L106 0 Z " />
<glyph glyph-name="M" unicode="M" horiz-adv-x="1229" d="M803 0 L972 868 Q982 919 1007 1019.5 Q1032 1120 1046 1169 Q938 897 905 828 L690 360 L472 360 L437 828 Q430 928 427 1169 Q399 949 383 868 L214 0 L-6 0 L256 1349 L603 1349 L641 850 L643 803 Q643 760 634 619 Q685 768 719 849 L952 1349 L1287 1349 L1025 0 L803 0 Z " />
<glyph glyph-name="N" unicode="N" horiz-adv-x="1229" d="M643 0 L455 1010 L443 872 Q425 708 415 656 L287 0 L30 0 L292 1349 L629 1349 L821 312 Q839 551 864 677 L994 1349 L1251 1349 L989 0 L643 0 Z " />
<glyph glyph-name="O" unicode="O" horiz-adv-x="1229" d="M506 -20 Q293 -20 183.5 95.5 Q74 211 74 440 Q74 604 125.5 793.5 Q177 983 267 1110.5 Q357 1238 485.5 1304 Q614 1370 776 1370 Q988 1370 1098.5 1257 Q1209 1144 1209 917 Q1209 753 1157 562.5 Q1105 372 1013.5 242.5 Q922 113 794 46.5 Q666 -20 506 -20 Z M909 892 Q909 1138 731 1138 Q624 1138 546.5 1049 Q469 960 421.5 782 Q374 604 374 466 Q374 212 551 212 Q657 212 735 303.5 Q813 395 861 573.5 Q909 752 909 892 Z " />
<glyph glyph-name="P" unicode="P" horiz-adv-x="1229" d="M616 476 L419 476 L326 0 L31 0 L293 1349 L773 1349 Q996 1349 1111.5 1267 Q1227 1185 1227 1026 Q1227 920 1182.5 813.5 Q1138 707 1059.5 632.5 Q981 558 868.5 517 Q756 476 616 476 Z M924 973 Q924 1052 866.5 1086 Q809 1120 696 1120 L544 1120 L463 703 L623 703 Q877 703 918 918 Q924 948 924 973 Z " />
<glyph glyph-name="Q" unicode="Q" horiz-adv-x="1229" d="M674 0 Q689 -94 742.5 -140 Q796 -186 904 -186 Q948 -186 1029 -173 L990 -375 Q857 -403 743 -403 Q580 -403 490 -311 Q400 -219 376 -7 Q74 57 74 439 Q74 604 125.5 793 Q177 982 266.5 1109.5 Q356 1237 484 1303.5 Q612 1370 776 1370 Q988 1370 1098.5 1257 Q1209 1144 1209 917 Q1209 727 1143.5 515.5 Q1078 304 959.5 174 Q841 44 674 0 Z M909 892 Q909 1138 731 1138 Q624 1138 546.5 1049 Q469 960 421.5 782 Q374 604 374 466 Q374 212 551 212 Q657 212 735 303.5 Q813 395 861 573.5 Q909 752 909 892 Z " />
<glyph glyph-name="R" unicode="R" horiz-adv-x="1229" d="M790 0 L600 515 L427 515 L327 0 L32 0 L294 1349 L788 1349 Q1018 1349 1132 1270.5 Q1246 1192 1246 1043 Q1246 973 1223.5 897.5 Q1201 822 1154 759 Q1107 696 1037 649.5 Q967 603 886 581 L1122 0 L790 0 Z M942 983 Q942 1059 882.5 1089.5 Q823 1120 713 1120 L545 1120 L472 744 L648 744 Q900 744 937 937 L942 983 Z " />
<glyph glyph-name="S" unicode="S" horiz-adv-x="1229" d="M502 -20 Q267 -20 138.5 79 Q10 178 4 367 L297 404 Q302 310 364 255.5 Q426 201 553 201 Q652 201 716.5 224.5 Q781 248 815 296.5 Q849 345 849 403 Q849 509 655 560 Q432 617 352 660.5 Q272 704 228 766 Q184 828 184 914 Q184 1003 222 1086.5 Q260 1170 340 1235 Q420 1300 532.5 1335 Q645 1370 776 1370 Q1000 1370 1109 1281.5 Q1218 1193 1219 1007 L927 978 Q919 1161 730 1161 Q649 1161 593 1138.5 Q537 1116 508 1072 Q479 1028 479 979 Q479 939 502.5 912 Q526 885 566.5 865.5 Q607 846 734 812 Q903 767 984.5 721 Q1066 675 1105 611.5 Q1144 548 1144 469 Q1144 337 1066 221 Q988 105 842.5 42.5 Q697 -20 502 -20 Z " />
<glyph glyph-name="T" unicode="T" horiz-adv-x="1229" d="M875 1121 L657 0 L362 0 L580 1121 L174 1121 L218 1349 L1325 1349 L1281 1121 L875 1121 Z " />
<glyph glyph-name="U" unicode="U" horiz-adv-x="1229" d="M490 -20 Q291 -20 198 65.5 Q105 151 105 330 Q105 418 127 528 L286 1349 L581 1349 L422 531 Q403 436 403 367 Q403 282 437 246.5 Q471 211 543 211 Q646 211 708 286.5 Q770 362 805 541 L962 1349 L1257 1349 L1101 543 Q1044 257 894.5 118.5 Q745 -20 490 -20 Z " />
<glyph glyph-name="V" unicode="V" horiz-adv-x="1229" d="M661 0 L362 0 L160 1349 L468 1349 L551 574 Q567 427 573 308 Q646 473 697 574 L1079 1349 L1384 1349 L661 0 Z " />
<glyph glyph-name="W" unicode="W" horiz-adv-x="1229" d="M913 0 L665 0 L650 312 Q645 371 635 636 Q632 630 354 0 L106 0 L157 1349 L416 1349 L370 654 Q366 570 334 388 Q366 476 437 632 L602 971 L797 971 Q817 766 828.5 651 Q840 536 837 434 L837 388 L845 415 Q884 580 907 654 L1126 1349 L1385 1349 L913 0 Z " />
<glyph glyph-name="X" unicode="X" horiz-adv-x="1229" d="M814 0 L607 493 L207 0 L-105 0 L492 711 L198 1349 L510 1349 L690 919 L1035 1349 L1345 1349 L793 711 L1124 0 L814 0 Z " />
<glyph glyph-name="Y" unicode="Y" horiz-adv-x="1229" d="M656 0 L362 0 L470 556 L160 1349 L469 1349 L659 783 L1073 1349 L1382 1349 L764 556 L656 0 Z " />
<glyph glyph-name="Z" unicode="Z" horiz-adv-x="1229" d="M1033 0 L-18 0 L23 209 L870 1118 L275 1118 L320 1349 L1254 1349 L1214 1144 L366 231 L1078 231 L1033 0 Z " />
<glyph glyph-name="bracketleft" unicode="&#x5b;" horiz-adv-x="1229" d="M185 -425 L556 1484 L1158 1484 L1122 1294 L786 1294 L489 -234 L825 -234 L787 -425 L185 -425 Z " />
<glyph glyph-name="backslash" unicode="&#x5c;" horiz-adv-x="1229" d="M799 -20 L274 1484 L502 1484 L1031 -20 L799 -20 Z " />
<glyph glyph-name="bracketright" unicode="&#x5d;" horiz-adv-x="1229" d="M66 -425 L104 -234 L440 -234 L737 1294 L401 1294 L437 1484 L1039 1484 L668 -425 L66 -425 Z " />
<glyph glyph-name="asciicircum" unicode="&#x5e;" horiz-adv-x="1229" d="M917 514 L737 1266 L267 514 L40 514 L605 1409 L927 1409 L1146 514 L917 514 Z " />
<glyph glyph-name="underscore" unicode="&#x5f;" horiz-adv-x="1229" d="M-153 -220 L-134 -124 L1104 -124 L1085 -220 L-153 -220 Z " />
<glyph glyph-name="grave" unicode="&#x60;" horiz-adv-x="1229" d="M812 1184 L517 1415 L525 1458 L783 1458 L988 1215 L982 1184 L812 1184 Z " />
<glyph glyph-name="a" unicode="a" horiz-adv-x="1229" d="M330 -20 Q196 -20 123.5 42 Q51 104 51 222 Q51 261 60 306 Q128 647 545 652 L769 656 L779 711 Q789 759 789 795 Q789 920 672 920 Q601 920 559 884 Q517 848 492 767 L202 781 Q315 1102 719 1102 Q892 1102 981.5 1029.5 Q1071 957 1071 816 Q1071 770 1060 712 L984 320 Q973 265 973 235 Q973 198 988.5 179 Q1004 160 1042 160 Q1074 160 1105 166 L1076 14 Q1050 8 1029 3 Q1008 -2 987.5 -5 Q967 -8 944 -10 Q921 -12 891 -12 Q796 -12 754 29.5 Q712 71 712 152 L714 193 L708 193 Q622 80 531 30 Q440 -20 330 -20 Z M738 501 L604 499 Q499 497 449 471 Q399 445 375.5 388.5 Q352 332 352 274 Q352 176 448 176 Q546 176 626 254.5 Q706 333 728 446 L738 501 Z " />
<glyph glyph-name="b" unicode="b" horiz-adv-x="1229" d="M35 0 L58 96 L89 236 L331 1484 L612 1484 L536 1090 L499 912 L501 912 Q559 1003 651 1053 Q743 1103 855 1103 Q1002 1103 1078 1010 Q1154 917 1154 744 Q1154 611 1114.5 464 Q1075 317 1003 207 Q931 97 835 38.5 Q739 -20 628 -20 Q523 -20 454 30.5 Q385 81 360 176 L356 176 Q347 128 330.5 71.5 Q314 15 307 0 L35 0 Z M410 399 Q410 293 451.5 232.5 Q493 172 566 172 Q651 172 716 243.5 Q781 315 819 452 Q857 589 857 706 Q857 912 708 912 Q609 912 534.5 815.5 Q460 719 426 547 Q410 464 410 399 Z " />
<glyph glyph-name="c" unicode="c" horiz-adv-x="1229" d="M515 -20 Q311 -20 202 83 Q93 186 93 378 Q93 511 139 652.5 Q185 794 270.5 895.5 Q356 997 475 1049.5 Q594 1102 737 1102 Q927 1102 1033.5 1007 Q1140 912 1140 746 L1140 741 L854 727 L855 746 Q855 816 818.5 862.5 Q782 909 694 909 Q598 909 533 841.5 Q468 774 428 637 Q388 500 388 385 Q388 172 554 172 Q634 172 698.5 222.5 Q763 273 795 373 L1074 360 Q1039 251 958 164 Q877 77 762.5 28.5 Q648 -20 515 -20 Z " />
<glyph glyph-name="d" unicode="d" horiz-adv-x="1229" d="M712 0 L712 8 Q712 30 719 89 Q726 148 731 176 L727 176 Q659 76 572.5 28 Q486 -20 373 -20 Q230 -20 153.5 76.5 Q77 173 77 349 Q77 479 118 629 Q159 779 228.5 884 Q298 989 392.5 1044.5 Q487 1100 602 1100 Q710 1100 780 1050 Q850 1000 872 909 L874 909 L906 1087 L983 1484 L1264 1484 L1022 236 Q1010 177 984 0 L712 0 Z M821 693 Q821 799 779 854 Q737 909 665 909 Q577 909 512 836.5 Q447 764 409.5 624 Q372 484 372 378 Q372 172 519 172 Q581 172 638.5 216.5 Q696 261 739 344 Q782 427 805 546 Q821 629 821 693 Z " />
<glyph glyph-name="e" unicode="e" horiz-adv-x="1229" d="M517 -20 Q310 -20 197 84.5 Q84 189 84 385 Q84 511 126.5 648.5 Q169 786 257 891 Q345 996 469 1049 Q593 1102 739 1102 Q936 1102 1038 994 Q1140 886 1140 685 Q1140 597 1120 495 L1119 487 L385 487 Q375 437 375 388 Q375 281 426 224.5 Q477 168 568 168 Q645 168 707.5 200.5 Q770 233 801 297 L1061 274 Q978 133 836 56.5 Q694 -20 517 -20 Z M701 925 Q598 925 523.5 855.5 Q449 786 421 663 L881 663 L885 720 Q885 822 834 873.5 Q783 925 701 925 Z " />
<glyph glyph-name="f" unicode="f" horiz-adv-x="1229" d="M721 892 L548 0 L268 0 L441 892 L185 892 L222 1082 L478 1082 L494 1165 Q528 1338 654 1426 Q780 1514 984 1514 Q1144 1514 1306 1486 L1270 1302 Q1123 1321 996 1321 Q897 1321 842.5 1279.5 Q788 1238 769 1139 L758 1082 L1201 1082 L1164 892 L721 892 Z " />
<glyph glyph-name="g" unicode="g" horiz-adv-x="1229" d="M427 -434 Q241 -434 139.5 -357.5 Q38 -281 36 -143 L324 -110 Q326 -175 365.5 -213 Q405 -251 470 -251 Q674 -251 731 37 L767 211 L765 211 Q696 106 600.5 59 Q505 12 398 12 Q257 12 181.5 101 Q106 190 106 359 Q106 488 145.5 635 Q185 782 254.5 886.5 Q324 991 419.5 1045 Q515 1099 631 1099 Q738 1099 807.5 1049 Q877 999 900 908 L905 908 Q938 1047 953 1082 L1219 1082 L1196 981 L1165 832 L1009 33 Q964 -196 814 -315 Q664 -434 427 -434 Z M849 692 Q849 791 808 848.5 Q767 906 693 906 Q606 906 541 836 Q476 766 439.5 636.5 Q403 507 403 407 Q403 207 555 207 Q642 207 709.5 276.5 Q777 346 813 468.5 Q849 591 849 692 Z " />
<glyph glyph-name="h" unicode="h" horiz-adv-x="1229" d="M483 866 Q564 990 661 1046 Q758 1102 877 1102 Q1148 1102 1148 835 Q1148 766 1132 686 L999 0 L719 0 L840 621 Q855 698 855 749 Q855 818 825 854.5 Q795 891 719 891 Q617 891 539 804.5 Q461 718 432 579 L319 0 L38 0 L326 1484 L607 1484 L529 1079 Q516 1008 488 902 L479 866 L483 866 Z " />
<glyph glyph-name="i" unicode="i" horiz-adv-x="1229" d="M726 190 L1079 190 L1042 0 L13 0 L50 190 L445 190 L581 892 L291 892 L328 1082 L899 1082 L726 190 Z M656 1277 L696 1484 L977 1484 L937 1277 L656 1277 Z " />
<glyph glyph-name="j" unicode="j" horiz-adv-x="1229" d="M217 -425 Q138 -425 59.5 -412 Q-19 -399 -62 -382 L-21 -172 Q109 -206 235 -206 Q346 -206 402 -152 Q458 -98 479 10 L650 892 L296 892 L333 1082 L969 1082 L756 -13 Q731 -142 655.5 -235 Q580 -328 466 -376.5 Q352 -425 217 -425 Z M726 1277 L766 1484 L1047 1484 L1007 1277 L726 1277 Z " />
<glyph glyph-name="k" unicode="k" horiz-adv-x="1229" d="M759 0 L565 490 L428 406 L349 0 L68 0 L356 1484 L637 1484 L472 634 L945 1082 L1247 1082 L785 660 L1066 0 L759 0 Z " />
<glyph glyph-name="l" unicode="l" horiz-adv-x="1229" d="M726 190 L1079 190 L1042 0 L13 0 L50 190 L445 190 L660 1294 L370 1294 L406 1484 L977 1484 L726 190 Z " />
<glyph glyph-name="m" unicode="m" horiz-adv-x="1229" d="M396 0 L524 658 Q547 783 547 835 Q547 883 532.5 903 Q518 923 488 923 Q438 923 390 829.5 Q342 736 312 582 L199 0 L-30 0 L135 851 Q142 885 148.5 922.5 Q155 960 160.5 993.5 Q166 1027 170 1051 Q174 1075 174 1082 L383 1082 L364 955 L355 907 L357 907 Q414 1014 475 1058 Q536 1102 611 1102 Q699 1102 733 1054.5 Q767 1007 767 912 L767 906 L769 906 Q830 1012 894.5 1057 Q959 1102 1043 1102 Q1131 1102 1171 1056 Q1211 1010 1211 910 Q1211 835 1189 721 L1049 0 L821 0 L949 658 Q972 783 972 835 Q972 883 957.5 903 Q943 923 913 923 Q862 923 817 842.5 Q772 762 741 601 L624 0 L396 0 Z " />
<glyph glyph-name="n" unicode="n" horiz-adv-x="1229" d="M719 0 L839 619 Q854 693 854 746 Q854 821 822 856.5 Q790 892 721 892 Q620 892 540.5 806.5 Q461 721 432 580 L319 0 L38 0 L201 840 Q234 1006 240 1082 L508 1082 Q508 1066 499 993.5 Q490 921 480 867 L484 867 Q637 1103 877 1103 Q1148 1103 1148 830 Q1148 765 1133 687 L999 0 L719 0 Z " />
<glyph glyph-name="o" unicode="o" horiz-adv-x="1229" d="M501 -20 Q293 -20 184.5 84 Q76 188 76 383 Q76 567 155.5 743 Q235 919 380 1010.5 Q525 1102 725 1102 Q1156 1102 1156 719 Q1156 643 1137 542 Q1085 273 920 126.5 Q755 -20 501 -20 Z M863 715 Q863 816 822 862.5 Q781 909 692 909 Q585 909 517 843.5 Q449 778 409 635 Q369 492 369 378 Q369 172 535 172 Q644 172 713 239 Q782 306 822.5 453.5 Q863 601 863 715 Z " />
<glyph glyph-name="p" unicode="p" horiz-adv-x="1229" d="M517 1082 L517 1074 Q517 1008 498 906 L502 906 Q566 1000 657 1051.5 Q748 1103 856 1103 Q998 1103 1075 1006 Q1152 909 1152 731 Q1152 550 1083.5 364 Q1015 178 896.5 79 Q778 -20 627 -20 Q521 -20 451.5 28.5 Q382 77 357 171 L355 171 L323 -7 L241 -425 L-40 -425 L207 846 Q219 905 245 1082 L517 1082 Z M408 390 Q408 285 449 228 Q490 171 564 171 Q652 171 716.5 243 Q781 315 819 451.5 Q857 588 857 703 Q857 911 710 911 Q629 911 558 837.5 Q487 764 447.5 633 Q408 502 408 390 Z " />
<glyph glyph-name="q" unicode="q" horiz-adv-x="1229" d="M1194 1082 L1171 987 L1140 846 L893 -425 L612 -425 L694 -7 L730 171 L728 171 Q670 80 578 30 Q486 -20 374 -20 Q226 -20 151 73 Q76 166 76 338 Q76 468 114 614.5 Q152 761 224 872.5 Q296 984 393 1043.5 Q490 1103 601 1103 Q706 1103 773 1052.5 Q840 1002 869 906 L873 906 Q878 933 896.5 1001 Q915 1069 922 1082 L1194 1082 Z M819 684 Q819 791 777 851 Q735 911 663 911 Q578 911 512.5 838.5 Q447 766 409.5 626 Q372 486 372 376 Q372 171 521 171 Q619 171 693.5 266 Q768 361 803 536 Q819 619 819 684 Z " />
<glyph glyph-name="r" unicode="r" horiz-adv-x="1229" d="M1141 848 Q1034 867 933 867 Q778 867 663 750 Q548 633 510 438 L425 0 L145 0 L281 701 Q306 837 306 990 L303 1082 L574 1082 Q580 1004 580 955 Q580 900 576 854 L580 854 Q656 990 753 1046 Q850 1102 984 1102 Q1090 1102 1187 1085 L1141 848 Z " />
<glyph glyph-name="s" unicode="s" horiz-adv-x="1229" d="M511 -20 Q287 -20 182 51 Q77 122 68 270 L323 307 Q328 230 373.5 198 Q419 166 547 166 Q666 166 725.5 196 Q785 226 797 290 L799 313 Q799 353 760 379 Q721 405 632 424 Q433 465 358 498 Q283 531 243 582 Q203 633 203 708 Q203 821 267 913.5 Q331 1006 450 1054.5 Q569 1103 731 1103 Q925 1103 1027.5 1028 Q1130 953 1132 811 L878 785 Q878 854 836.5 885 Q795 916 695 916 Q595 916 540 890.5 Q485 865 473 805 L471 784 Q471 748 506.5 724 Q542 700 618 685 L725 659 Q865 629 931 595 Q997 561 1032 510.5 Q1067 460 1067 386 Q1067 267 999 173.5 Q931 80 804.5 30 Q678 -20 511 -20 Z " />
<glyph glyph-name="t" unicode="t" horiz-adv-x="1229" d="M396 892 L229 892 L266 1082 L447 1082 L590 1364 L766 1364 L711 1082 L1096 1082 L1059 892 L674 892 L571 362 Q560 302 560 279 Q560 225 596 201.5 Q632 178 710 178 Q833 178 970 205 L934 19 Q895 13 857.5 7 Q820 1 780.5 -3.5 Q741 -8 697.5 -10.5 Q654 -13 603 -13 Q441 -13 357 44 Q273 101 273 224 Q273 253 278 287 Q283 321 396 892 Z " />
<glyph glyph-name="u" unicode="u" horiz-adv-x="1229" d="M521 1082 L403 475 Q391 412 391 360 Q391 190 520 190 Q611 190 687 279.5 Q763 369 788 502 L900 1082 L1181 1082 L1018 242 Q1004 176 993 99.5 Q982 23 979 0 L711 0 Q719 92 741 215 L736 215 Q583 -20 362 -20 Q92 -20 92 253 Q92 320 107 395 L240 1082 L521 1082 Z " />
<glyph glyph-name="v" unicode="v" horiz-adv-x="1229" d="M669 0 L333 0 L136 1082 L433 1082 L521 460 Q529 404 544 210 Q603 340 666 457 L1004 1082 L1298 1082 L669 0 Z " />
<glyph glyph-name="w" unicode="w" horiz-adv-x="1229" d="M923 0 L679 0 L628 471 L620 573 Q615 558 603.5 532.5 Q592 507 332 0 L89 0 L116 1082 L344 1082 L309 475 Q300 326 284 249 L319 323 L572 817 L765 817 L816 362 Q823 292 823 249 Q839 327 888 475 L1097 1082 L1323 1082 L923 0 Z " />
<glyph glyph-name="x" unicode="x" horiz-adv-x="1229" d="M769 0 L583 392 L243 0 L-56 0 L459 559 L173 1082 L476 1082 L649 728 L957 1082 L1262 1082 L774 562 L1074 0 L769 0 Z " />
<glyph glyph-name="y" unicode="y" horiz-adv-x="1229" d="M137 -425 Q30 -425 -42 -412 L-3 -212 L47 -217 L97 -220 Q182 -220 241 -177 Q300 -134 356 -37 L383 11 L143 1082 L440 1082 L528 555 Q530 546 532 528.5 Q534 511 536 494.5 Q538 478 551 351.5 Q564 225 564 221 L581 258 L718 551 L1001 1082 L1295 1082 L626 -57 Q504 -264 394.5 -344.5 Q285 -425 137 -425 Z " />
<glyph glyph-name="z" unicode="z" horiz-adv-x="1229" d="M33 0 L72 199 L774 879 L245 879 L284 1082 L1133 1082 L1094 881 L396 205 L1012 205 L972 0 L33 0 Z " />
<glyph glyph-name="braceleft" unicode="&#x7b;" horiz-adv-x="1229" d="M530 -425 Q412 -425 349 -366.5 Q286 -308 286 -203 Q286 -169 294 -126 L357 202 Q364 237 364 272 Q364 348 319.5 388 Q275 428 173 431 L211 626 Q330 631 396.5 687 Q463 743 485 857 L548 1185 Q577 1332 669.5 1408 Q762 1484 901 1484 L1228 1484 L1192 1294 L1004 1294 Q913 1294 862 1242 Q811 1190 791 1085 L732 784 Q713 687 642 619 Q571 551 476 532 L476 528 Q554 508 596.5 455.5 Q639 403 639 328 Q639 299 634 276 L575 -25 Q567 -67 567 -101 Q567 -168 600.5 -201 Q634 -234 707 -234 L895 -234 L857 -425 L530 -425 Z " />
<glyph glyph-name="bar" unicode="&#x7c;" horiz-adv-x="1229" d="M483 -455 L483 1484 L745 1484 L745 -455 L483 -455 Z " />
<glyph glyph-name="braceright" unicode="&#x7d;" horiz-adv-x="1229" d="M-4 -425 L34 -234 L222 -234 Q313 -234 363.5 -182.5 Q414 -131 434 -25 L493 276 Q511 370 580.5 438 Q650 506 749 528 L749 532 Q672 550 629 604 Q586 658 586 732 L591 784 L650 1085 Q658 1119 658 1162 Q658 1294 519 1294 L331 1294 L367 1484 L694 1484 Q812 1484 876 1429 Q940 1374 940 1267 Q940 1229 931 1185 L868 857 Q860 817 860 786 Q860 630 1052 626 L1014 431 Q893 429 827 371 Q761 313 740 202 L677 -126 Q651 -263 556 -344 Q461 -425 323 -425 L-4 -425 Z " />
<glyph glyph-name="asciitilde" unicode="&#x7e;" horiz-adv-x="1229" d="M861 516 Q786 516 718 537 Q650 558 580 584 Q453 631 368 631 Q297 631 234 610 Q171 589 96 543 L137 756 Q265 840 424 840 Q529 840 658 793 Q787 745 833.5 734 Q880 723 921 723 Q1055 723 1186 815 L1144 596 Q1072 552 1009.5 534 Q947 516 861 516 Z " />
<glyph glyph-name="exclamdown" unicode="&#xa1;" horiz-adv-x="1229" d="M522 653 L752 653 L605 -270 L311 -270 L522 653 Z M867 1079 L814 809 L526 809 L579 1079 L867 1079 Z " />
<glyph glyph-name="cent" unicode="&#xa2;" horiz-adv-x="1229" d="M590 311 Q678 311 748.5 365.5 Q819 420 852 520 L1133 508 Q1079 353 948 252.5 Q817 152 635 131 L598 -60 L436 -60 L473 129 Q297 146 202 245 Q107 344 107 517 Q107 682 178 838.5 Q249 995 377.5 1086.5 Q506 1178 680 1196 L716 1380 L878 1380 L842 1196 Q1007 1177 1097.5 1084 Q1188 991 1188 845 L1188 839 L903 825 L903 833 Q903 921 857 968 Q811 1015 725 1015 Q651 1015 590.5 981 Q530 947 486 880 Q442 813 417 717 Q392 621 392 540 Q392 427 442.5 369 Q493 311 590 311 Z " />
<glyph glyph-name="sterling" unicode="&#xa3;" horiz-adv-x="1229" d="M1146 363 Q1083 192 959 96 Q835 0 683 0 L-21 0 L19 205 Q129 260 182 332.5 Q235 405 256 512 L271 594 L83 594 L117 764 L295 764 L333 962 Q373 1164 500.5 1267 Q628 1370 838 1370 Q1003 1370 1087.5 1303.5 Q1172 1237 1189 1079 L947 1032 Q940 1109 906 1144 Q872 1179 806 1179 Q715 1179 664 1121.5 Q613 1064 589 939 L555 764 L841 764 L807 594 L521 594 L506 514 Q484 405 428.5 334 Q373 263 265 209 L655 209 Q759 209 822 258.5 Q885 308 920 402 L1146 363 Z " />
<glyph glyph-name="currency" unicode="&#xa4;" horiz-adv-x="1229" d="M310 905 L203 1038 L390 1194 L495 1061 Q609 1120 727 1120 Q849 1120 934 1061 L1095 1196 L1223 1038 L1061 903 Q1087 842 1087 768 Q1087 694 1059 615 Q1031 536 978 467 L1086 334 L897 174 L790 309 Q678 250 558 250 Q434 250 349 307 L187 170 L61 328 L222 465 Q198 530 198 598 Q198 675 226.5 755.5 Q255 836 310 905 Z M429 647 Q429 573 478 525 Q527 477 602 477 Q700 477 777 553.5 Q854 630 854 727 Q854 801 805 848 Q756 895 683 895 Q621 895 563 861.5 Q505 828 467 768.5 Q429 709 429 647 Z " />
<glyph glyph-name="yen" unicode="&#xa5;" horiz-adv-x="1229" d="M840 691 L1116 691 L1088 545 L750 545 L718 383 L1056 383 L1028 236 L690 236 L644 0 L372 0 L418 236 L82 236 L110 383 L446 383 L478 545 L142 545 L170 691 L446 691 L190 1349 L479 1349 L665 813 L1063 1349 L1352 1349 L840 691 Z " />
<glyph glyph-name="brokenbar" unicode="&#xa6;" horiz-adv-x="1229" d="M483 676 L483 1454 L745 1454 L745 676 L483 676 Z M483 -455 L483 324 L745 324 L745 -455 L483 -455 Z " />
<glyph glyph-name="section" unicode="&#xa7;" horiz-adv-x="1229" d="M813 1485 Q1006 1485 1109.5 1415 Q1213 1345 1215 1211 L972 1186 Q970 1249 920 1282 Q870 1315 780 1315 Q668 1315 609.5 1285.5 Q551 1256 539 1191 L536 1168 Q536 1137 558 1112.5 Q580 1088 625 1068.5 Q670 1049 789 1021 Q942 984 1009 949 Q1076 914 1111 866.5 Q1146 819 1146 751 Q1146 643 1074.5 553 Q1003 463 891 429 Q954 398 991.5 351.5 Q1029 305 1029 232 Q1029 124 963.5 27.5 Q898 -69 773 -120 Q648 -171 472 -171 Q249 -171 142 -101.5 Q35 -32 25 117 L269 154 Q273 74 327 36.5 Q381 -1 505 -1 Q651 -1 717.5 43.5 Q784 88 784 174 Q784 212 762 236.5 Q740 261 694.5 280.5 Q649 300 483 341 Q307 386 235 450.5 Q163 515 163 606 Q163 714 233 794.5 Q303 875 431 914 Q361 947 324.5 1000.5 Q288 1054 288 1121 Q288 1223 353 1310 Q418 1397 535.5 1441 Q653 1485 813 1485 Z M898 688 Q898 739 848 772 Q798 805 638 838 Q526 825 469.5 778 Q413 731 413 665 Q413 634 435 609.5 Q457 585 501.5 565.5 Q546 546 672 516 Q782 521 840 566.5 Q898 612 898 688 Z " />
<glyph glyph-name="dieresis" unicode="&#xa8;" horiz-adv-x="1229" d="M845 1219 L888 1438 L1115 1438 L1072 1219 L845 1219 Z M421 1219 L464 1438 L688 1438 L645 1219 L421 1219 Z " />
<glyph glyph-name="copyright" unicode="&#xa9;" horiz-adv-x="1229" d="M628 333 Q460 333 367.5 446.5 Q275 560 275 763 Q275 965 364 1076 Q453 1187 621 1187 Q838 1187 924 978 L786 935 Q737 1062 623 1062 Q528 1062 478 985.5 Q428 909 428 763 Q428 621 481.5 539 Q535 457 628 457 Q741 457 799 611 L928 569 Q891 456 813.5 394.5 Q736 333 628 333 Z M1197 761 Q1197 534 1126 370.5 Q1055 207 923 122.5 Q791 38 614 38 Q437 38 305.5 123.5 Q174 209 102.5 372 Q31 535 31 761 Q31 987 102 1150 Q173 1313 305.5 1398.5 Q438 1484 614 1484 Q790 1484 922.5 1399 Q1055 1314 1126 1151.5 Q1197 989 1197 761 Z M1071 761 Q1071 1049 951.5 1208.5 Q832 1368 614 1368 Q399 1368 279.5 1208.5 Q160 1049 160 761 Q160 470 280 311.5 Q400 153 614 153 Q831 153 951 311.5 Q1071 470 1071 761 Z " />
<glyph glyph-name="ordfeminine" unicode="&#xaa;" horiz-adv-x="1229" d="M465 643 Q368 643 314.5 688 Q261 733 261 818 Q261 845 267 875 Q315 1113 640 1118 L810 1120 Q824 1195 824 1215 Q824 1305 727 1305 Q610 1305 577 1197 L360 1208 Q400 1317 503 1379 Q606 1441 751 1441 Q890 1441 962.5 1387 Q1035 1333 1035 1233 Q1035 1204 1029 1171 L976 898 Q968 860 968 836 Q968 787 1013 787 L1070 792 L1046 667 Q973 646 906 646 Q825 646 789.5 684.5 Q754 723 754 777 L755 800 L752 800 Q637 643 465 643 Z M576 794 Q648 794 708 849.5 Q768 905 782 979 L788 1010 L682 1007 Q599 1005 560.5 988 Q522 971 503 937 Q484 903 484 865 Q484 794 576 794 Z " />
<glyph glyph-name="guillemotleft" unicode="&#xab;" horiz-adv-x="1229" d="M779 141 L594 502 L607 573 L935 940 L1173 940 L1166 903 L840 537 L1026 176 L1019 141 L779 141 Z M312 141 L125 502 L138 573 L468 940 L704 940 L697 903 L371 537 L557 176 L550 141 L312 141 Z " />
<glyph glyph-name="logicalnot" unicode="&#xac;" horiz-adv-x="1229" d="M887 141 L887 569 L84 569 L84 793 L1111 793 L1111 141 L887 141 Z " />
<glyph glyph-name="registered" unicode="&#xae;" horiz-adv-x="1229" d="M1197 761 Q1197 534 1126 370.5 Q1055 207 923 122.5 Q791 38 614 38 Q437 38 305.5 123.5 Q174 209 102.5 372 Q31 535 31 761 Q31 987 102 1150 Q173 1313 305.5 1398.5 Q438 1484 614 1484 Q790 1484 922.5 1399 Q1055 1314 1126 1151.5 Q1197 989 1197 761 Z M789 343 L599 672 L483 672 L483 343 L332 343 L332 1174 L639 1174 Q781 1174 856.5 1111 Q932 1048 932 937 Q932 835 881.5 770 Q831 705 746 686 L964 343 L789 343 Z M781 935 Q781 1062 605 1062 L483 1062 L483 782 L617 782 Q697 782 739 821 Q781 860 781 935 Z M1071 761 Q1071 1049 951.5 1208.5 Q832 1368 614 1368 Q399 1368 279.5 1208.5 Q160 1049 160 761 Q160 470 280 311.5 Q400 153 614 153 Q831 153 951 311.5 Q1071 470 1071 761 Z " />
<glyph glyph-name="overscore" unicode="&#xaf;" horiz-adv-x="1229" d="M172 1452 L191 1548 L1429 1548 L1410 1452 L172 1452 Z " />
<glyph glyph-name="degree" unicode="&#xb0;" horiz-adv-x="1229" d="M935 1110 Q935 980 841.5 887.5 Q748 795 614 795 Q482 795 388 886 Q294 977 294 1110 Q294 1196 336.5 1269 Q379 1342 452.5 1383.5 Q526 1425 614 1425 Q749 1425 842 1332.5 Q935 1240 935 1110 Z M777 1110 Q777 1180 730.5 1228 Q684 1276 614 1276 Q543 1276 495.5 1227.5 Q448 1179 448 1110 Q448 1041 497 991.5 Q546 942 614 942 Q681 942 729 991 Q777 1040 777 1110 Z " />
<glyph glyph-name="plusminus" unicode="&#xb1;" horiz-adv-x="1229" d="M726 707 L726 366 L502 366 L502 707 L101 707 L101 930 L502 930 L502 1270 L726 1270 L726 930 L1128 930 L1128 707 L726 707 Z M101 0 L101 223 L1128 223 L1128 0 L101 0 Z " />
<glyph glyph-name="twosuperior" unicode="&#xb2;" horiz-adv-x="1229" d="M281 563 L309 705 Q402 844 626 969 Q743 1035 794 1084.5 Q845 1134 845 1198 Q845 1273 766 1273 Q667 1273 633 1158 L406 1164 Q446 1283 550 1352.5 Q654 1422 795 1422 Q931 1422 1005.5 1371.5 Q1080 1321 1080 1226 Q1080 1046 844 913 Q702 833 652.5 798 Q603 763 578 725 L1003 725 L971 563 L281 563 Z " />
<glyph glyph-name="threesuperior" unicode="&#xb3;" horiz-adv-x="1229" d="M626 551 Q474 551 393.5 605 Q313 659 313 771 Q313 789 314 795 L538 810 L537 796 Q537 700 651 700 Q720 700 758 739.5 Q796 779 796 838 Q796 921 651 921 L585 921 L614 1069 L674 1069 Q758 1069 801.5 1104.5 Q845 1140 846 1199 Q846 1272 757 1272 Q708 1272 672.5 1245.5 Q637 1219 622 1167 L407 1181 Q443 1294 545.5 1357.5 Q648 1421 792 1421 Q924 1421 998 1372 Q1072 1323 1072 1238 Q1072 1155 1016 1088.5 Q960 1022 850 1000 L850 998 Q939 987 977.5 944 Q1016 901 1016 841 Q1016 763 968.5 694 Q921 625 834.5 588 Q748 551 626 551 Z " />
<glyph glyph-name="acute" unicode="&#xb4;" horiz-adv-x="1229" d="M492 1184 L498 1215 L797 1458 L1055 1458 L1047 1415 L662 1184 L492 1184 Z " />
<glyph glyph-name="mu1" unicode="&#xb5;" horiz-adv-x="1229" d="M729 0 Q738 112 752 184 L749 184 Q632 -20 463 -20 Q411 -20 372.5 4 Q334 28 319 70 L315 70 L296 -45 L224 -416 L-57 -416 L234 1082 L515 1082 L398 477 Q385 406 385 358 Q385 193 527 193 Q626 193 703 278.5 Q780 364 806 504 L918 1082 L1199 1082 L1036 242 Q1000 35 997 0 L729 0 Z " />
<glyph glyph-name="paragraph" unicode="&#xb6;" horiz-adv-x="1229" d="M1113 1206 L816 -324 L660 -324 L957 1206 L762 1206 L465 -324 L310 -324 L496 634 Q352 634 272.5 702.5 Q193 771 193 897 Q193 1019 250 1127 Q307 1235 409 1292 Q511 1349 643 1349 L1272 1349 L1244 1206 L1113 1206 Z " />
<glyph glyph-name="middot.001" unicode="&#xb7;" horiz-adv-x="1229" d="M446 417 L505 722 L793 722 L734 417 L446 417 Z " />
<glyph glyph-name="cedilla" unicode="&#xb8;" horiz-adv-x="1229" d="M-1 -445 Q-47 -445 -101 -439 L-78 -321 Q-46 -328 4 -328 Q157 -328 157 -245 Q157 -220 134.5 -205 Q112 -190 46 -190 Q8 -190 -6 -192 L100 0 L243 0 L183 -102 Q342 -112 342 -221 Q342 -281 305 -334.5 Q268 -388 189 -416.5 Q110 -445 -1 -445 Z " />
<glyph glyph-name="onesuperior" unicode="&#xb9;" horiz-adv-x="1229" d="M279 563 L307 705 L543 705 L646 1235 Q614 1188 535.5 1154 Q457 1120 393 1120 L423 1274 Q497 1274 573.5 1313 Q650 1352 690 1410 L894 1410 L757 705 L977 705 L949 563 L279 563 Z " />
<glyph glyph-name="ordmasculine" unicode="&#xba;" horiz-adv-x="1229" d="M630 643 Q479 643 396.5 721 Q314 799 314 939 Q314 1032 348.5 1129.5 Q383 1227 445.5 1297 Q508 1367 595.5 1404 Q683 1441 790 1441 Q945 1441 1028.5 1367.5 Q1112 1294 1112 1152 Q1112 1053 1077 954.5 Q1042 856 978.5 787 Q915 718 825.5 680.5 Q736 643 630 643 Z M883 1146 Q883 1220 851 1248.5 Q819 1277 760 1277 Q686 1277 639.5 1234.5 Q593 1192 567.5 1104 Q542 1016 542 943 Q542 804 660 804 Q736 804 783.5 848 Q831 892 857 982.5 Q883 1073 883 1146 Z " />
<glyph glyph-name="guillemotright" unicode="&#xbb;" horiz-adv-x="1229" d="M54 141 L61 176 L387 537 L205 903 L212 940 L450 940 L634 573 L621 502 L294 141 L54 141 Z M523 141 L530 176 L856 537 L674 903 L681 940 L917 940 L1103 573 L1090 502 L761 141 L523 141 Z " />
<glyph glyph-name="onequarter" unicode="&#xbc;" horiz-adv-x="1229" d="M322 1159 Q303 1131 266 1111.5 Q229 1092 181.5 1080 Q134 1068 104 1068 L136 1233 Q194 1233 264 1266 Q334 1299 369 1349 L550 1349 L402 589 L211 589 L322 1159 Z M201 0 L39 0 L1039 1349 L1200 1349 L201 0 Z M1033 162 L1002 2 L811 2 L842 162 L501 162 L530 311 L939 763 L1150 763 L1063 313 L1145 313 L1115 162 L1033 162 Z M935 606 Q918 582 886.5 541 Q855 500 828.5 466 Q802 432 695 313 L872 313 L910 511 Q921 565 935 606 Z " />
<glyph glyph-name="onehalf" unicode="&#xbd;" horiz-adv-x="1229" d="M323 1159 Q304 1131 267 1111.5 Q230 1092 182.5 1080 Q135 1068 105 1068 L137 1233 Q195 1233 265 1266 Q335 1299 370 1349 L551 1349 L403 589 L212 589 L323 1159 Z M186 0 L24 0 L1024 1349 L1185 1349 L186 0 Z M553 1 L581 144 Q628 216 692.5 272 Q757 328 852 381 Q941 430 979.5 467.5 Q1018 505 1027 552 L1030 588 Q1028 643 965 643 Q920 643 890.5 616.5 Q861 590 842 525 L664 535 Q705 658 787.5 715.5 Q870 773 993 773 Q1107 773 1162.5 729.5 Q1218 686 1218 608 L1213 558 Q1201 496 1167.5 449.5 Q1134 403 1087.5 366 Q1041 329 912 260 Q803 200 775 154 L1125 154 L1095 1 L553 1 Z " />
<glyph glyph-name="threequarters" unicode="&#xbe;" horiz-adv-x="1229" d="M311 569 Q185 569 123.5 622 Q62 675 62 798 L62 801 L272 827 Q271 809 271 804 Q271 706 341 706 Q394 706 420 747 Q446 788 446 836 Q446 874 418.5 891.5 Q391 909 326 909 L285 909 L310 1040 L347 1040 Q399 1040 430 1054.5 Q461 1069 477 1104.5 Q493 1140 493 1179 Q493 1231 441 1231 Q397 1231 374.5 1203 Q352 1175 337 1121 L145 1133 Q183 1247 262.5 1304 Q342 1361 472 1361 Q580 1361 637 1318.5 Q694 1276 694 1200 Q694 1044 520 984 L519 978 Q645 949 645 836 L640 793 Q621 691 534.5 630 Q448 569 311 569 Z M277 0 L115 0 L1115 1349 L1276 1349 L277 0 Z M1072 162 L1041 2 L850 2 L881 162 L540 162 L569 311 L978 763 L1189 763 L1102 313 L1184 313 L1154 162 L1072 162 Z M974 606 Q957 582 925.5 541 Q894 500 867.5 466 Q841 432 734 313 L911 313 L949 511 Q960 565 974 606 Z " />
<glyph glyph-name="questiondown" unicode="&#xbf;" horiz-adv-x="1229" d="M570 676 L837 676 Q812 574 743.5 492.5 Q675 411 564 343 Q427 260 373.5 204.5 Q320 149 320 77 Q320 17 368.5 -22.5 Q417 -62 511 -62 Q611 -62 691.5 -4 Q772 54 803 153 L1085 141 Q1021 -59 858.5 -173.5 Q696 -288 471 -288 Q265 -288 147.5 -205.5 Q30 -123 30 22 Q30 72 45.5 126.5 Q61 181 94 231 Q127 281 178.5 326.5 Q230 372 394 474 Q546 569 570 676 Z M924 1082 L872 812 L583 812 L635 1082 L924 1082 Z " />
<glyph glyph-name="Agrave" unicode="&#xc0;" horiz-adv-x="1229" d="M1124 0 L830 0 L802 330 L346 330 L190 0 L-105 0 L600 1349 L944 1349 L1124 0 Z M737 1167 Q721 1126 690.5 1058 Q660 990 451 552 L783 552 L749 932 L738 1132 L737 1167 Z M766 1427 L471 1658 L479 1701 L737 1701 L942 1458 L936 1427 L766 1427 Z " />
<glyph glyph-name="Aacute" unicode="&#xc1;" horiz-adv-x="1229" d="M1124 0 L830 0 L802 330 L346 330 L190 0 L-105 0 L600 1349 L944 1349 L1124 0 Z M737 1167 Q721 1126 690.5 1058 Q660 990 451 552 L783 552 L749 932 L738 1132 L737 1167 Z M632 1428 L638 1459 L937 1702 L1195 1702 L1187 1659 L802 1428 L632 1428 Z " />
<glyph glyph-name="Acircumflex" unicode="&#xc2;" horiz-adv-x="1229" d="M1124 0 L830 0 L802 330 L346 330 L190 0 L-105 0 L600 1349 L944 1349 L1124 0 Z M737 1167 Q721 1126 690.5 1058 Q660 990 451 552 L783 552 L749 932 L738 1132 L737 1167 Z M1160 1455 L1155 1427 L996 1427 L819 1561 L815 1561 L578 1427 L418 1427 L423 1455 L730 1705 L959 1705 L1160 1455 Z " />
<glyph glyph-name="Atilde" unicode="&#xc3;" horiz-adv-x="1229" d="M1124 0 L830 0 L802 330 L346 330 L190 0 L-105 0 L600 1349 L944 1349 L1124 0 Z M737 1167 Q721 1126 690.5 1058 Q660 990 451 552 L783 552 L749 932 L738 1132 L737 1167 Z M952 1422 Q908 1422 867 1439.5 Q826 1457 788 1478.5 Q750 1500 716 1517.5 Q682 1535 652 1535 Q604 1535 577.5 1509 Q551 1483 532 1422 L395 1422 Q435 1575 503.5 1640 Q572 1705 675 1705 Q720 1705 762 1687.5 Q804 1670 841.5 1648.5 Q879 1627 912 1609.5 Q945 1592 974 1592 Q1024 1592 1049.5 1620 Q1075 1648 1095 1705 L1230 1705 Q1193 1555 1123 1488.5 Q1053 1422 952 1422 Z " />
<glyph glyph-name="Adieresis" unicode="&#xc4;" horiz-adv-x="1229" d="M1124 0 L830 0 L802 330 L346 330 L190 0 L-105 0 L600 1349 L944 1349 L1124 0 Z M737 1167 Q721 1126 690.5 1058 Q660 990 451 552 L783 552 L749 932 L738 1132 L737 1167 Z M889 1445 L932 1664 L1159 1664 L1116 1445 L889 1445 Z M465 1445 L508 1664 L732 1664 L689 1445 L465 1445 Z " />
<glyph glyph-name="Aring" unicode="&#xc5;" horiz-adv-x="1229" d="M1124 0 L830 0 L802 330 L346 330 L190 0 L-105 0 L600 1349 L944 1349 L1124 0 Z M737 1167 Q721 1126 690.5 1058 Q660 990 451 552 L783 552 L749 932 L738 1132 L737 1167 Z M760 1279 Q664 1279 608.5 1322.5 Q553 1366 553 1441 Q553 1500 588 1557 Q623 1614 689.5 1646 Q756 1678 838 1678 Q933 1678 989 1636 Q1045 1594 1045 1517 Q1045 1454 1008 1397.5 Q971 1341 906 1310 Q841 1279 760 1279 Z M903 1489 Q903 1519 878 1534.5 Q853 1550 813 1550 Q755 1550 724.5 1523 Q694 1496 694 1467 Q694 1440 718 1424 Q742 1408 785 1408 Q838 1408 870.5 1432 Q903 1456 903 1489 Z " />
<glyph glyph-name="AE" unicode="&#xc6;" horiz-adv-x="1229" d="M586 387 L333 387 L156 0 L-105 0 L529 1349 L1333 1349 L1294 1147 L985 1147 L916 792 L1213 792 L1174 592 L877 592 L801 202 L1149 202 L1110 0 L511 0 L586 387 Z M735 1152 L677 1152 L592 952 L423 586 L625 586 L735 1152 Z " />
<glyph glyph-name="Ccedilla" unicode="&#xc7;" horiz-adv-x="1229" d="M386 486 Q386 212 595 212 Q759 212 883 456 L1146 404 Q928 -20 547 -20 Q317 -20 200 98.5 Q83 217 83 449 Q83 557 107 681 Q243 1370 809 1370 Q1184 1370 1230 981 L945 915 Q936 1022 890 1080 Q844 1138 768 1138 Q651 1138 567.5 1052.5 Q484 967 435 798 Q386 629 386 486 Z M353 -445 Q307 -445 253 -439 L276 -321 Q308 -328 358 -328 Q511 -328 511 -245 Q511 -220 488.5 -205 Q466 -190 400 -190 Q362 -190 348 -192 L454 0 L597 0 L537 -102 Q696 -112 696 -221 Q696 -281 659 -334.5 Q622 -388 543 -416.5 Q464 -445 353 -445 Z " />
<glyph glyph-name="Egrave" unicode="&#xc8;" horiz-adv-x="1229" d="M32 0 L294 1349 L1262 1349 L1218 1121 L545 1121 L482 797 L1094 797 L1050 569 L438 569 L371 228 L1085 228 L1041 0 L32 0 Z M788 1428 L493 1659 L501 1702 L759 1702 L964 1459 L958 1428 L788 1428 Z " />
<glyph glyph-name="Eacute" unicode="&#xc9;" horiz-adv-x="1229" d="M32 0 L294 1349 L1262 1349 L1218 1121 L545 1121 L482 797 L1094 797 L1050 569 L438 569 L371 228 L1085 228 L1041 0 L32 0 Z M630 1428 L636 1459 L935 1702 L1193 1702 L1185 1659 L800 1428 L630 1428 Z " />
<glyph glyph-name="Ecircumflex" unicode="&#xca;" horiz-adv-x="1229" d="M32 0 L294 1349 L1262 1349 L1218 1121 L545 1121 L482 797 L1094 797 L1050 569 L438 569 L371 228 L1085 228 L1041 0 L32 0 Z M1160 1455 L1155 1427 L996 1427 L819 1561 L815 1561 L578 1427 L418 1427 L423 1455 L730 1705 L959 1705 L1160 1455 Z " />
<glyph glyph-name="Edieresis" unicode="&#xcb;" horiz-adv-x="1229" d="M32 0 L294 1349 L1262 1349 L1218 1121 L545 1121 L482 797 L1094 797 L1050 569 L438 569 L371 228 L1085 228 L1041 0 L32 0 Z M909 1445 L952 1664 L1179 1664 L1136 1445 L909 1445 Z M485 1445 L528 1664 L752 1664 L709 1445 L485 1445 Z " />
<glyph glyph-name="Igrave" unicode="&#xcc;" horiz-adv-x="1229" d="M314 1349 L1230 1349 L1186 1121 L870 1121 L696 228 L1012 228 L968 0 L52 0 L96 228 L412 228 L586 1121 L270 1121 L314 1349 Z M778 1428 L483 1659 L491 1702 L749 1702 L954 1459 L948 1428 L778 1428 Z " />
<glyph glyph-name="Iacute" unicode="&#xcd;" horiz-adv-x="1229" d="M314 1349 L1230 1349 L1186 1121 L870 1121 L696 228 L1012 228 L968 0 L52 0 L96 228 L412 228 L586 1121 L270 1121 L314 1349 Z M642 1428 L648 1459 L947 1702 L1205 1702 L1197 1659 L812 1428 L642 1428 Z " />
<glyph glyph-name="Icircumflex" unicode="&#xce;" horiz-adv-x="1229" d="M314 1349 L1230 1349 L1186 1121 L870 1121 L696 228 L1012 228 L968 0 L52 0 L96 228 L412 228 L586 1121 L270 1121 L314 1349 Z M1160 1455 L1155 1427 L996 1427 L819 1561 L815 1561 L578 1427 L418 1427 L423 1455 L730 1705 L959 1705 L1160 1455 Z " />
<glyph glyph-name="Idieresis" unicode="&#xcf;" horiz-adv-x="1229" d="M314 1349 L1230 1349 L1186 1121 L870 1121 L696 228 L1012 228 L968 0 L52 0 L96 228 L412 228 L586 1121 L270 1121 L314 1349 Z M889 1445 L932 1664 L1159 1664 L1116 1445 L889 1445 Z M465 1445 L508 1664 L732 1664 L689 1445 L465 1445 Z " />
<glyph glyph-name="Eth" unicode="&#xd0;" horiz-adv-x="1229" d="M464 0 L43 0 L153 564 L19 564 L61 783 L195 783 L305 1349 L666 1349 Q1212 1349 1212 889 Q1212 734 1158 555.5 Q1104 377 1006.5 252.5 Q909 128 771 64 Q633 0 464 0 Z M911 849 Q911 993 837.5 1057 Q764 1121 617 1121 L556 1121 L490 783 L697 783 L655 564 L448 564 L382 228 L484 228 Q803 228 893 685 Q911 778 911 849 Z " />
<glyph glyph-name="Ntilde" unicode="&#xd1;" horiz-adv-x="1229" d="M643 0 L455 1010 L443 872 Q425 708 415 656 L287 0 L30 0 L292 1349 L629 1349 L821 312 Q839 551 864 677 L994 1349 L1251 1349 L989 0 L643 0 Z M952 1422 Q908 1422 867 1439.5 Q826 1457 788 1478.5 Q750 1500 716 1517.5 Q682 1535 652 1535 Q604 1535 577.5 1509 Q551 1483 532 1422 L395 1422 Q435 1575 503.5 1640 Q572 1705 675 1705 Q720 1705 762 1687.5 Q804 1670 841.5 1648.5 Q879 1627 912 1609.5 Q945 1592 974 1592 Q1024 1592 1049.5 1620 Q1075 1648 1095 1705 L1230 1705 Q1193 1555 1123 1488.5 Q1053 1422 952 1422 Z " />
<glyph glyph-name="Ograve" unicode="&#xd2;" horiz-adv-x="1229" d="M506 -20 Q293 -20 183.5 95.5 Q74 211 74 440 Q74 604 125.5 793.5 Q177 983 267 1110.5 Q357 1238 485.5 1304 Q614 1370 776 1370 Q988 1370 1098.5 1257 Q1209 1144 1209 917 Q1209 753 1157 562.5 Q1105 372 1013.5 242.5 Q922 113 794 46.5 Q666 -20 506 -20 Z M909 892 Q909 1138 731 1138 Q624 1138 546.5 1049 Q469 960 421.5 782 Q374 604 374 466 Q374 212 551 212 Q657 212 735 303.5 Q813 395 861 573.5 Q909 752 909 892 Z M773 1428 L478 1659 L486 1702 L744 1702 L949 1459 L943 1428 L773 1428 Z " />
<glyph glyph-name="Oacute" unicode="&#xd3;" horiz-adv-x="1229" d="M506 -20 Q293 -20 183.5 95.5 Q74 211 74 440 Q74 604 125.5 793.5 Q177 983 267 1110.5 Q357 1238 485.5 1304 Q614 1370 776 1370 Q988 1370 1098.5 1257 Q1209 1144 1209 917 Q1209 753 1157 562.5 Q1105 372 1013.5 242.5 Q922 113 794 46.5 Q666 -20 506 -20 Z M909 892 Q909 1138 731 1138 Q624 1138 546.5 1049 Q469 960 421.5 782 Q374 604 374 466 Q374 212 551 212 Q657 212 735 303.5 Q813 395 861 573.5 Q909 752 909 892 Z M637 1428 L643 1459 L942 1702 L1200 1702 L1192 1659 L807 1428 L637 1428 Z " />
<glyph glyph-name="Ocircumflex" unicode="&#xd4;" horiz-adv-x="1229" d="M506 -20 Q293 -20 183.5 95.5 Q74 211 74 440 Q74 604 125.5 793.5 Q177 983 267 1110.5 Q357 1238 485.5 1304 Q614 1370 776 1370 Q988 1370 1098.5 1257 Q1209 1144 1209 917 Q1209 753 1157 562.5 Q1105 372 1013.5 242.5 Q922 113 794 46.5 Q666 -20 506 -20 Z M909 892 Q909 1138 731 1138 Q624 1138 546.5 1049 Q469 960 421.5 782 Q374 604 374 466 Q374 212 551 212 Q657 212 735 303.5 Q813 395 861 573.5 Q909 752 909 892 Z M1160 1455 L1155 1427 L996 1427 L819 1561 L815 1561 L578 1427 L418 1427 L423 1455 L730 1705 L959 1705 L1160 1455 Z " />
<glyph glyph-name="Otilde" unicode="&#xd5;" horiz-adv-x="1229" d="M506 -20 Q293 -20 183.5 95.5 Q74 211 74 440 Q74 604 125.5 793.5 Q177 983 267 1110.5 Q357 1238 485.5 1304 Q614 1370 776 1370 Q988 1370 1098.5 1257 Q1209 1144 1209 917 Q1209 753 1157 562.5 Q1105 372 1013.5 242.5 Q922 113 794 46.5 Q666 -20 506 -20 Z M909 892 Q909 1138 731 1138 Q624 1138 546.5 1049 Q469 960 421.5 782 Q374 604 374 466 Q374 212 551 212 Q657 212 735 303.5 Q813 395 861 573.5 Q909 752 909 892 Z M952 1422 Q908 1422 867 1439.5 Q826 1457 788 1478.5 Q750 1500 716 1517.5 Q682 1535 652 1535 Q604 1535 577.5 1509 Q551 1483 532 1422 L395 1422 Q435 1575 503.5 1640 Q572 1705 675 1705 Q720 1705 762 1687.5 Q804 1670 841.5 1648.5 Q879 1627 912 1609.5 Q945 1592 974 1592 Q1024 1592 1049.5 1620 Q1075 1648 1095 1705 L1230 1705 Q1193 1555 1123 1488.5 Q1053 1422 952 1422 Z " />
<glyph glyph-name="Odieresis" unicode="&#xd6;" horiz-adv-x="1229" d="M506 -20 Q293 -20 183.5 95.5 Q74 211 74 440 Q74 604 125.5 793.5 Q177 983 267 1110.5 Q357 1238 485.5 1304 Q614 1370 776 1370 Q988 1370 1098.5 1257 Q1209 1144 1209 917 Q1209 753 1157 562.5 Q1105 372 1013.5 242.5 Q922 113 794 46.5 Q666 -20 506 -20 Z M909 892 Q909 1138 731 1138 Q624 1138 546.5 1049 Q469 960 421.5 782 Q374 604 374 466 Q374 212 551 212 Q657 212 735 303.5 Q813 395 861 573.5 Q909 752 909 892 Z M892 1445 L935 1664 L1162 1664 L1119 1445 L892 1445 Z M468 1445 L511 1664 L735 1664 L692 1445 L468 1445 Z " />
<glyph glyph-name="multiply" unicode="&#xd7;" horiz-adv-x="1229" d="M102 326 L458 684 L106 1036 L264 1192 L616 842 L968 1194 L1126 1036 L774 682 L1126 332 L968 172 L616 526 L260 168 L102 326 Z " />
<glyph glyph-name="Oslash" unicode="&#xd8;" horiz-adv-x="1229" d="M506 -20 Q291 -20 180 99 L47 -43 L-53 32 L112 208 Q73 304 73 439 Q73 598 124 789 Q175 980 265.5 1108.5 Q356 1237 485 1303.5 Q614 1370 776 1370 Q989 1370 1099 1255 L1233 1397 L1332 1322 L1168 1149 Q1209 1049 1209 915 Q1209 753 1157 562.5 Q1105 372 1014 243 Q923 114 795 47 Q667 -20 506 -20 Z M908 872 L394 326 Q435 212 551 212 Q655 212 731.5 299.5 Q808 387 856.5 558.5 Q905 730 908 872 Z M374 486 L887 1031 Q848 1138 731 1138 Q626 1138 549.5 1052.5 Q473 967 425 795.5 Q377 624 374 486 Z " />
<glyph glyph-name="Ugrave" unicode="&#xd9;" horiz-adv-x="1229" d="M490 -20 Q291 -20 198 65.5 Q105 151 105 330 Q105 418 127 528 L286 1349 L581 1349 L422 531 Q403 436 403 367 Q403 282 437 246.5 Q471 211 543 211 Q646 211 708 286.5 Q770 362 805 541 L962 1349 L1257 1349 L1101 543 Q1044 257 894.5 118.5 Q745 -20 490 -20 Z M762 1428 L467 1659 L475 1702 L733 1702 L938 1459 L932 1428 L762 1428 Z " />
<glyph glyph-name="Uacute" unicode="&#xda;" horiz-adv-x="1229" d="M490 -20 Q291 -20 198 65.5 Q105 151 105 330 Q105 418 127 528 L286 1349 L581 1349 L422 531 Q403 436 403 367 Q403 282 437 246.5 Q471 211 543 211 Q646 211 708 286.5 Q770 362 805 541 L962 1349 L1257 1349 L1101 543 Q1044 257 894.5 118.5 Q745 -20 490 -20 Z M625 1428 L631 1459 L930 1702 L1188 1702 L1180 1659 L795 1428 L625 1428 Z " />
<glyph glyph-name="Ucircumflex" unicode="&#xdb;" horiz-adv-x="1229" d="M490 -20 Q291 -20 198 65.5 Q105 151 105 330 Q105 418 127 528 L286 1349 L581 1349 L422 531 Q403 436 403 367 Q403 282 437 246.5 Q471 211 543 211 Q646 211 708 286.5 Q770 362 805 541 L962 1349 L1257 1349 L1101 543 Q1044 257 894.5 118.5 Q745 -20 490 -20 Z M1160 1455 L1155 1427 L996 1427 L819 1561 L815 1561 L578 1427 L418 1427 L423 1455 L730 1705 L959 1705 L1160 1455 Z " />
<glyph glyph-name="Udieresis" unicode="&#xdc;" horiz-adv-x="1229" d="M490 -20 Q291 -20 198 65.5 Q105 151 105 330 Q105 418 127 528 L286 1349 L581 1349 L422 531 Q403 436 403 367 Q403 282 437 246.5 Q471 211 543 211 Q646 211 708 286.5 Q770 362 805 541 L962 1349 L1257 1349 L1101 543 Q1044 257 894.5 118.5 Q745 -20 490 -20 Z M889 1445 L932 1664 L1159 1664 L1116 1445 L889 1445 Z M465 1445 L508 1664 L732 1664 L689 1445 L465 1445 Z " />
<glyph glyph-name="Yacute" unicode="&#xdd;" horiz-adv-x="1229" d="M656 0 L362 0 L470 556 L160 1349 L469 1349 L659 783 L1073 1349 L1382 1349 L764 556 L656 0 Z M640 1428 L646 1459 L945 1702 L1203 1702 L1195 1659 L810 1428 L640 1428 Z " />
<glyph glyph-name="Thorn" unicode="&#xde;" horiz-adv-x="1229" d="M592 256 L377 256 L327 0 L32 0 L294 1349 L589 1349 L544 1114 L747 1114 Q966 1114 1083 1028 Q1200 942 1200 784 Q1200 645 1123 520 Q1046 395 906 325.5 Q766 256 592 256 Z M898 735 Q898 811 842.5 858 Q787 905 673 905 L503 905 L417 465 L595 465 Q684 465 754 501.5 Q824 538 861 603.5 Q898 669 898 735 Z " />
<glyph glyph-name="germandbls" unicode="&#xdf;" horiz-adv-x="1229" d="M682 -20 Q535 -20 428 23 L469 229 Q513 207 576 188.5 Q639 170 689 170 Q770 170 814 204.5 Q858 239 869 296 L872 324 Q872 399 755 485 Q687 534 651.5 588.5 Q616 643 616 706 Q616 786 655 843 Q694 900 771 958 Q849 1017 884.5 1064.5 Q920 1112 920 1168 Q920 1220 881 1250.5 Q842 1281 764 1281 Q552 1281 501 1013 L304 0 L23 0 L219 1007 Q263 1238 414 1361 Q565 1484 806 1484 Q988 1484 1090 1412.5 Q1192 1341 1192 1213 Q1192 1175 1181 1129.5 Q1170 1084 1145 1043.5 Q1120 1003 1087 968.5 Q1054 934 964 866 Q921 833 904.5 812 Q888 791 888 770 Q888 748 910 722 Q932 696 1008 634 Q1141 523 1141 381 Q1141 277 1086 179 Q1031 81 928 30.5 Q825 -20 682 -20 Z " />
<glyph glyph-name="agrave" unicode="&#xe0;" horiz-adv-x="1229" d="M330 -20 Q196 -20 123.5 42 Q51 104 51 222 Q51 261 60 306 Q128 647 545 652 L769 656 L779 711 Q789 759 789 795 Q789 920 672 920 Q601 920 559 884 Q517 848 492 767 L202 781 Q315 1102 719 1102 Q892 1102 981.5 1029.5 Q1071 957 1071 816 Q1071 770 1060 712 L984 320 Q973 265 973 235 Q973 198 988.5 179 Q1004 160 1042 160 Q1074 160 1105 166 L1076 14 Q1050 8 1029 3 Q1008 -2 987.5 -5 Q967 -8 944 -10 Q921 -12 891 -12 Q796 -12 754 29.5 Q712 71 712 152 L714 193 L708 193 Q622 80 531 30 Q440 -20 330 -20 Z M738 501 L604 499 Q499 497 449 471 Q399 445 375.5 388.5 Q352 332 352 274 Q352 176 448 176 Q546 176 626 254.5 Q706 333 728 446 L738 501 Z M698 1184 L403 1415 L411 1458 L669 1458 L874 1215 L868 1184 L698 1184 Z " />
<glyph glyph-name="aacute" unicode="&#xe1;" horiz-adv-x="1229" d="M330 -20 Q196 -20 123.5 42 Q51 104 51 222 Q51 261 60 306 Q128 647 545 652 L769 656 L779 711 Q789 759 789 795 Q789 920 672 920 Q601 920 559 884 Q517 848 492 767 L202 781 Q315 1102 719 1102 Q892 1102 981.5 1029.5 Q1071 957 1071 816 Q1071 770 1060 712 L984 320 Q973 265 973 235 Q973 198 988.5 179 Q1004 160 1042 160 Q1074 160 1105 166 L1076 14 Q1050 8 1029 3 Q1008 -2 987.5 -5 Q967 -8 944 -10 Q921 -12 891 -12 Q796 -12 754 29.5 Q712 71 712 152 L714 193 L708 193 Q622 80 531 30 Q440 -20 330 -20 Z M738 501 L604 499 Q499 497 449 471 Q399 445 375.5 388.5 Q352 332 352 274 Q352 176 448 176 Q546 176 626 254.5 Q706 333 728 446 L738 501 Z M569 1184 L575 1215 L874 1458 L1132 1458 L1124 1415 L739 1184 L569 1184 Z " />
<glyph glyph-name="acircumflex" unicode="&#xe2;" horiz-adv-x="1229" d="M330 -20 Q196 -20 123.5 42 Q51 104 51 222 Q51 261 60 306 Q128 647 545 652 L769 656 L779 711 Q789 759 789 795 Q789 920 672 920 Q601 920 559 884 Q517 848 492 767 L202 781 Q315 1102 719 1102 Q892 1102 981.5 1029.5 Q1071 957 1071 816 Q1071 770 1060 712 L984 320 Q973 265 973 235 Q973 198 988.5 179 Q1004 160 1042 160 Q1074 160 1105 166 L1076 14 Q1050 8 1029 3 Q1008 -2 987.5 -5 Q967 -8 944 -10 Q921 -12 891 -12 Q796 -12 754 29.5 Q712 71 712 152 L714 193 L708 193 Q622 80 531 30 Q440 -20 330 -20 Z M738 501 L604 499 Q499 497 449 471 Q399 445 375.5 388.5 Q352 332 352 274 Q352 176 448 176 Q546 176 626 254.5 Q706 333 728 446 L738 501 Z M1095 1211 L1090 1183 L931 1183 L754 1317 L750 1317 L513 1183 L353 1183 L358 1211 L665 1461 L894 1461 L1095 1211 Z " />
<glyph glyph-name="atilde" unicode="&#xe3;" horiz-adv-x="1229" d="M330 -20 Q196 -20 123.5 42 Q51 104 51 222 Q51 261 60 306 Q128 647 545 652 L769 656 L779 711 Q789 759 789 795 Q789 920 672 920 Q601 920 559 884 Q517 848 492 767 L202 781 Q315 1102 719 1102 Q892 1102 981.5 1029.5 Q1071 957 1071 816 Q1071 770 1060 712 L984 320 Q973 265 973 235 Q973 198 988.5 179 Q1004 160 1042 160 Q1074 160 1105 166 L1076 14 Q1050 8 1029 3 Q1008 -2 987.5 -5 Q967 -8 944 -10 Q921 -12 891 -12 Q796 -12 754 29.5 Q712 71 712 152 L714 193 L708 193 Q622 80 531 30 Q440 -20 330 -20 Z M738 501 L604 499 Q499 497 449 471 Q399 445 375.5 388.5 Q352 332 352 274 Q352 176 448 176 Q546 176 626 254.5 Q706 333 728 446 L738 501 Z M898 1183 Q854 1183 813 1200.5 Q772 1218 734 1239.5 Q696 1261 662 1278.5 Q628 1296 598 1296 Q550 1296 523.5 1270 Q497 1244 478 1183 L341 1183 Q381 1336 449.5 1401 Q518 1466 621 1466 Q666 1466 708 1448.5 Q750 1431 787.5 1409.5 Q825 1388 858 1370.5 Q891 1353 920 1353 Q970 1353 995.5 1381 Q1021 1409 1041 1466 L1176 1466 Q1139 1316 1069 1249.5 Q999 1183 898 1183 Z " />
<glyph glyph-name="adieresis" unicode="&#xe4;" horiz-adv-x="1229" d="M330 -20 Q196 -20 123.5 42 Q51 104 51 222 Q51 261 60 306 Q128 647 545 652 L769 656 L779 711 Q789 759 789 795 Q789 920 672 920 Q601 920 559 884 Q517 848 492 767 L202 781 Q315 1102 719 1102 Q892 1102 981.5 1029.5 Q1071 957 1071 816 Q1071 770 1060 712 L984 320 Q973 265 973 235 Q973 198 988.5 179 Q1004 160 1042 160 Q1074 160 1105 166 L1076 14 Q1050 8 1029 3 Q1008 -2 987.5 -5 Q967 -8 944 -10 Q921 -12 891 -12 Q796 -12 754 29.5 Q712 71 712 152 L714 193 L708 193 Q622 80 531 30 Q440 -20 330 -20 Z M738 501 L604 499 Q499 497 449 471 Q399 445 375.5 388.5 Q352 332 352 274 Q352 176 448 176 Q546 176 626 254.5 Q706 333 728 446 L738 501 Z M829 1219 L872 1438 L1099 1438 L1056 1219 L829 1219 Z M405 1219 L448 1438 L672 1438 L629 1219 L405 1219 Z " />
<glyph glyph-name="aring" unicode="&#xe5;" horiz-adv-x="1229" d="M330 -20 Q196 -20 123.5 42 Q51 104 51 222 Q51 261 60 306 Q128 647 545 652 L769 656 L779 711 Q789 759 789 795 Q789 920 672 920 Q601 920 559 884 Q517 848 492 767 L202 781 Q315 1102 719 1102 Q892 1102 981.5 1029.5 Q1071 957 1071 816 Q1071 770 1060 712 L984 320 Q973 265 973 235 Q973 198 988.5 179 Q1004 160 1042 160 Q1074 160 1105 166 L1076 14 Q1050 8 1029 3 Q1008 -2 987.5 -5 Q967 -8 944 -10 Q921 -12 891 -12 Q796 -12 754 29.5 Q712 71 712 152 L714 193 L708 193 Q622 80 531 30 Q440 -20 330 -20 Z M738 501 L604 499 Q499 497 449 471 Q399 445 375.5 388.5 Q352 332 352 274 Q352 176 448 176 Q546 176 626 254.5 Q706 333 728 446 L738 501 Z M724 1148 Q628 1148 572.5 1191.5 Q517 1235 517 1310 Q517 1369 552 1426 Q587 1483 653.5 1515 Q720 1547 802 1547 Q897 1547 953 1505 Q1009 1463 1009 1386 Q1009 1323 972 1266.5 Q935 1210 870 1179 Q805 1148 724 1148 Z M867 1358 Q867 1388 842 1403.5 Q817 1419 777 1419 Q719 1419 688.5 1392 Q658 1365 658 1336 Q658 1309 682 1293 Q706 1277 749 1277 Q802 1277 834.5 1301 Q867 1325 867 1358 Z " />
<glyph glyph-name="ae" unicode="&#xe6;" horiz-adv-x="1229" d="M688 484 L688 482 Q673 409 673 345 Q673 258 702.5 209 Q732 160 790 160 Q850 160 889.5 198 Q929 236 958 301 L1127 256 Q998 -20 759 -20 Q645 -20 589.5 34.5 Q534 89 522 212 Q451 96 359.5 38 Q268 -20 169 -20 Q68 -20 16 38 Q-36 96 -36 202 Q-36 248 -26 302 Q43 655 373 660 L521 664 Q541 764 541 799 Q541 920 455 920 Q362 920 318 773 L114 790 Q163 946 258 1024 Q353 1102 489 1102 Q667 1102 709 963 Q820 1102 982 1102 Q1234 1102 1234 781 Q1234 732 1228.5 677.5 Q1223 623 1197 484 L688 484 Z M176 244 Q176 162 234 162 Q312 162 383.5 247 Q455 332 478 445 L489 499 L386 496 Q307 494 265 462 Q223 430 199.5 364.5 Q176 299 176 244 Z M934 924 Q894 924 852 891.5 Q810 859 776 800.5 Q742 742 724 660 L1025 660 Q1033 722 1033 769 Q1033 844 1010.5 884 Q988 924 934 924 Z " />
<glyph glyph-name="ccedilla" unicode="&#xe7;" horiz-adv-x="1229" d="M515 -20 Q311 -20 202 83 Q93 186 93 378 Q93 511 139 652.5 Q185 794 270.5 895.5 Q356 997 475 1049.5 Q594 1102 737 1102 Q927 1102 1033.5 1007 Q1140 912 1140 746 L1140 741 L854 727 L855 746 Q855 816 818.5 862.5 Q782 909 694 909 Q598 909 533 841.5 Q468 774 428 637 Q388 500 388 385 Q388 172 554 172 Q634 172 698.5 222.5 Q763 273 795 373 L1074 360 Q1039 251 958 164 Q877 77 762.5 28.5 Q648 -20 515 -20 Z M336 -445 Q290 -445 236 -439 L259 -321 Q291 -328 341 -328 Q494 -328 494 -245 Q494 -220 471.5 -205 Q449 -190 383 -190 Q345 -190 331 -192 L437 0 L580 0 L520 -102 Q679 -112 679 -221 Q679 -281 642 -334.5 Q605 -388 526 -416.5 Q447 -445 336 -445 Z " />
<glyph glyph-name="egrave" unicode="&#xe8;" horiz-adv-x="1229" d="M517 -20 Q310 -20 197 84.5 Q84 189 84 385 Q84 511 126.5 648.5 Q169 786 257 891 Q345 996 469 1049 Q593 1102 739 1102 Q936 1102 1038 994 Q1140 886 1140 685 Q1140 597 1120 495 L1119 487 L385 487 Q375 437 375 388 Q375 281 426 224.5 Q477 168 568 168 Q645 168 707.5 200.5 Q770 233 801 297 L1061 274 Q978 133 836 56.5 Q694 -20 517 -20 Z M701 925 Q598 925 523.5 855.5 Q449 786 421 663 L881 663 L885 720 Q885 822 834 873.5 Q783 925 701 925 Z M733 1184 L438 1415 L446 1458 L704 1458 L909 1215 L903 1184 L733 1184 Z " />
<glyph glyph-name="eacute" unicode="&#xe9;" horiz-adv-x="1229" d="M517 -20 Q310 -20 197 84.5 Q84 189 84 385 Q84 511 126.5 648.5 Q169 786 257 891 Q345 996 469 1049 Q593 1102 739 1102 Q936 1102 1038 994 Q1140 886 1140 685 Q1140 597 1120 495 L1119 487 L385 487 Q375 437 375 388 Q375 281 426 224.5 Q477 168 568 168 Q645 168 707.5 200.5 Q770 233 801 297 L1061 274 Q978 133 836 56.5 Q694 -20 517 -20 Z M701 925 Q598 925 523.5 855.5 Q449 786 421 663 L881 663 L885 720 Q885 822 834 873.5 Q783 925 701 925 Z M603 1184 L609 1215 L908 1458 L1166 1458 L1158 1415 L773 1184 L603 1184 Z " />
<glyph glyph-name="ecircumflex" unicode="&#xea;" horiz-adv-x="1229" d="M517 -20 Q310 -20 197 84.5 Q84 189 84 385 Q84 511 126.5 648.5 Q169 786 257 891 Q345 996 469 1049 Q593 1102 739 1102 Q936 1102 1038 994 Q1140 886 1140 685 Q1140 597 1120 495 L1119 487 L385 487 Q375 437 375 388 Q375 281 426 224.5 Q477 168 568 168 Q645 168 707.5 200.5 Q770 233 801 297 L1061 274 Q978 133 836 56.5 Q694 -20 517 -20 Z M701 925 Q598 925 523.5 855.5 Q449 786 421 663 L881 663 L885 720 Q885 822 834 873.5 Q783 925 701 925 Z M1120 1211 L1115 1183 L956 1183 L779 1317 L775 1317 L538 1183 L378 1183 L383 1211 L690 1461 L919 1461 L1120 1211 Z " />
<glyph glyph-name="edieresis" unicode="&#xeb;" horiz-adv-x="1229" d="M517 -20 Q310 -20 197 84.5 Q84 189 84 385 Q84 511 126.5 648.5 Q169 786 257 891 Q345 996 469 1049 Q593 1102 739 1102 Q936 1102 1038 994 Q1140 886 1140 685 Q1140 597 1120 495 L1119 487 L385 487 Q375 437 375 388 Q375 281 426 224.5 Q477 168 568 168 Q645 168 707.5 200.5 Q770 233 801 297 L1061 274 Q978 133 836 56.5 Q694 -20 517 -20 Z M701 925 Q598 925 523.5 855.5 Q449 786 421 663 L881 663 L885 720 Q885 822 834 873.5 Q783 925 701 925 Z M853 1219 L896 1438 L1123 1438 L1080 1219 L853 1219 Z M429 1219 L472 1438 L696 1438 L653 1219 L429 1219 Z " />
<glyph glyph-name="igrave" unicode="&#xec;" horiz-adv-x="1229" d="M726 190 L1079 190 L1042 0 L13 0 L50 190 L445 190 L581 892 L291 892 L328 1082 L899 1082 L726 190 Z M745 1184 L450 1415 L458 1458 L716 1458 L921 1215 L915 1184 L745 1184 Z " />
<glyph glyph-name="iacute" unicode="&#xed;" horiz-adv-x="1229" d="M726 190 L1079 190 L1042 0 L13 0 L50 190 L445 190 L581 892 L291 892 L328 1082 L899 1082 L726 190 Z M596 1184 L602 1215 L901 1458 L1159 1458 L1151 1415 L766 1184 L596 1184 Z " />
<glyph glyph-name="icircumflex" unicode="&#xee;" horiz-adv-x="1229" d="M726 190 L1079 190 L1042 0 L13 0 L50 190 L445 190 L581 892 L291 892 L328 1082 L899 1082 L726 190 Z M1123 1211 L1118 1183 L959 1183 L782 1317 L778 1317 L541 1183 L381 1183 L386 1211 L693 1461 L922 1461 L1123 1211 Z " />
<glyph glyph-name="idieresis" unicode="&#xef;" horiz-adv-x="1229" d="M726 190 L1079 190 L1042 0 L13 0 L50 190 L445 190 L581 892 L291 892 L328 1082 L899 1082 L726 190 Z M886 1219 L929 1438 L1156 1438 L1113 1219 L886 1219 Z M462 1219 L505 1438 L729 1438 L686 1219 L462 1219 Z " />
<glyph glyph-name="eth" unicode="&#xf0;" horiz-adv-x="1229" d="M961 1266 Q1154 1024 1154 728 Q1154 580 1107.5 432 Q1061 284 976.5 184.5 Q892 85 771.5 32.5 Q651 -20 498 -20 Q288 -20 173.5 77 Q59 174 59 354 Q59 473 105 596.5 Q151 720 232.5 804 Q314 888 430.5 933.5 Q547 979 696 979 Q774 979 826 959 Q792 1077 728 1176 L473 1074 L426 1229 L627 1308 Q553 1379 403 1484 L696 1484 Q782 1436 838 1390 L1108 1499 L1161 1345 L961 1266 Z M843 604 Q843 698 800 742 Q757 786 663 786 Q538 786 467.5 710.5 Q397 635 367 477 Q354 412 354 359 Q354 170 530 170 Q638 170 704.5 223 Q771 276 807 390.5 Q843 505 843 604 Z " />
<glyph glyph-name="ntilde" unicode="&#xf1;" horiz-adv-x="1229" d="M719 0 L839 619 Q854 693 854 746 Q854 821 822 856.5 Q790 892 721 892 Q620 892 540.5 806.5 Q461 721 432 580 L319 0 L38 0 L201 840 Q234 1006 240 1082 L508 1082 Q508 1066 499 993.5 Q490 921 480 867 L484 867 Q637 1103 877 1103 Q1148 1103 1148 830 Q1148 765 1133 687 L999 0 L719 0 Z M916 1183 Q872 1183 831 1200.5 Q790 1218 752 1239.5 Q714 1261 680 1278.5 Q646 1296 616 1296 Q568 1296 541.5 1270 Q515 1244 496 1183 L359 1183 Q399 1336 467.5 1401 Q536 1466 639 1466 Q684 1466 726 1448.5 Q768 1431 805.5 1409.5 Q843 1388 876 1370.5 Q909 1353 938 1353 Q988 1353 1013.5 1381 Q1039 1409 1059 1466 L1194 1466 Q1157 1316 1087 1249.5 Q1017 1183 916 1183 Z " />
<glyph glyph-name="ograve" unicode="&#xf2;" horiz-adv-x="1229" d="M501 -20 Q293 -20 184.5 84 Q76 188 76 383 Q76 567 155.5 743 Q235 919 380 1010.5 Q525 1102 725 1102 Q1156 1102 1156 719 Q1156 643 1137 542 Q1085 273 920 126.5 Q755 -20 501 -20 Z M863 715 Q863 816 822 862.5 Q781 909 692 909 Q585 909 517 843.5 Q449 778 409 635 Q369 492 369 378 Q369 172 535 172 Q644 172 713 239 Q782 306 822.5 453.5 Q863 601 863 715 Z M742 1184 L447 1415 L455 1458 L713 1458 L918 1215 L912 1184 L742 1184 Z " />
<glyph glyph-name="oacute" unicode="&#xf3;" horiz-adv-x="1229" d="M501 -20 Q293 -20 184.5 84 Q76 188 76 383 Q76 567 155.5 743 Q235 919 380 1010.5 Q525 1102 725 1102 Q1156 1102 1156 719 Q1156 643 1137 542 Q1085 273 920 126.5 Q755 -20 501 -20 Z M863 715 Q863 816 822 862.5 Q781 909 692 909 Q585 909 517 843.5 Q449 778 409 635 Q369 492 369 378 Q369 172 535 172 Q644 172 713 239 Q782 306 822.5 453.5 Q863 601 863 715 Z M593 1184 L599 1215 L898 1458 L1156 1458 L1148 1415 L763 1184 L593 1184 Z " />
<glyph glyph-name="ocircumflex" unicode="&#xf4;" horiz-adv-x="1229" d="M501 -20 Q293 -20 184.5 84 Q76 188 76 383 Q76 567 155.5 743 Q235 919 380 1010.5 Q525 1102 725 1102 Q1156 1102 1156 719 Q1156 643 1137 542 Q1085 273 920 126.5 Q755 -20 501 -20 Z M863 715 Q863 816 822 862.5 Q781 909 692 909 Q585 909 517 843.5 Q449 778 409 635 Q369 492 369 378 Q369 172 535 172 Q644 172 713 239 Q782 306 822.5 453.5 Q863 601 863 715 Z M1113 1211 L1108 1183 L949 1183 L772 1317 L768 1317 L531 1183 L371 1183 L376 1211 L683 1461 L912 1461 L1113 1211 Z " />
<glyph glyph-name="otilde" unicode="&#xf5;" horiz-adv-x="1229" d="M501 -20 Q293 -20 184.5 84 Q76 188 76 383 Q76 567 155.5 743 Q235 919 380 1010.5 Q525 1102 725 1102 Q1156 1102 1156 719 Q1156 643 1137 542 Q1085 273 920 126.5 Q755 -20 501 -20 Z M863 715 Q863 816 822 862.5 Q781 909 692 909 Q585 909 517 843.5 Q449 778 409 635 Q369 492 369 378 Q369 172 535 172 Q644 172 713 239 Q782 306 822.5 453.5 Q863 601 863 715 Z M906 1183 Q862 1183 821 1200.5 Q780 1218 742 1239.5 Q704 1261 670 1278.5 Q636 1296 606 1296 Q558 1296 531.5 1270 Q505 1244 486 1183 L349 1183 Q389 1336 457.5 1401 Q526 1466 629 1466 Q674 1466 716 1448.5 Q758 1431 795.5 1409.5 Q833 1388 866 1370.5 Q899 1353 928 1353 Q978 1353 1003.5 1381 Q1029 1409 1049 1466 L1184 1466 Q1147 1316 1077 1249.5 Q1007 1183 906 1183 Z " />
<glyph glyph-name="odieresis" unicode="&#xf6;" horiz-adv-x="1229" d="M501 -20 Q293 -20 184.5 84 Q76 188 76 383 Q76 567 155.5 743 Q235 919 380 1010.5 Q525 1102 725 1102 Q1156 1102 1156 719 Q1156 643 1137 542 Q1085 273 920 126.5 Q755 -20 501 -20 Z M863 715 Q863 816 822 862.5 Q781 909 692 909 Q585 909 517 843.5 Q449 778 409 635 Q369 492 369 378 Q369 172 535 172 Q644 172 713 239 Q782 306 822.5 453.5 Q863 601 863 715 Z M845 1219 L888 1438 L1115 1438 L1072 1219 L845 1219 Z M421 1219 L464 1438 L688 1438 L645 1219 L421 1219 Z " />
<glyph glyph-name="divide" unicode="&#xf7;" horiz-adv-x="1229" d="M495 961 L495 1194 L734 1194 L734 961 L495 961 Z M101 569 L101 793 L1128 793 L1128 569 L101 569 Z M495 170 L495 403 L734 403 L734 170 L495 170 Z " />
<glyph glyph-name="oslash" unicode="&#xf8;" horiz-adv-x="1229" d="M501 -20 Q301 -20 192 77 L88 -20 L7 58 L123 165 Q76 255 76 382 Q76 567 155.5 743.5 Q235 920 381 1011 Q527 1102 725 1102 Q931 1102 1037 1015 L1134 1104 L1216 1026 L1110 928 Q1156 844 1156 718 Q1156 580 1110 434 Q1064 288 979.5 187.5 Q895 87 775 33.5 Q655 -20 501 -20 Z M863 698 L388 259 Q426 172 535 172 Q639 172 706 232.5 Q773 293 813.5 423.5 Q854 554 863 698 Z M369 394 L841 832 Q803 909 692 909 Q587 909 520 846.5 Q453 784 413 648.5 Q373 513 369 394 Z " />
<glyph glyph-name="ugrave" unicode="&#xf9;" horiz-adv-x="1229" d="M521 1082 L403 475 Q391 412 391 360 Q391 190 520 190 Q611 190 687 279.5 Q763 369 788 502 L900 1082 L1181 1082 L1018 242 Q1004 176 993 99.5 Q982 23 979 0 L711 0 Q719 92 741 215 L736 215 Q583 -20 362 -20 Q92 -20 92 253 Q92 320 107 395 L240 1082 L521 1082 Z M718 1184 L423 1415 L431 1458 L689 1458 L894 1215 L888 1184 L718 1184 Z " />
<glyph glyph-name="uacute" unicode="&#xfa;" horiz-adv-x="1229" d="M521 1082 L403 475 Q391 412 391 360 Q391 190 520 190 Q611 190 687 279.5 Q763 369 788 502 L900 1082 L1181 1082 L1018 242 Q1004 176 993 99.5 Q982 23 979 0 L711 0 Q719 92 741 215 L736 215 Q583 -20 362 -20 Q92 -20 92 253 Q92 320 107 395 L240 1082 L521 1082 Z M582 1184 L588 1215 L887 1458 L1145 1458 L1137 1415 L752 1184 L582 1184 Z " />
<glyph glyph-name="ucircumflex" unicode="&#xfb;" horiz-adv-x="1229" d="M521 1082 L403 475 Q391 412 391 360 Q391 190 520 190 Q611 190 687 279.5 Q763 369 788 502 L900 1082 L1181 1082 L1018 242 Q1004 176 993 99.5 Q982 23 979 0 L711 0 Q719 92 741 215 L736 215 Q583 -20 362 -20 Q92 -20 92 253 Q92 320 107 395 L240 1082 L521 1082 Z M1113 1211 L1108 1183 L949 1183 L772 1317 L768 1317 L531 1183 L371 1183 L376 1211 L683 1461 L912 1461 L1113 1211 Z " />
<glyph glyph-name="udieresis" unicode="&#xfc;" horiz-adv-x="1229" d="M521 1082 L403 475 Q391 412 391 360 Q391 190 520 190 Q611 190 687 279.5 Q763 369 788 502 L900 1082 L1181 1082 L1018 242 Q1004 176 993 99.5 Q982 23 979 0 L711 0 Q719 92 741 215 L736 215 Q583 -20 362 -20 Q92 -20 92 253 Q92 320 107 395 L240 1082 L521 1082 Z M845 1219 L888 1438 L1115 1438 L1072 1219 L845 1219 Z M421 1219 L464 1438 L688 1438 L645 1219 L421 1219 Z " />
<glyph glyph-name="yacute" unicode="&#xfd;" horiz-adv-x="1229" d="M137 -425 Q30 -425 -42 -412 L-3 -212 L47 -217 L97 -220 Q182 -220 241 -177 Q300 -134 356 -37 L383 11 L143 1082 L440 1082 L528 555 Q530 546 532 528.5 Q534 511 536 494.5 Q538 478 551 351.5 Q564 225 564 221 L581 258 L718 551 L1001 1082 L1295 1082 L626 -57 Q504 -264 394.5 -344.5 Q285 -425 137 -425 Z M599 1184 L605 1215 L904 1458 L1162 1458 L1154 1415 L769 1184 L599 1184 Z " />
<glyph glyph-name="thorn" unicode="&#xfe;" horiz-adv-x="1229" d="M326 1484 L607 1484 L527 1072 L491 904 L495 904 Q644 1103 854 1103 Q998 1103 1073.5 1008 Q1149 913 1149 740 Q1149 612 1109 462.5 Q1069 313 998.5 204.5 Q928 96 831.5 38 Q735 -20 618 -20 Q520 -20 450.5 30 Q381 80 352 172 L346 172 Q346 156 336.5 100.5 Q327 45 317 -10 L236 -425 L-45 -425 L326 1484 Z M863 706 Q863 908 707 908 Q606 908 530.5 812 Q455 716 419 537 Q404 458 404 393 Q404 284 446 228 Q488 172 562 172 Q656 172 720.5 242.5 Q785 313 824 455 Q863 597 863 706 Z " />
<glyph glyph-name="ydieresis" unicode="&#xff;" horiz-adv-x="1229" d="M137 -425 Q30 -425 -42 -412 L-3 -212 L47 -217 L97 -220 Q182 -220 241 -177 Q300 -134 356 -37 L383 11 L143 1082 L440 1082 L528 555 Q530 546 532 528.5 Q534 511 536 494.5 Q538 478 551 351.5 Q564 225 564 221 L581 258 L718 551 L1001 1082 L1295 1082 L626 -57 Q504 -264 394.5 -344.5 Q285 -425 137 -425 Z M850 1219 L893 1438 L1120 1438 L1077 1219 L850 1219 Z M426 1219 L469 1438 L693 1438 L650 1219 L426 1219 Z " />
<glyph glyph-name="Amacron" unicode="&#x100;" horiz-adv-x="1229" d="M1124 0 L830 0 L802 330 L346 330 L190 0 L-105 0 L600 1349 L944 1349 L1124 0 Z M737 1167 Q721 1126 690.5 1058 Q660 990 451 552 L783 552 L749 932 L738 1132 L737 1167 Z M523 1638 L1135 1638 L1103 1470 L491 1470 L523 1638 Z " />
<glyph glyph-name="amacron" unicode="&#x101;" horiz-adv-x="1229" d="M330 -20 Q196 -20 123.5 42 Q51 104 51 222 Q51 261 60 306 Q128 647 545 652 L769 656 L779 711 Q789 759 789 795 Q789 920 672 920 Q601 920 559 884 Q517 848 492 767 L202 781 Q315 1102 719 1102 Q892 1102 981.5 1029.5 Q1071 957 1071 816 Q1071 770 1060 712 L984 320 Q973 265 973 235 Q973 198 988.5 179 Q1004 160 1042 160 Q1074 160 1105 166 L1076 14 Q1050 8 1029 3 Q1008 -2 987.5 -5 Q967 -8 944 -10 Q921 -12 891 -12 Q796 -12 754 29.5 Q712 71 712 152 L714 193 L708 193 Q622 80 531 30 Q440 -20 330 -20 Z M738 501 L604 499 Q499 497 449 471 Q399 445 375.5 388.5 Q352 332 352 274 Q352 176 448 176 Q546 176 626 254.5 Q706 333 728 446 L738 501 Z M462 1371 L1074 1371 L1042 1203 L430 1203 L462 1371 Z " />
<glyph glyph-name="Abreve" unicode="&#x102;" horiz-adv-x="1229" d="M1124 0 L830 0 L802 330 L346 330 L190 0 L-105 0 L600 1349 L944 1349 L1124 0 Z M737 1167 Q721 1126 690.5 1058 Q660 990 451 552 L783 552 L749 932 L738 1132 L737 1167 Z M784 1427 Q636 1427 560 1488.5 Q484 1550 484 1664 Q484 1694 486 1705 L649 1705 L649 1695 Q649 1584 816 1584 Q904 1584 954 1613 Q1004 1642 1030 1705 L1194 1705 Q1106 1427 784 1427 Z " />
<glyph glyph-name="abreve" unicode="&#x103;" horiz-adv-x="1229" d="M330 -20 Q196 -20 123.5 42 Q51 104 51 222 Q51 261 60 306 Q128 647 545 652 L769 656 L779 711 Q789 759 789 795 Q789 920 672 920 Q601 920 559 884 Q517 848 492 767 L202 781 Q315 1102 719 1102 Q892 1102 981.5 1029.5 Q1071 957 1071 816 Q1071 770 1060 712 L984 320 Q973 265 973 235 Q973 198 988.5 179 Q1004 160 1042 160 Q1074 160 1105 166 L1076 14 Q1050 8 1029 3 Q1008 -2 987.5 -5 Q967 -8 944 -10 Q921 -12 891 -12 Q796 -12 754 29.5 Q712 71 712 152 L714 193 L708 193 Q622 80 531 30 Q440 -20 330 -20 Z M738 501 L604 499 Q499 497 449 471 Q399 445 375.5 388.5 Q352 332 352 274 Q352 176 448 176 Q546 176 626 254.5 Q706 333 728 446 L738 501 Z M718 1183 Q570 1183 494 1244.5 Q418 1306 418 1420 Q418 1450 420 1461 L583 1461 L583 1451 Q583 1340 750 1340 Q838 1340 888 1369 Q938 1398 964 1461 L1128 1461 Q1040 1183 718 1183 Z " />
<glyph glyph-name="Aogonek" unicode="&#x104;" horiz-adv-x="1229" d="M1124 0 L830 0 L802 330 L346 330 L190 0 L-105 0 L600 1349 L944 1349 L1124 0 Z M737 1167 Q721 1126 690.5 1058 Q660 990 451 552 L783 552 L749 932 L738 1132 L737 1167 Z M891 -414 Q800 -414 744.5 -374.5 Q689 -335 689 -257 Q689 -173 747.5 -93 Q806 -13 899 32 L1052 32 Q973 -14 926.5 -81.5 Q880 -149 880 -201 Q880 -227 896.5 -249 Q913 -271 958 -271 Q1013 -271 1075 -244 L1049 -381 Q980 -414 891 -414 Z " />
<glyph glyph-name="aogonek" unicode="&#x105;" horiz-adv-x="1229" d="M330 -20 Q196 -20 123.5 42 Q51 104 51 222 Q51 261 60 306 Q128 647 545 652 L769 656 L779 711 Q789 759 789 795 Q789 920 672 920 Q601 920 559 884 Q517 848 492 767 L202 781 Q315 1102 719 1102 Q892 1102 981.5 1029.5 Q1071 957 1071 816 Q1071 770 1060 712 L984 320 Q973 265 973 235 Q973 198 988.5 179 Q1004 160 1042 160 Q1074 160 1105 166 L1076 14 Q1050 8 1029 3 Q1008 -2 987.5 -5 Q967 -8 944 -10 Q921 -12 891 -12 Q796 -12 754 29.5 Q712 71 712 152 L714 193 L708 193 Q622 80 531 30 Q440 -20 330 -20 Z M738 501 L604 499 Q499 497 449 471 Q399 445 375.5 388.5 Q352 332 352 274 Q352 176 448 176 Q546 176 626 254.5 Q706 333 728 446 L738 501 Z M832 -425 Q741 -425 685.5 -385.5 Q630 -346 630 -268 Q630 -184 688.5 -104 Q747 -24 840 21 L993 21 Q914 -25 867.5 -92.5 Q821 -160 821 -212 Q821 -238 837.5 -260 Q854 -282 899 -282 Q954 -282 1016 -255 L990 -392 Q921 -425 832 -425 Z " />
<glyph glyph-name="Cacute" unicode="&#x106;" horiz-adv-x="1229" d="M386 486 Q386 212 595 212 Q759 212 883 456 L1146 404 Q928 -20 547 -20 Q317 -20 200 98.5 Q83 217 83 449 Q83 557 107 681 Q243 1370 809 1370 Q1184 1370 1230 981 L945 915 Q936 1022 890 1080 Q844 1138 768 1138 Q651 1138 567.5 1052.5 Q484 967 435 798 Q386 629 386 486 Z M671 1428 L677 1459 L976 1702 L1234 1702 L1226 1659 L841 1428 L671 1428 Z " />
<glyph glyph-name="cacute" unicode="&#x107;" horiz-adv-x="1229" d="M515 -20 Q311 -20 202 83 Q93 186 93 378 Q93 511 139 652.5 Q185 794 270.5 895.5 Q356 997 475 1049.5 Q594 1102 737 1102 Q927 1102 1033.5 1007 Q1140 912 1140 746 L1140 741 L854 727 L855 746 Q855 816 818.5 862.5 Q782 909 694 909 Q598 909 533 841.5 Q468 774 428 637 Q388 500 388 385 Q388 172 554 172 Q634 172 698.5 222.5 Q763 273 795 373 L1074 360 Q1039 251 958 164 Q877 77 762.5 28.5 Q648 -20 515 -20 Z M594 1184 L600 1215 L899 1458 L1157 1458 L1149 1415 L764 1184 L594 1184 Z " />
<glyph glyph-name="Ccircumflex" unicode="&#x108;" horiz-adv-x="1229" d="M386 486 Q386 212 595 212 Q759 212 883 456 L1146 404 Q928 -20 547 -20 Q317 -20 200 98.5 Q83 217 83 449 Q83 557 107 681 Q243 1370 809 1370 Q1184 1370 1230 981 L945 915 Q936 1022 890 1080 Q844 1138 768 1138 Q651 1138 567.5 1052.5 Q484 967 435 798 Q386 629 386 486 Z M1180 1455 L1175 1427 L1016 1427 L839 1561 L835 1561 L598 1427 L438 1427 L443 1455 L750 1705 L979 1705 L1180 1455 Z " />
<glyph glyph-name="ccircumflex" unicode="&#x109;" horiz-adv-x="1229" d="M515 -20 Q311 -20 202 83 Q93 186 93 378 Q93 511 139 652.5 Q185 794 270.5 895.5 Q356 997 475 1049.5 Q594 1102 737 1102 Q927 1102 1033.5 1007 Q1140 912 1140 746 L1140 741 L854 727 L855 746 Q855 816 818.5 862.5 Q782 909 694 909 Q598 909 533 841.5 Q468 774 428 637 Q388 500 388 385 Q388 172 554 172 Q634 172 698.5 222.5 Q763 273 795 373 L1074 360 Q1039 251 958 164 Q877 77 762.5 28.5 Q648 -20 515 -20 Z M1113 1211 L1108 1183 L949 1183 L772 1317 L768 1317 L531 1183 L371 1183 L376 1211 L683 1461 L912 1461 L1113 1211 Z " />
<glyph glyph-name="Cdotaccent" unicode="&#x10a;" horiz-adv-x="1229" d="M386 486 Q386 212 595 212 Q759 212 883 456 L1146 404 Q928 -20 547 -20 Q317 -20 200 98.5 Q83 217 83 449 Q83 557 107 681 Q243 1370 809 1370 Q1184 1370 1230 981 L945 915 Q936 1022 890 1080 Q844 1138 768 1138 Q651 1138 567.5 1052.5 Q484 967 435 798 Q386 629 386 486 Z M675 1421 L716 1628 L997 1628 L956 1421 L675 1421 Z " />
<glyph glyph-name="cdotaccent" unicode="&#x10b;" horiz-adv-x="1229" d="M515 -20 Q311 -20 202 83 Q93 186 93 378 Q93 511 139 652.5 Q185 794 270.5 895.5 Q356 997 475 1049.5 Q594 1102 737 1102 Q927 1102 1033.5 1007 Q1140 912 1140 746 L1140 741 L854 727 L855 746 Q855 816 818.5 862.5 Q782 909 694 909 Q598 909 533 841.5 Q468 774 428 637 Q388 500 388 385 Q388 172 554 172 Q634 172 698.5 222.5 Q763 273 795 373 L1074 360 Q1039 251 958 164 Q877 77 762.5 28.5 Q648 -20 515 -20 Z M635 1267 L676 1474 L957 1474 L916 1267 L635 1267 Z " />
<glyph glyph-name="Ccaron" unicode="&#x10c;" horiz-adv-x="1229" d="M386 486 Q386 212 595 212 Q759 212 883 456 L1146 404 Q928 -20 547 -20 Q317 -20 200 98.5 Q83 217 83 449 Q83 557 107 681 Q243 1370 809 1370 Q1184 1370 1230 981 L945 915 Q936 1022 890 1080 Q844 1138 768 1138 Q651 1138 567.5 1052.5 Q484 967 435 798 Q386 629 386 486 Z M922 1427 L693 1427 L483 1676 L489 1705 L649 1705 L834 1571 L838 1571 L1067 1705 L1226 1705 L1220 1676 L922 1427 Z " />
<glyph glyph-name="ccaron" unicode="&#x10d;" horiz-adv-x="1229" d="M515 -20 Q311 -20 202 83 Q93 186 93 378 Q93 511 139 652.5 Q185 794 270.5 895.5 Q356 997 475 1049.5 Q594 1102 737 1102 Q927 1102 1033.5 1007 Q1140 912 1140 746 L1140 741 L854 727 L855 746 Q855 816 818.5 862.5 Q782 909 694 909 Q598 909 533 841.5 Q468 774 428 637 Q388 500 388 385 Q388 172 554 172 Q634 172 698.5 222.5 Q763 273 795 373 L1074 360 Q1039 251 958 164 Q877 77 762.5 28.5 Q648 -20 515 -20 Z M854 1183 L625 1183 L415 1432 L421 1461 L581 1461 L766 1327 L770 1327 L999 1461 L1158 1461 L1152 1432 L854 1183 Z " />
<glyph glyph-name="Dcaron" unicode="&#x10e;" horiz-adv-x="1229" d="M451 0 L30 0 L292 1349 L653 1349 Q1199 1349 1199 889 Q1199 734 1145 555.5 Q1091 377 993.5 252.5 Q896 128 758 64 Q620 0 451 0 Z M898 849 Q898 993 824.5 1057 Q751 1121 604 1121 L543 1121 L369 228 L471 228 Q790 228 880 685 Q898 778 898 849 Z M875 1427 L646 1427 L436 1676 L442 1705 L602 1705 L787 1571 L791 1571 L1020 1705 L1179 1705 L1173 1676 L875 1427 Z " />
<glyph glyph-name="dcaron" unicode="&#x10f;" horiz-adv-x="1229" d="M535 0 L535 8 Q535 30 542 89 Q549 148 554 176 L550 176 Q483 78 410.5 29 Q338 -20 246 -20 Q133 -20 70 72.5 Q7 165 7 334 Q7 514 71.5 704 Q136 894 241.5 997 Q347 1100 475 1100 Q648 1100 695 909 L697 909 L729 1087 L806 1484 L1077 1484 L835 236 Q823 177 797 0 L535 0 Z M647 715 Q647 805 618 857 Q589 909 538 909 Q473 909 416.5 827 Q360 745 326 600 Q292 455 292 356 Q292 264 318.5 218 Q345 172 392 172 Q437 172 483 216.5 Q529 261 567 344 Q605 427 628 546 Q647 644 647 715 Z M1085 1129 L1092 1162 L1183 1484 L1414 1484 L1407 1447 L1224 1129 L1085 1129 Z " />
<glyph glyph-name="Dcroat" unicode="&#x110;" horiz-adv-x="1229" d="M464 0 L43 0 L153 564 L19 564 L61 783 L195 783 L305 1349 L666 1349 Q1212 1349 1212 889 Q1212 734 1158 555.5 Q1104 377 1006.5 252.5 Q909 128 771 64 Q633 0 464 0 Z M911 849 Q911 993 837.5 1057 Q764 1121 617 1121 L556 1121 L490 783 L697 783 L655 564 L448 564 L382 228 L484 228 Q803 228 893 685 Q911 778 911 849 Z " />
<glyph glyph-name="dslash" unicode="&#x111;" horiz-adv-x="1229" d="M1333 1180 L1200 1180 L1017 236 Q1005 177 979 0 L707 0 L707 8 Q707 30 714 89 Q721 148 726 176 L722 176 Q654 76 567.5 28 Q481 -20 368 -20 Q224 -20 146.5 73 Q69 166 69 338 Q69 462 109 609.5 Q149 757 217.5 859 Q286 961 380 1014.5 Q474 1068 591 1068 Q699 1068 768.5 1018.5 Q838 969 860 877 L862 877 L919 1180 L637 1180 L670 1349 L952 1349 L978 1484 L1259 1484 L1233 1349 L1366 1349 L1333 1180 Z M813 672 Q813 772 772 824.5 Q731 877 653 877 Q562 877 500 809.5 Q438 742 401.5 607.5 Q365 473 365 368 Q365 172 514 172 Q616 172 690.5 267.5 Q765 363 797 530 Q813 610 813 672 Z " />
<glyph glyph-name="Emacron" unicode="&#x112;" horiz-adv-x="1229" d="M32 0 L294 1349 L1262 1349 L1218 1121 L545 1121 L482 797 L1094 797 L1050 569 L438 569 L371 228 L1085 228 L1041 0 L32 0 Z M539 1638 L1151 1638 L1119 1470 L507 1470 L539 1638 Z " />
<glyph glyph-name="emacron" unicode="&#x113;" horiz-adv-x="1229" d="M517 -20 Q310 -20 197 84.5 Q84 189 84 385 Q84 511 126.5 648.5 Q169 786 257 891 Q345 996 469 1049 Q593 1102 739 1102 Q936 1102 1038 994 Q1140 886 1140 685 Q1140 597 1120 495 L1119 487 L385 487 Q375 437 375 388 Q375 281 426 224.5 Q477 168 568 168 Q645 168 707.5 200.5 Q770 233 801 297 L1061 274 Q978 133 836 56.5 Q694 -20 517 -20 Z M701 925 Q598 925 523.5 855.5 Q449 786 421 663 L881 663 L885 720 Q885 822 834 873.5 Q783 925 701 925 Z M471 1371 L1083 1371 L1051 1203 L439 1203 L471 1371 Z " />
<glyph glyph-name="Ebreve" unicode="&#x114;" horiz-adv-x="1229" d="M32 0 L294 1349 L1262 1349 L1218 1121 L545 1121 L482 797 L1094 797 L1050 569 L438 569 L371 228 L1085 228 L1041 0 L32 0 Z M784 1427 Q636 1427 560 1488.5 Q484 1550 484 1664 Q484 1694 486 1705 L649 1705 L649 1695 Q649 1584 816 1584 Q904 1584 954 1613 Q1004 1642 1030 1705 L1194 1705 Q1106 1427 784 1427 Z " />
<glyph glyph-name="ebreve" unicode="&#x115;" horiz-adv-x="1229" d="M517 -20 Q310 -20 197 84.5 Q84 189 84 385 Q84 511 126.5 648.5 Q169 786 257 891 Q345 996 469 1049 Q593 1102 739 1102 Q936 1102 1038 994 Q1140 886 1140 685 Q1140 597 1120 495 L1119 487 L385 487 Q375 437 375 388 Q375 281 426 224.5 Q477 168 568 168 Q645 168 707.5 200.5 Q770 233 801 297 L1061 274 Q978 133 836 56.5 Q694 -20 517 -20 Z M701 925 Q598 925 523.5 855.5 Q449 786 421 663 L881 663 L885 720 Q885 822 834 873.5 Q783 925 701 925 Z M741 1183 Q593 1183 517 1244.5 Q441 1306 441 1420 Q441 1450 443 1461 L606 1461 L606 1451 Q606 1340 773 1340 Q861 1340 911 1369 Q961 1398 987 1461 L1151 1461 Q1063 1183 741 1183 Z " />
<glyph glyph-name="Edotaccent" unicode="&#x116;" horiz-adv-x="1229" d="M32 0 L294 1349 L1262 1349 L1218 1121 L545 1121 L482 797 L1094 797 L1050 569 L438 569 L371 228 L1085 228 L1041 0 L32 0 Z M645 1421 L686 1628 L967 1628 L926 1421 L645 1421 Z " />
<glyph glyph-name="edotaccent" unicode="&#x117;" horiz-adv-x="1229" d="M517 -20 Q310 -20 197 84.5 Q84 189 84 385 Q84 511 126.5 648.5 Q169 786 257 891 Q345 996 469 1049 Q593 1102 739 1102 Q936 1102 1038 994 Q1140 886 1140 685 Q1140 597 1120 495 L1119 487 L385 487 Q375 437 375 388 Q375 281 426 224.5 Q477 168 568 168 Q645 168 707.5 200.5 Q770 233 801 297 L1061 274 Q978 133 836 56.5 Q694 -20 517 -20 Z M701 925 Q598 925 523.5 855.5 Q449 786 421 663 L881 663 L885 720 Q885 822 834 873.5 Q783 925 701 925 Z M618 1273 L659 1480 L940 1480 L899 1273 L618 1273 Z " />
<glyph glyph-name="Eogonek" unicode="&#x118;" horiz-adv-x="1229" d="M32 0 L294 1349 L1262 1349 L1218 1121 L545 1121 L482 797 L1094 797 L1050 569 L438 569 L371 228 L1085 228 L1041 0 L32 0 Z M800 -425 Q709 -425 653.5 -385.5 Q598 -346 598 -268 Q598 -184 656.5 -104 Q715 -24 808 21 L961 21 Q882 -25 835.5 -92.5 Q789 -160 789 -212 Q789 -238 805.5 -260 Q822 -282 867 -282 Q922 -282 984 -255 L958 -392 Q889 -425 800 -425 Z " />
<glyph glyph-name="eogonek" unicode="&#x119;" horiz-adv-x="1229" d="M517 -20 Q310 -20 197 84.5 Q84 189 84 385 Q84 511 126.5 648.5 Q169 786 257 891 Q345 996 469 1049 Q593 1102 739 1102 Q936 1102 1038 994 Q1140 886 1140 685 Q1140 597 1120 495 L1119 487 L385 487 Q375 437 375 388 Q375 281 426 224.5 Q477 168 568 168 Q645 168 707.5 200.5 Q770 233 801 297 L1061 274 Q978 133 836 56.5 Q694 -20 517 -20 Z M701 925 Q598 925 523.5 855.5 Q449 786 421 663 L881 663 L885 720 Q885 822 834 873.5 Q783 925 701 925 Z M531 -425 Q440 -425 384.5 -385.5 Q329 -346 329 -268 Q329 -184 387.5 -104 Q446 -24 539 21 L692 21 Q613 -25 566.5 -92.5 Q520 -160 520 -212 Q520 -238 536.5 -260 Q553 -282 598 -282 Q653 -282 715 -255 L689 -392 Q620 -425 531 -425 Z " />
<glyph glyph-name="Ecaron" unicode="&#x11a;" horiz-adv-x="1229" d="M32 0 L294 1349 L1262 1349 L1218 1121 L545 1121 L482 797 L1094 797 L1050 569 L438 569 L371 228 L1085 228 L1041 0 L32 0 Z M916 1427 L687 1427 L477 1676 L483 1705 L643 1705 L828 1571 L832 1571 L1061 1705 L1220 1705 L1214 1676 L916 1427 Z " />
<glyph glyph-name="ecaron" unicode="&#x11b;" horiz-adv-x="1229" d="M517 -20 Q310 -20 197 84.5 Q84 189 84 385 Q84 511 126.5 648.5 Q169 786 257 891 Q345 996 469 1049 Q593 1102 739 1102 Q936 1102 1038 994 Q1140 886 1140 685 Q1140 597 1120 495 L1119 487 L385 487 Q375 437 375 388 Q375 281 426 224.5 Q477 168 568 168 Q645 168 707.5 200.5 Q770 233 801 297 L1061 274 Q978 133 836 56.5 Q694 -20 517 -20 Z M701 925 Q598 925 523.5 855.5 Q449 786 421 663 L881 663 L885 720 Q885 822 834 873.5 Q783 925 701 925 Z M851 1183 L622 1183 L412 1432 L418 1461 L578 1461 L763 1327 L767 1327 L996 1461 L1155 1461 L1149 1432 L851 1183 Z " />
<glyph glyph-name="Gcircumflex" unicode="&#x11c;" horiz-adv-x="1229" d="M526 -20 Q310 -20 197 105.5 Q84 231 84 460 Q84 621 138.5 811.5 Q193 1002 283 1124.5 Q373 1247 502 1308.5 Q631 1370 799 1370 Q978 1370 1074 1278 Q1170 1186 1188 995 L904 941 Q888 1138 757 1138 Q640 1138 561.5 1057.5 Q483 977 434 800 Q385 623 385 483 Q385 216 587 216 Q642 216 705 237.5 Q768 259 809 290 L855 525 L581 525 L623 743 L1167 743 L1059 185 Q777 -20 526 -20 Z M1160 1455 L1155 1427 L996 1427 L819 1561 L815 1561 L578 1427 L418 1427 L423 1455 L730 1705 L959 1705 L1160 1455 Z " />
<glyph glyph-name="gcircumflex" unicode="&#x11d;" horiz-adv-x="1229" d="M427 -434 Q241 -434 139.5 -357.5 Q38 -281 36 -143 L324 -110 Q326 -175 365.5 -213 Q405 -251 470 -251 Q674 -251 731 37 L767 211 L765 211 Q696 106 600.5 59 Q505 12 398 12 Q257 12 181.5 101 Q106 190 106 359 Q106 488 145.5 635 Q185 782 254.5 886.5 Q324 991 419.5 1045 Q515 1099 631 1099 Q738 1099 807.5 1049 Q877 999 900 908 L905 908 Q938 1047 953 1082 L1219 1082 L1196 981 L1165 832 L1009 33 Q964 -196 814 -315 Q664 -434 427 -434 Z M849 692 Q849 791 808 848.5 Q767 906 693 906 Q606 906 541 836 Q476 766 439.5 636.5 Q403 507 403 407 Q403 207 555 207 Q642 207 709.5 276.5 Q777 346 813 468.5 Q849 591 849 692 Z M1104 1211 L1099 1183 L940 1183 L763 1317 L759 1317 L522 1183 L362 1183 L367 1211 L674 1461 L903 1461 L1104 1211 Z " />
<glyph glyph-name="Gbreve" unicode="&#x11e;" horiz-adv-x="1229" d="M526 -20 Q310 -20 197 105.5 Q84 231 84 460 Q84 621 138.5 811.5 Q193 1002 283 1124.5 Q373 1247 502 1308.5 Q631 1370 799 1370 Q978 1370 1074 1278 Q1170 1186 1188 995 L904 941 Q888 1138 757 1138 Q640 1138 561.5 1057.5 Q483 977 434 800 Q385 623 385 483 Q385 216 587 216 Q642 216 705 237.5 Q768 259 809 290 L855 525 L581 525 L623 743 L1167 743 L1059 185 Q777 -20 526 -20 Z M787 1427 Q639 1427 563 1488.5 Q487 1550 487 1664 Q487 1694 489 1705 L652 1705 L652 1695 Q652 1584 819 1584 Q907 1584 957 1613 Q1007 1642 1033 1705 L1197 1705 Q1109 1427 787 1427 Z " />
<glyph glyph-name="gbreve" unicode="&#x11f;" horiz-adv-x="1229" d="M427 -434 Q241 -434 139.5 -357.5 Q38 -281 36 -143 L324 -110 Q326 -175 365.5 -213 Q405 -251 470 -251 Q674 -251 731 37 L767 211 L765 211 Q696 106 600.5 59 Q505 12 398 12 Q257 12 181.5 101 Q106 190 106 359 Q106 488 145.5 635 Q185 782 254.5 886.5 Q324 991 419.5 1045 Q515 1099 631 1099 Q738 1099 807.5 1049 Q877 999 900 908 L905 908 Q938 1047 953 1082 L1219 1082 L1196 981 L1165 832 L1009 33 Q964 -196 814 -315 Q664 -434 427 -434 Z M849 692 Q849 791 808 848.5 Q767 906 693 906 Q606 906 541 836 Q476 766 439.5 636.5 Q403 507 403 407 Q403 207 555 207 Q642 207 709.5 276.5 Q777 346 813 468.5 Q849 591 849 692 Z M728 1183 Q580 1183 504 1244.5 Q428 1306 428 1420 Q428 1450 430 1461 L593 1461 L593 1451 Q593 1340 760 1340 Q848 1340 898 1369 Q948 1398 974 1461 L1138 1461 Q1050 1183 728 1183 Z " />
<glyph glyph-name="Gdotaccent" unicode="&#x120;" horiz-adv-x="1229" d="M526 -20 Q310 -20 197 105.5 Q84 231 84 460 Q84 621 138.5 811.5 Q193 1002 283 1124.5 Q373 1247 502 1308.5 Q631 1370 799 1370 Q978 1370 1074 1278 Q1170 1186 1188 995 L904 941 Q888 1138 757 1138 Q640 1138 561.5 1057.5 Q483 977 434 800 Q385 623 385 483 Q385 216 587 216 Q642 216 705 237.5 Q768 259 809 290 L855 525 L581 525 L623 743 L1167 743 L1059 185 Q777 -20 526 -20 Z M655 1421 L696 1628 L977 1628 L936 1421 L655 1421 Z " />
<glyph glyph-name="gdotaccent" unicode="&#x121;" horiz-adv-x="1229" d="M427 -434 Q241 -434 139.5 -357.5 Q38 -281 36 -143 L324 -110 Q326 -175 365.5 -213 Q405 -251 470 -251 Q674 -251 731 37 L767 211 L765 211 Q696 106 600.5 59 Q505 12 398 12 Q257 12 181.5 101 Q106 190 106 359 Q106 488 145.5 635 Q185 782 254.5 886.5 Q324 991 419.5 1045 Q515 1099 631 1099 Q738 1099 807.5 1049 Q877 999 900 908 L905 908 Q938 1047 953 1082 L1219 1082 L1196 981 L1165 832 L1009 33 Q964 -196 814 -315 Q664 -434 427 -434 Z M849 692 Q849 791 808 848.5 Q767 906 693 906 Q606 906 541 836 Q476 766 439.5 636.5 Q403 507 403 407 Q403 207 555 207 Q642 207 709.5 276.5 Q777 346 813 468.5 Q849 591 849 692 Z M606 1267 L647 1474 L928 1474 L887 1267 L606 1267 Z " />
<glyph glyph-name="Gcommaaccent" unicode="&#x122;" horiz-adv-x="1229" d="M526 -20 Q310 -20 197 105.5 Q84 231 84 460 Q84 621 138.5 811.5 Q193 1002 283 1124.5 Q373 1247 502 1308.5 Q631 1370 799 1370 Q978 1370 1074 1278 Q1170 1186 1188 995 L904 941 Q888 1138 757 1138 Q640 1138 561.5 1057.5 Q483 977 434 800 Q385 623 385 483 Q385 216 587 216 Q642 216 705 237.5 Q768 259 809 290 L855 525 L581 525 L623 743 L1167 743 L1059 185 Q777 -20 526 -20 Z M242 -453 L248 -420 L400 -98 L657 -98 L650 -135 L407 -453 L242 -453 Z " />
<glyph glyph-name="gcommaaccent" unicode="&#x123;" horiz-adv-x="1229" d="M427 -434 Q241 -434 139.5 -357.5 Q38 -281 36 -143 L324 -110 Q326 -175 365.5 -213 Q405 -251 470 -251 Q674 -251 731 37 L767 211 L765 211 Q696 106 600.5 59 Q505 12 398 12 Q257 12 181.5 101 Q106 190 106 359 Q106 488 145.5 635 Q185 782 254.5 886.5 Q324 991 419.5 1045 Q515 1099 631 1099 Q738 1099 807.5 1049 Q877 999 900 908 L905 908 Q938 1047 953 1082 L1219 1082 L1196 981 L1165 832 L1009 33 Q964 -196 814 -315 Q664 -434 427 -434 Z M849 692 Q849 791 808 848.5 Q767 906 693 906 Q606 906 541 836 Q476 766 439.5 636.5 Q403 507 403 407 Q403 207 555 207 Q642 207 709.5 276.5 Q777 346 813 468.5 Q849 591 849 692 Z M989 1566 L983 1533 L831 1211 L574 1211 L582 1248 L824 1566 L989 1566 Z " />
<glyph glyph-name="Hcircumflex" unicode="&#x124;" horiz-adv-x="1229" d="M691 0 L803 574 L440 574 L328 0 L33 0 L295 1349 L590 1349 L487 818 L850 818 L953 1349 L1248 1349 L986 0 L691 0 Z M1159 1455 L1154 1427 L995 1427 L818 1561 L814 1561 L577 1427 L417 1427 L422 1455 L729 1705 L958 1705 L1159 1455 Z " />
<glyph glyph-name="hcircumflex" unicode="&#x125;" horiz-adv-x="1229" d="M483 866 Q564 990 661 1046 Q758 1102 877 1102 Q1148 1102 1148 835 Q1148 766 1132 686 L999 0 L719 0 L840 621 Q855 698 855 749 Q855 818 825 854.5 Q795 891 719 891 Q617 891 539 804.5 Q461 718 432 579 L319 0 L38 0 L300 1349 L581 1349 L529 1079 Q516 1008 488 902 L479 866 L483 866 Z M1161 1455 L1155 1427 L996 1427 L819 1561 L815 1561 L578 1427 L418 1427 L424 1455 L730 1705 L959 1705 L1161 1455 Z " />
<glyph glyph-name="Hbar" unicode="&#x126;" horiz-adv-x="1229" d="M691 0 L803 574 L440 574 L328 0 L33 0 L228 1004 L92 1004 L125 1172 L261 1172 L295 1349 L590 1349 L556 1172 L919 1172 L953 1349 L1248 1349 L1214 1172 L1349 1172 L1316 1004 L1181 1004 L986 0 L691 0 Z M850 818 L886 1004 L523 1004 L487 818 L850 818 Z " />
<glyph glyph-name="hbar" unicode="&#x127;" horiz-adv-x="1229" d="M476 826 Q629 1062 869 1062 Q1141 1062 1141 794 Q1141 724 1125 646 L999 0 L719 0 L832 581 Q847 653 847 709 Q847 777 817 814 Q787 851 711 851 Q609 851 531 764.5 Q453 678 424 539 L319 0 L38 0 L267 1180 L133 1180 L166 1349 L300 1349 L326 1484 L607 1484 L581 1349 L881 1349 L848 1180 L548 1180 Q534 1108 520 1033.5 Q506 959 472 826 L476 826 Z " />
<glyph glyph-name="Itilde" unicode="&#x128;" horiz-adv-x="1229" d="M314 1349 L1230 1349 L1186 1121 L870 1121 L696 228 L1012 228 L968 0 L52 0 L96 228 L412 228 L586 1121 L270 1121 L314 1349 Z M952 1422 Q908 1422 867 1439.5 Q826 1457 788 1478.5 Q750 1500 716 1517.5 Q682 1535 652 1535 Q604 1535 577.5 1509 Q551 1483 532 1422 L395 1422 Q435 1575 503.5 1640 Q572 1705 675 1705 Q720 1705 762 1687.5 Q804 1670 841.5 1648.5 Q879 1627 912 1609.5 Q945 1592 974 1592 Q1024 1592 1049.5 1620 Q1075 1648 1095 1705 L1230 1705 Q1193 1555 1123 1488.5 Q1053 1422 952 1422 Z " />
<glyph glyph-name="itilde" unicode="&#x129;" horiz-adv-x="1229" d="M726 190 L1079 190 L1042 0 L13 0 L50 190 L445 190 L581 892 L291 892 L328 1082 L899 1082 L726 190 Z M907 1183 Q863 1183 822 1200.5 Q781 1218 743 1239.5 Q705 1261 671 1278.5 Q637 1296 607 1296 Q559 1296 532.5 1270 Q506 1244 487 1183 L350 1183 Q390 1336 458.5 1401 Q527 1466 630 1466 Q675 1466 717 1448.5 Q759 1431 796.5 1409.5 Q834 1388 867 1370.5 Q900 1353 929 1353 Q979 1353 1004.5 1381 Q1030 1409 1050 1466 L1185 1466 Q1148 1316 1078 1249.5 Q1008 1183 907 1183 Z " />
<glyph glyph-name="Imacron" unicode="&#x12a;" horiz-adv-x="1229" d="M314 1349 L1230 1349 L1186 1121 L870 1121 L696 228 L1012 228 L968 0 L52 0 L96 228 L412 228 L586 1121 L270 1121 L314 1349 Z M523 1638 L1135 1638 L1103 1470 L491 1470 L523 1638 Z " />
<glyph glyph-name="imacron" unicode="&#x12b;" horiz-adv-x="1229" d="M726 190 L1079 190 L1042 0 L13 0 L50 190 L445 190 L581 892 L291 892 L328 1082 L899 1082 L726 190 Z M477 1371 L1089 1371 L1057 1203 L445 1203 L477 1371 Z " />
<glyph glyph-name="Ibreve" unicode="&#x12c;" horiz-adv-x="1229" d="M314 1349 L1230 1349 L1186 1121 L870 1121 L696 228 L1012 228 L968 0 L52 0 L96 228 L412 228 L586 1121 L270 1121 L314 1349 Z M784 1427 Q636 1427 560 1488.5 Q484 1550 484 1664 Q484 1694 486 1705 L649 1705 L649 1695 Q649 1584 816 1584 Q904 1584 954 1613 Q1004 1642 1030 1705 L1194 1705 Q1106 1427 784 1427 Z " />
<glyph glyph-name="ibreve" unicode="&#x12d;" horiz-adv-x="1229" d="M726 190 L1079 190 L1042 0 L13 0 L50 190 L445 190 L581 892 L291 892 L328 1082 L899 1082 L726 190 Z M757 1183 Q609 1183 533 1244.5 Q457 1306 457 1420 Q457 1450 459 1461 L622 1461 L622 1451 Q622 1340 789 1340 Q877 1340 927 1369 Q977 1398 1003 1461 L1167 1461 Q1079 1183 757 1183 Z " />
<glyph glyph-name="Iogonek" unicode="&#x12e;" horiz-adv-x="1229" d="M314 1349 L1230 1349 L1186 1121 L870 1121 L696 228 L1012 228 L968 0 L52 0 L96 228 L412 228 L586 1121 L270 1121 L314 1349 Z M482 -425 Q391 -425 335.5 -385.5 Q280 -346 280 -268 Q280 -184 338.5 -104 Q397 -24 490 21 L643 21 Q564 -25 517.5 -92.5 Q471 -160 471 -212 Q471 -238 487.5 -260 Q504 -282 549 -282 Q604 -282 666 -255 L640 -392 Q571 -425 482 -425 Z " />
<glyph glyph-name="iogonek" unicode="&#x12f;" horiz-adv-x="1229" d="M726 190 L1079 190 L1042 0 L13 0 L50 190 L445 190 L581 892 L291 892 L328 1082 L899 1082 L726 190 Z M656 1277 L696 1484 L977 1484 L937 1277 L656 1277 Z M525 -425 Q434 -425 378.5 -385.5 Q323 -346 323 -268 Q323 -184 381.5 -104 Q440 -24 533 21 L686 21 Q607 -25 560.5 -92.5 Q514 -160 514 -212 Q514 -238 530.5 -260 Q547 -282 592 -282 Q647 -282 709 -255 L683 -392 Q614 -425 525 -425 Z " />
<glyph glyph-name="Idot" unicode="&#x130;" horiz-adv-x="1229" d="M314 1349 L1230 1349 L1186 1121 L870 1121 L696 228 L1012 228 L968 0 L52 0 L96 228 L412 228 L586 1121 L270 1121 L314 1349 Z M645 1421 L686 1628 L967 1628 L926 1421 L645 1421 Z " />
<glyph glyph-name="dotlessi" unicode="&#x131;" horiz-adv-x="1229" d="M726 190 L1079 190 L1042 0 L13 0 L50 190 L445 190 L581 892 L291 892 L328 1082 L899 1082 L726 190 Z " />
<glyph glyph-name="IJ" unicode="&#x132;" horiz-adv-x="1229" d="M230 1349 L514 1349 L252 0 L-32 0 L230 1349 Z M675 -20 Q520 -20 448 49.5 Q376 119 376 268 Q376 311 382 360 L653 398 L649 329 Q649 269 666 240 Q683 211 727 211 Q773 211 800 258 Q827 305 848 414 L985 1118 L731 1118 L776 1349 L1316 1349 L1141 446 Q1050 -20 675 -20 Z " />
<glyph glyph-name="ij" unicode="&#x133;" horiz-adv-x="1229" d="M346 0 L65 0 L275 1082 L556 1082 L346 0 Z M313 1277 L353 1484 L634 1484 L594 1277 L313 1277 Z M406 -425 Q327 -425 248.5 -412 Q170 -399 127 -382 L168 -172 Q298 -206 424 -206 Q535 -206 591 -152 Q647 -98 668 10 L876 1082 L1158 1082 L945 -13 Q920 -142 844.5 -235 Q769 -328 655 -376.5 Q541 -425 406 -425 Z M915 1277 L955 1484 L1236 1484 L1196 1277 L915 1277 Z " />
<glyph glyph-name="Jcircumflex" unicode="&#x134;" horiz-adv-x="1229" d="M455 -20 Q265 -20 169.5 81.5 Q74 183 74 370 L75 402 L374 445 L374 426 Q374 322 406.5 266.5 Q439 211 502 211 Q575 211 629.5 270 Q684 329 705 439 L837 1118 L536 1118 L581 1349 L1176 1349 L1001 446 Q958 228 812.5 104 Q667 -20 455 -20 Z M1280 1455 L1275 1427 L1116 1427 L939 1561 L935 1561 L698 1427 L538 1427 L543 1455 L850 1705 L1079 1705 L1280 1455 Z " />
<glyph glyph-name="jcircumflex" unicode="&#x135;" horiz-adv-x="1229" d="M217 -425 Q138 -425 59.5 -412 Q-19 -399 -62 -382 L-21 -172 Q109 -206 235 -206 Q346 -206 402 -152 Q458 -98 479 10 L650 892 L296 892 L333 1082 L969 1082 L756 -13 Q731 -142 655.5 -235 Q580 -328 466 -376.5 Q352 -425 217 -425 Z M1155 1211 L1150 1183 L991 1183 L814 1317 L810 1317 L573 1183 L413 1183 L418 1211 L725 1461 L954 1461 L1155 1211 Z " />
<glyph glyph-name="Kcommaaccent" unicode="&#x136;" horiz-adv-x="1229" d="M776 0 L561 557 L407 415 L326 0 L31 0 L293 1349 L588 1349 L472 750 L1024 1349 L1367 1349 L795 770 L1124 0 L776 0 Z M242 -453 L248 -420 L400 -98 L657 -98 L650 -135 L407 -453 L242 -453 Z " />
<glyph glyph-name="kcommaaccent" unicode="&#x137;" horiz-adv-x="1229" d="M759 0 L565 490 L428 406 L349 0 L68 0 L356 1484 L637 1484 L472 634 L945 1082 L1247 1082 L785 660 L1066 0 L759 0 Z M242 -453 L248 -420 L400 -98 L657 -98 L650 -135 L407 -453 L242 -453 Z " />
<glyph glyph-name="kgreenlandic" unicode="&#x138;" horiz-adv-x="1229" d="M759 0 L561 470 L424 386 L349 0 L68 0 L278 1082 L559 1082 L468 614 L945 1082 L1247 1082 L781 640 L1066 0 L759 0 Z " />
<glyph glyph-name="Lacute" unicode="&#x139;" horiz-adv-x="1229" d="M106 0 L368 1349 L663 1349 L445 228 L1061 228 L1017 0 L106 0 Z M442 1429 L448 1460 L747 1703 L1005 1703 L997 1660 L612 1429 L442 1429 Z " />
<glyph glyph-name="lacute" unicode="&#x13a;" horiz-adv-x="1229" d="M726 190 L1079 190 L1042 0 L13 0 L50 190 L445 190 L633 1159 L343 1159 L380 1349 L951 1349 L726 190 Z M669 1431 L675 1462 L974 1705 L1232 1705 L1224 1662 L839 1431 L669 1431 Z " />
<glyph glyph-name="Lcommaaccent" unicode="&#x13b;" horiz-adv-x="1229" d="M106 0 L368 1349 L663 1349 L445 228 L1061 228 L1017 0 L106 0 Z M252 -453 L258 -420 L410 -98 L667 -98 L660 -135 L417 -453 L252 -453 Z " />
<glyph glyph-name="lcommaaccent" unicode="&#x13c;" horiz-adv-x="1229" d="M726 190 L1079 190 L1042 0 L13 0 L50 190 L445 190 L660 1294 L370 1294 L406 1484 L977 1484 L726 190 Z M242 -453 L248 -420 L400 -98 L657 -98 L650 -135 L407 -453 L242 -453 Z " />
<glyph glyph-name="Lcaron" unicode="&#x13d;" horiz-adv-x="1229" d="M106 0 L368 1349 L663 1349 L445 228 L1061 228 L1017 0 L106 0 Z M843 994 L849 1027 L1001 1349 L1258 1349 L1251 1312 L1008 994 L843 994 Z " />
<glyph glyph-name="lcaron" unicode="&#x13e;" horiz-adv-x="1229" d="M677 190 L1030 190 L993 0 L-36 0 L1 190 L396 190 L611 1294 L321 1294 L357 1484 L928 1484 L677 190 Z M969 1129 L976 1162 L1127 1484 L1384 1484 L1377 1447 L1134 1129 L969 1129 Z " />
<glyph glyph-name="Ldot" unicode="&#x13f;" horiz-adv-x="1229" d="M106 0 L368 1349 L663 1349 L445 228 L1061 228 L1017 0 L106 0 Z M668 583 L709 790 L990 790 L949 583 L668 583 Z " />
<glyph glyph-name="ldot" unicode="&#x140;" horiz-adv-x="1229" d="M726 190 L1079 190 L1042 0 L13 0 L50 190 L445 190 L660 1294 L370 1294 L406 1484 L977 1484 L726 190 Z M898 583 L939 790 L1220 790 L1179 583 L898 583 Z " />
<glyph glyph-name="Lslash" unicode="&#x141;" horiz-adv-x="1229" d="M378 1349 L673 1349 L568 810 L839 938 L896 757 L524 580 L455 228 L1071 228 L1027 0 L116 0 L199 426 L62 362 L1 543 L244 657 L378 1349 Z " />
<glyph glyph-name="lslash" unicode="&#x142;" horiz-adv-x="1229" d="M874 950 L1108 1071 L1161 916 L834 748 L726 190 L1079 190 L1042 0 L13 0 L50 190 L445 190 L522 587 L304 475 L249 629 L561 789 L660 1294 L370 1294 L406 1484 L977 1484 L874 950 Z " />
<glyph glyph-name="Nacute" unicode="&#x143;" horiz-adv-x="1229" d="M643 0 L455 1010 L443 872 Q425 708 415 656 L287 0 L30 0 L292 1349 L629 1349 L821 312 Q839 551 864 677 L994 1349 L1251 1349 L989 0 L643 0 Z M662 1429 L668 1460 L967 1703 L1225 1703 L1217 1660 L832 1429 L662 1429 Z " />
<glyph glyph-name="nacute" unicode="&#x144;" horiz-adv-x="1229" d="M719 0 L839 619 Q854 693 854 746 Q854 821 822 856.5 Q790 892 721 892 Q620 892 540.5 806.5 Q461 721 432 580 L319 0 L38 0 L201 840 Q234 1006 240 1082 L508 1082 Q508 1066 499 993.5 Q490 921 480 867 L484 867 Q637 1103 877 1103 Q1148 1103 1148 830 Q1148 765 1133 687 L999 0 L719 0 Z M629 1184 L635 1215 L934 1458 L1192 1458 L1184 1415 L799 1184 L629 1184 Z " />
<glyph glyph-name="Ncommaaccent" unicode="&#x145;" horiz-adv-x="1229" d="M643 0 L455 1010 L443 872 Q425 708 415 656 L287 0 L30 0 L292 1349 L629 1349 L821 312 Q839 551 864 677 L994 1349 L1251 1349 L989 0 L643 0 Z M211 -453 L217 -420 L369 -98 L626 -98 L619 -135 L376 -453 L211 -453 Z " />
<glyph glyph-name="ncommaaccent" unicode="&#x146;" horiz-adv-x="1229" d="M719 0 L839 619 Q854 693 854 746 Q854 821 822 856.5 Q790 892 721 892 Q620 892 540.5 806.5 Q461 721 432 580 L319 0 L38 0 L201 840 Q234 1006 240 1082 L508 1082 Q508 1066 499 993.5 Q490 921 480 867 L484 867 Q637 1103 877 1103 Q1148 1103 1148 830 Q1148 765 1133 687 L999 0 L719 0 Z M215 -453 L221 -420 L373 -98 L630 -98 L623 -135 L380 -453 L215 -453 Z " />
<glyph glyph-name="Ncaron" unicode="&#x147;" horiz-adv-x="1229" d="M643 0 L455 1010 L443 872 Q425 708 415 656 L287 0 L30 0 L292 1349 L629 1349 L821 312 Q839 551 864 677 L994 1349 L1251 1349 L989 0 L643 0 Z M900 1427 L671 1427 L461 1676 L467 1705 L627 1705 L812 1571 L816 1571 L1045 1705 L1204 1705 L1198 1676 L900 1427 Z " />
<glyph glyph-name="ncaron" unicode="&#x148;" horiz-adv-x="1229" d="M719 0 L839 619 Q854 693 854 746 Q854 821 822 856.5 Q790 892 721 892 Q620 892 540.5 806.5 Q461 721 432 580 L319 0 L38 0 L201 840 Q234 1006 240 1082 L508 1082 Q508 1066 499 993.5 Q490 921 480 867 L484 867 Q637 1103 877 1103 Q1148 1103 1148 830 Q1148 765 1133 687 L999 0 L719 0 Z M858 1183 L629 1183 L419 1432 L425 1461 L585 1461 L770 1327 L774 1327 L1003 1461 L1162 1461 L1156 1432 L858 1183 Z " />
<glyph glyph-name="napostrophe" unicode="&#x149;" horiz-adv-x="1229" d="M800 0 L920 619 Q935 696 935 750 Q935 892 822 892 Q732 892 656.5 803.5 Q581 715 553 580 L440 0 L159 0 L322 840 Q355 1006 361 1082 L629 1082 Q629 1066 620 993.5 Q611 921 601 867 L605 867 Q759 1103 978 1103 Q1229 1103 1229 832 Q1229 767 1214 687 L1080 0 L800 0 Z M88 995 L95 1028 L246 1350 L503 1350 L496 1313 L253 995 L88 995 Z " />
<glyph glyph-name="Eng" unicode="&#x14a;" horiz-adv-x="1229" d="M665 -20 Q542 -20 477.5 40 Q413 100 401 234 L624 302 Q629 244 644 223 Q659 202 693 202 Q741 202 771.5 263 Q802 324 832 475 L905 848 Q925 948 925 1008 Q925 1084 894 1112 Q863 1140 800 1140 Q737 1140 659 1077.5 Q581 1015 523.5 916.5 Q466 818 445 709 L307 0 L12 0 L213 1032 L270 1349 L558 1349 Q553 1297 542.5 1229.5 Q532 1162 520 1098 L524 1098 Q601 1221 717.5 1295 Q834 1369 945 1369 Q1082 1369 1151.5 1298 Q1221 1227 1221 1071 Q1221 982 1199 869 L1128 502 Q1076 237 962.5 108.5 Q849 -20 665 -20 Z " />
<glyph glyph-name="eng" unicode="&#x14b;" horiz-adv-x="1229" d="M854 746 Q854 821 822 856.5 Q790 892 721 892 Q620 892 540.5 806.5 Q461 721 432 580 L319 0 L38 0 L201 840 Q234 1006 240 1082 L508 1082 Q508 1066 499 993.5 Q490 921 480 867 L484 867 Q637 1103 877 1103 Q1148 1103 1148 830 Q1148 765 1133 687 L974 -128 Q948 -267 860.5 -346 Q773 -425 629 -425 Q529 -425 461 -416 L500 -218 L550 -222 Q623 -222 655.5 -190 Q688 -158 707 -60 L839 619 Q854 693 854 746 Z " />
<glyph glyph-name="Omacron" unicode="&#x14c;" horiz-adv-x="1229" d="M506 -20 Q293 -20 183.5 95.5 Q74 211 74 440 Q74 604 125.5 793.5 Q177 983 267 1110.5 Q357 1238 485.5 1304 Q614 1370 776 1370 Q988 1370 1098.5 1257 Q1209 1144 1209 917 Q1209 753 1157 562.5 Q1105 372 1013.5 242.5 Q922 113 794 46.5 Q666 -20 506 -20 Z M909 892 Q909 1138 731 1138 Q624 1138 546.5 1049 Q469 960 421.5 782 Q374 604 374 466 Q374 212 551 212 Q657 212 735 303.5 Q813 395 861 573.5 Q909 752 909 892 Z M523 1638 L1135 1638 L1103 1470 L491 1470 L523 1638 Z " />
<glyph glyph-name="omacron" unicode="&#x14d;" horiz-adv-x="1229" d="M501 -20 Q293 -20 184.5 84 Q76 188 76 383 Q76 567 155.5 743 Q235 919 380 1010.5 Q525 1102 725 1102 Q1156 1102 1156 719 Q1156 643 1137 542 Q1085 273 920 126.5 Q755 -20 501 -20 Z M863 715 Q863 816 822 862.5 Q781 909 692 909 Q585 909 517 843.5 Q449 778 409 635 Q369 492 369 378 Q369 172 535 172 Q644 172 713 239 Q782 306 822.5 453.5 Q863 601 863 715 Z M471 1371 L1083 1371 L1051 1203 L439 1203 L471 1371 Z " />
<glyph glyph-name="Obreve" unicode="&#x14e;" horiz-adv-x="1229" d="M506 -20 Q293 -20 183.5 95.5 Q74 211 74 440 Q74 604 125.5 793.5 Q177 983 267 1110.5 Q357 1238 485.5 1304 Q614 1370 776 1370 Q988 1370 1098.5 1257 Q1209 1144 1209 917 Q1209 753 1157 562.5 Q1105 372 1013.5 242.5 Q922 113 794 46.5 Q666 -20 506 -20 Z M909 892 Q909 1138 731 1138 Q624 1138 546.5 1049 Q469 960 421.5 782 Q374 604 374 466 Q374 212 551 212 Q657 212 735 303.5 Q813 395 861 573.5 Q909 752 909 892 Z M784 1427 Q636 1427 560 1488.5 Q484 1550 484 1664 Q484 1694 486 1705 L649 1705 L649 1695 Q649 1584 816 1584 Q904 1584 954 1613 Q1004 1642 1030 1705 L1194 1705 Q1106 1427 784 1427 Z " />
<glyph glyph-name="obreve" unicode="&#x14f;" horiz-adv-x="1229" d="M501 -20 Q293 -20 184.5 84 Q76 188 76 383 Q76 567 155.5 743 Q235 919 380 1010.5 Q525 1102 725 1102 Q1156 1102 1156 719 Q1156 643 1137 542 Q1085 273 920 126.5 Q755 -20 501 -20 Z M863 715 Q863 816 822 862.5 Q781 909 692 909 Q585 909 517 843.5 Q449 778 409 635 Q369 492 369 378 Q369 172 535 172 Q644 172 713 239 Q782 306 822.5 453.5 Q863 601 863 715 Z M737 1183 Q589 1183 513 1244.5 Q437 1306 437 1420 Q437 1450 439 1461 L602 1461 L602 1451 Q602 1340 769 1340 Q857 1340 907 1369 Q957 1398 983 1461 L1147 1461 Q1059 1183 737 1183 Z " />
<glyph glyph-name="Ohungarumlaut" unicode="&#x150;" horiz-adv-x="1229" d="M506 -20 Q293 -20 183.5 95.5 Q74 211 74 440 Q74 604 125.5 793.5 Q177 983 267 1110.5 Q357 1238 485.5 1304 Q614 1370 776 1370 Q988 1370 1098.5 1257 Q1209 1144 1209 917 Q1209 753 1157 562.5 Q1105 372 1013.5 242.5 Q922 113 794 46.5 Q666 -20 506 -20 Z M909 892 Q909 1138 731 1138 Q624 1138 546.5 1049 Q469 960 421.5 782 Q374 604 374 466 Q374 212 551 212 Q657 212 735 303.5 Q813 395 861 573.5 Q909 752 909 892 Z M615 1426 L473 1426 L479 1460 L752 1705 L987 1705 L979 1662 L615 1426 Z M1021 1426 L879 1426 L885 1460 L1158 1705 L1393 1705 L1385 1662 L1021 1426 Z " />
<glyph glyph-name="ohungarumlaut" unicode="&#x151;" horiz-adv-x="1229" d="M501 -20 Q293 -20 184.5 84 Q76 188 76 383 Q76 567 155.5 743 Q235 919 380 1010.5 Q525 1102 725 1102 Q1156 1102 1156 719 Q1156 643 1137 542 Q1085 273 920 126.5 Q755 -20 501 -20 Z M863 715 Q863 816 822 862.5 Q781 909 692 909 Q585 909 517 843.5 Q449 778 409 635 Q369 492 369 378 Q369 172 535 172 Q644 172 713 239 Q782 306 822.5 453.5 Q863 601 863 715 Z M587 1182 L445 1182 L451 1216 L724 1461 L959 1461 L951 1418 L587 1182 Z M993 1182 L851 1182 L857 1216 L1130 1461 L1365 1461 L1357 1418 L993 1182 Z " />
<glyph glyph-name="OE" unicode="&#x152;" horiz-adv-x="1229" d="M494 0 L415 -5 Q216 -5 121.5 96 Q27 197 27 406 Q27 564 75.5 767 Q124 970 204.5 1099 Q285 1228 402 1291.5 Q519 1355 681 1355 Q720 1355 769 1349 L1327 1349 L1288 1147 L975 1147 L906 792 L1193 792 L1154 592 L867 592 L791 202 L1145 202 L1106 0 L494 0 Z M454 190 Q509 190 539 196 L725 1153 Q689 1159 643 1159 Q531 1159 458.5 1065 Q386 971 338 770 Q290 569 290 431 Q290 190 454 190 Z " />
<glyph glyph-name="oe" unicode="&#x153;" horiz-adv-x="1229" d="M721 484 Q705 402 705 339 Q705 170 808 170 Q859 170 891.5 203 Q924 236 951 301 L1120 256 Q997 -20 773 -20 Q591 -20 546 163 Q428 -20 244 -20 Q129 -20 65.5 60.5 Q2 141 2 307 Q2 434 40 599.5 Q78 765 139 876 Q200 987 282.5 1044.5 Q365 1102 469 1102 Q656 1102 701 925 Q820 1102 994 1102 Q1230 1102 1230 787 Q1230 672 1201 527 L1193 484 L721 484 Z M548 751 Q548 914 446 914 Q377 914 329 833 Q281 752 245.5 584 Q210 416 210 318 Q210 168 295 168 Q373 168 426.5 253.5 Q480 339 514 498.5 Q548 658 548 751 Z M948 914 Q812 914 757 660 L1021 660 Q1032 746 1032 789 Q1032 858 1012 886 Q992 914 948 914 Z " />
<glyph glyph-name="Racute" unicode="&#x154;" horiz-adv-x="1229" d="M790 0 L600 515 L427 515 L327 0 L32 0 L294 1349 L788 1349 Q1018 1349 1132 1270.5 Q1246 1192 1246 1043 Q1246 973 1223.5 897.5 Q1201 822 1154 759 Q1107 696 1037 649.5 Q967 603 886 581 L1122 0 L790 0 Z M942 983 Q942 1059 882.5 1089.5 Q823 1120 713 1120 L545 1120 L472 744 L648 744 Q900 744 937 937 L942 983 Z M612 1429 L618 1460 L917 1703 L1175 1703 L1167 1660 L782 1429 L612 1429 Z " />
<glyph glyph-name="racute" unicode="&#x155;" horiz-adv-x="1229" d="M1141 848 Q1034 867 933 867 Q778 867 663 750 Q548 633 510 438 L425 0 L145 0 L281 701 Q306 837 306 990 L303 1082 L574 1082 Q580 1004 580 955 Q580 900 576 854 L580 854 Q656 990 753 1046 Q850 1102 984 1102 Q1090 1102 1187 1085 L1141 848 Z M581 1184 L587 1215 L886 1458 L1144 1458 L1136 1415 L751 1184 L581 1184 Z " />
<glyph glyph-name="Rcommaaccent" unicode="&#x156;" horiz-adv-x="1229" d="M790 0 L600 515 L427 515 L327 0 L32 0 L294 1349 L788 1349 Q1018 1349 1132 1270.5 Q1246 1192 1246 1043 Q1246 973 1223.5 897.5 Q1201 822 1154 759 Q1107 696 1037 649.5 Q967 603 886 581 L1122 0 L790 0 Z M942 983 Q942 1059 882.5 1089.5 Q823 1120 713 1120 L545 1120 L472 744 L648 744 Q900 744 937 937 L942 983 Z M239 -453 L245 -420 L397 -98 L654 -98 L647 -135 L404 -453 L239 -453 Z " />
<glyph glyph-name="rcommaaccent" unicode="&#x157;" horiz-adv-x="1229" d="M1141 848 Q1034 867 933 867 Q778 867 663 750 Q548 633 510 438 L425 0 L145 0 L281 701 Q306 837 306 990 L303 1082 L574 1082 Q580 1004 580 955 Q580 900 576 854 L580 854 Q656 990 753 1046 Q850 1102 984 1102 Q1090 1102 1187 1085 L1141 848 Z M-30 -453 L-24 -420 L128 -98 L385 -98 L378 -135 L135 -453 L-30 -453 Z " />
<glyph glyph-name="Rcaron" unicode="&#x158;" horiz-adv-x="1229" d="M790 0 L600 515 L427 515 L327 0 L32 0 L294 1349 L788 1349 Q1018 1349 1132 1270.5 Q1246 1192 1246 1043 Q1246 973 1223.5 897.5 Q1201 822 1154 759 Q1107 696 1037 649.5 Q967 603 886 581 L1122 0 L790 0 Z M942 983 Q942 1059 882.5 1089.5 Q823 1120 713 1120 L545 1120 L472 744 L648 744 Q900 744 937 937 L942 983 Z M885 1427 L656 1427 L446 1676 L452 1705 L612 1705 L797 1571 L801 1571 L1030 1705 L1189 1705 L1183 1676 L885 1427 Z " />
<glyph glyph-name="rcaron" unicode="&#x159;" horiz-adv-x="1229" d="M1141 848 Q1034 867 933 867 Q778 867 663 750 Q548 633 510 438 L425 0 L145 0 L281 701 Q306 837 306 990 L303 1082 L574 1082 Q580 1004 580 955 Q580 900 576 854 L580 854 Q656 990 753 1046 Q850 1102 984 1102 Q1090 1102 1187 1085 L1141 848 Z M878 1183 L649 1183 L439 1432 L445 1461 L605 1461 L790 1327 L794 1327 L1023 1461 L1182 1461 L1176 1432 L878 1183 Z " />
<glyph glyph-name="Sacute" unicode="&#x15a;" horiz-adv-x="1229" d="M502 -20 Q267 -20 138.5 79 Q10 178 4 367 L297 404 Q302 310 364 255.5 Q426 201 553 201 Q652 201 716.5 224.5 Q781 248 815 296.5 Q849 345 849 403 Q849 509 655 560 Q432 617 352 660.5 Q272 704 228 766 Q184 828 184 914 Q184 1003 222 1086.5 Q260 1170 340 1235 Q420 1300 532.5 1335 Q645 1370 776 1370 Q1000 1370 1109 1281.5 Q1218 1193 1219 1007 L927 978 Q919 1161 730 1161 Q649 1161 593 1138.5 Q537 1116 508 1072 Q479 1028 479 979 Q479 939 502.5 912 Q526 885 566.5 865.5 Q607 846 734 812 Q903 767 984.5 721 Q1066 675 1105 611.5 Q1144 548 1144 469 Q1144 337 1066 221 Q988 105 842.5 42.5 Q697 -20 502 -20 Z M660 1429 L666 1460 L965 1703 L1223 1703 L1215 1660 L830 1429 L660 1429 Z " />
<glyph glyph-name="sacute" unicode="&#x15b;" horiz-adv-x="1229" d="M511 -20 Q287 -20 182 51 Q77 122 68 270 L323 307 Q328 230 373.5 198 Q419 166 547 166 Q666 166 725.5 196 Q785 226 797 290 L799 313 Q799 353 760 379 Q721 405 632 424 Q433 465 358 498 Q283 531 243 582 Q203 633 203 708 Q203 821 267 913.5 Q331 1006 450 1054.5 Q569 1103 731 1103 Q925 1103 1027.5 1028 Q1130 953 1132 811 L878 785 Q878 854 836.5 885 Q795 916 695 916 Q595 916 540 890.5 Q485 865 473 805 L471 784 Q471 748 506.5 724 Q542 700 618 685 L725 659 Q865 629 931 595 Q997 561 1032 510.5 Q1067 460 1067 386 Q1067 267 999 173.5 Q931 80 804.5 30 Q678 -20 511 -20 Z M578 1184 L584 1215 L883 1458 L1141 1458 L1133 1415 L748 1184 L578 1184 Z " />
<glyph glyph-name="Scircumflex" unicode="&#x15c;" horiz-adv-x="1229" d="M502 -20 Q267 -20 138.5 79 Q10 178 4 367 L297 404 Q302 310 364 255.5 Q426 201 553 201 Q652 201 716.5 224.5 Q781 248 815 296.5 Q849 345 849 403 Q849 509 655 560 Q432 617 352 660.5 Q272 704 228 766 Q184 828 184 914 Q184 1003 222 1086.5 Q260 1170 340 1235 Q420 1300 532.5 1335 Q645 1370 776 1370 Q1000 1370 1109 1281.5 Q1218 1193 1219 1007 L927 978 Q919 1161 730 1161 Q649 1161 593 1138.5 Q537 1116 508 1072 Q479 1028 479 979 Q479 939 502.5 912 Q526 885 566.5 865.5 Q607 846 734 812 Q903 767 984.5 721 Q1066 675 1105 611.5 Q1144 548 1144 469 Q1144 337 1066 221 Q988 105 842.5 42.5 Q697 -20 502 -20 Z M1164 1455 L1159 1427 L1000 1427 L823 1561 L819 1561 L582 1427 L422 1427 L427 1455 L734 1705 L963 1705 L1164 1455 Z " />
<glyph glyph-name="scircumflex" unicode="&#x15d;" horiz-adv-x="1229" d="M511 -20 Q287 -20 182 51 Q77 122 68 270 L323 307 Q328 230 373.5 198 Q419 166 547 166 Q666 166 725.5 196 Q785 226 797 290 L799 313 Q799 353 760 379 Q721 405 632 424 Q433 465 358 498 Q283 531 243 582 Q203 633 203 708 Q203 821 267 913.5 Q331 1006 450 1054.5 Q569 1103 731 1103 Q925 1103 1027.5 1028 Q1130 953 1132 811 L878 785 Q878 854 836.5 885 Q795 916 695 916 Q595 916 540 890.5 Q485 865 473 805 L471 784 Q471 748 506.5 724 Q542 700 618 685 L725 659 Q865 629 931 595 Q997 561 1032 510.5 Q1067 460 1067 386 Q1067 267 999 173.5 Q931 80 804.5 30 Q678 -20 511 -20 Z M1128 1211 L1123 1183 L964 1183 L787 1317 L783 1317 L546 1183 L386 1183 L391 1211 L698 1461 L927 1461 L1128 1211 Z " />
<glyph glyph-name="Scedilla" unicode="&#x15e;" horiz-adv-x="1229" d="M502 -20 Q267 -20 138.5 79 Q10 178 4 367 L297 404 Q302 310 364 255.5 Q426 201 553 201 Q652 201 716.5 224.5 Q781 248 815 296.5 Q849 345 849 403 Q849 509 655 560 Q432 617 352 660.5 Q272 704 228 766 Q184 828 184 914 Q184 1003 222 1086.5 Q260 1170 340 1235 Q420 1300 532.5 1335 Q645 1370 776 1370 Q1000 1370 1109 1281.5 Q1218 1193 1219 1007 L927 978 Q919 1161 730 1161 Q649 1161 593 1138.5 Q537 1116 508 1072 Q479 1028 479 979 Q479 939 502.5 912 Q526 885 566.5 865.5 Q607 846 734 812 Q903 767 984.5 721 Q1066 675 1105 611.5 Q1144 548 1144 469 Q1144 337 1066 221 Q988 105 842.5 42.5 Q697 -20 502 -20 Z M331 -445 Q285 -445 231 -439 L254 -321 Q286 -328 336 -328 Q489 -328 489 -245 Q489 -220 466.5 -205 Q444 -190 378 -190 Q340 -190 326 -192 L432 0 L575 0 L515 -102 Q674 -112 674 -221 Q674 -281 637 -334.5 Q600 -388 521 -416.5 Q442 -445 331 -445 Z " />
<glyph glyph-name="scedilla" unicode="&#x15f;" horiz-adv-x="1229" d="M511 -20 Q287 -20 182 51 Q77 122 68 270 L323 307 Q328 230 373.5 198 Q419 166 547 166 Q666 166 725.5 196 Q785 226 797 290 L799 313 Q799 353 760 379 Q721 405 632 424 Q433 465 358 498 Q283 531 243 582 Q203 633 203 708 Q203 821 267 913.5 Q331 1006 450 1054.5 Q569 1103 731 1103 Q925 1103 1027.5 1028 Q1130 953 1132 811 L878 785 Q878 854 836.5 885 Q795 916 695 916 Q595 916 540 890.5 Q485 865 473 805 L471 784 Q471 748 506.5 724 Q542 700 618 685 L725 659 Q865 629 931 595 Q997 561 1032 510.5 Q1067 460 1067 386 Q1067 267 999 173.5 Q931 80 804.5 30 Q678 -20 511 -20 Z M341 -445 Q295 -445 241 -439 L264 -321 Q296 -328 346 -328 Q499 -328 499 -245 Q499 -220 476.5 -205 Q454 -190 388 -190 Q350 -190 336 -192 L442 0 L585 0 L525 -102 Q684 -112 684 -221 Q684 -281 647 -334.5 Q610 -388 531 -416.5 Q452 -445 341 -445 Z " />
<glyph glyph-name="Scaron" unicode="&#x160;" horiz-adv-x="1229" d="M502 -20 Q267 -20 138.5 79 Q10 178 4 367 L297 404 Q302 310 364 255.5 Q426 201 553 201 Q652 201 716.5 224.5 Q781 248 815 296.5 Q849 345 849 403 Q849 509 655 560 Q432 617 352 660.5 Q272 704 228 766 Q184 828 184 914 Q184 1003 222 1086.5 Q260 1170 340 1235 Q420 1300 532.5 1335 Q645 1370 776 1370 Q1000 1370 1109 1281.5 Q1218 1193 1219 1007 L927 978 Q919 1161 730 1161 Q649 1161 593 1138.5 Q537 1116 508 1072 Q479 1028 479 979 Q479 939 502.5 912 Q526 885 566.5 865.5 Q607 846 734 812 Q903 767 984.5 721 Q1066 675 1105 611.5 Q1144 548 1144 469 Q1144 337 1066 221 Q988 105 842.5 42.5 Q697 -20 502 -20 Z M905 1427 L676 1427 L466 1676 L472 1705 L632 1705 L817 1571 L821 1571 L1050 1705 L1209 1705 L1203 1676 L905 1427 Z " />
<glyph glyph-name="scaron" unicode="&#x161;" horiz-adv-x="1229" d="M511 -20 Q287 -20 182 51 Q77 122 68 270 L323 307 Q328 230 373.5 198 Q419 166 547 166 Q666 166 725.5 196 Q785 226 797 290 L799 313 Q799 353 760 379 Q721 405 632 424 Q433 465 358 498 Q283 531 243 582 Q203 633 203 708 Q203 821 267 913.5 Q331 1006 450 1054.5 Q569 1103 731 1103 Q925 1103 1027.5 1028 Q1130 953 1132 811 L878 785 Q878 854 836.5 885 Q795 916 695 916 Q595 916 540 890.5 Q485 865 473 805 L471 784 Q471 748 506.5 724 Q542 700 618 685 L725 659 Q865 629 931 595 Q997 561 1032 510.5 Q1067 460 1067 386 Q1067 267 999 173.5 Q931 80 804.5 30 Q678 -20 511 -20 Z M863 1183 L634 1183 L424 1432 L430 1461 L590 1461 L775 1327 L779 1327 L1008 1461 L1167 1461 L1161 1432 L863 1183 Z " />
<glyph glyph-name="Tcommaaccent" unicode="&#x162;" horiz-adv-x="1229" d="M875 1121 L657 0 L362 0 L580 1121 L174 1121 L218 1349 L1325 1349 L1281 1121 L875 1121 Z M202 -453 L208 -420 L360 -98 L617 -98 L610 -135 L367 -453 L202 -453 Z " />
<glyph glyph-name="tcommaaccent" unicode="&#x163;" horiz-adv-x="1229" d="M396 892 L229 892 L266 1082 L447 1082 L590 1364 L766 1364 L711 1082 L1096 1082 L1059 892 L674 892 L571 362 Q560 302 560 279 Q560 225 596 201.5 Q632 178 710 178 Q833 178 970 205 L934 19 Q895 13 857.5 7 Q820 1 780.5 -3.5 Q741 -8 697.5 -10.5 Q654 -13 603 -13 Q441 -13 357 44 Q273 101 273 224 Q273 253 278 287 Q283 321 396 892 Z M247 -453 L253 -420 L405 -98 L662 -98 L655 -135 L412 -453 L247 -453 Z " />
<glyph glyph-name="Tcaron" unicode="&#x164;" horiz-adv-x="1229" d="M875 1121 L657 0 L362 0 L580 1121 L174 1121 L218 1349 L1325 1349 L1281 1121 L875 1121 Z M905 1427 L676 1427 L466 1676 L472 1705 L632 1705 L817 1571 L821 1571 L1050 1705 L1209 1705 L1203 1676 L905 1427 Z " />
<glyph glyph-name="tcaron" unicode="&#x165;" horiz-adv-x="1229" d="M287 892 L120 892 L157 1082 L338 1082 L481 1364 L657 1364 L602 1082 L987 1082 L950 892 L565 892 L462 362 Q451 302 451 279 Q451 225 487 201.5 Q523 178 601 178 Q724 178 861 205 L825 19 Q786 13 748.5 7 Q711 1 671.5 -3.5 Q632 -8 588.5 -10.5 Q545 -13 494 -13 Q332 -13 248 44 Q164 101 164 224 Q164 253 169 287 Q174 321 287 892 Z M999 1129 L1006 1162 L1157 1484 L1414 1484 L1407 1447 L1164 1129 L999 1129 Z " />
<glyph glyph-name="Tbar" unicode="&#x166;" horiz-adv-x="1229" d="M875 1121 L808 776 L1036 776 L999 586 L771 586 L657 0 L362 0 L476 586 L249 586 L286 776 L513 776 L580 1121 L175 1121 L219 1349 L1325 1349 L1281 1121 L875 1121 Z " />
<glyph glyph-name="tbar" unicode="&#x167;" horiz-adv-x="1229" d="M331 492 L166 492 L203 682 L368 682 L408 892 L243 892 L280 1082 L461 1082 L604 1364 L780 1364 L725 1082 L1110 1082 L1073 892 L688 892 L648 682 L1033 682 L996 492 L611 492 L585 362 Q574 302 574 279 Q574 225 610 201.5 Q646 178 724 178 Q847 178 984 205 L948 19 Q909 13 871.5 7 Q834 1 794.5 -3.5 Q755 -8 711.5 -10.5 Q668 -13 617 -13 Q455 -13 371 44 Q287 101 287 224 Q287 263 300 336 L331 492 Z " />
<glyph glyph-name="Utilde" unicode="&#x168;" horiz-adv-x="1229" d="M490 -20 Q291 -20 198 65.5 Q105 151 105 330 Q105 418 127 528 L286 1349 L581 1349 L422 531 Q403 436 403 367 Q403 282 437 246.5 Q471 211 543 211 Q646 211 708 286.5 Q770 362 805 541 L962 1349 L1257 1349 L1101 543 Q1044 257 894.5 118.5 Q745 -20 490 -20 Z M952 1422 Q908 1422 867 1439.5 Q826 1457 788 1478.5 Q750 1500 716 1517.5 Q682 1535 652 1535 Q604 1535 577.5 1509 Q551 1483 532 1422 L395 1422 Q435 1575 503.5 1640 Q572 1705 675 1705 Q720 1705 762 1687.5 Q804 1670 841.5 1648.5 Q879 1627 912 1609.5 Q945 1592 974 1592 Q1024 1592 1049.5 1620 Q1075 1648 1095 1705 L1230 1705 Q1193 1555 1123 1488.5 Q1053 1422 952 1422 Z " />
<glyph glyph-name="utilde" unicode="&#x169;" horiz-adv-x="1229" d="M521 1082 L403 475 Q391 412 391 360 Q391 190 520 190 Q611 190 687 279.5 Q763 369 788 502 L900 1082 L1181 1082 L1018 242 Q1004 176 993 99.5 Q982 23 979 0 L711 0 Q719 92 741 215 L736 215 Q583 -20 362 -20 Q92 -20 92 253 Q92 320 107 395 L240 1082 L521 1082 Z M907 1183 Q863 1183 822 1200.5 Q781 1218 743 1239.5 Q705 1261 671 1278.5 Q637 1296 607 1296 Q559 1296 532.5 1270 Q506 1244 487 1183 L350 1183 Q390 1336 458.5 1401 Q527 1466 630 1466 Q675 1466 717 1448.5 Q759 1431 796.5 1409.5 Q834 1388 867 1370.5 Q900 1353 929 1353 Q979 1353 1004.5 1381 Q1030 1409 1050 1466 L1185 1466 Q1148 1316 1078 1249.5 Q1008 1183 907 1183 Z " />
<glyph glyph-name="Umacron" unicode="&#x16a;" horiz-adv-x="1229" d="M490 -20 Q291 -20 198 65.5 Q105 151 105 330 Q105 418 127 528 L286 1349 L581 1349 L422 531 Q403 436 403 367 Q403 282 437 246.5 Q471 211 543 211 Q646 211 708 286.5 Q770 362 805 541 L962 1349 L1257 1349 L1101 543 Q1044 257 894.5 118.5 Q745 -20 490 -20 Z M523 1638 L1135 1638 L1103 1470 L491 1470 L523 1638 Z " />
<glyph glyph-name="umacron" unicode="&#x16b;" horiz-adv-x="1229" d="M521 1082 L403 475 Q391 412 391 360 Q391 190 520 190 Q611 190 687 279.5 Q763 369 788 502 L900 1082 L1181 1082 L1018 242 Q1004 176 993 99.5 Q982 23 979 0 L711 0 Q719 92 741 215 L736 215 Q583 -20 362 -20 Q92 -20 92 253 Q92 320 107 395 L240 1082 L521 1082 Z M471 1371 L1083 1371 L1051 1203 L439 1203 L471 1371 Z " />
<glyph glyph-name="Ubreve" unicode="&#x16c;" horiz-adv-x="1229" d="M490 -20 Q291 -20 198 65.5 Q105 151 105 330 Q105 418 127 528 L286 1349 L581 1349 L422 531 Q403 436 403 367 Q403 282 437 246.5 Q471 211 543 211 Q646 211 708 286.5 Q770 362 805 541 L962 1349 L1257 1349 L1101 543 Q1044 257 894.5 118.5 Q745 -20 490 -20 Z M784 1427 Q636 1427 560 1488.5 Q484 1550 484 1664 Q484 1694 486 1705 L649 1705 L649 1695 Q649 1584 816 1584 Q904 1584 954 1613 Q1004 1642 1030 1705 L1194 1705 Q1106 1427 784 1427 Z " />
<glyph glyph-name="ubreve" unicode="&#x16d;" horiz-adv-x="1229" d="M521 1082 L403 475 Q391 412 391 360 Q391 190 520 190 Q611 190 687 279.5 Q763 369 788 502 L900 1082 L1181 1082 L1018 242 Q1004 176 993 99.5 Q982 23 979 0 L711 0 Q719 92 741 215 L736 215 Q583 -20 362 -20 Q92 -20 92 253 Q92 320 107 395 L240 1082 L521 1082 Z M737 1183 Q589 1183 513 1244.5 Q437 1306 437 1420 Q437 1450 439 1461 L602 1461 L602 1451 Q602 1340 769 1340 Q857 1340 907 1369 Q957 1398 983 1461 L1147 1461 Q1059 1183 737 1183 Z " />
<glyph glyph-name="Uring" unicode="&#x16e;" horiz-adv-x="1229" d="M490 -20 Q291 -20 198 65.5 Q105 151 105 330 Q105 418 127 528 L286 1349 L581 1349 L422 531 Q403 436 403 367 Q403 282 437 246.5 Q471 211 543 211 Q646 211 708 286.5 Q770 362 805 541 L962 1349 L1257 1349 L1101 543 Q1044 257 894.5 118.5 Q745 -20 490 -20 Z M763 1306 Q667 1306 611.5 1349.5 Q556 1393 556 1468 Q556 1527 591 1584 Q626 1641 692.5 1673 Q759 1705 841 1705 Q936 1705 992 1663 Q1048 1621 1048 1544 Q1048 1481 1011 1424.5 Q974 1368 909 1337 Q844 1306 763 1306 Z M906 1516 Q906 1546 881 1561.5 Q856 1577 816 1577 Q758 1577 727.5 1550 Q697 1523 697 1494 Q697 1467 721 1451 Q745 1435 788 1435 Q841 1435 873.5 1459 Q906 1483 906 1516 Z " />
<glyph glyph-name="uring" unicode="&#x16f;" horiz-adv-x="1229" d="M521 1082 L403 475 Q391 412 391 360 Q391 190 520 190 Q611 190 687 279.5 Q763 369 788 502 L900 1082 L1181 1082 L1018 242 Q1004 176 993 99.5 Q982 23 979 0 L711 0 Q719 92 741 215 L736 215 Q583 -20 362 -20 Q92 -20 92 253 Q92 320 107 395 L240 1082 L521 1082 Z M732 1148 Q636 1148 580.5 1191.5 Q525 1235 525 1310 Q525 1369 560 1426 Q595 1483 661.5 1515 Q728 1547 810 1547 Q905 1547 961 1505 Q1017 1463 1017 1386 Q1017 1323 980 1266.5 Q943 1210 878 1179 Q813 1148 732 1148 Z M875 1358 Q875 1388 850 1403.5 Q825 1419 785 1419 Q727 1419 696.5 1392 Q666 1365 666 1336 Q666 1309 690 1293 Q714 1277 757 1277 Q810 1277 842.5 1301 Q875 1325 875 1358 Z " />
<glyph glyph-name="Uhungarumlaut" unicode="&#x170;" horiz-adv-x="1229" d="M490 -20 Q291 -20 198 65.5 Q105 151 105 330 Q105 418 127 528 L286 1349 L581 1349 L422 531 Q403 436 403 367 Q403 282 437 246.5 Q471 211 543 211 Q646 211 708 286.5 Q770 362 805 541 L962 1349 L1257 1349 L1101 543 Q1044 257 894.5 118.5 Q745 -20 490 -20 Z M578 1426 L436 1426 L442 1460 L715 1705 L950 1705 L942 1662 L578 1426 Z M984 1426 L842 1426 L848 1460 L1121 1705 L1356 1705 L1348 1662 L984 1426 Z " />
<glyph glyph-name="uhungarumlaut" unicode="&#x171;" horiz-adv-x="1229" d="M521 1082 L403 475 Q391 412 391 360 Q391 190 520 190 Q611 190 687 279.5 Q763 369 788 502 L900 1082 L1181 1082 L1018 242 Q1004 176 993 99.5 Q982 23 979 0 L711 0 Q719 92 741 215 L736 215 Q583 -20 362 -20 Q92 -20 92 253 Q92 320 107 395 L240 1082 L521 1082 Z M528 1182 L386 1182 L392 1216 L665 1461 L900 1461 L892 1418 L528 1182 Z M934 1182 L792 1182 L798 1216 L1071 1461 L1306 1461 L1298 1418 L934 1182 Z " />
<glyph glyph-name="Uogonek" unicode="&#x172;" horiz-adv-x="1229" d="M490 -20 Q291 -20 198 65.5 Q105 151 105 330 Q105 418 127 528 L286 1349 L581 1349 L422 531 Q403 436 403 367 Q403 282 437 246.5 Q471 211 543 211 Q646 211 708 286.5 Q770 362 805 541 L962 1349 L1257 1349 L1101 543 Q1044 257 894.5 118.5 Q745 -20 490 -20 Z M528 -425 Q437 -425 381.5 -385.5 Q326 -346 326 -268 Q326 -184 384.5 -104 Q443 -24 536 21 L689 21 Q610 -25 563.5 -92.5 Q517 -160 517 -212 Q517 -238 533.5 -260 Q550 -282 595 -282 Q650 -282 712 -255 L686 -392 Q617 -425 528 -425 Z " />
<glyph glyph-name="uogonek" unicode="&#x173;" horiz-adv-x="1229" d="M521 1082 L403 475 Q391 412 391 360 Q391 190 520 190 Q611 190 687 279.5 Q763 369 788 502 L900 1082 L1181 1082 L1018 242 Q1004 176 993 99.5 Q982 23 979 0 L711 0 Q719 92 741 215 L736 215 Q583 -20 362 -20 Q92 -20 92 253 Q92 320 107 395 L240 1082 L521 1082 Z M758 -425 Q667 -425 611.5 -385.5 Q556 -346 556 -268 Q556 -184 614.5 -104 Q673 -24 766 21 L919 21 Q840 -25 793.5 -92.5 Q747 -160 747 -212 Q747 -238 763.5 -260 Q780 -282 825 -282 Q880 -282 942 -255 L916 -392 Q847 -425 758 -425 Z " />
<glyph glyph-name="Wcircumflex" unicode="&#x174;" horiz-adv-x="1229" d="M913 0 L665 0 L650 312 Q645 371 635 636 Q632 630 354 0 L106 0 L157 1349 L416 1349 L370 654 Q366 570 334 388 Q366 476 437 632 L602 971 L797 971 Q817 766 828.5 651 Q840 536 837 434 L837 388 L845 415 Q884 580 907 654 L1126 1349 L1385 1349 L913 0 Z M1160 1455 L1155 1427 L996 1427 L819 1561 L815 1561 L578 1427 L418 1427 L423 1455 L730 1705 L959 1705 L1160 1455 Z " />
<glyph glyph-name="wcircumflex" unicode="&#x175;" horiz-adv-x="1229" d="M923 0 L679 0 L628 471 L620 573 Q615 558 603.5 532.5 Q592 507 332 0 L89 0 L116 1082 L344 1082 L309 475 Q300 326 284 249 L319 323 L572 817 L765 817 L816 362 Q823 292 823 249 Q839 327 888 475 L1097 1082 L1323 1082 L923 0 Z M1113 1211 L1108 1183 L949 1183 L772 1317 L768 1317 L531 1183 L371 1183 L376 1211 L683 1461 L912 1461 L1113 1211 Z " />
<glyph glyph-name="Ycircumflex" unicode="&#x176;" horiz-adv-x="1229" d="M656 0 L362 0 L470 556 L160 1349 L469 1349 L659 783 L1073 1349 L1382 1349 L764 556 L656 0 Z M1160 1455 L1155 1427 L996 1427 L819 1561 L815 1561 L578 1427 L418 1427 L423 1455 L730 1705 L959 1705 L1160 1455 Z " />
<glyph glyph-name="ycircumflex" unicode="&#x177;" horiz-adv-x="1229" d="M137 -425 Q30 -425 -42 -412 L-3 -212 L47 -217 L97 -220 Q182 -220 241 -177 Q300 -134 356 -37 L383 11 L143 1082 L440 1082 L528 555 Q530 546 532 528.5 Q534 511 536 494.5 Q538 478 551 351.5 Q564 225 564 221 L581 258 L718 551 L1001 1082 L1295 1082 L626 -57 Q504 -264 394.5 -344.5 Q285 -425 137 -425 Z M1113 1211 L1108 1183 L949 1183 L772 1317 L768 1317 L531 1183 L371 1183 L376 1211 L683 1461 L912 1461 L1113 1211 Z " />
<glyph glyph-name="Ydieresis" unicode="&#x178;" horiz-adv-x="1229" d="M656 0 L362 0 L470 556 L160 1349 L469 1349 L659 783 L1073 1349 L1382 1349 L764 556 L656 0 Z M889 1445 L932 1664 L1159 1664 L1116 1445 L889 1445 Z M465 1445 L508 1664 L732 1664 L689 1445 L465 1445 Z " />
<glyph glyph-name="Zacute" unicode="&#x179;" horiz-adv-x="1229" d="M1033 0 L-18 0 L23 209 L870 1118 L275 1118 L320 1349 L1254 1349 L1214 1144 L366 231 L1078 231 L1033 0 Z M642 1429 L648 1460 L947 1703 L1205 1703 L1197 1660 L812 1429 L642 1429 Z " />
<glyph glyph-name="zacute" unicode="&#x17a;" horiz-adv-x="1229" d="M33 0 L72 199 L774 879 L245 879 L284 1082 L1133 1082 L1094 881 L396 205 L1012 205 L972 0 L33 0 Z M577 1184 L583 1215 L882 1458 L1140 1458 L1132 1415 L747 1184 L577 1184 Z " />
<glyph glyph-name="Zdotaccent" unicode="&#x17b;" horiz-adv-x="1229" d="M1033 0 L-18 0 L23 209 L870 1118 L275 1118 L320 1349 L1254 1349 L1214 1144 L366 231 L1078 231 L1033 0 Z M658 1421 L699 1628 L980 1628 L939 1421 L658 1421 Z " />
<glyph glyph-name="zdotaccent" unicode="&#x17c;" horiz-adv-x="1229" d="M33 0 L72 199 L774 879 L245 879 L284 1082 L1133 1082 L1094 881 L396 205 L1012 205 L972 0 L33 0 Z M612 1267 L653 1474 L934 1474 L893 1267 L612 1267 Z " />
<glyph glyph-name="Zcaron" unicode="&#x17d;" horiz-adv-x="1229" d="M1033 0 L-18 0 L23 209 L870 1118 L275 1118 L320 1349 L1254 1349 L1214 1144 L366 231 L1078 231 L1033 0 Z M915 1427 L686 1427 L476 1676 L482 1705 L642 1705 L827 1571 L831 1571 L1060 1705 L1219 1705 L1213 1676 L915 1427 Z " />
<glyph glyph-name="zcaron" unicode="&#x17e;" horiz-adv-x="1229" d="M33 0 L72 199 L774 879 L245 879 L284 1082 L1133 1082 L1094 881 L396 205 L1012 205 L972 0 L33 0 Z M859 1183 L630 1183 L420 1432 L426 1461 L586 1461 L771 1327 L775 1327 L1004 1461 L1163 1461 L1157 1432 L859 1183 Z " />
<glyph glyph-name="longs" unicode="&#x17f;" horiz-adv-x="1229" d="M984 1514 Q1144 1514 1306 1486 L1270 1302 Q1123 1321 996 1321 Q897 1321 842.5 1279.5 Q788 1238 769 1139 L548 0 L268 0 L494 1165 Q528 1338 654 1426 Q780 1514 984 1514 Z " />
<glyph glyph-name="uni0180" unicode="&#x180;" horiz-adv-x="1229" d="M171 1345 L304 1345 L331 1484 L612 1484 L585 1345 L890 1345 L857 1175 L552 1175 Q511 961 486 854 L490 854 Q561 966 652 1014 Q743 1062 855 1062 Q998 1062 1074 967 Q1150 872 1150 687 Q1150 481 1086 317.5 Q1022 154 904 67 Q786 -20 628 -20 Q411 -20 361 174 L356 174 Q348 130 331.5 70.5 Q315 11 308 0 L35 0 Q61 90 91 247 L271 1175 L138 1175 L171 1345 Z M854 654 Q854 766 815.5 816.5 Q777 867 699 867 Q553 867 478 743.5 Q403 620 403 393 Q403 282 441.5 227 Q480 172 561 172 Q705 172 779.5 295.5 Q854 419 854 654 Z " />
<glyph glyph-name="uni0181" unicode="&#x181;" horiz-adv-x="1229" d="M1150 441 Q1150 305 1080.5 205.5 Q1011 106 886.5 53 Q762 0 601 0 L199 0 L420 1135 L392 1135 Q350 1135 326.5 1093 Q303 1051 303 986 Q303 941 313 891 L95 874 L92 969 Q92 1155 188 1252 Q284 1349 462 1349 L807 1349 Q995 1349 1093.5 1278.5 Q1192 1208 1192 1073 Q1192 931 1105.5 836.5 Q1019 742 856 709 Q1002 693 1076 623 Q1150 553 1150 441 Z M856 449 Q856 520 811 556.5 Q766 593 680 593 L610 593 L537 219 L614 219 Q731 219 793.5 278 Q856 337 856 449 Z M884 1009 Q884 1130 743 1130 L714 1130 L652 811 L683 811 Q782 811 833 863 Q884 915 884 1009 Z " />
<glyph glyph-name="uni0182" unicode="&#x182;" horiz-adv-x="1229" d="M295 1349 L1212 1349 L1168 1121 L546 1121 L491 841 L729 841 Q929 841 1039 756 Q1149 671 1149 510 Q1149 365 1073 248 Q997 131 857 65.5 Q717 0 534 0 L32 0 L34 3 L295 1349 Z M843 459 Q843 536 783 579.5 Q723 623 601 623 L449 623 L371 219 L529 219 Q685 219 764 281.5 Q843 344 843 459 Z " />
<glyph glyph-name="uni0183" unicode="&#x183;" horiz-adv-x="1229" d="M35 0 Q43 34 58.5 95.5 Q74 157 89 236 L332 1484 L1168 1484 L1127 1271 L571 1271 L536 1090 L499 912 L501 912 Q559 1003 651 1053 Q743 1103 855 1103 Q999 1103 1076.5 1000 Q1154 897 1154 708 Q1154 509 1086 340.5 Q1018 172 897 76 Q776 -20 628 -20 Q523 -20 454 30.5 Q385 81 360 176 L356 176 Q347 127 329.5 68 Q312 9 307 0 L35 0 Z M410 426 Q410 308 451.5 240 Q493 172 566 172 Q697 172 777 313.5 Q857 455 857 676 Q857 912 708 912 Q623 912 552 848.5 Q481 785 445.5 677 Q410 569 410 426 Z " />
<glyph glyph-name="uni0184" unicode="&#x184;" horiz-adv-x="1229" d="M1149 510 Q1149 365 1073 248 Q997 131 857 65.5 Q717 0 534 0 L32 0 L215 943 L106 1086 L113 1122 L514 1349 L589 1349 L490 841 L729 841 Q929 841 1039 756 Q1149 671 1149 510 Z M843 459 Q843 536 783 579.5 Q723 623 601 623 L448 623 L370 219 L529 219 Q685 219 764 281.5 Q843 344 843 459 Z " />
<glyph glyph-name="uni0185" unicode="&#x185;" horiz-adv-x="1229" d="M35 0 L58 96 L89 236 L256 1097 L141 1240 L148 1276 L537 1484 L613 1484 L536 1090 L499 912 L501 912 Q559 1003 651 1053 Q743 1103 855 1103 Q1001 1103 1077.5 1008 Q1154 913 1154 728 Q1154 527 1085 353 Q1016 179 895.5 79.5 Q775 -20 628 -20 Q523 -20 454 30.5 Q385 81 360 176 L356 176 Q347 127 329.5 68 Q312 9 307 0 L35 0 Z M410 406 Q410 172 566 172 Q695 172 776 321.5 Q857 471 857 696 Q857 809 821 860.5 Q785 912 708 912 Q629 912 560.5 850 Q492 788 451 673.5 Q410 559 410 406 Z " />
<glyph glyph-name="uni0186" unicode="&#x186;" horiz-adv-x="1229" d="M922 864 Q922 1138 713 1138 Q549 1138 425 894 L162 946 Q380 1370 761 1370 Q991 1370 1108 1251.5 Q1225 1133 1225 901 Q1225 793 1201 669 Q1065 -20 499 -20 Q124 -20 78 369 L363 435 Q372 328 418 270 Q464 212 540 212 Q657 212 740.5 297.5 Q824 383 873 552 Q922 721 922 864 Z " />
<glyph glyph-name="uni0187" unicode="&#x187;" horiz-adv-x="1229" d="M386 486 Q386 212 595 212 Q759 212 883 456 L1146 404 Q928 -20 547 -20 Q317 -20 200 98.5 Q83 217 83 449 Q83 556 107 681 Q244 1370 809 1370 Q908 1370 984 1342 Q1010 1466 1049 1526.5 Q1088 1587 1149.5 1616.5 Q1211 1646 1303 1646 Q1394 1646 1441 1629 L1401 1425 Q1375 1437 1337 1437 Q1299 1437 1279 1412 Q1259 1387 1241 1296 L1204 1104 Q1223 1045 1230 981 L945 915 Q936 1022 890 1080 Q844 1138 768 1138 Q651 1138 567.5 1052.5 Q484 967 435 798 Q386 629 386 486 Z " />
<glyph glyph-name="uni0188" unicode="&#x188;" horiz-adv-x="1229" d="M515 -20 Q311 -20 202 83 Q93 186 93 378 Q93 511 139 652.5 Q185 794 270.5 895.5 Q356 997 475 1049.5 Q594 1102 737 1102 Q859 1102 945 1063 L945 1064 Q977 1195 1069 1261.5 Q1161 1328 1303 1328 Q1378 1328 1452 1311 L1413 1110 Q1358 1122 1327 1122 Q1275 1122 1239 1092 Q1203 1062 1187 981 L1140 741 L854 727 L855 746 Q855 816 818.5 862.5 Q782 909 694 909 Q598 909 533 841.5 Q468 774 428 637 Q388 500 388 385 Q388 172 554 172 Q634 172 698.5 222.5 Q763 273 795 373 L1074 360 Q1039 250 958 163 Q877 76 762.5 28 Q648 -20 515 -20 Z " />
<glyph glyph-name="uni0189" unicode="&#x189;" horiz-adv-x="1229" d="M464 0 L43 0 L153 564 L19 564 L61 783 L195 783 L305 1349 L666 1349 Q1212 1349 1212 889 Q1212 734 1158 555.5 Q1104 377 1006.5 252.5 Q909 128 771 64 Q633 0 464 0 Z M911 849 Q911 993 837.5 1057 Q764 1121 617 1121 L556 1121 L490 783 L697 783 L655 564 L448 564 L382 228 L484 228 Q803 228 893 685 Q911 778 911 849 Z " />
<glyph glyph-name="uni018A" unicode="&#x18a;" horiz-adv-x="1229" d="M1251 870 Q1251 612 1169 413.5 Q1087 215 933.5 107.5 Q780 0 580 0 L199 0 L420 1135 L392 1135 Q350 1135 326.5 1093 Q303 1051 303 986 Q303 941 313 891 L95 874 L92 969 Q92 1155 188 1252 Q284 1349 462 1349 L783 1349 Q1251 1349 1251 870 Z M952 846 Q952 990 898.5 1055.5 Q845 1121 733 1121 L712 1121 L539 228 L601 228 Q707 228 784.5 300 Q862 372 907 518 Q952 664 952 846 Z " />
<glyph glyph-name="uni018B" unicode="&#x18b;" horiz-adv-x="1229" d="M987 0 L485 0 Q277 0 158 95 Q39 190 39 358 Q39 581 191 711 Q343 841 617 841 L855 841 L909 1121 L387 1121 L431 1349 L1248 1349 L987 3 L987 0 Z M341 384 Q341 219 576 219 L734 219 L812 623 L660 623 Q503 623 422 558.5 Q341 494 341 384 Z " />
<glyph glyph-name="uni018C" unicode="&#x18c;" horiz-adv-x="1229" d="M712 0 L712 8 Q712 74 731 176 L727 176 Q653 69 566 24.5 Q479 -20 373 -20 Q229 -20 153 79 Q77 178 77 364 Q77 566 145 739 Q213 912 330.5 1006 Q448 1100 602 1100 Q708 1100 777.5 1051.5 Q847 1003 872 909 L874 909 L887 983 L942 1271 L481 1271 L522 1484 L1265 1484 L1022 236 Q1007 159 984 0 L712 0 Z M821 686 Q821 909 665 909 Q533 909 452.5 765 Q372 621 372 388 Q372 272 409.5 222 Q447 172 519 172 Q596 172 666 235 Q736 298 778.5 413.5 Q821 529 821 686 Z " />
<glyph glyph-name="uni018D" unicode="&#x18d;" horiz-adv-x="1229" d="M1179 678 Q1179 504 1112.5 361 Q1046 218 920 126.5 Q794 35 628 9 L926 -244 L891 -424 L-32 -424 L7 -221 L545 -221 L188 78 Q125 130 90.5 220 Q56 310 56 427 Q56 622 138.5 776.5 Q221 931 373.5 1016.5 Q526 1102 726 1102 Q945 1102 1062 992.5 Q1179 883 1179 678 Z M884 668 Q884 909 692 909 Q530 909 441 785.5 Q352 662 352 442 Q352 315 402.5 253.5 Q453 192 540 192 Q705 192 794.5 316 Q884 440 884 668 Z " />
<glyph glyph-name="uni018E" unicode="&#x18e;" horiz-adv-x="1229" d="M1249 1349 L987 0 L19 0 L63 228 L736 228 L799 552 L187 552 L232 780 L844 780 L910 1121 L196 1121 L240 1349 L1249 1349 Z " />
<glyph glyph-name="&amp;#x18f;" unicode="&#x18f;" horiz-adv-x="1229" d="M552 212 Q760 212 857 555 L379 555 Q374 507 374 465 Q374 360 413 286 Q452 212 552 212 Z M718 1138 Q636 1138 575.5 1089 Q515 1040 459 937 L209 1010 Q311 1203 439.5 1286.5 Q568 1370 759 1370 Q975 1370 1090 1234.5 Q1205 1099 1205 848 Q1205 591 1120.5 393.5 Q1036 196 877 88 Q718 -20 504 -20 Q295 -20 183 109 Q71 238 71 476 Q71 668 113 754 L127 790 L903 790 Q909 838 909 879 Q909 984 865.5 1061 Q822 1138 718 1138 Z " />
<glyph glyph-name="&amp;#x4d8;" unicode="&#x4d8;" horiz-adv-x="1229" d="M552 212 Q760 212 857 555 L379 555 Q374 507 374 465 Q374 360 413 286 Q452 212 552 212 Z M718 1138 Q636 1138 575.5 1089 Q515 1040 459 937 L209 1010 Q311 1203 439.5 1286.5 Q568 1370 759 1370 Q975 1370 1090 1234.5 Q1205 1099 1205 848 Q1205 591 1120.5 393.5 Q1036 196 877 88 Q718 -20 504 -20 Q295 -20 183 109 Q71 238 71 476 Q71 668 113 754 L127 790 L903 790 Q909 838 909 879 Q909 984 865.5 1061 Q822 1138 718 1138 Z " />
<glyph glyph-name="uni0190" unicode="&#x190;" horiz-adv-x="1229" d="M486 -20 Q270 -20 153 67.5 Q36 155 36 316 Q36 475 133.5 572 Q231 669 421 696 Q303 726 247.5 787 Q192 848 192 941 Q192 1133 349.5 1251 Q507 1369 762 1369 Q975 1369 1087 1280 Q1199 1191 1228 986 L948 925 Q937 1017 912 1061.5 Q887 1106 842 1129 Q797 1152 725 1152 Q475 1152 475 935 Q475 860 533 829.5 Q591 799 721 799 L780 799 L736 572 L677 572 Q539 572 466.5 553 Q394 534 362 491.5 Q330 449 330 360 Q330 208 541 208 Q653 208 736.5 262.5 Q820 317 896 451 L1142 358 Q1035 159 878 69.5 Q721 -20 486 -20 Z " />
<glyph glyph-name="uni0191" unicode="&#x191;" horiz-adv-x="1229" d="M575 1121 L500 737 L1121 737 L1077 509 L456 509 L351 -32 Q312 -232 217.5 -328.5 Q123 -425 -43 -425 Q-100 -425 -184 -405 L-141 -185 Q-117 -190 -104 -194 Q-91 -198 -69 -198 Q-15 -198 11 -165 Q37 -132 54 -42 L324 1349 L1263 1349 L1219 1121 L575 1121 Z " />
<glyph glyph-name="florin" unicode="&#x192;" horiz-adv-x="1229" d="M1186 1158 Q1157 1168 1109.5 1174 Q1062 1180 1035 1180 Q955 1180 914.5 1153 Q874 1126 847 1053 L806 946 L1108 946 L1035 756 L732 756 L270 -425 L-11 -425 L451 756 L243 756 L317 946 L525 946 L578 1081 Q634 1231 744.5 1300.5 Q855 1370 1032 1370 Q1104 1370 1172.5 1358 Q1241 1346 1267 1335 L1186 1158 Z " />
<glyph glyph-name="uni0193" unicode="&#x193;" horiz-adv-x="1229" d="M526 -20 Q310 -20 197 105.5 Q84 231 84 460 Q84 621 138.5 811.5 Q193 1002 283 1124.5 Q373 1247 502 1308.5 Q631 1370 799 1370 Q910 1370 988 1335 Q1022 1499 1095 1564.5 Q1168 1630 1303 1630 Q1390 1630 1437 1613 L1398 1409 Q1369 1421 1336 1421 Q1298 1421 1279.5 1396.5 Q1261 1372 1243 1280 L1188 995 L904 941 Q888 1138 757 1138 Q639 1138 561 1057 Q483 976 434 799.5 Q385 623 385 483 Q385 216 587 216 Q642 216 705 237.5 Q768 259 809 290 L855 525 L581 525 L623 743 L1167 743 L1059 185 Q777 -20 526 -20 Z " />
<glyph glyph-name="uni0194" unicode="&#x194;" horiz-adv-x="1229" d="M160 1349 L461 1349 L611 533 L1072 1349 L1384 1349 L715 270 Q769 118 787 35.5 Q805 -47 805 -104 Q805 -254 705 -339.5 Q605 -425 432 -425 Q306 -425 235.5 -366.5 Q165 -308 165 -201 Q165 -135 202 -52 Q239 31 307.5 122.5 Q376 214 416 270 L160 1349 Z M573 -84 Q573 -35 559 12.5 Q545 60 533 95 Q473 16 454.5 -15 Q436 -46 423.5 -78 Q411 -110 411 -144 Q411 -213 473 -213 Q514 -213 543.5 -182.5 Q573 -152 573 -84 Z " />
<glyph glyph-name="uni0195" unicode="&#x195;" horiz-adv-x="1229" d="M719 -20 Q594 -20 530 54 Q466 128 465 275 Q465 353 485 456 Q505 559 539 722 Q554 786 554 824 Q554 852 542.5 871.5 Q531 891 495 891 Q432 891 385.5 808.5 Q339 726 312 579 L199 0 L-30 0 L258 1484 L488 1484 L409 1079 Q400 1029 362 866 L365 866 Q437 1007 491.5 1054.5 Q546 1102 616 1102 Q780 1102 780 888 Q780 807 757 686 Q701 394 696 356.5 Q691 319 690 289 Q690 239 706.5 215 Q723 191 760 191 Q812 191 846 245.5 Q880 300 908 448 L1031 1082 L1260 1082 L1138 456 Q1093 225 984.5 102.5 Q876 -20 719 -20 Z " />
<glyph glyph-name="uni0196" unicode="&#x196;" horiz-adv-x="1229" d="M314 1349 L1230 1349 L1186 1121 L870 1121 L696 228 L1012 228 L968 0 L52 0 L96 228 L412 228 L586 1121 L270 1121 L314 1349 Z " />
<glyph glyph-name="uni0197" unicode="&#x197;" horiz-adv-x="1229" d="M314 1349 L1230 1349 L1186 1121 L870 1121 L807 797 L1049 797 L1005 569 L763 569 L696 228 L1012 228 L968 0 L52 0 L96 228 L412 228 L479 569 L236 569 L280 797 L523 797 L586 1121 L270 1121 L314 1349 Z " />
<glyph glyph-name="uni0198" unicode="&#x198;" horiz-adv-x="1229" d="M776 0 L561 557 L407 415 L326 0 L31 0 L221 980 Q297 1370 629 1370 Q702 1370 786 1350 L744 1130 Q679 1143 651 1143 Q600 1143 569 1117 Q538 1091 524 1019 L472 750 L1024 1349 L1367 1349 L795 770 L1124 0 L776 0 Z " />
<glyph glyph-name="uni0199" unicode="&#x199;" horiz-adv-x="1229" d="M759 0 L565 490 L428 406 L349 0 L68 0 L302 1203 Q329 1341 431 1417 Q533 1493 687 1493 Q781 1493 866 1476 L827 1275 Q808 1280 769.5 1283.5 Q731 1287 715 1287 Q663 1287 625.5 1257 Q588 1227 572 1146 L473 634 L945 1082 L1247 1082 L785 660 L1066 0 L759 0 Z " />
<glyph glyph-name="uni019A" unicode="&#x19a;" horiz-adv-x="1229" d="M850 826 L1075 826 L1038 639 L813 639 L726 190 L1079 190 L1042 0 L13 0 L50 190 L445 190 L532 639 L309 639 L346 826 L569 826 L660 1294 L370 1294 L406 1484 L977 1484 L850 826 Z " />
<glyph glyph-name="uni019B" unicode="&#x19b;" horiz-adv-x="1229" d="M227 1159 L535 1280 L492 1484 L790 1484 L809 1388 L1005 1466 L1045 1293 L843 1213 L1076 0 L782 0 L672 797 L261 0 L-36 0 L580 1071 L572 1106 L268 986 L227 1159 Z " />
<glyph glyph-name="uni019C" unicode="&#x19c;" horiz-adv-x="1229" d="M885 1349 L705 424 Q681 303 681 242 Q681 197 695 178 Q709 159 738 159 Q787 159 832 251 Q877 343 907 500 L1072 1349 L1308 1349 L1091 231 Q1084 197 1077.5 159.5 Q1071 122 1065.5 88.5 Q1060 55 1056 31 Q1052 7 1052 0 L843 0 L854 73 L871 175 L869 175 Q769 -20 615 -20 Q527 -20 491.5 27.5 Q456 75 456 171 L456 176 L454 176 Q392 68 329 24 Q266 -20 183 -20 Q96 -20 55.5 25.5 Q15 71 15 173 Q15 249 37 361 L229 1349 L464 1349 L284 424 Q258 293 258 237 Q258 195 271 177 Q284 159 313 159 Q364 159 407.5 239.5 Q451 320 482 481 L651 1349 L885 1349 Z " />
<glyph glyph-name="uni019D" unicode="&#x19d;" horiz-adv-x="1229" d="M643 0 L455 1010 L442 872 Q424 703 414 656 L275 -58 Q234 -269 157.5 -347 Q81 -425 -71 -425 Q-146 -425 -232 -405 L-187 -175 Q-125 -188 -95 -188 Q-40 -188 -16 -153.5 Q8 -119 24 -32 L292 1349 L629 1349 L820 312 Q838 547 863 677 L994 1349 L1251 1349 L989 0 L643 0 Z " />
<glyph glyph-name="uni019E" unicode="&#x19e;" horiz-adv-x="1229" d="M636 -424 L839 619 Q853 692 853 744 Q853 824 821 858 Q789 892 721 892 Q619 892 538.5 804 Q458 716 432 580 L319 0 L38 0 L201 840 Q234 1006 240 1082 L508 1082 Q508 1066 499 993.5 Q490 921 480 867 L484 867 Q564 990 661 1046.5 Q758 1103 877 1103 Q1011 1103 1079.5 1035 Q1148 967 1148 832 Q1148 766 1133 687 L917 -424 L636 -424 Z " />
<glyph glyph-name="uni019F" unicode="&#x19f;" horiz-adv-x="1229" d="M506 -20 Q293 -20 183.5 95.5 Q74 211 74 440 Q74 604 125.5 793.5 Q177 983 267 1110.5 Q357 1238 485.5 1304 Q614 1370 776 1370 Q988 1370 1098.5 1256.5 Q1209 1143 1209 917 Q1209 753 1157 562.5 Q1105 372 1013.5 242.5 Q922 113 794 46.5 Q666 -20 506 -20 Z M551 212 Q765 212 862 580 L381 580 Q374 526 374 466 Q374 212 551 212 Z M731 1138 Q526 1138 430 813 L905 813 L909 892 Q909 1138 731 1138 Z " />
<glyph glyph-name="Ohorn" unicode="&#x1a0;" horiz-adv-x="1229" d="M490 -20 Q285 -20 179.5 95.5 Q74 211 74 440 Q74 603 122.5 790 Q171 977 258.5 1107 Q346 1237 469.5 1303.5 Q593 1370 750 1370 Q1144 1370 1166 966 Q1255 1037 1277 1149 L1185 1149 L1235 1409 L1449 1409 L1408 1199 Q1384 1075 1321 977.5 Q1258 880 1163 822 Q1137 560 1048.5 367.5 Q960 175 818 77.5 Q676 -20 490 -20 Z M872 892 Q872 1138 706 1138 Q607 1138 535 1049.5 Q463 961 418.5 784.5 Q374 608 374 466 Q374 212 539 212 Q637 212 709.5 303 Q782 394 827 571.5 Q872 749 872 892 Z " />
<glyph glyph-name="ohorn" unicode="&#x1a1;" horiz-adv-x="1229" d="M1097 719 Q1097 666 1089 608 Q1184 672 1214 822 L1114 822 L1164 1082 L1377 1082 L1336 872 Q1275 558 1063 469 Q1002 233 852 106.5 Q702 -20 478 -20 Q282 -20 179 83.5 Q76 187 76 383 Q76 521 120.5 662.5 Q165 804 244.5 901.5 Q324 999 435.5 1050.5 Q547 1102 690 1102 Q1097 1102 1097 719 Z M805 715 Q805 816 768.5 862.5 Q732 909 654 909 Q558 909 498 842 Q438 775 403.5 635 Q369 495 369 378 Q369 172 516 172 Q614 172 674 239 Q734 306 769.5 456.5 Q805 607 805 715 Z " />
<glyph glyph-name="uni01A2" unicode="&#x1a2;" horiz-adv-x="1229" d="M413 -19 Q236 -19 143 102.5 Q50 224 50 460 Q50 723 131.5 931.5 Q213 1140 354 1254.5 Q495 1369 673 1369 Q798 1369 894 1303 L1234 1363 L1310 1363 L966 -406 L736 -406 L1031 1113 L929 1113 L732 98 L719 79 Q564 -19 413 -19 Z M705 1137 Q677 1162 629 1162 Q538 1162 461.5 1068.5 Q385 975 341 816 Q297 657 297 494 Q297 349 338 268 Q379 187 453 187 Q491 187 523 203 L705 1137 Z " />
<glyph glyph-name="uni01A3" unicode="&#x1a3;" horiz-adv-x="1229" d="M758 -403 L1005 869 L893 869 L738 73 Q667 30 582 5.5 Q497 -19 416 -19 Q228 -19 126 83.5 Q24 186 24 393 Q24 732 184 916.5 Q344 1101 640 1101 Q789 1101 899 1033 L1197 1093 L1271 1093 L981 -403 L758 -403 Z M679 908 Q655 917 607 917 Q432 917 347.5 792.5 Q263 668 263 411 Q263 289 308 227 Q353 165 450 165 Q499 165 538 176 L679 908 Z " />
<glyph glyph-name="uni01A4" unicode="&#x1a4;" horiz-adv-x="1229" d="M1263 1010 Q1263 855 1190 733 Q1117 611 980.5 543.5 Q844 476 661 476 L586 476 L493 0 L208 0 L429 1135 L392 1135 Q350 1135 326.5 1093 Q303 1051 303 986 Q303 941 313 891 L95 874 L92 969 Q92 1150 191 1249.5 Q290 1349 472 1349 L819 1349 Q1038 1349 1150.5 1263 Q1263 1177 1263 1010 Z M960 966 Q960 1048 906.5 1084 Q853 1120 741 1120 L711 1120 L630 703 L668 703 Q814 703 887 767.5 Q960 832 960 966 Z " />
<glyph glyph-name="uni01A5" unicode="&#x1a5;" horiz-adv-x="1229" d="M702 1277 Q570 1277 544 1146 L497 906 L502 906 Q566 1000 657 1051.5 Q748 1103 856 1103 Q1001 1103 1076.5 1003 Q1152 903 1152 718 Q1152 514 1083.5 340.5 Q1015 167 896.5 73.5 Q778 -20 627 -20 Q519 -20 449 30 Q379 80 357 171 L355 171 L342 97 L241 -425 L-40 -425 L276 1203 Q303 1341 407 1417 Q511 1493 664 1493 Q766 1493 855 1476 L814 1265 Q795 1270 756.5 1273.5 Q718 1277 702 1277 Z M408 396 Q408 171 564 171 Q693 171 775 315.5 Q857 460 857 695 Q857 810 819.5 860.5 Q782 911 710 911 Q630 911 556.5 839 Q483 767 445.5 653.5 Q408 540 408 396 Z " />
<glyph glyph-name="uni01A6" unicode="&#x1a6;" horiz-adv-x="1229" d="M728 -310 L541 349 L395 349 L327 0 L32 0 L294 1349 L589 1349 L557 1183 L756 1183 Q986 1183 1100 1099 Q1214 1015 1214 859 Q1214 689 1110.5 569.5 Q1007 450 820 406 L1047 -310 L728 -310 Z M910 809 Q910 882 856 918 Q802 954 680 954 L512 954 L439 578 L615 578 Q910 578 910 809 Z " />
<glyph glyph-name="uni01A7" unicode="&#x1a7;" horiz-adv-x="1229" d="M27 325 Q27 418 58.5 491 Q90 564 147.5 619 Q205 674 303.5 719 Q402 764 601 812 Q663 827 722.5 842.5 Q782 858 828.5 882 Q875 906 903.5 942 Q932 978 932 1034 Q932 1098 881.5 1129.5 Q831 1161 741 1161 Q552 1161 472 978 L192 1007 Q265 1193 408 1281.5 Q551 1370 775 1370 Q979 1370 1099.5 1284.5 Q1220 1199 1220 1050 Q1220 962 1190.5 893 Q1161 824 1106.5 771 Q1052 718 958.5 673.5 Q865 629 693 586 L564 554 Q438 524 376.5 472 Q315 420 315 342 Q315 270 371 235.5 Q427 201 544 201 Q671 201 754.5 255.5 Q838 310 880 404 L1157 367 Q1078 178 911 79 Q744 -20 509 -20 Q282 -20 154.5 71 Q27 162 27 325 Z " />
<glyph glyph-name="uni01A8" unicode="&#x1a8;" horiz-adv-x="1229" d="M75 265 Q75 347 102 410 Q129 473 182.5 519 Q236 565 326 599.5 Q416 634 678 687 Q781 707 821 737.5 Q861 768 861 824 Q861 874 815.5 895 Q770 916 680 916 Q579 916 525.5 884 Q472 852 447 785 L203 811 Q259 952 390 1027.5 Q521 1103 716 1103 Q915 1103 1016 1030 Q1117 957 1117 829 Q1117 736 1080.5 666.5 Q1044 597 969 550.5 Q894 504 773 472.5 Q652 441 542 422 Q430 401 381 366 Q332 331 332 269 Q332 218 378.5 192 Q425 166 536 166 Q663 166 721.5 197.5 Q780 229 816 307 L1055 270 Q989 122 857 51 Q725 -20 500 -20 Q301 -20 188 54.5 Q75 129 75 265 Z " />
<glyph glyph-name="uni01A9" unicode="&#x1a9;" horiz-adv-x="1229" d="M-5 0 L40 234 L591 711 L229 1116 L274 1349 L1253 1349 L1206 1105 L564 1105 L861 778 L835 644 L363 244 L1099 244 L1052 0 L-5 0 Z " />
<glyph glyph-name="uni01AA" unicode="&#x1aa;" horiz-adv-x="1229" d="M326 1244 Q326 1354 403.5 1422 Q481 1490 604 1490 Q876 1490 876 1229 Q876 1175 863 1106 L635 -68 Q629 -97 629 -118 Q629 -209 726 -209 Q744 -209 784.5 -205 Q825 -201 843 -197 L802 -408 Q731 -425 616 -425 Q340 -425 340 -196 Q340 -151 351 -96 L584 1105 Q538 1083 485 1083 Q412 1083 369 1125 Q326 1167 326 1244 Z M449 1270 Q449 1238 469 1218.5 Q489 1199 521 1199 Q564 1199 595 1228 Q626 1257 626 1302 Q626 1334 606.5 1353.5 Q587 1373 555 1373 Q511 1373 480 1343 Q449 1313 449 1270 Z " />
<glyph glyph-name="uni01AB" unicode="&#x1ab;" horiz-adv-x="1229" d="M396 892 L229 892 L266 1082 L447 1082 L590 1364 L766 1364 L711 1082 L1096 1082 L1059 892 L674 892 L571 362 Q559 300 559 276 Q559 225 595 201.5 Q631 178 709 178 Q833 178 970 205 L909 -107 Q881 -250 789.5 -330 Q698 -410 542 -410 Q463 -410 379 -390 L418 -189 Q487 -204 525 -204 Q577 -204 615.5 -174 Q654 -144 670 -63 L680 -11 L603 -13 Q438 -13 355.5 44.5 Q273 102 273 224 Q273 271 286 336 L396 892 Z " />
<glyph glyph-name="uni01AC" unicode="&#x1ac;" horiz-adv-x="1229" d="M459 1121 Q377 1121 340 1087.5 Q303 1054 303 986 Q303 941 313 891 L95 874 L92 969 Q92 1147 194 1248 Q296 1349 473 1349 L1326 1349 L1281 1121 L875 1121 L657 0 L362 0 L580 1121 L459 1121 Z " />
<glyph glyph-name="uni01AD" unicode="&#x1ad;" horiz-adv-x="1229" d="M396 892 L229 892 L266 1082 L430 1082 L444 1153 Q469 1278 522.5 1347.5 Q576 1417 667.5 1455 Q759 1493 895 1493 Q958 1493 1013.5 1489 Q1069 1485 1213 1461 L1176 1275 Q1051 1302 927 1302 Q862 1302 821.5 1286 Q781 1270 758 1239 Q735 1208 724 1146 L711 1082 L1096 1082 L1059 892 L674 892 L571 362 Q559 300 559 276 Q559 225 595 201.5 Q631 178 709 178 Q832 178 969 205 L933 19 Q787 -4 726 -8.5 Q665 -13 603 -13 Q438 -13 355.5 44.5 Q273 102 273 224 Q273 271 286 336 L396 892 Z " />
<glyph glyph-name="uni01AE" unicode="&#x1ae;" horiz-adv-x="1229" d="M875 1121 L649 -42 Q642 -78 642 -104 Q642 -153 665 -175.5 Q688 -198 737 -198 Q766 -198 834 -185 L791 -405 Q697 -425 622 -425 Q452 -425 395.5 -349.5 Q339 -274 339 -172 Q339 -115 353 -45 L580 1121 L174 1121 L218 1349 L1325 1349 L1281 1121 L875 1121 Z " />
<glyph glyph-name="Uhorn" unicode="&#x1af;" horiz-adv-x="1229" d="M460 -20 Q271 -20 187 59 Q103 138 103 309 Q103 402 127 528 L287 1349 L581 1349 L422 531 Q400 415 400 349 Q400 275 427 243 Q454 211 513 211 Q602 211 656.5 289 Q711 367 745 541 L902 1349 L1197 1349 L1110 900 Q1195 919 1249.5 984.5 Q1304 1050 1323 1149 L1221 1149 L1272 1409 L1486 1409 L1445 1199 Q1409 1016 1321.5 905.5 Q1234 795 1084 764 L1041 543 Q985 253 847 116.5 Q709 -20 460 -20 Z " />
<glyph glyph-name="uhorn" unicode="&#x1b0;" horiz-adv-x="1229" d="M521 1082 L403 475 Q384 376 384 321 Q384 252 411 221 Q438 190 490 190 Q574 190 636 274 Q698 358 727 502 L840 1082 L1121 1082 L1020 562 Q1108 578 1169 646.5 Q1230 715 1252 822 L1151 822 L1201 1082 L1413 1082 L1372 872 Q1335 684 1243.5 573.5 Q1152 463 995 434 Q941 156 933 99.5 Q925 43 919 0 L651 0 Q654 37 662.5 97 Q671 157 681 215 L676 215 Q598 95 517.5 37.5 Q437 -20 332 -20 Q87 -20 87 217 Q87 293 107 395 L241 1082 L521 1082 Z " />
<glyph glyph-name="uni01B1" unicode="&#x1b1;" horiz-adv-x="1229" d="M549 206 Q646 206 727 268 Q808 330 854 443 Q900 556 900 702 Q900 892 781 1045 L840 1349 L1335 1349 L1291 1121 L1179 1121 Q1117 1121 1003 1132 Q1088 1052 1133 936.5 Q1178 821 1178 682 Q1178 484 1093 326.5 Q1008 169 848.5 74 Q689 -21 505 -21 Q375 -21 273 35 Q171 91 113.5 196.5 Q56 302 56 440 Q56 642 157.5 818 Q259 994 455 1132 Q341 1121 279 1121 L163 1121 L207 1349 L702 1349 L643 1045 Q483 908 415.5 781.5 Q348 655 348 483 Q348 352 401 279 Q454 206 549 206 Z " />
<glyph glyph-name="uni01B2" unicode="&#x1b2;" horiz-adv-x="1229" d="M533 211 Q700 211 791.5 293 Q883 375 925.5 545.5 Q968 716 968 981 Q968 1065 939.5 1103 Q911 1141 846 1141 Q802 1141 732 1128 L775 1348 Q869 1368 1011 1368 Q1271 1368 1271 1044 Q1271 504 1079.5 242 Q888 -20 479 -20 Q273 -20 175 70 Q77 160 77 341 Q77 423 97 528 L257 1349 L551 1349 L392 531 Q376 447 376 387 Q376 297 413.5 254 Q451 211 533 211 Z " />
<glyph glyph-name="uni01B3" unicode="&#x1b3;" horiz-adv-x="1229" d="M566 0 L272 0 L370 506 L160 1349 L469 1349 L569 783 L780 1152 Q854 1280 921 1325 Q988 1370 1088 1370 Q1173 1370 1238.5 1337 Q1304 1304 1361 1241 L1216 1056 Q1159 1118 1100 1118 Q1058 1118 1024.5 1092 Q991 1066 959 1011 L664 506 L566 0 Z " />
<glyph glyph-name="uni01B4" unicode="&#x1b4;" horiz-adv-x="1229" d="M1366 1493 Q1494 1493 1598 1419 L1465 1223 Q1416 1259 1362 1259 Q1286 1259 1230 1153 L587 -55 Q480 -254 364.5 -339.5 Q249 -425 95 -425 Q-7 -425 -79 -412 L-40 -212 Q13 -220 55 -220 Q144 -220 200.5 -178.5 Q257 -137 314 -37 L341 11 L121 1082 L409 1082 L514 338 L526 241 L626 473 L670 571 L1008 1228 Q1079 1365 1167 1429 Q1255 1493 1366 1493 Z " />
<glyph glyph-name="uni01B5" unicode="&#x1b5;" horiz-adv-x="1229" d="M1033 0 L-18 0 L23 209 L394 608 L91 608 L129 805 L578 805 L870 1118 L275 1118 L320 1349 L1254 1349 L1214 1144 L899 805 L1154 805 L1116 608 L716 608 L366 231 L1078 231 L1033 0 Z " />
<glyph glyph-name="uni01B6" unicode="&#x1b6;" horiz-adv-x="1229" d="M33 0 L72 199 L337 456 L118 456 L152 633 L520 633 L774 879 L245 879 L284 1082 L1133 1082 L1094 881 L838 633 L1060 633 L1026 456 L655 456 L396 205 L1012 205 L972 0 L33 0 Z " />
<glyph glyph-name="uni01B7" unicode="&#x1b7;" horiz-adv-x="1229" d="M433 -414 Q211 -414 80 -319 Q-51 -224 -87 -39 L191 62 Q219 -70 280 -126 Q341 -182 443 -182 Q824 -182 824 225 Q824 310 786 362.5 Q748 415 676.5 439.5 Q605 464 472 464 L344 464 L389 695 L888 1118 L198 1118 L243 1349 L1293 1349 L1253 1144 L688 677 Q892 668 1006 556.5 Q1120 445 1120 252 Q1120 -65 939 -239.5 Q758 -414 433 -414 Z " />
<glyph glyph-name="uni01B8" unicode="&#x1b8;" horiz-adv-x="1229" d="M482 -414 Q240 -414 100.5 -292 Q-39 -170 -39 40 Q-39 335 122 499 Q283 663 593 677 L210 1144 L250 1349 L1300 1349 L1255 1118 L565 1118 L900 695 L855 464 L727 464 Q548 464 450 422.5 Q352 381 301.5 292 Q251 203 251 61 Q251 -62 313 -122 Q375 -182 504 -182 Q603 -182 685 -128.5 Q767 -75 852 62 L1090 -39 Q968 -247 825.5 -330.5 Q683 -414 482 -414 Z " />
<glyph glyph-name="uni01B9" unicode="&#x1b9;" horiz-adv-x="1229" d="M487 -241 Q680 -241 739 -40 L1013 -53 Q953 -241 815.5 -337.5 Q678 -434 475 -434 Q261 -434 132.5 -326.5 Q4 -219 4 -40 Q4 119 70.5 239 Q137 359 255.5 429 Q374 499 529 513 L238 887 L276 1082 L1178 1082 L1138 879 L573 879 L840 523 L803 334 L701 334 Q499 334 393.5 237.5 Q288 141 288 -40 Q288 -241 487 -241 Z " />
<glyph glyph-name="uni01BA" unicode="&#x1ba;" horiz-adv-x="1229" d="M990 -99 Q925 -255 766.5 -344.5 Q608 -434 389 -434 Q212 -434 104.5 -361.5 Q-3 -289 -3 -163 Q-3 -63 47.5 9 Q98 81 197 127 Q296 173 526 221 Q653 247 711.5 282 Q770 317 770 370 Q770 406 745.5 425.5 Q721 445 669.5 453.5 Q618 462 467 462 L365 462 L393 606 L749 879 L211 879 L251 1082 L1153 1082 L1121 919 L718 624 Q900 619 980 565.5 Q1060 512 1060 402 Q1060 304 1007 232 Q954 160 854.5 113 Q755 66 519 13 Q388 -16 328.5 -51 Q269 -86 269 -135 Q269 -183 317.5 -212 Q366 -241 457 -241 Q555 -241 625.5 -195 Q696 -149 723 -61 L990 -99 Z " />
<glyph glyph-name="uni01BB" unicode="&#x1bb;" horiz-adv-x="1229" d="M18 0 L56 195 Q171 370 389 543 L123 543 L160 734 L651 734 Q791 834 842 896.5 Q893 959 893 1021 Q893 1079 853.5 1112.5 Q814 1146 735 1146 Q645 1146 588 1097.5 Q531 1049 498 952 L218 968 Q279 1163 422 1266.5 Q565 1370 776 1370 Q968 1370 1076 1287 Q1184 1204 1184 1062 Q1184 978 1144 899 Q1104 820 1013 734 L1117 734 L1080 543 L765 543 Q604 434 553.5 394 Q503 354 462 313.5 Q421 273 395 231 L1049 231 L1004 0 L18 0 Z " />
<glyph glyph-name="uni01BC" unicode="&#x1bc;" horiz-adv-x="1229" d="M268 1350 L1249 1350 L1204 1121 L673 1121 L629 895 L665 895 Q886 895 999.5 807.5 Q1113 720 1113 551 Q1113 279 950 129.5 Q787 -20 486 -20 Q288 -20 177 72 Q66 164 66 334 L67 364 L351 377 Q358 203 538 203 Q683 203 751 278.5 Q819 354 819 507 Q819 598 766 640.5 Q713 683 597 683 L312 683 L399 1133 L225 1133 L268 1350 Z " />
<glyph glyph-name="uni01BD" unicode="&#x1bd;" horiz-adv-x="1229" d="M245 1082 L1157 1082 L1118 879 L611 879 L575 695 L655 695 Q862 695 972.5 620.5 Q1083 546 1083 401 Q1083 277 1015.5 181.5 Q948 86 820 33 Q692 -20 516 -20 Q317 -20 202.5 70 Q88 160 83 314 L357 332 Q361 172 564 172 Q682 172 745.5 223 Q809 274 809 369 Q809 437 756 473.5 Q703 510 581 510 L293 510 L365 879 L206 879 L245 1082 Z " />
<glyph glyph-name="uni01BE" unicode="&#x1be;" horiz-adv-x="1229" d="M231 892 L94 892 L131 1082 L282 1082 L419 1336 L595 1336 L546 1082 L751 1082 L714 892 L509 892 Q492 802 492 791 Q492 764 506 744 Q520 724 556.5 707 Q593 690 725 659 Q866 626 931.5 590.5 Q997 555 1032 502.5 Q1067 450 1067 373 Q1067 191 915.5 85.5 Q764 -20 511 -20 Q288 -20 182.5 50 Q77 120 68 270 L322 307 Q327 229 374 197.5 Q421 166 547 166 Q681 166 740 201 Q799 236 799 308 Q799 352 758.5 379 Q718 406 624 426 Q442 462 361 499.5 Q280 537 243.5 593.5 Q207 650 207 728 Q207 765 215 808 L231 892 Z " />
<glyph glyph-name="uni01BF" unicode="&#x1bf;" horiz-adv-x="1229" d="M1187 760 Q1187 527 1091 356 Q995 185 794 45 Q593 -95 263 -219 L223 -425 L-58 -425 L235 1082 L500 1082 Q495 1000 480 918 L484 918 Q552 1009 645.5 1057 Q739 1105 853 1105 Q1012 1105 1099.5 1013 Q1187 921 1187 760 Z M894 716 Q894 910 718 910 Q607 910 528 823 Q449 736 421 595 L305 0 Q608 142 751 317.5 Q894 493 894 716 Z " />
<glyph glyph-name="uni01C0" unicode="&#x1c0;" horiz-adv-x="1229" d="M492 0 L492 1484 L737 1484 L737 0 L492 0 Z " />
<glyph glyph-name="uni01C1" unicode="&#x1c1;" horiz-adv-x="1229" d="M279 0 L279 1484 L519 1484 L519 0 L279 0 Z M710 0 L710 1484 L950 1484 L950 0 L710 0 Z " />
<glyph glyph-name="uni01C2" unicode="&#x1c2;" horiz-adv-x="1229" d="M98 1083 L492 1083 L492 1484 L737 1484 L737 1083 L1131 1083 L1131 874 L737 874 L737 608 L1131 608 L1131 399 L737 399 L737 0 L492 0 L492 399 L98 399 L98 608 L492 608 L492 874 L98 874 L98 1083 Z " />
<glyph glyph-name="uni01C3" unicode="&#x1c3;" horiz-adv-x="1229" d="M708 426 L478 426 L625 1349 L919 1349 L708 426 Z M363 0 L415 270 L703 270 L651 0 L363 0 Z " />
<glyph glyph-name="uni01C4" unicode="&#x1c4;" horiz-adv-x="1229" d="M584 932 Q584 669 515.5 451 Q447 233 333 116.5 Q219 0 77 0 L-175 0 L87 1349 L307 1349 Q584 1349 584 932 Z M363 922 Q363 1024 340.5 1072.5 Q318 1121 270 1121 L269 1121 L95 228 L119 228 Q152 228 194.5 260.5 Q237 293 274.5 372.5 Q312 452 337.5 586 Q363 720 363 922 Z M1016 0 L404 0 L444 204 L954 1118 L661 1118 L706 1349 L1256 1349 L1218 1150 L706 231 L1061 231 L1016 0 Z M1109 1427 L880 1427 L670 1676 L676 1705 L836 1705 L1021 1571 L1025 1571 L1254 1705 L1413 1705 L1407 1676 L1109 1427 Z " />
<glyph glyph-name="uni01C5" unicode="&#x1c5;" horiz-adv-x="1229" d="M586 942 Q586 682 520.5 459.5 Q455 237 342.5 118.5 Q230 0 87 0 L-175 0 L87 1349 L318 1349 Q586 1349 586 942 Z M362 923 Q362 1024 340 1072.5 Q318 1121 270 1121 L269 1121 L95 228 L118 228 Q166 228 213 279 Q260 330 293 419 Q326 508 344 635 Q362 762 362 923 Z M432 0 L470 194 L884 879 L626 879 L665 1082 L1170 1082 L1132 886 L722 205 L1026 205 L986 0 L432 0 Z M1061 1183 L832 1183 L622 1432 L628 1461 L788 1461 L973 1327 L977 1327 L1206 1461 L1365 1461 L1359 1432 L1061 1183 Z " />
<glyph glyph-name="uni01C6" unicode="&#x1c6;" horiz-adv-x="1229" d="M191 0 L198 54 Q133 -20 42 -20 Q-35 -20 -73 51.5 Q-111 123 -111 282 Q-111 514 -59 705 Q-7 896 80.5 998 Q168 1100 276 1100 Q357 1100 387 1034 L395 1087 L472 1484 L676 1484 L433 236 Q405 89 392 0 L191 0 Z M322 780 Q322 850 314.5 879.5 Q307 909 281 909 Q235 909 194 827 Q153 745 124.5 588 Q96 431 96 294 Q96 222 106 197 Q116 172 135 172 Q179 172 220.5 261 Q262 350 292 513 Q322 676 322 780 Z M444 0 L482 193 L917 879 L636 879 L676 1082 L1178 1082 L1140 888 L706 205 L1033 205 L993 0 L444 0 Z M1105 1183 L876 1183 L666 1432 L672 1461 L832 1461 L1017 1327 L1021 1327 L1250 1461 L1409 1461 L1403 1432 L1105 1183 Z " />
<glyph glyph-name="uni01C7" unicode="&#x1c7;" horiz-adv-x="1229" d="M-25 0 L237 1349 L474 1349 L256 228 L565 228 L521 0 L-25 0 Z M637 228 Q671 211 716 211 Q800 211 847 271.5 Q894 332 915 439 L1092 1349 L1307 1349 L1131 446 Q1084 205 980.5 94.5 Q877 -16 698 -16 Q615 -16 591 -12 L637 228 Z " />
<glyph glyph-name="uni01C8" unicode="&#x1c8;" horiz-adv-x="1229" d="M607 -425 Q497 -425 435 -393 L477 -175 Q546 -206 630 -206 Q689 -206 731 -148 Q773 -90 792 10 L963 892 L751 892 L788 1082 L1229 1082 L1016 -13 Q977 -214 872.5 -319.5 Q768 -425 607 -425 Z M1039 1277 L1079 1484 L1307 1484 L1267 1277 L1039 1277 Z M-25 0 L237 1349 L474 1349 L256 228 L565 228 L521 0 L-25 0 Z " />
<glyph glyph-name="uni01C9" unicode="&#x1c9;" horiz-adv-x="1229" d="M404 190 L616 190 L579 0 L-99 0 L-62 190 L175 190 L390 1294 L216 1294 L252 1484 L655 1484 L404 190 Z M1054 1277 L1094 1484 L1323 1484 L1283 1277 L1054 1277 Z M622 -425 Q512 -425 450 -393 L492 -175 Q561 -206 645 -206 Q704 -206 746 -148 Q788 -90 807 10 L978 892 L766 892 L803 1082 L1244 1082 L1031 -13 Q992 -214 887.5 -319.5 Q783 -425 622 -425 Z " />
<glyph glyph-name="uni01CA" unicode="&#x1ca;" horiz-adv-x="1229" d="M298 0 L314 738 L171 0 L-25 0 L237 1349 L474 1349 L457 581 L606 1349 L801 1349 L539 0 L298 0 Z M637 228 Q671 211 716 211 Q800 211 847 271.5 Q894 332 915 439 L1092 1349 L1307 1349 L1131 446 Q1084 205 980.5 94.5 Q877 -16 698 -16 Q615 -16 591 -12 L637 228 Z " />
<glyph glyph-name="uni01CB" unicode="&#x1cb;" horiz-adv-x="1229" d="M589 -425 Q530 -425 472.5 -410.5 Q415 -396 381 -374 L423 -157 Q472 -178 527.5 -192 Q583 -206 615 -206 Q670 -206 703.5 -153 Q737 -100 759 10 L930 892 L800 892 L837 1082 L1210 1082 L997 -13 Q960 -205 849.5 -315 Q739 -425 589 -425 Z M1005 1277 L1045 1484 L1288 1484 L1248 1277 L1005 1277 Z M347 0 L363 738 L220 0 L24 0 L286 1349 L523 1349 L506 581 L655 1349 L850 1349 L588 0 L347 0 Z " />
<glyph glyph-name="uni01CC" unicode="&#x1cc;" horiz-adv-x="1229" d="M400 0 L520 619 Q543 738 543 803 Q543 892 492 892 Q438 892 388 802.5 Q338 713 313 580 L200 0 L-42 0 L121 840 Q157 1022 162 1082 L397 1082 L386 991 Q477 1103 608 1103 Q796 1103 796 862 Q795 785 776 687 L642 0 L400 0 Z M607 -425 Q497 -425 435 -393 L477 -175 Q546 -206 630 -206 Q689 -206 731 -148 Q773 -90 792 10 L963 892 L821 892 L858 1082 L1229 1082 L1016 -13 Q977 -214 872.5 -319.5 Q768 -425 607 -425 Z M1039 1277 L1079 1484 L1307 1484 L1267 1277 L1039 1277 Z " />
<glyph glyph-name="uni01CD" unicode="&#x1cd;" horiz-adv-x="1229" d="M1124 0 L830 0 L802 330 L346 330 L190 0 L-105 0 L600 1349 L944 1349 L1124 0 Z M737 1167 Q721 1126 690.5 1058 Q660 990 451 552 L783 552 L749 932 L738 1132 L737 1167 Z M906 1427 L677 1427 L467 1676 L473 1705 L633 1705 L818 1571 L822 1571 L1051 1705 L1210 1705 L1204 1676 L906 1427 Z " />
<glyph glyph-name="uni01CE" unicode="&#x1ce;" horiz-adv-x="1229" d="M330 -20 Q196 -20 123.5 42 Q51 104 51 222 Q51 261 60 306 Q128 647 545 652 L769 656 L779 711 Q789 759 789 795 Q789 920 672 920 Q601 920 559 884 Q517 848 492 767 L202 781 Q315 1102 719 1102 Q892 1102 981.5 1029.5 Q1071 957 1071 816 Q1071 770 1060 712 L984 320 Q973 265 973 235 Q973 198 988.5 179 Q1004 160 1042 160 Q1074 160 1105 166 L1076 14 Q1050 8 1029 3 Q1008 -2 987.5 -5 Q967 -8 944 -10 Q921 -12 891 -12 Q796 -12 754 29.5 Q712 71 712 152 L714 193 L708 193 Q622 80 531 30 Q440 -20 330 -20 Z M738 501 L604 499 Q499 497 449 471 Q399 445 375.5 388.5 Q352 332 352 274 Q352 176 448 176 Q546 176 626 254.5 Q706 333 728 446 L738 501 Z M858 1183 L629 1183 L419 1432 L425 1461 L585 1461 L770 1327 L774 1327 L1003 1461 L1162 1461 L1156 1432 L858 1183 Z " />
<glyph glyph-name="uni01CF" unicode="&#x1cf;" horiz-adv-x="1229" d="M314 1349 L1230 1349 L1186 1121 L870 1121 L696 228 L1012 228 L968 0 L52 0 L96 228 L412 228 L586 1121 L270 1121 L314 1349 Z M906 1427 L677 1427 L467 1676 L473 1705 L633 1705 L818 1571 L822 1571 L1051 1705 L1210 1705 L1204 1676 L906 1427 Z " />
<glyph glyph-name="uni01D0" unicode="&#x1d0;" horiz-adv-x="1229" d="M726 190 L1079 190 L1042 0 L13 0 L50 190 L445 190 L581 892 L291 892 L328 1082 L899 1082 L726 190 Z M880 1181 L651 1181 L441 1430 L447 1459 L607 1459 L792 1325 L796 1325 L1025 1459 L1184 1459 L1178 1430 L880 1181 Z " />
<glyph glyph-name="uni01D1" unicode="&#x1d1;" horiz-adv-x="1229" d="M506 -20 Q293 -20 183.5 95.5 Q74 211 74 440 Q74 604 125.5 793.5 Q177 983 267 1110.5 Q357 1238 485.5 1304 Q614 1370 776 1370 Q988 1370 1098.5 1257 Q1209 1144 1209 917 Q1209 753 1157 562.5 Q1105 372 1013.5 242.5 Q922 113 794 46.5 Q666 -20 506 -20 Z M909 892 Q909 1138 731 1138 Q624 1138 546.5 1049 Q469 960 421.5 782 Q374 604 374 466 Q374 212 551 212 Q657 212 735 303.5 Q813 395 861 573.5 Q909 752 909 892 Z M906 1427 L677 1427 L467 1676 L473 1705 L633 1705 L818 1571 L822 1571 L1051 1705 L1210 1705 L1204 1676 L906 1427 Z " />
<glyph glyph-name="uni01D2" unicode="&#x1d2;" horiz-adv-x="1229" d="M501 -20 Q293 -20 184.5 84 Q76 188 76 383 Q76 567 155.5 743 Q235 919 380 1010.5 Q525 1102 725 1102 Q1156 1102 1156 719 Q1156 643 1137 542 Q1085 273 920 126.5 Q755 -20 501 -20 Z M863 715 Q863 816 822 862.5 Q781 909 692 909 Q585 909 517 843.5 Q449 778 409 635 Q369 492 369 378 Q369 172 535 172 Q644 172 713 239 Q782 306 822.5 453.5 Q863 601 863 715 Z M858 1183 L629 1183 L419 1432 L425 1461 L585 1461 L770 1327 L774 1327 L1003 1461 L1162 1461 L1156 1432 L858 1183 Z " />
<glyph glyph-name="uni01D3" unicode="&#x1d3;" horiz-adv-x="1229" d="M490 -20 Q291 -20 198 65.5 Q105 151 105 330 Q105 418 127 528 L286 1349 L581 1349 L422 531 Q403 436 403 367 Q403 282 437 246.5 Q471 211 543 211 Q646 211 708 286.5 Q770 362 805 541 L962 1349 L1257 1349 L1101 543 Q1044 257 894.5 118.5 Q745 -20 490 -20 Z M906 1427 L677 1427 L467 1676 L473 1705 L633 1705 L818 1571 L822 1571 L1051 1705 L1210 1705 L1204 1676 L906 1427 Z " />
<glyph glyph-name="uni01D4" unicode="&#x1d4;" horiz-adv-x="1229" d="M521 1082 L403 475 Q391 412 391 360 Q391 190 520 190 Q611 190 687 279.5 Q763 369 788 502 L900 1082 L1181 1082 L1018 242 Q1004 176 993 99.5 Q982 23 979 0 L711 0 Q719 92 741 215 L736 215 Q583 -20 362 -20 Q92 -20 92 253 Q92 320 107 395 L240 1082 L521 1082 Z M849 1183 L620 1183 L410 1432 L416 1461 L576 1461 L761 1327 L765 1327 L994 1461 L1153 1461 L1147 1432 L849 1183 Z " />
<glyph glyph-name="uni01D5" unicode="&#x1d5;" horiz-adv-x="1229" d="M490 -20 Q291 -20 198 65.5 Q105 151 105 330 Q105 418 127 528 L286 1349 L581 1349 L422 531 Q403 436 403 367 Q403 282 437 246.5 Q471 211 543 211 Q646 211 708 286.5 Q770 362 805 541 L962 1349 L1257 1349 L1101 543 Q1044 257 894.5 118.5 Q745 -20 490 -20 Z M1057 1466 L897 1466 L927 1618 L1087 1618 L1057 1466 Z M691 1466 L531 1466 L561 1618 L721 1618 L691 1466 Z M560 1835 L1172 1835 L1145 1697 L533 1697 L560 1835 Z " />
<glyph glyph-name="uni01D6" unicode="&#x1d6;" horiz-adv-x="1229" d="M521 1082 L403 475 Q391 412 391 360 Q391 190 520 190 Q611 190 687 279.5 Q763 369 788 502 L900 1082 L1181 1082 L1018 242 Q1004 176 993 99.5 Q982 23 979 0 L711 0 Q719 92 741 215 L736 215 Q583 -20 362 -20 Q92 -20 92 253 Q92 320 107 395 L240 1082 L521 1082 Z M836 1219 L879 1438 L1106 1438 L1063 1219 L836 1219 Z M412 1219 L455 1438 L679 1438 L636 1219 L412 1219 Z M522 1690 L1134 1690 L1101 1522 L489 1522 L522 1690 Z " />
<glyph glyph-name="uni01D7" unicode="&#x1d7;" horiz-adv-x="1229" d="M490 -20 Q291 -20 198 65.5 Q105 151 105 330 Q105 418 127 528 L286 1349 L581 1349 L422 531 Q403 436 403 367 Q403 282 437 246.5 Q471 211 543 211 Q646 211 708 286.5 Q770 362 805 541 L962 1349 L1257 1349 L1101 543 Q1044 257 894.5 118.5 Q745 -20 490 -20 Z M1134 1835 L1131 1819 L870 1666 L720 1666 L723 1680 L888 1835 L1134 1835 Z M1052 1466 L892 1466 L922 1618 L1082 1618 L1052 1466 Z M686 1466 L526 1466 L556 1618 L716 1618 L686 1466 Z " />
<glyph glyph-name="uni01D8" unicode="&#x1d8;" horiz-adv-x="1229" d="M521 1082 L403 475 Q391 412 391 360 Q391 190 520 190 Q611 190 687 279.5 Q763 369 788 502 L900 1082 L1181 1082 L1018 242 Q1004 176 993 99.5 Q982 23 979 0 L711 0 Q719 92 741 215 L736 215 Q583 -20 362 -20 Q92 -20 92 253 Q92 320 107 395 L240 1082 L521 1082 Z M845 1219 L888 1438 L1115 1438 L1072 1219 L845 1219 Z M421 1219 L464 1438 L688 1438 L645 1219 L421 1219 Z M668 1489 L674 1520 L973 1763 L1231 1763 L1223 1720 L838 1489 L668 1489 Z " />
<glyph glyph-name="uni01D9" unicode="&#x1d9;" horiz-adv-x="1229" d="M490 -20 Q291 -20 198 65.5 Q105 151 105 330 Q105 418 127 528 L286 1349 L581 1349 L422 531 Q403 436 403 367 Q403 282 437 246.5 Q471 211 543 211 Q646 211 708 286.5 Q770 362 805 541 L962 1349 L1257 1349 L1101 543 Q1044 257 894.5 118.5 Q745 -20 490 -20 Z M1057 1466 L897 1466 L927 1618 L1087 1618 L1057 1466 Z M691 1466 L531 1466 L561 1618 L721 1618 L691 1466 Z M1017 1835 L1172 1835 L1170 1825 L934 1682 L739 1682 L557 1823 L560 1835 L715 1835 L853 1768 L1017 1835 Z " />
<glyph glyph-name="uni01DA" unicode="&#x1da;" horiz-adv-x="1229" d="M521 1082 L403 475 Q391 412 391 360 Q391 190 520 190 Q611 190 687 279.5 Q763 369 788 502 L900 1082 L1181 1082 L1018 242 Q1004 176 993 99.5 Q982 23 979 0 L711 0 Q719 92 741 215 L736 215 Q583 -20 362 -20 Q92 -20 92 253 Q92 320 107 395 L240 1082 L521 1082 Z M845 1219 L888 1438 L1115 1438 L1072 1219 L845 1219 Z M421 1219 L464 1438 L688 1438 L645 1219 L421 1219 Z M902 1477 L673 1477 L463 1726 L469 1755 L629 1755 L814 1621 L818 1621 L1047 1755 L1206 1755 L1200 1726 L902 1477 Z " />
<glyph glyph-name="uni01DB" unicode="&#x1db;" horiz-adv-x="1229" d="M490 -20 Q291 -20 198 65.5 Q105 151 105 330 Q105 418 127 528 L286 1349 L581 1349 L422 531 Q403 436 403 367 Q403 282 437 246.5 Q471 211 543 211 Q646 211 708 286.5 Q770 362 805 541 L962 1349 L1257 1349 L1101 543 Q1044 257 894.5 118.5 Q745 -20 490 -20 Z M844 1835 L949 1680 L946 1666 L796 1666 L595 1819 L598 1835 L844 1835 Z M566 1618 L726 1618 L696 1466 L536 1466 L566 1618 Z M932 1618 L1092 1618 L1062 1466 L902 1466 L932 1618 Z " />
<glyph glyph-name="uni01DC" unicode="&#x1dc;" horiz-adv-x="1229" d="M521 1082 L403 475 Q391 412 391 360 Q391 190 520 190 Q611 190 687 279.5 Q763 369 788 502 L900 1082 L1181 1082 L1018 242 Q1004 176 993 99.5 Q982 23 979 0 L711 0 Q719 92 741 215 L736 215 Q583 -20 362 -20 Q92 -20 92 253 Q92 320 107 395 L240 1082 L521 1082 Z M845 1219 L888 1438 L1115 1438 L1072 1219 L845 1219 Z M421 1219 L464 1438 L688 1438 L645 1219 L421 1219 Z M734 1478 L439 1709 L447 1752 L705 1752 L910 1509 L904 1478 L734 1478 Z " />
<glyph glyph-name="uni01DD" unicode="&#x1dd;" horiz-adv-x="1229" d="M710 1102 Q917 1102 1030 997.5 Q1143 893 1143 697 Q1143 571 1100.5 433.5 Q1058 296 970 191 Q882 86 758 33 Q634 -20 488 -20 Q291 -20 189 88 Q87 196 87 397 Q87 485 107 587 L108 595 L842 595 Q852 645 852 694 Q852 801 801 857.5 Q750 914 659 914 Q582 914 519.5 881.5 Q457 849 426 785 L166 808 Q249 949 391 1025.5 Q533 1102 710 1102 Z M526 157 Q629 157 703.5 226.5 Q778 296 806 419 L346 419 L342 362 Q342 260 393 208.5 Q444 157 526 157 Z " />
<glyph glyph-name="uni01DE" unicode="&#x1de;" horiz-adv-x="1229" d="M1124 0 L830 0 L802 330 L346 330 L190 0 L-105 0 L600 1349 L944 1349 L1124 0 Z M737 1167 Q721 1126 690.5 1058 Q660 990 451 552 L783 552 L749 932 L738 1132 L737 1167 Z M1057 1466 L897 1466 L927 1618 L1087 1618 L1057 1466 Z M691 1466 L531 1466 L561 1618 L721 1618 L691 1466 Z M560 1835 L1172 1835 L1145 1697 L533 1697 L560 1835 Z " />
<glyph glyph-name="uni01DF" unicode="&#x1df;" horiz-adv-x="1229" d="M330 -20 Q196 -20 123.5 42 Q51 104 51 222 Q51 261 60 306 Q128 647 545 652 L769 656 L779 711 Q789 759 789 795 Q789 920 672 920 Q601 920 559 884 Q517 848 492 767 L202 781 Q315 1102 719 1102 Q892 1102 981.5 1029.5 Q1071 957 1071 816 Q1071 770 1060 712 L984 320 Q973 265 973 235 Q973 198 988.5 179 Q1004 160 1042 160 Q1074 160 1105 166 L1076 14 Q1050 8 1029 3 Q1008 -2 987.5 -5 Q967 -8 944 -10 Q921 -12 891 -12 Q796 -12 754 29.5 Q712 71 712 152 L714 193 L708 193 Q622 80 531 30 Q440 -20 330 -20 Z M738 501 L604 499 Q499 497 449 471 Q399 445 375.5 388.5 Q352 332 352 274 Q352 176 448 176 Q546 176 626 254.5 Q706 333 728 446 L738 501 Z M829 1219 L872 1438 L1099 1438 L1056 1219 L829 1219 Z M405 1219 L448 1438 L672 1438 L629 1219 L405 1219 Z M508 1690 L1120 1690 L1087 1522 L475 1522 L508 1690 Z " />
<glyph glyph-name="uni01E0" unicode="&#x1e0;" horiz-adv-x="1229" d="M1124 0 L830 0 L802 330 L346 330 L190 0 L-105 0 L600 1349 L944 1349 L1124 0 Z M737 1167 Q721 1126 690.5 1058 Q660 990 451 552 L783 552 L749 932 L738 1132 L737 1167 Z M873 1466 L713 1466 L743 1618 L903 1618 L873 1466 Z M560 1835 L1172 1835 L1145 1697 L533 1697 L560 1835 Z " />
<glyph glyph-name="uni01E1" unicode="&#x1e1;" horiz-adv-x="1229" d="M330 -20 Q196 -20 123.5 42 Q51 104 51 222 Q51 261 60 306 Q128 647 545 652 L769 656 L779 711 Q789 759 789 795 Q789 920 672 920 Q601 920 559 884 Q517 848 492 767 L202 781 Q315 1102 719 1102 Q892 1102 981.5 1029.5 Q1071 957 1071 816 Q1071 770 1060 712 L984 320 Q973 265 973 235 Q973 198 988.5 179 Q1004 160 1042 160 Q1074 160 1105 166 L1076 14 Q1050 8 1029 3 Q1008 -2 987.5 -5 Q967 -8 944 -10 Q921 -12 891 -12 Q796 -12 754 29.5 Q712 71 712 152 L714 193 L708 193 Q622 80 531 30 Q440 -20 330 -20 Z M738 501 L604 499 Q499 497 449 471 Q399 445 375.5 388.5 Q352 332 352 274 Q352 176 448 176 Q546 176 626 254.5 Q706 333 728 446 L738 501 Z M600 1212 L641 1419 L922 1419 L881 1212 L600 1212 Z M512 1690 L1124 1690 L1091 1522 L479 1522 L512 1690 Z " />
<glyph glyph-name="uni01E2" unicode="&#x1e2;" horiz-adv-x="1229" d="M586 387 L333 387 L156 0 L-105 0 L529 1349 L1333 1349 L1294 1147 L985 1147 L916 792 L1213 792 L1174 592 L877 592 L801 202 L1149 202 L1110 0 L511 0 L586 387 Z M735 1152 L677 1152 L592 952 L423 586 L625 586 L735 1152 Z M673 1645 L1285 1645 L1252 1477 L640 1477 L673 1645 Z " />
<glyph glyph-name="uni01E3" unicode="&#x1e3;" horiz-adv-x="1229" d="M688 484 L688 482 Q673 409 673 345 Q673 258 702.5 209 Q732 160 790 160 Q850 160 889.5 198 Q929 236 958 301 L1127 256 Q998 -20 759 -20 Q645 -20 589.5 34.5 Q534 89 522 212 Q451 96 359.5 38 Q268 -20 169 -20 Q68 -20 16 38 Q-36 96 -36 202 Q-36 248 -26 302 Q43 655 373 660 L521 664 Q541 764 541 799 Q541 920 455 920 Q362 920 318 773 L114 790 Q163 946 258 1024 Q353 1102 489 1102 Q667 1102 709 963 Q820 1102 982 1102 Q1234 1102 1234 781 Q1234 732 1228.5 677.5 Q1223 623 1197 484 L688 484 Z M176 244 Q176 162 234 162 Q312 162 383.5 247 Q455 332 478 445 L489 499 L386 496 Q307 494 265 462 Q223 430 199.5 364.5 Q176 299 176 244 Z M934 924 Q894 924 852 891.5 Q810 859 776 800.5 Q742 742 724 660 L1025 660 Q1033 722 1033 769 Q1033 844 1010.5 884 Q988 924 934 924 Z M487 1382 L1099 1382 L1066 1214 L454 1214 L487 1382 Z " />
<glyph glyph-name="uni01E4" unicode="&#x1e4;" horiz-adv-x="1229" d="M1110 449 L1201 449 L1172 301 L1081 301 L1059 185 Q777 -20 526 -20 Q310 -20 197 105.5 Q84 231 84 460 Q84 621 138.5 811.5 Q193 1002 283 1124.5 Q373 1247 502 1308.5 Q631 1370 799 1370 Q978 1370 1074 1278 Q1170 1186 1188 995 L904 941 Q888 1138 757 1138 Q639 1138 561 1057 Q483 976 434 799.5 Q385 623 385 483 Q385 216 587 216 Q642 216 705 237.5 Q768 259 809 290 L811 301 L535 301 L564 449 L840 449 L855 525 L581 525 L623 743 L1167 743 L1110 449 Z " />
<glyph glyph-name="uni01E5" unicode="&#x1e5;" horiz-adv-x="1229" d="M-68 0 L723 0 L767 211 L765 211 Q700 134 605 93 Q510 52 406 52 Q263 52 186.5 141.5 Q110 231 110 401 Q110 599 178.5 763 Q247 927 364.5 1013 Q482 1099 631 1099 Q736 1099 805.5 1050 Q875 1001 901 908 L906 908 Q914 951 928.5 1004.5 Q943 1058 953 1082 L1219 1082 L1165 832 L1002 0 L1087 0 L1069 -93 L973 -93 Q907 -261 768.5 -347.5 Q630 -434 427 -434 Q32 -434 29 -179 L317 -146 Q319 -200 355 -225.5 Q391 -251 470 -251 Q619 -251 691 -93 L-86 -93 L-68 0 Z M849 687 Q849 906 693 906 Q568 906 487.5 774.5 Q407 643 407 441 Q407 247 563 247 Q638 247 704.5 301.5 Q771 356 810 454 Q849 552 849 687 Z " />
<glyph glyph-name="uni01E6" unicode="&#x1e6;" horiz-adv-x="1229" d="M526 -20 Q310 -20 197 105.5 Q84 231 84 460 Q84 621 138.5 811.5 Q193 1002 283 1124.5 Q373 1247 502 1308.5 Q631 1370 799 1370 Q978 1370 1074 1278 Q1170 1186 1188 995 L904 941 Q888 1138 757 1138 Q640 1138 561.5 1057.5 Q483 977 434 800 Q385 623 385 483 Q385 216 587 216 Q642 216 705 237.5 Q768 259 809 290 L855 525 L581 525 L623 743 L1167 743 L1059 185 Q777 -20 526 -20 Z M906 1427 L677 1427 L467 1676 L473 1705 L633 1705 L818 1571 L822 1571 L1051 1705 L1210 1705 L1204 1676 L906 1427 Z " />
<glyph glyph-name="uni01E7" unicode="&#x1e7;" horiz-adv-x="1229" d="M427 -434 Q241 -434 139.5 -357.5 Q38 -281 36 -143 L324 -110 Q326 -175 365.5 -213 Q405 -251 470 -251 Q674 -251 731 37 L767 211 L765 211 Q696 106 600.5 59 Q505 12 398 12 Q257 12 181.5 101 Q106 190 106 359 Q106 488 145.5 635 Q185 782 254.5 886.5 Q324 991 419.5 1045 Q515 1099 631 1099 Q738 1099 807.5 1049 Q877 999 900 908 L905 908 Q938 1047 953 1082 L1219 1082 L1196 981 L1165 832 L1009 33 Q964 -196 814 -315 Q664 -434 427 -434 Z M849 692 Q849 791 808 848.5 Q767 906 693 906 Q606 906 541 836 Q476 766 439.5 636.5 Q403 507 403 407 Q403 207 555 207 Q642 207 709.5 276.5 Q777 346 813 468.5 Q849 591 849 692 Z M849 1183 L620 1183 L410 1432 L416 1461 L576 1461 L761 1327 L765 1327 L994 1461 L1153 1461 L1147 1432 L849 1183 Z " />
<glyph glyph-name="uni01E8" unicode="&#x1e8;" horiz-adv-x="1229" d="M776 0 L561 557 L407 415 L326 0 L31 0 L293 1349 L588 1349 L472 750 L1024 1349 L1367 1349 L795 770 L1124 0 L776 0 Z M906 1426 L677 1426 L467 1675 L473 1704 L633 1704 L818 1570 L822 1570 L1051 1704 L1210 1704 L1204 1675 L906 1426 Z " />
<glyph glyph-name="uni01E9" unicode="&#x1e9;" horiz-adv-x="1229" d="M759 0 L565 490 L428 406 L349 0 L68 0 L330 1349 L611 1349 L472 634 L945 1082 L1247 1082 L785 660 L1066 0 L759 0 Z M925 1427 L696 1427 L487 1676 L492 1705 L652 1705 L837 1571 L841 1571 L1070 1705 L1229 1705 L1224 1676 L925 1427 Z " />
<glyph glyph-name="uni01EA" unicode="&#x1ea;" horiz-adv-x="1229" d="M506 -20 Q293 -20 183.5 95.5 Q74 211 74 440 Q74 604 125.5 793.5 Q177 983 267 1110.5 Q357 1238 485.5 1304 Q614 1370 776 1370 Q988 1370 1098.5 1257 Q1209 1144 1209 917 Q1209 753 1157 562.5 Q1105 372 1013.5 242.5 Q922 113 794 46.5 Q666 -20 506 -20 Z M909 892 Q909 1138 731 1138 Q624 1138 546.5 1049 Q469 960 421.5 782 Q374 604 374 466 Q374 212 551 212 Q657 212 735 303.5 Q813 395 861 573.5 Q909 752 909 892 Z M569 -425 Q478 -425 422.5 -385.5 Q367 -346 367 -268 Q367 -184 425.5 -104 Q484 -24 577 21 L730 21 Q651 -25 604.5 -92.5 Q558 -160 558 -212 Q558 -238 574.5 -260 Q591 -282 636 -282 Q691 -282 753 -255 L727 -392 Q658 -425 569 -425 Z " />
<glyph glyph-name="uni01EB" unicode="&#x1eb;" horiz-adv-x="1229" d="M501 -20 Q293 -20 184.5 84 Q76 188 76 383 Q76 567 155.5 743 Q235 919 380 1010.5 Q525 1102 725 1102 Q1156 1102 1156 719 Q1156 643 1137 542 Q1085 273 920 126.5 Q755 -20 501 -20 Z M863 715 Q863 816 822 862.5 Q781 909 692 909 Q585 909 517 843.5 Q449 778 409 635 Q369 492 369 378 Q369 172 535 172 Q644 172 713 239 Q782 306 822.5 453.5 Q863 601 863 715 Z M569 -425 Q478 -425 422.5 -385.5 Q367 -346 367 -268 Q367 -184 425.5 -104 Q484 -24 577 21 L730 21 Q651 -25 604.5 -92.5 Q558 -160 558 -212 Q558 -238 574.5 -260 Q591 -282 636 -282 Q691 -282 753 -255 L727 -392 Q658 -425 569 -425 Z " />
<glyph glyph-name="uni01EC" unicode="&#x1ec;" horiz-adv-x="1229" d="M506 -20 Q293 -20 183.5 95.5 Q74 211 74 440 Q74 604 125.5 793.5 Q177 983 267 1110.5 Q357 1238 485.5 1304 Q614 1370 776 1370 Q988 1370 1098.5 1257 Q1209 1144 1209 917 Q1209 753 1157 562.5 Q1105 372 1013.5 242.5 Q922 113 794 46.5 Q666 -20 506 -20 Z M909 892 Q909 1138 731 1138 Q624 1138 546.5 1049 Q469 960 421.5 782 Q374 604 374 466 Q374 212 551 212 Q657 212 735 303.5 Q813 395 861 573.5 Q909 752 909 892 Z M569 -425 Q478 -425 422.5 -385.5 Q367 -346 367 -268 Q367 -184 425.5 -104 Q484 -24 577 21 L730 21 Q651 -25 604.5 -92.5 Q558 -160 558 -212 Q558 -238 574.5 -260 Q591 -282 636 -282 Q691 -282 753 -255 L727 -392 Q658 -425 569 -425 Z M503 1638 L1115 1638 L1083 1470 L471 1470 L503 1638 Z " />
<glyph glyph-name="uni01ED" unicode="&#x1ed;" horiz-adv-x="1229" d="M501 -20 Q293 -20 184.5 84 Q76 188 76 383 Q76 567 155.5 743 Q235 919 380 1010.5 Q525 1102 725 1102 Q1156 1102 1156 719 Q1156 643 1137 542 Q1085 273 920 126.5 Q755 -20 501 -20 Z M863 715 Q863 816 822 862.5 Q781 909 692 909 Q585 909 517 843.5 Q449 778 409 635 Q369 492 369 378 Q369 172 535 172 Q644 172 713 239 Q782 306 822.5 453.5 Q863 601 863 715 Z M569 -425 Q478 -425 422.5 -385.5 Q367 -346 367 -268 Q367 -184 425.5 -104 Q484 -24 577 21 L730 21 Q651 -25 604.5 -92.5 Q558 -160 558 -212 Q558 -238 574.5 -260 Q591 -282 636 -282 Q691 -282 753 -255 L727 -392 Q658 -425 569 -425 Z M471 1371 L1083 1371 L1051 1203 L439 1203 L471 1371 Z " />
<glyph glyph-name="uni01EE" unicode="&#x1ee;" horiz-adv-x="1229" d="M329 -414 Q107 -414 -24 -319 Q-155 -224 -191 -39 L87 62 Q115 -70 176 -126 Q237 -182 339 -182 Q720 -182 720 225 Q720 310 682 362.5 Q644 415 572.5 439.5 Q501 464 368 464 L240 464 L285 695 L784 1118 L94 1118 L139 1349 L1189 1349 L1149 1144 L584 677 Q788 668 902 556.5 Q1016 445 1016 252 Q1016 -65 835 -239.5 Q654 -414 329 -414 Z M809 1427 L580 1427 L370 1676 L376 1705 L536 1705 L721 1571 L725 1571 L954 1705 L1113 1705 L1107 1676 L809 1427 Z " />
<glyph glyph-name="uni01EF" unicode="&#x1ef;" horiz-adv-x="1229" d="M445 -232 Q607 -232 677.5 -147 Q748 -62 748 126 Q748 236 675.5 289.5 Q603 343 449 343 L347 343 L384 532 L790 879 L222 879 L262 1082 L1164 1082 L1126 887 L692 522 Q856 505 947.5 410.5 Q1039 316 1039 163 Q1039 -7 961 -141.5 Q883 -276 739.5 -350.5 Q596 -425 410 -425 Q210 -425 98 -332.5 Q-14 -240 -14 -73 L-13 -44 L266 -31 L265 -50 Q265 -134 314 -183 Q363 -232 445 -232 Z M865 1183 L636 1183 L426 1432 L432 1461 L592 1461 L777 1327 L781 1327 L1010 1461 L1169 1461 L1163 1432 L865 1183 Z " />
<glyph glyph-name="uni01F0" unicode="&#x1f0;" horiz-adv-x="1229" d="M217 -425 Q138 -425 59.5 -412 Q-19 -399 -62 -382 L-21 -172 Q109 -206 235 -206 Q346 -206 402 -152 Q458 -98 479 10 L650 892 L296 892 L333 1082 L969 1082 L756 -13 Q731 -142 655.5 -235 Q580 -328 466 -376.5 Q352 -425 217 -425 Z M962 1183 L733 1183 L523 1432 L529 1461 L689 1461 L874 1327 L878 1327 L1107 1461 L1266 1461 L1260 1432 L962 1183 Z " />
<glyph glyph-name="uni01F1" unicode="&#x1f1;" horiz-adv-x="1229" d="M688 932 Q688 669 619.5 451 Q551 233 437 116.5 Q323 0 181 0 L-71 0 L191 1349 L411 1349 Q688 1349 688 932 Z M467 922 Q467 1024 444.5 1072.5 Q422 1121 374 1121 L373 1121 L199 228 L223 228 Q256 228 298.5 260.5 Q341 293 378.5 372.5 Q416 452 441.5 586 Q467 720 467 922 Z M1120 0 L508 0 L548 204 L1058 1118 L765 1118 L810 1349 L1360 1349 L1322 1150 L810 231 L1165 231 L1120 0 Z " />
<glyph glyph-name="uni01F2" unicode="&#x1f2;" horiz-adv-x="1229" d="M690 942 Q690 682 624.5 459.5 Q559 237 446.5 118.5 Q334 0 191 0 L-71 0 L191 1349 L422 1349 Q690 1349 690 942 Z M466 923 Q466 1024 444 1072.5 Q422 1121 374 1121 L373 1121 L199 228 L222 228 Q270 228 317 279 Q364 330 397 419 Q430 508 448 635 Q466 762 466 923 Z M536 0 L574 194 L988 879 L730 879 L769 1082 L1274 1082 L1236 886 L826 205 L1130 205 L1090 0 L536 0 Z " />
<glyph glyph-name="uni01F3" unicode="&#x1f3;" horiz-adv-x="1229" d="M295 0 L302 54 Q237 -20 146 -20 Q69 -20 31 51.5 Q-7 123 -7 282 Q-7 514 45 705 Q97 896 184.5 998 Q272 1100 380 1100 Q461 1100 491 1034 L499 1087 L576 1484 L780 1484 L537 236 Q509 89 496 0 L295 0 Z M426 780 Q426 850 418.5 879.5 Q411 909 385 909 Q339 909 298 827 Q257 745 228.5 588 Q200 431 200 294 Q200 222 210 197 Q220 172 239 172 Q283 172 324.5 261 Q366 350 396 513 Q426 676 426 780 Z M548 0 L586 193 L1021 879 L740 879 L780 1082 L1282 1082 L1244 888 L810 205 L1137 205 L1097 0 L548 0 Z " />
<glyph glyph-name="uni01F4" unicode="&#x1f4;" horiz-adv-x="1229" d="M526 -20 Q310 -20 197 105.5 Q84 231 84 460 Q84 621 138.5 811.5 Q193 1002 283 1124.5 Q373 1247 502 1308.5 Q631 1370 799 1370 Q978 1370 1074 1278 Q1170 1186 1188 995 L904 941 Q888 1138 757 1138 Q640 1138 561.5 1057.5 Q483 977 434 800 Q385 623 385 483 Q385 216 587 216 Q642 216 705 237.5 Q768 259 809 290 L855 525 L581 525 L623 743 L1167 743 L1059 185 Q777 -20 526 -20 Z M624 1428 L630 1459 L929 1702 L1187 1702 L1179 1659 L794 1428 L624 1428 Z " />
<glyph glyph-name="uni01F5" unicode="&#x1f5;" horiz-adv-x="1229" d="M427 -434 Q241 -434 139.5 -357.5 Q38 -281 36 -143 L324 -110 Q326 -175 365.5 -213 Q405 -251 470 -251 Q674 -251 731 37 L767 211 L765 211 Q696 106 600.5 59 Q505 12 398 12 Q257 12 181.5 101 Q106 190 106 359 Q106 488 145.5 635 Q185 782 254.5 886.5 Q324 991 419.5 1045 Q515 1099 631 1099 Q738 1099 807.5 1049 Q877 999 900 908 L905 908 Q938 1047 953 1082 L1219 1082 L1196 981 L1165 832 L1009 33 Q964 -196 814 -315 Q664 -434 427 -434 Z M849 692 Q849 791 808 848.5 Q767 906 693 906 Q606 906 541 836 Q476 766 439.5 636.5 Q403 507 403 407 Q403 207 555 207 Q642 207 709.5 276.5 Q777 346 813 468.5 Q849 591 849 692 Z M609 1184 L615 1215 L914 1458 L1172 1458 L1164 1415 L779 1184 L609 1184 Z " />
<glyph glyph-name="uni01F6" unicode="&#x1f6;" horiz-adv-x="1229" d="M713 283 Q713 192 768 192 Q814 192 843.5 247 Q873 302 901 448 L1018 1052 L1260 1052 L1144 456 Q1108 273 1056 172.5 Q1004 72 925 26.5 Q846 -19 720 -19 Q587 -19 529.5 35.5 Q472 90 472 215 Q472 260 479 321.5 Q486 383 524 574 L337 574 L225 0 L-16 0 L246 1349 L487 1349 L384 818 L571 818 L674 1349 L909 1349 L734 448 Q713 338 713 283 Z " />
<glyph glyph-name="uni01F7" unicode="&#x1f7;" horiz-adv-x="1229" d="M1221 959 Q1221 795 1185 665.5 Q1149 536 1083.5 431.5 Q1018 327 923 241 Q828 155 703 77.5 Q578 0 297 -133 L252 -364 L-39 -364 L294 1349 L566 1349 L534 1183 Q616 1282 701 1326 Q786 1370 900 1370 Q1050 1370 1135.5 1256.5 Q1221 1143 1221 959 Z M921 931 Q921 1034 885 1086 Q849 1138 770 1138 Q667 1138 590.5 1060 Q514 982 488 852 L346 120 Q530 223 609 281 Q688 339 745.5 402.5 Q803 466 841.5 542 Q880 618 900.5 712.5 Q921 807 921 931 Z " />
<glyph glyph-name="uni01F8" unicode="&#x1f8;" horiz-adv-x="1229" d="M643 0 L455 1010 L443 872 Q425 708 415 656 L287 0 L30 0 L292 1349 L629 1349 L821 312 Q839 551 864 677 L994 1349 L1251 1349 L989 0 L643 0 Z M777 1429 L482 1660 L490 1703 L748 1703 L953 1460 L947 1429 L777 1429 Z " />
<glyph glyph-name="uni01F9" unicode="&#x1f9;" horiz-adv-x="1229" d="M719 0 L839 619 Q854 693 854 746 Q854 821 822 856.5 Q790 892 721 892 Q620 892 540.5 806.5 Q461 721 432 580 L319 0 L38 0 L201 840 Q234 1006 240 1082 L508 1082 Q508 1066 499 993.5 Q490 921 480 867 L484 867 Q637 1103 877 1103 Q1148 1103 1148 830 Q1148 765 1133 687 L999 0 L719 0 Z M726 1184 L431 1415 L439 1458 L697 1458 L902 1215 L896 1184 L726 1184 Z " />
<glyph glyph-name="Aringacute" unicode="&#x1fa;" horiz-adv-x="1229" d="M915 1091 L1124 0 L830 0 L793 263 L327 263 L190 0 L-105 0 L528 1090 Q500 1128 500 1180 Q500 1238 534.5 1295 Q569 1352 635 1384.5 Q701 1417 784 1417 Q881 1417 936.5 1373.5 Q992 1330 992 1255 Q992 1163 915 1091 Z M703 992 Q683 947 649.5 879 Q616 811 443 485 L764 485 L722 792 Q703 939 703 992 Z M689 1459 L695 1490 L968 1705 L1226 1705 L1218 1662 L839 1459 L689 1459 Z M850 1228 Q850 1258 825 1273.5 Q800 1289 760 1289 Q702 1289 671.5 1262 Q641 1235 641 1206 Q641 1179 665 1163 Q689 1147 732 1147 Q769 1147 797 1159 Q825 1171 837.5 1190.5 Q850 1210 850 1228 Z " />
<glyph glyph-name="aringacute" unicode="&#x1fb;" horiz-adv-x="1229" d="M330 -20 Q196 -20 123.5 42 Q51 104 51 222 Q51 261 60 306 Q128 647 545 652 L769 656 L779 711 Q789 759 789 795 Q789 920 672 920 Q601 920 559 884 Q517 848 492 767 L202 781 Q315 1102 719 1102 Q892 1102 981.5 1029.5 Q1071 957 1071 816 Q1071 770 1060 712 L984 320 Q973 265 973 235 Q973 198 988.5 179 Q1004 160 1042 160 Q1074 160 1105 166 L1076 14 Q1050 8 1029 3 Q1008 -2 987.5 -5 Q967 -8 944 -10 Q921 -12 891 -12 Q796 -12 754 29.5 Q712 71 712 152 L714 193 L708 193 Q622 80 531 30 Q440 -20 330 -20 Z M738 501 L604 499 Q499 497 449 471 Q399 445 375.5 388.5 Q352 332 352 274 Q352 176 448 176 Q546 176 626 254.5 Q706 333 728 446 L738 501 Z M694 1001 Q598 1001 542.5 1044.5 Q487 1088 487 1163 Q487 1222 522 1279 Q557 1336 623.5 1368 Q690 1400 772 1400 Q867 1400 923 1358 Q979 1316 979 1239 Q979 1176 942 1119.5 Q905 1063 840 1032 Q775 1001 694 1001 Z M837 1211 Q837 1241 812 1256.5 Q787 1272 747 1272 Q689 1272 658.5 1245 Q628 1218 628 1189 Q628 1162 652 1146 Q676 1130 719 1130 Q772 1130 804.5 1154 Q837 1178 837 1211 Z M656 1431 L662 1462 L961 1705 L1219 1705 L1211 1662 L826 1431 L656 1431 Z " />
<glyph glyph-name="AEacute" unicode="&#x1fc;" horiz-adv-x="1229" d="M586 387 L333 387 L156 0 L-105 0 L529 1349 L1333 1349 L1294 1147 L985 1147 L916 792 L1213 792 L1174 592 L877 592 L801 202 L1149 202 L1110 0 L511 0 L586 387 Z M735 1152 L677 1152 L592 952 L423 586 L625 586 L735 1152 Z M785 1429 L791 1460 L1090 1703 L1348 1703 L1340 1660 L955 1429 L785 1429 Z " />
<glyph glyph-name="aeacute" unicode="&#x1fd;" horiz-adv-x="1229" d="M688 484 L688 482 Q673 409 673 345 Q673 258 702.5 209 Q732 160 790 160 Q850 160 889.5 198 Q929 236 958 301 L1127 256 Q998 -20 759 -20 Q645 -20 589.5 34.5 Q534 89 522 212 Q451 96 359.5 38 Q268 -20 169 -20 Q68 -20 16 38 Q-36 96 -36 202 Q-36 248 -26 302 Q43 655 373 660 L521 664 Q541 764 541 799 Q541 920 455 920 Q362 920 318 773 L114 790 Q163 946 258 1024 Q353 1102 489 1102 Q667 1102 709 963 Q820 1102 982 1102 Q1234 1102 1234 781 Q1234 732 1228.5 677.5 Q1223 623 1197 484 L688 484 Z M176 244 Q176 162 234 162 Q312 162 383.5 247 Q455 332 478 445 L489 499 L386 496 Q307 494 265 462 Q223 430 199.5 364.5 Q176 299 176 244 Z M934 924 Q894 924 852 891.5 Q810 859 776 800.5 Q742 742 724 660 L1025 660 Q1033 722 1033 769 Q1033 844 1010.5 884 Q988 924 934 924 Z M602 1184 L608 1215 L907 1458 L1165 1458 L1157 1415 L772 1184 L602 1184 Z " />
<glyph glyph-name="Oslashacute" unicode="&#x1fe;" horiz-adv-x="1229" d="M506 -20 Q291 -20 180 99 L47 -43 L-53 32 L112 208 Q73 304 73 439 Q73 598 124 789 Q175 980 265.5 1108.5 Q356 1237 485 1303.5 Q614 1370 776 1370 Q989 1370 1099 1255 L1233 1397 L1332 1322 L1168 1149 Q1209 1049 1209 915 Q1209 753 1157 562.5 Q1105 372 1014 243 Q923 114 795 47 Q667 -20 506 -20 Z M908 872 L394 326 Q435 212 551 212 Q655 212 731.5 299.5 Q808 387 856.5 558.5 Q905 730 908 872 Z M374 486 L887 1031 Q848 1138 731 1138 Q626 1138 549.5 1052.5 Q473 967 425 795.5 Q377 624 374 486 Z M640 1429 L646 1460 L945 1703 L1203 1703 L1195 1660 L810 1429 L640 1429 Z " />
<glyph glyph-name="oslashacute" unicode="&#x1ff;" horiz-adv-x="1229" d="M501 -20 Q301 -20 192 77 L88 -20 L7 58 L123 165 Q76 255 76 382 Q76 567 155.5 743.5 Q235 920 381 1011 Q527 1102 725 1102 Q931 1102 1037 1015 L1134 1104 L1216 1026 L1110 928 Q1156 844 1156 718 Q1156 580 1110 434 Q1064 288 979.5 187.5 Q895 87 775 33.5 Q655 -20 501 -20 Z M863 698 L388 259 Q426 172 535 172 Q639 172 706 232.5 Q773 293 813.5 423.5 Q854 554 863 698 Z M369 394 L841 832 Q803 909 692 909 Q587 909 520 846.5 Q453 784 413 648.5 Q373 513 369 394 Z M592 1184 L598 1215 L897 1458 L1155 1458 L1147 1415 L762 1184 L592 1184 Z " />
<glyph glyph-name="uni0200" unicode="&#x200;" horiz-adv-x="1229" d="M1124 0 L830 0 L802 330 L346 330 L190 0 L-105 0 L600 1349 L944 1349 L1124 0 Z M737 1167 Q721 1126 690.5 1058 Q660 990 451 552 L783 552 L749 932 L738 1132 L737 1167 Z M650 1682 L658 1725 L893 1725 L1067 1459 L1060 1425 L918 1425 L650 1682 Z M244 1682 L252 1725 L487 1725 L661 1459 L654 1425 L512 1425 L244 1682 Z " />
<glyph glyph-name="uni0201" unicode="&#x201;" horiz-adv-x="1229" d="M330 -20 Q196 -20 123.5 42 Q51 104 51 222 Q51 261 60 306 Q128 647 545 652 L769 656 L779 711 Q789 759 789 795 Q789 920 672 920 Q601 920 559 884 Q517 848 492 767 L202 781 Q315 1102 719 1102 Q892 1102 981.5 1029.5 Q1071 957 1071 816 Q1071 770 1060 712 L984 320 Q973 265 973 235 Q973 198 988.5 179 Q1004 160 1042 160 Q1074 160 1105 166 L1076 14 Q1050 8 1029 3 Q1008 -2 987.5 -5 Q967 -8 944 -10 Q921 -12 891 -12 Q796 -12 754 29.5 Q712 71 712 152 L714 193 L708 193 Q622 80 531 30 Q440 -20 330 -20 Z M738 501 L604 499 Q499 497 449 471 Q399 445 375.5 388.5 Q352 332 352 274 Q352 176 448 176 Q546 176 626 254.5 Q706 333 728 446 L738 501 Z M632 1441 L640 1484 L875 1484 L1049 1218 L1042 1184 L900 1184 L632 1441 Z M226 1441 L234 1484 L469 1484 L643 1218 L636 1184 L494 1184 L226 1441 Z " />
<glyph glyph-name="uni0202" unicode="&#x202;" horiz-adv-x="1229" d="M1124 0 L830 0 L802 330 L346 330 L190 0 L-105 0 L600 1349 L944 1349 L1124 0 Z M737 1167 Q721 1126 690.5 1058 Q660 990 451 552 L783 552 L749 932 L738 1132 L737 1167 Z M799 1558 Q731 1558 672.5 1517.5 Q614 1477 586 1402 L429 1402 Q474 1545 579 1625 Q684 1705 828 1705 Q962 1705 1036 1635 Q1110 1565 1110 1431 L1109 1402 L952 1402 L952 1405 Q952 1478 910 1518 Q868 1558 799 1558 Z " />
<glyph glyph-name="uni0203" unicode="&#x203;" horiz-adv-x="1229" d="M330 -20 Q196 -20 123.5 42 Q51 104 51 222 Q51 261 60 306 Q128 647 545 652 L769 656 L779 711 Q789 759 789 795 Q789 920 672 920 Q601 920 559 884 Q517 848 492 767 L202 781 Q315 1102 719 1102 Q892 1102 981.5 1029.5 Q1071 957 1071 816 Q1071 770 1060 712 L984 320 Q973 265 973 235 Q973 198 988.5 179 Q1004 160 1042 160 Q1074 160 1105 166 L1076 14 Q1050 8 1029 3 Q1008 -2 987.5 -5 Q967 -8 944 -10 Q921 -12 891 -12 Q796 -12 754 29.5 Q712 71 712 152 L714 193 L708 193 Q622 80 531 30 Q440 -20 330 -20 Z M738 501 L604 499 Q499 497 449 471 Q399 445 375.5 388.5 Q352 332 352 274 Q352 176 448 176 Q546 176 626 254.5 Q706 333 728 446 L738 501 Z M750 1344 Q682 1344 623.5 1303.5 Q565 1263 537 1188 L380 1188 Q425 1331 530 1411 Q635 1491 779 1491 Q913 1491 987 1421 Q1061 1351 1061 1217 L1060 1188 L903 1188 L903 1191 Q903 1264 861 1304 Q819 1344 750 1344 Z " />
</font>
</svg>
