<?xml version="1.0" encoding="UTF-8"?>
<svg xmlns="http://www.w3.org/2000/svg" xmlns:xlink="http://www.w3.org/1999/xlink" version="1.2" >
<font id="Cousine Italic for Powerline">
<font-face  font-family="Cousine for Powerline" units-per-em="2048" ascent="1255" descent="-386" font-style="italic" font-weight="400" font-stretch="normal" slope="-12" cap-height="1349" x-height="1082" underline-position="-561" underline-thickness="84" />
<missing-glyph  horiz-adv-x="1229" d="M147 0 L147 1349 L1082 1349 L1082 0 L147 0 Z M963 1230 L266 1230 L266 119 L963 119 L963 1230 Z " />
<glyph glyph-name="&amp;#x20;" unicode="&#x20;" horiz-adv-x="1229" d="" />
<glyph glyph-name="&amp;#xa0;" unicode="&#xa0;" horiz-adv-x="1229" d="" />
<glyph glyph-name="exclam" unicode="&#x21;" horiz-adv-x="1229" d="M661 397 L513 397 L674 1348 L870 1348 L661 397 Z M410 0 L449 201 L643 201 L604 0 L410 0 Z " />
<glyph glyph-name="quotedbl" unicode="&#x22;" horiz-adv-x="1229" d="M967 845 L825 845 L909 1484 L1133 1484 L967 845 Z M518 845 L377 845 L460 1484 L684 1484 L518 845 Z " />
<glyph glyph-name="numbersign" unicode="&#x23;" horiz-adv-x="1229" d="M987 833 L858 516 L1118 516 L1097 408 L814 408 L647 0 L537 0 L702 408 L339 408 L176 0 L66 0 L229 408 L28 408 L49 516 L274 516 L403 833 L162 833 L183 941 L446 941 L614 1349 L724 1349 L557 941 L920 941 L1087 1349 L1197 1349 L1030 941 L1241 941 L1220 833 L987 833 Z M516 833 L385 516 L747 516 L876 833 L516 833 Z " />
<glyph glyph-name="dollar" unicode="&#x24;" horiz-adv-x="1229" d="M554 -141 L426 -141 L457 20 Q37 34 35 379 L212 416 Q212 172 484 158 L579 647 Q531 658 452 683.5 Q373 709 324 742.5 Q275 776 245.5 825 Q216 874 216 946 Q216 1027 247.5 1101 Q279 1175 345 1230 Q411 1285 505.5 1314 Q600 1343 715 1346 L740 1476 L868 1476 L843 1346 Q1028 1339 1115 1266 Q1202 1193 1213 1025 L1033 992 Q1031 1097 979.5 1151 Q928 1205 817 1213 L734 787 Q913 741 982.5 702.5 Q1052 664 1090 607 Q1128 550 1128 465 Q1128 345 1065 243 Q1002 141 878 84 Q754 27 585 20 L554 -141 Z M390 974 Q390 914 433.5 875.5 Q477 837 609 802 L689 1215 Q433 1204 395 1018 L390 974 Z M952 432 Q952 481 928.5 515 Q905 549 861 573 Q817 597 703 627 L611 156 Q777 166 864.5 240.5 Q952 315 952 432 Z " />
<glyph glyph-name="percent" unicode="&#x25;" horiz-adv-x="1229" d="M116 0 L-29 0 L1166 1353 L1313 1353 L116 0 Z M451 1361 Q680 1361 680 1141 Q680 1062 656.5 972.5 Q633 883 585 817 Q537 751 470.5 717.5 Q404 684 315 684 Q82 684 82 912 Q82 988 106.5 1080.5 Q131 1173 178.5 1237 Q226 1301 292.5 1331 Q359 1361 451 1361 Z M534 1134 Q534 1195 509 1224 Q484 1253 429 1253 Q360 1253 319 1211.5 Q278 1170 253.5 1078.5 Q229 987 229 922 Q229 853 257.5 825 Q286 797 339 797 Q405 797 446.5 844 Q488 891 511 979 Q534 1067 534 1134 Z M971 665 Q1201 665 1201 444 Q1201 330 1158 218 Q1115 106 1033.5 47 Q952 -12 836 -12 Q603 -12 603 216 Q603 292 627.5 383.5 Q652 475 698.5 539 Q745 603 811.5 634 Q878 665 971 665 Z M1054 437 Q1054 505 1026.5 531 Q999 557 949 557 Q880 557 839.5 515 Q799 473 774.5 382.5 Q750 292 750 226 Q750 157 778.5 129 Q807 101 860 101 Q925 101 967 147.5 Q1009 194 1031.5 281 Q1054 368 1054 437 Z " />
<glyph glyph-name="ampersand" unicode="&#x26;" horiz-adv-x="1229" d="M965 -12 Q894 -12 830 22 Q766 56 726 117 Q545 -20 352 -20 Q179 -20 89 55.5 Q-1 131 -1 267 Q-1 424 93.5 555 Q188 686 381 777 Q352 862 352 962 Q352 1146 466.5 1251.5 Q581 1357 770 1357 Q898 1357 971.5 1300 Q1045 1243 1045 1145 Q1045 1062 1000.5 992.5 Q956 923 862 862.5 Q768 802 560 722 Q650 486 762 333 Q884 512 966 739 L1102 696 Q1014 461 850 234 Q883 180 926.5 154.5 Q970 129 1010 129 Q1067 129 1108 145 L1082 10 Q1030 -12 965 -12 Z M889 1117 Q889 1172 850.5 1204 Q812 1236 743 1236 Q637 1236 569 1170.5 Q501 1105 501 981 Q501 907 526 832 Q695 898 745.5 926 Q796 954 828 984.5 Q860 1015 874.5 1048 Q889 1081 889 1117 Z M643 217 Q504 419 413 658 Q297 601 233.5 505.5 Q170 410 170 302 Q170 212 225 161.5 Q280 111 386 111 Q452 111 522 140.5 Q592 170 643 217 Z " />
<glyph glyph-name="quotesingle" unicode="&#x27;" horiz-adv-x="1229" d="M743 845 L602 845 L685 1484 L909 1484 L743 845 Z " />
<glyph glyph-name="parenleft" unicode="&#x28;" horiz-adv-x="1229" d="M497 240 Q497 71 545 -87 Q593 -245 703 -425 L513 -425 Q408 -258 358.5 -97 Q309 64 309 234 Q309 433 368.5 657 Q428 881 547.5 1074.5 Q667 1268 884 1484 L1074 1484 Q863 1275 742 1082.5 Q621 890 559 666 Q497 442 497 240 Z " />
<glyph glyph-name="parenright" unicode="&#x29;" horiz-adv-x="1229" d="M340 -425 L148 -425 Q362 -213 484 -19.5 Q606 174 667 397 Q728 620 728 816 Q728 990 675.5 1154 Q623 1318 519 1484 L711 1484 Q818 1314 866.5 1156 Q915 998 915 832 Q915 636 854.5 406.5 Q794 177 675 -16.5 Q556 -210 340 -425 Z " />
<glyph glyph-name="asterisk" unicode="&#x2a;" horiz-adv-x="1229" d="M797 1188 L1081 1291 L1100 1159 L804 1086 L941 836 L808 764 L708 1022 L502 766 L397 838 L634 1086 L368 1159 L439 1293 L686 1186 L731 1483 L867 1483 L797 1188 Z " />
<glyph glyph-name="plus" unicode="&#x2b;" horiz-adv-x="1229" d="M687 608 L687 180 L540 180 L540 608 L116 608 L116 754 L540 754 L540 1182 L687 1182 L687 754 L1111 754 L1111 608 L687 608 Z " />
<glyph glyph-name="comma" unicode="&#x2c;" horiz-adv-x="1229" d="M83 -363 L381 299 L646 299 L206 -363 L83 -363 Z " />
<glyph glyph-name="&amp;#x2d;" unicode="&#x2d;" horiz-adv-x="1229" d="M319 464 L350 624 L910 624 L879 464 L319 464 Z " />
<glyph glyph-name="&amp;#xad;" unicode="&#xad;" horiz-adv-x="1229" d="M319 464 L350 624 L910 624 L879 464 L319 464 Z " />
<glyph glyph-name="period" unicode="&#x2e;" horiz-adv-x="1229" d="M391 0 L449 299 L684 299 L626 0 L391 0 Z " />
<glyph glyph-name="slash" unicode="&#x2f;" horiz-adv-x="1229" d="M5 -20 L1118 1484 L1296 1484 L187 -20 L5 -20 Z " />
<glyph glyph-name="zero" unicode="0" horiz-adv-x="1229" d="M502 -20 Q311 -20 216 89.5 Q121 199 121 411 Q121 564 169.5 765 Q218 966 301.5 1102.5 Q385 1239 500.5 1304.5 Q616 1370 778 1370 Q971 1370 1065 1265 Q1159 1160 1159 949 Q1159 792 1112 595 Q1065 398 978 258.5 Q891 119 772.5 49.5 Q654 -20 502 -20 Z M978 947 Q978 1091 923 1157.5 Q868 1224 750 1224 Q601 1224 508.5 1122.5 Q416 1021 359 797 Q302 573 302 415 Q302 267 359 197 Q416 127 533 127 Q638 127 715.5 184 Q793 241 848.5 356.5 Q904 472 941 651.5 Q978 831 978 947 Z M498 555 L547 804 L782 804 L733 555 L498 555 Z " />
<glyph glyph-name="one" unicode="1" horiz-adv-x="1229" d="M52 0 L80 145 L519 145 L718 1166 Q665 1087 515.5 1029.5 Q366 972 232 972 L261 1120 Q411 1120 554.5 1185 Q698 1250 768 1349 L934 1349 L700 145 L1053 145 L1025 0 L52 0 Z " />
<glyph glyph-name="two" unicode="2" horiz-adv-x="1229" d="M39 0 L62 117 Q120 207 218 300.5 Q316 394 444 486 Q572 578 587 589 Q754 708 828.5 778.5 Q903 849 937 913.5 Q971 978 971 1047 Q971 1130 913 1176 Q855 1222 744 1222 Q635 1222 550.5 1162.5 Q466 1103 429 984 L249 1001 Q303 1173 441 1271.5 Q579 1370 772 1370 Q956 1370 1058 1297 Q1160 1224 1160 1084 Q1160 1012 1136 944 Q1112 876 1057 804 Q1002 732 916 658.5 Q830 585 619 441 Q487 350 405.5 279.5 Q324 209 284 146 L1007 146 L979 0 L39 0 Z " />
<glyph glyph-name="three" unicode="3" horiz-adv-x="1229" d="M512 -20 Q306 -20 199 68 Q92 156 92 325 Q92 353 93 362 L283 379 L282 358 Q282 129 541 129 Q644 129 721 165.5 Q798 202 841 272.5 Q884 343 884 417 Q884 506 801.5 557.5 Q719 609 581 609 L479 609 L510 765 L608 765 Q704 765 787.5 799.5 Q871 834 920 896.5 Q969 959 969 1051 Q969 1132 913.5 1177 Q858 1222 744 1222 Q625 1222 539.5 1161 Q454 1100 420 989 L242 1003 Q296 1175 438 1272.5 Q580 1370 774 1370 Q962 1370 1061 1297 Q1160 1224 1160 1091 Q1160 944 1059.5 834.5 Q959 725 795 693 L794 689 Q923 674 997 602.5 Q1071 531 1071 426 Q1071 347 1030.5 258 Q990 169 917 107.5 Q844 46 741 13 Q638 -20 512 -20 Z " />
<glyph glyph-name="four" unicode="4" horiz-adv-x="1229" d="M894 319 L832 0 L652 0 L714 319 L60 319 L87 459 L895 1349 L1094 1349 L922 461 L1110 461 L1082 319 L894 319 Z M876 1154 L242 461 L742 461 L876 1154 Z " />
<glyph glyph-name="five" unicode="5" horiz-adv-x="1229" d="M490 -20 Q292 -20 188 67 Q84 154 84 315 L270 336 Q286 127 523 127 Q629 127 715 176.5 Q801 226 850 318.5 Q899 411 899 498 Q899 601 830.5 661.5 Q762 722 642 722 Q569 722 502.5 699.5 Q436 677 361 621 L185 621 L373 1349 L1174 1349 L1146 1204 L511 1204 L399 779 Q535 869 708 869 Q884 869 986.5 778.5 Q1089 688 1089 535 Q1089 394 1013 259.5 Q937 125 799.5 52.5 Q662 -20 490 -20 Z " />
<glyph glyph-name="six" unicode="6" horiz-adv-x="1229" d="M532 -20 Q343 -20 245 91 Q147 202 147 413 Q147 571 199.5 764 Q252 957 340.5 1092.5 Q429 1228 550.5 1299 Q672 1370 816 1370 Q1134 1370 1163 1083 L984 1052 Q974 1143 920.5 1183.5 Q867 1224 786 1224 Q633 1224 520.5 1083.5 Q408 943 360 695 Q427 786 525 833.5 Q623 881 738 881 Q903 881 996 792.5 Q1089 704 1089 551 Q1089 448 1048 338 Q1007 228 933 148 Q859 68 757.5 24 Q656 -20 532 -20 Z M901 520 Q901 626 840 684 Q779 742 668 742 Q580 742 498.5 697 Q417 652 372 576.5 Q327 501 327 391 Q327 269 389 197 Q451 125 554 125 Q652 125 731 176.5 Q810 228 855.5 322 Q901 416 901 520 Z " />
<glyph glyph-name="seven" unicode="7" horiz-adv-x="1229" d="M491 0 L303 0 Q355 263 535.5 567 Q716 871 1024 1204 L287 1204 L315 1349 L1226 1349 L1199 1210 Q884 854 713 558 Q542 262 491 0 Z " />
<glyph glyph-name="eight" unicode="8" horiz-adv-x="1229" d="M505 -20 Q309 -20 200.5 60.5 Q92 141 92 291 Q92 396 139 485 Q186 574 268 633 Q350 692 446 707 L447 711 Q357 733 305.5 799.5 Q254 866 254 961 Q254 1070 321 1165.5 Q388 1261 506.5 1315.5 Q625 1370 771 1370 Q954 1370 1056.5 1293.5 Q1159 1217 1159 1086 Q1159 955 1067.5 847 Q976 739 843 713 L842 709 Q948 692 1009 624 Q1070 556 1070 453 Q1070 366 1030 273.5 Q990 181 917 115.5 Q844 50 740.5 15 Q637 -20 505 -20 Z M970 1068 Q970 1236 745 1236 Q649 1236 578 1200.5 Q507 1165 472 1098.5 Q437 1032 437 958 Q437 871 493 825 Q549 779 658 779 Q766 779 839 821 Q912 863 941 936.5 Q970 1010 970 1068 Z M885 451 Q885 546 819 595 Q753 644 630 644 Q525 644 444.5 601 Q364 558 323 481.5 Q282 405 282 316 Q282 115 533 115 Q650 115 728 159 Q806 203 845.5 289 Q885 375 885 451 Z " />
<glyph glyph-name="nine" unicode="9" horiz-adv-x="1229" d="M468 -20 Q302 -20 216.5 50 Q131 120 118 274 L296 301 Q315 125 499 125 Q650 125 764.5 262 Q879 399 930 650 Q873 561 766 506 Q659 451 542 451 Q384 451 292.5 543 Q201 635 201 796 Q201 904 241.5 1013.5 Q282 1123 358 1203 Q434 1283 540 1326.5 Q646 1370 771 1370 Q1146 1370 1146 955 Q1146 795 1096.5 601.5 Q1047 408 955.5 266 Q864 124 740.5 52 Q617 -20 468 -20 Z M964 960 Q964 1082 903.5 1153 Q843 1224 737 1224 Q638 1224 558.5 1172 Q479 1120 433 1023.5 Q387 927 387 826 Q387 715 447 654 Q507 593 612 593 Q702 593 787 640.5 Q872 688 918 765 Q964 842 964 960 Z " />
<glyph glyph-name="colon" unicode="&#x3a;" horiz-adv-x="1229" d="M391 0 L449 299 L684 299 L626 0 L391 0 Z M543 783 L601 1082 L836 1082 L778 783 L543 783 Z " />
<glyph glyph-name="&amp;#x3b;" unicode="&#x3b;" horiz-adv-x="1229" d="M543 783 L601 1082 L836 1082 L778 783 L543 783 Z M176 -363 L474 299 L739 299 L299 -363 L176 -363 Z " />
<glyph glyph-name="&amp;#x37e;" unicode="&#x37e;" horiz-adv-x="1229" d="M543 783 L601 1082 L836 1082 L778 783 L543 783 Z M176 -363 L474 299 L739 299 L299 -363 L176 -363 Z " />
<glyph glyph-name="less" unicode="&#x3c;" horiz-adv-x="1229" d="M116 571 L116 776 L1111 1194 L1111 1040 L253 674 L1111 307 L1111 154 L116 571 Z " />
<glyph glyph-name="equal" unicode="&#x3d;" horiz-adv-x="1229" d="M116 856 L116 1004 L1111 1004 L1111 856 L116 856 Z M116 344 L116 492 L1111 492 L1111 344 L116 344 Z " />
<glyph glyph-name="greater" unicode="&#x3e;" horiz-adv-x="1229" d="M116 154 L116 307 L974 674 L116 1040 L116 1194 L1111 776 L1111 571 L116 154 Z " />
<glyph glyph-name="question" unicode="&#x3f;" horiz-adv-x="1229" d="M595 357 L420 357 Q444 462 514 544.5 Q584 627 708 702 Q857 792 920.5 868 Q984 944 984 1042 Q984 1129 916.5 1174.5 Q849 1220 728 1220 Q594 1220 495 1147.5 Q396 1075 357 948 L176 960 Q238 1154 391 1262 Q544 1370 755 1370 Q952 1370 1061.5 1293.5 Q1171 1217 1171 1078 Q1171 1007 1144 931.5 Q1117 856 1051 785.5 Q985 715 876 651 Q738 569 675.5 504 Q613 439 595 357 Z M343 0 L382 201 L577 201 L538 0 L343 0 Z " />
<glyph glyph-name="at" unicode="&#x40;" horiz-adv-x="1229" d="M799 104 Q682 104 682 212 Q682 238 687 261 L696 299 L690 299 Q641 212 567.5 158 Q494 104 417 104 Q336 104 293.5 163.5 Q251 223 251 336 Q251 503 327.5 691.5 Q404 880 519 990.5 Q634 1101 753 1101 Q898 1101 903 928 L908 928 L970 1079 L1086 1079 L888 572 Q827 411 808.5 350 Q790 289 790 254 Q790 206 826 206 Q895 206 963.5 321 Q1032 436 1081 627 Q1130 818 1130 960 Q1130 1152 1051.5 1260 Q973 1368 831 1368 Q699 1368 578 1284 Q457 1200 359 1041 Q261 882 200.5 665.5 Q140 449 140 273 Q140 66 225 -49.5 Q310 -165 467 -165 Q558 -165 650 -131.5 Q742 -98 867 -7 L921 -94 Q781 -196 665.5 -239.5 Q550 -283 434 -283 Q231 -283 121 -141 Q11 1 11 249 Q11 444 80.5 687 Q150 930 266 1109.5 Q382 1289 533.5 1386.5 Q685 1484 855 1484 Q1047 1484 1151 1352.5 Q1255 1221 1255 987 Q1255 802 1188 578.5 Q1121 355 1017.5 229.5 Q914 104 799 104 Z M831 869 Q831 934 805.5 966.5 Q780 999 735 999 Q659 999 580.5 903.5 Q502 808 443.5 640.5 Q385 473 385 339 Q385 210 462 210 Q514 210 570 259.5 Q626 309 677.5 400.5 Q729 492 780 640.5 Q831 789 831 869 Z " />
<glyph glyph-name="A" unicode="A" horiz-adv-x="1229" d="M929 0 L865 382 L302 382 L91 0 L-105 0 L667 1349 L884 1349 L1123 0 L929 0 Z M745 1205 Q699 1114 662.5 1044 Q626 974 382 531 L845 531 L769 1031 L745 1205 Z " />
<glyph glyph-name="B" unicode="B" horiz-adv-x="1229" d="M529 0 L57 0 L319 1349 L731 1349 Q1171 1349 1171 1091 Q1171 1004 1130 922 Q1089 840 1012.5 785.5 Q936 731 835 711 Q981 694 1054.5 623.5 Q1128 553 1128 446 Q1128 364 1089.5 279 Q1051 194 971 129.5 Q891 65 777 32.5 Q663 0 529 0 Z M972 1044 Q972 1125 904.5 1160.5 Q837 1196 703 1196 L480 1196 L400 780 L625 780 Q923 780 967 998 L972 1044 Z M936 446 Q936 631 623 631 L371 631 L278 153 L544 153 Q719 153 813 213.5 Q907 274 931 397 L936 446 Z " />
<glyph glyph-name="C" unicode="C" horiz-adv-x="1229" d="M316 452 Q316 135 582 135 Q685 135 782 206.5 Q879 278 959 417 L1105 352 Q882 -20 550 -20 Q338 -20 227 98.5 Q116 217 116 447 Q116 612 168 802 Q220 992 308.5 1117 Q397 1242 523 1306 Q649 1370 810 1370 Q1145 1370 1211 1035 L1031 970 Q1013 1089 947 1151.5 Q881 1214 781 1214 Q673 1214 591.5 1163 Q510 1112 451.5 1009 Q393 906 354.5 742.5 Q316 579 316 452 Z " />
<glyph glyph-name="D" unicode="D" horiz-adv-x="1229" d="M427 0 L57 0 L319 1349 L630 1349 Q1175 1349 1175 890 Q1175 732 1121 555 Q1067 378 969 253.5 Q871 129 734 64.5 Q597 0 427 0 Z M981 865 Q981 1038 886.5 1115.5 Q792 1193 601 1193 L480 1193 L278 156 L440 156 Q568 156 665.5 204.5 Q763 253 832 351 Q901 449 941 597 Q981 745 981 865 Z " />
<glyph glyph-name="E" unicode="E" horiz-adv-x="1229" d="M57 0 L319 1349 L1238 1349 L1208 1193 L480 1193 L398 771 L1066 771 L1036 617 L368 617 L278 156 L1047 156 L1017 0 L57 0 Z " />
<glyph glyph-name="F" unicode="F" horiz-adv-x="1229" d="M512 1193 L416 699 L1092 699 L1061 541 L385 541 L280 0 L89 0 L351 1349 L1242 1349 L1212 1193 L512 1193 Z " />
<glyph glyph-name="G" unicode="G" horiz-adv-x="1229" d="M530 -20 Q331 -20 223.5 100.5 Q116 221 116 451 Q116 612 169 804.5 Q222 997 309 1121 Q396 1245 519 1307.5 Q642 1370 803 1370 Q1147 1370 1200 1039 L1018 983 Q982 1214 775 1214 Q668 1214 588.5 1164.5 Q509 1115 452 1015 Q395 915 355.5 748.5 Q316 582 316 455 Q316 135 576 135 Q644 135 720.5 156 Q797 177 851 209 L916 545 L623 545 L654 705 L1133 705 L1022 133 Q767 -20 530 -20 Z " />
<glyph glyph-name="H" unicode="H" horiz-adv-x="1229" d="M770 0 L891 623 L369 623 L248 0 L57 0 L319 1349 L510 1349 L400 783 L922 783 L1032 1349 L1223 1349 L961 0 L770 0 Z " />
<glyph glyph-name="I" unicode="I" horiz-adv-x="1229" d="M359 1349 L1182 1349 L1152 1193 L836 1193 L634 156 L950 156 L920 0 L97 0 L127 156 L443 156 L645 1193 L329 1193 L359 1349 Z " />
<glyph glyph-name="J" unicode="J" horiz-adv-x="1229" d="M477 -20 Q308 -20 223.5 67 Q139 154 139 341 L139 350 L332 381 L332 362 Q332 250 378 192.5 Q424 135 508 135 Q717 135 772 416 L923 1193 L612 1193 L642 1349 L1143 1349 L963 420 Q924 215 796.5 97.5 Q669 -20 477 -20 Z " />
<glyph glyph-name="K" unicode="K" horiz-adv-x="1229" d="M898 0 L539 641 L339 469 L248 0 L57 0 L319 1349 L510 1349 L379 676 L1082 1349 L1307 1349 L692 777 L1122 0 L898 0 Z " />
<glyph glyph-name="L" unicode="L" horiz-adv-x="1229" d="M132 0 L394 1349 L585 1349 L353 156 L1025 156 L995 0 L132 0 Z " />
<glyph glyph-name="M" unicode="M" horiz-adv-x="1229" d="M832 0 L1001 868 Q1026 994 1065 1169 L1010 1061 L914 878 L665 440 L528 440 L447 878 Q432 951 407 1169 L353 868 L184 0 L24 0 L286 1349 L523 1349 L613 860 Q625 803 636 629 L679 719 L751 859 L1031 1349 L1256 1349 L994 0 L832 0 Z " />
<glyph glyph-name="N" unicode="N" horiz-adv-x="1229" d="M731 0 L431 1130 Q416 969 397 876 L227 0 L57 0 L319 1349 L541 1349 L848 211 Q860 366 883 485 L1051 1349 L1223 1349 L961 0 L731 0 Z " />
<glyph glyph-name="O" unicode="O" horiz-adv-x="1229" d="M504 -20 Q302 -20 202 96.5 Q102 213 102 430 Q102 590 151.5 781 Q201 972 288.5 1104.5 Q376 1237 498 1303.5 Q620 1370 776 1370 Q974 1370 1077 1259.5 Q1180 1149 1180 928 Q1180 773 1131 582 Q1082 391 992 254.5 Q902 118 778 49 Q654 -20 504 -20 Z M978 913 Q978 1214 746 1214 Q610 1214 514.5 1114.5 Q419 1015 361.5 813 Q304 611 304 446 Q304 135 535 135 Q635 135 711 187 Q787 239 845.5 351 Q904 463 941 628.5 Q978 794 978 913 Z " />
<glyph glyph-name="P" unicode="P" horiz-adv-x="1229" d="M629 514 L348 514 L248 0 L57 0 L319 1349 L779 1349 Q987 1349 1097 1267.5 Q1207 1186 1207 1035 Q1207 899 1132.5 776 Q1058 653 925.5 583.5 Q793 514 629 514 Z M1011 1002 Q1011 1196 726 1196 L480 1196 L377 665 L631 665 Q745 665 832.5 709 Q920 753 965.5 833 Q1011 913 1011 1002 Z " />
<glyph glyph-name="Q" unicode="Q" horiz-adv-x="1229" d="M640 -4 Q657 -130 713 -187 Q769 -244 870 -244 Q925 -244 987 -231 L961 -365 Q863 -387 779 -387 Q628 -387 547 -301 Q466 -215 443 -16 Q272 1 187 116 Q102 231 102 430 Q102 590 151.5 781 Q201 972 288.5 1104.5 Q376 1237 498 1303.5 Q620 1370 776 1370 Q974 1370 1077 1259.5 Q1180 1149 1180 928 Q1180 795 1141 623.5 Q1102 452 1031 320 Q960 188 861 106 Q762 24 640 -4 Z M978 913 Q978 1214 746 1214 Q610 1214 514.5 1114.5 Q419 1015 361.5 813 Q304 611 304 446 Q304 135 535 135 Q635 135 711 187 Q787 239 845.5 351 Q904 463 941 628.5 Q978 794 978 913 Z " />
<glyph glyph-name="R" unicode="R" horiz-adv-x="1229" d="M852 0 L598 575 L360 575 L248 0 L57 0 L319 1349 L801 1349 Q1010 1349 1112.5 1273 Q1215 1197 1215 1060 Q1215 956 1163.5 855 Q1112 754 1013 685.5 Q914 617 788 597 L1072 0 L852 0 Z M1018 1026 Q1018 1196 752 1196 L480 1196 L389 726 L669 726 Q780 726 860 765.5 Q940 805 979 877.5 Q1018 950 1018 1026 Z " />
<glyph glyph-name="S" unicode="S" horiz-adv-x="1229" d="M501 -20 Q44 -20 40 338 L232 375 Q234 248 310 188.5 Q386 129 535 129 Q694 129 788.5 190.5 Q883 252 905 367 L910 412 Q910 468 879.5 505 Q849 542 795 567.5 Q741 593 585 633 Q440 673 385 700 Q330 727 296.5 760 Q263 793 245.5 835 Q228 877 228 932 Q228 1018 264 1102.5 Q300 1187 371.5 1248 Q443 1309 546 1339.5 Q649 1370 776 1370 Q990 1370 1087 1295 Q1184 1220 1193 1046 L999 1013 Q997 1124 936 1175 Q875 1226 747 1226 Q466 1226 423 1013 L419 972 Q419 925 442.5 895 Q466 865 506 844.5 Q546 824 599 809.5 Q652 795 711 779 Q889 731 957.5 693 Q1026 655 1065 598.5 Q1104 542 1104 455 Q1104 359 1063 267.5 Q1022 176 944.5 112.5 Q867 49 756 14.5 Q645 -20 501 -20 Z " />
<glyph glyph-name="T" unicode="T" horiz-adv-x="1229" d="M836 1193 L604 0 L414 0 L646 1193 L203 1193 L233 1349 L1309 1349 L1279 1193 L836 1193 Z " />
<glyph glyph-name="U" unicode="U" horiz-adv-x="1229" d="M496 -20 Q295 -20 202.5 57.5 Q110 135 110 301 Q110 378 129 472 L299 1349 L490 1349 L325 498 Q305 396 305 328 Q305 226 355.5 180.5 Q406 135 525 135 Q686 135 766.5 217 Q847 299 889 511 L1052 1349 L1242 1349 L1075 490 Q1023 224 886 102 Q749 -20 496 -20 Z " />
<glyph glyph-name="V" unicode="V" horiz-adv-x="1229" d="M608 0 L410 0 L167 1349 L368 1349 L513 447 Q527 358 543 168 L587 261 L681 447 L1174 1349 L1375 1349 L608 0 Z " />
<glyph glyph-name="W" unicode="W" horiz-adv-x="1229" d="M913 0 L705 0 L673 432 Q668 491 658 756 Q625 676 575.5 564.5 Q526 453 314 0 L106 0 L157 1349 L346 1349 L293 514 Q280 349 259 168 Q341 363 391.5 475 Q442 587 604 931 L779 931 Q801 654 812.5 505.5 Q824 357 828 168 L930 514 L1196 1349 L1385 1349 L913 0 Z " />
<glyph glyph-name="X" unicode="X" horiz-adv-x="1229" d="M672 836 L1104 1349 L1309 1349 L749 705 L1088 0 L883 0 L620 573 L136 0 L-69 0 L544 705 L234 1349 L439 1349 L672 836 Z " />
<glyph glyph-name="Y" unicode="Y" horiz-adv-x="1229" d="M603 0 L415 0 L529 584 L193 1349 L398 1349 L653 738 L1144 1349 L1349 1349 L717 584 L603 0 Z " />
<glyph glyph-name="Z" unicode="Z" horiz-adv-x="1229" d="M1050 0 L-32 0 L-4 143 L1018 1193 L273 1193 L303 1349 L1265 1349 L1238 1210 L215 156 L1080 156 L1050 0 Z " />
<glyph glyph-name="bracketleft" unicode="&#x5b;" horiz-adv-x="1229" d="M222 -425 L593 1484 L1140 1484 L1113 1345 L746 1345 L429 -286 L796 -286 L769 -425 L222 -425 Z " />
<glyph glyph-name="backslash" unicode="&#x5c;" horiz-adv-x="1229" d="M823 -20 L298 1484 L476 1484 L1005 -20 L823 -20 Z " />
<glyph glyph-name="bracketright" unicode="&#x5d;" horiz-adv-x="1229" d="M82 -425 L109 -286 L476 -286 L793 1345 L426 1345 L453 1484 L1000 1484 L629 -425 L82 -425 Z " />
<glyph glyph-name="asciicircum" unicode="&#x5e;" horiz-adv-x="1229" d="M921 442 L748 1245 L266 442 L114 442 L668 1349 L871 1349 L1075 442 L921 442 Z " />
<glyph glyph-name="underscore" unicode="&#x5f;" horiz-adv-x="1229" d="M-153 -220 L-134 -124 L1104 -124 L1085 -220 L-153 -220 Z " />
<glyph glyph-name="grave" unicode="&#x60;" horiz-adv-x="1229" d="M830 1201 L575 1431 L581 1460 L778 1460 L958 1221 L954 1201 L830 1201 Z " />
<glyph glyph-name="a" unicode="a" horiz-adv-x="1229" d="M1018 111 Q1045 111 1078 118 L1056 6 Q986 -10 914 -10 Q827 -10 790.5 28 Q754 66 754 142 L759 207 L753 207 Q664 85 564.5 32.5 Q465 -20 337 -20 Q204 -20 138.5 42 Q73 104 73 213 Q73 254 82 302 Q150 651 605 656 L841 660 Q858 741 860.5 762.5 Q863 784 863 808 Q863 893 817 929 Q771 965 679 965 Q563 965 503.5 925.5 Q444 886 413 793 L228 810 Q282 959 400.5 1030.5 Q519 1102 708 1102 Q1048 1102 1048 835 Q1048 790 1038 738 L948 272 Q939 229 939 196 Q939 154 957 132.5 Q975 111 1018 111 Z M410 117 Q505 117 588 162.5 Q671 208 727 285 Q783 362 799 445 L817 534 L626 530 Q491 528 416.5 494.5 Q342 461 303.5 394.5 Q265 328 265 251 Q265 189 301.5 153 Q338 117 410 117 Z " />
<glyph glyph-name="b" unicode="b" horiz-adv-x="1229" d="M589 -20 Q345 -20 291 164 L289 164 Q281 120 266 63.5 Q251 7 248 0 L74 0 Q79 15 93.5 82 Q108 149 123 223 L368 1484 L548 1484 L466 1061 L432 904 L436 904 Q566 1104 809 1104 Q1115 1104 1115 761 Q1115 668 1091 546 Q1036 262 907 121 Q778 -20 589 -20 Z M926 736 Q926 856 878.5 910.5 Q831 965 733 965 Q607 965 523 886 Q439 807 391 644.5 Q343 482 343 351 Q343 228 397 170.5 Q451 113 565 113 Q685 113 761.5 194.5 Q838 276 882 442.5 Q926 609 926 736 Z " />
<glyph glyph-name="c" unicode="c" horiz-adv-x="1229" d="M741 1102 Q922 1102 1023 1015.5 Q1124 929 1124 779 L930 765 L930 771 Q930 857 877 909 Q824 961 706 961 Q572 961 485 890.5 Q398 820 349.5 665 Q301 510 301 372 Q301 241 361 180 Q421 119 541 119 Q649 119 730.5 172 Q812 225 850 334 L1038 322 Q1006 226 931.5 147.5 Q857 69 750.5 24.5 Q644 -20 522 -20 Q319 -20 215.5 79 Q112 178 112 369 Q112 496 153.5 639.5 Q195 783 277.5 889 Q360 995 476.5 1048.5 Q593 1102 741 1102 Z " />
<glyph glyph-name="d" unicode="d" horiz-adv-x="1229" d="M791 174 Q722 69 631.5 21.5 Q541 -26 420 -26 Q262 -26 187 57.5 Q112 141 112 311 Q112 408 136 532 Q247 1098 638 1098 Q759 1098 832.5 1055 Q906 1012 936 914 L938 914 L959 1034 L1046 1484 L1226 1484 L981 223 Q949 44 944 0 L772 0 L772 4 Q772 47 796 174 L791 174 Z M301 337 Q301 220 347.5 166.5 Q394 113 494 113 Q621 113 704.5 192 Q788 271 837 436.5 Q886 602 886 728 Q886 849 832 907 Q778 965 662 965 Q575 965 513 924.5 Q451 884 406.5 798 Q362 712 331.5 573 Q301 434 301 337 Z " />
<glyph glyph-name="e" unicode="e" horiz-adv-x="1229" d="M315 503 Q302 434 302 382 Q302 253 364.5 184 Q427 115 540 115 Q642 115 728.5 159 Q815 203 857 281 L1006 236 Q937 112 807.5 46 Q678 -20 514 -20 Q320 -20 218 80.5 Q116 181 116 370 Q116 494 156 638.5 Q196 783 276 888.5 Q356 994 469 1048 Q582 1102 726 1102 Q1112 1102 1112 723 Q1112 632 1091 527 L1087 503 L315 503 Z M702 969 Q569 969 474.5 882 Q380 795 344 641 L928 641 L932 713 Q932 969 702 969 Z " />
<glyph glyph-name="f" unicode="f" horiz-adv-x="1229" d="M658 940 L475 0 L295 0 L478 940 L216 940 L243 1082 L505 1082 L510 1107 Q550 1311 662.5 1397.5 Q775 1484 1001 1484 Q1071 1484 1153 1477.5 Q1235 1471 1278 1463 L1250 1318 Q1221 1323 1129 1329 Q1037 1335 993 1335 Q888 1335 831 1312 Q774 1289 739.5 1236.5 Q705 1184 685 1082 L1176 1082 L1149 940 L658 940 Z " />
<glyph glyph-name="g" unicode="g" horiz-adv-x="1229" d="M428 -424 Q259 -424 171 -355 Q83 -286 79 -157 L268 -132 Q270 -207 319 -247.5 Q368 -288 460 -288 Q710 -288 769 27 L807 221 L805 221 Q664 12 421 12 Q265 12 192.5 90.5 Q120 169 120 328 Q120 452 160 619.5 Q200 787 266 890.5 Q332 994 427.5 1046.5 Q523 1099 652 1099 Q765 1099 838 1046.5 Q911 994 937 897 L940 897 Q947 934 965 1003.5 Q983 1073 988 1082 L1159 1082 L1140 1000 L1110 858 L949 32 Q905 -195 777 -309.5 Q649 -424 428 -424 Z M887 697 Q887 823 830.5 894 Q774 965 671 965 Q581 965 518 926 Q455 887 411 804 Q367 721 337.5 583.5 Q308 446 308 355 Q308 245 354.5 195 Q401 145 508 145 Q588 145 658.5 188 Q729 231 781 311.5 Q833 392 860 500.5 Q887 609 887 697 Z " />
<glyph glyph-name="h" unicode="h" horiz-adv-x="1229" d="M368 1484 L549 1484 L474 1094 Q463 1038 426 897 L429 897 Q496 992 587.5 1047 Q679 1102 808 1102 Q1097 1102 1097 843 Q1097 786 1084 721 L944 0 L763 0 L898 695 Q909 753 909 793 Q909 881 865.5 922 Q822 963 730 963 Q606 963 509.5 872.5 Q413 782 382 627 L260 0 L80 0 L368 1484 Z " />
<glyph glyph-name="i" unicode="i" horiz-adv-x="1229" d="M668 142 L1048 142 L1020 0 L38 0 L66 142 L488 142 L643 940 L324 940 L351 1082 L850 1082 L668 142 Z M691 1292 L728 1484 L928 1484 L891 1292 L691 1292 Z " />
<glyph glyph-name="j" unicode="j" horiz-adv-x="1229" d="M217 -425 Q138 -425 59.5 -412 Q-19 -399 -62 -382 L-35 -242 Q108 -276 231 -276 Q358 -276 440 -210.5 Q522 -145 546 -25 L734 940 L327 940 L354 1082 L941 1082 L726 -28 Q690 -214 557 -319.5 Q424 -425 217 -425 Z M782 1292 L819 1484 L1019 1484 L982 1292 L782 1292 Z " />
<glyph glyph-name="k" unicode="k" horiz-adv-x="1229" d="M809 0 L540 499 L389 401 L311 0 L131 0 L419 1484 L599 1484 L419 557 L996 1082 L1207 1082 L678 617 L1020 0 L809 0 Z " />
<glyph glyph-name="l" unicode="l" horiz-adv-x="1229" d="M659 142 L1039 142 L1011 0 L29 0 L57 142 L479 142 L712 1342 L423 1342 L450 1484 L919 1484 L659 142 Z " />
<glyph glyph-name="m" unicode="m" horiz-adv-x="1229" d="M426 0 L559 686 Q581 796 581 857 Q581 916 561 939.5 Q541 963 499 963 Q436 963 378 869 Q320 775 287 607 L169 0 L0 0 L165 851 Q172 885 178.5 922.5 Q185 960 190.5 993.5 Q196 1027 200 1051 Q204 1075 204 1082 L353 1082 L334 955 L325 907 L327 907 Q384 1014 445 1058 Q506 1102 581 1102 Q669 1102 703 1054.5 Q737 1007 737 912 L737 906 L739 906 Q800 1012 864.5 1057 Q929 1102 1013 1102 Q1101 1102 1141 1056 Q1181 1010 1181 910 Q1181 835 1159 721 L1019 0 L851 0 L984 686 Q1006 796 1006 857 Q1006 916 986 939.5 Q966 963 924 963 Q859 963 803.5 878.5 Q748 794 716 627 L594 0 L426 0 Z " />
<glyph glyph-name="n" unicode="n" horiz-adv-x="1229" d="M763 0 L898 695 Q909 753 909 793 Q909 881 865.5 922 Q822 963 730 963 Q606 963 509.5 872.5 Q413 782 382 627 L260 0 L80 0 L245 851 Q252 885 258.5 922.5 Q265 960 270.5 993.5 Q276 1027 280 1051 Q284 1075 284 1082 L454 1082 Q454 1076 445.5 1014.5 Q437 953 426 897 L429 897 Q497 992 590 1047 Q683 1102 815 1102 Q1098 1102 1098 848 Q1098 791 1084 721 L944 0 L763 0 Z " />
<glyph glyph-name="o" unicode="o" horiz-adv-x="1229" d="M500 -20 Q312 -20 212 78.5 Q112 177 112 367 Q112 446 130 542 Q185 821 338.5 961.5 Q492 1102 724 1102 Q923 1102 1020 1010 Q1117 918 1117 732 Q1117 597 1075 447.5 Q1033 298 952 192 Q871 86 756 33 Q641 -20 500 -20 Z M928 720 Q928 845 873.5 907 Q819 969 701 969 Q569 969 482.5 892 Q396 815 348.5 662 Q301 509 301 373 Q301 113 524 113 Q625 113 696 154.5 Q767 196 818.5 283 Q870 370 899 498.5 Q928 627 928 720 Z " />
<glyph glyph-name="p" unicode="p" horiz-adv-x="1229" d="M589 -20 Q342 -20 294 164 L289 164 Q289 154 281 108 Q273 62 178 -425 L-3 -425 L247 858 Q274 994 284 1082 L459 1082 Q459 1062 450 998.5 Q441 935 435 904 L439 904 Q509 1009 596.5 1056.5 Q684 1104 808 1104 Q1116 1104 1116 768 Q1116 673 1091 546 Q981 -20 589 -20 Z M928 743 Q928 851 883.5 908 Q839 965 734 965 Q637 965 569.5 922.5 Q502 880 452.5 791.5 Q403 703 373 571.5 Q343 440 343 350 Q343 229 397 171 Q451 113 566 113 Q683 113 759.5 191 Q836 269 882 444 Q928 619 928 743 Z " />
<glyph glyph-name="q" unicode="q" horiz-adv-x="1229" d="M637 1098 Q767 1098 835.5 1053 Q904 1008 934 914 L936 914 Q949 979 963 1028 Q977 1077 981 1083 L1156 1083 Q1149 1061 1133 987.5 Q1117 914 856 -425 L675 -425 Q783 125 797 182 L795 182 Q719 72 630.5 23 Q542 -26 420 -26 Q262 -26 187 58 Q112 142 112 311 Q112 408 136 532 Q246 1098 637 1098 Z M885 725 Q885 848 831.5 906.5 Q778 965 662 965 Q545 965 468 886 Q391 807 346.5 638 Q302 469 302 342 Q302 227 347.5 170 Q393 113 494 113 Q621 113 704.5 193 Q788 273 836.5 433 Q885 593 885 725 Z " />
<glyph glyph-name="r" unicode="r" horiz-adv-x="1229" d="M1118 918 Q1011 937 910 937 Q750 937 627 816 Q504 695 468 508 L369 0 L189 0 L325 701 Q350 837 350 990 L347 1082 L518 1082 Q524 1032 524 954 Q524 888 518 832 L523 832 Q596 945 653.5 997 Q711 1049 782 1075.5 Q853 1102 948 1102 Q1054 1102 1151 1085 L1118 918 Z " />
<glyph glyph-name="s" unicode="s" horiz-adv-x="1229" d="M512 -20 Q307 -20 212 43.5 Q117 107 110 248 L275 279 Q278 191 333.5 152.5 Q389 114 538 114 Q690 114 767 169 Q844 224 844 315 Q844 364 802.5 397 Q761 430 666 456 L550 487 Q418 523 364.5 552.5 Q311 582 281.5 624.5 Q252 667 252 728 Q252 800 285 872 Q318 944 380.5 995 Q443 1046 533 1072.5 Q623 1099 732 1099 Q908 1099 1000.5 1032 Q1093 965 1093 839 L927 819 L927 824 Q927 894 875 929.5 Q823 965 706 965 Q568 965 498 917 Q428 869 428 784 Q428 738 463.5 708.5 Q499 679 585 657 Q806 599 864 573 Q922 547 957 513.5 Q992 480 1006.5 445 Q1021 410 1021 366 Q1021 263 958 170.5 Q895 78 779 29 Q663 -20 512 -20 Z " />
<glyph glyph-name="t" unicode="t" horiz-adv-x="1229" d="M268 940 L295 1082 L465 1082 L578 1364 L698 1364 L643 1082 L1075 1082 L1048 940 L616 940 L489 288 L484 244 Q484 187 522 160 Q560 133 641 133 Q774 133 944 167 L918 30 Q742 -16 574 -16 Q435 -16 366 33.5 Q297 83 297 189 Q297 234 305 269 L436 940 L268 940 Z " />
<glyph glyph-name="u" unicode="u" horiz-adv-x="1229" d="M470 1082 L337 396 Q323 324 323 273 Q323 189 365.5 154 Q408 119 507 119 Q638 119 730 209 Q822 299 851 455 L973 1082 L1154 1082 L989 231 Q982 197 975.5 159.5 Q969 122 963.5 88.5 Q958 55 954 31 Q950 7 950 0 L780 0 Q780 11 790.5 77.5 Q801 144 808 185 L805 185 Q722 73 629.5 26.5 Q537 -20 419 -20 Q273 -20 204 38 Q135 96 135 223 Q135 283 150 361 L290 1082 L470 1082 Z " />
<glyph glyph-name="v" unicode="v" horiz-adv-x="1229" d="M610 0 L397 0 L174 1082 L376 1082 L507 378 Q516 310 526 194 L530 141 L556 194 Q594 274 650 376 L1063 1082 L1264 1082 L610 0 Z " />
<glyph glyph-name="w" unicode="w" horiz-adv-x="1229" d="M913 0 L709 0 L658 471 L640 673 L574 534 L302 0 L99 0 L126 1082 L304 1082 L279 475 Q277 418 266.5 300.5 Q256 183 249 149 L288 235 L349 363 L566 787 L759 787 L806 362 L820 149 Q825 175 836 213 Q847 251 918 475 L1137 1082 L1313 1082 L913 0 Z " />
<glyph glyph-name="x" unicode="x" horiz-adv-x="1229" d="M827 0 L592 444 L183 0 L-11 0 L512 556 L217 1082 L416 1082 L634 661 L1014 1082 L1215 1082 L716 558 L1028 0 L827 0 Z " />
<glyph glyph-name="y" unicode="y" horiz-adv-x="1229" d="M104 -425 Q32 -425 -17 -414 L9 -279 Q45 -285 92 -285 Q171 -285 252 -226 Q333 -167 406 -38 L433 11 L171 1082 L363 1082 L503 440 Q514 391 532.5 296.5 Q551 202 551 186 Q561 208 614 296 L1076 1082 L1266 1082 L600 0 Q460 -242 347.5 -333.5 Q235 -425 104 -425 Z " />
<glyph glyph-name="z" unicode="z" horiz-adv-x="1229" d="M42 0 L69 137 L906 943 L265 943 L292 1082 L1136 1082 L1110 945 L271 139 L990 139 L963 0 L42 0 Z " />
<glyph glyph-name="braceleft" unicode="&#x7b;" horiz-adv-x="1229" d="M608 -425 Q498 -425 432 -363.5 Q366 -302 366 -193 Q366 -155 373 -122 L442 229 L447 279 Q447 362 385.5 409 Q324 456 212 461 L238 598 Q370 603 454.5 664.5 Q539 726 558 829 L627 1181 Q655 1320 751 1402 Q847 1484 979 1484 L1244 1484 L1217 1345 L1004 1345 Q911 1345 863 1299.5 Q815 1254 796 1150 L728 804 Q709 707 631 632 Q553 557 444 532 L444 530 Q526 509 576.5 450.5 Q627 392 627 310 Q627 279 622 256 L554 -91 Q546 -133 546 -165 Q546 -230 580 -258 Q614 -286 687 -286 L900 -286 L873 -425 L608 -425 Z " />
<glyph glyph-name="bar" unicode="&#x7c;" horiz-adv-x="1229" d="M531 -425 L531 1484 L697 1484 L697 -425 L531 -425 Z " />
<glyph glyph-name="braceright" unicode="&#x7d;" horiz-adv-x="1229" d="M-21 -425 L6 -286 L219 -286 Q310 -286 359.5 -241.5 Q409 -197 429 -91 L497 256 Q516 358 595 432.5 Q674 507 780 530 L780 532 Q696 554 647 614 Q598 674 598 752 L603 804 L671 1150 Q679 1192 679 1224 Q679 1290 644 1317.5 Q609 1345 536 1345 L323 1345 L350 1484 L615 1484 Q728 1484 793 1423 Q858 1362 858 1254 Q858 1216 851 1181 L782 829 L777 780 Q777 699 837 651 Q897 603 1012 598 L986 461 Q855 456 771 396 Q687 336 666 229 L597 -122 Q572 -255 474 -340 Q376 -425 244 -425 L-21 -425 Z " />
<glyph glyph-name="asciitilde" unicode="&#x7e;" horiz-adv-x="1229" d="M423 807 Q504 807 577 784 Q650 761 718 735 Q838 690 905 690 Q1036 690 1167 782 L1138 633 Q1064 588 1004.5 570.5 Q945 553 862 553 Q793 553 725 575 Q657 597 589 623 Q469 668 381 668 Q314 668 253 648 Q192 628 116 580 L144 723 Q270 807 423 807 Z " />
<glyph glyph-name="exclamdown" unicode="&#xa1;" horiz-adv-x="1229" d="M567 685 L715 685 L554 -266 L358 -266 L567 685 Z M818 1082 L779 881 L585 881 L624 1082 L818 1082 Z " />
<glyph glyph-name="cent" unicode="&#xa2;" horiz-adv-x="1229" d="M582 269 Q694 269 778.5 323.5 Q863 378 901 486 L1081 474 Q1033 333 908 240.5 Q783 148 619 134 L581 -61 L453 -61 L491 134 Q322 147 231.5 243 Q141 339 141 510 Q141 628 181 756 Q221 884 294.5 979 Q368 1074 471 1129.5 Q574 1185 697 1195 L733 1379 L861 1379 L825 1195 Q978 1182 1064.5 1098 Q1151 1014 1153 873 L965 859 Q965 959 905.5 1008.5 Q846 1058 734 1058 Q640 1058 566 1021.5 Q492 985 438.5 912 Q385 839 356 733.5 Q327 628 327 536 Q327 402 392.5 335.5 Q458 269 582 269 Z " />
<glyph glyph-name="sterling" unicode="&#xa3;" horiz-adv-x="1229" d="M1113 240 Q1018 0 832 0 L-49 0 L-19 154 Q76 199 119.5 237.5 Q163 276 192 332.5 Q221 389 238 471 L265 612 L79 612 L107 754 L293 754 L335 974 Q373 1169 500.5 1269.5 Q628 1370 834 1370 Q988 1370 1078 1309 Q1168 1248 1181 1140 L996 1083 Q986 1146 933.5 1178 Q881 1210 803 1210 Q681 1210 610 1152.5 Q539 1095 515 970 L473 754 L881 754 L853 612 L445 612 L418 473 Q391 340 341 270 Q291 200 202 158 L802 158 Q861 158 894.5 184.5 Q928 211 949 264 L1113 240 Z " />
<glyph glyph-name="currency" unicode="&#xa4;" horiz-adv-x="1229" d="M337 936 L256 1036 L380 1139 L460 1038 Q588 1120 730 1120 Q868 1120 965 1040 L1081 1137 L1165 1032 L1050 936 Q1089 858 1089 765 Q1089 678 1053 591 Q1017 504 950 432 L1031 332 L908 227 L827 328 Q698 250 561 250 Q419 250 324 330 L199 225 L117 330 L239 432 Q202 509 202 599 Q202 687 236.5 774 Q271 861 337 936 Z M359 633 Q359 535 425 470.5 Q491 406 591 406 Q673 406 752 451.5 Q831 497 880.5 575 Q930 653 930 739 Q930 838 864.5 902.5 Q799 967 700 967 Q617 967 539.5 922.5 Q462 878 410.5 799.5 Q359 721 359 633 Z " />
<glyph glyph-name="yen" unicode="&#xa5;" horiz-adv-x="1229" d="M791 679 L1112 679 L1084 537 L701 537 L675 400 L1058 400 L1030 256 L647 256 L597 0 L419 0 L469 256 L88 256 L116 400 L497 400 L525 537 L142 537 L170 679 L490 679 L209 1349 L408 1349 L649 732 L1134 1349 L1333 1349 L791 679 Z " />
<glyph glyph-name="brokenbar" unicode="&#xa6;" horiz-adv-x="1229" d="M531 676 L531 1454 L697 1454 L697 676 L531 676 Z M531 -455 L531 324 L697 324 L697 -455 L531 -455 Z " />
<glyph glyph-name="section" unicode="&#xa7;" horiz-adv-x="1229" d="M815 1484 Q988 1484 1082 1417 Q1176 1350 1178 1224 L1013 1204 L1013 1209 Q1013 1284 956 1324 Q899 1364 792 1364 Q656 1364 580 1310.5 Q504 1257 504 1176 Q504 1122 559 1081.5 Q614 1041 769 1003 Q900 970 964.5 935 Q1029 900 1065 852 Q1101 804 1101 738 Q1101 669 1066 599 Q1031 529 966.5 479.5 Q902 430 824 413 Q908 373 949.5 322.5 Q991 272 991 201 Q991 129 956 57 Q921 -15 854.5 -66.5 Q788 -118 694 -145 Q600 -172 483 -172 Q276 -172 179 -106.5 Q82 -41 73 100 L240 131 Q243 35 306 -8.5 Q369 -52 506 -52 Q652 -52 738.5 7.5 Q825 67 825 161 Q825 207 797 240 Q769 273 716 297.5 Q663 322 527 358 Q217 429 217 619 Q217 725 296.5 814.5 Q376 904 502 938 Q428 964 384 1018.5 Q340 1073 340 1145 Q340 1236 397 1317 Q454 1398 558.5 1441 Q663 1484 815 1484 Z M937 692 Q937 753 876 798 Q815 843 661 880 Q581 876 516.5 845 Q452 814 417 761 Q382 708 382 655 Q382 617 406.5 585.5 Q431 554 480.5 529.5 Q530 505 643 475 Q729 477 795 504 Q861 531 898.5 581.5 Q936 632 937 692 Z " />
<glyph glyph-name="dieresis" unicode="&#xa8;" horiz-adv-x="1229" d="M861 1219 L897 1403 L1060 1403 L1024 1219 L861 1219 Z M467 1219 L503 1403 L668 1403 L632 1219 L467 1219 Z " />
<glyph glyph-name="copyright" unicode="&#xa9;" horiz-adv-x="1229" d="M398 763 Q398 610 457 523.5 Q516 437 622 437 Q687 437 735 474 Q783 511 818 593 L933 558 Q881 440 804.5 386.5 Q728 333 622 333 Q454 333 361.5 446.5 Q269 560 269 763 Q269 965 358 1076 Q447 1187 615 1187 Q832 1187 918 978 L804 945 Q778 1012 729.5 1047 Q681 1082 617 1082 Q510 1082 454 1001.5 Q398 921 398 763 Z M1197 761 Q1197 534 1126 370.5 Q1055 207 923 122.5 Q791 38 614 38 Q437 38 305.5 123.5 Q174 209 102.5 372 Q31 535 31 761 Q31 987 102 1150 Q173 1313 305.5 1398.5 Q438 1484 614 1484 Q790 1484 922.5 1399 Q1055 1314 1126 1151.5 Q1197 989 1197 761 Z M1105 761 Q1105 1062 975 1225.5 Q845 1389 614 1389 Q463 1389 353.5 1316.5 Q244 1244 185 1102.5 Q126 961 126 761 Q126 462 253.5 297 Q381 132 614 132 Q847 132 976 296 Q1105 460 1105 761 Z " />
<glyph glyph-name="ordfeminine" unicode="&#xaa;" horiz-adv-x="1229" d="M881 1212 Q881 1341 731 1341 Q647 1341 594 1307 Q541 1273 515 1196 L368 1206 Q406 1310 506 1371 Q606 1432 752 1432 Q885 1432 955.5 1381 Q1026 1330 1026 1230 Q1026 1195 1019 1165 L963 874 Q957 843 957 819 Q957 756 1014 756 Q1038 756 1065 764 L1046 670 Q994 657 942 657 Q809 657 809 775 L813 817 L809 817 Q684 651 486 651 Q380 651 322.5 695.5 Q265 740 265 821 Q265 842 270 870 Q318 1107 675 1112 L867 1116 Q881 1191 881 1212 Z M418 860 Q418 815 448 783.5 Q478 752 546 752 Q615 752 679 786 Q743 820 787 874.5 Q831 929 841 983 L851 1034 L696 1030 Q549 1027 483.5 984 Q418 941 418 860 Z " />
<glyph glyph-name="guillemotleft" unicode="&#xab;" horiz-adv-x="1229" d="M862 141 L595 506 L608 569 L1018 940 L1196 940 L1190 909 L779 537 L1048 170 L1042 141 L862 141 Z M385 141 L120 506 L133 569 L541 940 L718 940 L712 909 L304 537 L570 170 L564 141 L385 141 Z " />
<glyph glyph-name="logicalnot" unicode="&#xac;" horiz-adv-x="1229" d="M966 180 L966 608 L116 608 L116 754 L1111 754 L1111 180 L966 180 Z " />
<glyph glyph-name="registered" unicode="&#xae;" horiz-adv-x="1229" d="M1197 761 Q1197 534 1126 370.5 Q1055 207 923 122.5 Q791 38 614 38 Q437 38 305.5 123.5 Q174 209 102.5 372 Q31 535 31 761 Q31 987 102 1150 Q173 1313 305.5 1398.5 Q438 1484 614 1484 Q790 1484 922.5 1399 Q1055 1314 1126 1151.5 Q1197 989 1197 761 Z M1105 761 Q1105 1062 975 1225.5 Q845 1389 614 1389 Q463 1389 353.5 1316.5 Q244 1244 185 1102.5 Q126 961 126 761 Q126 462 253.5 297 Q381 132 614 132 Q847 132 976 296 Q1105 460 1105 761 Z M815 343 L616 679 L455 679 L455 343 L328 343 L328 1174 L635 1174 Q777 1174 852.5 1111 Q928 1048 928 937 Q928 835 876 773.5 Q824 712 739 693 L960 343 L815 343 Z M801 935 Q801 1004 753.5 1040 Q706 1076 625 1076 L455 1076 L455 775 L637 775 Q717 775 759 817.5 Q801 860 801 935 Z " />
<glyph glyph-name="overscore" unicode="&#xaf;" horiz-adv-x="1229" d="M186 1522 L205 1618 L1443 1618 L1424 1522 L186 1522 Z " />
<glyph glyph-name="degree" unicode="&#xb0;" horiz-adv-x="1229" d="M901 1085 Q901 966 816.5 883 Q732 800 614 800 Q496 800 411.5 884 Q327 968 327 1085 Q327 1202 410.5 1286 Q494 1370 614 1370 Q734 1370 817.5 1287 Q901 1204 901 1085 Z M792 1085 Q792 1161 740.5 1213 Q689 1265 614 1265 Q539 1265 487.5 1212 Q436 1159 436 1085 Q436 1011 488.5 958 Q541 905 614 905 Q688 905 740 957.5 Q792 1010 792 1085 Z " />
<glyph glyph-name="plusminus" unicode="&#xb1;" horiz-adv-x="1229" d="M687 680 L687 285 L540 285 L540 680 L116 680 L116 825 L540 825 L540 1219 L687 1219 L687 825 L1111 825 L1111 680 L687 680 Z M116 0 L116 145 L1111 145 L1111 0 L116 0 Z " />
<glyph glyph-name="twosuperior" unicode="&#xb2;" horiz-adv-x="1229" d="M318 563 L336 666 Q380 735 456.5 799 Q533 863 656 938 Q781 1014 836.5 1077.5 Q892 1141 892 1213 Q892 1315 770 1315 Q702 1315 650.5 1278.5 Q599 1242 578 1174 L447 1182 Q482 1292 576.5 1356.5 Q671 1421 796 1421 Q911 1421 971.5 1373 Q1032 1325 1032 1237 Q1032 1141 969.5 1061.5 Q907 982 782 905 Q626 807 569 763 Q512 719 480 670 L939 670 L920 563 L318 563 Z " />
<glyph glyph-name="threesuperior" unicode="&#xb3;" horiz-adv-x="1229" d="M626 551 Q352 551 352 763 L352 778 L491 791 L491 786 L490 777 Q490 655 646 655 Q739 655 788.5 706 Q838 757 838 834 Q838 940 673 940 L612 940 L633 1049 L690 1049 Q783 1049 837.5 1096 Q892 1143 892 1217 Q892 1315 769 1315 Q701 1315 652 1280 Q603 1245 584 1180 L452 1192 Q486 1300 576 1360.5 Q666 1421 793 1421 Q906 1421 969.5 1375.5 Q1033 1330 1033 1247 Q1033 1159 975.5 1090.5 Q918 1022 813 999 L813 997 Q899 988 937 944 Q975 900 975 839 Q975 764 933 695 Q891 626 813.5 588.5 Q736 551 626 551 Z " />
<glyph glyph-name="acute" unicode="&#xb4;" horiz-adv-x="1229" d="M530 1201 L534 1221 L808 1460 L1005 1460 L999 1431 L654 1201 L530 1201 Z " />
<glyph glyph-name="mu1" unicode="&#xb5;" horiz-adv-x="1229" d="M811 0 Q811 4 812.5 14 Q814 24 822.5 86 Q831 148 840 199 L836 199 Q687 -20 459 -20 Q377 -20 319.5 12 Q262 44 241 102 L237 102 L217 -20 L145 -393 L-37 -393 L249 1082 L431 1082 L306 438 Q294 368 294 331 Q294 121 509 121 Q640 121 747 218 Q854 315 882 465 L1002 1082 L1183 1082 L1018 233 Q1012 199 1005 161 Q998 123 992.5 89.5 Q987 56 983 31.5 Q979 7 979 0 L811 0 Z " />
<glyph glyph-name="paragraph" unicode="&#xb6;" horiz-adv-x="1229" d="M1085 1227 L783 -324 L651 -324 L953 1227 L756 1227 L454 -324 L321 -324 L507 634 Q361 634 283 703.5 Q205 773 205 898 Q205 1019 262 1126.5 Q319 1234 421 1291.5 Q523 1349 654 1349 L1237 1349 L1214 1227 L1085 1227 Z " />
<glyph glyph-name="middot.001" unicode="&#xb7;" horiz-adv-x="1229" d="M473 420 L531 719 L766 719 L708 420 L473 420 Z " />
<glyph glyph-name="cedilla" unicode="&#xb8;" horiz-adv-x="1229" d="M18 -444 Q-39 -444 -72 -440 L-52 -342 Q-4 -348 32 -348 Q178 -348 196 -262 L198 -244 Q198 -180 79 -180 Q36 -180 22 -182 L122 0 L229 0 L171 -100 Q252 -102 292 -134 Q332 -166 332 -222 Q332 -281 298.5 -335 Q265 -389 195.5 -416.5 Q126 -444 18 -444 Z " />
<glyph glyph-name="onesuperior" unicode="&#xb9;" horiz-adv-x="1229" d="M295 563 L316 670 L581 670 L700 1280 Q666 1231 581 1198 Q496 1165 406 1165 L428 1274 Q524 1274 606 1309 Q688 1344 735 1410 L856 1410 L712 670 L948 670 L927 563 L295 563 Z " />
<glyph glyph-name="ordmasculine" unicode="&#xba;" horiz-adv-x="1229" d="M633 651 Q479 651 396.5 728 Q314 805 314 943 Q314 1071 372.5 1188.5 Q431 1306 539.5 1369 Q648 1432 788 1432 Q946 1432 1028.5 1360 Q1111 1288 1111 1149 Q1111 1053 1077 957 Q1043 861 980 792.5 Q917 724 830 687.5 Q743 651 633 651 Z M962 1144 Q962 1327 772 1327 Q675 1327 606.5 1279.5 Q538 1232 502 1136 Q466 1040 466 945 Q466 756 651 756 Q727 756 786 784 Q845 812 882 864 Q919 916 940.5 997 Q962 1078 962 1144 Z " />
<glyph glyph-name="guillemotright" unicode="&#xbb;" horiz-adv-x="1229" d="M684 141 L506 141 L512 170 L921 537 L658 909 L664 940 L840 940 L1106 569 L1093 506 L684 141 Z M209 141 L29 141 L35 170 L444 537 L181 909 L187 940 L365 940 L628 569 L615 506 L209 141 Z " />
<glyph glyph-name="onequarter" unicode="&#xbc;" horiz-adv-x="1229" d="M72 589 L93 696 L228 696 L328 1209 Q300 1169 243 1141.5 Q186 1114 139 1114 L162 1233 Q213 1233 271 1265 Q329 1297 365 1349 L486 1349 L359 696 L475 696 L454 589 L72 589 Z M217 0 L99 0 L1064 1349 L1179 1349 L217 0 Z M1033 162 L1002 1 L875 1 L906 162 L531 162 L551 261 L1009 763 L1150 763 L1053 263 L1175 263 L1155 162 L1033 162 Z M999 635 Q989 623 967 598 Q945 573 661 263 L926 263 L999 635 Z " />
<glyph glyph-name="onehalf" unicode="&#xbd;" horiz-adv-x="1229" d="M62 589 L83 696 L218 696 L318 1209 Q290 1169 233 1141.5 Q176 1114 129 1114 L152 1233 Q203 1233 261 1265 Q319 1297 355 1349 L476 1349 L349 696 L465 696 L444 589 L62 589 Z M201 0 L83 0 L1048 1349 L1163 1349 L201 0 Z M573 1 L592 98 Q631 160 695.5 216.5 Q760 273 864 342 Q966 409 1013.5 464 Q1061 519 1061 590 Q1061 673 969 673 Q908 673 872.5 642 Q837 611 817 550 L688 555 Q721 658 801.5 715.5 Q882 773 994 773 Q1199 773 1199 612 Q1199 523 1142.5 448 Q1086 373 984 307 Q858 225 809.5 186.5 Q761 148 736 108 L1116 108 L1095 1 L573 1 Z " />
<glyph glyph-name="threequarters" unicode="&#xbe;" horiz-adv-x="1229" d="M275 571 Q171 571 114.5 624 Q58 677 58 773 L58 783 L197 796 L197 785 Q197 731 223.5 703 Q250 675 295 675 Q363 675 403 718.5 Q443 762 443 831 Q443 920 314 920 L273 920 L294 1029 L331 1029 Q384 1029 419 1046.5 Q454 1064 472 1103 Q490 1142 490 1181 Q490 1255 412 1255 Q367 1255 328 1223.5 Q289 1192 272 1135 L139 1147 Q170 1244 248.5 1302.5 Q327 1361 433 1361 Q526 1361 577.5 1318.5 Q629 1276 629 1203 Q629 1043 455 982 L454 980 Q580 951 580 838 Q580 819 575 794 Q556 693 475 632 Q394 571 275 571 Z M242 0 L124 0 L1089 1349 L1204 1349 L242 0 Z M1033 162 L1002 1 L875 1 L906 162 L531 162 L551 261 L1009 763 L1150 763 L1053 263 L1175 263 L1155 162 L1033 162 Z M999 635 Q989 623 967 598 Q945 573 661 263 L926 263 L999 635 Z " />
<glyph glyph-name="questiondown" unicode="&#xbf;" horiz-adv-x="1229" d="M631 724 L806 724 Q782 619 712 536.5 Q642 454 518 379 Q369 289 305.5 213 Q242 137 242 40 Q242 -48 309.5 -93.5 Q377 -139 498 -139 Q632 -139 730.5 -67.5 Q829 4 869 133 L1051 121 Q988 -74 834 -181.5 Q680 -289 471 -289 Q274 -289 164.5 -212.5 Q55 -136 55 3 Q55 74 82 149 Q109 224 174.5 294 Q240 364 350 430 Q488 512 550.5 577 Q613 642 631 724 Z M883 1081 L844 880 L649 880 L688 1081 L883 1081 Z " />
<glyph glyph-name="Agrave" unicode="&#xc0;" horiz-adv-x="1229" d="M929 0 L865 382 L302 382 L91 0 L-105 0 L667 1349 L884 1349 L1123 0 L929 0 Z M745 1205 Q699 1114 662.5 1044 Q626 974 382 531 L845 531 L769 1031 L745 1205 Z M784 1444 L529 1674 L535 1703 L732 1703 L912 1464 L908 1444 L784 1444 Z " />
<glyph glyph-name="Aacute" unicode="&#xc1;" horiz-adv-x="1229" d="M929 0 L865 382 L302 382 L91 0 L-105 0 L667 1349 L884 1349 L1123 0 L929 0 Z M745 1205 Q699 1114 662.5 1044 Q626 974 382 531 L845 531 L769 1031 L745 1205 Z M670 1445 L674 1465 L948 1704 L1145 1704 L1139 1675 L794 1445 L670 1445 Z " />
<glyph glyph-name="Acircumflex" unicode="&#xc2;" horiz-adv-x="1229" d="M929 0 L865 382 L302 382 L91 0 L-105 0 L667 1349 L884 1349 L1123 0 L929 0 Z M745 1205 Q699 1114 662.5 1044 Q626 974 382 531 L845 531 L769 1031 L745 1205 Z M1124 1465 L1120 1445 L1015 1445 L823 1583 L821 1583 L562 1445 L458 1445 L462 1465 L763 1704 L927 1704 L1124 1465 Z " />
<glyph glyph-name="Atilde" unicode="&#xc3;" horiz-adv-x="1229" d="M929 0 L865 382 L302 382 L91 0 L-105 0 L667 1349 L884 1349 L1123 0 L929 0 Z M745 1205 Q699 1114 662.5 1044 Q626 974 382 531 L845 531 L769 1031 L745 1205 Z M945 1445 Q903 1445 865 1463.5 Q827 1482 791 1504.5 Q755 1527 720.5 1545.5 Q686 1564 651 1564 Q614 1564 590 1540.5 Q566 1517 541 1445 L430 1445 Q472 1582 533.5 1637.5 Q595 1693 682 1693 Q726 1693 764.5 1674.5 Q803 1656 838.5 1633.5 Q874 1611 907.5 1592.5 Q941 1574 974 1574 Q1014 1574 1039 1601.5 Q1064 1629 1084 1693 L1196 1693 Q1165 1596 1132.5 1547.5 Q1100 1499 1054 1472 Q1008 1445 945 1445 Z " />
<glyph glyph-name="Adieresis" unicode="&#xc4;" horiz-adv-x="1229" d="M929 0 L865 382 L302 382 L91 0 L-105 0 L667 1349 L884 1349 L1123 0 L929 0 Z M745 1205 Q699 1114 662.5 1044 Q626 974 382 531 L845 531 L769 1031 L745 1205 Z M905 1445 L941 1629 L1104 1629 L1068 1445 L905 1445 Z M511 1445 L547 1629 L712 1629 L676 1445 L511 1445 Z " />
<glyph glyph-name="Aring" unicode="&#xc5;" horiz-adv-x="1229" d="M929 0 L865 382 L302 382 L91 0 L-105 0 L667 1349 L884 1349 L1123 0 L929 0 Z M745 1205 Q699 1114 662.5 1044 Q626 974 382 531 L845 531 L769 1031 L745 1205 Z M752 1233 Q656 1233 600.5 1276.5 Q545 1320 545 1395 Q545 1454 580 1511 Q615 1568 681.5 1600 Q748 1632 830 1632 Q925 1632 981 1590 Q1037 1548 1037 1471 Q1037 1408 1000 1351.5 Q963 1295 898 1264 Q833 1233 752 1233 Z M913 1447 Q913 1479 884 1497.5 Q855 1516 807 1516 Q745 1516 706.5 1488 Q668 1460 668 1420 Q668 1387 696 1368 Q724 1349 775 1349 Q838 1349 875.5 1378 Q913 1407 913 1447 Z " />
<glyph glyph-name="AE" unicode="&#xc6;" horiz-adv-x="1229" d="M621 412 L286 412 L64 0 L-104 0 L644 1349 L1311 1349 L1282 1197 L945 1197 L861 767 L1188 767 L1159 617 L832 617 L742 152 L1120 152 L1090 0 L541 0 L621 412 Z M775 1202 L702 1202 L583 962 L366 561 L650 561 L775 1202 Z " />
<glyph glyph-name="Ccedilla" unicode="&#xc7;" horiz-adv-x="1229" d="M316 452 Q316 135 582 135 Q685 135 782 206.5 Q879 278 959 417 L1105 352 Q882 -20 550 -20 Q338 -20 227 98.5 Q116 217 116 447 Q116 612 168 802 Q220 992 308.5 1117 Q397 1242 523 1306 Q649 1370 810 1370 Q1145 1370 1211 1035 L1031 970 Q1013 1089 947 1151.5 Q881 1214 781 1214 Q673 1214 591.5 1163 Q510 1112 451.5 1009 Q393 906 354.5 742.5 Q316 579 316 452 Z M372 -444 Q315 -444 282 -440 L302 -342 Q350 -348 386 -348 Q532 -348 550 -262 L552 -244 Q552 -180 433 -180 Q390 -180 376 -182 L476 0 L583 0 L525 -100 Q606 -102 646 -134 Q686 -166 686 -222 Q686 -281 652.5 -335 Q619 -389 549.5 -416.5 Q480 -444 372 -444 Z " />
<glyph glyph-name="Egrave" unicode="&#xc8;" horiz-adv-x="1229" d="M57 0 L319 1349 L1238 1349 L1208 1193 L480 1193 L398 771 L1066 771 L1036 617 L368 617 L278 156 L1047 156 L1017 0 L57 0 Z M806 1445 L551 1675 L557 1704 L754 1704 L934 1465 L930 1445 L806 1445 Z " />
<glyph glyph-name="Eacute" unicode="&#xc9;" horiz-adv-x="1229" d="M57 0 L319 1349 L1238 1349 L1208 1193 L480 1193 L398 771 L1066 771 L1036 617 L368 617 L278 156 L1047 156 L1017 0 L57 0 Z M668 1445 L672 1465 L946 1704 L1143 1704 L1137 1675 L792 1445 L668 1445 Z " />
<glyph glyph-name="Ecircumflex" unicode="&#xca;" horiz-adv-x="1229" d="M57 0 L319 1349 L1238 1349 L1208 1193 L480 1193 L398 771 L1066 771 L1036 617 L368 617 L278 156 L1047 156 L1017 0 L57 0 Z M1124 1465 L1120 1445 L1015 1445 L823 1583 L821 1583 L562 1445 L458 1445 L462 1465 L763 1704 L927 1704 L1124 1465 Z " />
<glyph glyph-name="Edieresis" unicode="&#xcb;" horiz-adv-x="1229" d="M57 0 L319 1349 L1238 1349 L1208 1193 L480 1193 L398 771 L1066 771 L1036 617 L368 617 L278 156 L1047 156 L1017 0 L57 0 Z M925 1445 L961 1629 L1124 1629 L1088 1445 L925 1445 Z M531 1445 L567 1629 L732 1629 L696 1445 L531 1445 Z " />
<glyph glyph-name="Igrave" unicode="&#xcc;" horiz-adv-x="1229" d="M359 1349 L1182 1349 L1152 1193 L836 1193 L634 156 L950 156 L920 0 L97 0 L127 156 L443 156 L645 1193 L329 1193 L359 1349 Z M796 1445 L541 1675 L547 1704 L744 1704 L924 1465 L920 1445 L796 1445 Z " />
<glyph glyph-name="Iacute" unicode="&#xcd;" horiz-adv-x="1229" d="M359 1349 L1182 1349 L1152 1193 L836 1193 L634 156 L950 156 L920 0 L97 0 L127 156 L443 156 L645 1193 L329 1193 L359 1349 Z M680 1445 L684 1465 L958 1704 L1155 1704 L1149 1675 L804 1445 L680 1445 Z " />
<glyph glyph-name="Icircumflex" unicode="&#xce;" horiz-adv-x="1229" d="M359 1349 L1182 1349 L1152 1193 L836 1193 L634 156 L950 156 L920 0 L97 0 L127 156 L443 156 L645 1193 L329 1193 L359 1349 Z M1124 1465 L1120 1445 L1015 1445 L823 1583 L821 1583 L562 1445 L458 1445 L462 1465 L763 1704 L927 1704 L1124 1465 Z " />
<glyph glyph-name="Idieresis" unicode="&#xcf;" horiz-adv-x="1229" d="M359 1349 L1182 1349 L1152 1193 L836 1193 L634 156 L950 156 L920 0 L97 0 L127 156 L443 156 L645 1193 L329 1193 L359 1349 Z M905 1445 L941 1629 L1104 1629 L1068 1445 L905 1445 Z M511 1445 L547 1629 L712 1629 L676 1445 L511 1445 Z " />
<glyph glyph-name="Eth" unicode="&#xd0;" horiz-adv-x="1229" d="M427 0 L57 0 L173 597 L38 597 L67 746 L202 746 L319 1349 L630 1349 Q1175 1349 1175 890 Q1175 732 1121 555 Q1067 378 969 253.5 Q871 129 734 64.5 Q597 0 427 0 Z M653 597 L364 597 L278 156 L440 156 Q568 156 665.5 204.5 Q763 253 832 351 Q901 449 941 597 Q981 745 981 865 Q981 1038 886.5 1115.5 Q792 1193 601 1193 L480 1193 L393 746 L682 746 L653 597 Z " />
<glyph glyph-name="Ntilde" unicode="&#xd1;" horiz-adv-x="1229" d="M731 0 L431 1130 Q416 969 397 876 L227 0 L57 0 L319 1349 L541 1349 L848 211 Q860 366 883 485 L1051 1349 L1223 1349 L961 0 L731 0 Z M946 1446 Q904 1446 866 1464.5 Q828 1483 792 1505.5 Q756 1528 721.5 1546.5 Q687 1565 652 1565 Q615 1565 591 1541.5 Q567 1518 542 1446 L431 1446 Q473 1583 534.5 1638.5 Q596 1694 683 1694 Q727 1694 765.5 1675.5 Q804 1657 839.5 1634.5 Q875 1612 908.5 1593.5 Q942 1575 975 1575 Q1015 1575 1040 1602.5 Q1065 1630 1085 1694 L1197 1694 Q1166 1597 1133.5 1548.5 Q1101 1500 1055 1473 Q1009 1446 946 1446 Z " />
<glyph glyph-name="Ograve" unicode="&#xd2;" horiz-adv-x="1229" d="M504 -20 Q302 -20 202 96.5 Q102 213 102 430 Q102 590 151.5 781 Q201 972 288.5 1104.5 Q376 1237 498 1303.5 Q620 1370 776 1370 Q974 1370 1077 1259.5 Q1180 1149 1180 928 Q1180 773 1131 582 Q1082 391 992 254.5 Q902 118 778 49 Q654 -20 504 -20 Z M978 913 Q978 1214 746 1214 Q610 1214 514.5 1114.5 Q419 1015 361.5 813 Q304 611 304 446 Q304 135 535 135 Q635 135 711 187 Q787 239 845.5 351 Q904 463 941 628.5 Q978 794 978 913 Z M791 1445 L536 1675 L542 1704 L739 1704 L919 1465 L915 1445 L791 1445 Z " />
<glyph glyph-name="Oacute" unicode="&#xd3;" horiz-adv-x="1229" d="M504 -20 Q302 -20 202 96.5 Q102 213 102 430 Q102 590 151.5 781 Q201 972 288.5 1104.5 Q376 1237 498 1303.5 Q620 1370 776 1370 Q974 1370 1077 1259.5 Q1180 1149 1180 928 Q1180 773 1131 582 Q1082 391 992 254.5 Q902 118 778 49 Q654 -20 504 -20 Z M978 913 Q978 1214 746 1214 Q610 1214 514.5 1114.5 Q419 1015 361.5 813 Q304 611 304 446 Q304 135 535 135 Q635 135 711 187 Q787 239 845.5 351 Q904 463 941 628.5 Q978 794 978 913 Z M675 1445 L679 1465 L953 1704 L1150 1704 L1144 1675 L799 1445 L675 1445 Z " />
<glyph glyph-name="Ocircumflex" unicode="&#xd4;" horiz-adv-x="1229" d="M504 -20 Q302 -20 202 96.5 Q102 213 102 430 Q102 590 151.5 781 Q201 972 288.5 1104.5 Q376 1237 498 1303.5 Q620 1370 776 1370 Q974 1370 1077 1259.5 Q1180 1149 1180 928 Q1180 773 1131 582 Q1082 391 992 254.5 Q902 118 778 49 Q654 -20 504 -20 Z M978 913 Q978 1214 746 1214 Q610 1214 514.5 1114.5 Q419 1015 361.5 813 Q304 611 304 446 Q304 135 535 135 Q635 135 711 187 Q787 239 845.5 351 Q904 463 941 628.5 Q978 794 978 913 Z M1124 1465 L1120 1445 L1015 1445 L823 1583 L821 1583 L562 1445 L458 1445 L462 1465 L763 1704 L927 1704 L1124 1465 Z " />
<glyph glyph-name="Otilde" unicode="&#xd5;" horiz-adv-x="1229" d="M504 -20 Q302 -20 202 96.5 Q102 213 102 430 Q102 590 151.5 781 Q201 972 288.5 1104.5 Q376 1237 498 1303.5 Q620 1370 776 1370 Q974 1370 1077 1259.5 Q1180 1149 1180 928 Q1180 773 1131 582 Q1082 391 992 254.5 Q902 118 778 49 Q654 -20 504 -20 Z M978 913 Q978 1214 746 1214 Q610 1214 514.5 1114.5 Q419 1015 361.5 813 Q304 611 304 446 Q304 135 535 135 Q635 135 711 187 Q787 239 845.5 351 Q904 463 941 628.5 Q978 794 978 913 Z M945 1445 Q903 1445 865 1463.5 Q827 1482 791 1504.5 Q755 1527 720.5 1545.5 Q686 1564 651 1564 Q614 1564 590 1540.5 Q566 1517 541 1445 L430 1445 Q472 1582 533.5 1637.5 Q595 1693 682 1693 Q726 1693 764.5 1674.5 Q803 1656 838.5 1633.5 Q874 1611 907.5 1592.5 Q941 1574 974 1574 Q1014 1574 1039 1601.5 Q1064 1629 1084 1693 L1196 1693 Q1165 1596 1132.5 1547.5 Q1100 1499 1054 1472 Q1008 1445 945 1445 Z " />
<glyph glyph-name="Odieresis" unicode="&#xd6;" horiz-adv-x="1229" d="M504 -20 Q302 -20 202 96.5 Q102 213 102 430 Q102 590 151.5 781 Q201 972 288.5 1104.5 Q376 1237 498 1303.5 Q620 1370 776 1370 Q974 1370 1077 1259.5 Q1180 1149 1180 928 Q1180 773 1131 582 Q1082 391 992 254.5 Q902 118 778 49 Q654 -20 504 -20 Z M978 913 Q978 1214 746 1214 Q610 1214 514.5 1114.5 Q419 1015 361.5 813 Q304 611 304 446 Q304 135 535 135 Q635 135 711 187 Q787 239 845.5 351 Q904 463 941 628.5 Q978 794 978 913 Z M908 1445 L944 1629 L1107 1629 L1071 1445 L908 1445 Z M514 1445 L550 1629 L715 1629 L679 1445 L514 1445 Z " />
<glyph glyph-name="multiply" unicode="&#xd7;" horiz-adv-x="1229" d="M157 330 L511 684 L159 1036 L263 1139 L613 786 L963 1137 L1068 1032 L718 684 L1070 332 L968 227 L615 580 L259 225 L157 330 Z " />
<glyph glyph-name="Oslash" unicode="&#xd8;" horiz-adv-x="1229" d="M504 -20 Q284 -20 185 118 L38 -38 L-44 27 L134 216 Q102 307 102 429 Q102 590 151.5 781 Q201 972 288.5 1104.5 Q376 1237 498 1303.5 Q620 1370 776 1370 Q994 1370 1095 1236 L1242 1392 L1323 1327 L1147 1140 Q1180 1050 1180 927 Q1180 773 1131 582.5 Q1082 392 992 255.5 Q902 119 778 49.5 Q654 -20 504 -20 Z M978 908 L976 959 L331 273 Q383 135 535 135 Q635 135 711 187 Q787 239 845.5 351 Q904 463 941 628.5 Q978 794 978 908 Z M305 445 Q305 410 306 399 L951 1083 Q899 1214 746 1214 Q611 1214 515.5 1116 Q420 1018 362.5 817.5 Q305 617 305 445 Z " />
<glyph glyph-name="Ugrave" unicode="&#xd9;" horiz-adv-x="1229" d="M496 -20 Q295 -20 202.5 57.5 Q110 135 110 301 Q110 378 129 472 L299 1349 L490 1349 L325 498 Q305 396 305 328 Q305 226 355.5 180.5 Q406 135 525 135 Q686 135 766.5 217 Q847 299 889 511 L1052 1349 L1242 1349 L1075 490 Q1023 224 886 102 Q749 -20 496 -20 Z M780 1445 L525 1675 L531 1704 L728 1704 L908 1465 L904 1445 L780 1445 Z " />
<glyph glyph-name="Uacute" unicode="&#xda;" horiz-adv-x="1229" d="M496 -20 Q295 -20 202.5 57.5 Q110 135 110 301 Q110 378 129 472 L299 1349 L490 1349 L325 498 Q305 396 305 328 Q305 226 355.5 180.5 Q406 135 525 135 Q686 135 766.5 217 Q847 299 889 511 L1052 1349 L1242 1349 L1075 490 Q1023 224 886 102 Q749 -20 496 -20 Z M663 1445 L667 1465 L941 1704 L1138 1704 L1132 1675 L787 1445 L663 1445 Z " />
<glyph glyph-name="Ucircumflex" unicode="&#xdb;" horiz-adv-x="1229" d="M496 -20 Q295 -20 202.5 57.5 Q110 135 110 301 Q110 378 129 472 L299 1349 L490 1349 L325 498 Q305 396 305 328 Q305 226 355.5 180.5 Q406 135 525 135 Q686 135 766.5 217 Q847 299 889 511 L1052 1349 L1242 1349 L1075 490 Q1023 224 886 102 Q749 -20 496 -20 Z M1124 1465 L1120 1445 L1015 1445 L823 1583 L821 1583 L562 1445 L458 1445 L462 1465 L763 1704 L927 1704 L1124 1465 Z " />
<glyph glyph-name="Udieresis" unicode="&#xdc;" horiz-adv-x="1229" d="M496 -20 Q295 -20 202.5 57.5 Q110 135 110 301 Q110 378 129 472 L299 1349 L490 1349 L325 498 Q305 396 305 328 Q305 226 355.5 180.5 Q406 135 525 135 Q686 135 766.5 217 Q847 299 889 511 L1052 1349 L1242 1349 L1075 490 Q1023 224 886 102 Q749 -20 496 -20 Z M905 1445 L941 1629 L1104 1629 L1068 1445 L905 1445 Z M511 1445 L547 1629 L712 1629 L676 1445 L511 1445 Z " />
<glyph glyph-name="Yacute" unicode="&#xdd;" horiz-adv-x="1229" d="M603 0 L415 0 L529 584 L193 1349 L398 1349 L653 738 L1144 1349 L1349 1349 L717 584 L603 0 Z M678 1445 L682 1465 L956 1704 L1153 1704 L1147 1675 L802 1445 L678 1445 Z " />
<glyph glyph-name="Thorn" unicode="&#xde;" horiz-adv-x="1229" d="M578 254 L297 254 L248 0 L57 0 L319 1349 L510 1349 L465 1114 L734 1114 Q939 1114 1049 1030 Q1159 946 1159 790 Q1159 650 1085 522.5 Q1011 395 877.5 324.5 Q744 254 578 254 Z M963 757 Q963 860 893.5 915.5 Q824 971 683 971 L437 971 L325 395 L579 395 Q695 395 781 440.5 Q867 486 915 573 Q963 660 963 757 Z " />
<glyph glyph-name="germandbls" unicode="&#xdf;" horiz-adv-x="1229" d="M698 -29 Q529 -29 425 20 L455 184 Q506 151 580 133 Q654 115 722 115 Q826 115 888 176.5 Q950 238 950 328 Q950 380 918.5 423.5 Q887 467 811 519 Q742 567 707 617.5 Q672 668 672 731 Q672 757 678 785 Q700 899 829 991 Q899 1042 932.5 1083 Q966 1124 975 1173 L978 1202 Q978 1267 920.5 1305 Q863 1343 765 1343 Q619 1343 533 1263.5 Q447 1184 415 1021 L217 0 L37 0 L237 1027 Q281 1255 421 1369.5 Q561 1484 792 1484 Q961 1484 1058 1419 Q1155 1354 1155 1239 L1150 1187 Q1121 1047 991 948 Q912 889 883 857.5 Q854 826 847 791 L845 771 Q845 738 872.5 704 Q900 670 976 615 Q1126 506 1126 362 Q1126 267 1074.5 171.5 Q1023 76 925.5 23.5 Q828 -29 698 -29 Z " />
<glyph glyph-name="agrave" unicode="&#xe0;" horiz-adv-x="1229" d="M1018 111 Q1045 111 1078 118 L1056 6 Q986 -10 914 -10 Q827 -10 790.5 28 Q754 66 754 142 L759 207 L753 207 Q664 85 564.5 32.5 Q465 -20 337 -20 Q204 -20 138.5 42 Q73 104 73 213 Q73 254 82 302 Q150 651 605 656 L841 660 Q858 741 860.5 762.5 Q863 784 863 808 Q863 893 817 929 Q771 965 679 965 Q563 965 503.5 925.5 Q444 886 413 793 L228 810 Q282 959 400.5 1030.5 Q519 1102 708 1102 Q1048 1102 1048 835 Q1048 790 1038 738 L948 272 Q939 229 939 196 Q939 154 957 132.5 Q975 111 1018 111 Z M410 117 Q505 117 588 162.5 Q671 208 727 285 Q783 362 799 445 L817 534 L626 530 Q491 528 416.5 494.5 Q342 461 303.5 394.5 Q265 328 265 251 Q265 189 301.5 153 Q338 117 410 117 Z M716 1201 L461 1431 L467 1460 L664 1460 L844 1221 L840 1201 L716 1201 Z " />
<glyph glyph-name="aacute" unicode="&#xe1;" horiz-adv-x="1229" d="M1018 111 Q1045 111 1078 118 L1056 6 Q986 -10 914 -10 Q827 -10 790.5 28 Q754 66 754 142 L759 207 L753 207 Q664 85 564.5 32.5 Q465 -20 337 -20 Q204 -20 138.5 42 Q73 104 73 213 Q73 254 82 302 Q150 651 605 656 L841 660 Q858 741 860.5 762.5 Q863 784 863 808 Q863 893 817 929 Q771 965 679 965 Q563 965 503.5 925.5 Q444 886 413 793 L228 810 Q282 959 400.5 1030.5 Q519 1102 708 1102 Q1048 1102 1048 835 Q1048 790 1038 738 L948 272 Q939 229 939 196 Q939 154 957 132.5 Q975 111 1018 111 Z M410 117 Q505 117 588 162.5 Q671 208 727 285 Q783 362 799 445 L817 534 L626 530 Q491 528 416.5 494.5 Q342 461 303.5 394.5 Q265 328 265 251 Q265 189 301.5 153 Q338 117 410 117 Z M607 1201 L611 1221 L885 1460 L1082 1460 L1076 1431 L731 1201 L607 1201 Z " />
<glyph glyph-name="acircumflex" unicode="&#xe2;" horiz-adv-x="1229" d="M1018 111 Q1045 111 1078 118 L1056 6 Q986 -10 914 -10 Q827 -10 790.5 28 Q754 66 754 142 L759 207 L753 207 Q664 85 564.5 32.5 Q465 -20 337 -20 Q204 -20 138.5 42 Q73 104 73 213 Q73 254 82 302 Q150 651 605 656 L841 660 Q858 741 860.5 762.5 Q863 784 863 808 Q863 893 817 929 Q771 965 679 965 Q563 965 503.5 925.5 Q444 886 413 793 L228 810 Q282 959 400.5 1030.5 Q519 1102 708 1102 Q1048 1102 1048 835 Q1048 790 1038 738 L948 272 Q939 229 939 196 Q939 154 957 132.5 Q975 111 1018 111 Z M410 117 Q505 117 588 162.5 Q671 208 727 285 Q783 362 799 445 L817 534 L626 530 Q491 528 416.5 494.5 Q342 461 303.5 394.5 Q265 328 265 251 Q265 189 301.5 153 Q338 117 410 117 Z M1059 1221 L1055 1201 L950 1201 L758 1339 L756 1339 L497 1201 L393 1201 L397 1221 L698 1460 L862 1460 L1059 1221 Z " />
<glyph glyph-name="atilde" unicode="&#xe3;" horiz-adv-x="1229" d="M1018 111 Q1045 111 1078 118 L1056 6 Q986 -10 914 -10 Q827 -10 790.5 28 Q754 66 754 142 L759 207 L753 207 Q664 85 564.5 32.5 Q465 -20 337 -20 Q204 -20 138.5 42 Q73 104 73 213 Q73 254 82 302 Q150 651 605 656 L841 660 Q858 741 860.5 762.5 Q863 784 863 808 Q863 893 817 929 Q771 965 679 965 Q563 965 503.5 925.5 Q444 886 413 793 L228 810 Q282 959 400.5 1030.5 Q519 1102 708 1102 Q1048 1102 1048 835 Q1048 790 1038 738 L948 272 Q939 229 939 196 Q939 154 957 132.5 Q975 111 1018 111 Z M410 117 Q505 117 588 162.5 Q671 208 727 285 Q783 362 799 445 L817 534 L626 530 Q491 528 416.5 494.5 Q342 461 303.5 394.5 Q265 328 265 251 Q265 189 301.5 153 Q338 117 410 117 Z M890 1201 Q848 1201 810 1219.5 Q772 1238 736 1260.5 Q700 1283 665.5 1301.5 Q631 1320 596 1320 Q559 1320 535 1296.5 Q511 1273 486 1201 L375 1201 Q417 1338 478.5 1393.5 Q540 1449 627 1449 Q671 1449 709.5 1430.5 Q748 1412 783.5 1389.5 Q819 1367 852.5 1348.5 Q886 1330 919 1330 Q959 1330 984 1357.5 Q1009 1385 1029 1449 L1141 1449 Q1110 1352 1077.5 1303.5 Q1045 1255 999 1228 Q953 1201 890 1201 Z " />
<glyph glyph-name="adieresis" unicode="&#xe4;" horiz-adv-x="1229" d="M1018 111 Q1045 111 1078 118 L1056 6 Q986 -10 914 -10 Q827 -10 790.5 28 Q754 66 754 142 L759 207 L753 207 Q664 85 564.5 32.5 Q465 -20 337 -20 Q204 -20 138.5 42 Q73 104 73 213 Q73 254 82 302 Q150 651 605 656 L841 660 Q858 741 860.5 762.5 Q863 784 863 808 Q863 893 817 929 Q771 965 679 965 Q563 965 503.5 925.5 Q444 886 413 793 L228 810 Q282 959 400.5 1030.5 Q519 1102 708 1102 Q1048 1102 1048 835 Q1048 790 1038 738 L948 272 Q939 229 939 196 Q939 154 957 132.5 Q975 111 1018 111 Z M410 117 Q505 117 588 162.5 Q671 208 727 285 Q783 362 799 445 L817 534 L626 530 Q491 528 416.5 494.5 Q342 461 303.5 394.5 Q265 328 265 251 Q265 189 301.5 153 Q338 117 410 117 Z M845 1219 L881 1403 L1044 1403 L1008 1219 L845 1219 Z M451 1219 L487 1403 L652 1403 L616 1219 L451 1219 Z " />
<glyph glyph-name="aring" unicode="&#xe5;" horiz-adv-x="1229" d="M1018 111 Q1045 111 1078 118 L1056 6 Q986 -10 914 -10 Q827 -10 790.5 28 Q754 66 754 142 L759 207 L753 207 Q664 85 564.5 32.5 Q465 -20 337 -20 Q204 -20 138.5 42 Q73 104 73 213 Q73 254 82 302 Q150 651 605 656 L841 660 Q858 741 860.5 762.5 Q863 784 863 808 Q863 893 817 929 Q771 965 679 965 Q563 965 503.5 925.5 Q444 886 413 793 L228 810 Q282 959 400.5 1030.5 Q519 1102 708 1102 Q1048 1102 1048 835 Q1048 790 1038 738 L948 272 Q939 229 939 196 Q939 154 957 132.5 Q975 111 1018 111 Z M410 117 Q505 117 588 162.5 Q671 208 727 285 Q783 362 799 445 L817 534 L626 530 Q491 528 416.5 494.5 Q342 461 303.5 394.5 Q265 328 265 251 Q265 189 301.5 153 Q338 117 410 117 Z M724 1148 Q628 1148 572.5 1191.5 Q517 1235 517 1310 Q517 1369 552 1426 Q587 1483 653.5 1515 Q720 1547 802 1547 Q897 1547 953 1505 Q1009 1463 1009 1386 Q1009 1323 972 1266.5 Q935 1210 870 1179 Q805 1148 724 1148 Z M885 1362 Q885 1394 856 1412.5 Q827 1431 779 1431 Q717 1431 678.5 1403 Q640 1375 640 1335 Q640 1302 668 1283 Q696 1264 747 1264 Q810 1264 847.5 1293 Q885 1322 885 1362 Z " />
<glyph glyph-name="ae" unicode="&#xe6;" horiz-adv-x="1229" d="M672 503 Q650 410 650 313 Q650 115 781 115 Q856 115 910 162 Q964 209 994 281 L1123 236 Q1004 -20 759 -20 Q638 -20 580.5 34.5 Q523 89 512 212 Q370 -20 169 -20 Q-38 -20 -38 190 Q-38 241 -26 302 Q42 651 373 656 L540 660 Q567 793 567 844 Q567 909 542 937 Q517 965 464 965 Q390 965 348.5 924.5 Q307 884 282 793 L117 810 Q164 959 256.5 1030.5 Q349 1102 489 1102 Q667 1102 709 963 Q820 1102 982 1102 Q1234 1102 1234 781 Q1234 670 1205 527 L1201 503 L672 503 Z M135 230 Q135 117 221 117 Q314 117 392.5 212 Q471 307 498 445 L516 534 L393 530 Q298 527 245 490 Q192 453 163.5 378 Q135 303 135 230 Z M942 969 Q861 969 797.5 881.5 Q734 794 701 641 L1062 641 Q1073 727 1073 776 Q1073 876 1040.5 922.5 Q1008 969 942 969 Z " />
<glyph glyph-name="ccedilla" unicode="&#xe7;" horiz-adv-x="1229" d="M741 1102 Q922 1102 1023 1015.5 Q1124 929 1124 779 L930 765 L930 771 Q930 857 877 909 Q824 961 706 961 Q572 961 485 890.5 Q398 820 349.5 665 Q301 510 301 372 Q301 241 361 180 Q421 119 541 119 Q649 119 730.5 172 Q812 225 850 334 L1038 322 Q1006 226 931.5 147.5 Q857 69 750.5 24.5 Q644 -20 522 -20 Q319 -20 215.5 79 Q112 178 112 369 Q112 496 153.5 639.5 Q195 783 277.5 889 Q360 995 476.5 1048.5 Q593 1102 741 1102 Z M355 -444 Q298 -444 265 -440 L285 -342 Q333 -348 369 -348 Q515 -348 533 -262 L535 -244 Q535 -180 416 -180 Q373 -180 359 -182 L459 0 L566 0 L508 -100 Q589 -102 629 -134 Q669 -166 669 -222 Q669 -281 635.5 -335 Q602 -389 532.5 -416.5 Q463 -444 355 -444 Z " />
<glyph glyph-name="egrave" unicode="&#xe8;" horiz-adv-x="1229" d="M315 503 Q302 434 302 382 Q302 253 364.5 184 Q427 115 540 115 Q642 115 728.5 159 Q815 203 857 281 L1006 236 Q937 112 807.5 46 Q678 -20 514 -20 Q320 -20 218 80.5 Q116 181 116 370 Q116 494 156 638.5 Q196 783 276 888.5 Q356 994 469 1048 Q582 1102 726 1102 Q1112 1102 1112 723 Q1112 632 1091 527 L1087 503 L315 503 Z M702 969 Q569 969 474.5 882 Q380 795 344 641 L928 641 L932 713 Q932 969 702 969 Z M751 1201 L496 1431 L502 1460 L699 1460 L879 1221 L875 1201 L751 1201 Z " />
<glyph glyph-name="eacute" unicode="&#xe9;" horiz-adv-x="1229" d="M315 503 Q302 434 302 382 Q302 253 364.5 184 Q427 115 540 115 Q642 115 728.5 159 Q815 203 857 281 L1006 236 Q937 112 807.5 46 Q678 -20 514 -20 Q320 -20 218 80.5 Q116 181 116 370 Q116 494 156 638.5 Q196 783 276 888.5 Q356 994 469 1048 Q582 1102 726 1102 Q1112 1102 1112 723 Q1112 632 1091 527 L1087 503 L315 503 Z M702 969 Q569 969 474.5 882 Q380 795 344 641 L928 641 L932 713 Q932 969 702 969 Z M641 1201 L645 1221 L919 1460 L1116 1460 L1110 1431 L765 1201 L641 1201 Z " />
<glyph glyph-name="ecircumflex" unicode="&#xea;" horiz-adv-x="1229" d="M315 503 Q302 434 302 382 Q302 253 364.5 184 Q427 115 540 115 Q642 115 728.5 159 Q815 203 857 281 L1006 236 Q937 112 807.5 46 Q678 -20 514 -20 Q320 -20 218 80.5 Q116 181 116 370 Q116 494 156 638.5 Q196 783 276 888.5 Q356 994 469 1048 Q582 1102 726 1102 Q1112 1102 1112 723 Q1112 632 1091 527 L1087 503 L315 503 Z M702 969 Q569 969 474.5 882 Q380 795 344 641 L928 641 L932 713 Q932 969 702 969 Z M1084 1221 L1080 1201 L975 1201 L783 1339 L781 1339 L522 1201 L418 1201 L422 1221 L723 1460 L887 1460 L1084 1221 Z " />
<glyph glyph-name="edieresis" unicode="&#xeb;" horiz-adv-x="1229" d="M315 503 Q302 434 302 382 Q302 253 364.5 184 Q427 115 540 115 Q642 115 728.5 159 Q815 203 857 281 L1006 236 Q937 112 807.5 46 Q678 -20 514 -20 Q320 -20 218 80.5 Q116 181 116 370 Q116 494 156 638.5 Q196 783 276 888.5 Q356 994 469 1048 Q582 1102 726 1102 Q1112 1102 1112 723 Q1112 632 1091 527 L1087 503 L315 503 Z M702 969 Q569 969 474.5 882 Q380 795 344 641 L928 641 L932 713 Q932 969 702 969 Z M869 1219 L905 1403 L1068 1403 L1032 1219 L869 1219 Z M475 1219 L511 1403 L676 1403 L640 1219 L475 1219 Z " />
<glyph glyph-name="igrave" unicode="&#xec;" horiz-adv-x="1229" d="M668 142 L1048 142 L1020 0 L38 0 L66 142 L488 142 L643 940 L324 940 L351 1082 L850 1082 L668 142 Z M763 1201 L508 1431 L514 1460 L711 1460 L891 1221 L887 1201 L763 1201 Z " />
<glyph glyph-name="iacute" unicode="&#xed;" horiz-adv-x="1229" d="M668 142 L1048 142 L1020 0 L38 0 L66 142 L488 142 L643 940 L324 940 L351 1082 L850 1082 L668 142 Z M634 1201 L638 1221 L912 1460 L1109 1460 L1103 1431 L758 1201 L634 1201 Z " />
<glyph glyph-name="icircumflex" unicode="&#xee;" horiz-adv-x="1229" d="M668 142 L1048 142 L1020 0 L38 0 L66 142 L488 142 L643 940 L324 940 L351 1082 L850 1082 L668 142 Z M1087 1221 L1083 1201 L978 1201 L786 1339 L784 1339 L525 1201 L421 1201 L425 1221 L726 1460 L890 1460 L1087 1221 Z " />
<glyph glyph-name="idieresis" unicode="&#xef;" horiz-adv-x="1229" d="M668 142 L1048 142 L1020 0 L38 0 L66 142 L488 142 L643 940 L324 940 L351 1082 L850 1082 L668 142 Z M902 1219 L938 1403 L1101 1403 L1065 1219 L902 1219 Z M508 1219 L544 1403 L709 1403 L673 1219 L508 1219 Z " />
<glyph glyph-name="eth" unicode="&#xf0;" horiz-adv-x="1229" d="M697 979 Q834 979 917 920 Q869 1116 758 1237 L476 1122 L442 1232 L679 1326 Q582 1417 467 1484 L676 1484 Q751 1447 827 1382 L1113 1496 L1147 1388 L918 1296 Q1121 1073 1121 749 Q1121 591 1079 437.5 Q1037 284 959 184.5 Q881 85 765.5 32.5 Q650 -20 496 -20 Q302 -20 200 71.5 Q98 163 98 339 Q98 459 141 588 Q184 717 259.5 802.5 Q335 888 443 933.5 Q551 979 697 979 Z M917 622 Q917 737 859.5 791.5 Q802 846 675 846 Q543 846 460.5 786 Q378 726 333 598.5 Q288 471 288 348 Q288 227 346 170 Q404 113 520 113 Q621 113 693.5 147 Q766 181 814.5 251 Q863 321 890 431.5 Q917 542 917 622 Z " />
<glyph glyph-name="ntilde" unicode="&#xf1;" horiz-adv-x="1229" d="M763 0 L898 695 Q909 753 909 793 Q909 881 865.5 922 Q822 963 730 963 Q606 963 509.5 872.5 Q413 782 382 627 L260 0 L80 0 L245 851 Q252 885 258.5 922.5 Q265 960 270.5 993.5 Q276 1027 280 1051 Q284 1075 284 1082 L454 1082 Q454 1076 445.5 1014.5 Q437 953 426 897 L429 897 Q497 992 590 1047 Q683 1102 815 1102 Q1098 1102 1098 848 Q1098 791 1084 721 L944 0 L763 0 Z M908 1201 Q866 1201 828 1219.5 Q790 1238 754 1260.5 Q718 1283 683.5 1301.5 Q649 1320 614 1320 Q577 1320 553 1296.5 Q529 1273 504 1201 L393 1201 Q435 1338 496.5 1393.5 Q558 1449 645 1449 Q689 1449 727.5 1430.5 Q766 1412 801.5 1389.5 Q837 1367 870.5 1348.5 Q904 1330 937 1330 Q977 1330 1002 1357.5 Q1027 1385 1047 1449 L1159 1449 Q1128 1352 1095.5 1303.5 Q1063 1255 1017 1228 Q971 1201 908 1201 Z " />
<glyph glyph-name="ograve" unicode="&#xf2;" horiz-adv-x="1229" d="M500 -20 Q312 -20 212 78.5 Q112 177 112 367 Q112 446 130 542 Q185 821 338.5 961.5 Q492 1102 724 1102 Q923 1102 1020 1010 Q1117 918 1117 732 Q1117 597 1075 447.5 Q1033 298 952 192 Q871 86 756 33 Q641 -20 500 -20 Z M928 720 Q928 845 873.5 907 Q819 969 701 969 Q569 969 482.5 892 Q396 815 348.5 662 Q301 509 301 373 Q301 113 524 113 Q625 113 696 154.5 Q767 196 818.5 283 Q870 370 899 498.5 Q928 627 928 720 Z M760 1201 L505 1431 L511 1460 L708 1460 L888 1221 L884 1201 L760 1201 Z " />
<glyph glyph-name="oacute" unicode="&#xf3;" horiz-adv-x="1229" d="M500 -20 Q312 -20 212 78.5 Q112 177 112 367 Q112 446 130 542 Q185 821 338.5 961.5 Q492 1102 724 1102 Q923 1102 1020 1010 Q1117 918 1117 732 Q1117 597 1075 447.5 Q1033 298 952 192 Q871 86 756 33 Q641 -20 500 -20 Z M928 720 Q928 845 873.5 907 Q819 969 701 969 Q569 969 482.5 892 Q396 815 348.5 662 Q301 509 301 373 Q301 113 524 113 Q625 113 696 154.5 Q767 196 818.5 283 Q870 370 899 498.5 Q928 627 928 720 Z M631 1201 L635 1221 L909 1460 L1106 1460 L1100 1431 L755 1201 L631 1201 Z " />
<glyph glyph-name="ocircumflex" unicode="&#xf4;" horiz-adv-x="1229" d="M500 -20 Q312 -20 212 78.5 Q112 177 112 367 Q112 446 130 542 Q185 821 338.5 961.5 Q492 1102 724 1102 Q923 1102 1020 1010 Q1117 918 1117 732 Q1117 597 1075 447.5 Q1033 298 952 192 Q871 86 756 33 Q641 -20 500 -20 Z M928 720 Q928 845 873.5 907 Q819 969 701 969 Q569 969 482.5 892 Q396 815 348.5 662 Q301 509 301 373 Q301 113 524 113 Q625 113 696 154.5 Q767 196 818.5 283 Q870 370 899 498.5 Q928 627 928 720 Z M1077 1221 L1073 1201 L968 1201 L776 1339 L774 1339 L515 1201 L411 1201 L415 1221 L716 1460 L880 1460 L1077 1221 Z " />
<glyph glyph-name="otilde" unicode="&#xf5;" horiz-adv-x="1229" d="M500 -20 Q312 -20 212 78.5 Q112 177 112 367 Q112 446 130 542 Q185 821 338.5 961.5 Q492 1102 724 1102 Q923 1102 1020 1010 Q1117 918 1117 732 Q1117 597 1075 447.5 Q1033 298 952 192 Q871 86 756 33 Q641 -20 500 -20 Z M928 720 Q928 845 873.5 907 Q819 969 701 969 Q569 969 482.5 892 Q396 815 348.5 662 Q301 509 301 373 Q301 113 524 113 Q625 113 696 154.5 Q767 196 818.5 283 Q870 370 899 498.5 Q928 627 928 720 Z M898 1201 Q856 1201 818 1219.5 Q780 1238 744 1260.5 Q708 1283 673.5 1301.5 Q639 1320 604 1320 Q567 1320 543 1296.5 Q519 1273 494 1201 L383 1201 Q425 1338 486.5 1393.5 Q548 1449 635 1449 Q679 1449 717.5 1430.5 Q756 1412 791.5 1389.5 Q827 1367 860.5 1348.5 Q894 1330 927 1330 Q967 1330 992 1357.5 Q1017 1385 1037 1449 L1149 1449 Q1118 1352 1085.5 1303.5 Q1053 1255 1007 1228 Q961 1201 898 1201 Z " />
<glyph glyph-name="odieresis" unicode="&#xf6;" horiz-adv-x="1229" d="M500 -20 Q312 -20 212 78.5 Q112 177 112 367 Q112 446 130 542 Q185 821 338.5 961.5 Q492 1102 724 1102 Q923 1102 1020 1010 Q1117 918 1117 732 Q1117 597 1075 447.5 Q1033 298 952 192 Q871 86 756 33 Q641 -20 500 -20 Z M928 720 Q928 845 873.5 907 Q819 969 701 969 Q569 969 482.5 892 Q396 815 348.5 662 Q301 509 301 373 Q301 113 524 113 Q625 113 696 154.5 Q767 196 818.5 283 Q870 370 899 498.5 Q928 627 928 720 Z M861 1219 L897 1403 L1060 1403 L1024 1219 L861 1219 Z M467 1219 L503 1403 L668 1403 L632 1219 L467 1219 Z " />
<glyph glyph-name="divide" unicode="&#xf7;" horiz-adv-x="1229" d="M529 958 L529 1141 L697 1141 L697 958 L529 958 Z M116 608 L116 754 L1111 754 L1111 608 L116 608 Z M529 223 L529 406 L697 406 L697 223 L529 223 Z " />
<glyph glyph-name="oslash" unicode="&#xf8;" horiz-adv-x="1229" d="M500 -20 Q297 -20 190 87 L96 0 L33 68 L136 163 Q92 248 92 371 Q92 502 135.5 646.5 Q179 791 261.5 894.5 Q344 998 459.5 1050 Q575 1102 724 1102 Q937 1102 1040 1002 L1128 1084 L1192 1016 L1095 926 Q1137 845 1137 725 Q1137 595 1094.5 446.5 Q1052 298 968.5 192 Q885 86 767 33 Q649 -20 500 -20 Z M947 713 Q947 744 942 784 L321 208 Q380 113 524 113 Q631 113 706 153.5 Q781 194 834.5 280.5 Q888 367 917.5 493 Q947 619 947 713 Z M281 379 Q281 339 287 304 L908 880 Q851 969 701 969 Q598 969 523 928.5 Q448 888 394.5 804 Q341 720 311 597 Q281 474 281 379 Z " />
<glyph glyph-name="ugrave" unicode="&#xf9;" horiz-adv-x="1229" d="M470 1082 L337 396 Q323 324 323 273 Q323 189 365.5 154 Q408 119 507 119 Q638 119 730 209 Q822 299 851 455 L973 1082 L1154 1082 L989 231 Q982 197 975.5 159.5 Q969 122 963.5 88.5 Q958 55 954 31 Q950 7 950 0 L780 0 Q780 11 790.5 77.5 Q801 144 808 185 L805 185 Q722 73 629.5 26.5 Q537 -20 419 -20 Q273 -20 204 38 Q135 96 135 223 Q135 283 150 361 L290 1082 L470 1082 Z M736 1201 L481 1431 L487 1460 L684 1460 L864 1221 L860 1201 L736 1201 Z " />
<glyph glyph-name="uacute" unicode="&#xfa;" horiz-adv-x="1229" d="M470 1082 L337 396 Q323 324 323 273 Q323 189 365.5 154 Q408 119 507 119 Q638 119 730 209 Q822 299 851 455 L973 1082 L1154 1082 L989 231 Q982 197 975.5 159.5 Q969 122 963.5 88.5 Q958 55 954 31 Q950 7 950 0 L780 0 Q780 11 790.5 77.5 Q801 144 808 185 L805 185 Q722 73 629.5 26.5 Q537 -20 419 -20 Q273 -20 204 38 Q135 96 135 223 Q135 283 150 361 L290 1082 L470 1082 Z M620 1201 L624 1221 L898 1460 L1095 1460 L1089 1431 L744 1201 L620 1201 Z " />
<glyph glyph-name="ucircumflex" unicode="&#xfb;" horiz-adv-x="1229" d="M470 1082 L337 396 Q323 324 323 273 Q323 189 365.5 154 Q408 119 507 119 Q638 119 730 209 Q822 299 851 455 L973 1082 L1154 1082 L989 231 Q982 197 975.5 159.5 Q969 122 963.5 88.5 Q958 55 954 31 Q950 7 950 0 L780 0 Q780 11 790.5 77.5 Q801 144 808 185 L805 185 Q722 73 629.5 26.5 Q537 -20 419 -20 Q273 -20 204 38 Q135 96 135 223 Q135 283 150 361 L290 1082 L470 1082 Z M1077 1221 L1073 1201 L968 1201 L776 1339 L774 1339 L515 1201 L411 1201 L415 1221 L716 1460 L880 1460 L1077 1221 Z " />
<glyph glyph-name="udieresis" unicode="&#xfc;" horiz-adv-x="1229" d="M470 1082 L337 396 Q323 324 323 273 Q323 189 365.5 154 Q408 119 507 119 Q638 119 730 209 Q822 299 851 455 L973 1082 L1154 1082 L989 231 Q982 197 975.5 159.5 Q969 122 963.5 88.5 Q958 55 954 31 Q950 7 950 0 L780 0 Q780 11 790.5 77.5 Q801 144 808 185 L805 185 Q722 73 629.5 26.5 Q537 -20 419 -20 Q273 -20 204 38 Q135 96 135 223 Q135 283 150 361 L290 1082 L470 1082 Z M861 1219 L897 1403 L1060 1403 L1024 1219 L861 1219 Z M467 1219 L503 1403 L668 1403 L632 1219 L467 1219 Z " />
<glyph glyph-name="yacute" unicode="&#xfd;" horiz-adv-x="1229" d="M104 -425 Q32 -425 -17 -414 L9 -279 Q45 -285 92 -285 Q171 -285 252 -226 Q333 -167 406 -38 L433 11 L171 1082 L363 1082 L503 440 Q514 391 532.5 296.5 Q551 202 551 186 Q561 208 614 296 L1076 1082 L1266 1082 L600 0 Q460 -242 347.5 -333.5 Q235 -425 104 -425 Z M637 1201 L641 1221 L915 1460 L1112 1460 L1106 1431 L761 1201 L637 1201 Z " />
<glyph glyph-name="thorn" unicode="&#xfe;" horiz-adv-x="1229" d="M928 743 Q928 851 883.5 908 Q839 965 734 965 Q637 965 569.5 922.5 Q502 880 452.5 791.5 Q403 703 373 571.5 Q343 440 343 350 Q343 229 397 171 Q451 113 566 113 Q683 113 759.5 191 Q836 269 882 444 Q928 619 928 743 Z M439 904 Q509 1009 596.5 1056.5 Q684 1104 808 1104 Q1116 1104 1116 768 Q1116 673 1091 546 Q981 -20 589 -20 Q342 -20 294 164 L289 164 Q289 154 281 108 Q273 62 178 -425 L-3 -425 L368 1484 L548 1484 L466 1061 L432 904 L439 904 Z " />
<glyph glyph-name="ydieresis" unicode="&#xff;" horiz-adv-x="1229" d="M104 -425 Q32 -425 -17 -414 L9 -279 Q45 -285 92 -285 Q171 -285 252 -226 Q333 -167 406 -38 L433 11 L171 1082 L363 1082 L503 440 Q514 391 532.5 296.5 Q551 202 551 186 Q561 208 614 296 L1076 1082 L1266 1082 L600 0 Q460 -242 347.5 -333.5 Q235 -425 104 -425 Z M866 1219 L902 1403 L1065 1403 L1029 1219 L866 1219 Z M472 1219 L508 1403 L673 1403 L637 1219 L472 1219 Z " />
<glyph glyph-name="Amacron" unicode="&#x100;" horiz-adv-x="1229" d="M929 0 L865 382 L302 382 L91 0 L-105 0 L667 1349 L884 1349 L1123 0 L929 0 Z M745 1205 Q699 1114 662.5 1044 Q626 974 382 531 L845 531 L769 1031 L745 1205 Z M1077 1503 L526 1503 L551 1630 L1102 1630 L1077 1503 Z " />
<glyph glyph-name="amacron" unicode="&#x101;" horiz-adv-x="1229" d="M1018 111 Q1045 111 1078 118 L1056 6 Q986 -10 914 -10 Q827 -10 790.5 28 Q754 66 754 142 L759 207 L753 207 Q664 85 564.5 32.5 Q465 -20 337 -20 Q204 -20 138.5 42 Q73 104 73 213 Q73 254 82 302 Q150 651 605 656 L841 660 Q858 741 860.5 762.5 Q863 784 863 808 Q863 893 817 929 Q771 965 679 965 Q563 965 503.5 925.5 Q444 886 413 793 L228 810 Q282 959 400.5 1030.5 Q519 1102 708 1102 Q1048 1102 1048 835 Q1048 790 1038 738 L948 272 Q939 229 939 196 Q939 154 957 132.5 Q975 111 1018 111 Z M410 117 Q505 117 588 162.5 Q671 208 727 285 Q783 362 799 445 L817 534 L626 530 Q491 528 416.5 494.5 Q342 461 303.5 394.5 Q265 328 265 251 Q265 189 301.5 153 Q338 117 410 117 Z M986 1236 L435 1236 L460 1363 L1011 1363 L986 1236 Z " />
<glyph glyph-name="Abreve" unicode="&#x102;" horiz-adv-x="1229" d="M929 0 L865 382 L302 382 L91 0 L-105 0 L667 1349 L884 1349 L1123 0 L929 0 Z M745 1205 Q699 1114 662.5 1044 Q626 974 382 531 L845 531 L769 1031 L745 1205 Z M789 1446 Q669 1446 598.5 1515 Q528 1584 528 1699 L528 1705 L655 1705 Q663 1572 814 1572 Q899 1572 948.5 1607 Q998 1642 1027 1705 L1154 1705 Q1105 1583 1009 1514.5 Q913 1446 789 1446 Z " />
<glyph glyph-name="abreve" unicode="&#x103;" horiz-adv-x="1229" d="M1018 111 Q1045 111 1078 118 L1056 6 Q986 -10 914 -10 Q827 -10 790.5 28 Q754 66 754 142 L759 207 L753 207 Q664 85 564.5 32.5 Q465 -20 337 -20 Q204 -20 138.5 42 Q73 104 73 213 Q73 254 82 302 Q150 651 605 656 L841 660 Q858 741 860.5 762.5 Q863 784 863 808 Q863 893 817 929 Q771 965 679 965 Q563 965 503.5 925.5 Q444 886 413 793 L228 810 Q282 959 400.5 1030.5 Q519 1102 708 1102 Q1048 1102 1048 835 Q1048 790 1038 738 L948 272 Q939 229 939 196 Q939 154 957 132.5 Q975 111 1018 111 Z M410 117 Q505 117 588 162.5 Q671 208 727 285 Q783 362 799 445 L817 534 L626 530 Q491 528 416.5 494.5 Q342 461 303.5 394.5 Q265 328 265 251 Q265 189 301.5 153 Q338 117 410 117 Z M722 1201 Q602 1201 531.5 1270 Q461 1339 461 1454 L461 1460 L588 1460 Q596 1327 747 1327 Q832 1327 881.5 1362 Q931 1397 960 1460 L1087 1460 Q1038 1338 942 1269.5 Q846 1201 722 1201 Z " />
<glyph glyph-name="Aogonek" unicode="&#x104;" horiz-adv-x="1229" d="M929 0 L865 382 L302 382 L91 0 L-105 0 L667 1349 L884 1349 L1123 0 L929 0 Z M745 1205 Q699 1114 662.5 1044 Q626 974 382 531 L845 531 L769 1031 L745 1205 Z M922 -416 Q831 -416 786.5 -377.5 Q742 -339 742 -273 Q742 -193 799.5 -115.5 Q857 -38 949 11 L1082 11 Q999 -32 944 -105.5 Q889 -179 889 -239 Q889 -306 967 -306 Q1022 -306 1087 -282 L1066 -389 Q999 -416 922 -416 Z " />
<glyph glyph-name="aogonek" unicode="&#x105;" horiz-adv-x="1229" d="M1018 111 Q1045 111 1078 118 L1056 6 Q986 -10 914 -10 Q827 -10 790.5 28 Q754 66 754 142 L759 207 L753 207 Q664 85 564.5 32.5 Q465 -20 337 -20 Q204 -20 138.5 42 Q73 104 73 213 Q73 254 82 302 Q150 651 605 656 L841 660 Q858 741 860.5 762.5 Q863 784 863 808 Q863 893 817 929 Q771 965 679 965 Q563 965 503.5 925.5 Q444 886 413 793 L228 810 Q282 959 400.5 1030.5 Q519 1102 708 1102 Q1048 1102 1048 835 Q1048 790 1038 738 L948 272 Q939 229 939 196 Q939 154 957 132.5 Q975 111 1018 111 Z M410 117 Q505 117 588 162.5 Q671 208 727 285 Q783 362 799 445 L817 534 L626 530 Q491 528 416.5 494.5 Q342 461 303.5 394.5 Q265 328 265 251 Q265 189 301.5 153 Q338 117 410 117 Z M833 -427 Q742 -427 697.5 -388.5 Q653 -350 653 -284 Q653 -204 710.5 -126.5 Q768 -49 860 0 L993 0 Q910 -43 855 -116.5 Q800 -190 800 -250 Q800 -317 878 -317 Q933 -317 998 -293 L977 -400 Q910 -427 833 -427 Z " />
<glyph glyph-name="Cacute" unicode="&#x106;" horiz-adv-x="1229" d="M316 452 Q316 135 582 135 Q685 135 782 206.5 Q879 278 959 417 L1105 352 Q882 -20 550 -20 Q338 -20 227 98.5 Q116 217 116 447 Q116 612 168 802 Q220 992 308.5 1117 Q397 1242 523 1306 Q649 1370 810 1370 Q1145 1370 1211 1035 L1031 970 Q1013 1089 947 1151.5 Q881 1214 781 1214 Q673 1214 591.5 1163 Q510 1112 451.5 1009 Q393 906 354.5 742.5 Q316 579 316 452 Z M709 1445 L713 1465 L987 1704 L1184 1704 L1178 1675 L833 1445 L709 1445 Z " />
<glyph glyph-name="cacute" unicode="&#x107;" horiz-adv-x="1229" d="M741 1102 Q922 1102 1023 1015.5 Q1124 929 1124 779 L930 765 L930 771 Q930 857 877 909 Q824 961 706 961 Q572 961 485 890.5 Q398 820 349.5 665 Q301 510 301 372 Q301 241 361 180 Q421 119 541 119 Q649 119 730.5 172 Q812 225 850 334 L1038 322 Q1006 226 931.5 147.5 Q857 69 750.5 24.5 Q644 -20 522 -20 Q319 -20 215.5 79 Q112 178 112 369 Q112 496 153.5 639.5 Q195 783 277.5 889 Q360 995 476.5 1048.5 Q593 1102 741 1102 Z M632 1201 L636 1221 L910 1460 L1107 1460 L1101 1431 L756 1201 L632 1201 Z " />
<glyph glyph-name="Ccircumflex" unicode="&#x108;" horiz-adv-x="1229" d="M316 452 Q316 135 582 135 Q685 135 782 206.5 Q879 278 959 417 L1105 352 Q882 -20 550 -20 Q338 -20 227 98.5 Q116 217 116 447 Q116 612 168 802 Q220 992 308.5 1117 Q397 1242 523 1306 Q649 1370 810 1370 Q1145 1370 1211 1035 L1031 970 Q1013 1089 947 1151.5 Q881 1214 781 1214 Q673 1214 591.5 1163 Q510 1112 451.5 1009 Q393 906 354.5 742.5 Q316 579 316 452 Z M1145 1466 L1141 1446 L1036 1446 L844 1584 L842 1584 L583 1446 L479 1446 L483 1466 L784 1705 L948 1705 L1145 1466 Z " />
<glyph glyph-name="ccircumflex" unicode="&#x109;" horiz-adv-x="1229" d="M741 1102 Q922 1102 1023 1015.5 Q1124 929 1124 779 L930 765 L930 771 Q930 857 877 909 Q824 961 706 961 Q572 961 485 890.5 Q398 820 349.5 665 Q301 510 301 372 Q301 241 361 180 Q421 119 541 119 Q649 119 730.5 172 Q812 225 850 334 L1038 322 Q1006 226 931.5 147.5 Q857 69 750.5 24.5 Q644 -20 522 -20 Q319 -20 215.5 79 Q112 178 112 369 Q112 496 153.5 639.5 Q195 783 277.5 889 Q360 995 476.5 1048.5 Q593 1102 741 1102 Z M1077 1221 L1073 1201 L968 1201 L776 1339 L774 1339 L515 1201 L411 1201 L415 1221 L716 1460 L880 1460 L1077 1221 Z " />
<glyph glyph-name="Cdotaccent" unicode="&#x10a;" horiz-adv-x="1229" d="M316 452 Q316 135 582 135 Q685 135 782 206.5 Q879 278 959 417 L1105 352 Q882 -20 550 -20 Q338 -20 227 98.5 Q116 217 116 447 Q116 612 168 802 Q220 992 308.5 1117 Q397 1242 523 1306 Q649 1370 810 1370 Q1145 1370 1211 1035 L1031 970 Q1013 1089 947 1151.5 Q881 1214 781 1214 Q673 1214 591.5 1163 Q510 1112 451.5 1009 Q393 906 354.5 742.5 Q316 579 316 452 Z M721 1446 L758 1638 L958 1638 L921 1446 L721 1446 Z " />
<glyph glyph-name="cdotaccent" unicode="&#x10b;" horiz-adv-x="1229" d="M741 1102 Q922 1102 1023 1015.5 Q1124 929 1124 779 L930 765 L930 771 Q930 857 877 909 Q824 961 706 961 Q572 961 485 890.5 Q398 820 349.5 665 Q301 510 301 372 Q301 241 361 180 Q421 119 541 119 Q649 119 730.5 172 Q812 225 850 334 L1038 322 Q1006 226 931.5 147.5 Q857 69 750.5 24.5 Q644 -20 522 -20 Q319 -20 215.5 79 Q112 178 112 369 Q112 496 153.5 639.5 Q195 783 277.5 889 Q360 995 476.5 1048.5 Q593 1102 741 1102 Z M681 1292 L718 1484 L918 1484 L881 1292 L681 1292 Z " />
<glyph glyph-name="Ccaron" unicode="&#x10c;" horiz-adv-x="1229" d="M316 452 Q316 135 582 135 Q685 135 782 206.5 Q879 278 959 417 L1105 352 Q882 -20 550 -20 Q338 -20 227 98.5 Q116 217 116 447 Q116 612 168 802 Q220 992 308.5 1117 Q397 1242 523 1306 Q649 1370 810 1370 Q1145 1370 1211 1035 L1031 970 Q1013 1089 947 1151.5 Q881 1214 781 1214 Q673 1214 591.5 1163 Q510 1112 451.5 1009 Q393 906 354.5 742.5 Q316 579 316 452 Z M894 1446 L730 1446 L523 1685 L527 1705 L631 1705 L836 1567 L838 1567 L1084 1705 L1189 1705 L1185 1685 L894 1446 Z " />
<glyph glyph-name="ccaron" unicode="&#x10d;" horiz-adv-x="1229" d="M741 1102 Q922 1102 1023 1015.5 Q1124 929 1124 779 L930 765 L930 771 Q930 857 877 909 Q824 961 706 961 Q572 961 485 890.5 Q398 820 349.5 665 Q301 510 301 372 Q301 241 361 180 Q421 119 541 119 Q649 119 730.5 172 Q812 225 850 334 L1038 322 Q1006 226 931.5 147.5 Q857 69 750.5 24.5 Q644 -20 522 -20 Q319 -20 215.5 79 Q112 178 112 369 Q112 496 153.5 639.5 Q195 783 277.5 889 Q360 995 476.5 1048.5 Q593 1102 741 1102 Z M825 1201 L661 1201 L454 1440 L458 1460 L562 1460 L767 1322 L769 1322 L1015 1460 L1120 1460 L1116 1440 L825 1201 Z " />
<glyph glyph-name="Dcaron" unicode="&#x10e;" horiz-adv-x="1229" d="M427 0 L57 0 L319 1349 L630 1349 Q1175 1349 1175 890 Q1175 732 1121 555 Q1067 378 969 253.5 Q871 129 734 64.5 Q597 0 427 0 Z M981 865 Q981 1038 886.5 1115.5 Q792 1193 601 1193 L480 1193 L278 156 L440 156 Q568 156 665.5 204.5 Q763 253 832 351 Q901 449 941 597 Q981 745 981 865 Z M847 1446 L683 1446 L476 1685 L480 1705 L584 1705 L789 1567 L791 1567 L1037 1705 L1142 1705 L1138 1685 L847 1446 Z " />
<glyph glyph-name="dcaron" unicode="&#x10f;" horiz-adv-x="1229" d="M592 174 Q523 69 447 21.5 Q371 -26 274 -26 Q148 -26 77 60 Q6 146 6 318 Q6 444 44 599 Q82 754 147 867 Q212 980 300 1039 Q388 1098 492 1098 Q590 1098 648 1055 Q706 1012 736 914 L738 914 L759 1034 L846 1484 L1026 1484 L781 223 Q749 44 744 0 L572 0 L572 4 Q572 47 596 174 L592 174 Z M191 313 Q191 209 225.5 161 Q260 113 332 113 Q400 113 463.5 160.5 Q527 208 577 297.5 Q627 387 655 503 Q683 619 683 709 Q683 828 634.5 896.5 Q586 965 499 965 Q407 965 342.5 881.5 Q278 798 234.5 618 Q191 438 191 313 Z M1075 1159 L1082 1192 L1217 1484 L1414 1484 L1407 1447 L1180 1159 L1075 1159 Z " />
<glyph glyph-name="Dcroat" unicode="&#x110;" horiz-adv-x="1229" d="M427 0 L57 0 L173 597 L38 597 L67 746 L202 746 L319 1349 L630 1349 Q1175 1349 1175 890 Q1175 732 1121 555 Q1067 378 969 253.5 Q871 129 734 64.5 Q597 0 427 0 Z M653 597 L364 597 L278 156 L440 156 Q568 156 665.5 204.5 Q763 253 832 351 Q901 449 941 597 Q981 745 981 865 Q981 1038 886.5 1115.5 Q792 1193 601 1193 L480 1193 L393 746 L682 746 L653 597 Z " />
<glyph glyph-name="dslash" unicode="&#x111;" horiz-adv-x="1229" d="M1170 1196 L981 223 Q949 44 944 0 L772 0 L772 4 Q772 47 796 174 L791 174 Q722 69 631.5 21.5 Q541 -26 420 -26 Q262 -26 186 56 Q110 138 110 306 Q110 392 133 517 Q241 1072 633 1072 Q754 1072 827.5 1029 Q901 986 931 888 L933 888 L938 914 L990 1196 L690 1196 L716 1327 L1016 1327 L1046 1484 L1226 1484 L1196 1327 L1327 1327 L1301 1196 L1170 1196 Z M299 334 Q299 219 346.5 166 Q394 113 494 113 Q588 113 657 153.5 Q726 194 775 278 Q824 362 853 490 Q882 618 882 704 Q882 823 828.5 881 Q775 939 657 939 Q540 939 464.5 862.5 Q389 786 344 622.5 Q299 459 299 334 Z " />
<glyph glyph-name="Emacron" unicode="&#x112;" horiz-adv-x="1229" d="M57 0 L319 1349 L1238 1349 L1208 1193 L480 1193 L398 771 L1066 771 L1036 617 L368 617 L278 156 L1047 156 L1017 0 L57 0 Z M1093 1503 L542 1503 L567 1630 L1118 1630 L1093 1503 Z " />
<glyph glyph-name="emacron" unicode="&#x113;" horiz-adv-x="1229" d="M315 503 Q302 434 302 382 Q302 253 364.5 184 Q427 115 540 115 Q642 115 728.5 159 Q815 203 857 281 L1006 236 Q937 112 807.5 46 Q678 -20 514 -20 Q320 -20 218 80.5 Q116 181 116 370 Q116 494 156 638.5 Q196 783 276 888.5 Q356 994 469 1048 Q582 1102 726 1102 Q1112 1102 1112 723 Q1112 632 1091 527 L1087 503 L315 503 Z M702 969 Q569 969 474.5 882 Q380 795 344 641 L928 641 L932 713 Q932 969 702 969 Z M1025 1236 L474 1236 L499 1363 L1050 1363 L1025 1236 Z " />
<glyph glyph-name="Ebreve" unicode="&#x114;" horiz-adv-x="1229" d="M57 0 L319 1349 L1238 1349 L1208 1193 L480 1193 L398 771 L1066 771 L1036 617 L368 617 L278 156 L1047 156 L1017 0 L57 0 Z M789 1446 Q669 1446 598.5 1515 Q528 1584 528 1699 L528 1705 L655 1705 Q663 1572 814 1572 Q899 1572 948.5 1607 Q998 1642 1027 1705 L1154 1705 Q1105 1583 1009 1514.5 Q913 1446 789 1446 Z " />
<glyph glyph-name="ebreve" unicode="&#x115;" horiz-adv-x="1229" d="M315 503 Q302 434 302 382 Q302 253 364.5 184 Q427 115 540 115 Q642 115 728.5 159 Q815 203 857 281 L1006 236 Q937 112 807.5 46 Q678 -20 514 -20 Q320 -20 218 80.5 Q116 181 116 370 Q116 494 156 638.5 Q196 783 276 888.5 Q356 994 469 1048 Q582 1102 726 1102 Q1112 1102 1112 723 Q1112 632 1091 527 L1087 503 L315 503 Z M702 969 Q569 969 474.5 882 Q380 795 344 641 L928 641 L932 713 Q932 969 702 969 Z M745 1201 Q625 1201 554.5 1270 Q484 1339 484 1454 L484 1460 L611 1460 Q619 1327 770 1327 Q855 1327 904.5 1362 Q954 1397 983 1460 L1110 1460 Q1061 1338 965 1269.5 Q869 1201 745 1201 Z " />
<glyph glyph-name="Edotaccent" unicode="&#x116;" horiz-adv-x="1229" d="M57 0 L319 1349 L1238 1349 L1208 1193 L480 1193 L398 771 L1066 771 L1036 617 L368 617 L278 156 L1047 156 L1017 0 L57 0 Z M691 1446 L728 1638 L928 1638 L891 1446 L691 1446 Z " />
<glyph glyph-name="edotaccent" unicode="&#x117;" horiz-adv-x="1229" d="M315 503 Q302 434 302 382 Q302 253 364.5 184 Q427 115 540 115 Q642 115 728.5 159 Q815 203 857 281 L1006 236 Q937 112 807.5 46 Q678 -20 514 -20 Q320 -20 218 80.5 Q116 181 116 370 Q116 494 156 638.5 Q196 783 276 888.5 Q356 994 469 1048 Q582 1102 726 1102 Q1112 1102 1112 723 Q1112 632 1091 527 L1087 503 L315 503 Z M702 969 Q569 969 474.5 882 Q380 795 344 641 L928 641 L932 713 Q932 969 702 969 Z M664 1298 L701 1490 L901 1490 L864 1298 L664 1298 Z " />
<glyph glyph-name="Eogonek" unicode="&#x118;" horiz-adv-x="1229" d="M57 0 L319 1349 L1238 1349 L1208 1193 L480 1193 L398 771 L1066 771 L1036 617 L368 617 L278 156 L1047 156 L1017 0 L57 0 Z M795 -427 Q704 -427 659.5 -388.5 Q615 -350 615 -284 Q615 -204 672.5 -126.5 Q730 -49 822 0 L955 0 Q872 -43 817 -116.5 Q762 -190 762 -250 Q762 -317 840 -317 Q895 -317 960 -293 L939 -400 Q872 -427 795 -427 Z " />
<glyph glyph-name="eogonek" unicode="&#x119;" horiz-adv-x="1229" d="M315 503 Q302 434 302 382 Q302 253 364.5 184 Q427 115 540 115 Q642 115 728.5 159 Q815 203 857 281 L1006 236 Q937 112 807.5 46 Q678 -20 514 -20 Q320 -20 218 80.5 Q116 181 116 370 Q116 494 156 638.5 Q196 783 276 888.5 Q356 994 469 1048 Q582 1102 726 1102 Q1112 1102 1112 723 Q1112 632 1091 527 L1087 503 L315 503 Z M702 969 Q569 969 474.5 882 Q380 795 344 641 L928 641 L932 713 Q932 969 702 969 Z M526 -427 Q435 -427 390.5 -388.5 Q346 -350 346 -284 Q346 -204 403.5 -126.5 Q461 -49 553 0 L686 0 Q603 -43 548 -116.5 Q493 -190 493 -250 Q493 -317 571 -317 Q626 -317 691 -293 L670 -400 Q603 -427 526 -427 Z " />
<glyph glyph-name="Ecaron" unicode="&#x11a;" horiz-adv-x="1229" d="M57 0 L319 1349 L1238 1349 L1208 1193 L480 1193 L398 771 L1066 771 L1036 617 L368 617 L278 156 L1047 156 L1017 0 L57 0 Z M877 1446 L713 1446 L506 1685 L510 1705 L614 1705 L819 1567 L821 1567 L1067 1705 L1172 1705 L1168 1685 L877 1446 Z " />
<glyph glyph-name="ecaron" unicode="&#x11b;" horiz-adv-x="1229" d="M315 503 Q302 434 302 382 Q302 253 364.5 184 Q427 115 540 115 Q642 115 728.5 159 Q815 203 857 281 L1006 236 Q937 112 807.5 46 Q678 -20 514 -20 Q320 -20 218 80.5 Q116 181 116 370 Q116 494 156 638.5 Q196 783 276 888.5 Q356 994 469 1048 Q582 1102 726 1102 Q1112 1102 1112 723 Q1112 632 1091 527 L1087 503 L315 503 Z M702 969 Q569 969 474.5 882 Q380 795 344 641 L928 641 L932 713 Q932 969 702 969 Z M822 1201 L658 1201 L451 1440 L455 1460 L559 1460 L764 1322 L766 1322 L1012 1460 L1117 1460 L1113 1440 L822 1201 Z " />
<glyph glyph-name="Gcircumflex" unicode="&#x11c;" horiz-adv-x="1229" d="M530 -20 Q331 -20 223.5 100.5 Q116 221 116 451 Q116 612 169 804.5 Q222 997 309 1121 Q396 1245 519 1307.5 Q642 1370 803 1370 Q1147 1370 1200 1039 L1018 983 Q982 1214 775 1214 Q668 1214 588.5 1164.5 Q509 1115 452 1015 Q395 915 355.5 748.5 Q316 582 316 455 Q316 135 576 135 Q644 135 720.5 156 Q797 177 851 209 L916 545 L623 545 L654 705 L1133 705 L1022 133 Q767 -20 530 -20 Z M1125 1466 L1121 1446 L1016 1446 L824 1584 L822 1584 L563 1446 L459 1446 L463 1466 L764 1705 L928 1705 L1125 1466 Z " />
<glyph glyph-name="gcircumflex" unicode="&#x11d;" horiz-adv-x="1229" d="M428 -424 Q259 -424 171 -355 Q83 -286 79 -157 L268 -132 Q270 -207 319 -247.5 Q368 -288 460 -288 Q710 -288 769 27 L807 221 L805 221 Q664 12 421 12 Q265 12 192.5 90.5 Q120 169 120 328 Q120 452 160 619.5 Q200 787 266 890.5 Q332 994 427.5 1046.5 Q523 1099 652 1099 Q765 1099 838 1046.5 Q911 994 937 897 L940 897 Q947 934 965 1003.5 Q983 1073 988 1082 L1159 1082 L1140 1000 L1110 858 L949 32 Q905 -195 777 -309.5 Q649 -424 428 -424 Z M887 697 Q887 823 830.5 894 Q774 965 671 965 Q581 965 518 926 Q455 887 411 804 Q367 721 337.5 583.5 Q308 446 308 355 Q308 245 354.5 195 Q401 145 508 145 Q588 145 658.5 188 Q729 231 781 311.5 Q833 392 860 500.5 Q887 609 887 697 Z M1068 1221 L1064 1201 L959 1201 L767 1339 L765 1339 L506 1201 L402 1201 L406 1221 L707 1460 L871 1460 L1068 1221 Z " />
<glyph glyph-name="Gbreve" unicode="&#x11e;" horiz-adv-x="1229" d="M530 -20 Q331 -20 223.5 100.5 Q116 221 116 451 Q116 612 169 804.5 Q222 997 309 1121 Q396 1245 519 1307.5 Q642 1370 803 1370 Q1147 1370 1200 1039 L1018 983 Q982 1214 775 1214 Q668 1214 588.5 1164.5 Q509 1115 452 1015 Q395 915 355.5 748.5 Q316 582 316 455 Q316 135 576 135 Q644 135 720.5 156 Q797 177 851 209 L916 545 L623 545 L654 705 L1133 705 L1022 133 Q767 -20 530 -20 Z M792 1446 Q672 1446 601.5 1515 Q531 1584 531 1699 L531 1705 L658 1705 Q666 1572 817 1572 Q902 1572 951.5 1607 Q1001 1642 1030 1705 L1157 1705 Q1108 1583 1012 1514.5 Q916 1446 792 1446 Z " />
<glyph glyph-name="gbreve" unicode="&#x11f;" horiz-adv-x="1229" d="M428 -424 Q259 -424 171 -355 Q83 -286 79 -157 L268 -132 Q270 -207 319 -247.5 Q368 -288 460 -288 Q710 -288 769 27 L807 221 L805 221 Q664 12 421 12 Q265 12 192.5 90.5 Q120 169 120 328 Q120 452 160 619.5 Q200 787 266 890.5 Q332 994 427.5 1046.5 Q523 1099 652 1099 Q765 1099 838 1046.5 Q911 994 937 897 L940 897 Q947 934 965 1003.5 Q983 1073 988 1082 L1159 1082 L1140 1000 L1110 858 L949 32 Q905 -195 777 -309.5 Q649 -424 428 -424 Z M887 697 Q887 823 830.5 894 Q774 965 671 965 Q581 965 518 926 Q455 887 411 804 Q367 721 337.5 583.5 Q308 446 308 355 Q308 245 354.5 195 Q401 145 508 145 Q588 145 658.5 188 Q729 231 781 311.5 Q833 392 860 500.5 Q887 609 887 697 Z M732 1201 Q612 1201 541.5 1270 Q471 1339 471 1454 L471 1460 L598 1460 Q606 1327 757 1327 Q842 1327 891.5 1362 Q941 1397 970 1460 L1097 1460 Q1048 1338 952 1269.5 Q856 1201 732 1201 Z " />
<glyph glyph-name="Gdotaccent" unicode="&#x120;" horiz-adv-x="1229" d="M530 -20 Q331 -20 223.5 100.5 Q116 221 116 451 Q116 612 169 804.5 Q222 997 309 1121 Q396 1245 519 1307.5 Q642 1370 803 1370 Q1147 1370 1200 1039 L1018 983 Q982 1214 775 1214 Q668 1214 588.5 1164.5 Q509 1115 452 1015 Q395 915 355.5 748.5 Q316 582 316 455 Q316 135 576 135 Q644 135 720.5 156 Q797 177 851 209 L916 545 L623 545 L654 705 L1133 705 L1022 133 Q767 -20 530 -20 Z M701 1446 L738 1638 L938 1638 L901 1446 L701 1446 Z " />
<glyph glyph-name="gdotaccent" unicode="&#x121;" horiz-adv-x="1229" d="M428 -424 Q259 -424 171 -355 Q83 -286 79 -157 L268 -132 Q270 -207 319 -247.5 Q368 -288 460 -288 Q710 -288 769 27 L807 221 L805 221 Q664 12 421 12 Q265 12 192.5 90.5 Q120 169 120 328 Q120 452 160 619.5 Q200 787 266 890.5 Q332 994 427.5 1046.5 Q523 1099 652 1099 Q765 1099 838 1046.5 Q911 994 937 897 L940 897 Q947 934 965 1003.5 Q983 1073 988 1082 L1159 1082 L1140 1000 L1110 858 L949 32 Q905 -195 777 -309.5 Q649 -424 428 -424 Z M887 697 Q887 823 830.5 894 Q774 965 671 965 Q581 965 518 926 Q455 887 411 804 Q367 721 337.5 583.5 Q308 446 308 355 Q308 245 354.5 195 Q401 145 508 145 Q588 145 658.5 188 Q729 231 781 311.5 Q833 392 860 500.5 Q887 609 887 697 Z M652 1292 L689 1484 L889 1484 L852 1292 L652 1292 Z " />
<glyph glyph-name="Gcommaaccent" unicode="&#x122;" horiz-adv-x="1229" d="M530 -20 Q331 -20 223.5 100.5 Q116 221 116 451 Q116 612 169 804.5 Q222 997 309 1121 Q396 1245 519 1307.5 Q642 1370 803 1370 Q1147 1370 1200 1039 L1018 983 Q982 1214 775 1214 Q668 1214 588.5 1164.5 Q509 1115 452 1015 Q395 915 355.5 748.5 Q316 582 316 455 Q316 135 576 135 Q644 135 720.5 156 Q797 177 851 209 L916 545 L623 545 L654 705 L1133 705 L1022 133 Q767 -20 530 -20 Z M288 -423 L294 -390 L430 -98 L627 -98 L620 -135 L393 -423 L288 -423 Z " />
<glyph glyph-name="gcommaaccent" unicode="&#x123;" horiz-adv-x="1229" d="M428 -424 Q259 -424 171 -355 Q83 -286 79 -157 L268 -132 Q270 -207 319 -247.5 Q368 -288 460 -288 Q710 -288 769 27 L807 221 L805 221 Q664 12 421 12 Q265 12 192.5 90.5 Q120 169 120 328 Q120 452 160 619.5 Q200 787 266 890.5 Q332 994 427.5 1046.5 Q523 1099 652 1099 Q765 1099 838 1046.5 Q911 994 937 897 L940 897 Q947 934 965 1003.5 Q983 1073 988 1082 L1159 1082 L1140 1000 L1110 858 L949 32 Q905 -195 777 -309.5 Q649 -424 428 -424 Z M887 697 Q887 823 830.5 894 Q774 965 671 965 Q581 965 518 926 Q455 887 411 804 Q367 721 337.5 583.5 Q308 446 308 355 Q308 245 354.5 195 Q401 145 508 145 Q588 145 658.5 188 Q729 231 781 311.5 Q833 392 860 500.5 Q887 609 887 697 Z M944 1536 L937 1503 L801 1211 L604 1211 L612 1248 L839 1536 L944 1536 Z " />
<glyph glyph-name="Hcircumflex" unicode="&#x124;" horiz-adv-x="1229" d="M770 0 L891 623 L369 623 L248 0 L57 0 L319 1349 L510 1349 L400 783 L922 783 L1032 1349 L1223 1349 L961 0 L770 0 Z M1124 1466 L1120 1446 L1015 1446 L823 1584 L821 1584 L562 1446 L458 1446 L462 1466 L763 1705 L927 1705 L1124 1466 Z " />
<glyph glyph-name="hcircumflex" unicode="&#x125;" horiz-adv-x="1229" d="M342 1349 L523 1349 Q486 1159 464.5 1048 Q443 937 415 837 L418 837 Q560 1042 797 1042 Q1085 1042 1085 785 Q1085 726 1072 661 L944 0 L763 0 L886 635 Q897 688 897 735 Q897 822 854 862.5 Q811 903 719 903 Q594 903 497.5 812 Q401 721 370 567 L260 0 L80 0 L342 1349 Z M1125 1465 L1121 1445 L1016 1445 L824 1584 L822 1584 L563 1445 L459 1445 L463 1465 L763 1705 L927 1705 L1125 1465 Z " />
<glyph glyph-name="Hbar" unicode="&#x126;" horiz-adv-x="1229" d="M281 1153 L319 1349 L510 1349 L472 1153 L994 1153 L1032 1349 L1223 1349 L1185 1153 L1345 1153 L1316 1005 L1156 1005 L961 0 L770 0 L891 623 L369 623 L248 0 L57 0 L252 1005 L92 1005 L121 1153 L281 1153 Z M922 783 L965 1005 L443 1005 L400 783 L922 783 Z " />
<glyph glyph-name="hbar" unicode="&#x127;" horiz-adv-x="1229" d="M368 1484 L549 1484 L519 1327 L818 1327 L792 1196 L493 1196 Q480 1129 472 1086 Q464 1043 421 867 L424 867 Q566 1072 802 1072 Q1091 1072 1091 813 Q1091 756 1078 691 L944 0 L763 0 L892 665 Q903 723 903 763 Q903 851 859.5 892 Q816 933 724 933 Q600 933 503.5 842.5 Q407 752 376 597 L260 0 L80 0 L312 1196 L180 1196 L206 1327 L338 1327 L368 1484 Z " />
<glyph glyph-name="Itilde" unicode="&#x128;" horiz-adv-x="1229" d="M359 1349 L1182 1349 L1152 1193 L836 1193 L634 156 L950 156 L920 0 L97 0 L127 156 L443 156 L645 1193 L329 1193 L359 1349 Z M947 1446 Q905 1446 867 1464.5 Q829 1483 793 1505.5 Q757 1528 722.5 1546.5 Q688 1565 653 1565 Q616 1565 592 1541.5 Q568 1518 543 1446 L432 1446 Q474 1583 535.5 1638.5 Q597 1694 684 1694 Q728 1694 766.5 1675.5 Q805 1657 840.5 1634.5 Q876 1612 909.5 1593.5 Q943 1575 976 1575 Q1016 1575 1041 1602.5 Q1066 1630 1086 1694 L1198 1694 Q1167 1597 1134.5 1548.5 Q1102 1500 1056 1473 Q1010 1446 947 1446 Z " />
<glyph glyph-name="itilde" unicode="&#x129;" horiz-adv-x="1229" d="M668 142 L1048 142 L1020 0 L38 0 L66 142 L488 142 L643 940 L324 940 L351 1082 L850 1082 L668 142 Z M898 1201 Q856 1201 818 1219.5 Q780 1238 744 1260.5 Q708 1283 673.5 1301.5 Q639 1320 604 1320 Q567 1320 543 1296.5 Q519 1273 494 1201 L383 1201 Q425 1338 486.5 1393.5 Q548 1449 635 1449 Q679 1449 717.5 1430.5 Q756 1412 791.5 1389.5 Q827 1367 860.5 1348.5 Q894 1330 927 1330 Q967 1330 992 1357.5 Q1017 1385 1037 1449 L1149 1449 Q1118 1352 1085.5 1303.5 Q1053 1255 1007 1228 Q961 1201 898 1201 Z " />
<glyph glyph-name="Imacron" unicode="&#x12a;" horiz-adv-x="1229" d="M359 1349 L1182 1349 L1152 1193 L836 1193 L634 156 L950 156 L920 0 L97 0 L127 156 L443 156 L645 1193 L329 1193 L359 1349 Z M1077 1503 L526 1503 L551 1630 L1102 1630 L1077 1503 Z " />
<glyph glyph-name="imacron" unicode="&#x12b;" horiz-adv-x="1229" d="M668 142 L1048 142 L1020 0 L38 0 L66 142 L488 142 L643 940 L324 940 L351 1082 L850 1082 L668 142 Z M1031 1236 L480 1236 L505 1363 L1056 1363 L1031 1236 Z " />
<glyph glyph-name="Ibreve" unicode="&#x12c;" horiz-adv-x="1229" d="M359 1349 L1182 1349 L1152 1193 L836 1193 L634 156 L950 156 L920 0 L97 0 L127 156 L443 156 L645 1193 L329 1193 L359 1349 Z M788 1445 Q668 1445 597.5 1514 Q527 1583 527 1698 L527 1704 L654 1704 Q662 1571 813 1571 Q898 1571 947.5 1606 Q997 1641 1026 1704 L1153 1704 Q1104 1582 1008 1513.5 Q912 1445 788 1445 Z " />
<glyph glyph-name="ibreve" unicode="&#x12d;" horiz-adv-x="1229" d="M668 142 L1048 142 L1020 0 L38 0 L66 142 L488 142 L643 940 L324 940 L351 1082 L850 1082 L668 142 Z M761 1201 Q641 1201 570.5 1270 Q500 1339 500 1454 L500 1460 L627 1460 Q635 1327 786 1327 Q871 1327 920.5 1362 Q970 1397 999 1460 L1126 1460 Q1077 1338 981 1269.5 Q885 1201 761 1201 Z " />
<glyph glyph-name="Iogonek" unicode="&#x12e;" horiz-adv-x="1229" d="M359 1349 L1182 1349 L1152 1193 L836 1193 L634 156 L950 156 L920 0 L97 0 L127 156 L443 156 L645 1193 L329 1193 L359 1349 Z M477 -427 Q386 -427 341.5 -388.5 Q297 -350 297 -284 Q297 -204 354.5 -126.5 Q412 -49 504 0 L637 0 Q554 -43 499 -116.5 Q444 -190 444 -250 Q444 -317 522 -317 Q577 -317 642 -293 L621 -400 Q554 -427 477 -427 Z " />
<glyph glyph-name="iogonek" unicode="&#x12f;" horiz-adv-x="1229" d="M668 142 L1048 142 L1020 0 L38 0 L66 142 L488 142 L643 940 L324 940 L351 1082 L850 1082 L668 142 Z M691 1292 L728 1484 L928 1484 L891 1292 L691 1292 Z M520 -427 Q429 -427 384.5 -388.5 Q340 -350 340 -284 Q340 -204 397.5 -126.5 Q455 -49 547 0 L680 0 Q597 -43 542 -116.5 Q487 -190 487 -250 Q487 -317 565 -317 Q620 -317 685 -293 L664 -400 Q597 -427 520 -427 Z " />
<glyph glyph-name="Idot" unicode="&#x130;" horiz-adv-x="1229" d="M359 1349 L1182 1349 L1152 1193 L836 1193 L634 156 L950 156 L920 0 L97 0 L127 156 L443 156 L645 1193 L329 1193 L359 1349 Z M691 1446 L728 1638 L928 1638 L891 1446 L691 1446 Z " />
<glyph glyph-name="dotlessi" unicode="&#x131;" horiz-adv-x="1229" d="M668 142 L1048 142 L1020 0 L38 0 L66 142 L488 142 L643 940 L324 940 L351 1082 L850 1082 L668 142 Z " />
<glyph glyph-name="IJ" unicode="&#x132;" horiz-adv-x="1229" d="M255 1349 L446 1349 L184 0 L-7 0 L255 1349 Z M689 135 Q793 135 854.5 206.5 Q916 278 943 416 L1094 1193 L823 1193 L853 1349 L1314 1349 L1134 420 Q1094 210 970.5 95 Q847 -20 658 -20 Q493 -20 416.5 64.5 Q340 149 340 340 L340 350 L532 381 L532 358 Q532 247 569.5 191 Q607 135 689 135 Z " />
<glyph glyph-name="ij" unicode="&#x133;" horiz-adv-x="1229" d="M342 1082 L521 1082 L311 0 L131 0 L342 1082 Z M362 1292 L399 1484 L599 1484 L562 1292 L362 1292 Z M986 1082 L1166 1082 L951 -28 Q915 -214 782 -319.5 Q649 -425 442 -425 Q363 -425 284.5 -412 Q206 -399 163 -382 L190 -242 Q333 -276 456 -276 Q583 -276 665 -210.5 Q747 -145 771 -25 L986 1082 Z M1007 1292 L1044 1484 L1244 1484 L1207 1292 L1007 1292 Z " />
<glyph glyph-name="Jcircumflex" unicode="&#x134;" horiz-adv-x="1229" d="M477 -20 Q308 -20 223.5 67 Q139 154 139 341 L139 350 L332 381 L332 362 Q332 250 378 192.5 Q424 135 508 135 Q717 135 772 416 L923 1193 L612 1193 L642 1349 L1143 1349 L963 420 Q924 215 796.5 97.5 Q669 -20 477 -20 Z M1245 1466 L1241 1446 L1136 1446 L944 1584 L942 1584 L683 1446 L579 1446 L583 1466 L884 1705 L1048 1705 L1245 1466 Z " />
<glyph glyph-name="jcircumflex" unicode="&#x135;" horiz-adv-x="1229" d="M217 -425 Q138 -425 59.5 -412 Q-19 -399 -62 -382 L-35 -242 Q108 -276 231 -276 Q358 -276 440 -210.5 Q522 -145 546 -25 L734 940 L327 940 L354 1082 L941 1082 L726 -28 Q690 -214 557 -319.5 Q424 -425 217 -425 Z M1181 1221 L1177 1201 L1072 1201 L880 1339 L878 1339 L619 1201 L515 1201 L519 1221 L820 1460 L984 1460 L1181 1221 Z " />
<glyph glyph-name="Kcommaaccent" unicode="&#x136;" horiz-adv-x="1229" d="M898 0 L539 641 L339 469 L248 0 L57 0 L319 1349 L510 1349 L379 676 L1082 1349 L1307 1349 L692 777 L1122 0 L898 0 Z M288 -423 L294 -390 L430 -98 L627 -98 L620 -135 L393 -423 L288 -423 Z " />
<glyph glyph-name="kcommaaccent" unicode="&#x137;" horiz-adv-x="1229" d="M809 0 L540 499 L389 401 L311 0 L131 0 L419 1484 L599 1484 L419 557 L996 1082 L1207 1082 L678 617 L1020 0 L809 0 Z M288 -423 L294 -390 L430 -98 L627 -98 L620 -135 L393 -423 L288 -423 Z " />
<glyph glyph-name="kgreenlandic" unicode="&#x138;" horiz-adv-x="1229" d="M809 0 L539 494 L388 396 L311 0 L131 0 L341 1082 L521 1082 L417 544 L996 1082 L1207 1082 L678 617 L1020 0 L809 0 Z " />
<glyph glyph-name="Lacute" unicode="&#x139;" horiz-adv-x="1229" d="M132 0 L394 1349 L585 1349 L353 156 L1025 156 L995 0 L132 0 Z M480 1446 L484 1466 L758 1705 L955 1705 L949 1676 L604 1446 L480 1446 Z " />
<glyph glyph-name="lacute" unicode="&#x13a;" horiz-adv-x="1229" d="M659 142 L1039 142 L1011 0 L29 0 L57 142 L479 142 L686 1207 L397 1207 L424 1349 L893 1349 L659 142 Z M707 1445 L711 1465 L984 1705 L1181 1705 L1176 1676 L831 1445 L707 1445 Z " />
<glyph glyph-name="Lcommaaccent" unicode="&#x13b;" horiz-adv-x="1229" d="M132 0 L394 1349 L585 1349 L353 156 L1025 156 L995 0 L132 0 Z M298 -423 L304 -390 L440 -98 L637 -98 L630 -135 L403 -423 L298 -423 Z " />
<glyph glyph-name="lcommaaccent" unicode="&#x13c;" horiz-adv-x="1229" d="M659 142 L1039 142 L1011 0 L29 0 L57 142 L479 142 L712 1342 L423 1342 L450 1484 L919 1484 L659 142 Z M288 -423 L294 -390 L430 -98 L627 -98 L620 -135 L393 -423 L288 -423 Z " />
<glyph glyph-name="Lcaron" unicode="&#x13d;" horiz-adv-x="1229" d="M132 0 L394 1349 L585 1349 L353 156 L1025 156 L995 0 L132 0 Z M869 1024 L875 1057 L1011 1349 L1208 1349 L1201 1312 L974 1024 L869 1024 Z " />
<glyph glyph-name="lcaron" unicode="&#x13e;" horiz-adv-x="1229" d="M610 142 L990 142 L962 0 L-20 0 L8 142 L430 142 L663 1342 L374 1342 L401 1484 L870 1484 L610 142 Z M1015 1159 L1022 1192 L1157 1484 L1354 1484 L1347 1447 L1120 1159 L1015 1159 Z " />
<glyph glyph-name="Ldot" unicode="&#x13f;" horiz-adv-x="1229" d="M132 0 L394 1349 L585 1349 L353 156 L1025 156 L995 0 L132 0 Z M684 608 L721 800 L921 800 L884 608 L684 608 Z " />
<glyph glyph-name="ldot" unicode="&#x140;" horiz-adv-x="1229" d="M659 142 L1039 142 L1011 0 L29 0 L57 142 L479 142 L712 1342 L423 1342 L450 1484 L919 1484 L659 142 Z M944 608 L981 800 L1181 800 L1144 608 L944 608 Z " />
<glyph glyph-name="Lslash" unicode="&#x141;" horiz-adv-x="1229" d="M132 0 L221 458 L92 397 L50 518 L251 614 L394 1349 L585 1349 L462 713 L783 864 L820 743 L431 558 L353 156 L1025 156 L995 0 L132 0 Z " />
<glyph glyph-name="lslash" unicode="&#x142;" horiz-adv-x="1229" d="M803 884 L1053 1013 L1093 900 L774 736 L659 142 L1039 142 L1011 0 L29 0 L57 142 L479 142 L574 635 L333 512 L290 624 L603 783 L712 1342 L373 1342 L400 1484 L919 1484 L803 884 Z " />
<glyph glyph-name="Nacute" unicode="&#x143;" horiz-adv-x="1229" d="M731 0 L431 1130 Q416 969 397 876 L227 0 L57 0 L319 1349 L541 1349 L848 211 Q860 366 883 485 L1051 1349 L1223 1349 L961 0 L731 0 Z M700 1446 L704 1466 L978 1705 L1175 1705 L1169 1676 L824 1446 L700 1446 Z " />
<glyph glyph-name="nacute" unicode="&#x144;" horiz-adv-x="1229" d="M763 0 L898 695 Q909 753 909 793 Q909 881 865.5 922 Q822 963 730 963 Q606 963 509.5 872.5 Q413 782 382 627 L260 0 L80 0 L245 851 Q252 885 258.5 922.5 Q265 960 270.5 993.5 Q276 1027 280 1051 Q284 1075 284 1082 L454 1082 Q454 1076 445.5 1014.5 Q437 953 426 897 L429 897 Q497 992 590 1047 Q683 1102 815 1102 Q1098 1102 1098 848 Q1098 791 1084 721 L944 0 L763 0 Z M667 1201 L671 1221 L945 1460 L1142 1460 L1136 1431 L791 1201 L667 1201 Z " />
<glyph glyph-name="Ncommaaccent" unicode="&#x145;" horiz-adv-x="1229" d="M731 0 L431 1130 Q416 969 397 876 L227 0 L57 0 L319 1349 L541 1349 L848 211 Q860 366 883 485 L1051 1349 L1223 1349 L961 0 L731 0 Z M257 -423 L263 -390 L399 -98 L596 -98 L589 -135 L362 -423 L257 -423 Z " />
<glyph glyph-name="ncommaaccent" unicode="&#x146;" horiz-adv-x="1229" d="M763 0 L898 695 Q909 753 909 793 Q909 881 865.5 922 Q822 963 730 963 Q606 963 509.5 872.5 Q413 782 382 627 L260 0 L80 0 L245 851 Q252 885 258.5 922.5 Q265 960 270.5 993.5 Q276 1027 280 1051 Q284 1075 284 1082 L454 1082 Q454 1076 445.5 1014.5 Q437 953 426 897 L429 897 Q497 992 590 1047 Q683 1102 815 1102 Q1098 1102 1098 848 Q1098 791 1084 721 L944 0 L763 0 Z M261 -423 L267 -390 L403 -98 L600 -98 L593 -135 L366 -423 L261 -423 Z " />
<glyph glyph-name="Ncaron" unicode="&#x147;" horiz-adv-x="1229" d="M731 0 L431 1130 Q416 969 397 876 L227 0 L57 0 L319 1349 L541 1349 L848 211 Q860 366 883 485 L1051 1349 L1223 1349 L961 0 L731 0 Z M883 1446 L719 1446 L512 1685 L516 1705 L620 1705 L825 1567 L827 1567 L1073 1705 L1178 1705 L1174 1685 L883 1446 Z " />
<glyph glyph-name="ncaron" unicode="&#x148;" horiz-adv-x="1229" d="M763 0 L898 695 Q909 753 909 793 Q909 881 865.5 922 Q822 963 730 963 Q606 963 509.5 872.5 Q413 782 382 627 L260 0 L80 0 L245 851 Q252 885 258.5 922.5 Q265 960 270.5 993.5 Q276 1027 280 1051 Q284 1075 284 1082 L454 1082 Q454 1076 445.5 1014.5 Q437 953 426 897 L429 897 Q497 992 590 1047 Q683 1102 815 1102 Q1098 1102 1098 848 Q1098 791 1084 721 L944 0 L763 0 Z M829 1201 L665 1201 L458 1440 L462 1460 L566 1460 L771 1322 L773 1322 L1019 1460 L1124 1460 L1120 1440 L829 1201 Z " />
<glyph glyph-name="napostrophe" unicode="&#x149;" horiz-adv-x="1229" d="M868 0 L1003 695 Q1014 753 1014 793 Q1014 881 970.5 922 Q927 963 835 963 Q711 963 614.5 872.5 Q518 782 487 627 L365 0 L185 0 L350 851 Q357 885 363.5 922.5 Q370 960 375.5 993.5 Q381 1027 385 1051 Q389 1075 389 1082 L559 1082 Q559 1076 550.5 1014.5 Q542 953 531 897 L534 897 Q602 992 695 1047 Q788 1102 920 1102 Q1203 1102 1203 848 Q1203 791 1189 721 L1049 0 L868 0 Z M99 1025 L105 1058 L241 1350 L438 1350 L431 1313 L204 1025 L99 1025 Z " />
<glyph glyph-name="Eng" unicode="&#x14a;" horiz-adv-x="1229" d="M661 -20 Q594 -20 547.5 -4.5 Q501 11 468.5 41 Q436 71 406 132 L556 232 Q588 172 619 152.5 Q650 133 696 133 Q775 133 831 228.5 Q887 324 929 546 L1010 963 Q1020 1013 1020 1055 Q1020 1142 973 1186.5 Q926 1231 822 1231 Q683 1231 574 1140.5 Q465 1050 434 895 L260 0 L80 0 L298 1119 L323 1262 L336 1350 L506 1350 Q506 1344 497.5 1282.5 Q489 1221 478 1165 L481 1165 Q628 1370 907 1370 Q1209 1370 1209 1109 Q1209 1053 1196 989 L1109 542 Q1051 240 944 110 Q837 -20 661 -20 Z " />
<glyph glyph-name="eng" unicode="&#x14b;" horiz-adv-x="1229" d="M730 963 Q606 963 509.5 872.5 Q413 782 382 627 L260 0 L80 0 L245 851 Q252 885 258.5 922.5 Q265 960 270.5 993.5 Q276 1027 280 1051 Q284 1075 284 1082 L454 1082 Q454 1076 445.5 1014.5 Q437 953 426 897 L429 897 Q497 992 590 1047 Q683 1102 815 1102 Q1098 1102 1098 848 Q1098 791 1084 721 L918 -134 Q889 -286 815 -355.5 Q741 -425 620 -425 Q544 -425 495 -416 L522 -277 L583 -283 Q653 -283 687.5 -246.5 Q722 -210 742 -107 L898 695 Q909 753 909 793 Q909 881 865.5 922 Q822 963 730 963 Z " />
<glyph glyph-name="Omacron" unicode="&#x14c;" horiz-adv-x="1229" d="M504 -20 Q302 -20 202 96.5 Q102 213 102 430 Q102 590 151.5 781 Q201 972 288.5 1104.5 Q376 1237 498 1303.5 Q620 1370 776 1370 Q974 1370 1077 1259.5 Q1180 1149 1180 928 Q1180 773 1131 582 Q1082 391 992 254.5 Q902 118 778 49 Q654 -20 504 -20 Z M978 913 Q978 1214 746 1214 Q610 1214 514.5 1114.5 Q419 1015 361.5 813 Q304 611 304 446 Q304 135 535 135 Q635 135 711 187 Q787 239 845.5 351 Q904 463 941 628.5 Q978 794 978 913 Z M1077 1503 L526 1503 L551 1630 L1102 1630 L1077 1503 Z " />
<glyph glyph-name="omacron" unicode="&#x14d;" horiz-adv-x="1229" d="M500 -20 Q312 -20 212 78.5 Q112 177 112 367 Q112 446 130 542 Q185 821 338.5 961.5 Q492 1102 724 1102 Q923 1102 1020 1010 Q1117 918 1117 732 Q1117 597 1075 447.5 Q1033 298 952 192 Q871 86 756 33 Q641 -20 500 -20 Z M928 720 Q928 845 873.5 907 Q819 969 701 969 Q569 969 482.5 892 Q396 815 348.5 662 Q301 509 301 373 Q301 113 524 113 Q625 113 696 154.5 Q767 196 818.5 283 Q870 370 899 498.5 Q928 627 928 720 Z M1025 1236 L474 1236 L499 1363 L1050 1363 L1025 1236 Z " />
<glyph glyph-name="Obreve" unicode="&#x14e;" horiz-adv-x="1229" d="M504 -20 Q302 -20 202 96.5 Q102 213 102 430 Q102 590 151.5 781 Q201 972 288.5 1104.5 Q376 1237 498 1303.5 Q620 1370 776 1370 Q974 1370 1077 1259.5 Q1180 1149 1180 928 Q1180 773 1131 582 Q1082 391 992 254.5 Q902 118 778 49 Q654 -20 504 -20 Z M978 913 Q978 1214 746 1214 Q610 1214 514.5 1114.5 Q419 1015 361.5 813 Q304 611 304 446 Q304 135 535 135 Q635 135 711 187 Q787 239 845.5 351 Q904 463 941 628.5 Q978 794 978 913 Z M789 1446 Q669 1446 598.5 1515 Q528 1584 528 1699 L528 1705 L655 1705 Q663 1572 814 1572 Q899 1572 948.5 1607 Q998 1642 1027 1705 L1154 1705 Q1105 1583 1009 1514.5 Q913 1446 789 1446 Z " />
<glyph glyph-name="obreve" unicode="&#x14f;" horiz-adv-x="1229" d="M500 -20 Q312 -20 212 78.5 Q112 177 112 367 Q112 446 130 542 Q185 821 338.5 961.5 Q492 1102 724 1102 Q923 1102 1020 1010 Q1117 918 1117 732 Q1117 597 1075 447.5 Q1033 298 952 192 Q871 86 756 33 Q641 -20 500 -20 Z M928 720 Q928 845 873.5 907 Q819 969 701 969 Q569 969 482.5 892 Q396 815 348.5 662 Q301 509 301 373 Q301 113 524 113 Q625 113 696 154.5 Q767 196 818.5 283 Q870 370 899 498.5 Q928 627 928 720 Z M741 1201 Q621 1201 550.5 1270 Q480 1339 480 1454 L480 1460 L607 1460 Q615 1327 766 1327 Q851 1327 900.5 1362 Q950 1397 979 1460 L1106 1460 Q1057 1338 961 1269.5 Q865 1201 741 1201 Z " />
<glyph glyph-name="Ohungarumlaut" unicode="&#x150;" horiz-adv-x="1229" d="M504 -20 Q302 -20 202 96.5 Q102 213 102 430 Q102 590 151.5 781 Q201 972 288.5 1104.5 Q376 1237 498 1303.5 Q620 1370 776 1370 Q974 1370 1077 1259.5 Q1180 1149 1180 928 Q1180 773 1131 582 Q1082 391 992 254.5 Q902 118 778 49 Q654 -20 504 -20 Z M978 913 Q978 1214 746 1214 Q610 1214 514.5 1114.5 Q419 1015 361.5 813 Q304 611 304 446 Q304 135 535 135 Q635 135 711 187 Q787 239 845.5 351 Q904 463 941 628.5 Q978 794 978 913 Z M869 1445 L873 1465 L1127 1704 L1314 1704 L1308 1675 L963 1445 L869 1445 Z M505 1445 L509 1465 L763 1704 L950 1704 L944 1675 L599 1445 L505 1445 Z " />
<glyph glyph-name="ohungarumlaut" unicode="&#x151;" horiz-adv-x="1229" d="M500 -20 Q312 -20 212 78.5 Q112 177 112 367 Q112 446 130 542 Q185 821 338.5 961.5 Q492 1102 724 1102 Q923 1102 1020 1010 Q1117 918 1117 732 Q1117 597 1075 447.5 Q1033 298 952 192 Q871 86 756 33 Q641 -20 500 -20 Z M928 720 Q928 845 873.5 907 Q819 969 701 969 Q569 969 482.5 892 Q396 815 348.5 662 Q301 509 301 373 Q301 113 524 113 Q625 113 696 154.5 Q767 196 818.5 283 Q870 370 899 498.5 Q928 627 928 720 Z M841 1201 L845 1221 L1099 1460 L1286 1460 L1280 1431 L935 1201 L841 1201 Z M477 1201 L481 1221 L735 1460 L922 1460 L916 1431 L571 1201 L477 1201 Z " />
<glyph glyph-name="OE" unicode="&#x152;" horiz-adv-x="1229" d="M504 0 Q444 -5 405 -5 Q206 -5 111.5 96 Q17 197 17 406 Q17 564 65.5 767 Q114 970 194.5 1099 Q275 1228 392 1291.5 Q509 1355 671 1355 Q730 1355 779 1349 L1337 1349 L1308 1197 L910 1197 L824 757 L1191 757 L1162 607 L795 607 L707 152 L1146 152 L1116 0 L504 0 Z M434 140 Q505 140 535 146 L741 1203 Q705 1209 643 1209 Q499 1209 405.5 1110.5 Q312 1012 256.5 805 Q201 598 201 437 Q201 282 260 211 Q319 140 434 140 Z " />
<glyph glyph-name="oe" unicode="&#x153;" horiz-adv-x="1229" d="M705 503 Q683 393 683 307 Q683 115 797 115 Q863 115 910.5 162 Q958 209 987 281 L1116 236 Q1002 -20 773 -20 Q591 -20 546 163 Q428 -20 244 -20 Q129 -20 65.5 60.5 Q2 141 2 307 Q2 434 40 599.5 Q78 765 139 876 Q200 987 282.5 1044.5 Q365 1102 469 1102 Q656 1102 701 925 Q820 1102 994 1102 Q1230 1102 1230 787 Q1230 672 1201 527 L1197 503 L705 503 Z M573 789 Q573 883 544 926 Q515 969 456 969 Q372 969 312.5 880.5 Q253 792 211 607.5 Q169 423 169 305 Q169 113 284 113 Q373 113 432.5 207.5 Q492 302 532.5 491.5 Q573 681 573 789 Z M958 969 Q885 969 826 882.5 Q767 796 734 641 L1058 641 Q1070 727 1070 788 Q1070 882 1042.5 925.5 Q1015 969 958 969 Z " />
<glyph glyph-name="Racute" unicode="&#x154;" horiz-adv-x="1229" d="M852 0 L598 575 L360 575 L248 0 L57 0 L319 1349 L801 1349 Q1010 1349 1112.5 1273 Q1215 1197 1215 1060 Q1215 956 1163.5 855 Q1112 754 1013 685.5 Q914 617 788 597 L1072 0 L852 0 Z M1018 1026 Q1018 1196 752 1196 L480 1196 L389 726 L669 726 Q780 726 860 765.5 Q940 805 979 877.5 Q1018 950 1018 1026 Z M650 1446 L654 1466 L928 1705 L1125 1705 L1119 1676 L774 1446 L650 1446 Z " />
<glyph glyph-name="racute" unicode="&#x155;" horiz-adv-x="1229" d="M1118 918 Q1011 937 910 937 Q750 937 627 816 Q504 695 468 508 L369 0 L189 0 L325 701 Q350 837 350 990 L347 1082 L518 1082 Q524 1032 524 954 Q524 888 518 832 L523 832 Q596 945 653.5 997 Q711 1049 782 1075.5 Q853 1102 948 1102 Q1054 1102 1151 1085 L1118 918 Z M619 1201 L623 1221 L897 1460 L1094 1460 L1088 1431 L743 1201 L619 1201 Z " />
<glyph glyph-name="Rcommaaccent" unicode="&#x156;" horiz-adv-x="1229" d="M852 0 L598 575 L360 575 L248 0 L57 0 L319 1349 L801 1349 Q1010 1349 1112.5 1273 Q1215 1197 1215 1060 Q1215 956 1163.5 855 Q1112 754 1013 685.5 Q914 617 788 597 L1072 0 L852 0 Z M1018 1026 Q1018 1196 752 1196 L480 1196 L389 726 L669 726 Q780 726 860 765.5 Q940 805 979 877.5 Q1018 950 1018 1026 Z M285 -423 L291 -390 L427 -98 L624 -98 L617 -135 L390 -423 L285 -423 Z " />
<glyph glyph-name="rcommaaccent" unicode="&#x157;" horiz-adv-x="1229" d="M1118 918 Q1011 937 910 937 Q750 937 627 816 Q504 695 468 508 L369 0 L189 0 L325 701 Q350 837 350 990 L347 1082 L518 1082 Q524 1032 524 954 Q524 888 518 832 L523 832 Q596 945 653.5 997 Q711 1049 782 1075.5 Q853 1102 948 1102 Q1054 1102 1151 1085 L1118 918 Z M16 -423 L22 -390 L158 -98 L355 -98 L348 -135 L121 -423 L16 -423 Z " />
<glyph glyph-name="Rcaron" unicode="&#x158;" horiz-adv-x="1229" d="M852 0 L598 575 L360 575 L248 0 L57 0 L319 1349 L801 1349 Q1010 1349 1112.5 1273 Q1215 1197 1215 1060 Q1215 956 1163.5 855 Q1112 754 1013 685.5 Q914 617 788 597 L1072 0 L852 0 Z M1018 1026 Q1018 1196 752 1196 L480 1196 L389 726 L669 726 Q780 726 860 765.5 Q940 805 979 877.5 Q1018 950 1018 1026 Z M857 1446 L693 1446 L486 1685 L490 1705 L594 1705 L799 1567 L801 1567 L1047 1705 L1152 1705 L1148 1685 L857 1446 Z " />
<glyph glyph-name="rcaron" unicode="&#x159;" horiz-adv-x="1229" d="M1118 918 Q1011 937 910 937 Q750 937 627 816 Q504 695 468 508 L369 0 L189 0 L325 701 Q350 837 350 990 L347 1082 L518 1082 Q524 1032 524 954 Q524 888 518 832 L523 832 Q596 945 653.5 997 Q711 1049 782 1075.5 Q853 1102 948 1102 Q1054 1102 1151 1085 L1118 918 Z M849 1201 L685 1201 L478 1440 L482 1460 L586 1460 L791 1322 L793 1322 L1039 1460 L1144 1460 L1140 1440 L849 1201 Z " />
<glyph glyph-name="Sacute" unicode="&#x15a;" horiz-adv-x="1229" d="M501 -20 Q44 -20 40 338 L232 375 Q234 248 310 188.5 Q386 129 535 129 Q694 129 788.5 190.5 Q883 252 905 367 L910 412 Q910 468 879.5 505 Q849 542 795 567.5 Q741 593 585 633 Q440 673 385 700 Q330 727 296.5 760 Q263 793 245.5 835 Q228 877 228 932 Q228 1018 264 1102.5 Q300 1187 371.5 1248 Q443 1309 546 1339.5 Q649 1370 776 1370 Q990 1370 1087 1295 Q1184 1220 1193 1046 L999 1013 Q997 1124 936 1175 Q875 1226 747 1226 Q466 1226 423 1013 L419 972 Q419 925 442.5 895 Q466 865 506 844.5 Q546 824 599 809.5 Q652 795 711 779 Q889 731 957.5 693 Q1026 655 1065 598.5 Q1104 542 1104 455 Q1104 359 1063 267.5 Q1022 176 944.5 112.5 Q867 49 756 14.5 Q645 -20 501 -20 Z M698 1446 L702 1466 L976 1705 L1173 1705 L1167 1676 L822 1446 L698 1446 Z " />
<glyph glyph-name="sacute" unicode="&#x15b;" horiz-adv-x="1229" d="M512 -20 Q307 -20 212 43.5 Q117 107 110 248 L275 279 Q278 191 333.5 152.5 Q389 114 538 114 Q690 114 767 169 Q844 224 844 315 Q844 364 802.5 397 Q761 430 666 456 L550 487 Q418 523 364.5 552.5 Q311 582 281.5 624.5 Q252 667 252 728 Q252 800 285 872 Q318 944 380.5 995 Q443 1046 533 1072.5 Q623 1099 732 1099 Q908 1099 1000.5 1032 Q1093 965 1093 839 L927 819 L927 824 Q927 894 875 929.5 Q823 965 706 965 Q568 965 498 917 Q428 869 428 784 Q428 738 463.5 708.5 Q499 679 585 657 Q806 599 864 573 Q922 547 957 513.5 Q992 480 1006.5 445 Q1021 410 1021 366 Q1021 263 958 170.5 Q895 78 779 29 Q663 -20 512 -20 Z M616 1201 L620 1221 L894 1460 L1091 1460 L1085 1431 L740 1201 L616 1201 Z " />
<glyph glyph-name="Scircumflex" unicode="&#x15c;" horiz-adv-x="1229" d="M501 -20 Q44 -20 40 338 L232 375 Q234 248 310 188.5 Q386 129 535 129 Q694 129 788.5 190.5 Q883 252 905 367 L910 412 Q910 468 879.5 505 Q849 542 795 567.5 Q741 593 585 633 Q440 673 385 700 Q330 727 296.5 760 Q263 793 245.5 835 Q228 877 228 932 Q228 1018 264 1102.5 Q300 1187 371.5 1248 Q443 1309 546 1339.5 Q649 1370 776 1370 Q990 1370 1087 1295 Q1184 1220 1193 1046 L999 1013 Q997 1124 936 1175 Q875 1226 747 1226 Q466 1226 423 1013 L419 972 Q419 925 442.5 895 Q466 865 506 844.5 Q546 824 599 809.5 Q652 795 711 779 Q889 731 957.5 693 Q1026 655 1065 598.5 Q1104 542 1104 455 Q1104 359 1063 267.5 Q1022 176 944.5 112.5 Q867 49 756 14.5 Q645 -20 501 -20 Z M1129 1466 L1125 1446 L1020 1446 L828 1584 L826 1584 L567 1446 L463 1446 L467 1466 L768 1705 L932 1705 L1129 1466 Z " />
<glyph glyph-name="scircumflex" unicode="&#x15d;" horiz-adv-x="1229" d="M512 -20 Q307 -20 212 43.5 Q117 107 110 248 L275 279 Q278 191 333.5 152.5 Q389 114 538 114 Q690 114 767 169 Q844 224 844 315 Q844 364 802.5 397 Q761 430 666 456 L550 487 Q418 523 364.5 552.5 Q311 582 281.5 624.5 Q252 667 252 728 Q252 800 285 872 Q318 944 380.5 995 Q443 1046 533 1072.5 Q623 1099 732 1099 Q908 1099 1000.5 1032 Q1093 965 1093 839 L927 819 L927 824 Q927 894 875 929.5 Q823 965 706 965 Q568 965 498 917 Q428 869 428 784 Q428 738 463.5 708.5 Q499 679 585 657 Q806 599 864 573 Q922 547 957 513.5 Q992 480 1006.5 445 Q1021 410 1021 366 Q1021 263 958 170.5 Q895 78 779 29 Q663 -20 512 -20 Z M1092 1221 L1088 1201 L983 1201 L791 1339 L789 1339 L530 1201 L426 1201 L430 1221 L731 1460 L895 1460 L1092 1221 Z " />
<glyph glyph-name="Scedilla" unicode="&#x15e;" horiz-adv-x="1229" d="M501 -20 Q44 -20 40 338 L232 375 Q234 248 310 188.5 Q386 129 535 129 Q694 129 788.5 190.5 Q883 252 905 367 L910 412 Q910 468 879.5 505 Q849 542 795 567.5 Q741 593 585 633 Q440 673 385 700 Q330 727 296.5 760 Q263 793 245.5 835 Q228 877 228 932 Q228 1018 264 1102.5 Q300 1187 371.5 1248 Q443 1309 546 1339.5 Q649 1370 776 1370 Q990 1370 1087 1295 Q1184 1220 1193 1046 L999 1013 Q997 1124 936 1175 Q875 1226 747 1226 Q466 1226 423 1013 L419 972 Q419 925 442.5 895 Q466 865 506 844.5 Q546 824 599 809.5 Q652 795 711 779 Q889 731 957.5 693 Q1026 655 1065 598.5 Q1104 542 1104 455 Q1104 359 1063 267.5 Q1022 176 944.5 112.5 Q867 49 756 14.5 Q645 -20 501 -20 Z M350 -444 Q293 -444 260 -440 L280 -342 Q328 -348 364 -348 Q510 -348 528 -262 L530 -244 Q530 -180 411 -180 Q368 -180 354 -182 L454 0 L561 0 L503 -100 Q584 -102 624 -134 Q664 -166 664 -222 Q664 -281 630.5 -335 Q597 -389 527.5 -416.5 Q458 -444 350 -444 Z " />
<glyph glyph-name="scedilla" unicode="&#x15f;" horiz-adv-x="1229" d="M512 -20 Q307 -20 212 43.5 Q117 107 110 248 L275 279 Q278 191 333.5 152.5 Q389 114 538 114 Q690 114 767 169 Q844 224 844 315 Q844 364 802.5 397 Q761 430 666 456 L550 487 Q418 523 364.5 552.5 Q311 582 281.5 624.5 Q252 667 252 728 Q252 800 285 872 Q318 944 380.5 995 Q443 1046 533 1072.5 Q623 1099 732 1099 Q908 1099 1000.5 1032 Q1093 965 1093 839 L927 819 L927 824 Q927 894 875 929.5 Q823 965 706 965 Q568 965 498 917 Q428 869 428 784 Q428 738 463.5 708.5 Q499 679 585 657 Q806 599 864 573 Q922 547 957 513.5 Q992 480 1006.5 445 Q1021 410 1021 366 Q1021 263 958 170.5 Q895 78 779 29 Q663 -20 512 -20 Z M360 -444 Q303 -444 270 -440 L290 -342 Q338 -348 374 -348 Q520 -348 538 -262 L540 -244 Q540 -180 421 -180 Q378 -180 364 -182 L464 0 L571 0 L513 -100 Q594 -102 634 -134 Q674 -166 674 -222 Q674 -281 640.5 -335 Q607 -389 537.5 -416.5 Q468 -444 360 -444 Z " />
<glyph glyph-name="Scaron" unicode="&#x160;" horiz-adv-x="1229" d="M501 -20 Q44 -20 40 338 L232 375 Q234 248 310 188.5 Q386 129 535 129 Q694 129 788.5 190.5 Q883 252 905 367 L910 412 Q910 468 879.5 505 Q849 542 795 567.5 Q741 593 585 633 Q440 673 385 700 Q330 727 296.5 760 Q263 793 245.5 835 Q228 877 228 932 Q228 1018 264 1102.5 Q300 1187 371.5 1248 Q443 1309 546 1339.5 Q649 1370 776 1370 Q990 1370 1087 1295 Q1184 1220 1193 1046 L999 1013 Q997 1124 936 1175 Q875 1226 747 1226 Q466 1226 423 1013 L419 972 Q419 925 442.5 895 Q466 865 506 844.5 Q546 824 599 809.5 Q652 795 711 779 Q889 731 957.5 693 Q1026 655 1065 598.5 Q1104 542 1104 455 Q1104 359 1063 267.5 Q1022 176 944.5 112.5 Q867 49 756 14.5 Q645 -20 501 -20 Z M876 1445 L712 1445 L505 1684 L509 1704 L613 1704 L818 1566 L820 1566 L1066 1704 L1171 1704 L1167 1684 L876 1445 Z " />
<glyph glyph-name="scaron" unicode="&#x161;" horiz-adv-x="1229" d="M512 -20 Q307 -20 212 43.5 Q117 107 110 248 L275 279 Q278 191 333.5 152.5 Q389 114 538 114 Q690 114 767 169 Q844 224 844 315 Q844 364 802.5 397 Q761 430 666 456 L550 487 Q418 523 364.5 552.5 Q311 582 281.5 624.5 Q252 667 252 728 Q252 800 285 872 Q318 944 380.5 995 Q443 1046 533 1072.5 Q623 1099 732 1099 Q908 1099 1000.5 1032 Q1093 965 1093 839 L927 819 L927 824 Q927 894 875 929.5 Q823 965 706 965 Q568 965 498 917 Q428 869 428 784 Q428 738 463.5 708.5 Q499 679 585 657 Q806 599 864 573 Q922 547 957 513.5 Q992 480 1006.5 445 Q1021 410 1021 366 Q1021 263 958 170.5 Q895 78 779 29 Q663 -20 512 -20 Z M834 1201 L670 1201 L463 1440 L467 1460 L571 1460 L776 1322 L778 1322 L1024 1460 L1129 1460 L1125 1440 L834 1201 Z " />
<glyph glyph-name="Tcommaaccent" unicode="&#x162;" horiz-adv-x="1229" d="M836 1193 L604 0 L414 0 L646 1193 L203 1193 L233 1349 L1309 1349 L1279 1193 L836 1193 Z M259 -423 L265 -390 L401 -98 L598 -98 L591 -135 L364 -423 L259 -423 Z " />
<glyph glyph-name="tcommaaccent" unicode="&#x163;" horiz-adv-x="1229" d="M268 940 L295 1082 L465 1082 L578 1364 L698 1364 L643 1082 L1075 1082 L1048 940 L616 940 L489 288 L484 244 Q484 187 522 160 Q560 133 641 133 Q774 133 944 167 L918 30 Q742 -16 574 -16 Q435 -16 366 33.5 Q297 83 297 189 Q297 234 305 269 L436 940 L268 940 Z M293 -423 L299 -390 L435 -98 L632 -98 L625 -135 L398 -423 L293 -423 Z " />
<glyph glyph-name="Tcaron" unicode="&#x164;" horiz-adv-x="1229" d="M836 1193 L604 0 L414 0 L646 1193 L203 1193 L233 1349 L1309 1349 L1279 1193 L836 1193 Z M877 1446 L713 1446 L506 1685 L510 1705 L614 1705 L819 1567 L821 1567 L1067 1705 L1172 1705 L1168 1685 L877 1446 Z " />
<glyph glyph-name="tcaron" unicode="&#x165;" horiz-adv-x="1229" d="M179 940 L206 1082 L376 1082 L489 1364 L609 1364 L554 1082 L986 1082 L959 940 L527 940 L400 288 L395 244 Q395 187 433 160 Q471 133 552 133 Q685 133 855 167 L829 30 Q653 -16 485 -16 Q346 -16 277 33.5 Q208 83 208 189 Q208 234 216 269 L347 940 L179 940 Z M1065 1159 L1072 1192 L1207 1484 L1404 1484 L1397 1447 L1170 1159 L1065 1159 Z " />
<glyph glyph-name="Tbar" unicode="&#x166;" horiz-adv-x="1229" d="M836 1193 L753 769 L993 769 L965 620 L725 620 L604 0 L414 0 L535 620 L295 620 L323 769 L563 769 L646 1193 L203 1193 L233 1349 L1309 1349 L1279 1193 L836 1193 Z " />
<glyph glyph-name="tbar" unicode="&#x167;" horiz-adv-x="1229" d="M1001 647 L975 515 L543 515 L499 288 L494 244 Q494 187 532 160 Q570 133 651 133 Q784 133 954 167 L928 30 Q752 -16 584 -16 Q445 -16 376 33.5 Q307 83 307 189 Q307 206 308.5 225 Q310 244 363 515 L195 515 L221 647 L389 647 L446 940 L278 940 L305 1082 L475 1082 L588 1364 L708 1364 L653 1082 L1085 1082 L1058 940 L626 940 L569 647 L1001 647 Z " />
<glyph glyph-name="Utilde" unicode="&#x168;" horiz-adv-x="1229" d="M496 -20 Q295 -20 202.5 57.5 Q110 135 110 301 Q110 378 129 472 L299 1349 L490 1349 L325 498 Q305 396 305 328 Q305 226 355.5 180.5 Q406 135 525 135 Q686 135 766.5 217 Q847 299 889 511 L1052 1349 L1242 1349 L1075 490 Q1023 224 886 102 Q749 -20 496 -20 Z M947 1446 Q905 1446 867 1464.5 Q829 1483 793 1505.5 Q757 1528 722.5 1546.5 Q688 1565 653 1565 Q616 1565 592 1541.5 Q568 1518 543 1446 L432 1446 Q474 1583 535.5 1638.5 Q597 1694 684 1694 Q728 1694 766.5 1675.5 Q805 1657 840.5 1634.5 Q876 1612 909.5 1593.5 Q943 1575 976 1575 Q1016 1575 1041 1602.5 Q1066 1630 1086 1694 L1198 1694 Q1167 1597 1134.5 1548.5 Q1102 1500 1056 1473 Q1010 1446 947 1446 Z " />
<glyph glyph-name="utilde" unicode="&#x169;" horiz-adv-x="1229" d="M470 1082 L337 396 Q323 324 323 273 Q323 189 365.5 154 Q408 119 507 119 Q638 119 730 209 Q822 299 851 455 L973 1082 L1154 1082 L989 231 Q982 197 975.5 159.5 Q969 122 963.5 88.5 Q958 55 954 31 Q950 7 950 0 L780 0 Q780 11 790.5 77.5 Q801 144 808 185 L805 185 Q722 73 629.5 26.5 Q537 -20 419 -20 Q273 -20 204 38 Q135 96 135 223 Q135 283 150 361 L290 1082 L470 1082 Z M899 1201 Q857 1201 819 1219.5 Q781 1238 745 1260.5 Q709 1283 674.5 1301.5 Q640 1320 605 1320 Q568 1320 544 1296.5 Q520 1273 495 1201 L384 1201 Q426 1338 487.5 1393.5 Q549 1449 636 1449 Q680 1449 718.5 1430.5 Q757 1412 792.5 1389.5 Q828 1367 861.5 1348.5 Q895 1330 928 1330 Q968 1330 993 1357.5 Q1018 1385 1038 1449 L1150 1449 Q1119 1352 1086.5 1303.5 Q1054 1255 1008 1228 Q962 1201 899 1201 Z " />
<glyph glyph-name="Umacron" unicode="&#x16a;" horiz-adv-x="1229" d="M496 -20 Q295 -20 202.5 57.5 Q110 135 110 301 Q110 378 129 472 L299 1349 L490 1349 L325 498 Q305 396 305 328 Q305 226 355.5 180.5 Q406 135 525 135 Q686 135 766.5 217 Q847 299 889 511 L1052 1349 L1242 1349 L1075 490 Q1023 224 886 102 Q749 -20 496 -20 Z M1077 1503 L526 1503 L551 1630 L1102 1630 L1077 1503 Z " />
<glyph glyph-name="umacron" unicode="&#x16b;" horiz-adv-x="1229" d="M470 1082 L337 396 Q323 324 323 273 Q323 189 365.5 154 Q408 119 507 119 Q638 119 730 209 Q822 299 851 455 L973 1082 L1154 1082 L989 231 Q982 197 975.5 159.5 Q969 122 963.5 88.5 Q958 55 954 31 Q950 7 950 0 L780 0 Q780 11 790.5 77.5 Q801 144 808 185 L805 185 Q722 73 629.5 26.5 Q537 -20 419 -20 Q273 -20 204 38 Q135 96 135 223 Q135 283 150 361 L290 1082 L470 1082 Z M1025 1236 L474 1236 L499 1363 L1050 1363 L1025 1236 Z " />
<glyph glyph-name="Ubreve" unicode="&#x16c;" horiz-adv-x="1229" d="M496 -20 Q295 -20 202.5 57.5 Q110 135 110 301 Q110 378 129 472 L299 1349 L490 1349 L325 498 Q305 396 305 328 Q305 226 355.5 180.5 Q406 135 525 135 Q686 135 766.5 217 Q847 299 889 511 L1052 1349 L1242 1349 L1075 490 Q1023 224 886 102 Q749 -20 496 -20 Z M789 1446 Q669 1446 598.5 1515 Q528 1584 528 1699 L528 1705 L655 1705 Q663 1572 814 1572 Q899 1572 948.5 1607 Q998 1642 1027 1705 L1154 1705 Q1105 1583 1009 1514.5 Q913 1446 789 1446 Z " />
<glyph glyph-name="ubreve" unicode="&#x16d;" horiz-adv-x="1229" d="M470 1082 L337 396 Q323 324 323 273 Q323 189 365.5 154 Q408 119 507 119 Q638 119 730 209 Q822 299 851 455 L973 1082 L1154 1082 L989 231 Q982 197 975.5 159.5 Q969 122 963.5 88.5 Q958 55 954 31 Q950 7 950 0 L780 0 Q780 11 790.5 77.5 Q801 144 808 185 L805 185 Q722 73 629.5 26.5 Q537 -20 419 -20 Q273 -20 204 38 Q135 96 135 223 Q135 283 150 361 L290 1082 L470 1082 Z M741 1201 Q621 1201 550.5 1270 Q480 1339 480 1454 L480 1460 L607 1460 Q615 1327 766 1327 Q851 1327 900.5 1362 Q950 1397 979 1460 L1106 1460 Q1057 1338 961 1269.5 Q865 1201 741 1201 Z " />
<glyph glyph-name="Uring" unicode="&#x16e;" horiz-adv-x="1229" d="M496 -20 Q295 -20 202.5 57.5 Q110 135 110 301 Q110 378 129 472 L299 1349 L490 1349 L325 498 Q305 396 305 328 Q305 226 355.5 180.5 Q406 135 525 135 Q686 135 766.5 217 Q847 299 889 511 L1052 1349 L1242 1349 L1075 490 Q1023 224 886 102 Q749 -20 496 -20 Z M763 1306 Q667 1306 611.5 1349.5 Q556 1393 556 1468 Q556 1527 591 1584 Q626 1641 692.5 1673 Q759 1705 841 1705 Q936 1705 992 1663 Q1048 1621 1048 1544 Q1048 1481 1011 1424.5 Q974 1368 909 1337 Q844 1306 763 1306 Z M924 1520 Q924 1552 895 1570.5 Q866 1589 818 1589 Q756 1589 717.5 1561 Q679 1533 679 1493 Q679 1460 707 1441 Q735 1422 786 1422 Q849 1422 886.5 1451 Q924 1480 924 1520 Z " />
<glyph glyph-name="uring" unicode="&#x16f;" horiz-adv-x="1229" d="M470 1082 L337 396 Q323 324 323 273 Q323 189 365.5 154 Q408 119 507 119 Q638 119 730 209 Q822 299 851 455 L973 1082 L1154 1082 L989 231 Q982 197 975.5 159.5 Q969 122 963.5 88.5 Q958 55 954 31 Q950 7 950 0 L780 0 Q780 11 790.5 77.5 Q801 144 808 185 L805 185 Q722 73 629.5 26.5 Q537 -20 419 -20 Q273 -20 204 38 Q135 96 135 223 Q135 283 150 361 L290 1082 L470 1082 Z M732 1148 Q636 1148 580.5 1191.5 Q525 1235 525 1310 Q525 1369 560 1426 Q595 1483 661.5 1515 Q728 1547 810 1547 Q905 1547 961 1505 Q1017 1463 1017 1386 Q1017 1323 980 1266.5 Q943 1210 878 1179 Q813 1148 732 1148 Z M893 1362 Q893 1394 864 1412.5 Q835 1431 787 1431 Q725 1431 686.5 1403 Q648 1375 648 1335 Q648 1302 676 1283 Q704 1264 755 1264 Q818 1264 855.5 1293 Q893 1322 893 1362 Z " />
<glyph glyph-name="Uhungarumlaut" unicode="&#x170;" horiz-adv-x="1229" d="M496 -20 Q295 -20 202.5 57.5 Q110 135 110 301 Q110 378 129 472 L299 1349 L490 1349 L325 498 Q305 396 305 328 Q305 226 355.5 180.5 Q406 135 525 135 Q686 135 766.5 217 Q847 299 889 511 L1052 1349 L1242 1349 L1075 490 Q1023 224 886 102 Q749 -20 496 -20 Z M881 1446 L885 1466 L1139 1705 L1326 1705 L1320 1676 L975 1446 L881 1446 Z M517 1446 L521 1466 L775 1705 L962 1705 L956 1676 L611 1446 L517 1446 Z " />
<glyph glyph-name="uhungarumlaut" unicode="&#x171;" horiz-adv-x="1229" d="M470 1082 L337 396 Q323 324 323 273 Q323 189 365.5 154 Q408 119 507 119 Q638 119 730 209 Q822 299 851 455 L973 1082 L1154 1082 L989 231 Q982 197 975.5 159.5 Q969 122 963.5 88.5 Q958 55 954 31 Q950 7 950 0 L780 0 Q780 11 790.5 77.5 Q801 144 808 185 L805 185 Q722 73 629.5 26.5 Q537 -20 419 -20 Q273 -20 204 38 Q135 96 135 223 Q135 283 150 361 L290 1082 L470 1082 Z M839 1201 L843 1221 L1097 1460 L1284 1460 L1278 1431 L933 1201 L839 1201 Z M475 1201 L479 1221 L733 1460 L920 1460 L914 1431 L569 1201 L475 1201 Z " />
<glyph glyph-name="Uogonek" unicode="&#x172;" horiz-adv-x="1229" d="M496 -20 Q295 -20 202.5 57.5 Q110 135 110 301 Q110 378 129 472 L299 1349 L490 1349 L325 498 Q305 396 305 328 Q305 226 355.5 180.5 Q406 135 525 135 Q686 135 766.5 217 Q847 299 889 511 L1052 1349 L1242 1349 L1075 490 Q1023 224 886 102 Q749 -20 496 -20 Z M523 -427 Q432 -427 387.5 -388.5 Q343 -350 343 -284 Q343 -204 400.5 -126.5 Q458 -49 550 0 L683 0 Q600 -43 545 -116.5 Q490 -190 490 -250 Q490 -317 568 -317 Q623 -317 688 -293 L667 -400 Q600 -427 523 -427 Z " />
<glyph glyph-name="uogonek" unicode="&#x173;" horiz-adv-x="1229" d="M470 1082 L337 396 Q323 324 323 273 Q323 189 365.5 154 Q408 119 507 119 Q638 119 730 209 Q822 299 851 455 L973 1082 L1154 1082 L989 231 Q982 197 975.5 159.5 Q969 122 963.5 88.5 Q958 55 954 31 Q950 7 950 0 L780 0 Q780 11 790.5 77.5 Q801 144 808 185 L805 185 Q722 73 629.5 26.5 Q537 -20 419 -20 Q273 -20 204 38 Q135 96 135 223 Q135 283 150 361 L290 1082 L470 1082 Z M753 -427 Q662 -427 617.5 -388.5 Q573 -350 573 -284 Q573 -204 630.5 -126.5 Q688 -49 780 0 L913 0 Q830 -43 775 -116.5 Q720 -190 720 -250 Q720 -317 798 -317 Q853 -317 918 -293 L897 -400 Q830 -427 753 -427 Z " />
<glyph glyph-name="Wcircumflex" unicode="&#x174;" horiz-adv-x="1229" d="M913 0 L705 0 L673 432 Q668 491 658 756 Q625 676 575.5 564.5 Q526 453 314 0 L106 0 L157 1349 L346 1349 L293 514 Q280 349 259 168 Q341 363 391.5 475 Q442 587 604 931 L779 931 Q801 654 812.5 505.5 Q824 357 828 168 L930 514 L1196 1349 L1385 1349 L913 0 Z M1120 1466 L1116 1446 L1011 1446 L819 1584 L817 1584 L558 1446 L454 1446 L458 1466 L759 1705 L923 1705 L1120 1466 Z " />
<glyph glyph-name="wcircumflex" unicode="&#x175;" horiz-adv-x="1229" d="M913 0 L709 0 L658 471 L640 673 L574 534 L302 0 L99 0 L126 1082 L304 1082 L279 475 Q277 418 266.5 300.5 Q256 183 249 149 L288 235 L349 363 L566 787 L759 787 L806 362 L820 149 Q825 175 836 213 Q847 251 918 475 L1137 1082 L1313 1082 L913 0 Z M1073 1221 L1069 1201 L964 1201 L772 1339 L770 1339 L511 1201 L407 1201 L411 1221 L712 1460 L876 1460 L1073 1221 Z " />
<glyph glyph-name="Ycircumflex" unicode="&#x176;" horiz-adv-x="1229" d="M603 0 L415 0 L529 584 L193 1349 L398 1349 L653 738 L1144 1349 L1349 1349 L717 584 L603 0 Z M1120 1466 L1116 1446 L1011 1446 L819 1584 L817 1584 L558 1446 L454 1446 L458 1466 L759 1705 L923 1705 L1120 1466 Z " />
<glyph glyph-name="ycircumflex" unicode="&#x177;" horiz-adv-x="1229" d="M104 -425 Q32 -425 -17 -414 L9 -279 Q45 -285 92 -285 Q171 -285 252 -226 Q333 -167 406 -38 L433 11 L171 1082 L363 1082 L503 440 Q514 391 532.5 296.5 Q551 202 551 186 Q561 208 614 296 L1076 1082 L1266 1082 L600 0 Q460 -242 347.5 -333.5 Q235 -425 104 -425 Z M1073 1221 L1069 1201 L964 1201 L772 1339 L770 1339 L511 1201 L407 1201 L411 1221 L712 1460 L876 1460 L1073 1221 Z " />
<glyph glyph-name="Ydieresis" unicode="&#x178;" horiz-adv-x="1229" d="M603 0 L415 0 L529 584 L193 1349 L398 1349 L653 738 L1144 1349 L1349 1349 L717 584 L603 0 Z M906 1445 L942 1629 L1105 1629 L1069 1445 L906 1445 Z M512 1445 L548 1629 L713 1629 L677 1445 L512 1445 Z " />
<glyph glyph-name="Zacute" unicode="&#x179;" horiz-adv-x="1229" d="M1050 0 L-32 0 L-4 143 L1018 1193 L273 1193 L303 1349 L1265 1349 L1238 1210 L215 156 L1080 156 L1050 0 Z M680 1446 L684 1466 L958 1705 L1155 1705 L1149 1676 L804 1446 L680 1446 Z " />
<glyph glyph-name="zacute" unicode="&#x17a;" horiz-adv-x="1229" d="M42 0 L69 137 L906 943 L265 943 L292 1082 L1136 1082 L1110 945 L271 139 L990 139 L963 0 L42 0 Z M615 1201 L619 1221 L893 1460 L1090 1460 L1084 1431 L739 1201 L615 1201 Z " />
<glyph glyph-name="Zdotaccent" unicode="&#x17b;" horiz-adv-x="1229" d="M1050 0 L-32 0 L-4 143 L1018 1193 L273 1193 L303 1349 L1265 1349 L1238 1210 L215 156 L1080 156 L1050 0 Z M704 1446 L741 1638 L941 1638 L904 1446 L704 1446 Z " />
<glyph glyph-name="zdotaccent" unicode="&#x17c;" horiz-adv-x="1229" d="M42 0 L69 137 L906 943 L265 943 L292 1082 L1136 1082 L1110 945 L271 139 L990 139 L963 0 L42 0 Z M658 1292 L695 1484 L895 1484 L858 1292 L658 1292 Z " />
<glyph glyph-name="Zcaron" unicode="&#x17d;" horiz-adv-x="1229" d="M1050 0 L-32 0 L-4 143 L1018 1193 L273 1193 L303 1349 L1265 1349 L1238 1210 L215 156 L1080 156 L1050 0 Z M886 1445 L722 1445 L515 1684 L519 1704 L623 1704 L828 1566 L830 1566 L1076 1704 L1181 1704 L1177 1684 L886 1445 Z " />
<glyph glyph-name="zcaron" unicode="&#x17e;" horiz-adv-x="1229" d="M42 0 L69 137 L906 943 L265 943 L292 1082 L1136 1082 L1110 945 L271 139 L990 139 L963 0 L42 0 Z M830 1201 L666 1201 L459 1440 L463 1460 L567 1460 L772 1322 L774 1322 L1020 1460 L1125 1460 L1121 1440 L830 1201 Z " />
<glyph glyph-name="longs" unicode="&#x17f;" horiz-adv-x="1229" d="M475 0 L295 0 L510 1107 Q550 1311 662.5 1397.5 Q775 1484 1001 1484 Q1071 1484 1153 1477.5 Q1235 1471 1278 1463 L1250 1318 Q1221 1323 1129 1329 Q1037 1335 993 1335 Q844 1335 779 1281 Q714 1227 687 1092 L475 0 Z " />
<glyph glyph-name="uni0180" unicode="&#x180;" horiz-adv-x="1229" d="M589 -20 Q345 -20 291 164 L289 164 Q284 138 277.5 110.5 Q271 83 265 60 Q259 37 254 20.5 Q249 4 248 0 L74 0 Q82 25 123 223 L314 1206 L187 1206 L213 1337 L339 1337 L368 1484 L548 1484 L519 1337 L825 1337 L799 1206 L494 1206 Q465 1056 432 904 L436 904 Q566 1104 809 1104 Q1115 1104 1115 761 Q1115 667 1091 546 Q1035 262 906.5 121 Q778 -20 589 -20 Z M926 736 Q926 856 878.5 910.5 Q831 965 733 965 Q606 965 522 885 Q438 805 390.5 644 Q343 483 343 351 Q343 228 397 170.5 Q451 113 565 113 Q683 113 758.5 191.5 Q834 270 880 437 Q926 604 926 736 Z " />
<glyph glyph-name="uni0181" unicode="&#x181;" horiz-adv-x="1229" d="M1128 435 Q1128 232 966.5 116 Q805 0 529 0 L157 0 L391 1201 Q301 1201 258.5 1157 Q216 1113 216 1013 L218 957 L60 940 L59 965 L59 990 Q59 1155 155.5 1252 Q252 1349 420 1349 L732 1349 Q1171 1349 1171 1079 Q1171 941 1081 842 Q991 743 836 711 Q973 696 1050.5 623 Q1128 550 1128 435 Z M937 437 Q937 631 623 631 L471 631 L378 153 L544 153 Q937 153 937 437 Z M972 1036 Q972 1121 905 1158.5 Q838 1196 704 1196 L581 1196 L500 780 L625 780 Q796 780 884 845 Q972 910 972 1036 Z " />
<glyph glyph-name="uni0182" unicode="&#x182;" horiz-adv-x="1229" d="M608 0 L83 0 L345 1349 L1263 1349 L1233 1193 L506 1193 L426 783 L748 783 Q959 783 1068.5 705 Q1178 627 1178 481 Q1178 349 1108 235 Q1038 121 908.5 60.5 Q779 0 608 0 Z M982 442 Q982 623 694 623 L395 623 L303 151 L610 151 Q774 151 863 207 Q952 263 976 387 Q982 417 982 442 Z " />
<glyph glyph-name="uni0183" unicode="&#x183;" horiz-adv-x="1229" d="M589 -20 Q345 -20 291 164 L289 164 Q284 138 277.5 110.5 Q271 83 265 60 Q259 37 254 20.5 Q249 4 248 0 L74 0 Q82 25 123 223 L368 1484 L1102 1484 L1072 1325 L517 1325 L466 1061 L432 904 L436 904 Q566 1104 809 1104 Q1115 1104 1115 761 Q1115 667 1091 546 Q1035 262 906.5 121 Q778 -20 589 -20 Z M926 736 Q926 856 878.5 910.5 Q831 965 733 965 Q606 965 522 885 Q438 805 390.5 644 Q343 483 343 351 Q343 228 397 170.5 Q451 113 565 113 Q683 113 758.5 191.5 Q834 270 880 437 Q926 604 926 736 Z " />
<glyph glyph-name="uni0184" unicode="&#x184;" horiz-adv-x="1229" d="M1152 465 Q1152 327 1082.5 220.5 Q1013 114 883 57 Q753 0 582 0 L57 0 L242 951 L116 1116 L122 1149 L454 1349 L510 1349 L400 783 L722 783 Q929 783 1040.5 701 Q1152 619 1152 465 Z M956 432 Q956 623 668 623 L369 623 L277 151 L584 151 Q777 151 866.5 220 Q956 289 956 432 Z " />
<glyph glyph-name="uni0185" unicode="&#x185;" horiz-adv-x="1229" d="M291 1086 L198 1266 L205 1299 L497 1484 L548 1484 L466 1061 L432 904 L436 904 Q566 1104 809 1104 Q1115 1104 1115 761 Q1115 667 1091 546 Q1035 262 906.5 121 Q778 -20 589 -20 Q345 -20 291 164 L289 164 Q284 138 277.5 110.5 Q271 83 265 60 Q259 37 254 20.5 Q249 4 248 0 L74 0 Q82 25 123 223 L291 1086 Z M926 736 Q926 856 878.5 910.5 Q831 965 733 965 Q606 965 522 885 Q438 805 390.5 644 Q343 483 343 351 Q343 228 397 170.5 Q451 113 565 113 Q683 113 758.5 191.5 Q834 270 880 437 Q926 604 926 736 Z " />
<glyph glyph-name="uni0186" unicode="&#x186;" horiz-adv-x="1229" d="M968 869 Q968 1214 710 1214 Q608 1214 516 1148.5 Q424 1083 365 970 L210 1035 Q403 1370 741 1370 Q955 1370 1062 1245 Q1169 1120 1169 882 Q1169 613 1081 404.5 Q993 196 832.5 88 Q672 -20 461 -20 Q130 -20 50 352 L222 417 Q248 277 316.5 206 Q385 135 489 135 Q637 135 743.5 218 Q850 301 909 470.5 Q968 640 968 869 Z " />
<glyph glyph-name="uni0187" unicode="&#x187;" horiz-adv-x="1229" d="M316 452 Q316 135 582 135 Q792 135 959 417 L1105 352 Q882 -20 550 -20 Q338 -20 227 98.5 Q116 217 116 447 Q116 612 168 801.5 Q220 991 309 1117 Q398 1243 524 1306.5 Q650 1370 810 1370 Q986 1370 1089 1276 Q1118 1413 1202.5 1491.5 Q1287 1570 1406 1570 Q1459 1570 1523 1555 L1492 1398 Q1452 1416 1408 1416 Q1337 1416 1298 1380.5 Q1259 1345 1246 1268 L1206 1031 L1031 970 Q1013 1089 947 1151.5 Q881 1214 781 1214 Q672 1214 589.5 1162 Q507 1110 448 1003.5 Q389 897 352.5 735 Q316 573 316 452 Z " />
<glyph glyph-name="uni0188" unicode="&#x188;" horiz-adv-x="1229" d="M741 1102 Q914 1102 1016 1021 Q1047 1147 1128 1215 Q1209 1283 1323 1283 Q1372 1283 1420 1271 L1391 1121 Q1358 1137 1315 1137 Q1249 1137 1214.5 1101.5 Q1180 1066 1165 989 L1124 779 L930 765 L930 768 Q930 856 877 908.5 Q824 961 706 961 Q605 961 532.5 922 Q460 883 410.5 804.5 Q361 726 331 598.5 Q301 471 301 372 Q301 241 361 180 Q421 119 541 119 Q649 119 730.5 172 Q812 225 850 334 L1038 322 Q985 167 842.5 73.5 Q700 -20 522 -20 Q319 -20 215.5 79 Q112 178 112 369 Q112 496 153.5 639.5 Q195 783 277.5 889 Q360 995 476.5 1048.5 Q593 1102 741 1102 Z " />
<glyph glyph-name="uni0189" unicode="&#x189;" horiz-adv-x="1229" d="M427 0 L57 0 L173 597 L38 597 L67 746 L202 746 L319 1349 L630 1349 Q1175 1349 1175 890 Q1175 732 1121 555 Q1067 378 969 253.5 Q871 129 734 64.5 Q597 0 427 0 Z M653 597 L364 597 L278 156 L440 156 Q568 156 665.5 204.5 Q763 253 832 351 Q901 449 941 597 Q981 745 981 865 Q981 1038 886.5 1115.5 Q792 1193 601 1193 L480 1193 L393 746 L682 746 L653 597 Z " />
<glyph glyph-name="uni018A" unicode="&#x18a;" horiz-adv-x="1229" d="M1176 854 Q1176 597 1085.5 403 Q995 209 824.5 104.5 Q654 0 427 0 L157 0 L391 1201 Q301 1201 258.5 1157 Q216 1113 216 1013 L218 957 L60 940 L59 965 L59 990 Q59 1155 155.5 1252 Q252 1349 420 1349 L631 1349 Q1176 1349 1176 854 Z M981 834 Q981 1022 886 1107.5 Q791 1193 601 1193 L580 1193 L379 156 L441 156 Q699 156 840 334 Q981 512 981 834 Z " />
<glyph glyph-name="uni018B" unicode="&#x18b;" horiz-adv-x="1229" d="M20 324 Q20 539 173.5 661 Q327 783 601 783 L923 783 L1003 1193 L276 1193 L306 1349 L1224 1349 L962 0 L437 0 Q239 0 129.5 85 Q20 170 20 324 Z M213 337 Q213 240 281.5 195.5 Q350 151 493 151 L800 151 L892 623 L593 623 Q213 623 213 337 Z " />
<glyph glyph-name="uni018C" unicode="&#x18c;" horiz-adv-x="1229" d="M944 0 L772 0 L772 4 Q772 47 796 174 L791 174 Q722 69 631.5 21.5 Q541 -26 420 -26 Q262 -26 187 57.5 Q112 141 112 311 Q112 407 136 532 Q247 1098 638 1098 Q759 1098 832.5 1055 Q906 1012 936 914 L938 914 L959 1033 L1015 1325 L462 1325 L493 1484 L1226 1484 L981 223 Q954 93 944 0 Z M301 337 Q301 220 347.5 166.5 Q394 113 494 113 Q621 113 704.5 192 Q788 271 837 436.5 Q886 602 886 728 Q886 849 832 907 Q778 965 662 965 Q574 965 511 923 Q448 881 403 791.5 Q358 702 329.5 564 Q301 426 301 337 Z " />
<glyph glyph-name="uni018D" unicode="&#x18d;" horiz-adv-x="1229" d="M1117 697 Q1117 381 972 199.5 Q827 18 553 0 L847 -293 L821 -425 L45 -425 L73 -280 L592 -280 Q510 -191 416 -103.5 Q322 -16 234 72 Q175 131 143 209 Q111 287 111 399 Q111 727 273 914.5 Q435 1102 724 1102 Q1117 1102 1117 697 Z M928 688 Q928 831 873 900 Q818 969 701 969 Q508 969 405 828.5 Q302 688 302 416 Q302 274 360.5 203 Q419 132 527 132 Q726 132 827 273.5 Q928 415 928 688 Z " />
<glyph glyph-name="uni018E" unicode="&#x18e;" horiz-adv-x="1229" d="M2 0 L32 156 L801 156 L891 617 L223 617 L253 771 L921 771 L1003 1193 L275 1193 L305 1349 L1224 1349 L962 0 L2 0 Z " />
<glyph glyph-name="&amp;#x18f;" unicode="&#x18f;" horiz-adv-x="1229" d="M270 1134 Q369 1251 489 1310.5 Q609 1370 764 1370 Q972 1370 1075.5 1247 Q1179 1124 1179 886 Q1179 615 1096.5 409.5 Q1014 204 859.5 92 Q705 -20 503 -20 Q305 -20 203 93 Q101 206 101 424 Q101 537 129 677 L145 757 L966 757 Q979 843 979 912 Q979 1031 930.5 1122.5 Q882 1214 729 1214 Q529 1214 398 1044 L270 1134 Z M534 135 Q826 135 936 603 L313 603 Q300 515 300 443 Q300 326 346 230.5 Q392 135 534 135 Z " />
<glyph glyph-name="&amp;#x4d8;" unicode="&#x4d8;" horiz-adv-x="1229" d="M270 1134 Q369 1251 489 1310.5 Q609 1370 764 1370 Q972 1370 1075.5 1247 Q1179 1124 1179 886 Q1179 615 1096.5 409.5 Q1014 204 859.5 92 Q705 -20 503 -20 Q305 -20 203 93 Q101 206 101 424 Q101 537 129 677 L145 757 L966 757 Q979 843 979 912 Q979 1031 930.5 1122.5 Q882 1214 729 1214 Q529 1214 398 1044 L270 1134 Z M534 135 Q826 135 936 603 L313 603 Q300 515 300 443 Q300 326 346 230.5 Q392 135 534 135 Z " />
<glyph glyph-name="uni0190" unicode="&#x190;" horiz-adv-x="1229" d="M499 -20 Q291 -20 171.5 66.5 Q52 153 52 308 Q52 459 160.5 570.5 Q269 682 447 706 Q218 762 218 949 Q218 1065 290.5 1162.5 Q363 1260 490 1314.5 Q617 1369 775 1369 Q971 1369 1079.5 1290 Q1188 1211 1225 1035 L1044 970 Q1018 1099 942.5 1156.5 Q867 1214 742 1214 Q594 1214 501.5 1141.5 Q409 1069 409 955 Q409 772 725 772 L796 772 L767 624 L696 624 Q249 624 249 339 Q249 242 326 187.5 Q403 133 536 133 Q666 133 773 198 Q880 263 970 405 L1110 328 Q987 140 840.5 60 Q694 -20 499 -20 Z " />
<glyph glyph-name="uni0191" unicode="&#x191;" horiz-adv-x="1229" d="M512 1193 L416 699 L1092 699 L1061 541 L384 541 L254 -130 Q225 -274 139.5 -349.5 Q54 -425 -77 -425 Q-140 -425 -216 -405 L-151 -249 Q-103 -266 -67 -266 Q37 -266 68 -109 L351 1349 L1242 1349 L1212 1193 L512 1193 Z " />
<glyph glyph-name="florin" unicode="&#x192;" horiz-adv-x="1229" d="M1070 1369 Q1151 1369 1226 1346 L1159 1210 Q1102 1229 1033 1229 Q947 1229 903 1196.5 Q859 1164 823 1073 L769 936 L1071 936 L1020 805 L717 805 L235 -425 L55 -425 L537 805 L285 805 L338 936 L589 936 L647 1088 Q712 1241 814.5 1305 Q917 1369 1070 1369 Z " />
<glyph glyph-name="uni0193" unicode="&#x193;" horiz-adv-x="1229" d="M530 -20 Q332 -20 224 114 Q116 248 116 492 Q116 908 293 1139 Q470 1370 803 1370 Q989 1370 1086 1269 Q1119 1417 1201.5 1495.5 Q1284 1574 1405 1574 Q1458 1574 1522 1559 L1491 1402 Q1439 1420 1407 1420 Q1336 1420 1298 1384.5 Q1260 1349 1245 1272 L1200 1039 L1018 983 Q982 1214 775 1214 Q632 1214 529.5 1132 Q427 1050 371.5 890 Q316 730 316 495 Q316 320 380.5 227.5 Q445 135 576 135 Q643 135 719.5 155.5 Q796 176 850 209 L916 545 L623 545 L654 705 L1133 705 L1022 133 Q883 52 762 16 Q641 -20 530 -20 Z " />
<glyph glyph-name="uni0194" unicode="&#x194;" horiz-adv-x="1229" d="M428 -425 Q330 -425 276 -371 Q222 -317 222 -224 Q222 -160 252.5 -91.5 Q283 -23 343 56 L447 199 L162 1349 L363 1349 L585 380 L1179 1349 L1380 1349 L647 200 Q696 63 707 23.5 Q718 -16 724.5 -53.5 Q731 -91 731 -126 Q731 -203 694.5 -272.5 Q658 -342 591 -383.5 Q524 -425 428 -425 Z M568 -129 Q568 -51 527 84 Q458 -15 436.5 -53 Q415 -91 401.5 -128 Q388 -165 388 -198 Q388 -235 406 -255 Q424 -275 457 -275 Q506 -275 537 -238 Q568 -201 568 -129 Z " />
<glyph glyph-name="uni0195" unicode="&#x195;" horiz-adv-x="1229" d="M732 -20 Q617 -20 561 32.5 Q505 85 505 192 Q505 263 524 361 Q567 580 589 694.5 Q611 809 609 852 Q609 912 585 937.5 Q561 963 511 963 Q442 963 382.5 876 Q323 789 293 638 L169 0 L0 0 L288 1484 L457 1484 Q371 1041 360 994 Q349 947 342 927 L345 927 Q459 1102 603 1102 Q785 1102 785 902 Q785 833 767 741 L698 384 Q678 281 678 227 Q678 167 698.5 142 Q719 117 758 117 Q820 117 857.5 175.5 Q895 234 925 384 L1061 1082 L1229 1082 L1090 365 Q1051 168 962 74 Q873 -20 732 -20 Z " />
<glyph glyph-name="uni0196" unicode="&#x196;" horiz-adv-x="1229" d="M659 142 L1039 142 L1011 0 L29 0 L57 142 L479 142 L712 1342 L423 1342 L450 1484 L919 1484 L659 142 Z " />
<glyph glyph-name="uni0197" unicode="&#x197;" horiz-adv-x="1229" d="M359 1349 L1182 1349 L1152 1193 L836 1193 L756 783 L963 783 L936 642 L729 642 L634 156 L950 156 L920 0 L97 0 L127 156 L443 156 L538 642 L331 642 L358 783 L565 783 L645 1193 L329 1193 L359 1349 Z " />
<glyph glyph-name="uni0198" unicode="&#x198;" horiz-adv-x="1229" d="M898 0 L541 627 L335 449 L248 0 L57 0 L266 1074 Q294 1216 384.5 1293 Q475 1370 615 1370 Q682 1370 744 1355 L712 1190 Q666 1208 609 1208 Q483 1208 454 1060 L375 656 L1082 1349 L1307 1349 L697 762 L1122 0 L898 0 Z " />
<glyph glyph-name="uni0199" unicode="&#x199;" horiz-adv-x="1229" d="M809 0 L540 499 L389 401 L311 0 L131 0 L362 1188 Q390 1330 480.5 1407 Q571 1484 711 1484 Q777 1484 841 1469 L808 1304 Q762 1322 696 1322 Q568 1322 539 1174 L419 557 L996 1082 L1207 1082 L678 617 L1020 0 L809 0 Z " />
<glyph glyph-name="uni019A" unicode="&#x19a;" horiz-adv-x="1229" d="M789 813 L998 813 L971 672 L762 672 L659 142 L1039 142 L1011 0 L29 0 L57 142 L479 142 L582 672 L356 672 L383 813 L609 813 L712 1342 L423 1342 L450 1484 L919 1484 L789 813 Z " />
<glyph glyph-name="uni019B" unicode="&#x19b;" horiz-adv-x="1229" d="M957 1275 L785 1215 L1001 0 L811 0 L717 579 Q712 606 703.5 678 Q695 750 693 793 Q673 755 640 698.5 Q607 642 196 0 L9 0 L647 970 L614 1160 L418 1092 L395 1210 L597 1279 L563 1484 L740 1484 L766 1337 L934 1394 L957 1275 Z " />
<glyph glyph-name="uni019C" unicode="&#x19c;" horiz-adv-x="1229" d="M690 -20 Q555 -20 524 147 Q477 71 410 25.5 Q343 -20 266 -20 Q147 -20 93.5 42 Q40 104 40 233 Q40 308 60 412 L242 1349 L405 1349 L226 428 Q207 330 207 270 Q207 197 230.5 166 Q254 135 312 135 Q385 135 431 200 Q477 265 503 400 L687 1349 L849 1349 L668 416 Q650 326 650 268 Q650 199 672 167 Q694 135 746 135 Q894 135 950 418 L1131 1349 L1293 1349 L1076 231 Q1053 118 1040 0 L902 0 L920 134 Q828 -20 690 -20 Z " />
<glyph glyph-name="uni019D" unicode="&#x19d;" horiz-adv-x="1229" d="M731 0 L431 1130 Q416 963 398 876 L202 -130 Q173 -277 91 -351 Q9 -425 -119 -425 Q-190 -425 -238 -414 L-207 -252 Q-167 -266 -109 -266 Q4 -266 36 -109 L319 1349 L542 1349 L848 211 Q859 357 884 485 L1052 1349 L1224 1349 L961 0 L731 0 Z " />
<glyph glyph-name="uni019E" unicode="&#x19e;" horiz-adv-x="1229" d="M680 -425 L898 695 Q909 753 909 793 Q909 881 865.5 922 Q822 963 730 963 Q606 963 509.5 872.5 Q413 782 382 627 L260 0 L80 0 L245 851 Q252 885 258.5 922.5 Q265 960 270.5 993.5 Q276 1027 280 1051 Q284 1075 284 1082 L454 1082 Q454 1076 445.5 1014.5 Q437 953 426 897 L429 897 Q497 992 590 1047 Q683 1102 815 1102 Q1098 1102 1098 848 Q1098 791 1084 721 L861 -425 L680 -425 Z " />
<glyph glyph-name="uni019F" unicode="&#x19f;" horiz-adv-x="1229" d="M504 -20 Q301 -20 201.5 96.5 Q102 213 102 430 Q102 591 152.5 782.5 Q203 974 290 1106 Q377 1238 499.5 1304 Q622 1370 776 1370 Q974 1370 1077 1259.5 Q1180 1149 1180 928 Q1180 773 1131 582 Q1082 391 992 254.5 Q902 118 778 49 Q654 -20 504 -20 Z M535 135 Q825 135 935 603 L317 603 Q304 521 304 446 Q304 135 535 135 Z M746 1214 Q600 1214 501 1101.5 Q402 989 346 757 L965 757 Q978 850 978 913 Q978 1214 746 1214 Z " />
<glyph glyph-name="Ohorn" unicode="&#x1a0;" horiz-adv-x="1229" d="M504 -20 Q301 -20 201.5 96.5 Q102 213 102 430 Q102 591 152.5 782.5 Q203 974 290 1106 Q377 1238 499.5 1304 Q622 1370 776 1370 Q1109 1370 1167 1065 Q1261 1128 1283 1242 L1195 1242 L1227 1409 L1423 1409 L1402 1303 Q1360 1094 1178 982 L1180 928 Q1180 773 1131 582 Q1082 391 992 254.5 Q902 118 778 49 Q654 -20 504 -20 Z M978 913 Q978 1214 746 1214 Q610 1214 514 1114.5 Q418 1015 361 814 Q304 613 304 446 Q304 135 535 135 Q635 135 711 187 Q787 239 845.5 351 Q904 463 941 628.5 Q978 794 978 913 Z " />
<glyph glyph-name="ohorn" unicode="&#x1a1;" horiz-adv-x="1229" d="M500 -20 Q312 -20 212 78.5 Q112 177 112 367 Q112 446 130 542 Q185 821 338.5 961.5 Q492 1102 724 1102 Q923 1102 1020 1010 Q1117 918 1117 732 L1117 725 Q1225 794 1249 921 L1161 921 L1194 1088 L1389 1088 L1368 982 Q1345 866 1280 778 Q1215 690 1111 635 Q1107 591 1097 542 Q1045 270 892 125 Q739 -20 500 -20 Z M928 720 Q928 845 873.5 907 Q819 969 701 969 Q569 969 482.5 892 Q396 815 348.5 662 Q301 509 301 373 Q301 113 524 113 Q625 113 696 154.5 Q767 196 818.5 283 Q870 370 899 498.5 Q928 627 928 720 Z " />
<glyph glyph-name="uni01A2" unicode="&#x1a2;" horiz-adv-x="1229" d="M402 -20 Q226 -20 137 104.5 Q48 229 48 457 Q48 715 126.5 925.5 Q205 1136 346 1253 Q487 1370 662 1370 Q787 1370 887 1299 L1254 1363 L1297 1363 L950 -424 L770 -424 L1078 1163 L912 1163 L701 75 Q549 -20 402 -20 Z M734 1171 Q698 1214 628 1214 Q523 1214 436 1115.5 Q349 1017 297 843.5 Q245 670 245 482 Q245 319 293.5 227 Q342 135 432 135 Q494 135 539 167 L734 1171 Z " />
<glyph glyph-name="uni01A3" unicode="&#x1a3;" horiz-adv-x="1229" d="M799 -425 L1060 918 L881 918 L715 63 Q650 24 569.5 2 Q489 -20 408 -20 Q221 -20 120 83 Q19 186 19 393 Q19 735 179 918.5 Q339 1102 632 1102 Q714 1102 784.5 1080.5 Q855 1059 900 1028 L1226 1093 L1268 1093 L973 -425 L799 -425 Z M713 949 Q665 969 609 969 Q410 969 309 830.5 Q208 692 208 397 Q208 254 263 183.5 Q318 113 432 113 Q498 113 556 135 L713 949 Z " />
<glyph glyph-name="uni01A4" unicode="&#x1a4;" horiz-adv-x="1229" d="M1217 1019 Q1217 882 1143.5 765 Q1070 648 938.5 581 Q807 514 639 514 L448 514 L348 0 L157 0 L391 1201 Q301 1201 258.5 1157 Q216 1113 216 1013 L218 957 L60 940 L59 965 L59 990 Q59 1155 155.5 1252 Q252 1349 420 1349 L790 1349 Q997 1349 1107 1262.5 Q1217 1176 1217 1019 Z M1022 991 Q1022 1196 737 1196 L581 1196 L478 665 L642 665 Q816 665 919 755 Q1022 845 1022 991 Z " />
<glyph glyph-name="uni01A5" unicode="&#x1a5;" horiz-adv-x="1229" d="M1115 728 Q1115 496 1050.5 323 Q986 150 868.5 65 Q751 -20 589 -20 Q341 -20 293 164 L288 164 Q288 155 280.5 111.5 Q273 68 178 -425 L-3 -425 L311 1188 Q340 1333 427.5 1408.5 Q515 1484 657 1484 Q711 1484 749 1476 L784 1468 L752 1302 Q692 1322 640 1322 Q515 1322 486 1174 L434 904 L437 904 Q511 1010 597 1057 Q683 1104 807 1104 Q1115 1104 1115 728 Z M927 707 Q927 965 733 965 Q343 965 343 382 Q343 242 397.5 177.5 Q452 113 566 113 Q740 113 833.5 267 Q927 421 927 707 Z " />
<glyph glyph-name="uni01A6" unicode="&#x1a6;" horiz-adv-x="1229" d="M812 -319 L574 422 L330 422 L248 0 L57 0 L319 1349 L510 1349 L480 1196 L771 1196 Q980 1196 1082.5 1115 Q1185 1034 1185 892 Q1185 785 1132 689 Q1079 593 981 528.5 Q883 464 754 444 L1022 -319 L812 -319 Z M989 863 Q989 1043 723 1043 L451 1043 L359 573 L639 573 Q804 573 896.5 650.5 Q989 728 989 863 Z " />
<glyph glyph-name="uni01A7" unicode="&#x1a7;" horiz-adv-x="1229" d="M57 297 Q57 385 80.5 450.5 Q104 516 145.5 565.5 Q187 615 246.5 651.5 Q306 688 377.5 714.5 Q449 741 614 779 Q693 797 766 814.5 Q839 832 895.5 860.5 Q952 889 985.5 934.5 Q1019 980 1019 1054 Q1019 1226 772 1226 Q505 1226 418 1013 L241 1046 Q319 1216 452 1293 Q585 1370 805 1370 Q999 1370 1103.5 1295 Q1208 1220 1208 1077 Q1208 988 1179.5 920 Q1151 852 1099 802 Q1047 752 958.5 713 Q870 674 684 633 Q606 616 528.5 597 Q451 578 389 545.5 Q327 513 288.5 461 Q250 409 250 326 Q250 230 325 179.5 Q400 129 539 129 Q834 129 932 375 L1105 338 Q961 -20 506 -20 Q286 -20 171.5 62 Q57 144 57 297 Z " />
<glyph glyph-name="uni01A8" unicode="&#x1a8;" horiz-adv-x="1229" d="M113 231 Q113 305 139 363 Q165 421 214 465.5 Q263 510 345 548 Q427 586 594 627 Q670 646 732 662 Q794 678 837.5 700.5 Q881 723 904.5 756 Q928 789 928 843 Q928 965 709 965 Q489 965 430 819 L276 841 Q325 966 444.5 1032.5 Q564 1099 739 1099 Q1097 1099 1097 860 Q1097 723 998 634 Q899 545 659 487 L509 450 Q391 422 338 378 Q285 334 285 260 Q285 192 346 153 Q407 114 525 114 Q658 114 736 154.5 Q814 195 852 279 L1001 245 Q940 108 821 44 Q702 -20 499 -20 Q311 -20 212 43 Q113 106 113 231 Z " />
<glyph glyph-name="uni01A9" unicode="&#x1a9;" horiz-adv-x="1229" d="M3 0 L34 162 L679 711 L251 1188 L282 1349 L1281 1349 L1251 1193 L467 1193 L844 778 L820 654 L233 156 L1110 156 L1080 0 L3 0 Z " />
<glyph glyph-name="uni01AA" unicode="&#x1aa;" horiz-adv-x="1229" d="M367 1269 Q367 1366 434.5 1429.5 Q502 1493 613 1493 Q747 1493 789.5 1430 Q832 1367 832 1290 Q832 1250 823 1204 L565 -124 Q560 -151 560 -172 Q560 -267 654 -267 Q708 -267 763 -254 L732 -412 Q658 -425 595 -425 Q486 -425 430 -370.5 Q374 -316 374 -218 Q374 -178 384 -129 L632 1148 Q614 1136 581 1127.5 Q548 1119 524 1119 Q451 1119 409 1160 Q367 1201 367 1269 Z M447 1286 Q447 1247 470.5 1222.5 Q494 1198 536 1198 Q594 1198 631.5 1234.5 Q669 1271 669 1327 Q669 1366 645 1390.5 Q621 1415 578 1415 Q525 1415 486 1378.5 Q447 1342 447 1286 Z " />
<glyph glyph-name="uni01AB" unicode="&#x1ab;" horiz-adv-x="1229" d="M268 940 L295 1082 L465 1082 L578 1364 L698 1364 L643 1082 L1075 1082 L1048 940 L616 940 L489 288 Q484 264 484 244 Q484 198 514 165.5 Q544 133 641 133 Q774 133 944 167 L884 -143 Q828 -425 576 -425 Q510 -425 445 -408 L476 -248 Q528 -266 578 -266 Q637 -266 671 -232.5 Q705 -199 719 -129 L743 -4 Q649 -16 574 -16 Q412 -16 354 42.5 Q296 101 296 188 Q296 225 305 269 L435 940 L268 940 Z " />
<glyph glyph-name="uni01AC" unicode="&#x1ac;" horiz-adv-x="1229" d="M836 1193 L604 0 L414 0 L646 1193 L444 1193 Q352 1193 311 1154.5 Q270 1116 270 1013 L273 957 L114 940 L114 985 Q114 1164 209 1256.5 Q304 1349 483 1349 L1309 1349 L1279 1193 L836 1193 Z " />
<glyph glyph-name="uni01AD" unicode="&#x1ad;" horiz-adv-x="1229" d="M268 940 L295 1082 L471 1082 L492 1192 Q519 1340 603.5 1419 Q688 1498 825 1498 Q891 1498 942 1484 L910 1316 Q859 1336 812 1336 Q749 1336 713.5 1300 Q678 1264 664 1188 L643 1082 L1075 1082 L1048 940 L616 940 L489 288 Q484 264 484 244 Q484 198 514 165.5 Q544 133 641 133 Q774 133 944 167 L918 30 Q742 -16 574 -16 Q412 -16 354 42.5 Q296 101 296 188 Q296 225 305 269 L435 940 L268 940 Z " />
<glyph glyph-name="uni01AE" unicode="&#x1ae;" horiz-adv-x="1229" d="M836 1193 L583 -109 Q575 -149 575 -178 Q575 -209 587.5 -237.5 Q600 -266 652 -266 Q712 -266 766 -250 L735 -408 Q662 -425 599 -425 Q492 -425 435.5 -373.5 Q379 -322 379 -223 Q379 -184 387 -141 L646 1193 L203 1193 L233 1349 L1309 1349 L1279 1193 L836 1193 Z " />
<glyph glyph-name="Uhorn" unicode="&#x1af;" horiz-adv-x="1229" d="M1118 1019 Q1207 1045 1267 1097 Q1327 1149 1345 1242 L1257 1242 L1290 1409 L1485 1409 L1464 1303 Q1433 1150 1340.5 1053 Q1248 956 1100 925 L1015 490 Q962 223 832.5 101.5 Q703 -20 466 -20 Q280 -20 194.5 56 Q109 132 109 292 Q109 370 129 472 L299 1349 L490 1349 L325 498 Q303 382 303 313 Q303 218 347.5 176.5 Q392 135 495 135 Q640 135 714 216 Q788 297 829 511 L992 1349 L1182 1349 L1118 1019 Z " />
<glyph glyph-name="uhorn" unicode="&#x1b0;" horiz-adv-x="1229" d="M465 1082 L332 396 Q316 311 316 258 Q316 184 354 151.5 Q392 119 482 119 Q603 119 688.5 206 Q774 293 806 455 L928 1082 L1109 1082 L1032 686 Q1120 720 1165.5 772 Q1211 824 1229 915 L1141 915 L1173 1082 L1369 1082 L1348 976 Q1319 826 1238.5 734 Q1158 642 1014 593 Q930 159 918.5 88.5 Q907 18 905 0 L735 0 Q735 11 745.5 77.5 Q756 144 763 185 L760 185 Q675 71 590.5 25.5 Q506 -20 394 -20 Q256 -20 192 36.5 Q128 93 128 213 Q128 277 145 361 L285 1082 L465 1082 Z " />
<glyph glyph-name="uni01B1" unicode="&#x1b1;" horiz-adv-x="1229" d="M505 -21 Q302 -21 187.5 103.5 Q73 228 73 445 Q73 672 196.5 870.5 Q320 1069 548 1204 Q427 1193 385 1193 L185 1193 L216 1349 L699 1349 L655 1125 Q466 1003 368 840.5 Q270 678 270 457 Q270 299 337.5 217 Q405 135 535 135 Q672 135 772 207.5 Q872 280 924.5 411 Q977 542 977 713 Q977 841 931.5 947 Q886 1053 801 1125 L845 1349 L1328 1349 L1297 1193 L1097 1193 Q1052 1193 938 1204 Q1046 1123 1107 989.5 Q1168 856 1168 699 Q1168 496 1083 330 Q998 164 845 71.5 Q692 -21 505 -21 Z " />
<glyph glyph-name="uni01B2" unicode="&#x1b2;" horiz-adv-x="1229" d="M492 -20 Q296 -20 204 63 Q112 146 112 313 Q112 387 131 482 L300 1349 L490 1349 L325 498 Q308 411 308 348 Q308 239 358.5 187 Q409 135 524 135 Q664 135 779.5 251.5 Q895 368 960 575 Q1025 782 1025 1031 Q1025 1124 994 1167.5 Q963 1211 897 1211 Q839 1211 787 1201 L811 1358 Q881 1370 958 1370 Q1092 1370 1155.5 1288 Q1219 1206 1219 1060 Q1219 749 1126.5 499 Q1034 249 870.5 114.5 Q707 -20 492 -20 Z " />
<glyph glyph-name="uni01B3" unicode="&#x1b3;" horiz-adv-x="1229" d="M1284 1370 Q1347 1370 1397.5 1347.5 Q1448 1325 1497 1274 L1387 1138 Q1326 1207 1264 1207 Q1217 1207 1186.5 1184 Q1156 1161 1127 1125 L680 584 L567 0 L379 0 L492 584 L157 1349 L362 1349 L617 738 Q870 1054 999 1212 Q1128 1370 1284 1370 Z " />
<glyph glyph-name="uni01B4" unicode="&#x1b4;" horiz-adv-x="1229" d="M111 -425 Q42 -425 -7 -414 L19 -279 Q55 -285 98 -285 Q183 -285 259.5 -223 Q336 -161 412 -32 L438 12 L182 1082 L367 1082 L506 440 Q549 227 554 192 L556 192 Q567 216 618.5 313.5 Q670 411 700 464 L1124 1241 Q1194 1367 1275.5 1425.5 Q1357 1484 1467 1484 Q1598 1484 1687 1391 L1580 1263 Q1524 1325 1452 1325 Q1408 1325 1365.5 1295.5 Q1323 1266 1278 1188 L608 0 Q510 -171 436 -256.5 Q362 -342 282.5 -383.5 Q203 -425 111 -425 Z " />
<glyph glyph-name="uni01B5" unicode="&#x1b5;" horiz-adv-x="1229" d="M165 757 L593 757 L1018 1193 L273 1193 L303 1349 L1265 1349 L1238 1210 L798 757 L1147 757 L1121 624 L669 624 L215 156 L1080 156 L1050 0 L-32 0 L-4 143 L463 624 L139 624 L165 757 Z " />
<glyph glyph-name="uni01B6" unicode="&#x1b6;" horiz-adv-x="1229" d="M180 617 L567 617 L906 943 L265 943 L292 1082 L1136 1082 L1110 945 L768 617 L1054 617 L1028 484 L630 484 L271 139 L990 139 L963 0 L42 0 L69 137 L429 484 L154 484 L180 617 Z " />
<glyph glyph-name="uni01B7" unicode="&#x1b7;" horiz-adv-x="1229" d="M1022 1193 L247 1193 L278 1349 L1266 1349 L1234 1188 L634 699 Q854 685 967 579.5 Q1080 474 1080 279 Q1080 82 989.5 -80 Q899 -242 737.5 -334 Q576 -426 383 -426 Q245 -426 149.5 -390 Q54 -354 -4 -283 Q-62 -212 -98 -80 L79 -5 Q113 -147 193.5 -212 Q274 -277 409 -277 Q542 -277 652.5 -212 Q763 -147 825.5 -27 Q888 93 888 247 Q888 400 788 479 Q688 558 473 558 L399 558 L426 699 L1022 1193 Z " />
<glyph glyph-name="uni01B8" unicode="&#x1b8;" horiz-adv-x="1229" d="M835 558 L761 558 Q580 558 446.5 497 Q313 436 240 319 Q167 202 167 36 Q167 -114 249 -195.5 Q331 -277 482 -277 Q613 -277 720 -212.5 Q827 -148 918 -5 L1065 -80 Q946 -262 792.5 -344 Q639 -426 440 -426 Q219 -426 97 -310.5 Q-25 -195 -25 10 Q-25 199 60 347 Q145 495 298 584.5 Q451 674 652 695 L244 1188 L275 1349 L1263 1349 L1233 1193 L458 1193 L862 699 L835 558 Z " />
<glyph glyph-name="uni01B9" unicode="&#x1b9;" horiz-adv-x="1229" d="M1115 941 L421 941 L739 555 L711 411 L629 411 Q441 411 323.5 292.5 Q206 174 206 -19 Q206 -147 269 -217.5 Q332 -288 447 -288 Q720 -288 805 -36 L979 -48 Q921 -234 776 -329.5 Q631 -425 414 -425 Q229 -425 124.5 -323 Q20 -221 20 -46 Q20 112 88 239 Q156 366 277.5 445.5 Q399 525 547 544 L236 906 L270 1082 L1143 1082 L1115 941 Z " />
<glyph glyph-name="uni01BA" unicode="&#x1ba;" horiz-adv-x="1229" d="M1004 -101 Q933 -257 782 -341.5 Q631 -426 421 -426 Q235 -426 126 -358 Q17 -290 17 -167 Q17 -82 62 -16 Q107 50 201.5 97 Q296 144 486 189 Q626 222 686.5 247.5 Q747 273 777.5 306.5 Q808 340 808 387 Q808 450 718.5 477.5 Q629 505 444 505 L471 644 L885 942 L259 942 L287 1082 L1155 1082 L1131 963 L673 641 Q829 628 907 570 Q985 512 985 413 Q985 354 967 308.5 Q949 263 917 228.5 Q885 194 841 168.5 Q797 143 743 123.5 Q689 104 528 65 Q375 29 319 3 Q263 -23 232.5 -59 Q202 -95 202 -150 Q202 -213 266.5 -248 Q331 -283 450 -283 Q588 -283 683.5 -231 Q779 -179 829 -82 L1004 -101 Z " />
<glyph glyph-name="uni01BB" unicode="&#x1bb;" horiz-adv-x="1229" d="M165 757 L782 757 Q973 898 973 1048 Q973 1222 744 1222 Q635 1222 550.5 1162.5 Q466 1103 429 984 L249 1001 Q303 1173 441 1271.5 Q579 1370 772 1370 Q958 1370 1059.5 1294 Q1161 1218 1161 1076 Q1161 978 1118.5 902.5 Q1076 827 998 757 L1147 757 L1121 624 L835 624 L676 515 Q483 384 395.5 304 Q308 224 261 146 L1007 146 L979 0 L39 0 L62 117 Q135 240 251.5 354.5 Q368 469 596 624 L139 624 L165 757 Z " />
<glyph glyph-name="uni01BC" unicode="&#x1bc;" horiz-adv-x="1229" d="M1086 535 Q1086 375 1011.5 248 Q937 121 799.5 50.5 Q662 -20 484 -20 Q356 -20 266.5 24 Q177 68 129.5 150.5 Q82 233 82 345 L265 366 Q274 240 338 181.5 Q402 123 515 123 Q685 123 790 228 Q895 333 895 505 Q895 616 822 675.5 Q749 735 608 735 L389 735 L478 1193 L296 1193 L326 1349 L1207 1349 L1177 1193 L662 1193 L603 890 L671 890 Q871 890 978.5 797 Q1086 704 1086 535 Z " />
<glyph glyph-name="uni01BD" unicode="&#x1bd;" horiz-adv-x="1229" d="M843 387 Q843 466 780.5 508 Q718 550 574 550 L377 550 L454 942 L242 942 L269 1082 L1129 1082 L1102 942 L616 942 L566 688 L640 688 Q828 688 927.5 617.5 Q1027 547 1027 410 Q1027 286 966 188.5 Q905 91 789.5 35.5 Q674 -20 512 -20 Q318 -20 218 61 Q118 142 115 311 L291 323 L291 318 Q291 227 355 170 Q419 113 526 113 Q680 113 761.5 184 Q843 255 843 387 Z " />
<glyph glyph-name="uni01BE" unicode="&#x1be;" horiz-adv-x="1229" d="M540 951 Q511 803 511 768 Q511 720 548.5 691.5 Q586 663 683 639 Q840 600 901 566.5 Q962 533 998 483 Q1034 433 1034 357 Q1034 177 899.5 78.5 Q765 -20 517 -20 Q298 -20 191.5 45.5 Q85 111 74 254 L239 285 Q250 198 324.5 157.5 Q399 117 546 117 Q701 117 777 165 Q853 213 853 323 Q853 364 832.5 392 Q812 420 771.5 440 Q731 460 585 499 Q441 536 384.5 595 Q328 654 328 750 Q328 789 337 836 L359 951 L208 951 L234 1082 L386 1082 L453 1429 L648 1507 L565 1082 L810 1082 L784 951 L540 951 Z " />
<glyph glyph-name="uni01BF" unicode="&#x1bf;" horiz-adv-x="1229" d="M1123 753 Q1123 558 1033.5 399 Q944 240 756.5 113 Q569 -14 236 -127 L178 -425 L-3 -425 L290 1082 L459 1082 Q443 949 434 903 L438 903 Q569 1104 799 1104 Q956 1104 1039.5 1013.5 Q1123 923 1123 753 Z M934 731 Q934 846 882.5 905.5 Q831 965 734 965 Q446 965 367 545 L265 20 Q466 91 586.5 166.5 Q707 242 782.5 326.5 Q858 411 896 512.5 Q934 614 934 731 Z " />
<glyph glyph-name="uni01C0" unicode="&#x1c0;" horiz-adv-x="1229" d="M524 0 L524 1484 L704 1484 L704 0 L524 0 Z " />
<glyph glyph-name="uni01C1" unicode="&#x1c1;" horiz-adv-x="1229" d="M370 0 L370 1484 L535 1484 L535 0 L370 0 Z M693 0 L693 1484 L858 1484 L858 0 L693 0 Z " />
<glyph glyph-name="uni01C2" unicode="&#x1c2;" horiz-adv-x="1229" d="M130 1030 L526 1030 L526 1484 L700 1484 L700 1030 L1098 1030 L1098 877 L700 877 L700 569 L1098 569 L1098 416 L700 416 L700 0 L526 0 L526 416 L130 416 L130 569 L526 569 L526 877 L130 877 L130 1030 Z " />
<glyph glyph-name="uni01C3" unicode="&#x1c3;" horiz-adv-x="1229" d="M661 397 L513 397 L674 1348 L870 1348 L661 397 Z M410 0 L449 201 L643 201 L604 0 L410 0 Z " />
<glyph glyph-name="uni01C4" unicode="&#x1c4;" horiz-adv-x="1229" d="M947 1657 L951 1677 L1055 1677 L1181 1554 L1183 1554 L1355 1677 L1459 1677 L1455 1657 L1243 1445 L1077 1445 L947 1657 Z M721 939 Q721 656 650 436 Q579 216 451 108 Q323 0 149 0 L-16 0 L246 1349 L368 1349 Q550 1349 635.5 1250 Q721 1151 721 939 Z M549 906 Q549 1050 508 1121.5 Q467 1193 382 1193 L378 1193 L176 156 L200 156 Q294 156 374.5 257.5 Q455 359 502 539 Q549 719 549 906 Z M1114 0 L552 0 L580 142 L1164 1193 L857 1193 L887 1349 L1376 1349 L1349 1211 L759 156 L1144 156 L1114 0 Z " />
<glyph glyph-name="uni01C5" unicode="&#x1c5;" horiz-adv-x="1229" d="M865 1413 L869 1433 L973 1433 L1099 1310 L1101 1310 L1273 1433 L1377 1433 L1373 1413 L1160 1201 L994 1201 L865 1413 Z M721 939 Q721 656 650 436 Q579 216 451 108 Q323 0 149 0 L-16 0 L246 1349 L368 1349 Q550 1349 635.5 1250 Q721 1151 721 939 Z M549 906 Q549 1050 508 1121.5 Q467 1193 382 1193 L378 1193 L176 156 L200 156 Q294 156 374.5 257.5 Q455 359 502 539 Q549 719 549 906 Z M552 0 L578 132 L1087 943 L775 943 L802 1082 L1287 1082 L1262 950 L747 139 L1141 139 L1114 0 L552 0 Z " />
<glyph glyph-name="uni01C6" unicode="&#x1c6;" horiz-adv-x="1229" d="M884 1413 L888 1433 L992 1433 L1118 1310 L1120 1310 L1292 1433 L1396 1433 L1392 1413 L1180 1201 L1014 1201 L884 1413 Z M384 124 Q335 37 290 5.5 Q245 -26 176 -26 Q13 -26 13 285 Q13 500 65.5 698.5 Q118 897 203 997.5 Q288 1098 396 1098 Q472 1098 503.5 1065.5 Q535 1033 546 954 L548 954 L552 977 L650 1484 L809 1484 L564 223 L531 31 L526 0 L374 0 L373 10 Q373 49 389 124 L384 124 Z M182 307 Q182 113 261 113 Q329 113 387.5 201.5 Q446 290 474.5 439 Q503 588 503 778 Q503 965 427 965 Q355 965 296.5 880 Q238 795 210 649.5 Q182 504 182 307 Z M572 0 L597 132 L1107 943 L795 943 L822 1082 L1307 1082 L1281 950 L767 139 L1151 139 L1124 0 L572 0 Z " />
<glyph glyph-name="uni01C7" unicode="&#x1c7;" horiz-adv-x="1229" d="M-16 0 L246 1349 L408 1349 L176 156 L488 156 L458 0 L-16 0 Z M611 174 Q664 135 734 135 Q825 135 876.5 200.5 Q928 266 957 416 L1108 1193 L917 1193 L947 1349 L1300 1349 L1115 395 Q1074 183 976 81.5 Q878 -20 712 -20 Q600 -20 527 20 L611 174 Z " />
<glyph glyph-name="uni01C8" unicode="&#x1c8;" horiz-adv-x="1229" d="M565 -425 Q466 -425 380 -403 L408 -258 Q491 -276 580 -276 Q696 -276 772.5 -210.5 Q849 -145 872 -25 L1060 940 L759 940 L786 1082 L1250 1082 L1034 -28 Q998 -214 876 -319.5 Q754 -425 565 -425 Z M-16 0 L246 1349 L408 1349 L176 156 L588 156 L558 0 L-16 0 Z M1109 1292 L1146 1484 L1327 1484 L1290 1292 L1109 1292 Z " />
<glyph glyph-name="uni01C9" unicode="&#x1c9;" horiz-adv-x="1229" d="M502 -425 Q403 -425 317 -403 L345 -258 Q428 -276 517 -276 Q633 -276 709.5 -210.5 Q786 -145 809 -25 L997 940 L716 940 L743 1082 L1187 1082 L971 -28 Q935 -214 813 -319.5 Q691 -425 502 -425 Z M1046 1292 L1083 1484 L1264 1484 L1227 1292 L1046 1292 Z M296 142 L493 142 L465 0 L-105 0 L-77 142 L134 142 L367 1342 L156 1342 L183 1484 L556 1484 L296 142 Z " />
<glyph glyph-name="uni01CA" unicode="&#x1ca;" horiz-adv-x="1229" d="M382 1 L300 861 L294 861 L289 825 Q266 668 249.5 570.5 Q233 473 141 1 L-16 1 L246 1349 L403 1349 L489 470 L495 470 Q495 481 503 538 Q511 595 534.5 745.5 Q558 896 649 1349 L809 1349 L547 1 L382 1 Z M732 -20 Q678 -20 628 -7 L660 154 Q702 135 754 135 Q835 135 882.5 205 Q930 275 957 416 L1108 1193 L957 1193 L987 1349 L1300 1349 L1115 395 Q1074 188 981.5 84 Q889 -20 732 -20 Z " />
<glyph glyph-name="uni01CB" unicode="&#x1cb;" horiz-adv-x="1229" d="M382 1 L300 861 L294 861 Q280 739 229 456 L141 1 L-16 1 L246 1349 L403 1349 L489 470 L495 470 Q495 481 503 538 Q511 595 534.5 745.5 Q558 896 649 1349 L809 1349 L547 1 L382 1 Z M564 -425 Q466 -425 378 -403 L407 -258 Q490 -276 579 -276 Q695 -276 772 -210 Q849 -144 872 -25 L1060 940 L837 940 L864 1082 L1248 1082 L1032 -28 Q996 -216 873.5 -320.5 Q751 -425 564 -425 Z M1108 1292 L1145 1484 L1326 1484 L1289 1292 L1108 1292 Z " />
<glyph glyph-name="uni01CC" unicode="&#x1cc;" horiz-adv-x="1229" d="M564 -425 Q465 -425 379 -403 L407 -258 Q490 -276 579 -276 Q695 -276 772 -210 Q849 -144 872 -25 L1060 940 L858 940 L885 1082 L1249 1082 L1033 -28 Q997 -214 875 -319.5 Q753 -425 564 -425 Z M1108 1292 L1145 1484 L1326 1484 L1289 1292 L1108 1292 Z M427 0 L562 695 Q579 783 579 840 Q579 905 559 934 Q539 963 494 963 Q424 963 361 873.5 Q298 784 267 627 L145 0 L-16 0 L149 851 Q156 885 162.5 922.5 Q169 960 174.5 993.5 Q180 1027 184 1051 Q188 1075 188 1082 L337 1082 L318 955 L309 907 L311 907 Q363 1002 428.5 1052 Q494 1102 582 1102 Q749 1102 749 897 Q749 823 729 721 L589 0 L427 0 Z " />
<glyph glyph-name="uni01CD" unicode="&#x1cd;" horiz-adv-x="1229" d="M929 0 L865 382 L302 382 L91 0 L-105 0 L667 1349 L884 1349 L1123 0 L929 0 Z M745 1205 Q699 1114 662.5 1044 Q626 974 382 531 L845 531 L769 1031 L745 1205 Z M877 1445 L713 1445 L505 1684 L509 1704 L613 1704 L818 1566 L820 1566 L1066 1704 L1171 1704 L1167 1684 L877 1445 Z " />
<glyph glyph-name="uni01CE" unicode="&#x1ce;" horiz-adv-x="1229" d="M1018 111 Q1045 111 1078 118 L1056 6 Q986 -10 914 -10 Q827 -10 790.5 28 Q754 66 754 142 L759 207 L753 207 Q664 85 564.5 32.5 Q465 -20 337 -20 Q204 -20 138.5 42 Q73 104 73 213 Q73 254 82 302 Q150 651 605 656 L841 660 Q858 741 860.5 762.5 Q863 784 863 808 Q863 893 817 929 Q771 965 679 965 Q563 965 503.5 925.5 Q444 886 413 793 L228 810 Q282 959 400.5 1030.5 Q519 1102 708 1102 Q1048 1102 1048 835 Q1048 790 1038 738 L948 272 Q939 229 939 196 Q939 154 957 132.5 Q975 111 1018 111 Z M410 117 Q505 117 588 162.5 Q671 208 727 285 Q783 362 799 445 L817 534 L626 530 Q491 528 416.5 494.5 Q342 461 303.5 394.5 Q265 328 265 251 Q265 189 301.5 153 Q338 117 410 117 Z M820 1201 L656 1201 L449 1440 L453 1460 L557 1460 L762 1322 L764 1322 L1010 1460 L1115 1460 L1111 1440 L820 1201 Z " />
<glyph glyph-name="uni01CF" unicode="&#x1cf;" horiz-adv-x="1229" d="M359 1349 L1182 1349 L1152 1193 L836 1193 L634 156 L950 156 L920 0 L97 0 L127 156 L443 156 L645 1193 L329 1193 L359 1349 Z M877 1445 L713 1445 L505 1684 L509 1704 L613 1704 L818 1566 L820 1566 L1066 1704 L1171 1704 L1167 1684 L877 1445 Z " />
<glyph glyph-name="uni01D0" unicode="&#x1d0;" horiz-adv-x="1229" d="M668 142 L1048 142 L1020 0 L38 0 L66 142 L488 142 L643 940 L324 940 L351 1082 L850 1082 L668 142 Z M832 1201 L668 1201 L461 1440 L465 1460 L569 1460 L774 1322 L776 1322 L1022 1460 L1127 1460 L1123 1440 L832 1201 Z " />
<glyph glyph-name="uni01D1" unicode="&#x1d1;" horiz-adv-x="1229" d="M504 -20 Q302 -20 202 96.5 Q102 213 102 430 Q102 590 151.5 781 Q201 972 288.5 1104.5 Q376 1237 498 1303.5 Q620 1370 776 1370 Q974 1370 1077 1259.5 Q1180 1149 1180 928 Q1180 773 1131 582 Q1082 391 992 254.5 Q902 118 778 49 Q654 -20 504 -20 Z M978 913 Q978 1214 746 1214 Q610 1214 514.5 1114.5 Q419 1015 361.5 813 Q304 611 304 446 Q304 135 535 135 Q635 135 711 187 Q787 239 845.5 351 Q904 463 941 628.5 Q978 794 978 913 Z M877 1445 L713 1445 L505 1684 L509 1704 L613 1704 L818 1566 L820 1566 L1066 1704 L1171 1704 L1167 1684 L877 1445 Z " />
<glyph glyph-name="uni01D2" unicode="&#x1d2;" horiz-adv-x="1229" d="M500 -20 Q312 -20 212 78.5 Q112 177 112 367 Q112 446 130 542 Q185 821 338.5 961.5 Q492 1102 724 1102 Q923 1102 1020 1010 Q1117 918 1117 732 Q1117 597 1075 447.5 Q1033 298 952 192 Q871 86 756 33 Q641 -20 500 -20 Z M928 720 Q928 845 873.5 907 Q819 969 701 969 Q569 969 482.5 892 Q396 815 348.5 662 Q301 509 301 373 Q301 113 524 113 Q625 113 696 154.5 Q767 196 818.5 283 Q870 370 899 498.5 Q928 627 928 720 Z M829 1201 L665 1201 L458 1440 L462 1460 L566 1460 L771 1322 L773 1322 L1019 1460 L1124 1460 L1120 1440 L829 1201 Z " />
<glyph glyph-name="uni01D3" unicode="&#x1d3;" horiz-adv-x="1229" d="M496 -20 Q295 -20 202.5 57.5 Q110 135 110 301 Q110 378 129 472 L299 1349 L490 1349 L325 498 Q305 396 305 328 Q305 226 355.5 180.5 Q406 135 525 135 Q686 135 766.5 217 Q847 299 889 511 L1052 1349 L1242 1349 L1075 490 Q1023 224 886 102 Q749 -20 496 -20 Z M877 1445 L713 1445 L505 1684 L509 1704 L613 1704 L818 1566 L820 1566 L1066 1704 L1171 1704 L1167 1684 L877 1445 Z " />
<glyph glyph-name="uni01D4" unicode="&#x1d4;" horiz-adv-x="1229" d="M475 1082 L342 396 Q328 324 328 273 Q328 189 370.5 154 Q413 119 512 119 Q643 119 735 209 Q827 299 856 455 L978 1082 L1159 1082 L994 231 Q987 197 980.5 159.5 Q974 122 968.5 88.5 Q963 55 959 31 Q955 7 955 0 L785 0 Q785 11 795.5 77.5 Q806 144 813 185 L810 185 Q727 73 634.5 26.5 Q542 -20 424 -20 Q278 -20 209 38 Q140 96 140 223 Q140 283 155 361 L295 1082 L475 1082 Z M829 1201 L665 1201 L458 1440 L462 1460 L566 1460 L771 1322 L773 1322 L1019 1460 L1124 1460 L1120 1440 L829 1201 Z " />
<glyph glyph-name="uni01D5" unicode="&#x1d5;" horiz-adv-x="1229" d="M496 -20 Q295 -20 202.5 57.5 Q110 135 110 301 Q110 378 129 472 L299 1349 L490 1349 L325 498 Q305 396 305 328 Q305 226 355.5 180.5 Q406 135 525 135 Q686 135 766.5 217 Q847 299 889 511 L1052 1349 L1242 1349 L1075 490 Q1023 224 886 102 Q749 -20 496 -20 Z M928 1458 L964 1642 L1127 1642 L1091 1458 L928 1458 Z M494 1458 L530 1642 L693 1642 L657 1458 L494 1458 Z M1116 1708 L567 1708 L591 1835 L1140 1835 L1116 1708 Z " />
<glyph glyph-name="uni01D6" unicode="&#x1d6;" horiz-adv-x="1229" d="M475 1082 L342 396 Q328 324 328 273 Q328 189 370.5 154 Q413 119 512 119 Q643 119 735 209 Q827 299 856 455 L978 1082 L1159 1082 L994 231 Q987 197 980.5 159.5 Q974 122 968.5 88.5 Q963 55 959 31 Q955 7 955 0 L785 0 Q785 11 795.5 77.5 Q806 144 813 185 L810 185 Q727 73 634.5 26.5 Q542 -20 424 -20 Q278 -20 209 38 Q140 96 140 223 Q140 283 155 361 L295 1082 L475 1082 Z M862 1219 L898 1403 L1061 1403 L1025 1219 L862 1219 Z M468 1219 L504 1403 L669 1403 L633 1219 L468 1219 Z M1074 1515 L525 1515 L550 1642 L1099 1642 L1074 1515 Z " />
<glyph glyph-name="uni01D7" unicode="&#x1d7;" horiz-adv-x="1229" d="M496 -20 Q295 -20 202.5 57.5 Q110 135 110 301 Q110 378 129 472 L299 1349 L490 1349 L325 498 Q305 396 305 328 Q305 226 355.5 180.5 Q406 135 525 135 Q686 135 766.5 217 Q847 299 889 511 L1052 1349 L1242 1349 L1075 490 Q1023 224 886 102 Q749 -20 496 -20 Z M927 1835 L1153 1835 L1151 1823 L857 1652 L727 1652 L729 1662 L927 1835 Z M926 1448 L962 1632 L1125 1632 L1089 1448 L926 1448 Z M492 1448 L528 1632 L691 1632 L655 1448 L492 1448 Z " />
<glyph glyph-name="uni01D8" unicode="&#x1d8;" horiz-adv-x="1229" d="M475 1082 L342 396 Q328 324 328 273 Q328 189 370.5 154 Q413 119 512 119 Q643 119 735 209 Q827 299 856 455 L978 1082 L1159 1082 L994 231 Q987 197 980.5 159.5 Q974 122 968.5 88.5 Q963 55 959 31 Q955 7 955 0 L785 0 Q785 11 795.5 77.5 Q806 144 813 185 L810 185 Q727 73 634.5 26.5 Q542 -20 424 -20 Q278 -20 209 38 Q140 96 140 223 Q140 283 155 361 L295 1082 L475 1082 Z M862 1219 L898 1403 L1061 1403 L1025 1219 L862 1219 Z M468 1219 L504 1403 L669 1403 L633 1219 L468 1219 Z M660 1481 L664 1501 L938 1740 L1135 1740 L1129 1711 L784 1481 L660 1481 Z " />
<glyph glyph-name="uni01D9" unicode="&#x1d9;" horiz-adv-x="1229" d="M496 -20 Q295 -20 202.5 57.5 Q110 135 110 301 Q110 378 129 472 L299 1349 L490 1349 L325 498 Q305 396 305 328 Q305 226 355.5 180.5 Q406 135 525 135 Q686 135 766.5 217 Q847 299 889 511 L1052 1349 L1242 1349 L1075 490 Q1023 224 886 102 Q749 -20 496 -20 Z M1016 1835 L1171 1835 L1169 1825 L928 1652 L733 1652 L557 1823 L559 1835 L714 1835 L846 1738 L1016 1835 Z M925 1448 L961 1632 L1124 1632 L1088 1448 L925 1448 Z M491 1448 L527 1632 L690 1632 L654 1448 L491 1448 Z " />
<glyph glyph-name="uni01DA" unicode="&#x1da;" horiz-adv-x="1229" d="M475 1082 L342 396 Q328 324 328 273 Q328 189 370.5 154 Q413 119 512 119 Q643 119 735 209 Q827 299 856 455 L978 1082 L1159 1082 L994 231 Q987 197 980.5 159.5 Q974 122 968.5 88.5 Q963 55 959 31 Q955 7 955 0 L785 0 Q785 11 795.5 77.5 Q806 144 813 185 L810 185 Q727 73 634.5 26.5 Q542 -20 424 -20 Q278 -20 209 38 Q140 96 140 223 Q140 283 155 361 L295 1082 L475 1082 Z M862 1219 L898 1403 L1061 1403 L1025 1219 L862 1219 Z M468 1219 L504 1403 L669 1403 L633 1219 L468 1219 Z M859 1481 L695 1481 L488 1720 L492 1740 L596 1740 L801 1602 L803 1602 L1049 1740 L1154 1740 L1150 1720 L859 1481 Z " />
<glyph glyph-name="uni01DB" unicode="&#x1db;" horiz-adv-x="1229" d="M496 -20 Q295 -20 202.5 57.5 Q110 135 110 301 Q110 378 129 472 L299 1349 L490 1349 L325 498 Q305 396 305 328 Q305 226 355.5 180.5 Q406 135 525 135 Q686 135 766.5 217 Q847 299 889 511 L1052 1349 L1242 1349 L1075 490 Q1023 224 886 102 Q749 -20 496 -20 Z M936 1662 L934 1652 L804 1652 L576 1823 L578 1835 L804 1835 L936 1662 Z M492 1448 L528 1632 L691 1632 L655 1448 L492 1448 Z M926 1448 L962 1632 L1125 1632 L1089 1448 L926 1448 Z " />
<glyph glyph-name="uni01DC" unicode="&#x1dc;" horiz-adv-x="1229" d="M475 1082 L342 396 Q328 324 328 273 Q328 189 370.5 154 Q413 119 512 119 Q643 119 735 209 Q827 299 856 455 L978 1082 L1159 1082 L994 231 Q987 197 980.5 159.5 Q974 122 968.5 88.5 Q963 55 959 31 Q955 7 955 0 L785 0 Q785 11 795.5 77.5 Q806 144 813 185 L810 185 Q727 73 634.5 26.5 Q542 -20 424 -20 Q278 -20 209 38 Q140 96 140 223 Q140 283 155 361 L295 1082 L475 1082 Z M862 1219 L898 1403 L1061 1403 L1025 1219 L862 1219 Z M468 1219 L504 1403 L669 1403 L633 1219 L468 1219 Z M722 1481 L467 1711 L473 1740 L670 1740 L850 1501 L846 1481 L722 1481 Z " />
<glyph glyph-name="uni01DD" unicode="&#x1dd;" horiz-adv-x="1229" d="M913 579 Q926 648 926 700 Q926 829 863.5 898 Q801 967 688 967 Q586 967 499.5 923 Q413 879 371 801 L222 846 Q291 970 420.5 1036 Q550 1102 714 1102 Q908 1102 1010 1001.5 Q1112 901 1112 712 Q1112 588 1072 443.5 Q1032 299 952 193.5 Q872 88 759 34 Q646 -20 502 -20 Q116 -20 116 359 Q116 450 137 555 L141 579 L913 579 Z M526 113 Q659 113 753.5 200 Q848 287 884 441 L300 441 L296 369 Q296 113 526 113 Z " />
<glyph glyph-name="uni01DE" unicode="&#x1de;" horiz-adv-x="1229" d="M929 0 L865 382 L302 382 L91 0 L-105 0 L667 1349 L884 1349 L1123 0 L929 0 Z M745 1205 Q699 1114 662.5 1044 Q626 974 382 531 L845 531 L769 1031 L745 1205 Z M928 1458 L964 1642 L1127 1642 L1091 1458 L928 1458 Z M494 1458 L530 1642 L693 1642 L657 1458 L494 1458 Z M1116 1708 L567 1708 L591 1835 L1140 1835 L1116 1708 Z " />
<glyph glyph-name="uni01DF" unicode="&#x1df;" horiz-adv-x="1229" d="M1018 111 Q1045 111 1078 118 L1056 6 Q986 -10 914 -10 Q827 -10 790.5 28 Q754 66 754 142 L759 207 L753 207 Q664 85 564.5 32.5 Q465 -20 337 -20 Q204 -20 138.5 42 Q73 104 73 213 Q73 254 82 302 Q150 651 605 656 L841 660 Q858 741 860.5 762.5 Q863 784 863 808 Q863 893 817 929 Q771 965 679 965 Q563 965 503.5 925.5 Q444 886 413 793 L228 810 Q282 959 400.5 1030.5 Q519 1102 708 1102 Q1048 1102 1048 835 Q1048 790 1038 738 L948 272 Q939 229 939 196 Q939 154 957 132.5 Q975 111 1018 111 Z M410 117 Q505 117 588 162.5 Q671 208 727 285 Q783 362 799 445 L817 534 L626 530 Q491 528 416.5 494.5 Q342 461 303.5 394.5 Q265 328 265 251 Q265 189 301.5 153 Q338 117 410 117 Z M843 1200 L879 1384 L1042 1384 L1006 1200 L843 1200 Z M449 1200 L485 1384 L650 1384 L614 1200 L449 1200 Z M1048 1489 L499 1489 L524 1616 L1073 1616 L1048 1489 Z " />
<glyph glyph-name="uni01E0" unicode="&#x1e0;" horiz-adv-x="1229" d="M929 0 L865 382 L302 382 L91 0 L-105 0 L667 1349 L884 1349 L1123 0 L929 0 Z M745 1205 Q699 1114 662.5 1044 Q626 974 382 531 L845 531 L769 1031 L745 1205 Z M707 1468 L743 1652 L906 1652 L870 1468 L707 1468 Z M1116 1708 L567 1708 L592 1835 L1141 1835 L1116 1708 Z " />
<glyph glyph-name="uni01E1" unicode="&#x1e1;" horiz-adv-x="1229" d="M1018 111 Q1045 111 1078 118 L1056 6 Q986 -10 914 -10 Q827 -10 790.5 28 Q754 66 754 142 L759 207 L753 207 Q664 85 564.5 32.5 Q465 -20 337 -20 Q204 -20 138.5 42 Q73 104 73 213 Q73 254 82 302 Q150 651 605 656 L841 660 Q858 741 860.5 762.5 Q863 784 863 808 Q863 893 817 929 Q771 965 679 965 Q563 965 503.5 925.5 Q444 886 413 793 L228 810 Q282 959 400.5 1030.5 Q519 1102 708 1102 Q1048 1102 1048 835 Q1048 790 1038 738 L948 272 Q939 229 939 196 Q939 154 957 132.5 Q975 111 1018 111 Z M410 117 Q505 117 588 162.5 Q671 208 727 285 Q783 362 799 445 L817 534 L626 530 Q491 528 416.5 494.5 Q342 461 303.5 394.5 Q265 328 265 251 Q265 189 301.5 153 Q338 117 410 117 Z M661 1273 L698 1465 L898 1465 L861 1273 L661 1273 Z M1064 1489 L515 1489 L540 1616 L1089 1616 L1064 1489 Z " />
<glyph glyph-name="uni01E2" unicode="&#x1e2;" horiz-adv-x="1229" d="M621 412 L286 412 L64 0 L-104 0 L644 1349 L1311 1349 L1282 1197 L945 1197 L861 767 L1188 767 L1159 617 L832 617 L742 152 L1120 152 L1090 0 L541 0 L621 412 Z M775 1202 L702 1202 L583 962 L366 561 L650 561 L775 1202 Z M1191 1503 L640 1503 L665 1630 L1216 1630 L1191 1503 Z " />
<glyph glyph-name="uni01E3" unicode="&#x1e3;" horiz-adv-x="1229" d="M672 503 Q650 410 650 313 Q650 115 781 115 Q856 115 910 162 Q964 209 994 281 L1123 236 Q1004 -20 759 -20 Q638 -20 580.5 34.5 Q523 89 512 212 Q370 -20 169 -20 Q-38 -20 -38 190 Q-38 241 -26 302 Q42 651 373 656 L540 660 Q567 793 567 844 Q567 909 542 937 Q517 965 464 965 Q390 965 348.5 924.5 Q307 884 282 793 L117 810 Q164 959 256.5 1030.5 Q349 1102 489 1102 Q667 1102 709 963 Q820 1102 982 1102 Q1234 1102 1234 781 Q1234 670 1205 527 L1201 503 L672 503 Z M135 230 Q135 117 221 117 Q314 117 392.5 212 Q471 307 498 445 L516 534 L393 530 Q298 527 245 490 Q192 453 163.5 378 Q135 303 135 230 Z M942 969 Q861 969 797.5 881.5 Q734 794 701 641 L1062 641 Q1073 727 1073 776 Q1073 876 1040.5 922.5 Q1008 969 942 969 Z M1024 1235 L475 1235 L500 1362 L1049 1362 L1024 1235 Z " />
<glyph glyph-name="uni01E4" unicode="&#x1e4;" horiz-adv-x="1229" d="M1081 438 L1209 438 L1184 308 L1056 308 L1022 133 Q883 52 762 16 Q641 -20 530 -20 Q331 -20 223.5 100.5 Q116 221 116 451 Q116 612 169 804.5 Q222 997 309 1121 Q396 1245 519 1307.5 Q642 1370 803 1370 Q1147 1370 1200 1039 L1018 983 Q982 1214 775 1214 Q667 1214 586.5 1163 Q506 1112 448.5 1009 Q391 906 353.5 742 Q316 578 316 455 Q316 135 576 135 Q644 135 720.5 156 Q797 177 851 209 L870 308 L577 308 L602 438 L895 438 L916 545 L623 545 L654 705 L1133 705 L1081 438 Z " />
<glyph glyph-name="uni01E5" unicode="&#x1e5;" horiz-adv-x="1229" d="M-3 0 L764 0 L815 261 L813 261 Q682 62 436 62 Q129 62 129 418 Q129 628 193 785 Q257 942 374.5 1020.5 Q492 1099 652 1099 Q765 1099 838.5 1046.5 Q912 994 938 897 L940 897 Q947 934 965 1003.5 Q983 1073 988 1082 L1159 1082 L1152 1052 Q1129 963 1110 858 L943 0 L1009 0 L991 -93 L916 -93 Q856 -258 735.5 -341 Q615 -424 422 -424 Q260 -424 164 -362.5 Q68 -301 56 -188 L242 -158 Q265 -288 449 -288 Q553 -288 622 -242.5 Q691 -197 735 -93 L-21 -93 L-3 0 Z M889 679 Q889 810 830 887.5 Q771 965 671 965 Q500 965 409 835.5 Q318 706 318 443 Q318 311 369.5 253 Q421 195 523 195 Q620 195 705.5 256 Q791 317 840 426 Q889 535 889 679 Z " />
<glyph glyph-name="uni01E6" unicode="&#x1e6;" horiz-adv-x="1229" d="M530 -20 Q331 -20 223.5 100.5 Q116 221 116 451 Q116 612 169 804.5 Q222 997 309 1121 Q396 1245 519 1307.5 Q642 1370 803 1370 Q1147 1370 1200 1039 L1018 983 Q982 1214 775 1214 Q668 1214 588.5 1164.5 Q509 1115 452 1015 Q395 915 355.5 748.5 Q316 582 316 455 Q316 135 576 135 Q644 135 720.5 156 Q797 177 851 209 L916 545 L623 545 L654 705 L1133 705 L1022 133 Q767 -20 530 -20 Z M877 1445 L713 1445 L505 1684 L509 1704 L613 1704 L818 1566 L820 1566 L1066 1704 L1171 1704 L1167 1684 L877 1445 Z " />
<glyph glyph-name="uni01E7" unicode="&#x1e7;" horiz-adv-x="1229" d="M428 -424 Q259 -424 171 -355 Q83 -286 79 -157 L268 -132 Q270 -207 319 -247.5 Q368 -288 460 -288 Q710 -288 769 27 L807 221 L805 221 Q664 12 421 12 Q265 12 192.5 90.5 Q120 169 120 328 Q120 452 160 619.5 Q200 787 266 890.5 Q332 994 427.5 1046.5 Q523 1099 652 1099 Q765 1099 838 1046.5 Q911 994 937 897 L940 897 Q947 934 965 1003.5 Q983 1073 988 1082 L1159 1082 L1140 1000 L1110 858 L949 32 Q905 -195 777 -309.5 Q649 -424 428 -424 Z M887 697 Q887 823 830.5 894 Q774 965 671 965 Q581 965 518 926 Q455 887 411 804 Q367 721 337.5 583.5 Q308 446 308 355 Q308 245 354.5 195 Q401 145 508 145 Q588 145 658.5 188 Q729 231 781 311.5 Q833 392 860 500.5 Q887 609 887 697 Z M800 1201 L636 1201 L429 1440 L433 1460 L537 1460 L742 1322 L744 1322 L990 1460 L1095 1460 L1091 1440 L800 1201 Z " />
<glyph glyph-name="uni01E8" unicode="&#x1e8;" horiz-adv-x="1229" d="M898 0 L539 641 L339 469 L248 0 L57 0 L319 1349 L510 1349 L379 676 L1082 1349 L1307 1349 L692 777 L1122 0 L898 0 Z M874 1445 L710 1445 L502 1684 L506 1704 L610 1704 L815 1566 L817 1566 L1063 1704 L1168 1704 L1164 1684 L874 1445 Z " />
<glyph glyph-name="uni01E9" unicode="&#x1e9;" horiz-adv-x="1229" d="M809 0 L540 499 L389 401 L311 0 L131 0 L393 1349 L573 1349 L419 557 L996 1082 L1207 1082 L678 617 L1020 0 L809 0 Z M914 1445 L750 1445 L542 1684 L546 1704 L650 1704 L855 1566 L857 1566 L1103 1704 L1208 1704 L1204 1684 L914 1445 Z " />
<glyph glyph-name="uni01EA" unicode="&#x1ea;" horiz-adv-x="1229" d="M504 -20 Q302 -20 202 96.5 Q102 213 102 430 Q102 590 151.5 781 Q201 972 288.5 1104.5 Q376 1237 498 1303.5 Q620 1370 776 1370 Q974 1370 1077 1259.5 Q1180 1149 1180 928 Q1180 773 1131 582 Q1082 391 992 254.5 Q902 118 778 49 Q654 -20 504 -20 Z M978 913 Q978 1214 746 1214 Q610 1214 514.5 1114.5 Q419 1015 361.5 813 Q304 611 304 446 Q304 135 535 135 Q635 135 711 187 Q787 239 845.5 351 Q904 463 941 628.5 Q978 794 978 913 Z M500 -427 Q409 -427 364.5 -388.5 Q320 -350 320 -284 Q320 -204 377.5 -126.5 Q435 -49 527 0 L660 0 Q577 -43 522 -116.5 Q467 -190 467 -250 Q467 -317 545 -317 Q600 -317 665 -293 L644 -400 Q577 -427 500 -427 Z " />
<glyph glyph-name="uni01EB" unicode="&#x1eb;" horiz-adv-x="1229" d="M500 -20 Q312 -20 212 78.5 Q112 177 112 367 Q112 446 130 542 Q185 821 338.5 961.5 Q492 1102 724 1102 Q923 1102 1020 1010 Q1117 918 1117 732 Q1117 597 1075 447.5 Q1033 298 952 192 Q871 86 756 33 Q641 -20 500 -20 Z M928 720 Q928 845 873.5 907 Q819 969 701 969 Q569 969 482.5 892 Q396 815 348.5 662 Q301 509 301 373 Q301 113 524 113 Q625 113 696 154.5 Q767 196 818.5 283 Q870 370 899 498.5 Q928 627 928 720 Z M503 -427 Q412 -427 367.5 -388.5 Q323 -350 323 -284 Q323 -204 380.5 -126.5 Q438 -49 530 0 L663 0 Q580 -43 525 -116.5 Q470 -190 470 -250 Q470 -317 548 -317 Q603 -317 668 -293 L647 -400 Q580 -427 503 -427 Z " />
<glyph glyph-name="uni01EC" unicode="&#x1ec;" horiz-adv-x="1229" d="M504 -20 Q302 -20 202 96.5 Q102 213 102 430 Q102 590 151.5 781 Q201 972 288.5 1104.5 Q376 1237 498 1303.5 Q620 1370 776 1370 Q974 1370 1077 1259.5 Q1180 1149 1180 928 Q1180 773 1131 582 Q1082 391 992 254.5 Q902 118 778 49 Q654 -20 504 -20 Z M978 913 Q978 1214 746 1214 Q610 1214 514.5 1114.5 Q419 1015 361.5 813 Q304 611 304 446 Q304 135 535 135 Q635 135 711 187 Q787 239 845.5 351 Q904 463 941 628.5 Q978 794 978 913 Z M498 -427 Q407 -427 362.5 -388.5 Q318 -350 318 -284 Q318 -204 375.5 -126.5 Q433 -49 525 0 L658 0 Q575 -43 520 -116.5 Q465 -190 465 -250 Q465 -317 543 -317 Q598 -317 663 -293 L642 -400 Q575 -427 498 -427 Z M1025 1503 L474 1503 L499 1630 L1050 1630 L1025 1503 Z " />
<glyph glyph-name="uni01ED" unicode="&#x1ed;" horiz-adv-x="1229" d="M500 -20 Q312 -20 212 78.5 Q112 177 112 367 Q112 446 130 542 Q185 821 338.5 961.5 Q492 1102 724 1102 Q923 1102 1020 1010 Q1117 918 1117 732 Q1117 597 1075 447.5 Q1033 298 952 192 Q871 86 756 33 Q641 -20 500 -20 Z M928 720 Q928 845 873.5 907 Q819 969 701 969 Q569 969 482.5 892 Q396 815 348.5 662 Q301 509 301 373 Q301 113 524 113 Q625 113 696 154.5 Q767 196 818.5 283 Q870 370 899 498.5 Q928 627 928 720 Z M509 -427 Q418 -427 373.5 -388.5 Q329 -350 329 -284 Q329 -204 386.5 -126.5 Q444 -49 536 0 L669 0 Q586 -43 531 -116.5 Q476 -190 476 -250 Q476 -317 554 -317 Q609 -317 674 -293 L653 -400 Q586 -427 509 -427 Z M1024 1235 L475 1235 L500 1362 L1049 1362 L1024 1235 Z " />
<glyph glyph-name="uni01EE" unicode="&#x1ee;" horiz-adv-x="1229" d="M1051 1193 L276 1193 L307 1349 L1295 1349 L1263 1188 L663 699 Q883 685 996 579.5 Q1109 474 1109 279 Q1109 82 1018.5 -80 Q928 -242 766.5 -334 Q605 -426 412 -426 Q274 -426 178.5 -390 Q83 -354 25 -283 Q-33 -212 -69 -80 L108 -5 Q142 -147 222.5 -212 Q303 -277 438 -277 Q571 -277 681.5 -212 Q792 -147 854.5 -27 Q917 93 917 247 Q917 400 817 479 Q717 558 502 558 L428 558 L455 699 L1051 1193 Z M903 1445 L739 1445 L531 1684 L535 1704 L639 1704 L844 1566 L846 1566 L1092 1704 L1197 1704 L1193 1684 L903 1445 Z " />
<glyph glyph-name="uni01EF" unicode="&#x1ef;" horiz-adv-x="1229" d="M302 1082 L1175 1082 L1141 906 L688 544 Q845 524 935.5 424.5 Q1026 325 1026 164 Q1026 6 948 -133 Q870 -272 737 -348.5 Q604 -425 444 -425 Q302 -425 211 -386 Q120 -347 72 -275.5 Q24 -204 24 -83 L25 -48 L205 -36 L204 -60 Q204 -180 269 -234 Q334 -288 465 -288 Q570 -288 657.5 -232 Q745 -176 794 -76 Q843 24 843 144 Q843 267 769 339 Q695 411 554 411 L472 411 L500 555 L968 941 L275 941 L302 1082 Z M849 1201 L685 1201 L478 1440 L482 1460 L586 1460 L791 1322 L793 1322 L1039 1460 L1144 1460 L1140 1440 L849 1201 Z " />
<glyph glyph-name="uni01F0" unicode="&#x1f0;" horiz-adv-x="1229" d="M217 -425 Q138 -425 59.5 -412 Q-19 -399 -62 -382 L-35 -242 Q108 -276 231 -276 Q358 -276 440 -210.5 Q522 -145 546 -25 L734 940 L327 940 L354 1082 L941 1082 L726 -28 Q690 -214 557 -319.5 Q424 -425 217 -425 Z M923 1201 L759 1201 L552 1440 L556 1460 L660 1460 L865 1322 L867 1322 L1113 1460 L1218 1460 L1214 1440 L923 1201 Z " />
<glyph glyph-name="uni01F1" unicode="&#x1f1;" horiz-adv-x="1229" d="M721 939 Q721 656 650 436 Q579 216 451 108 Q323 0 149 0 L-16 0 L246 1349 L368 1349 Q550 1349 635.5 1250 Q721 1151 721 939 Z M549 906 Q549 1050 508 1121.5 Q467 1193 382 1193 L378 1193 L176 156 L200 156 Q294 156 374.5 257.5 Q455 359 502 539 Q549 719 549 906 Z M1114 0 L552 0 L580 142 L1164 1193 L857 1193 L887 1349 L1376 1349 L1349 1211 L759 156 L1144 156 L1114 0 Z " />
<glyph glyph-name="uni01F2" unicode="&#x1f2;" horiz-adv-x="1229" d="M721 939 Q721 656 650 436 Q579 216 451 108 Q323 0 149 0 L-16 0 L246 1349 L368 1349 Q550 1349 635.5 1250 Q721 1151 721 939 Z M549 906 Q549 1050 508 1121.5 Q467 1193 382 1193 L378 1193 L176 156 L200 156 Q294 156 374.5 257.5 Q455 359 502 539 Q549 719 549 906 Z M552 0 L578 132 L1087 943 L775 943 L802 1082 L1287 1082 L1262 950 L747 139 L1141 139 L1114 0 L552 0 Z " />
<glyph glyph-name="uni01F3" unicode="&#x1f3;" horiz-adv-x="1229" d="M384 124 Q335 37 290 5.5 Q245 -26 176 -26 Q13 -26 13 285 Q13 500 65.5 698.5 Q118 897 203 997.5 Q288 1098 396 1098 Q472 1098 503.5 1065.5 Q535 1033 546 954 L548 954 L552 977 L650 1484 L809 1484 L564 223 L531 31 L526 0 L374 0 L373 10 Q373 49 389 124 L384 124 Z M182 307 Q182 113 261 113 Q329 113 387.5 201.5 Q446 290 474.5 439 Q503 588 503 778 Q503 965 427 965 Q355 965 296.5 880 Q238 795 210 649.5 Q182 504 182 307 Z M572 0 L597 132 L1107 943 L795 943 L822 1082 L1307 1082 L1281 950 L767 139 L1151 139 L1124 0 L572 0 Z " />
<glyph glyph-name="uni01F4" unicode="&#x1f4;" horiz-adv-x="1229" d="M530 -20 Q331 -20 223.5 100.5 Q116 221 116 451 Q116 612 169 804.5 Q222 997 309 1121 Q396 1245 519 1307.5 Q642 1370 803 1370 Q1147 1370 1200 1039 L1018 983 Q982 1214 775 1214 Q668 1214 588.5 1164.5 Q509 1115 452 1015 Q395 915 355.5 748.5 Q316 582 316 455 Q316 135 576 135 Q644 135 720.5 156 Q797 177 851 209 L916 545 L623 545 L654 705 L1133 705 L1022 133 Q767 -20 530 -20 Z M686 1445 L690 1465 L951 1691 L1158 1691 L1152 1662 L800 1445 L686 1445 Z " />
<glyph glyph-name="uni01F5" unicode="&#x1f5;" horiz-adv-x="1229" d="M428 -424 Q259 -424 171 -355 Q83 -286 79 -157 L268 -132 Q270 -207 319 -247.5 Q368 -288 460 -288 Q710 -288 769 27 L807 221 L805 221 Q664 12 421 12 Q265 12 192.5 90.5 Q120 169 120 328 Q120 452 160 619.5 Q200 787 266 890.5 Q332 994 427.5 1046.5 Q523 1099 652 1099 Q765 1099 838 1046.5 Q911 994 937 897 L940 897 Q947 934 965 1003.5 Q983 1073 988 1082 L1159 1082 L1140 1000 L1110 858 L949 32 Q905 -195 777 -309.5 Q649 -424 428 -424 Z M887 697 Q887 823 830.5 894 Q774 965 671 965 Q581 965 518 926 Q455 887 411 804 Q367 721 337.5 583.5 Q308 446 308 355 Q308 245 354.5 195 Q401 145 508 145 Q588 145 658.5 188 Q729 231 781 311.5 Q833 392 860 500.5 Q887 609 887 697 Z M596 1201 L600 1221 L874 1460 L1071 1460 L1065 1431 L720 1201 L596 1201 Z " />
<glyph glyph-name="uni01F6" unicode="&#x1f6;" horiz-adv-x="1229" d="M675 236 Q675 174 699 145.5 Q723 117 773 117 Q843 117 886.5 174.5 Q930 232 958 374 L1084 1022 L1238 1022 L1106 345 Q1036 -20 745 -20 Q602 -20 555 50 Q508 120 508 211 Q508 269 522 342 L578 628 L273 628 L151 0 L-12 0 L250 1349 L413 1349 L303 783 L608 783 L718 1349 L882 1349 L692 374 Q675 285 675 236 Z " />
<glyph glyph-name="uni01F7" unicode="&#x1f7;" horiz-adv-x="1229" d="M1210 1002 Q1210 771 1083 542 Q956 313 724.5 127 Q493 -59 217 -160 L165 -425 L-26 -425 L319 1349 L503 1349 L472 1185 Q550 1273 649 1321.5 Q748 1370 854 1370 Q1029 1370 1119.5 1277.5 Q1210 1185 1210 1002 Z M1011 970 Q1011 1215 797 1215 Q708 1215 626.5 1166 Q545 1117 489 1032 Q433 947 414 849 L248 2 Q450 77 626.5 236 Q803 395 907 591.5 Q1011 788 1011 970 Z " />
<glyph glyph-name="uni01F8" unicode="&#x1f8;" horiz-adv-x="1229" d="M731 0 L431 1130 Q416 969 397 876 L227 0 L57 0 L319 1349 L541 1349 L848 211 Q860 366 883 485 L1051 1349 L1223 1349 L961 0 L731 0 Z M786 1446 L518 1663 L524 1692 L731 1692 L904 1466 L900 1446 L786 1446 Z " />
<glyph glyph-name="uni01F9" unicode="&#x1f9;" horiz-adv-x="1229" d="M782 0 L917 695 Q928 753 928 793 Q928 881 884.5 922 Q841 963 749 963 Q625 963 528.5 872.5 Q432 782 401 627 L279 0 L99 0 L264 851 Q271 885 277.5 922.5 Q284 960 289.5 993.5 Q295 1027 299 1051 Q303 1075 303 1082 L473 1082 Q473 1076 464.5 1014.5 Q456 953 445 897 L448 897 Q516 992 609 1047 Q702 1102 834 1102 Q1117 1102 1117 848 Q1117 791 1103 721 L963 0 L782 0 Z M766 1201 L511 1431 L517 1460 L714 1460 L894 1221 L890 1201 L766 1201 Z " />
<glyph glyph-name="Aringacute" unicode="&#x1fa;" horiz-adv-x="1229" d="M868 1051 L1123 0 L929 0 L854 323 L291 323 L91 0 L-105 0 L564 1047 Q499 1091 499 1174 Q499 1235 535 1291 Q571 1347 636.5 1378.5 Q702 1410 783 1410 Q881 1410 935.5 1366.5 Q990 1323 990 1250 Q990 1192 959 1139 Q928 1086 868 1051 Z M717 1011 L699 1011 Q632 884 588 811 L383 476 L824 476 L754 811 Q747 842 717 1011 Z M701 1445 L705 1465 L978 1705 L1175 1705 L1170 1676 L825 1445 L701 1445 Z M866 1225 Q866 1257 838 1275.5 Q810 1294 761 1294 Q700 1294 660.5 1266.5 Q621 1239 621 1198 Q621 1165 650 1146 Q679 1127 728 1127 Q790 1127 828 1155 Q866 1183 866 1225 Z " />
</font>
</svg>
