<?xml version="1.0" encoding="UTF-8"?>
<svg xmlns="http://www.w3.org/2000/svg" xmlns:xlink="http://www.w3.org/1999/xlink" version="1.2" >
<font id="Cousine for Powerline">
<font-face  font-family="Cousine for Powerline" units-per-em="2048" ascent="1255" descent="-386" font-style="normal" font-weight="400" font-stretch="normal" cap-height="1349" x-height="1082" underline-position="-561" underline-thickness="84" />
<missing-glyph  horiz-adv-x="1229" d="M127 0 L127 750 L897 750 L897 0 L127 0 Z M768 621 L256 621 L256 129 L768 129 L768 621 Z " />
<glyph glyph-name="&amp;#x20;" unicode="&#x20;" horiz-adv-x="1229" d="" />
<glyph glyph-name="&amp;#xa0;" unicode="&#xa0;" horiz-adv-x="1229" d="" />
<glyph glyph-name="exclam" unicode="&#x21;" horiz-adv-x="1229" d="M689 397 L541 397 L517 1348 L713 1348 L689 397 Z M515 0 L515 201 L709 201 L709 0 L515 0 Z " />
<glyph glyph-name="quotedbl" unicode="&#x22;" horiz-adv-x="1229" d="M908 845 L766 845 L726 1484 L950 1484 L908 845 Z M459 845 L318 845 L277 1484 L501 1484 L459 845 Z " />
<glyph glyph-name="numbersign" unicode="&#x23;" horiz-adv-x="1229" d="M930 833 L863 516 L1123 516 L1123 408 L840 408 L752 0 L642 0 L728 408 L365 408 L281 0 L171 0 L255 408 L54 408 L54 516 L279 516 L346 833 L105 833 L105 941 L368 941 L457 1349 L567 1349 L479 941 L842 941 L930 1349 L1040 1349 L952 941 L1163 941 L1163 833 L930 833 Z M459 833 L390 516 L752 516 L819 833 L459 833 Z " />
<glyph glyph-name="dollar" unicode="&#x24;" horiz-adv-x="1229" d="M1150 380 Q1150 218 1030 123.5 Q910 29 686 20 L686 -141 L558 -141 L558 20 Q136 34 66 379 L236 416 Q262 290 342 227.5 Q422 165 558 158 L558 647 L528 655 Q360 696 281.5 744.5 Q203 793 166.5 861 Q130 929 130 1023 Q130 1172 239.5 1255.5 Q349 1339 558 1346 L558 1476 L686 1476 L686 1346 Q872 1339 973 1266.5 Q1074 1194 1119 1025 L945 992 Q923 1098 859 1152 Q795 1206 686 1213 L686 787 Q858 745 935 709 Q1012 673 1058 627 Q1104 581 1127 520.5 Q1150 460 1150 380 Z M302 1018 Q302 961 325.5 922.5 Q349 884 394 858.5 Q439 833 558 802 L558 1215 Q432 1210 367 1159.5 Q302 1109 302 1018 Z M978 383 Q978 449 950.5 492 Q923 535 873 563.5 Q823 592 686 627 L686 156 Q830 165 904 223.5 Q978 282 978 383 Z " />
<glyph glyph-name="percent" unicode="&#x25;" horiz-adv-x="1229" d="M221 0 L76 0 L1008 1353 L1155 1353 L221 0 Z M291 1361 Q574 1361 574 1025 Q574 858 501 771 Q428 684 287 684 Q146 684 73 770 Q0 856 0 1025 Q0 1192 70 1276.5 Q140 1361 291 1361 Z M427 1025 Q427 1144 395.5 1198.5 Q364 1253 290 1253 Q213 1253 180 1200 Q147 1147 147 1025 Q147 909 180 853 Q213 797 289 797 Q360 797 393.5 852.5 Q427 908 427 1025 Z M947 665 Q1230 665 1230 329 Q1230 162 1157 75 Q1084 -12 943 -12 Q802 -12 729 74 Q656 160 656 329 Q656 496 726 580.5 Q796 665 947 665 Z M1083 329 Q1083 448 1051.5 502.5 Q1020 557 946 557 Q869 557 836 504 Q803 451 803 329 Q803 213 836 157 Q869 101 945 101 Q1016 101 1049.5 156.5 Q1083 212 1083 329 Z " />
<glyph glyph-name="ampersand" unicode="&#x26;" horiz-adv-x="1229" d="M1072 -12 Q999 -12 928.5 23 Q858 58 808 117 Q655 -20 461 -20 Q262 -20 152.5 80 Q43 180 43 358 Q43 626 335 777 Q303 837 281.5 913.5 Q260 990 260 1059 Q260 1195 352.5 1276 Q445 1357 611 1357 Q757 1357 844.5 1285 Q932 1213 932 1090 Q932 1015 892.5 956.5 Q853 898 778.5 847.5 Q704 797 525 722 Q657 491 802 333 Q890 515 927 739 L1072 696 Q1028 460 910 234 Q953 180 1001.5 154.5 Q1050 129 1090 129 Q1148 129 1185 145 L1185 10 Q1137 -12 1072 -12 Z M780 1085 Q780 1155 732 1195.5 Q684 1236 608 1236 Q519 1236 463.5 1187 Q408 1138 408 1056 Q408 946 469 832 Q630 900 679 931.5 Q728 963 754 1000.5 Q780 1038 780 1085 Z M706 217 Q526 420 390 658 Q211 561 211 362 Q211 247 280 179 Q349 111 469 111 Q533 111 595.5 138.5 Q658 166 706 217 Z " />
<glyph glyph-name="quotesingle" unicode="&#x27;" horiz-adv-x="1229" d="M684 845 L543 845 L502 1484 L726 1484 L684 845 Z " />
<glyph glyph-name="parenleft" unicode="&#x28;" horiz-adv-x="1229" d="M529 530 Q529 255 614 33 Q699 -189 891 -425 L701 -425 Q509 -189 425.5 32.5 Q342 254 342 532 Q342 805 424 1024.5 Q506 1244 701 1484 L891 1484 Q699 1248 614 1025.5 Q529 803 529 530 Z " />
<glyph glyph-name="parenright" unicode="&#x29;" horiz-adv-x="1229" d="M885 532 Q885 252 802.5 31.5 Q720 -189 528 -425 L336 -425 Q532 -184 616 38.5 Q700 261 700 530 Q700 798 616 1020.5 Q532 1243 336 1484 L528 1484 Q723 1244 804 1026 Q885 808 885 532 Z " />
<glyph glyph-name="asterisk" unicode="&#x2a;" horiz-adv-x="1229" d="M671 1188 L935 1291 L980 1159 L698 1086 L883 836 L764 764 L614 1022 L458 766 L339 838 L528 1086 L248 1159 L293 1293 L560 1186 L548 1483 L684 1483 L671 1188 Z " />
<glyph glyph-name="plus" unicode="&#x2b;" horiz-adv-x="1229" d="M687 608 L687 180 L540 180 L540 608 L116 608 L116 754 L540 754 L540 1182 L687 1182 L687 754 L1111 754 L1111 608 L687 608 Z " />
<glyph glyph-name="comma" unicode="&#x2c;" horiz-adv-x="1229" d="M259 -363 L428 299 L693 299 L382 -363 L259 -363 Z " />
<glyph glyph-name="&amp;#x2d;" unicode="&#x2d;" horiz-adv-x="1229" d="M334 464 L334 624 L894 624 L894 464 L334 464 Z " />
<glyph glyph-name="&amp;#xad;" unicode="&#xad;" horiz-adv-x="1229" d="M334 464 L334 624 L894 624 L894 464 L334 464 Z " />
<glyph glyph-name="period" unicode="&#x2e;" horiz-adv-x="1229" d="M496 0 L496 299 L731 299 L731 0 L496 0 Z " />
<glyph glyph-name="slash" unicode="&#x2f;" horiz-adv-x="1229" d="M114 -20 L935 1484 L1113 1484 L296 -20 L114 -20 Z " />
<glyph glyph-name="zero" unicode="0" horiz-adv-x="1229" d="M1103 675 Q1103 337 978.5 158.5 Q854 -20 611 -20 Q368 -20 246 157.5 Q124 335 124 675 Q124 1024 243 1197 Q362 1370 617 1370 Q866 1370 984.5 1195.5 Q1103 1021 1103 675 Z M920 675 Q920 965 849.5 1094.5 Q779 1224 617 1224 Q451 1224 378.5 1096 Q306 968 306 675 Q306 390 379.5 258.5 Q453 127 613 127 Q772 127 846 262 Q920 397 920 675 Z M496 555 L496 804 L731 804 L731 555 L496 555 Z " />
<glyph glyph-name="one" unicode="1" horiz-adv-x="1229" d="M157 0 L157 145 L596 145 L596 1166 Q559 1088 420.5 1030 Q282 972 148 972 L148 1120 Q296 1120 427.5 1185 Q559 1250 611 1349 L777 1349 L777 145 L1130 145 L1130 0 L157 0 Z " />
<glyph glyph-name="two" unicode="2" horiz-adv-x="1229" d="M144 0 L144 117 Q193 226 296.5 336.5 Q400 447 578 589 Q737 716 807 810 Q877 904 877 991 Q877 1102 808 1162 Q739 1222 611 1222 Q497 1222 426.5 1159.5 Q356 1097 343 984 L159 1001 Q179 1171 298 1270.5 Q417 1370 611 1370 Q824 1370 943 1274 Q1062 1178 1062 1002 Q1062 887 986 772.5 Q910 658 759 538 Q553 374 473.5 296.5 Q394 219 361 146 L1084 146 L1084 0 L144 0 Z " />
<glyph glyph-name="three" unicode="3" horiz-adv-x="1229" d="M1099 370 Q1099 184 973 82 Q847 -20 621 -20 Q407 -20 279 77 Q151 174 128 362 L314 379 Q350 129 621 129 Q757 129 834.5 192 Q912 255 912 376 Q912 451 866.5 502.5 Q821 554 743 581.5 Q665 609 568 609 L466 609 L466 765 L564 765 Q650 765 721.5 793.5 Q793 822 834 874 Q875 926 875 997 Q875 1103 808.5 1162.5 Q742 1222 611 1222 Q492 1222 418.5 1161 Q345 1100 333 989 L152 1003 Q172 1176 295.5 1273 Q419 1370 613 1370 Q825 1370 942.5 1276.5 Q1060 1183 1060 1016 Q1060 897 981 809 Q902 721 765 693 L765 689 Q916 672 1007.5 583 Q1099 494 1099 370 Z " />
<glyph glyph-name="four" unicode="4" horiz-adv-x="1229" d="M937 319 L937 0 L757 0 L757 319 L103 319 L103 459 L738 1349 L937 1349 L937 461 L1125 461 L1125 319 L937 319 Z M757 1154 L257 461 L757 461 L757 1154 Z " />
<glyph glyph-name="five" unicode="5" horiz-adv-x="1229" d="M1099 444 Q1099 305 1040 200 Q981 95 867.5 37.5 Q754 -20 599 -20 Q402 -20 281 66 Q160 152 128 315 L310 336 Q367 127 603 127 Q744 127 828 211 Q912 295 912 440 Q912 564 829 643 Q746 722 607 722 Q534 722 471 699 Q408 676 345 621 L169 621 L216 1349 L1017 1349 L1017 1204 L382 1204 L353 779 Q470 869 644 869 Q848 869 973.5 751.5 Q1099 634 1099 444 Z " />
<glyph glyph-name="six" unicode="6" horiz-adv-x="1229" d="M1096 446 Q1096 234 974.5 107 Q853 -20 641 -20 Q405 -20 278 152.5 Q151 325 151 642 Q151 990 283 1180 Q415 1370 655 1370 Q974 1370 1057 1083 L885 1052 Q832 1224 653 1224 Q500 1224 415 1085 Q330 946 330 695 Q379 786 468 833.5 Q557 881 672 881 Q864 881 980 762.5 Q1096 644 1096 446 Z M913 438 Q913 582 836.5 662 Q760 742 629 742 Q555 742 489 708.5 Q423 675 385.5 615.5 Q348 556 348 481 Q348 329 428.5 227 Q509 125 635 125 Q762 125 837.5 209 Q913 293 913 438 Z " />
<glyph glyph-name="seven" unicode="7" horiz-adv-x="1229" d="M1069 1210 Q596 530 596 0 L408 0 Q408 263 530.5 567.5 Q653 872 895 1204 L158 1204 L158 1349 L1069 1349 L1069 1210 Z " />
<glyph glyph-name="eight" unicode="8" horiz-adv-x="1229" d="M1094 378 Q1094 194 969.5 87 Q845 -20 614 -20 Q388 -20 260.5 85 Q133 190 133 376 Q133 505 212 595.5 Q291 686 414 707 L414 711 Q302 738 234 825 Q166 912 166 1024 Q166 1122 221.5 1202 Q277 1282 378 1326 Q479 1370 610 1370 Q747 1370 849 1325.5 Q951 1281 1005 1202 Q1059 1123 1059 1022 Q1059 909 990 822 Q921 735 809 713 L809 709 Q939 688 1016.5 599.5 Q1094 511 1094 378 Z M872 1012 Q872 1123 804.5 1179.5 Q737 1236 610 1236 Q487 1236 418.5 1179 Q350 1122 350 1012 Q350 901 419 840 Q488 779 612 779 Q872 779 872 1012 Z M907 395 Q907 515 829 579.5 Q751 644 610 644 Q474 644 396.5 574.5 Q319 505 319 391 Q319 256 394.5 185.5 Q470 115 616 115 Q763 115 835 184 Q907 253 907 395 Z " />
<glyph glyph-name="nine" unicode="9" horiz-adv-x="1229" d="M1087 703 Q1087 357 954 168.5 Q821 -20 577 -20 Q412 -20 312.5 49.5 Q213 119 170 274 L342 301 Q396 125 580 125 Q734 125 820.5 264.5 Q907 404 909 650 Q869 560 772 505.5 Q675 451 559 451 Q370 451 255.5 578.5 Q141 706 141 911 Q141 1123 266.5 1246.5 Q392 1370 610 1370 Q1087 1370 1087 703 Z M891 862 Q891 1023 811 1123.5 Q731 1224 604 1224 Q474 1224 399 1137 Q324 1050 324 911 Q324 768 399 680.5 Q474 593 602 593 Q678 593 745.5 627.5 Q813 662 852 723.5 Q891 785 891 862 Z " />
<glyph glyph-name="colon" unicode="&#x3a;" horiz-adv-x="1229" d="M496 0 L496 299 L731 299 L731 0 L496 0 Z M496 783 L496 1082 L731 1082 L731 783 L496 783 Z " />
<glyph glyph-name="&amp;#x3b;" unicode="&#x3b;" horiz-adv-x="1229" d="M496 783 L496 1082 L731 1082 L731 783 L496 783 Z M352 -363 L521 299 L786 299 L475 -363 L352 -363 Z " />
<glyph glyph-name="&amp;#x37e;" unicode="&#x37e;" horiz-adv-x="1229" d="M496 783 L496 1082 L731 1082 L731 783 L496 783 Z M352 -363 L521 299 L786 299 L475 -363 L352 -363 Z " />
<glyph glyph-name="less" unicode="&#x3c;" horiz-adv-x="1229" d="M116 571 L116 776 L1111 1194 L1111 1040 L253 674 L1111 307 L1111 154 L116 571 Z " />
<glyph glyph-name="equal" unicode="&#x3d;" horiz-adv-x="1229" d="M116 856 L116 1004 L1111 1004 L1111 856 L116 856 Z M116 344 L116 492 L1111 492 L1111 344 L116 344 Z " />
<glyph glyph-name="greater" unicode="&#x3e;" horiz-adv-x="1229" d="M116 154 L116 307 L974 674 L116 1040 L116 1194 L1111 776 L1111 571 L116 154 Z " />
<glyph glyph-name="question" unicode="&#x3f;" horiz-adv-x="1229" d="M1073 1002 Q1073 929 1051 872 Q1029 815 987.5 766.5 Q946 718 854 652 Q744 572 708.5 535 Q673 498 652.5 455 Q632 412 631 357 L456 357 Q458 427 480.5 482.5 Q503 538 542.5 584.5 Q582 631 677 702 Q784 780 817.5 817 Q851 854 871 896.5 Q891 939 891 994 Q891 1103 811.5 1161.5 Q732 1220 596 1220 Q461 1220 376.5 1147 Q292 1074 278 948 L94 960 Q120 1157 253.5 1263.5 Q387 1370 594 1370 Q817 1370 945 1273.5 Q1073 1177 1073 1002 Z M448 0 L448 201 L643 201 L643 0 L448 0 Z " />
<glyph glyph-name="at" unicode="&#x40;" horiz-adv-x="1229" d="M1189 755 Q1189 457 1106.5 280.5 Q1024 104 884 104 Q741 104 741 261 L741 269 L743 299 L737 299 Q703 211 641.5 157.5 Q580 104 502 104 Q396 104 336.5 204 Q277 304 277 489 Q277 650 325.5 793 Q374 936 457.5 1018.5 Q541 1101 644 1101 Q715 1101 760.5 1059.5 Q806 1018 828 928 L833 928 L865 1079 L981 1079 L882 572 Q842 362 842 294 Q842 206 891 206 Q969 206 1018.5 355 Q1068 504 1068 753 Q1068 1027 959 1197.5 Q850 1368 670 1368 Q522 1368 408 1260.5 Q294 1153 232 958 Q170 763 170 514 Q170 205 286 20 Q402 -165 604 -165 Q698 -165 785 -130 Q872 -95 973 -7 L1044 -94 Q929 -193 821 -238 Q713 -283 594 -283 Q429 -283 303.5 -186 Q178 -89 111 93.5 Q44 276 44 514 Q44 800 121 1021.5 Q198 1243 341 1363.5 Q484 1484 672 1484 Q830 1484 946.5 1393.5 Q1063 1303 1126 1137.5 Q1189 972 1189 755 Z M775 784 Q775 890 740 944.5 Q705 999 646 999 Q583 999 530 932.5 Q477 866 444.5 744.5 Q412 623 412 491 Q412 210 526 210 Q600 210 659 305 Q718 400 746.5 557 Q775 714 775 784 Z " />
<glyph glyph-name="A" unicode="A" horiz-adv-x="1229" d="M1034 0 L896 382 L333 382 L196 0 L0 0 L510 1349 L727 1349 L1228 0 L1034 0 Z M616 1205 L604 1166 L535 954 L384 531 L847 531 L674 1031 L616 1205 Z " />
<glyph glyph-name="B" unicode="B" horiz-adv-x="1229" d="M1152 380 Q1152 200 1015 100 Q878 0 634 0 L162 0 L162 1349 L574 1349 Q1070 1349 1070 1022 Q1070 900 998 818 Q926 736 802 711 Q969 693 1060.5 604 Q1152 515 1152 380 Z M878 998 Q878 1105 802.5 1150.5 Q727 1196 576 1196 L353 1196 L353 780 L578 780 Q878 780 878 998 Z M959 397 Q959 511 870 571 Q781 631 605 631 L353 631 L353 153 L619 153 Q794 153 876.5 213.5 Q959 274 959 397 Z " />
<glyph glyph-name="C" unicode="C" horiz-adv-x="1229" d="M314 681 Q314 408 399.5 271.5 Q485 135 661 135 Q762 135 844 203.5 Q926 272 983 417 L1142 352 Q993 -20 659 -20 Q396 -20 254.5 161 Q113 342 113 681 Q113 1370 649 1370 Q988 1370 1115 1035 L947 970 Q910 1083 831.5 1148.5 Q753 1214 650 1214 Q479 1214 396.5 1085 Q314 956 314 681 Z " />
<glyph glyph-name="D" unicode="D" horiz-adv-x="1229" d="M1125 688 Q1125 357 971.5 178.5 Q818 0 532 0 L162 0 L162 1349 L473 1349 Q802 1349 963.5 1184.5 Q1125 1020 1125 688 Z M933 688 Q933 952 823 1072.5 Q713 1193 474 1193 L353 1193 L353 156 L515 156 Q727 156 830 289 Q933 422 933 688 Z " />
<glyph glyph-name="E" unicode="E" horiz-adv-x="1229" d="M162 0 L162 1349 L1081 1349 L1081 1193 L353 1193 L353 771 L1021 771 L1021 617 L353 617 L353 156 L1122 156 L1122 0 L162 0 Z " />
<glyph glyph-name="F" unicode="F" horiz-adv-x="1229" d="M385 1193 L385 699 L1061 699 L1061 541 L385 541 L385 0 L194 0 L194 1349 L1085 1349 L1085 1193 L385 1193 Z " />
<glyph glyph-name="G" unicode="G" horiz-adv-x="1229" d="M1101 133 Q872 -20 639 -20 Q389 -20 251 165.5 Q113 351 113 681 Q113 1028 245 1199 Q377 1370 642 1370 Q988 1370 1103 1039 L932 983 Q852 1214 644 1214 Q475 1214 394.5 1088 Q314 962 314 681 Q314 135 655 135 Q723 135 796 156 Q869 177 915 209 L915 545 L622 545 L622 705 L1101 705 L1101 133 Z " />
<glyph glyph-name="H" unicode="H" horiz-adv-x="1229" d="M875 0 L875 623 L353 623 L353 0 L162 0 L162 1349 L353 1349 L353 783 L875 783 L875 1349 L1066 1349 L1066 0 L875 0 Z " />
<glyph glyph-name="I" unicode="I" horiz-adv-x="1229" d="M202 1349 L1025 1349 L1025 1193 L709 1193 L709 156 L1025 156 L1025 0 L202 0 L202 156 L518 156 L518 1193 L202 1193 L202 1349 Z " />
<glyph glyph-name="J" unicode="J" horiz-adv-x="1229" d="M986 420 Q986 211 881 95.5 Q776 -20 586 -20 Q415 -20 313 69 Q211 158 176 350 L363 381 Q381 263 439.5 199 Q498 135 587 135 Q796 135 796 416 L796 1193 L485 1193 L485 1349 L986 1349 L986 420 Z " />
<glyph glyph-name="K" unicode="K" horiz-adv-x="1229" d="M1003 0 L516 638 L353 469 L353 0 L162 0 L162 1349 L353 1349 L353 676 L925 1349 L1150 1349 L646 777 L1227 0 L1003 0 Z " />
<glyph glyph-name="L" unicode="L" horiz-adv-x="1229" d="M237 0 L237 1349 L428 1349 L428 156 L1100 156 L1100 0 L237 0 Z " />
<glyph glyph-name="M" unicode="M" horiz-adv-x="1229" d="M937 0 L937 868 Q937 1003 940 1069 L943 1169 Q879 963 848 878 L684 440 L547 440 L381 878 Q363 924 285 1169 L289 868 L289 0 L129 0 L129 1349 L366 1349 L551 860 Q572 807 619 629 L645 719 L689 859 L874 1349 L1099 1349 L1099 0 L937 0 Z " />
<glyph glyph-name="N" unicode="N" horiz-adv-x="1229" d="M836 0 L316 1130 Q332 958 332 876 L332 0 L162 0 L162 1349 L384 1349 L912 211 Q894 355 894 485 L894 1349 L1066 1349 L1066 0 L836 0 Z " />
<glyph glyph-name="O" unicode="O" horiz-adv-x="1229" d="M1126 681 Q1126 344 993.5 162 Q861 -20 613 -20 Q364 -20 233 159 Q102 338 102 681 Q102 1018 232 1194 Q362 1370 615 1370 Q862 1370 994 1196.5 Q1126 1023 1126 681 Z M925 681 Q925 1214 615 1214 Q303 1214 303 681 Q303 411 382 273 Q461 135 614 135 Q777 135 851 275 Q925 415 925 681 Z " />
<glyph glyph-name="P" unicode="P" horiz-adv-x="1229" d="M1119 945 Q1119 820 1059.5 722 Q1000 624 889.5 569 Q779 514 634 514 L353 514 L353 0 L162 0 L162 1349 L622 1349 Q860 1349 989.5 1242.5 Q1119 1136 1119 945 Z M927 942 Q927 1196 599 1196 L353 1196 L353 665 L607 665 Q756 665 841.5 738 Q927 811 927 942 Z " />
<glyph glyph-name="Q" unicode="Q" horiz-adv-x="1229" d="M1126 681 Q1126 391 1027.5 215.5 Q929 40 746 -4 Q787 -130 854 -187 Q921 -244 1022 -244 Q1077 -244 1137 -231 L1137 -365 Q1044 -387 959 -387 Q809 -387 711.5 -302.5 Q614 -218 551 -16 Q332 6 217 183.5 Q102 361 102 681 Q102 1018 232 1194 Q362 1370 615 1370 Q862 1370 994 1196.5 Q1126 1023 1126 681 Z M925 681 Q925 1214 615 1214 Q303 1214 303 681 Q303 411 382 273 Q461 135 614 135 Q777 135 851 275 Q925 415 925 681 Z " />
<glyph glyph-name="R" unicode="R" horiz-adv-x="1229" d="M957 0 L591 575 L353 575 L353 0 L162 0 L162 1349 L644 1349 Q877 1349 999 1252.5 Q1121 1156 1121 976 Q1121 827 1027.5 725 Q934 623 777 597 L1177 0 L957 0 Z M929 973 Q929 1196 625 1196 L353 1196 L353 726 L633 726 Q776 726 852.5 790 Q929 854 929 973 Z " />
<glyph glyph-name="S" unicode="S" horiz-adv-x="1229" d="M1128 370 Q1128 186 993.5 83 Q859 -20 610 -20 Q153 -20 79 338 L264 375 Q292 246 380 187.5 Q468 129 615 129 Q774 129 856.5 191 Q939 253 939 367 Q939 437 906.5 481 Q874 525 821 553 Q768 581 701.5 598.5 Q635 616 567 633 Q406 675 337.5 708 Q269 741 228 783.5 Q187 826 166 881 Q145 936 145 1010 Q145 1183 266.5 1276.5 Q388 1370 615 1370 Q827 1370 939 1296 Q1051 1222 1095 1046 L907 1013 Q883 1125 811 1175.5 Q739 1226 614 1226 Q331 1226 331 1013 Q331 953 357.5 915.5 Q384 878 429.5 853.5 Q475 829 535.5 813 Q596 797 665 779 Q804 744 865 720.5 Q926 697 973.5 667 Q1021 637 1055 596 Q1089 555 1108.5 500 Q1128 445 1128 370 Z " />
<glyph glyph-name="T" unicode="T" horiz-adv-x="1229" d="M709 1193 L709 0 L519 0 L519 1193 L76 1193 L76 1349 L1152 1349 L1152 1193 L709 1193 Z " />
<glyph glyph-name="U" unicode="U" horiz-adv-x="1229" d="M1085 490 Q1085 223 971 101.5 Q857 -20 605 -20 Q361 -20 251.5 97.5 Q142 215 142 472 L142 1349 L333 1349 L333 498 Q333 294 391.5 214.5 Q450 135 604 135 Q765 135 830 217 Q895 299 895 511 L895 1349 L1085 1349 L1085 490 Z " />
<glyph glyph-name="V" unicode="V" horiz-adv-x="1229" d="M713 0 L515 0 L10 1349 L211 1349 L531 447 Q562 361 615 168 Q655 317 699 447 L1017 1349 L1218 1349 L713 0 Z " />
<glyph glyph-name="W" unicode="W" horiz-adv-x="1229" d="M1018 0 L810 0 Q736 276 697.5 420 Q659 564 616 756 Q587 631 562.5 530 Q538 429 419 0 L211 0 L0 1349 L189 1349 L298 514 Q314 383 331 168 Q363 306 384.5 396 Q406 486 528 931 L703 931 Q772 678 811.5 533 Q851 388 900 168 L935 514 L1039 1349 L1228 1349 L1018 0 Z " />
<glyph glyph-name="X" unicode="X" horiz-adv-x="1229" d="M614 836 L947 1349 L1152 1349 L717 705 L1193 0 L988 0 L614 573 L241 0 L36 0 L512 705 L77 1349 L282 1349 L614 836 Z " />
<glyph glyph-name="Y" unicode="Y" horiz-adv-x="1229" d="M708 584 L708 0 L520 0 L520 584 L36 1349 L241 1349 L615 738 L987 1349 L1192 1349 L708 584 Z " />
<glyph glyph-name="Z" unicode="Z" horiz-adv-x="1229" d="M1155 0 L73 0 L73 143 L891 1193 L146 1193 L146 1349 L1108 1349 L1108 1210 L290 156 L1155 156 L1155 0 Z " />
<glyph glyph-name="bracketleft" unicode="&#x5b;" horiz-adv-x="1229" d="M410 -425 L410 1484 L957 1484 L957 1345 L590 1345 L590 -286 L957 -286 L957 -425 L410 -425 Z " />
<glyph glyph-name="backslash" unicode="&#x5c;" horiz-adv-x="1229" d="M932 -20 L115 1484 L293 1484 L1114 -20 L932 -20 Z " />
<glyph glyph-name="bracketright" unicode="&#x5d;" horiz-adv-x="1229" d="M270 -425 L270 -286 L637 -286 L637 1345 L270 1345 L270 1484 L817 1484 L817 -425 L270 -425 Z " />
<glyph glyph-name="asciicircum" unicode="&#x5e;" horiz-adv-x="1229" d="M940 442 L611 1245 L285 442 L133 442 L511 1349 L714 1349 L1094 442 L940 442 Z " />
<glyph glyph-name="underscore" unicode="&#x5f;" horiz-adv-x="1229" d="M-5 -220 L-5 -124 L1233 -124 L1233 -220 L-5 -220 Z " />
<glyph glyph-name="grave" unicode="&#x60;" horiz-adv-x="1229" d="M702 1201 L402 1431 L402 1460 L599 1460 L826 1221 L826 1201 L702 1201 Z " />
<glyph glyph-name="a" unicode="a" horiz-adv-x="1229" d="M1101 111 Q1127 111 1160 118 L1160 6 Q1092 -10 1021 -10 Q921 -10 875.5 42.5 Q830 95 824 207 L818 207 Q753 86 664.5 33 Q576 -20 446 -20 Q288 -20 208 66 Q128 152 128 302 Q128 651 582 656 L818 660 L818 719 Q818 850 765 907.5 Q712 965 596 965 Q478 965 426 923 Q374 881 364 793 L176 810 Q222 1102 599 1102 Q799 1102 899.5 1008.5 Q1000 915 1000 738 L1000 272 Q1000 192 1021 151.5 Q1042 111 1101 111 Z M492 117 Q588 117 662 163 Q736 209 777 286 Q818 363 818 445 L818 534 L628 530 Q510 528 448 504 Q386 480 351.5 430.5 Q317 381 317 299 Q317 217 361.5 167 Q406 117 492 117 Z " />
<glyph glyph-name="b" unicode="b" horiz-adv-x="1229" d="M1090 546 Q1090 262 988.5 121 Q887 -20 698 -20 Q454 -20 364 164 L362 164 Q362 116 358.5 64 Q355 12 353 0 L179 0 Q185 54 185 223 L185 1484 L365 1484 L365 1061 Q365 996 361 904 L365 904 Q456 1104 699 1104 Q1090 1104 1090 546 Z M904 540 Q904 764 842.5 864.5 Q781 965 650 965 Q501 965 433 855.5 Q365 746 365 524 Q365 315 431 214 Q497 113 648 113 Q783 113 843.5 217.5 Q904 322 904 540 Z " />
<glyph glyph-name="c" unicode="c" horiz-adv-x="1229" d="M130 542 Q130 812 259 957 Q388 1102 632 1102 Q814 1102 932 1014.5 Q1050 927 1078 779 L886 765 Q870 856 806 908.5 Q742 961 624 961 Q466 961 392.5 863 Q319 765 319 546 Q319 324 392.5 221.5 Q466 119 623 119 Q731 119 802 172 Q873 225 890 334 L1080 322 Q1067 226 1007.5 147.5 Q948 69 850 24.5 Q752 -20 631 -20 Q386 -20 258 124 Q130 268 130 542 Z " />
<glyph glyph-name="d" unicode="d" horiz-adv-x="1229" d="M862 174 Q813 69 732 21.5 Q651 -26 530 -26 Q328 -26 233 113 Q138 252 138 532 Q138 1098 530 1098 Q651 1098 732.5 1055 Q814 1012 863 914 L865 914 L863 1065 L863 1484 L1043 1484 L1043 223 Q1043 54 1049 0 L877 0 Q873 15 870 73 Q867 131 867 174 L862 174 Z M324 538 Q324 316 383.5 214.5 Q443 113 577 113 Q723 113 793 218.5 Q863 324 863 554 Q863 769 795.5 867 Q728 965 579 965 Q444 965 384 862 Q324 759 324 538 Z " />
<glyph glyph-name="e" unicode="e" horiz-adv-x="1229" d="M322 503 Q322 321 402.5 218 Q483 115 623 115 Q726 115 803.5 159.5 Q881 204 907 281 L1065 236 Q1021 112 903.5 46 Q786 -20 623 -20 Q387 -20 260 127 Q133 274 133 548 Q133 815 257.5 958.5 Q382 1102 617 1102 Q852 1102 973 959 Q1094 816 1094 527 L1094 503 L322 503 Z M619 969 Q485 969 407 881.5 Q329 794 324 641 L908 641 Q880 969 619 969 Z " />
<glyph glyph-name="f" unicode="f" horiz-adv-x="1229" d="M580 940 L580 0 L400 0 L400 940 L138 940 L138 1082 L400 1082 L400 1107 Q400 1312 496.5 1398 Q593 1484 818 1484 Q890 1484 973.5 1477.5 Q1057 1471 1099 1463 L1099 1318 Q1069 1323 977.5 1329 Q886 1335 839 1335 Q735 1335 682 1312 Q629 1289 604.5 1237 Q580 1185 580 1092 L580 1082 L1071 1082 L1071 940 L580 940 Z " />
<glyph glyph-name="g" unicode="g" horiz-adv-x="1229" d="M615 -424 Q447 -424 345 -355 Q243 -286 215 -157 L399 -132 Q416 -207 472.5 -247.5 Q529 -288 621 -288 Q869 -288 869 27 L869 221 L867 221 Q818 118 731 65 Q644 12 524 12 Q326 12 234.5 141.5 Q143 271 143 549 Q143 832 241 965.5 Q339 1099 543 1099 Q656 1099 739.5 1046.5 Q823 994 868 897 L871 897 Q871 927 875 998.5 Q879 1070 883 1082 L1054 1082 Q1048 1028 1048 858 L1048 32 Q1048 -195 942 -309.5 Q836 -424 615 -424 Z M869 551 Q869 744 794 854.5 Q719 965 588 965 Q451 965 390 869.5 Q329 774 329 551 Q329 400 354.5 312.5 Q380 225 434 185 Q488 145 585 145 Q670 145 734.5 192.5 Q799 240 834 331.5 Q869 423 869 551 Z " />
<glyph glyph-name="h" unicode="h" horiz-adv-x="1229" d="M185 1484 L366 1484 L366 1094 Q366 1035 357 897 L360 897 Q465 1102 699 1102 Q1049 1102 1049 721 L1049 0 L868 0 L868 695 Q868 831 815.5 897 Q763 963 648 963 Q524 963 444.5 872.5 Q365 782 365 627 L365 0 L185 0 L185 1484 Z " />
<glyph glyph-name="i" unicode="i" horiz-adv-x="1229" d="M745 142 L1125 142 L1125 0 L143 0 L143 142 L565 142 L565 940 L246 940 L246 1082 L745 1082 L745 142 Z M545 1292 L545 1484 L745 1484 L745 1292 L545 1292 Z " />
<glyph glyph-name="j" unicode="j" horiz-adv-x="1229" d="M836 -28 Q836 -215 724 -320 Q612 -425 405 -425 Q326 -425 244 -412 Q162 -399 117 -382 L117 -242 Q267 -276 390 -276 Q518 -276 587 -210 Q656 -144 656 -25 L656 940 L249 940 L249 1082 L836 1082 L836 -28 Z M636 1292 L636 1484 L836 1484 L836 1292 L636 1292 Z " />
<glyph glyph-name="k" unicode="k" horiz-adv-x="1229" d="M914 0 L548 499 L416 401 L416 0 L236 0 L236 1484 L416 1484 L416 557 L891 1082 L1102 1082 L663 617 L1125 0 L914 0 Z " />
<glyph glyph-name="l" unicode="l" horiz-adv-x="1229" d="M736 142 L1116 142 L1116 0 L134 0 L134 142 L556 142 L556 1342 L267 1342 L267 1484 L736 1484 L736 142 Z " />
<glyph glyph-name="m" unicode="m" horiz-adv-x="1229" d="M531 0 L531 686 Q531 840 506.5 901.5 Q482 963 417 963 Q353 963 313.5 867 Q274 771 274 607 L274 0 L105 0 L105 851 Q105 1040 99 1082 L248 1082 L254 955 L254 907 L256 907 Q290 1009 342 1055.5 Q394 1102 472 1102 Q560 1102 603.5 1054 Q647 1006 666 906 L668 906 Q708 1012 763.5 1057 Q819 1102 904 1102 Q1022 1102 1073 1016 Q1124 930 1124 721 L1124 0 L956 0 L956 686 Q956 840 931.5 901.5 Q907 963 842 963 Q776 963 737.5 879 Q699 795 699 627 L699 0 L531 0 Z " />
<glyph glyph-name="n" unicode="n" horiz-adv-x="1229" d="M868 0 L868 695 Q868 831 815.5 897 Q763 963 648 963 Q524 963 444.5 872.5 Q365 782 365 627 L365 0 L185 0 L185 851 Q185 1040 179 1082 L349 1082 Q350 1077 351 1055 Q352 1033 353.5 1004.5 Q355 976 357 897 L360 897 Q465 1102 706 1102 Q879 1102 964 1008.5 Q1049 915 1049 721 L1049 0 L868 0 Z " />
<glyph glyph-name="o" unicode="o" horiz-adv-x="1229" d="M1097 542 Q1097 269 971.5 124.5 Q846 -20 609 -20 Q377 -20 253.5 126 Q130 272 130 542 Q130 821 256.5 961.5 Q383 1102 615 1102 Q859 1102 978 963 Q1097 824 1097 542 Z M908 542 Q908 757 839.5 863 Q771 969 618 969 Q463 969 391 861 Q319 753 319 542 Q319 332 391 222.5 Q463 113 607 113 Q766 113 837 220 Q908 327 908 542 Z " />
<glyph glyph-name="p" unicode="p" horiz-adv-x="1229" d="M1090 546 Q1090 -20 698 -20 Q452 -20 367 164 L362 164 Q366 156 366 -2 L366 -425 L185 -425 L185 858 Q185 1028 179 1082 L354 1082 Q355 1078 357 1052.5 Q359 1027 361.5 977.5 Q364 928 364 904 L368 904 Q418 1009 495.5 1056.5 Q573 1104 698 1104 Q896 1104 993 967.5 Q1090 831 1090 546 Z M904 546 Q904 772 843 868.5 Q782 965 651 965 Q500 965 433 855.5 Q366 746 366 524 Q366 311 433 212 Q500 113 649 113 Q782 113 843 214 Q904 315 904 546 Z " />
<glyph glyph-name="q" unicode="q" horiz-adv-x="1229" d="M529 1098 Q658 1098 735 1053.5 Q812 1009 861 914 L863 914 Q863 944 866.5 1007.5 Q870 1071 875 1083 L1050 1083 Q1044 1029 1044 801 L1044 -425 L863 -425 L863 14 L867 182 L865 182 Q812 75 733 24.5 Q654 -26 530 -26 Q328 -26 233 114.5 Q138 255 138 532 Q138 1098 529 1098 Z M863 554 Q863 766 795 865.5 Q727 965 579 965 Q445 965 384.5 863 Q324 761 324 538 Q324 317 385 215 Q446 113 577 113 Q724 113 793.5 222 Q863 331 863 554 Z " />
<glyph glyph-name="r" unicode="r" horiz-adv-x="1229" d="M1045 918 Q933 937 833 937 Q672 937 573 816 Q474 695 474 508 L474 0 L294 0 L294 701 Q294 777 280.5 880 Q267 983 242 1082 L413 1082 Q453 944 461 832 L466 832 Q516 944 564 996.5 Q612 1049 678 1075.5 Q744 1102 839 1102 Q943 1102 1045 1085 L1045 918 Z " />
<glyph glyph-name="s" unicode="s" horiz-adv-x="1229" d="M1060 309 Q1060 155 943.5 67.5 Q827 -20 621 -20 Q415 -20 307.5 44.5 Q200 109 167 248 L326 279 Q345 193 407.5 153.5 Q470 114 621 114 Q891 114 891 285 Q891 349 842 388.5 Q793 428 692 453 Q428 518 357 555 Q286 592 248 647.5 Q210 703 210 786 Q210 933 316 1016 Q422 1099 623 1099 Q799 1099 904 1032.5 Q1009 966 1035 839 L873 819 Q862 891 802 928 Q742 965 623 965 Q378 965 378 814 Q378 754 419.5 718 Q461 682 553 660 L672 629 Q835 589 906.5 550 Q978 511 1019 452.5 Q1060 394 1060 309 Z " />
<glyph glyph-name="t" unicode="t" horiz-adv-x="1229" d="M190 940 L190 1082 L360 1082 L418 1364 L538 1364 L538 1082 L970 1082 L970 940 L538 940 L538 288 Q538 209 580.5 171 Q623 133 720 133 Q854 133 1017 167 L1017 30 Q848 -16 682 -16 Q520 -16 439 52.5 Q358 121 358 269 L358 940 L190 940 Z " />
<glyph glyph-name="u" unicode="u" horiz-adv-x="1229" d="M365 1082 L365 396 Q365 240 414 179.5 Q463 119 589 119 Q718 119 793 207 Q868 295 868 455 L868 1082 L1049 1082 L1049 231 Q1049 42 1055 0 L885 0 Q884 5 883 27 Q882 49 880.5 77.5 Q879 106 877 185 L874 185 Q812 73 730.5 26.5 Q649 -20 528 -20 Q350 -20 267.5 68.5 Q185 157 185 361 L185 1082 L365 1082 Z " />
<glyph glyph-name="v" unicode="v" horiz-adv-x="1229" d="M715 0 L502 0 L69 1082 L271 1082 L539 378 L556 325 L608 141 L643 258 L682 376 L958 1082 L1159 1082 L715 0 Z " />
<glyph glyph-name="w" unicode="w" horiz-adv-x="1229" d="M1018 0 L814 0 L671 471 L614 673 L575 534 L407 0 L204 0 L21 1082 L199 1082 L292 475 Q325 211 325 149 Q364 309 383 363 L518 787 L711 787 L841 362 Q873 257 896 149 Q896 179 900 224 Q904 269 910 316.5 Q916 364 922 407 Q928 450 931 475 L1032 1082 L1208 1082 L1018 0 Z " />
<glyph glyph-name="x" unicode="x" horiz-adv-x="1229" d="M932 0 L611 444 L288 0 L94 0 L509 556 L112 1082 L311 1082 L611 661 L909 1082 L1110 1082 L713 558 L1133 0 L932 0 Z " />
<glyph glyph-name="y" unicode="y" horiz-adv-x="1229" d="M292 -425 Q218 -425 168 -414 L168 -279 Q206 -285 252 -285 Q331 -285 400.5 -226 Q470 -167 518 -38 L536 11 L66 1082 L258 1082 L522 440 Q613 216 620 186 L661 296 L971 1082 L1161 1082 L705 0 Q616 -235 520.5 -330 Q425 -425 292 -425 Z " />
<glyph glyph-name="z" unicode="z" horiz-adv-x="1229" d="M147 0 L147 137 L828 943 L187 943 L187 1082 L1031 1082 L1031 945 L349 139 L1068 139 L1068 0 L147 0 Z " />
<glyph glyph-name="braceleft" unicode="&#x7b;" horiz-adv-x="1229" d="M796 -425 Q666 -425 584 -340.5 Q502 -256 502 -122 L502 229 Q502 336 429 396 Q356 456 227 461 L227 598 Q357 603 429.5 664 Q502 725 502 829 L502 1181 Q502 1318 583 1401 Q664 1484 796 1484 L1061 1484 L1061 1345 L848 1345 Q757 1345 717 1301 Q677 1257 677 1150 L677 804 Q677 706 613 631.5 Q549 557 446 532 L446 530 Q548 506 612.5 432.5 Q677 359 677 256 L677 -91 Q677 -197 717 -241.5 Q757 -286 848 -286 L1061 -286 L1061 -425 L796 -425 Z " />
<glyph glyph-name="bar" unicode="&#x7c;" horiz-adv-x="1229" d="M531 -425 L531 1484 L697 1484 L697 -425 L531 -425 Z " />
<glyph glyph-name="braceright" unicode="&#x7d;" horiz-adv-x="1229" d="M167 -425 L167 -286 L380 -286 Q471 -286 511.5 -241.5 Q552 -197 552 -91 L552 256 Q552 358 616 432 Q680 506 782 530 L782 532 Q680 557 616 632 Q552 707 552 804 L552 1150 Q552 1255 512 1300 Q472 1345 380 1345 L167 1345 L167 1484 L432 1484 Q565 1484 645.5 1401 Q726 1318 726 1181 L726 829 Q726 724 799 663.5 Q872 603 1001 598 L1001 461 Q871 456 798.5 395.5 Q726 335 726 229 L726 -122 Q726 -257 644 -341 Q562 -425 432 -425 L167 -425 Z " />
<glyph glyph-name="asciitilde" unicode="&#x7e;" horiz-adv-x="1229" d="M371 807 Q473 807 606 761 Q753 710 796.5 700 Q840 690 876 690 Q1006 690 1120 782 L1120 633 Q1060 591 1002.5 572 Q945 553 860 553 Q791 553 718.5 575 Q646 597 573 623 Q444 668 356 668 Q289 668 231 647.5 Q173 627 108 580 L108 723 Q219 807 371 807 Z " />
<glyph glyph-name="exclamdown" unicode="&#xa1;" horiz-adv-x="1229" d="M539 685 L687 685 L711 -266 L515 -266 L539 685 Z M713 1082 L713 881 L519 881 L519 1082 L713 1082 Z " />
<glyph glyph-name="cent" unicode="&#xa2;" horiz-adv-x="1229" d="M635 269 Q748 269 821.5 325 Q895 381 912 486 L1094 474 Q1073 332 966 240 Q859 148 698 134 L698 -61 L570 -61 L570 134 Q362 149 247.5 286.5 Q133 424 133 656 Q133 896 249 1036.5 Q365 1177 570 1195 L570 1379 L698 1379 L698 1195 Q855 1182 957 1097.5 Q1059 1013 1088 873 L903 859 Q886 950 820.5 1004 Q755 1058 633 1058 Q477 1058 396.5 957.5 Q316 857 316 668 Q316 470 400 369.5 Q484 269 635 269 Z " />
<glyph glyph-name="sterling" unicode="&#xa3;" horiz-adv-x="1229" d="M1171 240 Q1121 0 937 0 L56 0 L56 154 Q143 198 178.5 237 Q214 276 232.5 332.5 Q251 389 251 471 L251 612 L65 612 L65 754 L251 754 L251 974 Q251 1168 359.5 1269 Q468 1370 673 1370 Q826 1370 928 1309.5 Q1030 1249 1064 1140 L890 1083 Q868 1146 809.5 1178 Q751 1210 673 1210 Q551 1210 491 1152.5 Q431 1095 431 970 L431 754 L839 754 L839 612 L431 612 L431 473 Q431 345 395 273.5 Q359 202 276 158 L876 158 Q935 158 963.5 184.5 Q992 211 1003 264 L1171 240 Z " />
<glyph glyph-name="currency" unicode="&#xa4;" horiz-adv-x="1229" d="M182 684 Q182 822 260 936 L160 1036 L264 1139 L363 1038 Q477 1120 617 1120 Q754 1120 868 1040 L965 1137 L1069 1032 L973 936 Q1053 819 1053 684 Q1053 546 971 432 L1071 332 L969 227 L868 328 Q754 250 617 250 Q474 250 365 330 L260 225 L158 330 L260 432 Q182 546 182 684 Z M336 686 Q336 572 418 489 Q500 406 617 406 Q731 406 814 487 Q897 568 897 686 Q897 802 814.5 884.5 Q732 967 617 967 Q500 967 418 883.5 Q336 800 336 686 Z " />
<glyph glyph-name="yen" unicode="&#xa5;" horiz-adv-x="1229" d="M764 679 L1085 679 L1085 537 L702 537 L702 400 L1085 400 L1085 256 L702 256 L702 0 L524 0 L524 256 L143 256 L143 400 L524 400 L526 537 L143 537 L143 679 L463 679 L52 1349 L251 1349 L612 732 L977 1349 L1176 1349 L764 679 Z " />
<glyph glyph-name="brokenbar" unicode="&#xa6;" horiz-adv-x="1229" d="M531 676 L531 1454 L697 1454 L697 676 L531 676 Z M531 -455 L531 324 L697 324 L697 -455 L531 -455 Z " />
<glyph glyph-name="section" unicode="&#xa7;" horiz-adv-x="1229" d="M632 1484 Q805 1484 911.5 1417.5 Q1018 1351 1045 1224 L884 1204 Q870 1283 805.5 1323.5 Q741 1364 632 1364 Q507 1364 442.5 1319.5 Q378 1275 378 1204 Q378 1156 408 1121 Q438 1086 493.5 1060 Q549 1034 679 1003 Q826 968 904 926.5 Q982 885 1025 826 Q1068 767 1068 686 Q1068 587 1008.5 512 Q949 437 849 413 Q961 365 1011.5 300.5 Q1062 236 1062 145 Q1062 -3 946.5 -87.5 Q831 -172 621 -172 Q412 -172 302.5 -105.5 Q193 -39 159 100 L320 131 Q340 38 411.5 -7 Q483 -52 621 -52 Q752 -52 827 -4 Q902 44 902 129 Q902 185 870 224 Q838 263 779.5 291 Q721 319 562 358 Q367 403 282 481 Q197 559 197 671 Q197 760 258.5 834 Q320 908 425 938 Q329 970 273.5 1037 Q218 1104 218 1190 Q218 1329 323.5 1406.5 Q429 1484 632 1484 Z M910 663 Q910 735 840.5 787 Q771 839 595 880 Q486 874 421.5 821 Q357 768 357 684 Q357 635 386.5 598.5 Q416 562 471.5 535 Q527 508 656 475 Q775 477 842.5 527.5 Q910 578 910 663 Z " />
<glyph glyph-name="dieresis" unicode="&#xa8;" horiz-adv-x="1229" d="M729 1219 L729 1403 L892 1403 L892 1219 L729 1219 Z M335 1219 L335 1403 L500 1403 L500 1219 L335 1219 Z " />
<glyph glyph-name="copyright" unicode="&#xa9;" horiz-adv-x="1229" d="M398 763 Q398 610 457 523.5 Q516 437 622 437 Q687 437 735 474 Q783 511 818 593 L933 558 Q881 440 804.5 386.5 Q728 333 622 333 Q454 333 361.5 446.5 Q269 560 269 763 Q269 965 358 1076 Q447 1187 615 1187 Q832 1187 918 978 L804 945 Q778 1012 729.5 1047 Q681 1082 617 1082 Q510 1082 454 1001.5 Q398 921 398 763 Z M1197 761 Q1197 534 1126 370.5 Q1055 207 923 122.5 Q791 38 614 38 Q437 38 305.5 123.5 Q174 209 102.5 372 Q31 535 31 761 Q31 987 102 1150 Q173 1313 305.5 1398.5 Q438 1484 614 1484 Q790 1484 922.5 1399 Q1055 1314 1126 1151.5 Q1197 989 1197 761 Z M1105 761 Q1105 1062 975 1225.5 Q845 1389 614 1389 Q463 1389 353.5 1316.5 Q244 1244 185 1102.5 Q126 961 126 761 Q126 462 253.5 297 Q381 132 614 132 Q847 132 976 296 Q1105 460 1105 761 Z " />
<glyph glyph-name="ordfeminine" unicode="&#xaa;" horiz-adv-x="1229" d="M206 870 Q206 987 296 1048.5 Q386 1110 564 1112 L755 1116 L755 1159 Q755 1341 575 1341 Q491 1341 445 1307 Q399 1273 388 1196 L239 1206 Q257 1312 345 1372 Q433 1432 579 1432 Q732 1432 815 1365 Q898 1298 898 1165 L898 874 Q898 816 913.5 786 Q929 756 972 756 Q997 756 1021 764 L1021 670 Q971 657 919 657 Q765 657 759 817 L755 817 Q712 740 639 695.5 Q566 651 464 651 Q343 651 274.5 708 Q206 765 206 870 Z M353 890 Q353 826 394 789 Q435 752 505 752 Q574 752 631.5 786 Q689 820 722 874.5 Q755 929 755 983 L755 1034 L601 1030 Q471 1027 412 993.5 Q353 960 353 890 Z " />
<glyph glyph-name="guillemotleft" unicode="&#xab;" horiz-adv-x="1229" d="M940 141 L602 506 L602 569 L940 940 L1118 940 L1118 909 L780 537 L1120 170 L1120 141 L940 141 Z M463 141 L127 506 L127 569 L463 940 L640 940 L640 909 L305 537 L642 170 L642 141 L463 141 Z " />
<glyph glyph-name="logicalnot" unicode="&#xac;" horiz-adv-x="1229" d="M966 180 L966 608 L116 608 L116 754 L1111 754 L1111 180 L966 180 Z " />
<glyph glyph-name="registered" unicode="&#xae;" horiz-adv-x="1229" d="M1197 761 Q1197 534 1126 370.5 Q1055 207 923 122.5 Q791 38 614 38 Q437 38 305.5 123.5 Q174 209 102.5 372 Q31 535 31 761 Q31 987 102 1150 Q173 1313 305.5 1398.5 Q438 1484 614 1484 Q790 1484 922.5 1399 Q1055 1314 1126 1151.5 Q1197 989 1197 761 Z M1105 761 Q1105 1062 975 1225.5 Q845 1389 614 1389 Q463 1389 353.5 1316.5 Q244 1244 185 1102.5 Q126 961 126 761 Q126 462 253.5 297 Q381 132 614 132 Q847 132 976 296 Q1105 460 1105 761 Z M815 343 L616 679 L455 679 L455 343 L328 343 L328 1174 L635 1174 Q777 1174 852.5 1111 Q928 1048 928 937 Q928 835 876 773.5 Q824 712 739 693 L960 343 L815 343 Z M801 935 Q801 1004 753.5 1040 Q706 1076 625 1076 L455 1076 L455 775 L637 775 Q717 775 759 817.5 Q801 860 801 935 Z " />
<glyph glyph-name="overscore" unicode="&#xaf;" horiz-adv-x="1229" d="M-5 1522 L-5 1618 L1233 1618 L1233 1522 L-5 1522 Z " />
<glyph glyph-name="degree" unicode="&#xb0;" horiz-adv-x="1229" d="M901 1085 Q901 966 816.5 883 Q732 800 614 800 Q496 800 411.5 884 Q327 968 327 1085 Q327 1202 410.5 1286 Q494 1370 614 1370 Q734 1370 817.5 1287 Q901 1204 901 1085 Z M792 1085 Q792 1161 740.5 1213 Q689 1265 614 1265 Q539 1265 487.5 1212 Q436 1159 436 1085 Q436 1011 488.5 958 Q541 905 614 905 Q688 905 740 957.5 Q792 1010 792 1085 Z " />
<glyph glyph-name="plusminus" unicode="&#xb1;" horiz-adv-x="1229" d="M687 680 L687 285 L540 285 L540 680 L116 680 L116 825 L540 825 L540 1219 L687 1219 L687 825 L1111 825 L1111 680 L687 680 Z M116 0 L116 145 L1111 145 L1111 0 L116 0 Z " />
<glyph glyph-name="twosuperior" unicode="&#xb2;" horiz-adv-x="1229" d="M314 563 L312 666 Q343 735 407 799 Q471 863 579 938 Q676 1004 720 1061 Q764 1118 764 1178 Q764 1240 728.5 1277.5 Q693 1315 619 1315 Q551 1315 507 1278.5 Q463 1242 455 1174 L322 1182 Q335 1290 417 1355.5 Q499 1421 625 1421 Q756 1421 828.5 1357.5 Q901 1294 901 1182 Q901 1107 854 1040 Q807 973 711 905 Q579 812 529 766 Q479 720 455 670 L914 670 L916 563 L314 563 Z " />
<glyph glyph-name="threesuperior" unicode="&#xb3;" horiz-adv-x="1229" d="M921 795 Q921 679 843.5 615 Q766 551 624 551 Q338 551 306 778 L442 791 Q460 655 624 655 Q784 655 784 803 Q784 940 595 940 L534 940 L534 1049 L591 1049 Q671 1049 717 1085 Q763 1121 763 1186 Q763 1246 726 1280.5 Q689 1315 618 1315 Q550 1315 508 1280 Q466 1245 460 1180 L325 1192 Q338 1301 416.5 1361 Q495 1421 622 1421 Q752 1421 826 1361.5 Q900 1302 900 1204 Q900 1129 857 1074 Q814 1019 724 999 L724 997 Q815 988 868 935.5 Q921 883 921 795 Z " />
<glyph glyph-name="acute" unicode="&#xb4;" horiz-adv-x="1229" d="M402 1201 L402 1221 L629 1460 L826 1460 L826 1431 L526 1201 L402 1201 Z " />
<glyph glyph-name="mu1" unicode="&#xb5;" horiz-adv-x="1229" d="M916 0 Q914 11 910 92 Q906 173 906 199 L902 199 Q796 -20 568 -20 Q486 -20 422 12 Q358 44 326 102 L322 102 Q326 59 326 -20 L326 -393 L144 -393 L144 1082 L326 1082 L326 438 Q326 121 590 121 Q721 121 809 217.5 Q897 314 897 465 L897 1082 L1078 1082 L1078 233 Q1078 42 1084 0 L916 0 Z " />
<glyph glyph-name="paragraph" unicode="&#xb6;" horiz-adv-x="1229" d="M951 1227 L951 -324 L819 -324 L819 1227 L622 1227 L622 -324 L489 -324 L489 634 Q321 634 224 726.5 Q127 819 127 989 Q127 1158 225.5 1253.5 Q324 1349 497 1349 L1080 1349 L1080 1227 L951 1227 Z " />
<glyph glyph-name="middot.001" unicode="&#xb7;" horiz-adv-x="1229" d="M496 420 L496 719 L731 719 L731 420 L496 420 Z " />
<glyph glyph-name="cedilla" unicode="&#xb8;" horiz-adv-x="1229" d="M483 -258 Q483 -444 209 -444 Q152 -444 119 -440 L119 -342 Q169 -348 205 -348 Q352 -348 352 -262 Q352 -222 321.5 -201 Q291 -180 219 -180 Q176 -180 162 -182 L227 0 L334 0 L295 -100 Q389 -103 436 -144.5 Q483 -186 483 -258 Z " />
<glyph glyph-name="onesuperior" unicode="&#xb9;" horiz-adv-x="1229" d="M291 563 L291 670 L556 670 L556 1280 Q531 1230 452 1197.5 Q373 1165 285 1165 L285 1274 Q384 1274 458.5 1310.5 Q533 1347 566 1410 L687 1410 L687 670 L923 670 L923 563 L291 563 Z " />
<glyph glyph-name="ordmasculine" unicode="&#xba;" horiz-adv-x="1229" d="M1002 1042 Q1002 859 899.5 755 Q797 651 611 651 Q429 651 327.5 758 Q226 865 226 1042 Q226 1224 329 1328 Q432 1432 615 1432 Q804 1432 903 1331.5 Q1002 1231 1002 1042 Z M853 1042 Q853 1193 793 1260 Q733 1327 619 1327 Q378 1327 378 1042 Q378 902 437 829 Q496 756 609 756 Q726 756 789.5 822.5 Q853 889 853 1042 Z " />
<glyph glyph-name="guillemotright" unicode="&#xbb;" horiz-adv-x="1229" d="M762 141 L584 141 L584 170 L922 537 L586 909 L586 940 L762 940 L1100 569 L1100 506 L762 141 Z M287 141 L107 141 L107 170 L445 537 L109 909 L109 940 L287 940 L622 569 L622 506 L287 141 Z " />
<glyph glyph-name="onequarter" unicode="&#xbc;" horiz-adv-x="1229" d="M63 589 L63 696 L198 696 L198 1209 Q178 1170 125 1142 Q72 1114 27 1114 L27 1233 Q77 1233 129 1264.5 Q181 1296 208 1349 L329 1349 L329 696 L445 696 L445 589 L63 589 Z M322 0 L204 0 L907 1349 L1022 1349 L322 0 Z M1107 162 L1107 1 L980 1 L980 162 L605 162 L605 261 L966 763 L1107 763 L1107 263 L1229 263 L1229 162 L1107 162 Z M981 635 Q947 584 715 263 L980 263 L980 584 L981 635 Z " />
<glyph glyph-name="onehalf" unicode="&#xbd;" horiz-adv-x="1229" d="M53 589 L53 696 L188 696 L188 1209 Q168 1170 115 1142 Q62 1114 17 1114 L17 1233 Q67 1233 119 1264.5 Q171 1296 198 1349 L319 1349 L319 696 L435 696 L435 589 L53 589 Z M306 0 L188 0 L891 1349 L1006 1349 L306 0 Z M678 1 L678 98 Q705 160 758.5 217 Q812 274 902 342 Q984 403 1019 451 Q1054 499 1054 552 Q1054 673 943 673 Q882 673 852.5 642 Q823 611 815 550 L685 555 Q698 657 767.5 715 Q837 773 948 773 Q1068 773 1128.5 717 Q1189 661 1189 558 Q1189 427 1029 307 Q912 218 874.5 182.5 Q837 147 820 108 L1200 108 L1200 1 L678 1 Z " />
<glyph glyph-name="threequarters" unicode="&#xbe;" horiz-adv-x="1229" d="M526 794 Q526 693 457 632 Q388 571 269 571 Q162 571 94 627 Q26 683 11 783 L147 796 Q156 736 188.5 705.5 Q221 675 269 675 Q323 675 356 705 Q389 735 389 800 Q389 920 240 920 L199 920 L199 1029 L236 1029 Q304 1029 336 1057.5 Q368 1086 368 1152 Q368 1205 341 1230 Q314 1255 273 1255 Q228 1255 195 1223.5 Q162 1192 156 1135 L21 1147 Q34 1247 101 1304 Q168 1361 273 1361 Q382 1361 443.5 1306 Q505 1251 505 1159 Q505 1093 471.5 1050.5 Q438 1008 369 982 L369 980 Q451 962 488.5 912 Q526 862 526 794 Z M347 0 L229 0 L932 1349 L1047 1349 L347 0 Z M1107 162 L1107 1 L980 1 L980 162 L605 162 L605 261 L966 763 L1107 763 L1107 263 L1229 263 L1229 162 L1107 162 Z M981 635 Q947 584 715 263 L980 263 L980 584 L981 635 Z " />
<glyph glyph-name="questiondown" unicode="&#xbf;" horiz-adv-x="1229" d="M153 79 Q153 152 175 209 Q197 266 238.5 314.5 Q280 363 372 430 Q482 509 517.5 546 Q553 583 573.5 626 Q594 669 595 724 L770 724 Q768 654 745.5 598.5 Q723 543 683.5 496.5 Q644 450 549 380 Q442 301 408.5 264 Q375 227 355 184.5 Q335 142 335 87 Q335 -22 414.5 -80.5 Q494 -139 630 -139 Q765 -139 849.5 -66 Q934 7 948 133 L1132 121 Q1106 -76 972.5 -182.5 Q839 -289 632 -289 Q409 -289 281 -192.5 Q153 -96 153 79 Z M778 1081 L778 880 L583 880 L583 1081 L778 1081 Z " />
<glyph glyph-name="Agrave" unicode="&#xc0;" horiz-adv-x="1229" d="M1034 0 L896 382 L333 382 L196 0 L0 0 L510 1349 L727 1349 L1228 0 L1034 0 Z M616 1205 L604 1166 L535 954 L384 531 L847 531 L674 1031 L616 1205 Z M609 1444 L309 1674 L309 1703 L506 1703 L733 1464 L733 1444 L609 1444 Z " />
<glyph glyph-name="Aacute" unicode="&#xc1;" horiz-adv-x="1229" d="M1034 0 L896 382 L333 382 L196 0 L0 0 L510 1349 L727 1349 L1228 0 L1034 0 Z M616 1205 L604 1166 L535 954 L384 531 L847 531 L674 1031 L616 1205 Z M495 1445 L495 1465 L722 1704 L919 1704 L919 1675 L619 1445 L495 1445 Z " />
<glyph glyph-name="Acircumflex" unicode="&#xc2;" horiz-adv-x="1229" d="M1034 0 L896 382 L333 382 L196 0 L0 0 L510 1349 L727 1349 L1228 0 L1034 0 Z M616 1205 L604 1166 L535 954 L384 531 L847 531 L674 1031 L616 1205 Z M945 1465 L945 1445 L840 1445 L621 1583 L619 1583 L387 1445 L283 1445 L283 1465 L537 1704 L701 1704 L945 1465 Z " />
<glyph glyph-name="Atilde" unicode="&#xc3;" horiz-adv-x="1229" d="M1034 0 L896 382 L333 382 L196 0 L0 0 L510 1349 L727 1349 L1228 0 L1034 0 Z M616 1205 L604 1166 L535 954 L384 531 L847 531 L674 1031 L616 1205 Z M770 1445 Q728 1445 686 1463.5 Q644 1482 604 1504.5 Q564 1527 525.5 1545.5 Q487 1564 452 1564 Q427 1564 412 1554.5 Q397 1545 387 1527 Q377 1509 366 1445 L255 1445 Q266 1541 289.5 1590 Q313 1639 354 1666 Q395 1693 458 1693 Q502 1693 544 1674.5 Q586 1656 626 1633.5 Q666 1611 703 1592.5 Q740 1574 773 1574 Q810 1574 830 1597.5 Q850 1621 860 1693 L972 1693 Q956 1555 906.5 1500 Q857 1445 770 1445 Z " />
<glyph glyph-name="Adieresis" unicode="&#xc4;" horiz-adv-x="1229" d="M1034 0 L896 382 L333 382 L196 0 L0 0 L510 1349 L727 1349 L1228 0 L1034 0 Z M616 1205 L604 1166 L535 954 L384 531 L847 531 L674 1031 L616 1205 Z M729 1445 L729 1629 L892 1629 L892 1445 L729 1445 Z M335 1445 L335 1629 L500 1629 L500 1445 L335 1445 Z " />
<glyph glyph-name="Aring" unicode="&#xc5;" horiz-adv-x="1229" d="M1034 0 L896 382 L333 382 L196 0 L0 0 L510 1349 L727 1349 L1228 0 L1034 0 Z M616 1205 L604 1166 L535 954 L384 531 L847 531 L674 1031 L616 1205 Z M859 1433 Q859 1346 793.5 1289.5 Q728 1233 617 1233 Q505 1233 440 1289.5 Q375 1346 375 1433 Q375 1522 441.5 1577 Q508 1632 617 1632 Q728 1632 793.5 1576.5 Q859 1521 859 1433 Z M738 1433 Q738 1470 705.5 1493 Q673 1516 617 1516 Q562 1516 528.5 1493 Q495 1470 495 1433 Q495 1395 528.5 1372 Q562 1349 617 1349 Q673 1349 705.5 1372 Q738 1395 738 1433 Z " />
<glyph glyph-name="AE" unicode="&#xc6;" horiz-adv-x="1229" d="M646 412 L311 412 L169 0 L1 0 L487 1349 L1154 1349 L1154 1197 L817 1197 L817 767 L1144 767 L1144 617 L817 617 L817 152 L1195 152 L1195 0 L646 0 L646 412 Z M646 1202 L573 1202 Q569 1186 530.5 1056 Q492 926 362 561 L646 561 L646 1202 Z " />
<glyph glyph-name="Ccedilla" unicode="&#xc7;" horiz-adv-x="1229" d="M314 681 Q314 408 399.5 271.5 Q485 135 661 135 Q762 135 844 203.5 Q926 272 983 417 L1142 352 Q993 -20 659 -20 Q396 -20 254.5 161 Q113 342 113 681 Q113 1370 649 1370 Q988 1370 1115 1035 L947 970 Q910 1083 831.5 1148.5 Q753 1214 650 1214 Q479 1214 396.5 1085 Q314 956 314 681 Z M837 -258 Q837 -444 563 -444 Q506 -444 473 -440 L473 -342 Q523 -348 559 -348 Q706 -348 706 -262 Q706 -222 675.5 -201 Q645 -180 573 -180 Q530 -180 516 -182 L581 0 L688 0 L649 -100 Q743 -103 790 -144.5 Q837 -186 837 -258 Z " />
<glyph glyph-name="Egrave" unicode="&#xc8;" horiz-adv-x="1229" d="M162 0 L162 1349 L1081 1349 L1081 1193 L353 1193 L353 771 L1021 771 L1021 617 L353 617 L353 156 L1122 156 L1122 0 L162 0 Z M631 1445 L331 1675 L331 1704 L528 1704 L755 1465 L755 1445 L631 1445 Z " />
<glyph glyph-name="Eacute" unicode="&#xc9;" horiz-adv-x="1229" d="M162 0 L162 1349 L1081 1349 L1081 1193 L353 1193 L353 771 L1021 771 L1021 617 L353 617 L353 156 L1122 156 L1122 0 L162 0 Z M493 1445 L493 1465 L720 1704 L917 1704 L917 1675 L617 1445 L493 1445 Z " />
<glyph glyph-name="Ecircumflex" unicode="&#xca;" horiz-adv-x="1229" d="M162 0 L162 1349 L1081 1349 L1081 1193 L353 1193 L353 771 L1021 771 L1021 617 L353 617 L353 156 L1122 156 L1122 0 L162 0 Z M945 1465 L945 1445 L840 1445 L621 1583 L619 1583 L387 1445 L283 1445 L283 1465 L537 1704 L701 1704 L945 1465 Z " />
<glyph glyph-name="Edieresis" unicode="&#xcb;" horiz-adv-x="1229" d="M162 0 L162 1349 L1081 1349 L1081 1193 L353 1193 L353 771 L1021 771 L1021 617 L353 617 L353 156 L1122 156 L1122 0 L162 0 Z M749 1445 L749 1629 L912 1629 L912 1445 L749 1445 Z M355 1445 L355 1629 L520 1629 L520 1445 L355 1445 Z " />
<glyph glyph-name="Igrave" unicode="&#xcc;" horiz-adv-x="1229" d="M202 1349 L1025 1349 L1025 1193 L709 1193 L709 156 L1025 156 L1025 0 L202 0 L202 156 L518 156 L518 1193 L202 1193 L202 1349 Z M621 1445 L321 1675 L321 1704 L518 1704 L745 1465 L745 1445 L621 1445 Z " />
<glyph glyph-name="Iacute" unicode="&#xcd;" horiz-adv-x="1229" d="M202 1349 L1025 1349 L1025 1193 L709 1193 L709 156 L1025 156 L1025 0 L202 0 L202 156 L518 156 L518 1193 L202 1193 L202 1349 Z M505 1445 L505 1465 L732 1704 L929 1704 L929 1675 L629 1445 L505 1445 Z " />
<glyph glyph-name="Icircumflex" unicode="&#xce;" horiz-adv-x="1229" d="M202 1349 L1025 1349 L1025 1193 L709 1193 L709 156 L1025 156 L1025 0 L202 0 L202 156 L518 156 L518 1193 L202 1193 L202 1349 Z M945 1465 L945 1445 L840 1445 L621 1583 L619 1583 L387 1445 L283 1445 L283 1465 L537 1704 L701 1704 L945 1465 Z " />
<glyph glyph-name="Idieresis" unicode="&#xcf;" horiz-adv-x="1229" d="M202 1349 L1025 1349 L1025 1193 L709 1193 L709 156 L1025 156 L1025 0 L202 0 L202 156 L518 156 L518 1193 L202 1193 L202 1349 Z M729 1445 L729 1629 L892 1629 L892 1445 L729 1445 Z M335 1445 L335 1629 L500 1629 L500 1445 L335 1445 Z " />
<glyph glyph-name="Eth" unicode="&#xd0;" horiz-adv-x="1229" d="M1125 688 Q1125 357 971.5 178.5 Q818 0 532 0 L162 0 L162 597 L27 597 L27 746 L162 746 L162 1349 L473 1349 Q802 1349 963.5 1184.5 Q1125 1020 1125 688 Z M642 597 L353 597 L353 156 L515 156 Q727 156 830 289 Q933 422 933 688 Q933 952 823 1072.5 Q713 1193 474 1193 L353 1193 L353 746 L642 746 L642 597 Z " />
<glyph glyph-name="Ntilde" unicode="&#xd1;" horiz-adv-x="1229" d="M836 0 L316 1130 Q332 958 332 876 L332 0 L162 0 L162 1349 L384 1349 L912 211 Q894 355 894 485 L894 1349 L1066 1349 L1066 0 L836 0 Z M770 1446 Q728 1446 686 1464.5 Q644 1483 604 1505.5 Q564 1528 525.5 1546.5 Q487 1565 452 1565 Q427 1565 412 1555.5 Q397 1546 387 1528 Q377 1510 366 1446 L255 1446 Q266 1542 289.5 1591 Q313 1640 354 1667 Q395 1694 458 1694 Q502 1694 544 1675.5 Q586 1657 626 1634.5 Q666 1612 703 1593.5 Q740 1575 773 1575 Q810 1575 830 1598.5 Q850 1622 860 1694 L972 1694 Q956 1556 906.5 1501 Q857 1446 770 1446 Z " />
<glyph glyph-name="Ograve" unicode="&#xd2;" horiz-adv-x="1229" d="M1126 681 Q1126 344 993.5 162 Q861 -20 613 -20 Q364 -20 233 159 Q102 338 102 681 Q102 1018 232 1194 Q362 1370 615 1370 Q862 1370 994 1196.5 Q1126 1023 1126 681 Z M925 681 Q925 1214 615 1214 Q303 1214 303 681 Q303 411 382 273 Q461 135 614 135 Q777 135 851 275 Q925 415 925 681 Z M616 1445 L316 1675 L316 1704 L513 1704 L740 1465 L740 1445 L616 1445 Z " />
<glyph glyph-name="Oacute" unicode="&#xd3;" horiz-adv-x="1229" d="M1126 681 Q1126 344 993.5 162 Q861 -20 613 -20 Q364 -20 233 159 Q102 338 102 681 Q102 1018 232 1194 Q362 1370 615 1370 Q862 1370 994 1196.5 Q1126 1023 1126 681 Z M925 681 Q925 1214 615 1214 Q303 1214 303 681 Q303 411 382 273 Q461 135 614 135 Q777 135 851 275 Q925 415 925 681 Z M500 1445 L500 1465 L727 1704 L924 1704 L924 1675 L624 1445 L500 1445 Z " />
<glyph glyph-name="Ocircumflex" unicode="&#xd4;" horiz-adv-x="1229" d="M1126 681 Q1126 344 993.5 162 Q861 -20 613 -20 Q364 -20 233 159 Q102 338 102 681 Q102 1018 232 1194 Q362 1370 615 1370 Q862 1370 994 1196.5 Q1126 1023 1126 681 Z M925 681 Q925 1214 615 1214 Q303 1214 303 681 Q303 411 382 273 Q461 135 614 135 Q777 135 851 275 Q925 415 925 681 Z M945 1465 L945 1445 L840 1445 L621 1583 L619 1583 L387 1445 L283 1445 L283 1465 L537 1704 L701 1704 L945 1465 Z " />
<glyph glyph-name="Otilde" unicode="&#xd5;" horiz-adv-x="1229" d="M1126 681 Q1126 344 993.5 162 Q861 -20 613 -20 Q364 -20 233 159 Q102 338 102 681 Q102 1018 232 1194 Q362 1370 615 1370 Q862 1370 994 1196.5 Q1126 1023 1126 681 Z M925 681 Q925 1214 615 1214 Q303 1214 303 681 Q303 411 382 273 Q461 135 614 135 Q777 135 851 275 Q925 415 925 681 Z M770 1445 Q728 1445 686 1463.5 Q644 1482 604 1504.5 Q564 1527 525.5 1545.5 Q487 1564 452 1564 Q427 1564 412 1554.5 Q397 1545 387 1527 Q377 1509 366 1445 L255 1445 Q266 1541 289.5 1590 Q313 1639 354 1666 Q395 1693 458 1693 Q502 1693 544 1674.5 Q586 1656 626 1633.5 Q666 1611 703 1592.5 Q740 1574 773 1574 Q810 1574 830 1597.5 Q850 1621 860 1693 L972 1693 Q956 1555 906.5 1500 Q857 1445 770 1445 Z " />
<glyph glyph-name="Odieresis" unicode="&#xd6;" horiz-adv-x="1229" d="M1126 681 Q1126 344 993.5 162 Q861 -20 613 -20 Q364 -20 233 159 Q102 338 102 681 Q102 1018 232 1194 Q362 1370 615 1370 Q862 1370 994 1196.5 Q1126 1023 1126 681 Z M925 681 Q925 1214 615 1214 Q303 1214 303 681 Q303 411 382 273 Q461 135 614 135 Q777 135 851 275 Q925 415 925 681 Z M732 1445 L732 1629 L895 1629 L895 1445 L732 1445 Z M338 1445 L338 1629 L503 1629 L503 1445 L338 1445 Z " />
<glyph glyph-name="multiply" unicode="&#xd7;" horiz-adv-x="1229" d="M157 330 L511 684 L159 1036 L263 1139 L613 786 L963 1137 L1068 1032 L718 684 L1070 332 L968 227 L615 580 L259 225 L157 330 Z " />
<glyph glyph-name="Oslash" unicode="&#xd8;" horiz-adv-x="1229" d="M1126 681 Q1126 344 993.5 162 Q861 -20 613 -20 Q395 -20 267 118 L150 -38 L56 27 L197 216 Q102 390 102 681 Q102 1018 232 1194 Q362 1370 615 1370 Q832 1370 960 1236 L1076 1392 L1170 1327 L1030 1140 Q1126 970 1126 681 Z M925 681 Q925 845 895 959 L383 273 Q462 135 614 135 Q777 135 851 275 Q925 415 925 681 Z M303 681 Q303 515 333 399 L845 1083 Q768 1214 615 1214 Q303 1214 303 681 Z " />
<glyph glyph-name="Ugrave" unicode="&#xd9;" horiz-adv-x="1229" d="M1085 490 Q1085 223 971 101.5 Q857 -20 605 -20 Q361 -20 251.5 97.5 Q142 215 142 472 L142 1349 L333 1349 L333 498 Q333 294 391.5 214.5 Q450 135 604 135 Q765 135 830 217 Q895 299 895 511 L895 1349 L1085 1349 L1085 490 Z M605 1445 L305 1675 L305 1704 L502 1704 L729 1465 L729 1445 L605 1445 Z " />
<glyph glyph-name="Uacute" unicode="&#xda;" horiz-adv-x="1229" d="M1085 490 Q1085 223 971 101.5 Q857 -20 605 -20 Q361 -20 251.5 97.5 Q142 215 142 472 L142 1349 L333 1349 L333 498 Q333 294 391.5 214.5 Q450 135 604 135 Q765 135 830 217 Q895 299 895 511 L895 1349 L1085 1349 L1085 490 Z M488 1445 L488 1465 L715 1704 L912 1704 L912 1675 L612 1445 L488 1445 Z " />
<glyph glyph-name="Ucircumflex" unicode="&#xdb;" horiz-adv-x="1229" d="M1085 490 Q1085 223 971 101.5 Q857 -20 605 -20 Q361 -20 251.5 97.5 Q142 215 142 472 L142 1349 L333 1349 L333 498 Q333 294 391.5 214.5 Q450 135 604 135 Q765 135 830 217 Q895 299 895 511 L895 1349 L1085 1349 L1085 490 Z M945 1465 L945 1445 L840 1445 L621 1583 L619 1583 L387 1445 L283 1445 L283 1465 L537 1704 L701 1704 L945 1465 Z " />
<glyph glyph-name="Udieresis" unicode="&#xdc;" horiz-adv-x="1229" d="M1085 490 Q1085 223 971 101.5 Q857 -20 605 -20 Q361 -20 251.5 97.5 Q142 215 142 472 L142 1349 L333 1349 L333 498 Q333 294 391.5 214.5 Q450 135 604 135 Q765 135 830 217 Q895 299 895 511 L895 1349 L1085 1349 L1085 490 Z M729 1445 L729 1629 L892 1629 L892 1445 L729 1445 Z M335 1445 L335 1629 L500 1629 L500 1445 L335 1445 Z " />
<glyph glyph-name="Yacute" unicode="&#xdd;" horiz-adv-x="1229" d="M708 584 L708 0 L520 0 L520 584 L36 1349 L241 1349 L615 738 L987 1349 L1192 1349 L708 584 Z M503 1445 L503 1465 L730 1704 L927 1704 L927 1675 L627 1445 L503 1445 Z " />
<glyph glyph-name="Thorn" unicode="&#xde;" horiz-adv-x="1229" d="M1119 692 Q1119 564 1061 464.5 Q1003 365 893.5 309.5 Q784 254 634 254 L353 254 L353 0 L162 0 L162 1349 L353 1349 L353 1114 L622 1114 Q861 1114 990 1003 Q1119 892 1119 692 Z M927 688 Q927 822 845 896.5 Q763 971 599 971 L353 971 L353 395 L607 395 Q760 395 843.5 472.5 Q927 550 927 688 Z " />
<glyph glyph-name="germandbls" unicode="&#xdf;" horiz-adv-x="1229" d="M1167 295 Q1167 143 1072 57 Q977 -29 809 -29 Q638 -29 526 20 L524 184 Q582 151 659 133 Q736 115 805 115 Q897 115 946 162.5 Q995 210 995 289 Q995 356 954 408.5 Q913 461 813 522 Q721 577 675.5 640 Q630 703 630 785 Q630 846 658.5 896 Q687 946 741 991 Q799 1039 825.5 1081 Q852 1123 852 1173 Q852 1250 785 1296.5 Q718 1343 609 1343 Q461 1343 391.5 1263 Q322 1183 322 1021 L322 0 L142 0 L142 1027 Q142 1254 259.5 1369 Q377 1484 609 1484 Q799 1484 911.5 1403.5 Q1024 1323 1024 1187 Q1024 1049 911 948 Q840 885 819 855 Q798 825 798 791 Q798 749 831 714.5 Q864 680 983 600 Q1072 540 1119.5 465 Q1167 390 1167 295 Z " />
<glyph glyph-name="agrave" unicode="&#xe0;" horiz-adv-x="1229" d="M1101 111 Q1127 111 1160 118 L1160 6 Q1092 -10 1021 -10 Q921 -10 875.5 42.5 Q830 95 824 207 L818 207 Q753 86 664.5 33 Q576 -20 446 -20 Q288 -20 208 66 Q128 152 128 302 Q128 651 582 656 L818 660 L818 719 Q818 850 765 907.5 Q712 965 596 965 Q478 965 426 923 Q374 881 364 793 L176 810 Q222 1102 599 1102 Q799 1102 899.5 1008.5 Q1000 915 1000 738 L1000 272 Q1000 192 1021 151.5 Q1042 111 1101 111 Z M492 117 Q588 117 662 163 Q736 209 777 286 Q818 363 818 445 L818 534 L628 530 Q510 528 448 504 Q386 480 351.5 430.5 Q317 381 317 299 Q317 217 361.5 167 Q406 117 492 117 Z M588 1201 L288 1431 L288 1460 L485 1460 L712 1221 L712 1201 L588 1201 Z " />
<glyph glyph-name="aacute" unicode="&#xe1;" horiz-adv-x="1229" d="M1101 111 Q1127 111 1160 118 L1160 6 Q1092 -10 1021 -10 Q921 -10 875.5 42.5 Q830 95 824 207 L818 207 Q753 86 664.5 33 Q576 -20 446 -20 Q288 -20 208 66 Q128 152 128 302 Q128 651 582 656 L818 660 L818 719 Q818 850 765 907.5 Q712 965 596 965 Q478 965 426 923 Q374 881 364 793 L176 810 Q222 1102 599 1102 Q799 1102 899.5 1008.5 Q1000 915 1000 738 L1000 272 Q1000 192 1021 151.5 Q1042 111 1101 111 Z M492 117 Q588 117 662 163 Q736 209 777 286 Q818 363 818 445 L818 534 L628 530 Q510 528 448 504 Q386 480 351.5 430.5 Q317 381 317 299 Q317 217 361.5 167 Q406 117 492 117 Z M479 1201 L479 1221 L706 1460 L903 1460 L903 1431 L603 1201 L479 1201 Z " />
<glyph glyph-name="acircumflex" unicode="&#xe2;" horiz-adv-x="1229" d="M1101 111 Q1127 111 1160 118 L1160 6 Q1092 -10 1021 -10 Q921 -10 875.5 42.5 Q830 95 824 207 L818 207 Q753 86 664.5 33 Q576 -20 446 -20 Q288 -20 208 66 Q128 152 128 302 Q128 651 582 656 L818 660 L818 719 Q818 850 765 907.5 Q712 965 596 965 Q478 965 426 923 Q374 881 364 793 L176 810 Q222 1102 599 1102 Q799 1102 899.5 1008.5 Q1000 915 1000 738 L1000 272 Q1000 192 1021 151.5 Q1042 111 1101 111 Z M492 117 Q588 117 662 163 Q736 209 777 286 Q818 363 818 445 L818 534 L628 530 Q510 528 448 504 Q386 480 351.5 430.5 Q317 381 317 299 Q317 217 361.5 167 Q406 117 492 117 Z M927 1221 L927 1201 L822 1201 L603 1339 L601 1339 L369 1201 L265 1201 L265 1221 L519 1460 L683 1460 L927 1221 Z " />
<glyph glyph-name="atilde" unicode="&#xe3;" horiz-adv-x="1229" d="M1101 111 Q1127 111 1160 118 L1160 6 Q1092 -10 1021 -10 Q921 -10 875.5 42.5 Q830 95 824 207 L818 207 Q753 86 664.5 33 Q576 -20 446 -20 Q288 -20 208 66 Q128 152 128 302 Q128 651 582 656 L818 660 L818 719 Q818 850 765 907.5 Q712 965 596 965 Q478 965 426 923 Q374 881 364 793 L176 810 Q222 1102 599 1102 Q799 1102 899.5 1008.5 Q1000 915 1000 738 L1000 272 Q1000 192 1021 151.5 Q1042 111 1101 111 Z M492 117 Q588 117 662 163 Q736 209 777 286 Q818 363 818 445 L818 534 L628 530 Q510 528 448 504 Q386 480 351.5 430.5 Q317 381 317 299 Q317 217 361.5 167 Q406 117 492 117 Z M762 1201 Q720 1201 678 1219.5 Q636 1238 596 1260.5 Q556 1283 517.5 1301.5 Q479 1320 444 1320 Q419 1320 404 1310.5 Q389 1301 379 1283 Q369 1265 358 1201 L247 1201 Q258 1297 281.5 1346 Q305 1395 346 1422 Q387 1449 450 1449 Q494 1449 536 1430.5 Q578 1412 618 1389.5 Q658 1367 695 1348.5 Q732 1330 765 1330 Q802 1330 822 1353.5 Q842 1377 852 1449 L964 1449 Q948 1311 898.5 1256 Q849 1201 762 1201 Z " />
<glyph glyph-name="adieresis" unicode="&#xe4;" horiz-adv-x="1229" d="M1101 111 Q1127 111 1160 118 L1160 6 Q1092 -10 1021 -10 Q921 -10 875.5 42.5 Q830 95 824 207 L818 207 Q753 86 664.5 33 Q576 -20 446 -20 Q288 -20 208 66 Q128 152 128 302 Q128 651 582 656 L818 660 L818 719 Q818 850 765 907.5 Q712 965 596 965 Q478 965 426 923 Q374 881 364 793 L176 810 Q222 1102 599 1102 Q799 1102 899.5 1008.5 Q1000 915 1000 738 L1000 272 Q1000 192 1021 151.5 Q1042 111 1101 111 Z M492 117 Q588 117 662 163 Q736 209 777 286 Q818 363 818 445 L818 534 L628 530 Q510 528 448 504 Q386 480 351.5 430.5 Q317 381 317 299 Q317 217 361.5 167 Q406 117 492 117 Z M713 1219 L713 1403 L876 1403 L876 1219 L713 1219 Z M319 1219 L319 1403 L484 1403 L484 1219 L319 1219 Z " />
<glyph glyph-name="aring" unicode="&#xe5;" horiz-adv-x="1229" d="M1101 111 Q1127 111 1160 118 L1160 6 Q1092 -10 1021 -10 Q921 -10 875.5 42.5 Q830 95 824 207 L818 207 Q753 86 664.5 33 Q576 -20 446 -20 Q288 -20 208 66 Q128 152 128 302 Q128 651 582 656 L818 660 L818 719 Q818 850 765 907.5 Q712 965 596 965 Q478 965 426 923 Q374 881 364 793 L176 810 Q222 1102 599 1102 Q799 1102 899.5 1008.5 Q1000 915 1000 738 L1000 272 Q1000 192 1021 151.5 Q1042 111 1101 111 Z M492 117 Q588 117 662 163 Q736 209 777 286 Q818 363 818 445 L818 534 L628 530 Q510 528 448 504 Q386 480 351.5 430.5 Q317 381 317 299 Q317 217 361.5 167 Q406 117 492 117 Z M848 1348 Q848 1261 782.5 1204.5 Q717 1148 606 1148 Q494 1148 429 1204.5 Q364 1261 364 1348 Q364 1437 430.5 1492 Q497 1547 606 1547 Q717 1547 782.5 1491.5 Q848 1436 848 1348 Z M727 1348 Q727 1385 694.5 1408 Q662 1431 606 1431 Q551 1431 517.5 1408 Q484 1385 484 1348 Q484 1310 517.5 1287 Q551 1264 606 1264 Q662 1264 694.5 1287 Q727 1310 727 1348 Z " />
<glyph glyph-name="ae" unicode="&#xe6;" horiz-adv-x="1229" d="M679 503 L679 486 Q684 115 864 115 Q939 115 983.5 162 Q1028 209 1044 281 L1182 236 Q1114 -20 868 -20 Q747 -20 678.5 35 Q610 90 576 212 Q524 90 449.5 35 Q375 -20 278 -20 Q149 -20 84.5 62 Q20 144 20 302 Q20 651 350 656 L517 660 L517 719 Q517 854 485 909.5 Q453 965 381 965 Q307 965 273.5 924.5 Q240 884 233 793 L65 810 Q84 961 161.5 1031.5 Q239 1102 380 1102 Q556 1102 627 963 Q712 1102 873 1102 Q1039 1102 1123.5 960.5 Q1208 819 1208 527 L1208 503 L679 503 Z M189 299 Q189 217 217.5 167 Q246 117 303 117 Q367 117 415 161.5 Q463 206 490 281.5 Q517 357 517 445 L517 534 L395 530 Q316 528 275.5 504 Q235 480 212 430 Q189 380 189 299 Z M859 969 Q777 969 730.5 882 Q684 795 681 641 L1042 641 Q1033 812 989 890.5 Q945 969 859 969 Z " />
<glyph glyph-name="ccedilla" unicode="&#xe7;" horiz-adv-x="1229" d="M130 542 Q130 812 259 957 Q388 1102 632 1102 Q814 1102 932 1014.5 Q1050 927 1078 779 L886 765 Q870 856 806 908.5 Q742 961 624 961 Q466 961 392.5 863 Q319 765 319 546 Q319 324 392.5 221.5 Q466 119 623 119 Q731 119 802 172 Q873 225 890 334 L1080 322 Q1067 226 1007.5 147.5 Q948 69 850 24.5 Q752 -20 631 -20 Q386 -20 258 124 Q130 268 130 542 Z M820 -258 Q820 -444 546 -444 Q489 -444 456 -440 L456 -342 Q506 -348 542 -348 Q689 -348 689 -262 Q689 -222 658.5 -201 Q628 -180 556 -180 Q513 -180 499 -182 L564 0 L671 0 L632 -100 Q726 -103 773 -144.5 Q820 -186 820 -258 Z " />
<glyph glyph-name="egrave" unicode="&#xe8;" horiz-adv-x="1229" d="M322 503 Q322 321 402.5 218 Q483 115 623 115 Q726 115 803.5 159.5 Q881 204 907 281 L1065 236 Q1021 112 903.5 46 Q786 -20 623 -20 Q387 -20 260 127 Q133 274 133 548 Q133 815 257.5 958.5 Q382 1102 617 1102 Q852 1102 973 959 Q1094 816 1094 527 L1094 503 L322 503 Z M619 969 Q485 969 407 881.5 Q329 794 324 641 L908 641 Q880 969 619 969 Z M623 1201 L323 1431 L323 1460 L520 1460 L747 1221 L747 1201 L623 1201 Z " />
<glyph glyph-name="eacute" unicode="&#xe9;" horiz-adv-x="1229" d="M322 503 Q322 321 402.5 218 Q483 115 623 115 Q726 115 803.5 159.5 Q881 204 907 281 L1065 236 Q1021 112 903.5 46 Q786 -20 623 -20 Q387 -20 260 127 Q133 274 133 548 Q133 815 257.5 958.5 Q382 1102 617 1102 Q852 1102 973 959 Q1094 816 1094 527 L1094 503 L322 503 Z M619 969 Q485 969 407 881.5 Q329 794 324 641 L908 641 Q880 969 619 969 Z M513 1201 L513 1221 L740 1460 L937 1460 L937 1431 L637 1201 L513 1201 Z " />
<glyph glyph-name="ecircumflex" unicode="&#xea;" horiz-adv-x="1229" d="M322 503 Q322 321 402.5 218 Q483 115 623 115 Q726 115 803.5 159.5 Q881 204 907 281 L1065 236 Q1021 112 903.5 46 Q786 -20 623 -20 Q387 -20 260 127 Q133 274 133 548 Q133 815 257.5 958.5 Q382 1102 617 1102 Q852 1102 973 959 Q1094 816 1094 527 L1094 503 L322 503 Z M619 969 Q485 969 407 881.5 Q329 794 324 641 L908 641 Q880 969 619 969 Z M952 1221 L952 1201 L847 1201 L628 1339 L626 1339 L394 1201 L290 1201 L290 1221 L544 1460 L708 1460 L952 1221 Z " />
<glyph glyph-name="edieresis" unicode="&#xeb;" horiz-adv-x="1229" d="M322 503 Q322 321 402.5 218 Q483 115 623 115 Q726 115 803.5 159.5 Q881 204 907 281 L1065 236 Q1021 112 903.5 46 Q786 -20 623 -20 Q387 -20 260 127 Q133 274 133 548 Q133 815 257.5 958.5 Q382 1102 617 1102 Q852 1102 973 959 Q1094 816 1094 527 L1094 503 L322 503 Z M619 969 Q485 969 407 881.5 Q329 794 324 641 L908 641 Q880 969 619 969 Z M737 1219 L737 1403 L900 1403 L900 1219 L737 1219 Z M343 1219 L343 1403 L508 1403 L508 1219 L343 1219 Z " />
<glyph glyph-name="igrave" unicode="&#xec;" horiz-adv-x="1229" d="M745 142 L1125 142 L1125 0 L143 0 L143 142 L565 142 L565 940 L246 940 L246 1082 L745 1082 L745 142 Z M635 1201 L335 1431 L335 1460 L532 1460 L759 1221 L759 1201 L635 1201 Z " />
<glyph glyph-name="iacute" unicode="&#xed;" horiz-adv-x="1229" d="M745 142 L1125 142 L1125 0 L143 0 L143 142 L565 142 L565 940 L246 940 L246 1082 L745 1082 L745 142 Z M506 1201 L506 1221 L733 1460 L930 1460 L930 1431 L630 1201 L506 1201 Z " />
<glyph glyph-name="icircumflex" unicode="&#xee;" horiz-adv-x="1229" d="M745 142 L1125 142 L1125 0 L143 0 L143 142 L565 142 L565 940 L246 940 L246 1082 L745 1082 L745 142 Z M955 1221 L955 1201 L850 1201 L631 1339 L629 1339 L397 1201 L293 1201 L293 1221 L547 1460 L711 1460 L955 1221 Z " />
<glyph glyph-name="idieresis" unicode="&#xef;" horiz-adv-x="1229" d="M745 142 L1125 142 L1125 0 L143 0 L143 142 L565 142 L565 940 L246 940 L246 1082 L745 1082 L745 142 Z M770 1219 L770 1403 L933 1403 L933 1219 L770 1219 Z M376 1219 L376 1403 L541 1403 L541 1219 L376 1219 Z " />
<glyph glyph-name="eth" unicode="&#xf0;" horiz-adv-x="1229" d="M612 979 Q749 979 843 920 Q758 1115 623 1237 L363 1122 L308 1232 L526 1326 Q417 1413 284 1484 L493 1484 Q573 1448 663 1382 L927 1496 L982 1388 L771 1296 Q1102 995 1102 516 L1102 510 Q1102 249 976.5 114.5 Q851 -20 605 -20 Q373 -20 249 109 Q125 238 125 481 Q125 725 249 852 Q373 979 612 979 Z M913 481 Q913 673 842.5 759.5 Q772 846 616 846 Q459 846 386.5 759 Q314 672 314 481 Q314 291 386 202 Q458 113 603 113 Q764 113 838.5 200.5 Q913 288 913 481 Z " />
<glyph glyph-name="ntilde" unicode="&#xf1;" horiz-adv-x="1229" d="M868 0 L868 695 Q868 831 815.5 897 Q763 963 648 963 Q524 963 444.5 872.5 Q365 782 365 627 L365 0 L185 0 L185 851 Q185 1040 179 1082 L349 1082 Q350 1077 351 1055 Q352 1033 353.5 1004.5 Q355 976 357 897 L360 897 Q465 1102 706 1102 Q879 1102 964 1008.5 Q1049 915 1049 721 L1049 0 L868 0 Z M780 1201 Q738 1201 696 1219.5 Q654 1238 614 1260.5 Q574 1283 535.5 1301.5 Q497 1320 462 1320 Q437 1320 422 1310.5 Q407 1301 397 1283 Q387 1265 376 1201 L265 1201 Q276 1297 299.5 1346 Q323 1395 364 1422 Q405 1449 468 1449 Q512 1449 554 1430.5 Q596 1412 636 1389.5 Q676 1367 713 1348.5 Q750 1330 783 1330 Q820 1330 840 1353.5 Q860 1377 870 1449 L982 1449 Q966 1311 916.5 1256 Q867 1201 780 1201 Z " />
<glyph glyph-name="ograve" unicode="&#xf2;" horiz-adv-x="1229" d="M1097 542 Q1097 269 971.5 124.5 Q846 -20 609 -20 Q377 -20 253.5 126 Q130 272 130 542 Q130 821 256.5 961.5 Q383 1102 615 1102 Q859 1102 978 963 Q1097 824 1097 542 Z M908 542 Q908 757 839.5 863 Q771 969 618 969 Q463 969 391 861 Q319 753 319 542 Q319 332 391 222.5 Q463 113 607 113 Q766 113 837 220 Q908 327 908 542 Z M632 1201 L332 1431 L332 1460 L529 1460 L756 1221 L756 1201 L632 1201 Z " />
<glyph glyph-name="oacute" unicode="&#xf3;" horiz-adv-x="1229" d="M1097 542 Q1097 269 971.5 124.5 Q846 -20 609 -20 Q377 -20 253.5 126 Q130 272 130 542 Q130 821 256.5 961.5 Q383 1102 615 1102 Q859 1102 978 963 Q1097 824 1097 542 Z M908 542 Q908 757 839.5 863 Q771 969 618 969 Q463 969 391 861 Q319 753 319 542 Q319 332 391 222.5 Q463 113 607 113 Q766 113 837 220 Q908 327 908 542 Z M503 1201 L503 1221 L730 1460 L927 1460 L927 1431 L627 1201 L503 1201 Z " />
<glyph glyph-name="ocircumflex" unicode="&#xf4;" horiz-adv-x="1229" d="M1097 542 Q1097 269 971.5 124.5 Q846 -20 609 -20 Q377 -20 253.5 126 Q130 272 130 542 Q130 821 256.5 961.5 Q383 1102 615 1102 Q859 1102 978 963 Q1097 824 1097 542 Z M908 542 Q908 757 839.5 863 Q771 969 618 969 Q463 969 391 861 Q319 753 319 542 Q319 332 391 222.5 Q463 113 607 113 Q766 113 837 220 Q908 327 908 542 Z M945 1221 L945 1201 L840 1201 L621 1339 L619 1339 L387 1201 L283 1201 L283 1221 L537 1460 L701 1460 L945 1221 Z " />
<glyph glyph-name="otilde" unicode="&#xf5;" horiz-adv-x="1229" d="M1097 542 Q1097 269 971.5 124.5 Q846 -20 609 -20 Q377 -20 253.5 126 Q130 272 130 542 Q130 821 256.5 961.5 Q383 1102 615 1102 Q859 1102 978 963 Q1097 824 1097 542 Z M908 542 Q908 757 839.5 863 Q771 969 618 969 Q463 969 391 861 Q319 753 319 542 Q319 332 391 222.5 Q463 113 607 113 Q766 113 837 220 Q908 327 908 542 Z M770 1201 Q728 1201 686 1219.5 Q644 1238 604 1260.5 Q564 1283 525.5 1301.5 Q487 1320 452 1320 Q427 1320 412 1310.5 Q397 1301 387 1283 Q377 1265 366 1201 L255 1201 Q266 1297 289.5 1346 Q313 1395 354 1422 Q395 1449 458 1449 Q502 1449 544 1430.5 Q586 1412 626 1389.5 Q666 1367 703 1348.5 Q740 1330 773 1330 Q810 1330 830 1353.5 Q850 1377 860 1449 L972 1449 Q956 1311 906.5 1256 Q857 1201 770 1201 Z " />
<glyph glyph-name="odieresis" unicode="&#xf6;" horiz-adv-x="1229" d="M1097 542 Q1097 269 971.5 124.5 Q846 -20 609 -20 Q377 -20 253.5 126 Q130 272 130 542 Q130 821 256.5 961.5 Q383 1102 615 1102 Q859 1102 978 963 Q1097 824 1097 542 Z M908 542 Q908 757 839.5 863 Q771 969 618 969 Q463 969 391 861 Q319 753 319 542 Q319 332 391 222.5 Q463 113 607 113 Q766 113 837 220 Q908 327 908 542 Z M729 1219 L729 1403 L892 1403 L892 1219 L729 1219 Z M335 1219 L335 1403 L500 1403 L500 1219 L335 1219 Z " />
<glyph glyph-name="divide" unicode="&#xf7;" horiz-adv-x="1229" d="M529 958 L529 1141 L697 1141 L697 958 L529 958 Z M116 608 L116 754 L1111 754 L1111 608 L116 608 Z M529 223 L529 406 L697 406 L697 223 L529 223 Z " />
<glyph glyph-name="oslash" unicode="&#xf8;" horiz-adv-x="1229" d="M1117 542 Q1117 270 987 125 Q857 -20 609 -20 Q405 -20 278 87 L201 0 L125 68 L209 163 Q110 305 110 542 Q110 814 238.5 958 Q367 1102 615 1102 Q828 1102 950 1002 L1022 1084 L1100 1016 L1020 926 Q1117 789 1117 542 Z M928 542 Q928 689 895 784 L386 208 Q463 113 607 113 Q775 113 851.5 219.5 Q928 326 928 542 Z M299 542 Q299 396 333 304 L842 880 Q767 969 618 969 Q454 969 376.5 861.5 Q299 754 299 542 Z " />
<glyph glyph-name="ugrave" unicode="&#xf9;" horiz-adv-x="1229" d="M365 1082 L365 396 Q365 240 414 179.5 Q463 119 589 119 Q718 119 793 207 Q868 295 868 455 L868 1082 L1049 1082 L1049 231 Q1049 42 1055 0 L885 0 Q884 5 883 27 Q882 49 880.5 77.5 Q879 106 877 185 L874 185 Q812 73 730.5 26.5 Q649 -20 528 -20 Q350 -20 267.5 68.5 Q185 157 185 361 L185 1082 L365 1082 Z M608 1201 L308 1431 L308 1460 L505 1460 L732 1221 L732 1201 L608 1201 Z " />
<glyph glyph-name="uacute" unicode="&#xfa;" horiz-adv-x="1229" d="M365 1082 L365 396 Q365 240 414 179.5 Q463 119 589 119 Q718 119 793 207 Q868 295 868 455 L868 1082 L1049 1082 L1049 231 Q1049 42 1055 0 L885 0 Q884 5 883 27 Q882 49 880.5 77.5 Q879 106 877 185 L874 185 Q812 73 730.5 26.5 Q649 -20 528 -20 Q350 -20 267.5 68.5 Q185 157 185 361 L185 1082 L365 1082 Z M492 1201 L492 1221 L719 1460 L916 1460 L916 1431 L616 1201 L492 1201 Z " />
<glyph glyph-name="ucircumflex" unicode="&#xfb;" horiz-adv-x="1229" d="M365 1082 L365 396 Q365 240 414 179.5 Q463 119 589 119 Q718 119 793 207 Q868 295 868 455 L868 1082 L1049 1082 L1049 231 Q1049 42 1055 0 L885 0 Q884 5 883 27 Q882 49 880.5 77.5 Q879 106 877 185 L874 185 Q812 73 730.5 26.5 Q649 -20 528 -20 Q350 -20 267.5 68.5 Q185 157 185 361 L185 1082 L365 1082 Z M945 1221 L945 1201 L840 1201 L621 1339 L619 1339 L387 1201 L283 1201 L283 1221 L537 1460 L701 1460 L945 1221 Z " />
<glyph glyph-name="udieresis" unicode="&#xfc;" horiz-adv-x="1229" d="M365 1082 L365 396 Q365 240 414 179.5 Q463 119 589 119 Q718 119 793 207 Q868 295 868 455 L868 1082 L1049 1082 L1049 231 Q1049 42 1055 0 L885 0 Q884 5 883 27 Q882 49 880.5 77.5 Q879 106 877 185 L874 185 Q812 73 730.5 26.5 Q649 -20 528 -20 Q350 -20 267.5 68.5 Q185 157 185 361 L185 1082 L365 1082 Z M729 1219 L729 1403 L892 1403 L892 1219 L729 1219 Z M335 1219 L335 1403 L500 1403 L500 1219 L335 1219 Z " />
<glyph glyph-name="yacute" unicode="&#xfd;" horiz-adv-x="1229" d="M292 -425 Q218 -425 168 -414 L168 -279 Q206 -285 252 -285 Q331 -285 400.5 -226 Q470 -167 518 -38 L536 11 L66 1082 L258 1082 L522 440 Q613 216 620 186 L661 296 L971 1082 L1161 1082 L705 0 Q616 -235 520.5 -330 Q425 -425 292 -425 Z M509 1201 L509 1221 L736 1460 L933 1460 L933 1431 L633 1201 L509 1201 Z " />
<glyph glyph-name="thorn" unicode="&#xfe;" horiz-adv-x="1229" d="M904 546 Q904 772 843 868.5 Q782 965 651 965 Q500 965 433 855.5 Q366 746 366 524 Q366 311 433 212 Q500 113 649 113 Q782 113 843 214 Q904 315 904 546 Z M368 904 Q418 1009 495.5 1056.5 Q573 1104 698 1104 Q896 1104 993 967.5 Q1090 831 1090 546 Q1090 -20 698 -20 Q452 -20 367 164 L362 164 Q366 156 366 -2 L366 -425 L185 -425 L185 1484 L365 1484 L365 1061 Q365 996 361 904 L368 904 Z " />
<glyph glyph-name="ydieresis" unicode="&#xff;" horiz-adv-x="1229" d="M292 -425 Q218 -425 168 -414 L168 -279 Q206 -285 252 -285 Q331 -285 400.5 -226 Q470 -167 518 -38 L536 11 L66 1082 L258 1082 L522 440 Q613 216 620 186 L661 296 L971 1082 L1161 1082 L705 0 Q616 -235 520.5 -330 Q425 -425 292 -425 Z M734 1219 L734 1403 L897 1403 L897 1219 L734 1219 Z M340 1219 L340 1403 L505 1403 L505 1219 L340 1219 Z " />
<glyph glyph-name="Amacron" unicode="&#x100;" horiz-adv-x="1229" d="M1034 0 L896 382 L333 382 L196 0 L0 0 L510 1349 L727 1349 L1228 0 L1034 0 Z M616 1205 L604 1166 L535 954 L384 531 L847 531 L674 1031 L616 1205 Z M890 1503 L339 1503 L339 1630 L890 1630 L890 1503 Z " />
<glyph glyph-name="amacron" unicode="&#x101;" horiz-adv-x="1229" d="M1101 111 Q1127 111 1160 118 L1160 6 Q1092 -10 1021 -10 Q921 -10 875.5 42.5 Q830 95 824 207 L818 207 Q753 86 664.5 33 Q576 -20 446 -20 Q288 -20 208 66 Q128 152 128 302 Q128 651 582 656 L818 660 L818 719 Q818 850 765 907.5 Q712 965 596 965 Q478 965 426 923 Q374 881 364 793 L176 810 Q222 1102 599 1102 Q799 1102 899.5 1008.5 Q1000 915 1000 738 L1000 272 Q1000 192 1021 151.5 Q1042 111 1101 111 Z M492 117 Q588 117 662 163 Q736 209 777 286 Q818 363 818 445 L818 534 L628 530 Q510 528 448 504 Q386 480 351.5 430.5 Q317 381 317 299 Q317 217 361.5 167 Q406 117 492 117 Z M851 1236 L300 1236 L300 1363 L851 1363 L851 1236 Z " />
<glyph glyph-name="Abreve" unicode="&#x102;" horiz-adv-x="1229" d="M1034 0 L896 382 L333 382 L196 0 L0 0 L510 1349 L727 1349 L1228 0 L1034 0 Z M616 1205 L604 1166 L535 954 L384 531 L847 531 L674 1031 L616 1205 Z M613 1446 Q489 1446 405.5 1517 Q322 1588 301 1705 L428 1705 Q445 1642 488 1607 Q531 1572 613 1572 Q698 1572 740.5 1607 Q783 1642 800 1705 L927 1705 Q903 1586 820.5 1516 Q738 1446 613 1446 Z " />
<glyph glyph-name="abreve" unicode="&#x103;" horiz-adv-x="1229" d="M1101 111 Q1127 111 1160 118 L1160 6 Q1092 -10 1021 -10 Q921 -10 875.5 42.5 Q830 95 824 207 L818 207 Q753 86 664.5 33 Q576 -20 446 -20 Q288 -20 208 66 Q128 152 128 302 Q128 651 582 656 L818 660 L818 719 Q818 850 765 907.5 Q712 965 596 965 Q478 965 426 923 Q374 881 364 793 L176 810 Q222 1102 599 1102 Q799 1102 899.5 1008.5 Q1000 915 1000 738 L1000 272 Q1000 192 1021 151.5 Q1042 111 1101 111 Z M492 117 Q588 117 662 163 Q736 209 777 286 Q818 363 818 445 L818 534 L628 530 Q510 528 448 504 Q386 480 351.5 430.5 Q317 381 317 299 Q317 217 361.5 167 Q406 117 492 117 Z M594 1201 Q470 1201 386.5 1272 Q303 1343 282 1460 L409 1460 Q426 1397 469 1362 Q512 1327 594 1327 Q679 1327 721.5 1362 Q764 1397 781 1460 L908 1460 Q884 1341 801.5 1271 Q719 1201 594 1201 Z " />
<glyph glyph-name="Aogonek" unicode="&#x104;" horiz-adv-x="1229" d="M1034 0 L896 382 L333 382 L196 0 L0 0 L510 1349 L727 1349 L1228 0 L1034 0 Z M616 1205 L604 1166 L535 954 L384 531 L847 531 L674 1031 L616 1205 Z M1247 -389 Q1184 -416 1108 -416 Q1003 -416 950 -365 Q897 -314 897 -229 Q897 -161 938.5 -95.5 Q980 -30 1052 11 L1185 11 Q1121 -25 1079.5 -87.5 Q1038 -150 1038 -216 Q1038 -258 1062.5 -282 Q1087 -306 1132 -306 Q1186 -306 1247 -282 L1247 -389 Z " />
<glyph glyph-name="aogonek" unicode="&#x105;" horiz-adv-x="1229" d="M1101 111 Q1127 111 1160 118 L1160 6 Q1092 -10 1021 -10 Q921 -10 875.5 42.5 Q830 95 824 207 L818 207 Q753 86 664.5 33 Q576 -20 446 -20 Q288 -20 208 66 Q128 152 128 302 Q128 651 582 656 L818 660 L818 719 Q818 850 765 907.5 Q712 965 596 965 Q478 965 426 923 Q374 881 364 793 L176 810 Q222 1102 599 1102 Q799 1102 899.5 1008.5 Q1000 915 1000 738 L1000 272 Q1000 192 1021 151.5 Q1042 111 1101 111 Z M492 117 Q588 117 662 163 Q736 209 777 286 Q818 363 818 445 L818 534 L628 530 Q510 528 448 504 Q386 480 351.5 430.5 Q317 381 317 299 Q317 217 361.5 167 Q406 117 492 117 Z M1160 -400 Q1097 -427 1021 -427 Q916 -427 863 -376 Q810 -325 810 -240 Q810 -172 851.5 -106.5 Q893 -41 965 0 L1098 0 Q1034 -36 992.5 -98.5 Q951 -161 951 -227 Q951 -269 975.5 -293 Q1000 -317 1045 -317 Q1099 -317 1160 -293 L1160 -400 Z " />
<glyph glyph-name="Cacute" unicode="&#x106;" horiz-adv-x="1229" d="M314 681 Q314 408 399.5 271.5 Q485 135 661 135 Q762 135 844 203.5 Q926 272 983 417 L1142 352 Q993 -20 659 -20 Q396 -20 254.5 161 Q113 342 113 681 Q113 1370 649 1370 Q988 1370 1115 1035 L947 970 Q910 1083 831.5 1148.5 Q753 1214 650 1214 Q479 1214 396.5 1085 Q314 956 314 681 Z M534 1445 L534 1465 L761 1704 L958 1704 L958 1675 L658 1445 L534 1445 Z " />
<glyph glyph-name="cacute" unicode="&#x107;" horiz-adv-x="1229" d="M130 542 Q130 812 259 957 Q388 1102 632 1102 Q814 1102 932 1014.5 Q1050 927 1078 779 L886 765 Q870 856 806 908.5 Q742 961 624 961 Q466 961 392.5 863 Q319 765 319 546 Q319 324 392.5 221.5 Q466 119 623 119 Q731 119 802 172 Q873 225 890 334 L1080 322 Q1067 226 1007.5 147.5 Q948 69 850 24.5 Q752 -20 631 -20 Q386 -20 258 124 Q130 268 130 542 Z M504 1201 L504 1221 L731 1460 L928 1460 L928 1431 L628 1201 L504 1201 Z " />
<glyph glyph-name="Ccircumflex" unicode="&#x108;" horiz-adv-x="1229" d="M314 681 Q314 408 399.5 271.5 Q485 135 661 135 Q762 135 844 203.5 Q926 272 983 417 L1142 352 Q993 -20 659 -20 Q396 -20 254.5 161 Q113 342 113 681 Q113 1370 649 1370 Q988 1370 1115 1035 L947 970 Q910 1083 831.5 1148.5 Q753 1214 650 1214 Q479 1214 396.5 1085 Q314 956 314 681 Z M965 1466 L965 1446 L860 1446 L641 1584 L639 1584 L407 1446 L303 1446 L303 1466 L557 1705 L721 1705 L965 1466 Z " />
<glyph glyph-name="ccircumflex" unicode="&#x109;" horiz-adv-x="1229" d="M130 542 Q130 812 259 957 Q388 1102 632 1102 Q814 1102 932 1014.5 Q1050 927 1078 779 L886 765 Q870 856 806 908.5 Q742 961 624 961 Q466 961 392.5 863 Q319 765 319 546 Q319 324 392.5 221.5 Q466 119 623 119 Q731 119 802 172 Q873 225 890 334 L1080 322 Q1067 226 1007.5 147.5 Q948 69 850 24.5 Q752 -20 631 -20 Q386 -20 258 124 Q130 268 130 542 Z M945 1221 L945 1201 L840 1201 L621 1339 L619 1339 L387 1201 L283 1201 L283 1221 L537 1460 L701 1460 L945 1221 Z " />
<glyph glyph-name="Cdotaccent" unicode="&#x10a;" horiz-adv-x="1229" d="M314 681 Q314 408 399.5 271.5 Q485 135 661 135 Q762 135 844 203.5 Q926 272 983 417 L1142 352 Q993 -20 659 -20 Q396 -20 254.5 161 Q113 342 113 681 Q113 1370 649 1370 Q988 1370 1115 1035 L947 970 Q910 1083 831.5 1148.5 Q753 1214 650 1214 Q479 1214 396.5 1085 Q314 956 314 681 Z M545 1446 L545 1638 L745 1638 L745 1446 L545 1446 Z " />
<glyph glyph-name="cdotaccent" unicode="&#x10b;" horiz-adv-x="1229" d="M130 542 Q130 812 259 957 Q388 1102 632 1102 Q814 1102 932 1014.5 Q1050 927 1078 779 L886 765 Q870 856 806 908.5 Q742 961 624 961 Q466 961 392.5 863 Q319 765 319 546 Q319 324 392.5 221.5 Q466 119 623 119 Q731 119 802 172 Q873 225 890 334 L1080 322 Q1067 226 1007.5 147.5 Q948 69 850 24.5 Q752 -20 631 -20 Q386 -20 258 124 Q130 268 130 542 Z M535 1292 L535 1484 L735 1484 L735 1292 L535 1292 Z " />
<glyph glyph-name="Ccaron" unicode="&#x10c;" horiz-adv-x="1229" d="M314 681 Q314 408 399.5 271.5 Q485 135 661 135 Q762 135 844 203.5 Q926 272 983 417 L1142 352 Q993 -20 659 -20 Q396 -20 254.5 161 Q113 342 113 681 Q113 1370 649 1370 Q988 1370 1115 1035 L947 970 Q910 1083 831.5 1148.5 Q753 1214 650 1214 Q479 1214 396.5 1085 Q314 956 314 681 Z M718 1446 L554 1446 L300 1685 L300 1705 L404 1705 L636 1567 L638 1567 L857 1705 L962 1705 L962 1685 L718 1446 Z " />
<glyph glyph-name="ccaron" unicode="&#x10d;" horiz-adv-x="1229" d="M130 542 Q130 812 259 957 Q388 1102 632 1102 Q814 1102 932 1014.5 Q1050 927 1078 779 L886 765 Q870 856 806 908.5 Q742 961 624 961 Q466 961 392.5 863 Q319 765 319 546 Q319 324 392.5 221.5 Q466 119 623 119 Q731 119 802 172 Q873 225 890 334 L1080 322 Q1067 226 1007.5 147.5 Q948 69 850 24.5 Q752 -20 631 -20 Q386 -20 258 124 Q130 268 130 542 Z M697 1201 L533 1201 L279 1440 L279 1460 L383 1460 L615 1322 L617 1322 L836 1460 L941 1460 L941 1440 L697 1201 Z " />
<glyph glyph-name="Dcaron" unicode="&#x10e;" horiz-adv-x="1229" d="M1125 688 Q1125 357 971.5 178.5 Q818 0 532 0 L162 0 L162 1349 L473 1349 Q802 1349 963.5 1184.5 Q1125 1020 1125 688 Z M933 688 Q933 952 823 1072.5 Q713 1193 474 1193 L353 1193 L353 156 L515 156 Q727 156 830 289 Q933 422 933 688 Z M672 1446 L508 1446 L254 1685 L254 1705 L358 1705 L590 1567 L592 1567 L811 1705 L916 1705 L916 1685 L672 1446 Z " />
<glyph glyph-name="dcaron" unicode="&#x10f;" horiz-adv-x="1229" d="M663 174 Q614 69 547.5 21.5 Q481 -26 384 -26 Q214 -26 122.5 119.5 Q31 265 31 532 Q31 801 125 949.5 Q219 1098 384 1098 Q482 1098 548 1055 Q614 1012 663 914 L665 914 L663 1065 L663 1484 L843 1484 L843 223 Q843 54 849 0 L677 0 Q673 15 670 73 Q667 131 667 174 L663 174 Z M217 538 Q217 321 263.5 217 Q310 113 415 113 Q526 113 594.5 233 Q663 353 663 554 Q663 743 596.5 854 Q530 965 416 965 Q313 965 265 861 Q217 757 217 538 Z M955 1159 L955 1192 L1034 1484 L1231 1484 L1231 1447 L1060 1159 L955 1159 Z " />
<glyph glyph-name="Dcroat" unicode="&#x110;" horiz-adv-x="1229" d="M1125 688 Q1125 357 971.5 178.5 Q818 0 532 0 L162 0 L162 597 L27 597 L27 746 L162 746 L162 1349 L473 1349 Q802 1349 963.5 1184.5 Q1125 1020 1125 688 Z M642 597 L353 597 L353 156 L515 156 Q727 156 830 289 Q933 422 933 688 Q933 952 823 1072.5 Q713 1193 474 1193 L353 1193 L353 746 L642 746 L642 597 Z " />
<glyph glyph-name="dslash" unicode="&#x111;" horiz-adv-x="1229" d="M1043 1196 L1043 223 Q1043 54 1049 0 L877 0 Q873 15 870 73 Q867 131 867 174 L862 174 Q813 69 732 21.5 Q651 -26 530 -26 Q328 -26 233 109.5 Q138 245 138 517 Q138 1072 530 1072 Q651 1072 732.5 1029 Q814 986 863 888 L865 888 L863 1039 L863 1196 L563 1196 L563 1327 L863 1327 L863 1484 L1043 1484 L1043 1327 L1174 1327 L1174 1196 L1043 1196 Z M324 523 Q324 308 383 210.5 Q442 113 577 113 Q724 113 793.5 216 Q863 319 863 538 Q863 745 796.5 842 Q730 939 579 939 Q445 939 384.5 837.5 Q324 736 324 523 Z " />
<glyph glyph-name="Emacron" unicode="&#x112;" horiz-adv-x="1229" d="M162 0 L162 1349 L1081 1349 L1081 1193 L353 1193 L353 771 L1021 771 L1021 617 L353 617 L353 156 L1122 156 L1122 0 L162 0 Z M906 1503 L355 1503 L355 1630 L906 1630 L906 1503 Z " />
<glyph glyph-name="emacron" unicode="&#x113;" horiz-adv-x="1229" d="M322 503 Q322 321 402.5 218 Q483 115 623 115 Q726 115 803.5 159.5 Q881 204 907 281 L1065 236 Q1021 112 903.5 46 Q786 -20 623 -20 Q387 -20 260 127 Q133 274 133 548 Q133 815 257.5 958.5 Q382 1102 617 1102 Q852 1102 973 959 Q1094 816 1094 527 L1094 503 L322 503 Z M619 969 Q485 969 407 881.5 Q329 794 324 641 L908 641 Q880 969 619 969 Z M890 1236 L339 1236 L339 1363 L890 1363 L890 1236 Z " />
<glyph glyph-name="Ebreve" unicode="&#x114;" horiz-adv-x="1229" d="M162 0 L162 1349 L1081 1349 L1081 1193 L353 1193 L353 771 L1021 771 L1021 617 L353 617 L353 156 L1122 156 L1122 0 L162 0 Z M613 1446 Q489 1446 405.5 1517 Q322 1588 301 1705 L428 1705 Q445 1642 488 1607 Q531 1572 613 1572 Q698 1572 740.5 1607 Q783 1642 800 1705 L927 1705 Q903 1586 820.5 1516 Q738 1446 613 1446 Z " />
<glyph glyph-name="ebreve" unicode="&#x115;" horiz-adv-x="1229" d="M322 503 Q322 321 402.5 218 Q483 115 623 115 Q726 115 803.5 159.5 Q881 204 907 281 L1065 236 Q1021 112 903.5 46 Q786 -20 623 -20 Q387 -20 260 127 Q133 274 133 548 Q133 815 257.5 958.5 Q382 1102 617 1102 Q852 1102 973 959 Q1094 816 1094 527 L1094 503 L322 503 Z M619 969 Q485 969 407 881.5 Q329 794 324 641 L908 641 Q880 969 619 969 Z M617 1201 Q493 1201 409.5 1272 Q326 1343 305 1460 L432 1460 Q449 1397 492 1362 Q535 1327 617 1327 Q702 1327 744.5 1362 Q787 1397 804 1460 L931 1460 Q907 1341 824.5 1271 Q742 1201 617 1201 Z " />
<glyph glyph-name="Edotaccent" unicode="&#x116;" horiz-adv-x="1229" d="M162 0 L162 1349 L1081 1349 L1081 1193 L353 1193 L353 771 L1021 771 L1021 617 L353 617 L353 156 L1122 156 L1122 0 L162 0 Z M515 1446 L515 1638 L715 1638 L715 1446 L515 1446 Z " />
<glyph glyph-name="edotaccent" unicode="&#x117;" horiz-adv-x="1229" d="M322 503 Q322 321 402.5 218 Q483 115 623 115 Q726 115 803.5 159.5 Q881 204 907 281 L1065 236 Q1021 112 903.5 46 Q786 -20 623 -20 Q387 -20 260 127 Q133 274 133 548 Q133 815 257.5 958.5 Q382 1102 617 1102 Q852 1102 973 959 Q1094 816 1094 527 L1094 503 L322 503 Z M619 969 Q485 969 407 881.5 Q329 794 324 641 L908 641 Q880 969 619 969 Z M517 1298 L517 1490 L717 1490 L717 1298 L517 1298 Z " />
<glyph glyph-name="Eogonek" unicode="&#x118;" horiz-adv-x="1229" d="M162 0 L162 1349 L1081 1349 L1081 1193 L353 1193 L353 771 L1021 771 L1021 617 L353 617 L353 156 L1122 156 L1122 0 L162 0 Z M1122 -400 Q1059 -427 983 -427 Q878 -427 825 -376 Q772 -325 772 -240 Q772 -172 813.5 -106.5 Q855 -41 927 0 L1060 0 Q996 -36 954.5 -98.5 Q913 -161 913 -227 Q913 -269 937.5 -293 Q962 -317 1007 -317 Q1061 -317 1122 -293 L1122 -400 Z " />
<glyph glyph-name="eogonek" unicode="&#x119;" horiz-adv-x="1229" d="M322 503 Q322 321 402.5 218 Q483 115 623 115 Q726 115 803.5 159.5 Q881 204 907 281 L1065 236 Q1021 112 903.5 46 Q786 -20 623 -20 Q387 -20 260 127 Q133 274 133 548 Q133 815 257.5 958.5 Q382 1102 617 1102 Q852 1102 973 959 Q1094 816 1094 527 L1094 503 L322 503 Z M619 969 Q485 969 407 881.5 Q329 794 324 641 L908 641 Q880 969 619 969 Z M853 -400 Q790 -427 714 -427 Q609 -427 556 -376 Q503 -325 503 -240 Q503 -172 544.5 -106.5 Q586 -41 658 0 L791 0 Q727 -36 685.5 -98.5 Q644 -161 644 -227 Q644 -269 668.5 -293 Q693 -317 738 -317 Q792 -317 853 -293 L853 -400 Z " />
<glyph glyph-name="Ecaron" unicode="&#x11a;" horiz-adv-x="1229" d="M162 0 L162 1349 L1081 1349 L1081 1193 L353 1193 L353 771 L1021 771 L1021 617 L353 617 L353 156 L1122 156 L1122 0 L162 0 Z M701 1446 L537 1446 L283 1685 L283 1705 L387 1705 L619 1567 L621 1567 L840 1705 L945 1705 L945 1685 L701 1446 Z " />
<glyph glyph-name="ecaron" unicode="&#x11b;" horiz-adv-x="1229" d="M322 503 Q322 321 402.5 218 Q483 115 623 115 Q726 115 803.5 159.5 Q881 204 907 281 L1065 236 Q1021 112 903.5 46 Q786 -20 623 -20 Q387 -20 260 127 Q133 274 133 548 Q133 815 257.5 958.5 Q382 1102 617 1102 Q852 1102 973 959 Q1094 816 1094 527 L1094 503 L322 503 Z M619 969 Q485 969 407 881.5 Q329 794 324 641 L908 641 Q880 969 619 969 Z M694 1201 L530 1201 L276 1440 L276 1460 L380 1460 L612 1322 L614 1322 L833 1460 L938 1460 L938 1440 L694 1201 Z " />
<glyph glyph-name="Gcircumflex" unicode="&#x11c;" horiz-adv-x="1229" d="M1101 133 Q872 -20 639 -20 Q389 -20 251 165.5 Q113 351 113 681 Q113 1028 245 1199 Q377 1370 642 1370 Q988 1370 1103 1039 L932 983 Q852 1214 644 1214 Q475 1214 394.5 1088 Q314 962 314 681 Q314 135 655 135 Q723 135 796 156 Q869 177 915 209 L915 545 L622 545 L622 705 L1101 705 L1101 133 Z M945 1466 L945 1446 L840 1446 L621 1584 L619 1584 L387 1446 L283 1446 L283 1466 L537 1705 L701 1705 L945 1466 Z " />
<glyph glyph-name="gcircumflex" unicode="&#x11d;" horiz-adv-x="1229" d="M615 -424 Q447 -424 345 -355 Q243 -286 215 -157 L399 -132 Q416 -207 472.5 -247.5 Q529 -288 621 -288 Q869 -288 869 27 L869 221 L867 221 Q818 118 731 65 Q644 12 524 12 Q326 12 234.5 141.5 Q143 271 143 549 Q143 832 241 965.5 Q339 1099 543 1099 Q656 1099 739.5 1046.5 Q823 994 868 897 L871 897 Q871 927 875 998.5 Q879 1070 883 1082 L1054 1082 Q1048 1028 1048 858 L1048 32 Q1048 -195 942 -309.5 Q836 -424 615 -424 Z M869 551 Q869 744 794 854.5 Q719 965 588 965 Q451 965 390 869.5 Q329 774 329 551 Q329 400 354.5 312.5 Q380 225 434 185 Q488 145 585 145 Q670 145 734.5 192.5 Q799 240 834 331.5 Q869 423 869 551 Z M936 1221 L936 1201 L831 1201 L612 1339 L610 1339 L378 1201 L274 1201 L274 1221 L528 1460 L692 1460 L936 1221 Z " />
<glyph glyph-name="Gbreve" unicode="&#x11e;" horiz-adv-x="1229" d="M1101 133 Q872 -20 639 -20 Q389 -20 251 165.5 Q113 351 113 681 Q113 1028 245 1199 Q377 1370 642 1370 Q988 1370 1103 1039 L932 983 Q852 1214 644 1214 Q475 1214 394.5 1088 Q314 962 314 681 Q314 135 655 135 Q723 135 796 156 Q869 177 915 209 L915 545 L622 545 L622 705 L1101 705 L1101 133 Z M616 1446 Q492 1446 408.5 1517 Q325 1588 304 1705 L431 1705 Q448 1642 491 1607 Q534 1572 616 1572 Q701 1572 743.5 1607 Q786 1642 803 1705 L930 1705 Q906 1586 823.5 1516 Q741 1446 616 1446 Z " />
<glyph glyph-name="gbreve" unicode="&#x11f;" horiz-adv-x="1229" d="M615 -424 Q447 -424 345 -355 Q243 -286 215 -157 L399 -132 Q416 -207 472.5 -247.5 Q529 -288 621 -288 Q869 -288 869 27 L869 221 L867 221 Q818 118 731 65 Q644 12 524 12 Q326 12 234.5 141.5 Q143 271 143 549 Q143 832 241 965.5 Q339 1099 543 1099 Q656 1099 739.5 1046.5 Q823 994 868 897 L871 897 Q871 927 875 998.5 Q879 1070 883 1082 L1054 1082 Q1048 1028 1048 858 L1048 32 Q1048 -195 942 -309.5 Q836 -424 615 -424 Z M869 551 Q869 744 794 854.5 Q719 965 588 965 Q451 965 390 869.5 Q329 774 329 551 Q329 400 354.5 312.5 Q380 225 434 185 Q488 145 585 145 Q670 145 734.5 192.5 Q799 240 834 331.5 Q869 423 869 551 Z M604 1201 Q480 1201 396.5 1272 Q313 1343 292 1460 L419 1460 Q436 1397 479 1362 Q522 1327 604 1327 Q689 1327 731.5 1362 Q774 1397 791 1460 L918 1460 Q894 1341 811.5 1271 Q729 1201 604 1201 Z " />
<glyph glyph-name="Gdotaccent" unicode="&#x120;" horiz-adv-x="1229" d="M1101 133 Q872 -20 639 -20 Q389 -20 251 165.5 Q113 351 113 681 Q113 1028 245 1199 Q377 1370 642 1370 Q988 1370 1103 1039 L932 983 Q852 1214 644 1214 Q475 1214 394.5 1088 Q314 962 314 681 Q314 135 655 135 Q723 135 796 156 Q869 177 915 209 L915 545 L622 545 L622 705 L1101 705 L1101 133 Z M525 1446 L525 1638 L725 1638 L725 1446 L525 1446 Z " />
<glyph glyph-name="gdotaccent" unicode="&#x121;" horiz-adv-x="1229" d="M615 -424 Q447 -424 345 -355 Q243 -286 215 -157 L399 -132 Q416 -207 472.5 -247.5 Q529 -288 621 -288 Q869 -288 869 27 L869 221 L867 221 Q818 118 731 65 Q644 12 524 12 Q326 12 234.5 141.5 Q143 271 143 549 Q143 832 241 965.5 Q339 1099 543 1099 Q656 1099 739.5 1046.5 Q823 994 868 897 L871 897 Q871 927 875 998.5 Q879 1070 883 1082 L1054 1082 Q1048 1028 1048 858 L1048 32 Q1048 -195 942 -309.5 Q836 -424 615 -424 Z M869 551 Q869 744 794 854.5 Q719 965 588 965 Q451 965 390 869.5 Q329 774 329 551 Q329 400 354.5 312.5 Q380 225 434 185 Q488 145 585 145 Q670 145 734.5 192.5 Q799 240 834 331.5 Q869 423 869 551 Z M506 1292 L506 1484 L706 1484 L706 1292 L506 1292 Z " />
<glyph glyph-name="Gcommaaccent" unicode="&#x122;" horiz-adv-x="1229" d="M1101 133 Q872 -20 639 -20 Q389 -20 251 165.5 Q113 351 113 681 Q113 1028 245 1199 Q377 1370 642 1370 Q988 1370 1103 1039 L932 983 Q852 1214 644 1214 Q475 1214 394.5 1088 Q314 962 314 681 Q314 135 655 135 Q723 135 796 156 Q869 177 915 209 L915 545 L622 545 L622 705 L1101 705 L1101 133 Z M475 -423 L475 -390 L554 -98 L751 -98 L751 -135 L580 -423 L475 -423 Z " />
<glyph glyph-name="gcommaaccent" unicode="&#x123;" horiz-adv-x="1229" d="M615 -424 Q447 -424 345 -355 Q243 -286 215 -157 L399 -132 Q416 -207 472.5 -247.5 Q529 -288 621 -288 Q869 -288 869 27 L869 221 L867 221 Q818 118 731 65 Q644 12 524 12 Q326 12 234.5 141.5 Q143 271 143 549 Q143 832 241 965.5 Q339 1099 543 1099 Q656 1099 739.5 1046.5 Q823 994 868 897 L871 897 Q871 927 875 998.5 Q879 1070 883 1082 L1054 1082 Q1048 1028 1048 858 L1048 32 Q1048 -195 942 -309.5 Q836 -424 615 -424 Z M869 551 Q869 744 794 854.5 Q719 965 588 965 Q451 965 390 869.5 Q329 774 329 551 Q329 400 354.5 312.5 Q380 225 434 185 Q488 145 585 145 Q670 145 734.5 192.5 Q799 240 834 331.5 Q869 423 869 551 Z M750 1536 L750 1503 L671 1211 L474 1211 L474 1248 L645 1536 L750 1536 Z " />
<glyph glyph-name="Hcircumflex" unicode="&#x124;" horiz-adv-x="1229" d="M875 0 L875 623 L353 623 L353 0 L162 0 L162 1349 L353 1349 L353 783 L875 783 L875 1349 L1066 1349 L1066 0 L875 0 Z M945 1466 L945 1446 L840 1446 L621 1584 L619 1584 L387 1446 L283 1446 L283 1466 L537 1705 L701 1705 L945 1466 Z " />
<glyph glyph-name="hcircumflex" unicode="&#x125;" horiz-adv-x="1229" d="M185 1349 L366 1349 L366 1034 Q366 975 357 837 L360 837 Q465 1042 699 1042 Q1049 1042 1049 661 L1049 0 L868 0 L868 635 Q868 771 815.5 837 Q763 903 648 903 Q524 903 444.5 812.5 Q365 722 365 567 L365 0 L185 0 L185 1349 Z M945 1465 L945 1445 L840 1445 L621 1584 L619 1584 L387 1445 L283 1445 L283 1465 L537 1705 L701 1705 L945 1465 Z " />
<glyph glyph-name="Hbar" unicode="&#x126;" horiz-adv-x="1229" d="M162 1153 L162 1349 L353 1349 L353 1153 L875 1153 L875 1349 L1066 1349 L1066 1153 L1226 1153 L1226 1005 L1066 1005 L1066 0 L875 0 L875 623 L353 623 L353 0 L162 0 L162 1005 L2 1005 L2 1153 L162 1153 Z M875 783 L875 1005 L353 1005 L353 783 L875 783 Z " />
<glyph glyph-name="hbar" unicode="&#x127;" horiz-adv-x="1229" d="M185 1484 L366 1484 L366 1327 L665 1327 L665 1196 L366 1196 L366 1064 Q366 1005 357 867 L360 867 Q465 1072 699 1072 Q1049 1072 1049 691 L1049 0 L868 0 L868 665 Q868 801 815.5 867 Q763 933 648 933 Q524 933 444.5 842.5 Q365 752 365 597 L365 0 L185 0 L185 1196 L53 1196 L53 1327 L185 1327 L185 1484 Z " />
<glyph glyph-name="Itilde" unicode="&#x128;" horiz-adv-x="1229" d="M202 1349 L1025 1349 L1025 1193 L709 1193 L709 156 L1025 156 L1025 0 L202 0 L202 156 L518 156 L518 1193 L202 1193 L202 1349 Z M771 1446 Q729 1446 687 1464.5 Q645 1483 605 1505.5 Q565 1528 526.5 1546.5 Q488 1565 453 1565 Q428 1565 413 1555.5 Q398 1546 388 1528 Q378 1510 367 1446 L256 1446 Q267 1542 290.5 1591 Q314 1640 355 1667 Q396 1694 459 1694 Q503 1694 545 1675.5 Q587 1657 627 1634.5 Q667 1612 704 1593.5 Q741 1575 774 1575 Q811 1575 831 1598.5 Q851 1622 861 1694 L973 1694 Q957 1556 907.5 1501 Q858 1446 771 1446 Z " />
<glyph glyph-name="itilde" unicode="&#x129;" horiz-adv-x="1229" d="M745 142 L1125 142 L1125 0 L143 0 L143 142 L565 142 L565 940 L246 940 L246 1082 L745 1082 L745 142 Z M770 1201 Q728 1201 686 1219.5 Q644 1238 604 1260.5 Q564 1283 525.5 1301.5 Q487 1320 452 1320 Q427 1320 412 1310.5 Q397 1301 387 1283 Q377 1265 366 1201 L255 1201 Q266 1297 289.5 1346 Q313 1395 354 1422 Q395 1449 458 1449 Q502 1449 544 1430.5 Q586 1412 626 1389.5 Q666 1367 703 1348.5 Q740 1330 773 1330 Q810 1330 830 1353.5 Q850 1377 860 1449 L972 1449 Q956 1311 906.5 1256 Q857 1201 770 1201 Z " />
<glyph glyph-name="Imacron" unicode="&#x12a;" horiz-adv-x="1229" d="M202 1349 L1025 1349 L1025 1193 L709 1193 L709 156 L1025 156 L1025 0 L202 0 L202 156 L518 156 L518 1193 L202 1193 L202 1349 Z M890 1503 L339 1503 L339 1630 L890 1630 L890 1503 Z " />
<glyph glyph-name="imacron" unicode="&#x12b;" horiz-adv-x="1229" d="M745 142 L1125 142 L1125 0 L143 0 L143 142 L565 142 L565 940 L246 940 L246 1082 L745 1082 L745 142 Z M896 1236 L345 1236 L345 1363 L896 1363 L896 1236 Z " />
<glyph glyph-name="Ibreve" unicode="&#x12c;" horiz-adv-x="1229" d="M202 1349 L1025 1349 L1025 1193 L709 1193 L709 156 L1025 156 L1025 0 L202 0 L202 156 L518 156 L518 1193 L202 1193 L202 1349 Z M613 1445 Q489 1445 405.5 1516 Q322 1587 301 1704 L428 1704 Q445 1641 488 1606 Q531 1571 613 1571 Q698 1571 740.5 1606 Q783 1641 800 1704 L927 1704 Q903 1585 820.5 1515 Q738 1445 613 1445 Z " />
<glyph glyph-name="ibreve" unicode="&#x12d;" horiz-adv-x="1229" d="M745 142 L1125 142 L1125 0 L143 0 L143 142 L565 142 L565 940 L246 940 L246 1082 L745 1082 L745 142 Z M633 1201 Q509 1201 425.5 1272 Q342 1343 321 1460 L448 1460 Q465 1397 508 1362 Q551 1327 633 1327 Q718 1327 760.5 1362 Q803 1397 820 1460 L947 1460 Q923 1341 840.5 1271 Q758 1201 633 1201 Z " />
<glyph glyph-name="Iogonek" unicode="&#x12e;" horiz-adv-x="1229" d="M202 1349 L1025 1349 L1025 1193 L709 1193 L709 156 L1025 156 L1025 0 L202 0 L202 156 L518 156 L518 1193 L202 1193 L202 1349 Z M804 -400 Q741 -427 665 -427 Q560 -427 507 -376 Q454 -325 454 -240 Q454 -172 495.5 -106.5 Q537 -41 609 0 L742 0 Q678 -36 636.5 -98.5 Q595 -161 595 -227 Q595 -269 619.5 -293 Q644 -317 689 -317 Q743 -317 804 -293 L804 -400 Z " />
<glyph glyph-name="iogonek" unicode="&#x12f;" horiz-adv-x="1229" d="M745 142 L1125 142 L1125 0 L143 0 L143 142 L565 142 L565 940 L246 940 L246 1082 L745 1082 L745 142 Z M545 1292 L545 1484 L745 1484 L745 1292 L545 1292 Z M847 -400 Q784 -427 708 -427 Q603 -427 550 -376 Q497 -325 497 -240 Q497 -172 538.5 -106.5 Q580 -41 652 0 L785 0 Q721 -36 679.5 -98.5 Q638 -161 638 -227 Q638 -269 662.5 -293 Q687 -317 732 -317 Q786 -317 847 -293 L847 -400 Z " />
<glyph glyph-name="Idot" unicode="&#x130;" horiz-adv-x="1229" d="M202 1349 L1025 1349 L1025 1193 L709 1193 L709 156 L1025 156 L1025 0 L202 0 L202 156 L518 156 L518 1193 L202 1193 L202 1349 Z M515 1446 L515 1638 L715 1638 L715 1446 L515 1446 Z " />
<glyph glyph-name="dotlessi" unicode="&#x131;" horiz-adv-x="1229" d="M745 142 L1125 142 L1125 0 L143 0 L143 142 L565 142 L565 940 L246 940 L246 1082 L745 1082 L745 142 Z " />
<glyph glyph-name="IJ" unicode="&#x132;" horiz-adv-x="1229" d="M98 1349 L289 1349 L289 0 L98 0 L98 1349 Z M768 135 Q872 135 919.5 206.5 Q967 278 967 416 L967 1193 L696 1193 L696 1349 L1157 1349 L1157 420 Q1157 209 1056 94.5 Q955 -20 767 -20 Q599 -20 506.5 66.5 Q414 153 377 350 L563 381 Q583 252 634.5 193.5 Q686 135 768 135 Z " />
<glyph glyph-name="ij" unicode="&#x133;" horiz-adv-x="1229" d="M237 1082 L416 1082 L416 0 L236 0 L237 1082 Z M216 1292 L216 1484 L416 1484 L416 1292 L216 1292 Z M881 1082 L1061 1082 L1061 -28 Q1061 -215 949 -320 Q837 -425 630 -425 Q551 -425 469 -412 Q387 -399 342 -382 L342 -242 Q492 -276 615 -276 Q743 -276 812 -210 Q881 -144 881 -25 L881 1082 Z M861 1292 L861 1484 L1061 1484 L1061 1292 L861 1292 Z " />
<glyph glyph-name="Jcircumflex" unicode="&#x134;" horiz-adv-x="1229" d="M986 420 Q986 211 881 95.5 Q776 -20 586 -20 Q415 -20 313 69 Q211 158 176 350 L363 381 Q381 263 439.5 199 Q498 135 587 135 Q796 135 796 416 L796 1193 L485 1193 L485 1349 L986 1349 L986 420 Z M1065 1466 L1065 1446 L960 1446 L741 1584 L739 1584 L507 1446 L403 1446 L403 1466 L657 1705 L821 1705 L1065 1466 Z " />
<glyph glyph-name="jcircumflex" unicode="&#x135;" horiz-adv-x="1229" d="M836 -28 Q836 -215 724 -320 Q612 -425 405 -425 Q326 -425 244 -412 Q162 -399 117 -382 L117 -242 Q267 -276 390 -276 Q518 -276 587 -210 Q656 -144 656 -25 L656 940 L249 940 L249 1082 L836 1082 L836 -28 Z M1048 1221 L1048 1201 L943 1201 L724 1339 L722 1339 L490 1201 L386 1201 L386 1221 L640 1460 L804 1460 L1048 1221 Z " />
<glyph glyph-name="Kcommaaccent" unicode="&#x136;" horiz-adv-x="1229" d="M1003 0 L516 638 L353 469 L353 0 L162 0 L162 1349 L353 1349 L353 676 L925 1349 L1150 1349 L646 777 L1227 0 L1003 0 Z M475 -423 L475 -390 L554 -98 L751 -98 L751 -135 L580 -423 L475 -423 Z " />
<glyph glyph-name="kcommaaccent" unicode="&#x137;" horiz-adv-x="1229" d="M914 0 L548 499 L416 401 L416 0 L236 0 L236 1484 L416 1484 L416 557 L891 1082 L1102 1082 L663 617 L1125 0 L914 0 Z M475 -423 L475 -390 L554 -98 L751 -98 L751 -135 L580 -423 L475 -423 Z " />
<glyph glyph-name="kgreenlandic" unicode="&#x138;" horiz-adv-x="1229" d="M914 0 L548 494 L416 396 L416 0 L236 0 L236 1082 L416 1082 L416 544 L891 1082 L1102 1082 L663 617 L1125 0 L914 0 Z " />
<glyph glyph-name="Lacute" unicode="&#x139;" horiz-adv-x="1229" d="M237 0 L237 1349 L428 1349 L428 156 L1100 156 L1100 0 L237 0 Z M304 1446 L304 1466 L531 1705 L728 1705 L728 1676 L428 1446 L304 1446 Z " />
<glyph glyph-name="lacute" unicode="&#x13a;" horiz-adv-x="1229" d="M736 142 L1116 142 L1116 0 L134 0 L134 142 L556 142 L556 1207 L267 1207 L267 1349 L736 1349 L736 142 Z M531 1445 L531 1465 L758 1705 L955 1705 L955 1676 L655 1445 L531 1445 Z " />
<glyph glyph-name="Lcommaaccent" unicode="&#x13b;" horiz-adv-x="1229" d="M237 0 L237 1349 L428 1349 L428 156 L1100 156 L1100 0 L237 0 Z M485 -423 L485 -390 L564 -98 L761 -98 L761 -135 L590 -423 L485 -423 Z " />
<glyph glyph-name="lcommaaccent" unicode="&#x13c;" horiz-adv-x="1229" d="M736 142 L1116 142 L1116 0 L134 0 L134 142 L556 142 L556 1342 L267 1342 L267 1484 L736 1484 L736 142 Z M475 -423 L475 -390 L554 -98 L751 -98 L751 -135 L580 -423 L475 -423 Z " />
<glyph glyph-name="Lcaron" unicode="&#x13d;" horiz-adv-x="1229" d="M237 0 L237 1349 L428 1349 L428 156 L1100 156 L1100 0 L237 0 Z M775 1024 L775 1057 L854 1349 L1051 1349 L1051 1312 L880 1024 L775 1024 Z " />
<glyph glyph-name="lcaron" unicode="&#x13e;" horiz-adv-x="1229" d="M687 142 L1067 142 L1067 0 L85 0 L85 142 L507 142 L507 1342 L218 1342 L218 1484 L687 1484 L687 142 Z M895 1159 L895 1192 L974 1484 L1171 1484 L1171 1447 L1000 1159 L895 1159 Z " />
<glyph glyph-name="Ldot" unicode="&#x13f;" horiz-adv-x="1229" d="M237 0 L237 1349 L428 1349 L428 156 L1100 156 L1100 0 L237 0 Z M671 608 L671 800 L871 800 L871 608 L671 608 Z " />
<glyph glyph-name="ldot" unicode="&#x140;" horiz-adv-x="1229" d="M736 142 L1116 142 L1116 0 L134 0 L134 142 L556 142 L556 1342 L267 1342 L267 1484 L736 1484 L736 142 Z M931 608 L931 800 L1131 800 L1131 608 L931 608 Z " />
<glyph glyph-name="Lslash" unicode="&#x141;" horiz-adv-x="1229" d="M237 0 L237 458 L120 397 L54 518 L237 614 L237 1349 L428 1349 L428 713 L720 864 L781 743 L428 558 L428 156 L1100 156 L1100 0 L237 0 Z " />
<glyph glyph-name="lslash" unicode="&#x142;" horiz-adv-x="1229" d="M736 884 L961 1013 L1023 900 L736 736 L736 142 L1116 142 L1116 0 L134 0 L134 142 L556 142 L556 635 L338 512 L274 624 L556 783 L556 1342 L217 1342 L217 1484 L736 1484 L736 884 Z " />
<glyph glyph-name="Nacute" unicode="&#x143;" horiz-adv-x="1229" d="M836 0 L316 1130 Q332 958 332 876 L332 0 L162 0 L162 1349 L384 1349 L912 211 Q894 355 894 485 L894 1349 L1066 1349 L1066 0 L836 0 Z M524 1446 L524 1466 L751 1705 L948 1705 L948 1676 L648 1446 L524 1446 Z " />
<glyph glyph-name="nacute" unicode="&#x144;" horiz-adv-x="1229" d="M868 0 L868 695 Q868 831 815.5 897 Q763 963 648 963 Q524 963 444.5 872.5 Q365 782 365 627 L365 0 L185 0 L185 851 Q185 1040 179 1082 L349 1082 Q350 1077 351 1055 Q352 1033 353.5 1004.5 Q355 976 357 897 L360 897 Q465 1102 706 1102 Q879 1102 964 1008.5 Q1049 915 1049 721 L1049 0 L868 0 Z M539 1201 L539 1221 L766 1460 L963 1460 L963 1431 L663 1201 L539 1201 Z " />
<glyph glyph-name="Ncommaaccent" unicode="&#x145;" horiz-adv-x="1229" d="M836 0 L316 1130 Q332 958 332 876 L332 0 L162 0 L162 1349 L384 1349 L912 211 Q894 355 894 485 L894 1349 L1066 1349 L1066 0 L836 0 Z M444 -423 L444 -390 L523 -98 L720 -98 L720 -135 L549 -423 L444 -423 Z " />
<glyph glyph-name="ncommaaccent" unicode="&#x146;" horiz-adv-x="1229" d="M868 0 L868 695 Q868 831 815.5 897 Q763 963 648 963 Q524 963 444.5 872.5 Q365 782 365 627 L365 0 L185 0 L185 851 Q185 1040 179 1082 L349 1082 Q350 1077 351 1055 Q352 1033 353.5 1004.5 Q355 976 357 897 L360 897 Q465 1102 706 1102 Q879 1102 964 1008.5 Q1049 915 1049 721 L1049 0 L868 0 Z M448 -423 L448 -390 L527 -98 L724 -98 L724 -135 L553 -423 L448 -423 Z " />
<glyph glyph-name="Ncaron" unicode="&#x147;" horiz-adv-x="1229" d="M836 0 L316 1130 Q332 958 332 876 L332 0 L162 0 L162 1349 L384 1349 L912 211 Q894 355 894 485 L894 1349 L1066 1349 L1066 0 L836 0 Z M707 1446 L543 1446 L289 1685 L289 1705 L393 1705 L625 1567 L627 1567 L846 1705 L951 1705 L951 1685 L707 1446 Z " />
<glyph glyph-name="ncaron" unicode="&#x148;" horiz-adv-x="1229" d="M868 0 L868 695 Q868 831 815.5 897 Q763 963 648 963 Q524 963 444.5 872.5 Q365 782 365 627 L365 0 L185 0 L185 851 Q185 1040 179 1082 L349 1082 Q350 1077 351 1055 Q352 1033 353.5 1004.5 Q355 976 357 897 L360 897 Q465 1102 706 1102 Q879 1102 964 1008.5 Q1049 915 1049 721 L1049 0 L868 0 Z M701 1201 L537 1201 L283 1440 L283 1460 L387 1460 L619 1322 L621 1322 L840 1460 L945 1460 L945 1440 L701 1201 Z " />
<glyph glyph-name="napostrophe" unicode="&#x149;" horiz-adv-x="1229" d="M973 0 L973 695 Q973 831 920.5 897 Q868 963 753 963 Q629 963 549.5 872.5 Q470 782 470 627 L470 0 L290 0 L290 851 Q290 1040 284 1082 L454 1082 Q455 1077 456 1055 Q457 1033 458.5 1004.5 Q460 976 462 897 L465 897 Q570 1102 811 1102 Q984 1102 1069 1008.5 Q1154 915 1154 721 L1154 0 L973 0 Z M5 1025 L5 1058 L84 1350 L281 1350 L281 1313 L110 1025 L5 1025 Z " />
<glyph glyph-name="Eng" unicode="&#x14a;" horiz-adv-x="1229" d="M1109 542 Q1109 241 1028 110.5 Q947 -20 770 -20 Q678 -20 612.5 11.5 Q547 43 485 132 L616 232 Q659 172 694 152.5 Q729 133 775 133 Q854 133 891 227 Q928 321 928 546 L928 963 Q928 1100 870 1165.5 Q812 1231 688 1231 Q547 1231 456 1139.5 Q365 1048 365 895 L365 0 L185 0 L185 1119 Q185 1308 179 1350 L349 1350 Q350 1345 351 1323 Q352 1301 353.5 1272.5 Q355 1244 357 1165 L360 1165 Q466 1370 746 1370 Q1109 1370 1109 989 L1109 542 Z " />
<glyph glyph-name="eng" unicode="&#x14b;" horiz-adv-x="1229" d="M648 963 Q524 963 444.5 872.5 Q365 782 365 627 L365 0 L185 0 L185 851 Q185 1040 179 1082 L349 1082 Q350 1077 351 1055 Q352 1033 353.5 1004.5 Q355 976 357 897 L360 897 Q465 1102 706 1102 Q879 1102 964 1008.5 Q1049 915 1049 721 L1049 -134 Q1049 -285 989 -355 Q929 -425 808 -425 Q731 -425 681 -416 L681 -277 L743 -283 Q812 -283 840 -247 Q868 -211 868 -107 L868 695 Q868 831 815.5 897 Q763 963 648 963 Z " />
<glyph glyph-name="Omacron" unicode="&#x14c;" horiz-adv-x="1229" d="M1126 681 Q1126 344 993.5 162 Q861 -20 613 -20 Q364 -20 233 159 Q102 338 102 681 Q102 1018 232 1194 Q362 1370 615 1370 Q862 1370 994 1196.5 Q1126 1023 1126 681 Z M925 681 Q925 1214 615 1214 Q303 1214 303 681 Q303 411 382 273 Q461 135 614 135 Q777 135 851 275 Q925 415 925 681 Z M890 1503 L339 1503 L339 1630 L890 1630 L890 1503 Z " />
<glyph glyph-name="omacron" unicode="&#x14d;" horiz-adv-x="1229" d="M1097 542 Q1097 269 971.5 124.5 Q846 -20 609 -20 Q377 -20 253.5 126 Q130 272 130 542 Q130 821 256.5 961.5 Q383 1102 615 1102 Q859 1102 978 963 Q1097 824 1097 542 Z M908 542 Q908 757 839.5 863 Q771 969 618 969 Q463 969 391 861 Q319 753 319 542 Q319 332 391 222.5 Q463 113 607 113 Q766 113 837 220 Q908 327 908 542 Z M890 1236 L339 1236 L339 1363 L890 1363 L890 1236 Z " />
<glyph glyph-name="Obreve" unicode="&#x14e;" horiz-adv-x="1229" d="M1126 681 Q1126 344 993.5 162 Q861 -20 613 -20 Q364 -20 233 159 Q102 338 102 681 Q102 1018 232 1194 Q362 1370 615 1370 Q862 1370 994 1196.5 Q1126 1023 1126 681 Z M925 681 Q925 1214 615 1214 Q303 1214 303 681 Q303 411 382 273 Q461 135 614 135 Q777 135 851 275 Q925 415 925 681 Z M613 1446 Q489 1446 405.5 1517 Q322 1588 301 1705 L428 1705 Q445 1642 488 1607 Q531 1572 613 1572 Q698 1572 740.5 1607 Q783 1642 800 1705 L927 1705 Q903 1586 820.5 1516 Q738 1446 613 1446 Z " />
<glyph glyph-name="obreve" unicode="&#x14f;" horiz-adv-x="1229" d="M1097 542 Q1097 269 971.5 124.5 Q846 -20 609 -20 Q377 -20 253.5 126 Q130 272 130 542 Q130 821 256.5 961.5 Q383 1102 615 1102 Q859 1102 978 963 Q1097 824 1097 542 Z M908 542 Q908 757 839.5 863 Q771 969 618 969 Q463 969 391 861 Q319 753 319 542 Q319 332 391 222.5 Q463 113 607 113 Q766 113 837 220 Q908 327 908 542 Z M613 1201 Q489 1201 405.5 1272 Q322 1343 301 1460 L428 1460 Q445 1397 488 1362 Q531 1327 613 1327 Q698 1327 740.5 1362 Q783 1397 800 1460 L927 1460 Q903 1341 820.5 1271 Q738 1201 613 1201 Z " />
<glyph glyph-name="Ohungarumlaut" unicode="&#x150;" horiz-adv-x="1229" d="M1126 681 Q1126 344 993.5 162 Q861 -20 613 -20 Q364 -20 233 159 Q102 338 102 681 Q102 1018 232 1194 Q362 1370 615 1370 Q862 1370 994 1196.5 Q1126 1023 1126 681 Z M925 681 Q925 1214 615 1214 Q303 1214 303 681 Q303 411 382 273 Q461 135 614 135 Q777 135 851 275 Q925 415 925 681 Z M694 1445 L694 1465 L901 1704 L1088 1704 L1088 1675 L788 1445 L694 1445 Z M330 1445 L330 1465 L537 1704 L724 1704 L724 1675 L424 1445 L330 1445 Z " />
<glyph glyph-name="ohungarumlaut" unicode="&#x151;" horiz-adv-x="1229" d="M1097 542 Q1097 269 971.5 124.5 Q846 -20 609 -20 Q377 -20 253.5 126 Q130 272 130 542 Q130 821 256.5 961.5 Q383 1102 615 1102 Q859 1102 978 963 Q1097 824 1097 542 Z M908 542 Q908 757 839.5 863 Q771 969 618 969 Q463 969 391 861 Q319 753 319 542 Q319 332 391 222.5 Q463 113 607 113 Q766 113 837 220 Q908 327 908 542 Z M713 1201 L713 1221 L920 1460 L1107 1460 L1107 1431 L807 1201 L713 1201 Z M349 1201 L349 1221 L556 1460 L743 1460 L743 1431 L443 1201 L349 1201 Z " />
<glyph glyph-name="OE" unicode="&#x152;" horiz-adv-x="1229" d="M609 0 Q552 -5 511 -5 Q256 -5 138 164 Q20 333 20 681 Q20 1031 138.5 1193 Q257 1355 513 1355 Q571 1355 622 1349 L1180 1349 L1180 1197 L782 1197 L782 757 L1149 757 L1149 607 L782 607 L782 152 L1221 152 L1221 0 L609 0 Z M512 140 Q584 140 612 146 L612 1203 Q574 1209 513 1209 Q350 1209 275.5 1081 Q201 953 201 681 Q201 406 278 273 Q355 140 512 140 Z " />
<glyph glyph-name="oe" unicode="&#x153;" horiz-adv-x="1229" d="M712 503 Q712 314 755.5 214.5 Q799 115 880 115 Q945 115 984 162 Q1023 209 1037 281 L1175 236 Q1112 -20 882 -20 Q700 -20 619 163 Q536 -20 353 -20 Q196 -20 112 124.5 Q28 269 28 542 Q28 821 113 961.5 Q198 1102 360 1102 Q547 1102 626 925 Q711 1102 885 1102 Q1204 1102 1204 527 L1204 503 L712 503 Z M543 542 Q543 761 503.5 865 Q464 969 373 969 Q282 969 239.5 865 Q197 761 197 542 Q197 113 367 113 Q461 113 502 217.5 Q543 322 543 542 Z M875 969 Q803 969 760 882.5 Q717 796 714 641 L1038 641 Q1030 812 990 890.5 Q950 969 875 969 Z " />
<glyph glyph-name="Racute" unicode="&#x154;" horiz-adv-x="1229" d="M957 0 L591 575 L353 575 L353 0 L162 0 L162 1349 L644 1349 Q877 1349 999 1252.5 Q1121 1156 1121 976 Q1121 827 1027.5 725 Q934 623 777 597 L1177 0 L957 0 Z M929 973 Q929 1196 625 1196 L353 1196 L353 726 L633 726 Q776 726 852.5 790 Q929 854 929 973 Z M474 1446 L474 1466 L701 1705 L898 1705 L898 1676 L598 1446 L474 1446 Z " />
<glyph glyph-name="racute" unicode="&#x155;" horiz-adv-x="1229" d="M1045 918 Q933 937 833 937 Q672 937 573 816 Q474 695 474 508 L474 0 L294 0 L294 701 Q294 777 280.5 880 Q267 983 242 1082 L413 1082 Q453 944 461 832 L466 832 Q516 944 564 996.5 Q612 1049 678 1075.5 Q744 1102 839 1102 Q943 1102 1045 1085 L1045 918 Z M491 1201 L491 1221 L718 1460 L915 1460 L915 1431 L615 1201 L491 1201 Z " />
<glyph glyph-name="Rcommaaccent" unicode="&#x156;" horiz-adv-x="1229" d="M957 0 L591 575 L353 575 L353 0 L162 0 L162 1349 L644 1349 Q877 1349 999 1252.5 Q1121 1156 1121 976 Q1121 827 1027.5 725 Q934 623 777 597 L1177 0 L957 0 Z M929 973 Q929 1196 625 1196 L353 1196 L353 726 L633 726 Q776 726 852.5 790 Q929 854 929 973 Z M472 -423 L472 -390 L551 -98 L748 -98 L748 -135 L577 -423 L472 -423 Z " />
<glyph glyph-name="rcommaaccent" unicode="&#x157;" horiz-adv-x="1229" d="M1045 918 Q933 937 833 937 Q672 937 573 816 Q474 695 474 508 L474 0 L294 0 L294 701 Q294 777 280.5 880 Q267 983 242 1082 L413 1082 Q453 944 461 832 L466 832 Q516 944 564 996.5 Q612 1049 678 1075.5 Q744 1102 839 1102 Q943 1102 1045 1085 L1045 918 Z M203 -423 L203 -390 L282 -98 L479 -98 L479 -135 L308 -423 L203 -423 Z " />
<glyph glyph-name="Rcaron" unicode="&#x158;" horiz-adv-x="1229" d="M957 0 L591 575 L353 575 L353 0 L162 0 L162 1349 L644 1349 Q877 1349 999 1252.5 Q1121 1156 1121 976 Q1121 827 1027.5 725 Q934 623 777 597 L1177 0 L957 0 Z M929 973 Q929 1196 625 1196 L353 1196 L353 726 L633 726 Q776 726 852.5 790 Q929 854 929 973 Z M682 1446 L518 1446 L264 1685 L264 1705 L368 1705 L600 1567 L602 1567 L821 1705 L926 1705 L926 1685 L682 1446 Z " />
<glyph glyph-name="rcaron" unicode="&#x159;" horiz-adv-x="1229" d="M1045 918 Q933 937 833 937 Q672 937 573 816 Q474 695 474 508 L474 0 L294 0 L294 701 Q294 777 280.5 880 Q267 983 242 1082 L413 1082 Q453 944 461 832 L466 832 Q516 944 564 996.5 Q612 1049 678 1075.5 Q744 1102 839 1102 Q943 1102 1045 1085 L1045 918 Z M721 1201 L557 1201 L303 1440 L303 1460 L407 1460 L639 1322 L641 1322 L860 1460 L965 1460 L965 1440 L721 1201 Z " />
<glyph glyph-name="Sacute" unicode="&#x15a;" horiz-adv-x="1229" d="M1128 370 Q1128 186 993.5 83 Q859 -20 610 -20 Q153 -20 79 338 L264 375 Q292 246 380 187.5 Q468 129 615 129 Q774 129 856.5 191 Q939 253 939 367 Q939 437 906.5 481 Q874 525 821 553 Q768 581 701.5 598.5 Q635 616 567 633 Q406 675 337.5 708 Q269 741 228 783.5 Q187 826 166 881 Q145 936 145 1010 Q145 1183 266.5 1276.5 Q388 1370 615 1370 Q827 1370 939 1296 Q1051 1222 1095 1046 L907 1013 Q883 1125 811 1175.5 Q739 1226 614 1226 Q331 1226 331 1013 Q331 953 357.5 915.5 Q384 878 429.5 853.5 Q475 829 535.5 813 Q596 797 665 779 Q804 744 865 720.5 Q926 697 973.5 667 Q1021 637 1055 596 Q1089 555 1108.5 500 Q1128 445 1128 370 Z M522 1446 L522 1466 L749 1705 L946 1705 L946 1676 L646 1446 L522 1446 Z " />
<glyph glyph-name="sacute" unicode="&#x15b;" horiz-adv-x="1229" d="M1060 309 Q1060 155 943.5 67.5 Q827 -20 621 -20 Q415 -20 307.5 44.5 Q200 109 167 248 L326 279 Q345 193 407.5 153.5 Q470 114 621 114 Q891 114 891 285 Q891 349 842 388.5 Q793 428 692 453 Q428 518 357 555 Q286 592 248 647.5 Q210 703 210 786 Q210 933 316 1016 Q422 1099 623 1099 Q799 1099 904 1032.5 Q1009 966 1035 839 L873 819 Q862 891 802 928 Q742 965 623 965 Q378 965 378 814 Q378 754 419.5 718 Q461 682 553 660 L672 629 Q835 589 906.5 550 Q978 511 1019 452.5 Q1060 394 1060 309 Z M488 1201 L488 1221 L715 1460 L912 1460 L912 1431 L612 1201 L488 1201 Z " />
<glyph glyph-name="Scircumflex" unicode="&#x15c;" horiz-adv-x="1229" d="M1128 370 Q1128 186 993.5 83 Q859 -20 610 -20 Q153 -20 79 338 L264 375 Q292 246 380 187.5 Q468 129 615 129 Q774 129 856.5 191 Q939 253 939 367 Q939 437 906.5 481 Q874 525 821 553 Q768 581 701.5 598.5 Q635 616 567 633 Q406 675 337.5 708 Q269 741 228 783.5 Q187 826 166 881 Q145 936 145 1010 Q145 1183 266.5 1276.5 Q388 1370 615 1370 Q827 1370 939 1296 Q1051 1222 1095 1046 L907 1013 Q883 1125 811 1175.5 Q739 1226 614 1226 Q331 1226 331 1013 Q331 953 357.5 915.5 Q384 878 429.5 853.5 Q475 829 535.5 813 Q596 797 665 779 Q804 744 865 720.5 Q926 697 973.5 667 Q1021 637 1055 596 Q1089 555 1108.5 500 Q1128 445 1128 370 Z M949 1466 L949 1446 L844 1446 L625 1584 L623 1584 L391 1446 L287 1446 L287 1466 L541 1705 L705 1705 L949 1466 Z " />
<glyph glyph-name="scircumflex" unicode="&#x15d;" horiz-adv-x="1229" d="M1060 309 Q1060 155 943.5 67.5 Q827 -20 621 -20 Q415 -20 307.5 44.5 Q200 109 167 248 L326 279 Q345 193 407.5 153.5 Q470 114 621 114 Q891 114 891 285 Q891 349 842 388.5 Q793 428 692 453 Q428 518 357 555 Q286 592 248 647.5 Q210 703 210 786 Q210 933 316 1016 Q422 1099 623 1099 Q799 1099 904 1032.5 Q1009 966 1035 839 L873 819 Q862 891 802 928 Q742 965 623 965 Q378 965 378 814 Q378 754 419.5 718 Q461 682 553 660 L672 629 Q835 589 906.5 550 Q978 511 1019 452.5 Q1060 394 1060 309 Z M960 1221 L960 1201 L855 1201 L636 1339 L634 1339 L402 1201 L298 1201 L298 1221 L552 1460 L716 1460 L960 1221 Z " />
<glyph glyph-name="Scedilla" unicode="&#x15e;" horiz-adv-x="1229" d="M1128 370 Q1128 186 993.5 83 Q859 -20 610 -20 Q153 -20 79 338 L264 375 Q292 246 380 187.5 Q468 129 615 129 Q774 129 856.5 191 Q939 253 939 367 Q939 437 906.5 481 Q874 525 821 553 Q768 581 701.5 598.5 Q635 616 567 633 Q406 675 337.5 708 Q269 741 228 783.5 Q187 826 166 881 Q145 936 145 1010 Q145 1183 266.5 1276.5 Q388 1370 615 1370 Q827 1370 939 1296 Q1051 1222 1095 1046 L907 1013 Q883 1125 811 1175.5 Q739 1226 614 1226 Q331 1226 331 1013 Q331 953 357.5 915.5 Q384 878 429.5 853.5 Q475 829 535.5 813 Q596 797 665 779 Q804 744 865 720.5 Q926 697 973.5 667 Q1021 637 1055 596 Q1089 555 1108.5 500 Q1128 445 1128 370 Z M815 -258 Q815 -444 541 -444 Q484 -444 451 -440 L451 -342 Q501 -348 537 -348 Q684 -348 684 -262 Q684 -222 653.5 -201 Q623 -180 551 -180 Q508 -180 494 -182 L559 0 L666 0 L627 -100 Q721 -103 768 -144.5 Q815 -186 815 -258 Z " />
<glyph glyph-name="scedilla" unicode="&#x15f;" horiz-adv-x="1229" d="M1060 309 Q1060 155 943.5 67.5 Q827 -20 621 -20 Q415 -20 307.5 44.5 Q200 109 167 248 L326 279 Q345 193 407.5 153.5 Q470 114 621 114 Q891 114 891 285 Q891 349 842 388.5 Q793 428 692 453 Q428 518 357 555 Q286 592 248 647.5 Q210 703 210 786 Q210 933 316 1016 Q422 1099 623 1099 Q799 1099 904 1032.5 Q1009 966 1035 839 L873 819 Q862 891 802 928 Q742 965 623 965 Q378 965 378 814 Q378 754 419.5 718 Q461 682 553 660 L672 629 Q835 589 906.5 550 Q978 511 1019 452.5 Q1060 394 1060 309 Z M825 -258 Q825 -444 551 -444 Q494 -444 461 -440 L461 -342 Q511 -348 547 -348 Q694 -348 694 -262 Q694 -222 663.5 -201 Q633 -180 561 -180 Q518 -180 504 -182 L569 0 L676 0 L637 -100 Q731 -103 778 -144.5 Q825 -186 825 -258 Z " />
<glyph glyph-name="Scaron" unicode="&#x160;" horiz-adv-x="1229" d="M1128 370 Q1128 186 993.5 83 Q859 -20 610 -20 Q153 -20 79 338 L264 375 Q292 246 380 187.5 Q468 129 615 129 Q774 129 856.5 191 Q939 253 939 367 Q939 437 906.5 481 Q874 525 821 553 Q768 581 701.5 598.5 Q635 616 567 633 Q406 675 337.5 708 Q269 741 228 783.5 Q187 826 166 881 Q145 936 145 1010 Q145 1183 266.5 1276.5 Q388 1370 615 1370 Q827 1370 939 1296 Q1051 1222 1095 1046 L907 1013 Q883 1125 811 1175.5 Q739 1226 614 1226 Q331 1226 331 1013 Q331 953 357.5 915.5 Q384 878 429.5 853.5 Q475 829 535.5 813 Q596 797 665 779 Q804 744 865 720.5 Q926 697 973.5 667 Q1021 637 1055 596 Q1089 555 1108.5 500 Q1128 445 1128 370 Z M701 1445 L537 1445 L283 1684 L283 1704 L387 1704 L619 1566 L621 1566 L840 1704 L945 1704 L945 1684 L701 1445 Z " />
<glyph glyph-name="scaron" unicode="&#x161;" horiz-adv-x="1229" d="M1060 309 Q1060 155 943.5 67.5 Q827 -20 621 -20 Q415 -20 307.5 44.5 Q200 109 167 248 L326 279 Q345 193 407.5 153.5 Q470 114 621 114 Q891 114 891 285 Q891 349 842 388.5 Q793 428 692 453 Q428 518 357 555 Q286 592 248 647.5 Q210 703 210 786 Q210 933 316 1016 Q422 1099 623 1099 Q799 1099 904 1032.5 Q1009 966 1035 839 L873 819 Q862 891 802 928 Q742 965 623 965 Q378 965 378 814 Q378 754 419.5 718 Q461 682 553 660 L672 629 Q835 589 906.5 550 Q978 511 1019 452.5 Q1060 394 1060 309 Z M706 1201 L542 1201 L288 1440 L288 1460 L392 1460 L624 1322 L626 1322 L845 1460 L950 1460 L950 1440 L706 1201 Z " />
<glyph glyph-name="Tcommaaccent" unicode="&#x162;" horiz-adv-x="1229" d="M709 1193 L709 0 L519 0 L519 1193 L76 1193 L76 1349 L1152 1349 L1152 1193 L709 1193 Z M446 -423 L446 -390 L525 -98 L722 -98 L722 -135 L551 -423 L446 -423 Z " />
<glyph glyph-name="tcommaaccent" unicode="&#x163;" horiz-adv-x="1229" d="M190 940 L190 1082 L360 1082 L418 1364 L538 1364 L538 1082 L970 1082 L970 940 L538 940 L538 288 Q538 209 580.5 171 Q623 133 720 133 Q854 133 1017 167 L1017 30 Q848 -16 682 -16 Q520 -16 439 52.5 Q358 121 358 269 L358 940 L190 940 Z M480 -423 L480 -390 L559 -98 L756 -98 L756 -135 L585 -423 L480 -423 Z " />
<glyph glyph-name="Tcaron" unicode="&#x164;" horiz-adv-x="1229" d="M709 1193 L709 0 L519 0 L519 1193 L76 1193 L76 1349 L1152 1349 L1152 1193 L709 1193 Z M701 1446 L537 1446 L283 1685 L283 1705 L387 1705 L619 1567 L621 1567 L840 1705 L945 1705 L945 1685 L701 1446 Z " />
<glyph glyph-name="tcaron" unicode="&#x165;" horiz-adv-x="1229" d="M101 940 L101 1082 L271 1082 L329 1364 L449 1364 L449 1082 L881 1082 L881 940 L449 940 L449 288 Q449 209 491.5 171 Q534 133 631 133 Q765 133 928 167 L928 30 Q759 -16 593 -16 Q431 -16 350 52.5 Q269 121 269 269 L269 940 L101 940 Z M945 1159 L945 1192 L1024 1484 L1221 1484 L1221 1447 L1050 1159 L945 1159 Z " />
<glyph glyph-name="Tbar" unicode="&#x166;" horiz-adv-x="1229" d="M709 1193 L709 769 L949 769 L949 620 L709 620 L709 0 L519 0 L519 620 L279 620 L279 769 L519 769 L519 1193 L76 1193 L76 1349 L1152 1349 L1152 1193 L709 1193 Z " />
<glyph glyph-name="tbar" unicode="&#x167;" horiz-adv-x="1229" d="M980 647 L980 515 L548 515 L548 288 Q548 209 590.5 171 Q633 133 730 133 Q864 133 1027 167 L1027 30 Q858 -16 692 -16 Q530 -16 449 52.5 Q368 121 368 269 L368 515 L200 515 L200 647 L368 647 L368 940 L200 940 L200 1082 L370 1082 L428 1364 L548 1364 L548 1082 L980 1082 L980 940 L548 940 L548 647 L980 647 Z " />
<glyph glyph-name="Utilde" unicode="&#x168;" horiz-adv-x="1229" d="M1085 490 Q1085 223 971 101.5 Q857 -20 605 -20 Q361 -20 251.5 97.5 Q142 215 142 472 L142 1349 L333 1349 L333 498 Q333 294 391.5 214.5 Q450 135 604 135 Q765 135 830 217 Q895 299 895 511 L895 1349 L1085 1349 L1085 490 Z M771 1446 Q729 1446 687 1464.5 Q645 1483 605 1505.5 Q565 1528 526.5 1546.5 Q488 1565 453 1565 Q428 1565 413 1555.5 Q398 1546 388 1528 Q378 1510 367 1446 L256 1446 Q267 1542 290.5 1591 Q314 1640 355 1667 Q396 1694 459 1694 Q503 1694 545 1675.5 Q587 1657 627 1634.5 Q667 1612 704 1593.5 Q741 1575 774 1575 Q811 1575 831 1598.5 Q851 1622 861 1694 L973 1694 Q957 1556 907.5 1501 Q858 1446 771 1446 Z " />
<glyph glyph-name="utilde" unicode="&#x169;" horiz-adv-x="1229" d="M365 1082 L365 396 Q365 240 414 179.5 Q463 119 589 119 Q718 119 793 207 Q868 295 868 455 L868 1082 L1049 1082 L1049 231 Q1049 42 1055 0 L885 0 Q884 5 883 27 Q882 49 880.5 77.5 Q879 106 877 185 L874 185 Q812 73 730.5 26.5 Q649 -20 528 -20 Q350 -20 267.5 68.5 Q185 157 185 361 L185 1082 L365 1082 Z M771 1201 Q729 1201 687 1219.5 Q645 1238 605 1260.5 Q565 1283 526.5 1301.5 Q488 1320 453 1320 Q428 1320 413 1310.5 Q398 1301 388 1283 Q378 1265 367 1201 L256 1201 Q267 1297 290.5 1346 Q314 1395 355 1422 Q396 1449 459 1449 Q503 1449 545 1430.5 Q587 1412 627 1389.5 Q667 1367 704 1348.5 Q741 1330 774 1330 Q811 1330 831 1353.5 Q851 1377 861 1449 L973 1449 Q957 1311 907.5 1256 Q858 1201 771 1201 Z " />
<glyph glyph-name="Umacron" unicode="&#x16a;" horiz-adv-x="1229" d="M1085 490 Q1085 223 971 101.5 Q857 -20 605 -20 Q361 -20 251.5 97.5 Q142 215 142 472 L142 1349 L333 1349 L333 498 Q333 294 391.5 214.5 Q450 135 604 135 Q765 135 830 217 Q895 299 895 511 L895 1349 L1085 1349 L1085 490 Z M890 1503 L339 1503 L339 1630 L890 1630 L890 1503 Z " />
<glyph glyph-name="umacron" unicode="&#x16b;" horiz-adv-x="1229" d="M365 1082 L365 396 Q365 240 414 179.5 Q463 119 589 119 Q718 119 793 207 Q868 295 868 455 L868 1082 L1049 1082 L1049 231 Q1049 42 1055 0 L885 0 Q884 5 883 27 Q882 49 880.5 77.5 Q879 106 877 185 L874 185 Q812 73 730.5 26.5 Q649 -20 528 -20 Q350 -20 267.5 68.5 Q185 157 185 361 L185 1082 L365 1082 Z M890 1236 L339 1236 L339 1363 L890 1363 L890 1236 Z " />
<glyph glyph-name="Ubreve" unicode="&#x16c;" horiz-adv-x="1229" d="M1085 490 Q1085 223 971 101.5 Q857 -20 605 -20 Q361 -20 251.5 97.5 Q142 215 142 472 L142 1349 L333 1349 L333 498 Q333 294 391.5 214.5 Q450 135 604 135 Q765 135 830 217 Q895 299 895 511 L895 1349 L1085 1349 L1085 490 Z M613 1446 Q489 1446 405.5 1517 Q322 1588 301 1705 L428 1705 Q445 1642 488 1607 Q531 1572 613 1572 Q698 1572 740.5 1607 Q783 1642 800 1705 L927 1705 Q903 1586 820.5 1516 Q738 1446 613 1446 Z " />
<glyph glyph-name="ubreve" unicode="&#x16d;" horiz-adv-x="1229" d="M365 1082 L365 396 Q365 240 414 179.5 Q463 119 589 119 Q718 119 793 207 Q868 295 868 455 L868 1082 L1049 1082 L1049 231 Q1049 42 1055 0 L885 0 Q884 5 883 27 Q882 49 880.5 77.5 Q879 106 877 185 L874 185 Q812 73 730.5 26.5 Q649 -20 528 -20 Q350 -20 267.5 68.5 Q185 157 185 361 L185 1082 L365 1082 Z M613 1201 Q489 1201 405.5 1272 Q322 1343 301 1460 L428 1460 Q445 1397 488 1362 Q531 1327 613 1327 Q698 1327 740.5 1362 Q783 1397 800 1460 L927 1460 Q903 1341 820.5 1271 Q738 1201 613 1201 Z " />
<glyph glyph-name="Uring" unicode="&#x16e;" horiz-adv-x="1229" d="M1085 490 Q1085 223 971 101.5 Q857 -20 605 -20 Q361 -20 251.5 97.5 Q142 215 142 472 L142 1349 L333 1349 L333 498 Q333 294 391.5 214.5 Q450 135 604 135 Q765 135 830 217 Q895 299 895 511 L895 1349 L1085 1349 L1085 490 Z M856 1506 Q856 1419 790.5 1362.5 Q725 1306 614 1306 Q502 1306 437 1362.5 Q372 1419 372 1506 Q372 1595 438.5 1650 Q505 1705 614 1705 Q725 1705 790.5 1649.5 Q856 1594 856 1506 Z M735 1506 Q735 1543 702.5 1566 Q670 1589 614 1589 Q559 1589 525.5 1566 Q492 1543 492 1506 Q492 1468 525.5 1445 Q559 1422 614 1422 Q670 1422 702.5 1445 Q735 1468 735 1506 Z " />
<glyph glyph-name="uring" unicode="&#x16f;" horiz-adv-x="1229" d="M365 1082 L365 396 Q365 240 414 179.5 Q463 119 589 119 Q718 119 793 207 Q868 295 868 455 L868 1082 L1049 1082 L1049 231 Q1049 42 1055 0 L885 0 Q884 5 883 27 Q882 49 880.5 77.5 Q879 106 877 185 L874 185 Q812 73 730.5 26.5 Q649 -20 528 -20 Q350 -20 267.5 68.5 Q185 157 185 361 L185 1082 L365 1082 Z M856 1348 Q856 1261 790.5 1204.5 Q725 1148 614 1148 Q502 1148 437 1204.5 Q372 1261 372 1348 Q372 1437 438.5 1492 Q505 1547 614 1547 Q725 1547 790.5 1491.5 Q856 1436 856 1348 Z M735 1348 Q735 1385 702.5 1408 Q670 1431 614 1431 Q559 1431 525.5 1408 Q492 1385 492 1348 Q492 1310 525.5 1287 Q559 1264 614 1264 Q670 1264 702.5 1287 Q735 1310 735 1348 Z " />
<glyph glyph-name="Uhungarumlaut" unicode="&#x170;" horiz-adv-x="1229" d="M1085 490 Q1085 223 971 101.5 Q857 -20 605 -20 Q361 -20 251.5 97.5 Q142 215 142 472 L142 1349 L333 1349 L333 498 Q333 294 391.5 214.5 Q450 135 604 135 Q765 135 830 217 Q895 299 895 511 L895 1349 L1085 1349 L1085 490 Z M705 1446 L705 1466 L912 1705 L1099 1705 L1099 1676 L799 1446 L705 1446 Z M341 1446 L341 1466 L548 1705 L735 1705 L735 1676 L435 1446 L341 1446 Z " />
<glyph glyph-name="uhungarumlaut" unicode="&#x171;" horiz-adv-x="1229" d="M365 1082 L365 396 Q365 240 414 179.5 Q463 119 589 119 Q718 119 793 207 Q868 295 868 455 L868 1082 L1049 1082 L1049 231 Q1049 42 1055 0 L885 0 Q884 5 883 27 Q882 49 880.5 77.5 Q879 106 877 185 L874 185 Q812 73 730.5 26.5 Q649 -20 528 -20 Q350 -20 267.5 68.5 Q185 157 185 361 L185 1082 L365 1082 Z M711 1201 L711 1221 L918 1460 L1105 1460 L1105 1431 L805 1201 L711 1201 Z M347 1201 L347 1221 L554 1460 L741 1460 L741 1431 L441 1201 L347 1201 Z " />
<glyph glyph-name="Uogonek" unicode="&#x172;" horiz-adv-x="1229" d="M1085 490 Q1085 223 971 101.5 Q857 -20 605 -20 Q361 -20 251.5 97.5 Q142 215 142 472 L142 1349 L333 1349 L333 498 Q333 294 391.5 214.5 Q450 135 604 135 Q765 135 830 217 Q895 299 895 511 L895 1349 L1085 1349 L1085 490 Z M850 -400 Q787 -427 711 -427 Q606 -427 553 -376 Q500 -325 500 -240 Q500 -172 541.5 -106.5 Q583 -41 655 0 L788 0 Q724 -36 682.5 -98.5 Q641 -161 641 -227 Q641 -269 665.5 -293 Q690 -317 735 -317 Q789 -317 850 -293 L850 -400 Z " />
<glyph glyph-name="uogonek" unicode="&#x173;" horiz-adv-x="1229" d="M365 1082 L365 396 Q365 240 414 179.5 Q463 119 589 119 Q718 119 793 207 Q868 295 868 455 L868 1082 L1049 1082 L1049 231 Q1049 42 1055 0 L885 0 Q884 5 883 27 Q882 49 880.5 77.5 Q879 106 877 185 L874 185 Q812 73 730.5 26.5 Q649 -20 528 -20 Q350 -20 267.5 68.5 Q185 157 185 361 L185 1082 L365 1082 Z M1080 -400 Q1017 -427 941 -427 Q836 -427 783 -376 Q730 -325 730 -240 Q730 -172 771.5 -106.5 Q813 -41 885 0 L1018 0 Q954 -36 912.5 -98.5 Q871 -161 871 -227 Q871 -269 895.5 -293 Q920 -317 965 -317 Q1019 -317 1080 -293 L1080 -400 Z " />
<glyph glyph-name="Wcircumflex" unicode="&#x174;" horiz-adv-x="1229" d="M1018 0 L810 0 Q736 276 697.5 420 Q659 564 616 756 Q587 631 562.5 530 Q538 429 419 0 L211 0 L0 1349 L189 1349 L298 514 Q314 383 331 168 Q363 306 384.5 396 Q406 486 528 931 L703 931 Q772 678 811.5 533 Q851 388 900 168 L935 514 L1039 1349 L1228 1349 L1018 0 Z M941 1466 L941 1446 L836 1446 L617 1584 L615 1584 L383 1446 L279 1446 L279 1466 L533 1705 L697 1705 L941 1466 Z " />
<glyph glyph-name="wcircumflex" unicode="&#x175;" horiz-adv-x="1229" d="M1018 0 L814 0 L671 471 L614 673 L575 534 L407 0 L204 0 L21 1082 L199 1082 L292 475 Q325 211 325 149 Q364 309 383 363 L518 787 L711 787 L841 362 Q873 257 896 149 Q896 179 900 224 Q904 269 910 316.5 Q916 364 922 407 Q928 450 931 475 L1032 1082 L1208 1082 L1018 0 Z M941 1221 L941 1201 L836 1201 L617 1339 L615 1339 L383 1201 L279 1201 L279 1221 L533 1460 L697 1460 L941 1221 Z " />
<glyph glyph-name="Ycircumflex" unicode="&#x176;" horiz-adv-x="1229" d="M708 584 L708 0 L520 0 L520 584 L36 1349 L241 1349 L615 738 L987 1349 L1192 1349 L708 584 Z M941 1466 L941 1446 L836 1446 L617 1584 L615 1584 L383 1446 L279 1446 L279 1466 L533 1705 L697 1705 L941 1466 Z " />
<glyph glyph-name="ycircumflex" unicode="&#x177;" horiz-adv-x="1229" d="M292 -425 Q218 -425 168 -414 L168 -279 Q206 -285 252 -285 Q331 -285 400.5 -226 Q470 -167 518 -38 L536 11 L66 1082 L258 1082 L522 440 Q613 216 620 186 L661 296 L971 1082 L1161 1082 L705 0 Q616 -235 520.5 -330 Q425 -425 292 -425 Z M941 1221 L941 1201 L836 1201 L617 1339 L615 1339 L383 1201 L279 1201 L279 1221 L533 1460 L697 1460 L941 1221 Z " />
<glyph glyph-name="Ydieresis" unicode="&#x178;" horiz-adv-x="1229" d="M708 584 L708 0 L520 0 L520 584 L36 1349 L241 1349 L615 738 L987 1349 L1192 1349 L708 584 Z M730 1445 L730 1629 L893 1629 L893 1445 L730 1445 Z M336 1445 L336 1629 L501 1629 L501 1445 L336 1445 Z " />
<glyph glyph-name="Zacute" unicode="&#x179;" horiz-adv-x="1229" d="M1155 0 L73 0 L73 143 L891 1193 L146 1193 L146 1349 L1108 1349 L1108 1210 L290 156 L1155 156 L1155 0 Z M504 1446 L504 1466 L731 1705 L928 1705 L928 1676 L628 1446 L504 1446 Z " />
<glyph glyph-name="zacute" unicode="&#x17a;" horiz-adv-x="1229" d="M147 0 L147 137 L828 943 L187 943 L187 1082 L1031 1082 L1031 945 L349 139 L1068 139 L1068 0 L147 0 Z M487 1201 L487 1221 L714 1460 L911 1460 L911 1431 L611 1201 L487 1201 Z " />
<glyph glyph-name="Zdotaccent" unicode="&#x17b;" horiz-adv-x="1229" d="M1155 0 L73 0 L73 143 L891 1193 L146 1193 L146 1349 L1108 1349 L1108 1210 L290 156 L1155 156 L1155 0 Z M528 1446 L528 1638 L728 1638 L728 1446 L528 1446 Z " />
<glyph glyph-name="zdotaccent" unicode="&#x17c;" horiz-adv-x="1229" d="M147 0 L147 137 L828 943 L187 943 L187 1082 L1031 1082 L1031 945 L349 139 L1068 139 L1068 0 L147 0 Z M512 1292 L512 1484 L712 1484 L712 1292 L512 1292 Z " />
<glyph glyph-name="Zcaron" unicode="&#x17d;" horiz-adv-x="1229" d="M1155 0 L73 0 L73 143 L891 1193 L146 1193 L146 1349 L1108 1349 L1108 1210 L290 156 L1155 156 L1155 0 Z M711 1445 L547 1445 L293 1684 L293 1704 L397 1704 L629 1566 L631 1566 L850 1704 L955 1704 L955 1684 L711 1445 Z " />
<glyph glyph-name="zcaron" unicode="&#x17e;" horiz-adv-x="1229" d="M147 0 L147 137 L828 943 L187 943 L187 1082 L1031 1082 L1031 945 L349 139 L1068 139 L1068 0 L147 0 Z M702 1201 L538 1201 L284 1440 L284 1460 L388 1460 L620 1322 L622 1322 L841 1460 L946 1460 L946 1440 L702 1201 Z " />
<glyph glyph-name="longs" unicode="&#x17f;" horiz-adv-x="1229" d="M580 0 L400 0 L400 1107 Q400 1312 496.5 1398 Q593 1484 818 1484 Q890 1484 973.5 1477.5 Q1057 1471 1099 1463 L1099 1318 Q1069 1323 977.5 1329 Q886 1335 839 1335 Q735 1335 682 1312 Q629 1289 604.5 1237 Q580 1185 580 1092 L580 0 Z " />
<glyph glyph-name="uni0180" unicode="&#x180;" horiz-adv-x="1229" d="M58 1337 L185 1337 L185 1484 L365 1484 L365 1337 L670 1337 L670 1206 L365 1206 L365 1061 Q365 996 361 904 L365 904 Q456 1104 699 1104 Q1090 1104 1090 546 Q1090 262 988.5 121 Q887 -20 698 -20 Q454 -20 364 164 L362 164 Q362 116 358.5 64 Q355 12 353 0 L179 0 Q185 54 185 223 L185 1206 L58 1206 L58 1337 Z M904 540 Q904 762 843 863.5 Q782 965 650 965 Q501 965 433 855 Q365 745 365 524 Q365 314 431.5 213.5 Q498 113 648 113 Q783 113 843.5 217.5 Q904 322 904 540 Z " />
<glyph glyph-name="uni0181" unicode="&#x181;" horiz-adv-x="1229" d="M1152 380 Q1152 200 1015 100 Q878 0 634 0 L262 0 L262 1201 Q185 1201 152 1167 Q119 1133 119 1062 Q119 1013 137 957 L-18 940 Q-35 1005 -35 1065 Q-35 1198 42.5 1273.5 Q120 1349 262 1349 L574 1349 Q1070 1349 1070 1022 Q1070 900 998.5 818.5 Q927 737 802 711 Q969 693 1060.5 604 Q1152 515 1152 380 Z M959 397 Q959 511 870 571 Q781 631 605 631 L453 631 L453 153 L619 153 Q794 153 876.5 213.5 Q959 274 959 397 Z M878 998 Q878 1105 802.5 1150.5 Q727 1196 576 1196 L453 1196 L453 780 L578 780 Q878 780 878 998 Z " />
<glyph glyph-name="uni0182" unicode="&#x182;" horiz-adv-x="1229" d="M1172 393 Q1172 210 1044.5 105 Q917 0 687 0 L162 0 L162 1349 L1080 1349 L1080 1193 L353 1193 L353 783 L675 783 Q917 783 1044.5 681 Q1172 579 1172 393 Z M980 387 Q980 508 898 565.5 Q816 623 652 623 L353 623 L353 151 L660 151 Q824 151 902 207 Q980 263 980 387 Z " />
<glyph glyph-name="uni0183" unicode="&#x183;" horiz-adv-x="1229" d="M1090 546 Q1090 262 988.5 121 Q887 -20 698 -20 Q454 -20 364 164 L362 164 Q362 116 358.5 64 Q355 12 353 0 L179 0 Q185 54 185 223 L185 1484 L919 1484 L919 1325 L365 1325 L365 1061 Q365 996 361 904 L365 904 Q456 1104 699 1104 Q1090 1104 1090 546 Z M904 540 Q904 762 843 863.5 Q782 965 650 965 Q501 965 433 855 Q365 745 365 524 Q365 314 431.5 213.5 Q498 113 648 113 Q783 113 843.5 217.5 Q904 322 904 540 Z " />
<glyph glyph-name="uni0184" unicode="&#x184;" horiz-adv-x="1229" d="M1172 393 Q1172 210 1044.5 105 Q917 0 687 0 L162 0 L162 951 L4 1116 L4 1149 L297 1349 L353 1349 L353 783 L675 783 Q917 783 1044.5 681 Q1172 579 1172 393 Z M980 387 Q980 508 898 565.5 Q816 623 652 623 L353 623 L353 151 L660 151 Q824 151 902 207 Q980 263 980 387 Z " />
<glyph glyph-name="uni0185" unicode="&#x185;" horiz-adv-x="1229" d="M1090 546 Q1090 262 988.5 121 Q887 -20 698 -20 Q454 -20 364 164 L362 164 Q362 116 358.5 64 Q355 12 353 0 L179 0 Q185 54 185 223 L185 1086 L57 1266 L57 1299 L314 1484 L365 1484 L365 1061 Q365 996 361 904 L365 904 Q456 1104 699 1104 Q1090 1104 1090 546 Z M904 540 Q904 762 843 863.5 Q782 965 650 965 Q501 965 433 855 Q365 745 365 524 Q365 314 431.5 213.5 Q498 113 648 113 Q783 113 843.5 217.5 Q904 322 904 540 Z " />
<glyph glyph-name="uni0186" unicode="&#x186;" horiz-adv-x="1229" d="M915 681 Q915 954 833 1084 Q751 1214 579 1214 Q476 1214 397.5 1148.5 Q319 1083 282 970 L114 1035 Q241 1370 580 1370 Q1116 1370 1116 681 Q1116 342 974.5 161 Q833 -20 570 -20 Q236 -20 87 352 L246 417 Q302 273 384.5 204 Q467 135 568 135 Q744 135 829.5 271.5 Q915 408 915 681 Z " />
<glyph glyph-name="uni0187" unicode="&#x187;" horiz-adv-x="1229" d="M303 681 Q303 408 388.5 271.5 Q474 135 650 135 Q751 135 833 203.5 Q915 272 972 417 L1131 352 Q1051 159 930 69.5 Q809 -20 648 -20 Q385 -20 243.5 161 Q102 342 102 681 Q102 1370 638 1370 Q824 1370 946 1265 L946 1274 Q946 1412 1014.5 1491 Q1083 1570 1205 1570 Q1259 1570 1325 1555 L1325 1398 Q1280 1416 1237 1416 Q1166 1416 1135 1380.5 Q1104 1345 1104 1268 L1104 1035 L936 970 Q899 1083 820.5 1148.5 Q742 1214 639 1214 Q468 1214 385.5 1085 Q303 956 303 681 Z " />
<glyph glyph-name="uni0188" unicode="&#x188;" horiz-adv-x="1229" d="M130 542 Q130 812 259 957 Q388 1102 632 1102 Q806 1102 923 1021 Q930 1147 997 1215 Q1064 1283 1179 1283 Q1226 1283 1278 1271 L1278 1121 Q1242 1137 1199 1137 Q1133 1137 1105.5 1101.5 Q1078 1066 1078 989 L1078 779 L886 765 Q870 856 806 908.5 Q742 961 624 961 Q466 961 392.5 863 Q319 765 319 546 Q319 324 392.5 221.5 Q466 119 623 119 Q731 119 802 172 Q873 225 890 334 L1080 322 Q1067 226 1007.5 147.5 Q948 69 850 24.5 Q752 -20 631 -20 Q386 -20 258 124 Q130 268 130 542 Z " />
<glyph glyph-name="uni0189" unicode="&#x189;" horiz-adv-x="1229" d="M1125 688 Q1125 357 971.5 178.5 Q818 0 532 0 L162 0 L162 597 L27 597 L27 746 L162 746 L162 1349 L473 1349 Q802 1349 963.5 1184.5 Q1125 1020 1125 688 Z M642 597 L353 597 L353 156 L515 156 Q727 156 830 289 Q933 422 933 688 Q933 952 823 1072.5 Q713 1193 474 1193 L353 1193 L353 746 L642 746 L642 597 Z " />
<glyph glyph-name="uni018A" unicode="&#x18a;" horiz-adv-x="1229" d="M1125 688 Q1125 357 971.5 178.5 Q818 0 532 0 L262 0 L262 1201 Q185 1201 152 1167 Q119 1133 119 1062 Q119 1013 137 957 L-18 940 Q-35 1005 -35 1065 Q-35 1198 42.5 1273.5 Q120 1349 262 1349 L473 1349 Q802 1349 963.5 1184.5 Q1125 1020 1125 688 Z M933 688 Q933 952 823 1072.5 Q713 1193 474 1193 L453 1193 L453 156 L515 156 Q727 156 830 289 Q933 422 933 688 Z " />
<glyph glyph-name="uni018B" unicode="&#x18b;" horiz-adv-x="1229" d="M57 393 Q57 579 184.5 681 Q312 783 554 783 L876 783 L876 1193 L149 1193 L149 1349 L1067 1349 L1067 0 L542 0 Q313 0 185 104.5 Q57 209 57 393 Z M249 387 Q249 263 327 207 Q405 151 569 151 L876 151 L876 623 L577 623 Q413 623 331 565.5 Q249 508 249 387 Z " />
<glyph glyph-name="uni018C" unicode="&#x18c;" horiz-adv-x="1229" d="M862 174 Q813 69 732 21.5 Q651 -26 530 -26 Q328 -26 233 113 Q138 252 138 532 Q138 1098 530 1098 Q651 1098 732.5 1055 Q814 1012 863 914 L865 914 L863 1065 L863 1325 L309 1325 L309 1484 L1043 1484 L1043 223 Q1043 54 1049 0 L877 0 Q874 6 870.5 69 Q867 132 867 174 L862 174 Z M324 538 Q324 314 383.5 213.5 Q443 113 577 113 Q723 113 793 218.5 Q863 324 863 554 Q863 768 796 866.5 Q729 965 579 965 Q444 965 384 862 Q324 759 324 538 Z " />
<glyph glyph-name="uni018D" unicode="&#x18d;" horiz-adv-x="1229" d="M1097 542 Q1097 30 658 0 L1009 -293 L1009 -425 L233 -425 L233 -280 L752 -280 Q652 -191 541 -103.5 Q430 -16 325 72 Q216 163 173 268.5 Q130 374 130 542 Q130 821 256.5 961.5 Q383 1102 615 1102 Q859 1102 978 963 Q1097 824 1097 542 Z M908 542 Q908 757 839.5 863 Q771 969 618 969 Q465 969 392 864 Q319 759 319 542 Q319 342 392 237 Q465 132 607 132 Q762 132 835 233.5 Q908 335 908 542 Z " />
<glyph glyph-name="uni018E" unicode="&#x18e;" horiz-adv-x="1229" d="M107 0 L107 156 L876 156 L876 617 L208 617 L208 771 L876 771 L876 1193 L148 1193 L148 1349 L1067 1349 L1067 0 L107 0 Z " />
<glyph glyph-name="&amp;#x18f;" unicode="&#x18f;" horiz-adv-x="1229" d="M155 1134 Q231 1251 339.5 1310.5 Q448 1370 603 1370 Q1125 1370 1125 681 Q1125 344 992.5 162 Q860 -20 612 -20 Q364 -20 233.5 157 Q103 334 103 677 L103 757 L924 757 Q904 1214 598 1214 Q400 1214 300 1044 L155 1134 Z M613 135 Q904 135 924 603 L301 603 Q312 371 391.5 253 Q471 135 613 135 Z " />
<glyph glyph-name="&amp;#x4d8;" unicode="&#x4d8;" horiz-adv-x="1229" d="M155 1134 Q231 1251 339.5 1310.5 Q448 1370 603 1370 Q1125 1370 1125 681 Q1125 344 992.5 162 Q860 -20 612 -20 Q364 -20 233.5 157 Q103 334 103 677 L103 757 L924 757 Q904 1214 598 1214 Q400 1214 300 1044 L155 1134 Z M613 135 Q904 135 924 603 L301 603 Q312 371 391.5 253 Q471 135 613 135 Z " />
<glyph glyph-name="uni0190" unicode="&#x190;" horiz-adv-x="1229" d="M608 -20 Q370 -20 231.5 84.5 Q93 189 93 371 Q93 504 183.5 596 Q274 688 415 706 Q135 773 135 1000 Q135 1163 266 1266 Q397 1369 614 1369 Q809 1369 933 1291 Q1057 1213 1129 1035 L961 970 Q908 1101 821 1157.5 Q734 1214 611 1214 Q479 1214 402.5 1153.5 Q326 1093 326 990 Q326 772 680 772 L751 772 L751 624 L680 624 Q478 624 382 563.5 Q286 503 286 378 Q286 266 374.5 199.5 Q463 133 615 133 Q878 133 997 405 L1152 328 Q1065 140 932.5 60 Q800 -20 608 -20 Z " />
<glyph glyph-name="uni0191" unicode="&#x191;" horiz-adv-x="1229" d="M385 1193 L385 699 L1061 699 L1061 541 L385 541 L385 -130 Q385 -273 313.5 -349 Q242 -425 111 -425 Q50 -425 -32 -405 L3 -249 Q54 -266 90 -266 Q194 -266 194 -109 L194 1349 L1085 1349 L1085 1193 L385 1193 Z " />
<glyph glyph-name="florin" unicode="&#x192;" horiz-adv-x="1229" d="M909 1369 Q988 1369 1069 1346 L1029 1210 Q975 1229 899 1229 Q815 1229 777 1198.5 Q739 1168 719 1073 L692 936 L994 936 L969 805 L666 805 L423 -425 L243 -425 L486 805 L234 805 L261 936 L512 936 L541 1088 Q577 1242 666.5 1305.5 Q756 1369 909 1369 Z " />
<glyph glyph-name="uni0193" unicode="&#x193;" horiz-adv-x="1229" d="M1101 133 Q872 -20 639 -20 Q389 -20 251 165.5 Q113 351 113 681 Q113 1028 245 1199 Q377 1370 642 1370 Q829 1370 945 1269 L945 1278 Q945 1416 1013.5 1495 Q1082 1574 1204 1574 Q1258 1574 1324 1559 L1324 1402 Q1268 1420 1236 1420 Q1165 1420 1134 1384.5 Q1103 1349 1103 1272 L1103 1039 L932 983 Q851 1214 644 1214 Q475 1214 394.5 1088 Q314 962 314 681 Q314 135 655 135 Q721 135 791 154.5 Q861 174 915 209 L915 545 L622 545 L622 705 L1101 705 L1101 133 Z " />
<glyph glyph-name="uni0194" unicode="&#x194;" horiz-adv-x="1229" d="M616 -425 Q500 -425 433.5 -357 Q367 -289 367 -175 Q367 -75 444 67 L514 199 L5 1349 L206 1349 L616 380 L1022 1349 L1223 1349 L714 200 L786 69 Q865 -74 865 -175 Q865 -289 798 -357 Q731 -425 616 -425 Z M702 -173 Q702 -132 688.5 -84.5 Q675 -37 616 84 Q558 -37 544 -84.5 Q530 -132 530 -173 Q530 -222 553 -248.5 Q576 -275 616 -275 Q656 -275 679 -249 Q702 -223 702 -173 Z " />
<glyph glyph-name="uni0195" unicode="&#x195;" horiz-adv-x="1229" d="M841 -20 Q741 -20 679.5 18.5 Q618 57 588.5 134.5 Q559 212 559 361 L559 706 Q559 855 529 909 Q499 963 429 963 Q360 963 317 876 Q274 789 274 638 L274 0 L105 0 L105 1484 L274 1484 L274 1098 Q274 976 267 927 L270 927 Q348 1102 494 1102 Q615 1102 671.5 1016 Q728 930 728 741 L728 384 Q728 232 754 174.5 Q780 117 840 117 Q902 117 928.5 177 Q955 237 955 384 L955 1082 L1124 1082 L1124 365 Q1124 -20 841 -20 Z " />
<glyph glyph-name="uni0196" unicode="&#x196;" horiz-adv-x="1229" d="M736 142 L1116 142 L1116 0 L134 0 L134 142 L556 142 L556 1342 L267 1342 L267 1484 L736 1484 L736 142 Z " />
<glyph glyph-name="uni0197" unicode="&#x197;" horiz-adv-x="1229" d="M202 1349 L1025 1349 L1025 1193 L709 1193 L709 783 L916 783 L916 642 L709 642 L709 156 L1025 156 L1025 0 L202 0 L202 156 L518 156 L518 642 L311 642 L311 783 L518 783 L518 1193 L202 1193 L202 1349 Z " />
<glyph glyph-name="uni0198" unicode="&#x198;" horiz-adv-x="1229" d="M1003 0 L524 627 L353 449 L353 0 L162 0 L162 1074 Q162 1217 238 1293.5 Q314 1370 454 1370 Q520 1370 586 1355 L586 1190 Q536 1208 479 1208 Q353 1208 353 1060 L353 656 L925 1349 L1150 1349 L654 762 L1227 0 L1003 0 Z " />
<glyph glyph-name="uni0199" unicode="&#x199;" horiz-adv-x="1229" d="M914 0 L548 499 L416 401 L416 0 L236 0 L236 1188 Q236 1331 312 1407.5 Q388 1484 528 1484 Q594 1484 660 1469 L660 1304 Q610 1322 544 1322 Q416 1322 416 1174 L416 557 L891 1082 L1102 1082 L663 617 L1125 0 L914 0 Z " />
<glyph glyph-name="uni019A" unicode="&#x19a;" horiz-adv-x="1229" d="M736 813 L945 813 L945 672 L736 672 L736 142 L1116 142 L1116 0 L134 0 L134 142 L556 142 L556 672 L330 672 L330 813 L556 813 L556 1342 L267 1342 L267 1484 L736 1484 L736 813 Z " />
<glyph glyph-name="uni019B" unicode="&#x19b;" horiz-adv-x="1229" d="M814 1275 L654 1215 L1106 0 L916 0 L709 579 Q668 691 644 793 Q629 747 608 694.5 Q587 642 301 0 L114 0 L563 970 L494 1160 L311 1092 L265 1210 L453 1279 L380 1484 L557 1484 L611 1337 L768 1394 L814 1275 Z " />
<glyph glyph-name="uni019C" unicode="&#x19c;" horiz-adv-x="1229" d="M799 -20 Q663 -20 601 147 Q569 71 510.5 25.5 Q452 -20 375 -20 Q223 -20 154 86.5 Q85 193 85 412 L85 1349 L248 1349 L248 428 Q248 273 279.5 204 Q311 135 391 135 Q464 135 497 200 Q530 265 530 400 L530 1349 L692 1349 L692 416 Q692 270 722.5 202.5 Q753 135 825 135 Q974 135 974 418 L974 1349 L1136 1349 L1136 231 Q1136 111 1145 0 L1007 0 L999 134 Q937 -20 799 -20 Z " />
<glyph glyph-name="uni019D" unicode="&#x19d;" horiz-adv-x="1229" d="M836 0 L316 1130 Q332 954 332 876 L332 -130 Q332 -276 264 -350.5 Q196 -425 68 -425 Q-3 -425 -53 -414 L-53 -252 Q-9 -266 47 -266 Q162 -266 162 -109 L162 1349 L384 1349 L912 211 Q894 355 894 485 L894 1349 L1066 1349 L1066 0 L836 0 Z " />
<glyph glyph-name="uni019E" unicode="&#x19e;" horiz-adv-x="1229" d="M868 -425 L868 695 Q868 831 815.5 897 Q763 963 648 963 Q524 963 444.5 872.5 Q365 782 365 627 L365 0 L185 0 L185 851 Q185 1040 179 1082 L349 1082 Q350 1077 351 1055 Q352 1033 353.5 1004.5 Q355 976 357 897 L360 897 Q465 1102 706 1102 Q879 1102 964 1008.5 Q1049 915 1049 721 L1049 -425 L868 -425 Z " />
<glyph glyph-name="uni019F" unicode="&#x19f;" horiz-adv-x="1229" d="M1126 681 Q1126 344 993.5 162 Q861 -20 613 -20 Q364 -20 233 159 Q102 338 102 681 Q102 1026 234.5 1198 Q367 1370 615 1370 Q862 1370 994 1196.5 Q1126 1023 1126 681 Z M614 135 Q905 135 925 603 L303 603 Q314 371 393 253 Q472 135 614 135 Z M615 1214 Q469 1214 391.5 1101.5 Q314 989 303 757 L925 757 Q903 1214 615 1214 Z " />
<glyph glyph-name="Ohorn" unicode="&#x1a0;" horiz-adv-x="1229" d="M1126 681 Q1126 344 993.5 162 Q861 -20 613 -20 Q364 -20 233 159 Q102 338 102 681 Q102 1026 234.5 1198 Q367 1370 615 1370 Q947 1370 1065 1065 Q1147 1128 1147 1242 L1059 1242 L1059 1409 L1254 1409 L1254 1303 Q1254 1091 1092 981 Q1126 854 1126 681 Z M925 681 Q925 1214 615 1214 Q303 1214 303 681 Q303 411 382 273 Q461 135 614 135 Q777 135 851 275 Q925 415 925 681 Z " />
<glyph glyph-name="ohorn" unicode="&#x1a1;" horiz-adv-x="1229" d="M1097 542 Q1097 269 971.5 124.5 Q846 -20 609 -20 Q377 -20 253.5 126 Q130 272 130 542 Q130 821 256.5 961.5 Q383 1102 615 1102 Q1012 1102 1081 725 Q1176 792 1176 921 L1088 921 L1088 1088 L1283 1088 L1283 982 Q1283 868 1235 778.5 Q1187 689 1093 634 Q1097 590 1097 542 Z M908 542 Q908 757 839.5 863 Q771 969 618 969 Q465 969 392 864 Q319 759 319 542 Q319 332 391 222.5 Q463 113 607 113 Q766 113 837 220 Q908 327 908 542 Z " />
<glyph glyph-name="uni01A2" unicode="&#x1a2;" horiz-adv-x="1229" d="M791 75 Q658 -20 511 -20 Q285 -20 167.5 159 Q50 338 50 681 Q50 1005 171 1187.5 Q292 1370 501 1370 Q626 1370 739 1299 L1094 1363 L1137 1363 L1137 -424 L957 -424 L957 1163 L791 1163 L791 75 Z M611 1171 Q568 1214 497 1214 Q379 1214 311.5 1073 Q244 932 244 681 Q244 428 314.5 281.5 Q385 135 511 135 Q573 135 611 167 L611 1171 Z " />
<glyph glyph-name="uni01A3" unicode="&#x1a3;" horiz-adv-x="1229" d="M987 -425 L987 918 L808 918 L808 63 Q751 24 674.5 2 Q598 -20 517 -20 Q280 -20 159 124.5 Q38 269 38 542 Q38 1102 523 1102 Q605 1102 679.5 1080.5 Q754 1059 805 1028 L1119 1093 L1161 1093 L1161 -425 L987 -425 Z M526 969 Q368 969 297.5 865.5 Q227 762 227 542 Q227 328 296.5 220.5 Q366 113 515 113 Q579 113 635 135 L634 949 Q582 969 526 969 Z " />
<glyph glyph-name="uni01A4" unicode="&#x1a4;" horiz-adv-x="1229" d="M1129 945 Q1129 820 1069.5 722 Q1010 624 899.5 569 Q789 514 644 514 L453 514 L453 0 L262 0 L262 1201 Q185 1201 152 1167 Q119 1133 119 1062 Q119 1013 137 957 L-18 940 Q-35 1005 -35 1065 Q-35 1198 42.5 1273.5 Q120 1349 262 1349 L632 1349 Q870 1349 999.5 1242.5 Q1129 1136 1129 945 Z M937 942 Q937 1196 609 1196 L453 1196 L453 665 L617 665 Q766 665 851.5 738 Q937 811 937 942 Z " />
<glyph glyph-name="uni01A5" unicode="&#x1a5;" horiz-adv-x="1229" d="M1090 546 Q1090 -20 698 -20 Q575 -20 490.5 27 Q406 74 367 164 L362 164 Q366 156 366 -2 L366 -425 L185 -425 L185 1188 Q185 1333 258 1408.5 Q331 1484 474 1484 Q528 1484 567 1476 L604 1468 L604 1302 Q548 1322 488 1322 Q363 1322 363 1174 L363 904 L367 904 Q417 1007 494.5 1055.5 Q572 1104 698 1104 Q896 1104 993 967.5 Q1090 831 1090 546 Z M904 546 Q904 767 844 866 Q784 965 651 965 Q500 965 433 855.5 Q366 746 366 524 Q366 311 433 212 Q500 113 649 113 Q782 113 843 214 Q904 315 904 546 Z " />
<glyph glyph-name="uni01A6" unicode="&#x1a6;" horiz-adv-x="1229" d="M969 -319 L587 422 L353 422 L353 0 L162 0 L162 1349 L353 1349 L353 1196 L644 1196 Q877 1196 999 1099.5 Q1121 1003 1121 823 Q1121 676 1027 573 Q933 470 773 444 L1189 -319 L969 -319 Z M929 820 Q929 1043 625 1043 L353 1043 L353 573 L633 573 Q779 573 854 637 Q929 701 929 820 Z " />
<glyph glyph-name="uni01A7" unicode="&#x1a7;" horiz-adv-x="1229" d="M100 365 Q100 446 125.5 509.5 Q151 573 198.5 620 Q246 667 326.5 704 Q407 741 568 779 Q637 795 700.5 811 Q764 827 813.5 852 Q863 877 892.5 915 Q922 953 922 1013 Q922 1226 639 1226 Q371 1226 326 1013 L143 1046 Q190 1218 308.5 1294 Q427 1370 644 1370 Q869 1370 988.5 1276.5 Q1108 1183 1108 1010 Q1108 913 1065.5 841 Q1023 769 932 720 Q841 671 666 633 Q493 595 428 564 Q363 533 326 486 Q289 439 289 367 Q289 252 374.5 190.5 Q460 129 619 129 Q766 129 851.5 189 Q937 249 964 375 L1144 338 Q1070 -20 615 -20 Q368 -20 234 79 Q100 178 100 365 Z " />
<glyph glyph-name="uni01A8" unicode="&#x1a8;" horiz-adv-x="1229" d="M169 284 Q169 346 190.5 395.5 Q212 445 254.5 484.5 Q297 524 364 556 Q431 588 577 627 Q642 644 696 658.5 Q750 673 789 693.5 Q828 714 849.5 743.5 Q871 773 871 819 Q871 965 626 965 Q407 965 376 819 L218 841 Q244 967 349 1033 Q454 1099 630 1099 Q1039 1099 1039 806 Q1039 721 994.5 660 Q950 599 868 556.5 Q786 514 538 453 Q434 427 386 387.5 Q338 348 338 285 Q338 204 409 159 Q480 114 608 114 Q741 114 811.5 155 Q882 196 903 279 L1058 245 Q1025 109 919.5 44.5 Q814 -20 608 -20 Q398 -20 283.5 56 Q169 132 169 284 Z " />
<glyph glyph-name="uni01A9" unicode="&#x1a9;" horiz-adv-x="1229" d="M108 0 L108 162 L646 711 L125 1188 L125 1349 L1124 1349 L1124 1193 L340 1193 L798 778 L798 654 L308 156 L1185 156 L1185 0 L108 0 Z " />
<glyph glyph-name="uni01AA" unicode="&#x1aa;" horiz-adv-x="1229" d="M223 1302 Q223 1392 278.5 1442.5 Q334 1493 428 1493 Q562 1493 628 1417 Q694 1341 694 1204 L694 -124 Q694 -192 723.5 -229.5 Q753 -267 811 -267 Q865 -267 917 -254 L917 -412 Q848 -425 783 -425 Q655 -425 584.5 -348.5 Q514 -272 514 -129 L514 1148 Q499 1137 468.5 1128 Q438 1119 411 1119 Q327 1119 275 1170.5 Q223 1222 223 1302 Z M300 1307 Q300 1258 330 1228 Q360 1198 408 1198 Q457 1198 487 1228 Q517 1258 517 1307 Q517 1355 487.5 1385 Q458 1415 408 1415 Q360 1415 330 1385 Q300 1355 300 1307 Z " />
<glyph glyph-name="uni01AB" unicode="&#x1ab;" horiz-adv-x="1229" d="M190 940 L190 1082 L360 1082 L418 1364 L538 1364 L538 1082 L970 1082 L970 940 L538 940 L538 288 Q538 209 580.5 171 Q623 133 720 133 Q854 133 1017 167 L1017 -143 Q1017 -425 764 -425 Q697 -425 629 -408 L629 -248 Q685 -266 735 -266 Q795 -266 822 -233 Q849 -200 849 -129 L849 -4 Q758 -16 682 -16 Q520 -16 439 52.5 Q358 121 358 269 L358 940 L190 940 Z " />
<glyph glyph-name="uni01AC" unicode="&#x1ac;" horiz-adv-x="1229" d="M709 1193 L709 0 L519 0 L519 1193 L317 1193 Q240 1193 207 1163 Q174 1133 174 1062 Q174 1013 192 957 L37 940 Q20 1014 20 1075 Q20 1209 97.5 1279 Q175 1349 326 1349 L1152 1349 L1152 1193 L709 1193 Z " />
<glyph glyph-name="uni01AD" unicode="&#x1ad;" horiz-adv-x="1229" d="M190 940 L190 1082 L365 1082 L365 1192 Q365 1344 435 1421 Q505 1498 639 1498 Q705 1498 759 1484 L759 1316 Q703 1336 657 1336 Q594 1336 566 1299.5 Q538 1263 538 1188 L538 1082 L970 1082 L970 940 L538 940 L538 288 Q538 209 580.5 171 Q623 133 720 133 Q854 133 1017 167 L1017 30 Q848 -16 682 -16 Q520 -16 439 52.5 Q358 121 358 269 L358 940 L190 940 Z " />
<glyph glyph-name="uni01AE" unicode="&#x1ae;" horiz-adv-x="1229" d="M709 1193 L709 -109 Q709 -190 733 -228 Q757 -266 809 -266 Q869 -266 919 -250 L919 -408 Q849 -425 787 -425 Q658 -425 588.5 -351 Q519 -277 519 -141 L519 1193 L76 1193 L76 1349 L1152 1349 L1152 1193 L709 1193 Z " />
<glyph glyph-name="Uhorn" unicode="&#x1af;" horiz-adv-x="1229" d="M1025 1019 Q1120 1048 1164.5 1103.5 Q1209 1159 1209 1242 L1121 1242 L1121 1409 L1316 1409 L1316 1303 Q1316 1150 1243 1054 Q1170 958 1025 925 L1025 490 Q1025 225 918.5 102.5 Q812 -20 575 -20 Q348 -20 245 97 Q142 214 142 472 L142 1349 L333 1349 L333 498 Q333 290 385.5 212.5 Q438 135 574 135 Q719 135 777 216 Q835 297 835 511 L835 1349 L1025 1349 L1025 1019 Z " />
<glyph glyph-name="uhorn" unicode="&#x1b0;" horiz-adv-x="1229" d="M360 1082 L360 396 Q360 239 403 179 Q446 119 564 119 Q685 119 754 207.5 Q823 296 823 455 L823 1082 L1004 1082 L1004 686 Q1086 721 1121 773 Q1156 825 1156 915 L1068 915 L1068 1082 L1263 1082 L1263 976 Q1263 827 1201.5 734.5 Q1140 642 1004 593 L1004 231 Q1004 42 1010 0 L840 0 Q839 5 838 27 Q837 49 835.5 77.5 Q834 106 832 185 L829 185 Q765 70 689 25 Q613 -20 503 -20 Q333 -20 256.5 68.5 Q180 157 180 361 L180 1082 L360 1082 Z " />
<glyph glyph-name="uni01B1" unicode="&#x1b1;" horiz-adv-x="1229" d="M614 -21 Q369 -21 225.5 141 Q82 303 82 578 Q82 767 169 931.5 Q256 1096 419 1204 Q302 1193 258 1193 L58 1193 L58 1349 L541 1349 L541 1125 Q407 1027 342 895 Q277 763 277 591 Q277 367 363 251 Q449 135 613 135 Q781 135 866 253 Q951 371 951 591 Q951 764 885.5 895.5 Q820 1027 687 1125 L687 1349 L1170 1349 L1170 1193 L970 1193 Q926 1193 809 1204 Q972 1095 1059 930.5 Q1146 766 1146 578 Q1146 302 1002.5 140.5 Q859 -21 614 -21 Z " />
<glyph glyph-name="uni01B2" unicode="&#x1b2;" horiz-adv-x="1229" d="M601 -20 Q363 -20 252.5 104.5 Q142 229 142 482 L142 1349 L333 1349 L333 498 Q333 308 395 221.5 Q457 135 603 135 Q713 135 787 212.5 Q861 290 898.5 457.5 Q936 625 936 912 Q936 1069 896.5 1140 Q857 1211 767 1211 Q709 1211 659 1201 L652 1358 Q719 1370 797 1370 Q1126 1370 1126 925 Q1126 646 1094.5 476.5 Q1063 307 999.5 199.5 Q936 92 837.5 36 Q739 -20 601 -20 Z " />
<glyph glyph-name="uni01B3" unicode="&#x1b3;" horiz-adv-x="1229" d="M1123 1370 Q1186 1370 1241 1347.5 Q1296 1325 1355 1274 L1271 1138 Q1194 1207 1135 1207 Q1088 1207 1062 1184 Q1036 1161 1014 1125 L672 584 L672 0 L484 0 L484 584 L0 1349 L205 1349 L579 738 L867 1213 Q915 1292 975 1331 Q1035 1370 1123 1370 Z " />
<glyph glyph-name="uni01B4" unicode="&#x1b4;" horiz-adv-x="1229" d="M298 -425 Q228 -425 178 -414 L178 -279 Q216 -285 258 -285 Q433 -285 529 -33 L546 11 L76 1082 L268 1082 L532 440 Q548 400 628 192 L630 192 Q645 256 721 464 L994 1241 Q1038 1364 1105 1424 Q1172 1484 1283 1484 Q1413 1484 1521 1391 L1439 1263 Q1371 1325 1299 1325 Q1202 1325 1151 1188 L712 0 Q625 -237 529.5 -331 Q434 -425 298 -425 Z " />
<glyph glyph-name="uni01B5" unicode="&#x1b5;" horiz-adv-x="1229" d="M123 757 L551 757 L891 1193 L146 1193 L146 1349 L1108 1349 L1108 1210 L756 757 L1105 757 L1105 624 L653 624 L290 156 L1155 156 L1155 0 L73 0 L73 143 L447 624 L123 624 L123 757 Z " />
<glyph glyph-name="uni01B6" unicode="&#x1b6;" horiz-adv-x="1229" d="M165 617 L552 617 L828 943 L187 943 L187 1082 L1031 1082 L1031 945 L753 617 L1039 617 L1039 484 L641 484 L349 139 L1068 139 L1068 0 L147 0 L147 137 L440 484 L165 484 L165 617 Z " />
<glyph glyph-name="uni01B7" unicode="&#x1b7;" horiz-adv-x="1229" d="M396 699 L896 1193 L121 1193 L121 1349 L1109 1349 L1109 1188 L604 699 Q870 682 1004.5 546 Q1139 410 1139 161 Q1139 -11 1068.5 -144.5 Q998 -278 867.5 -352 Q737 -426 571 -426 Q433 -426 330.5 -389.5 Q228 -353 156 -282.5 Q84 -212 23 -80 L185 -5 Q248 -148 341 -212.5 Q434 -277 568 -277 Q744 -277 847.5 -160.5 Q951 -44 951 161 Q951 358 835 458 Q719 558 470 558 L396 558 L396 699 Z " />
<glyph glyph-name="uni01B8" unicode="&#x1b8;" horiz-adv-x="1229" d="M831 558 L757 558 Q519 558 388.5 446.5 Q258 335 258 131 Q258 -64 358 -170.5 Q458 -277 641 -277 Q774 -277 868.5 -210.5 Q963 -144 1024 -5 L1185 -80 Q1101 -262 964.5 -344 Q828 -426 628 -426 Q368 -426 219 -280 Q70 -134 70 124 Q70 365 217.5 516.5 Q365 668 622 695 L118 1188 L118 1349 L1106 1349 L1106 1193 L331 1193 L831 699 L831 558 Z " />
<glyph glyph-name="uni01B9" unicode="&#x1b9;" horiz-adv-x="1229" d="M1038 941 L344 941 L737 555 L737 411 L655 411 Q493 411 401 316.5 Q309 222 309 65 Q309 -99 390 -193.5 Q471 -288 608 -288 Q881 -288 917 -36 L1094 -48 Q1071 -235 945 -330 Q819 -425 602 -425 Q384 -425 256 -297.5 Q128 -170 128 45 Q128 252 242 385.5 Q356 519 547 544 L165 906 L165 1082 L1038 1082 L1038 941 Z " />
<glyph glyph-name="uni01BA" unicode="&#x1ba;" horiz-adv-x="1229" d="M1128 -101 Q1088 -256 953.5 -341 Q819 -426 609 -426 Q471 -426 363.5 -388 Q256 -350 203.5 -281.5 Q151 -213 151 -121 Q151 -42 193.5 13 Q236 68 310.5 107 Q385 146 554 189 Q725 231 782 271.5 Q839 312 839 370 Q839 444 741.5 474.5 Q644 505 451 505 L451 644 L807 942 L181 942 L181 1082 L1049 1082 L1049 963 L653 641 Q831 628 922 558.5 Q1013 489 1013 370 Q1013 288 973.5 234 Q934 180 865 144 Q796 108 620 65 Q483 31 434.5 8 Q386 -15 360 -47.5 Q334 -80 334 -128 Q334 -201 404 -242 Q474 -283 610 -283 Q884 -283 950 -82 L1128 -101 Z " />
<glyph glyph-name="uni01BB" unicode="&#x1bb;" horiz-adv-x="1229" d="M123 757 L740 757 Q877 876 877 1004 Q877 1112 809 1167 Q741 1222 611 1222 Q497 1222 426.5 1159.5 Q356 1097 343 984 L159 1001 Q179 1170 297.5 1270 Q416 1370 611 1370 Q827 1370 944.5 1276 Q1062 1182 1062 1009 Q1062 873 956 757 L1105 757 L1105 624 L819 624 Q575 433 512 374.5 Q449 316 405 260 Q361 204 338 146 L1084 146 L1084 0 L144 0 L144 117 Q195 243 292 359.5 Q389 476 580 624 L123 624 L123 757 Z " />
<glyph glyph-name="uni01BC" unicode="&#x1bc;" horiz-adv-x="1229" d="M1093 448 Q1093 231 960 105.5 Q827 -20 593 -20 Q402 -20 278 77 Q154 174 120 345 L299 366 Q334 240 408.5 181.5 Q483 123 596 123 Q743 123 824.5 208.5 Q906 294 906 444 Q906 590 819 662.5 Q732 735 570 735 L351 735 L351 1193 L169 1193 L169 1349 L1050 1349 L1050 1193 L535 1193 L535 890 L603 890 Q836 890 964.5 773.5 Q1093 657 1093 448 Z " />
<glyph glyph-name="uni01BD" unicode="&#x1bd;" horiz-adv-x="1229" d="M876 346 Q876 450 804 500 Q732 550 573 550 L376 550 L376 942 L164 942 L164 1082 L1024 1082 L1024 942 L538 942 L538 688 L612 688 Q825 688 941 601.5 Q1057 515 1057 348 Q1057 174 943.5 77 Q830 -20 621 -20 Q427 -20 312 60.5 Q197 141 160 311 L334 323 Q352 226 428 169.5 Q504 113 609 113 Q876 113 876 346 Z " />
<glyph glyph-name="uni01BE" unicode="&#x1be;" horiz-adv-x="1229" d="M460 951 L460 854 Q460 771 477 737 Q494 703 536.5 681 Q579 659 664 639 Q821 601 887 571.5 Q953 542 992 505 Q1031 468 1052 419 Q1073 370 1073 306 Q1073 147 959.5 63.5 Q846 -20 626 -20 Q405 -20 286 46.5 Q167 113 130 254 L289 285 Q316 198 399 157.5 Q482 117 629 117 Q762 117 830 156.5 Q898 196 898 292 Q898 341 878.5 372.5 Q859 404 821 426 Q783 448 725.5 464 Q668 480 593 499 Q470 529 406.5 570.5 Q343 612 311.5 676.5 Q280 741 280 836 L280 951 L129 951 L129 1082 L281 1082 L281 1429 L460 1507 L460 1082 L705 1082 L705 951 L460 951 Z " />
<glyph glyph-name="uni01BF" unicode="&#x1bf;" horiz-adv-x="1229" d="M1090 627 Q1090 464 1019 327.5 Q948 191 799.5 84 Q651 -23 366 -127 L366 -425 L185 -425 L185 1082 L354 1082 Q364 977 364 903 L368 903 Q459 1104 690 1104 Q885 1104 987.5 982 Q1090 860 1090 627 Z M904 626 Q904 801 839.5 883 Q775 965 652 965 Q510 965 438 863 Q366 761 366 545 L366 20 Q571 97 683 183.5 Q795 270 849.5 379 Q904 488 904 626 Z " />
<glyph glyph-name="uni01C0" unicode="&#x1c0;" horiz-adv-x="1229" d="M524 0 L524 1484 L704 1484 L704 0 L524 0 Z " />
<glyph glyph-name="uni01C1" unicode="&#x1c1;" horiz-adv-x="1229" d="M370 0 L370 1484 L535 1484 L535 0 L370 0 Z M693 0 L693 1484 L858 1484 L858 0 L693 0 Z " />
<glyph glyph-name="uni01C2" unicode="&#x1c2;" horiz-adv-x="1229" d="M130 1030 L526 1030 L526 1484 L700 1484 L700 1030 L1098 1030 L1098 877 L700 877 L700 569 L1098 569 L1098 416 L700 416 L700 0 L526 0 L526 416 L130 416 L130 569 L526 569 L526 877 L130 877 L130 1030 Z " />
<glyph glyph-name="uni01C3" unicode="&#x1c3;" horiz-adv-x="1229" d="M689 397 L541 397 L517 1348 L713 1348 L689 397 Z M515 0 L515 201 L709 201 L709 0 L515 0 Z " />
<glyph glyph-name="uni01C4" unicode="&#x1c4;" horiz-adv-x="1229" d="M730 1657 L730 1677 L834 1677 L984 1554 L986 1554 L1134 1677 L1238 1677 L1238 1657 L1067 1445 L901 1445 L730 1657 Z M656 688 Q656 339 555.5 169.5 Q455 0 254 0 L89 0 L89 1349 L211 1349 Q374 1349 470.5 1283 Q567 1217 611.5 1078.5 Q656 940 656 688 Z M489 688 Q489 946 433.5 1069.5 Q378 1193 255 1193 L251 1193 L251 156 L275 156 Q374 156 431.5 290 Q489 424 489 688 Z M1219 0 L657 0 L657 142 L1037 1193 L730 1193 L730 1349 L1219 1349 L1219 1211 L834 156 L1219 156 L1219 0 Z " />
<glyph glyph-name="uni01C5" unicode="&#x1c5;" horiz-adv-x="1229" d="M695 1413 L695 1433 L799 1433 L949 1310 L951 1310 L1099 1433 L1203 1433 L1203 1413 L1032 1201 L866 1201 L695 1413 Z M656 688 Q656 339 555.5 169.5 Q455 0 254 0 L89 0 L89 1349 L211 1349 Q374 1349 470.5 1283 Q567 1217 611.5 1078.5 Q656 940 656 688 Z M489 688 Q489 946 433.5 1069.5 Q378 1193 255 1193 L251 1193 L251 156 L275 156 Q374 156 431.5 290 Q489 424 489 688 Z M657 0 L657 132 L1009 943 L697 943 L697 1082 L1182 1082 L1182 950 L825 139 L1219 139 L1219 0 L657 0 Z " />
<glyph glyph-name="uni01C6" unicode="&#x1c6;" horiz-adv-x="1229" d="M715 1413 L715 1433 L819 1433 L969 1310 L971 1310 L1119 1433 L1223 1433 L1223 1413 L1052 1201 L886 1201 L715 1413 Z M465 124 Q433 37 394 5.5 Q355 -26 286 -26 Q164 -26 107 112.5 Q50 251 50 532 Q50 1098 288 1098 Q359 1098 397 1068.5 Q435 1039 466 954 L468 954 L466 1085 L466 1484 L626 1484 L626 223 Q626 45 631 0 L479 0 Q470 24 470 124 L465 124 Z M218 538 Q218 312 247 212.5 Q276 113 344 113 Q410 113 438 220.5 Q466 328 466 554 Q466 766 438 865.5 Q410 965 345 965 Q279 965 248.5 865.5 Q218 766 218 538 Z M677 0 L677 132 L1029 943 L717 943 L717 1082 L1202 1082 L1202 950 L845 139 L1229 139 L1229 0 L677 0 Z " />
<glyph glyph-name="uni01C7" unicode="&#x1c7;" horiz-adv-x="1229" d="M89 0 L89 1349 L251 1349 L251 156 L563 156 L563 0 L89 0 Z M682 174 Q742 135 813 135 Q904 135 942.5 202 Q981 269 981 416 L981 1193 L790 1193 L790 1349 L1143 1349 L1143 395 Q1143 179 1064.5 79.5 Q986 -20 821 -20 Q710 -20 628 20 L682 174 Z " />
<glyph glyph-name="uni01C8" unicode="&#x1c8;" horiz-adv-x="1229" d="M1144 -28 Q1144 -216 1041.5 -320.5 Q939 -425 753 -425 Q655 -425 563 -403 L563 -258 Q649 -276 739 -276 Q857 -276 919.5 -209.5 Q982 -143 982 -25 L982 940 L681 940 L681 1082 L1144 1082 L1144 -28 Z M89 0 L89 1349 L251 1349 L251 156 L663 156 L663 0 L89 0 Z M963 1292 L963 1484 L1144 1484 L1144 1292 L963 1292 Z " />
<glyph glyph-name="uni01C9" unicode="&#x1c9;" horiz-adv-x="1229" d="M1081 -28 Q1081 -216 978.5 -320.5 Q876 -425 690 -425 Q592 -425 500 -403 L500 -258 Q585 -276 676 -276 Q794 -276 856.5 -209.5 Q919 -143 919 -25 L919 940 L638 940 L638 1082 L1081 1082 L1081 -28 Z M900 1292 L900 1484 L1081 1484 L1081 1292 L900 1292 Z M373 142 L570 142 L570 0 L0 0 L0 142 L211 142 L211 1342 L0 1342 L0 1484 L373 1484 L373 142 Z " />
<glyph glyph-name="uni01CA" unicode="&#x1ca;" horiz-adv-x="1229" d="M487 1 L238 861 L232 861 Q236 830 241 671.5 Q246 513 246 456 L246 1 L89 1 L89 1349 L246 1349 L503 470 L509 470 Q506 496 499 656.5 Q492 817 492 896 L492 1349 L652 1349 L652 1 L487 1 Z M841 -20 Q785 -20 735 -7 L735 154 Q781 135 833 135 Q914 135 947.5 205 Q981 275 981 416 L981 1193 L830 1193 L830 1349 L1143 1349 L1143 395 Q1143 188 1070.5 84 Q998 -20 841 -20 Z " />
<glyph glyph-name="uni01CB" unicode="&#x1cb;" horiz-adv-x="1229" d="M487 1 L238 861 L232 861 Q236 830 241 671.5 Q246 513 246 456 L246 1 L89 1 L89 1349 L246 1349 L503 470 L509 470 Q506 496 499 656.5 Q492 817 492 896 L492 1349 L652 1349 L652 1 L487 1 Z M1143 -28 Q1143 -216 1040.5 -320.5 Q938 -425 752 -425 Q654 -425 562 -403 L562 -258 Q648 -276 738 -276 Q855 -276 918.5 -210 Q982 -144 982 -25 L982 940 L759 940 L759 1082 L1143 1082 L1143 -28 Z M962 1292 L962 1484 L1143 1484 L1143 1292 L962 1292 Z " />
<glyph glyph-name="uni01CC" unicode="&#x1cc;" horiz-adv-x="1229" d="M1143 -28 Q1143 -216 1040.5 -320.5 Q938 -425 752 -425 Q654 -425 562 -403 L562 -258 Q648 -276 738 -276 Q855 -276 918.5 -210 Q982 -144 982 -25 L982 940 L780 940 L780 1082 L1143 1082 L1143 -28 Z M962 1292 L962 1484 L1143 1484 L1143 1292 L962 1292 Z M532 0 L532 695 Q532 832 504.5 897.5 Q477 963 412 963 Q341 963 295.5 873 Q250 783 250 627 L250 0 L89 0 L89 851 Q89 1040 83 1082 L232 1082 L238 907 L240 907 Q273 1002 329 1052 Q385 1102 473 1102 Q584 1102 639 1012 Q694 922 694 721 L694 0 L532 0 Z " />
<glyph glyph-name="uni01CD" unicode="&#x1cd;" horiz-adv-x="1229" d="M1034 0 L896 382 L333 382 L196 0 L0 0 L510 1349 L727 1349 L1228 0 L1034 0 Z M616 1205 L604 1166 L535 954 L384 531 L847 531 L674 1031 L616 1205 Z M701 1445 L537 1445 L283 1684 L283 1704 L387 1704 L619 1566 L621 1566 L840 1704 L945 1704 L945 1684 L701 1445 Z " />
<glyph glyph-name="uni01CE" unicode="&#x1ce;" horiz-adv-x="1229" d="M1101 111 Q1127 111 1160 118 L1160 6 Q1092 -10 1021 -10 Q921 -10 875.5 42.5 Q830 95 824 207 L818 207 Q753 86 664.5 33 Q576 -20 446 -20 Q288 -20 208 66 Q128 152 128 302 Q128 651 582 656 L818 660 L818 719 Q818 850 765 907.5 Q712 965 596 965 Q478 965 426 923 Q374 881 364 793 L176 810 Q222 1102 599 1102 Q799 1102 899.5 1008.5 Q1000 915 1000 738 L1000 272 Q1000 192 1021 151.5 Q1042 111 1101 111 Z M492 117 Q588 117 662 163 Q736 209 777 286 Q818 363 818 445 L818 534 L628 530 Q510 528 448 504 Q386 480 351.5 430.5 Q317 381 317 299 Q317 217 361.5 167 Q406 117 492 117 Z M692 1201 L528 1201 L274 1440 L274 1460 L378 1460 L610 1322 L612 1322 L831 1460 L936 1460 L936 1440 L692 1201 Z " />
<glyph glyph-name="uni01CF" unicode="&#x1cf;" horiz-adv-x="1229" d="M202 1349 L1025 1349 L1025 1193 L709 1193 L709 156 L1025 156 L1025 0 L202 0 L202 156 L518 156 L518 1193 L202 1193 L202 1349 Z M701 1445 L537 1445 L283 1684 L283 1704 L387 1704 L619 1566 L621 1566 L840 1704 L945 1704 L945 1684 L701 1445 Z " />
<glyph glyph-name="uni01D0" unicode="&#x1d0;" horiz-adv-x="1229" d="M745 142 L1125 142 L1125 0 L143 0 L143 142 L565 142 L565 940 L246 940 L246 1082 L745 1082 L745 142 Z M704 1201 L540 1201 L286 1440 L286 1460 L390 1460 L622 1322 L624 1322 L843 1460 L948 1460 L948 1440 L704 1201 Z " />
<glyph glyph-name="uni01D1" unicode="&#x1d1;" horiz-adv-x="1229" d="M1126 681 Q1126 344 993.5 162 Q861 -20 613 -20 Q364 -20 233 159 Q102 338 102 681 Q102 1018 232 1194 Q362 1370 615 1370 Q862 1370 994 1196.5 Q1126 1023 1126 681 Z M925 681 Q925 1214 615 1214 Q303 1214 303 681 Q303 411 382 273 Q461 135 614 135 Q777 135 851 275 Q925 415 925 681 Z M701 1445 L537 1445 L283 1684 L283 1704 L387 1704 L619 1566 L621 1566 L840 1704 L945 1704 L945 1684 L701 1445 Z " />
<glyph glyph-name="uni01D2" unicode="&#x1d2;" horiz-adv-x="1229" d="M1097 542 Q1097 269 971.5 124.5 Q846 -20 609 -20 Q377 -20 253.5 126 Q130 272 130 542 Q130 821 256.5 961.5 Q383 1102 615 1102 Q859 1102 978 963 Q1097 824 1097 542 Z M908 542 Q908 757 839.5 863 Q771 969 618 969 Q463 969 391 861 Q319 753 319 542 Q319 332 391 222.5 Q463 113 607 113 Q766 113 837 220 Q908 327 908 542 Z M701 1201 L537 1201 L283 1440 L283 1460 L387 1460 L619 1322 L621 1322 L840 1460 L945 1460 L945 1440 L701 1201 Z " />
<glyph glyph-name="uni01D3" unicode="&#x1d3;" horiz-adv-x="1229" d="M1085 490 Q1085 223 971 101.5 Q857 -20 605 -20 Q361 -20 251.5 97.5 Q142 215 142 472 L142 1349 L333 1349 L333 498 Q333 294 391.5 214.5 Q450 135 604 135 Q765 135 830 217 Q895 299 895 511 L895 1349 L1085 1349 L1085 490 Z M701 1445 L537 1445 L283 1684 L283 1704 L387 1704 L619 1566 L621 1566 L840 1704 L945 1704 L945 1684 L701 1445 Z " />
<glyph glyph-name="uni01D4" unicode="&#x1d4;" horiz-adv-x="1229" d="M365 1082 L365 396 Q365 240 414 179.5 Q463 119 589 119 Q718 119 793 207 Q868 295 868 455 L868 1082 L1049 1082 L1049 231 Q1049 42 1055 0 L885 0 Q884 5 883 27 Q882 49 880.5 77.5 Q879 106 877 185 L874 185 Q812 73 730.5 26.5 Q649 -20 528 -20 Q350 -20 267.5 68.5 Q185 157 185 361 L185 1082 L365 1082 Z M701 1201 L537 1201 L283 1440 L283 1460 L387 1460 L619 1322 L621 1322 L840 1460 L945 1460 L945 1440 L701 1201 Z " />
<glyph glyph-name="uni01D5" unicode="&#x1d5;" horiz-adv-x="1229" d="M1085 490 Q1085 223 971 101.5 Q857 -20 605 -20 Q361 -20 251.5 97.5 Q142 215 142 472 L142 1349 L333 1349 L333 498 Q333 294 391.5 214.5 Q450 135 604 135 Q765 135 830 217 Q895 299 895 511 L895 1349 L1085 1349 L1085 490 Z M750 1458 L750 1642 L913 1642 L913 1458 L750 1458 Z M316 1458 L316 1642 L479 1642 L479 1458 L316 1458 Z M889 1708 L340 1708 L340 1835 L889 1835 L889 1708 Z " />
<glyph glyph-name="uni01D6" unicode="&#x1d6;" horiz-adv-x="1229" d="M365 1082 L365 396 Q365 240 414 179.5 Q463 119 589 119 Q718 119 793 207 Q868 295 868 455 L868 1082 L1049 1082 L1049 231 Q1049 42 1055 0 L885 0 Q884 5 883 27 Q882 49 880.5 77.5 Q879 106 877 185 L874 185 Q812 73 730.5 26.5 Q649 -20 528 -20 Q350 -20 267.5 68.5 Q185 157 185 361 L185 1082 L365 1082 Z M730 1219 L730 1403 L893 1403 L893 1219 L730 1219 Z M336 1219 L336 1403 L501 1403 L501 1219 L336 1219 Z M889 1515 L340 1515 L340 1642 L889 1642 L889 1515 Z " />
<glyph glyph-name="uni01D7" unicode="&#x1d7;" horiz-adv-x="1229" d="M1085 490 Q1085 223 971 101.5 Q857 -20 605 -20 Q361 -20 251.5 97.5 Q142 215 142 472 L142 1349 L333 1349 L333 498 Q333 294 391.5 214.5 Q450 135 604 135 Q765 135 830 217 Q895 299 895 511 L895 1349 L1085 1349 L1085 490 Z M676 1835 L902 1835 L902 1823 L641 1652 L511 1652 L511 1662 L676 1835 Z M750 1448 L750 1632 L913 1632 L913 1448 L750 1448 Z M316 1448 L316 1632 L479 1632 L479 1448 L316 1448 Z " />
<glyph glyph-name="uni01D8" unicode="&#x1d8;" horiz-adv-x="1229" d="M365 1082 L365 396 Q365 240 414 179.5 Q463 119 589 119 Q718 119 793 207 Q868 295 868 455 L868 1082 L1049 1082 L1049 231 Q1049 42 1055 0 L885 0 Q884 5 883 27 Q882 49 880.5 77.5 Q879 106 877 185 L874 185 Q812 73 730.5 26.5 Q649 -20 528 -20 Q350 -20 267.5 68.5 Q185 157 185 361 L185 1082 L365 1082 Z M730 1219 L730 1403 L893 1403 L893 1219 L730 1219 Z M336 1219 L336 1403 L501 1403 L501 1219 L336 1219 Z M532 1481 L532 1501 L759 1740 L956 1740 L956 1711 L656 1481 L532 1481 Z " />
<glyph glyph-name="uni01D9" unicode="&#x1d9;" horiz-adv-x="1229" d="M1085 490 Q1085 223 971 101.5 Q857 -20 605 -20 Q361 -20 251.5 97.5 Q142 215 142 472 L142 1349 L333 1349 L333 498 Q333 294 391.5 214.5 Q450 135 604 135 Q765 135 830 217 Q895 299 895 511 L895 1349 L1085 1349 L1085 490 Z M765 1835 L920 1835 L920 1825 L712 1652 L517 1652 L308 1823 L308 1835 L463 1835 L614 1738 L765 1835 Z M749 1448 L749 1632 L912 1632 L912 1448 L749 1448 Z M315 1448 L315 1632 L478 1632 L478 1448 L315 1448 Z " />
<glyph glyph-name="uni01DA" unicode="&#x1da;" horiz-adv-x="1229" d="M365 1082 L365 396 Q365 240 414 179.5 Q463 119 589 119 Q718 119 793 207 Q868 295 868 455 L868 1082 L1049 1082 L1049 231 Q1049 42 1055 0 L885 0 Q884 5 883 27 Q882 49 880.5 77.5 Q879 106 877 185 L874 185 Q812 73 730.5 26.5 Q649 -20 528 -20 Q350 -20 267.5 68.5 Q185 157 185 361 L185 1082 L365 1082 Z M730 1219 L730 1403 L893 1403 L893 1219 L730 1219 Z M336 1219 L336 1403 L501 1403 L501 1219 L336 1219 Z M701 1481 L537 1481 L283 1720 L283 1740 L387 1740 L619 1602 L621 1602 L840 1740 L945 1740 L945 1720 L701 1481 Z " />
<glyph glyph-name="uni01DB" unicode="&#x1db;" horiz-adv-x="1229" d="M1085 490 Q1085 223 971 101.5 Q857 -20 605 -20 Q361 -20 251.5 97.5 Q142 215 142 472 L142 1349 L333 1349 L333 498 Q333 294 391.5 214.5 Q450 135 604 135 Q765 135 830 217 Q895 299 895 511 L895 1349 L1085 1349 L1085 490 Z M718 1662 L718 1652 L588 1652 L327 1823 L327 1835 L553 1835 L718 1662 Z M316 1448 L316 1632 L479 1632 L479 1448 L316 1448 Z M750 1448 L750 1632 L913 1632 L913 1448 L750 1448 Z " />
<glyph glyph-name="uni01DC" unicode="&#x1dc;" horiz-adv-x="1229" d="M365 1082 L365 396 Q365 240 414 179.5 Q463 119 589 119 Q718 119 793 207 Q868 295 868 455 L868 1082 L1049 1082 L1049 231 Q1049 42 1055 0 L885 0 Q884 5 883 27 Q882 49 880.5 77.5 Q879 106 877 185 L874 185 Q812 73 730.5 26.5 Q649 -20 528 -20 Q350 -20 267.5 68.5 Q185 157 185 361 L185 1082 L365 1082 Z M730 1219 L730 1403 L893 1403 L893 1219 L730 1219 Z M336 1219 L336 1403 L501 1403 L501 1219 L336 1219 Z M594 1481 L294 1711 L294 1740 L491 1740 L718 1501 L718 1481 L594 1481 Z " />
<glyph glyph-name="uni01DD" unicode="&#x1dd;" horiz-adv-x="1229" d="M905 579 Q905 761 824.5 864 Q744 967 604 967 Q501 967 423.5 922.5 Q346 878 320 801 L162 846 Q206 970 323.5 1036 Q441 1102 604 1102 Q840 1102 967 955 Q1094 808 1094 534 Q1094 267 969.5 123.5 Q845 -20 610 -20 Q375 -20 254 123 Q133 266 133 555 L133 579 L905 579 Z M608 113 Q742 113 820 200.5 Q898 288 903 441 L319 441 Q347 113 608 113 Z " />
<glyph glyph-name="uni01DE" unicode="&#x1de;" horiz-adv-x="1229" d="M1034 0 L896 382 L333 382 L196 0 L0 0 L510 1349 L727 1349 L1228 0 L1034 0 Z M616 1205 L604 1166 L535 954 L384 531 L847 531 L674 1031 L616 1205 Z M750 1458 L750 1642 L913 1642 L913 1458 L750 1458 Z M316 1458 L316 1642 L479 1642 L479 1458 L316 1458 Z M889 1708 L340 1708 L340 1835 L889 1835 L889 1708 Z " />
<glyph glyph-name="uni01DF" unicode="&#x1df;" horiz-adv-x="1229" d="M1101 111 Q1127 111 1160 118 L1160 6 Q1092 -10 1021 -10 Q921 -10 875.5 42.5 Q830 95 824 207 L818 207 Q753 86 664.5 33 Q576 -20 446 -20 Q288 -20 208 66 Q128 152 128 302 Q128 651 582 656 L818 660 L818 719 Q818 850 765 907.5 Q712 965 596 965 Q478 965 426 923 Q374 881 364 793 L176 810 Q222 1102 599 1102 Q799 1102 899.5 1008.5 Q1000 915 1000 738 L1000 272 Q1000 192 1021 151.5 Q1042 111 1101 111 Z M492 117 Q588 117 662 163 Q736 209 777 286 Q818 363 818 445 L818 534 L628 530 Q510 528 448 504 Q386 480 351.5 430.5 Q317 381 317 299 Q317 217 361.5 167 Q406 117 492 117 Z M711 1200 L711 1384 L874 1384 L874 1200 L711 1200 Z M317 1200 L317 1384 L482 1384 L482 1200 L317 1200 Z M870 1489 L321 1489 L321 1616 L870 1616 L870 1489 Z " />
<glyph glyph-name="uni01E0" unicode="&#x1e0;" horiz-adv-x="1229" d="M1034 0 L896 382 L333 382 L196 0 L0 0 L510 1349 L727 1349 L1228 0 L1034 0 Z M616 1205 L604 1166 L535 954 L384 531 L847 531 L674 1031 L616 1205 Z M527 1468 L527 1652 L690 1652 L690 1468 L527 1468 Z M889 1708 L340 1708 L340 1835 L889 1835 L889 1708 Z " />
<glyph glyph-name="uni01E1" unicode="&#x1e1;" horiz-adv-x="1229" d="M1101 111 Q1127 111 1160 118 L1160 6 Q1092 -10 1021 -10 Q921 -10 875.5 42.5 Q830 95 824 207 L818 207 Q753 86 664.5 33 Q576 -20 446 -20 Q288 -20 208 66 Q128 152 128 302 Q128 651 582 656 L818 660 L818 719 Q818 850 765 907.5 Q712 965 596 965 Q478 965 426 923 Q374 881 364 793 L176 810 Q222 1102 599 1102 Q799 1102 899.5 1008.5 Q1000 915 1000 738 L1000 272 Q1000 192 1021 151.5 Q1042 111 1101 111 Z M492 117 Q588 117 662 163 Q736 209 777 286 Q818 363 818 445 L818 534 L628 530 Q510 528 448 504 Q386 480 351.5 430.5 Q317 381 317 299 Q317 217 361.5 167 Q406 117 492 117 Z M515 1273 L515 1465 L715 1465 L715 1273 L515 1273 Z M889 1489 L340 1489 L340 1616 L889 1616 L889 1489 Z " />
<glyph glyph-name="uni01E2" unicode="&#x1e2;" horiz-adv-x="1229" d="M646 412 L311 412 L169 0 L1 0 L487 1349 L1154 1349 L1154 1197 L817 1197 L817 767 L1144 767 L1144 617 L817 617 L817 152 L1195 152 L1195 0 L646 0 L646 412 Z M646 1202 L573 1202 Q569 1186 530.5 1056 Q492 926 362 561 L646 561 L646 1202 Z M1056 1503 L505 1503 L505 1630 L1056 1630 L1056 1503 Z " />
<glyph glyph-name="uni01E3" unicode="&#x1e3;" horiz-adv-x="1229" d="M679 503 L679 486 Q684 115 864 115 Q939 115 983.5 162 Q1028 209 1044 281 L1182 236 Q1114 -20 868 -20 Q747 -20 678.5 35 Q610 90 576 212 Q524 90 449.5 35 Q375 -20 278 -20 Q149 -20 84.5 62 Q20 144 20 302 Q20 651 350 656 L517 660 L517 719 Q517 854 485 909.5 Q453 965 381 965 Q307 965 273.5 924.5 Q240 884 233 793 L65 810 Q84 961 161.5 1031.5 Q239 1102 380 1102 Q556 1102 627 963 Q712 1102 873 1102 Q1039 1102 1123.5 960.5 Q1208 819 1208 527 L1208 503 L679 503 Z M189 299 Q189 217 217.5 167 Q246 117 303 117 Q367 117 415 161.5 Q463 206 490 281.5 Q517 357 517 445 L517 534 L395 530 Q316 528 275.5 504 Q235 480 212 430 Q189 380 189 299 Z M859 969 Q777 969 730.5 882 Q684 795 681 641 L1042 641 Q1033 812 989 890.5 Q945 969 859 969 Z M889 1235 L340 1235 L340 1362 L889 1362 L889 1235 Z " />
<glyph glyph-name="uni01E4" unicode="&#x1e4;" horiz-adv-x="1229" d="M1101 438 L1229 438 L1229 308 L1101 308 L1101 133 Q872 -20 639 -20 Q389 -20 251 165.5 Q113 351 113 681 Q113 1028 245 1199 Q377 1370 642 1370 Q988 1370 1103 1039 L932 983 Q851 1214 644 1214 Q475 1214 394.5 1088 Q314 962 314 681 Q314 135 655 135 Q798 135 925 210 L925 308 L622 308 L622 438 L925 438 L925 545 L622 545 L622 705 L1101 705 L1101 438 Z " />
<glyph glyph-name="uni01E5" unicode="&#x1e5;" horiz-adv-x="1229" d="M102 0 L869 0 L869 261 L867 261 Q770 62 529 62 Q334 62 238.5 189.5 Q143 317 143 579 Q143 836 244 967.5 Q345 1099 543 1099 Q656 1099 740 1046.5 Q824 994 869 897 L871 897 Q871 927 875 1001 Q879 1075 883 1082 L1054 1082 Q1048 1028 1048 858 L1048 0 L1114 0 L1114 -93 L1039 -93 Q1011 -258 906.5 -341 Q802 -424 609 -424 Q448 -424 340.5 -363.5 Q233 -303 197 -188 L378 -158 Q425 -288 610 -288 Q715 -288 775 -243 Q835 -198 858 -93 L102 -93 L102 0 Z M869 581 Q869 698 833 785.5 Q797 873 732.5 919 Q668 965 588 965 Q454 965 391.5 871 Q329 777 329 581 Q329 380 389.5 287.5 Q450 195 590 195 Q671 195 734.5 241.5 Q798 288 833.5 375.5 Q869 463 869 581 Z " />
<glyph glyph-name="uni01E6" unicode="&#x1e6;" horiz-adv-x="1229" d="M1101 133 Q872 -20 639 -20 Q389 -20 251 165.5 Q113 351 113 681 Q113 1028 245 1199 Q377 1370 642 1370 Q988 1370 1103 1039 L932 983 Q852 1214 644 1214 Q475 1214 394.5 1088 Q314 962 314 681 Q314 135 655 135 Q723 135 796 156 Q869 177 915 209 L915 545 L622 545 L622 705 L1101 705 L1101 133 Z M701 1445 L537 1445 L283 1684 L283 1704 L387 1704 L619 1566 L621 1566 L840 1704 L945 1704 L945 1684 L701 1445 Z " />
<glyph glyph-name="uni01E7" unicode="&#x1e7;" horiz-adv-x="1229" d="M615 -424 Q447 -424 345 -355 Q243 -286 215 -157 L399 -132 Q416 -207 472.5 -247.5 Q529 -288 621 -288 Q869 -288 869 27 L869 221 L867 221 Q818 118 731 65 Q644 12 524 12 Q326 12 234.5 141.5 Q143 271 143 549 Q143 832 241 965.5 Q339 1099 543 1099 Q656 1099 739.5 1046.5 Q823 994 868 897 L871 897 Q871 927 875 998.5 Q879 1070 883 1082 L1054 1082 Q1048 1028 1048 858 L1048 32 Q1048 -195 942 -309.5 Q836 -424 615 -424 Z M869 551 Q869 744 794 854.5 Q719 965 588 965 Q451 965 390 869.5 Q329 774 329 551 Q329 400 354.5 312.5 Q380 225 434 185 Q488 145 585 145 Q670 145 734.5 192.5 Q799 240 834 331.5 Q869 423 869 551 Z M672 1201 L508 1201 L254 1440 L254 1460 L358 1460 L590 1322 L592 1322 L811 1460 L916 1460 L916 1440 L672 1201 Z " />
<glyph glyph-name="uni01E8" unicode="&#x1e8;" horiz-adv-x="1229" d="M1003 0 L516 638 L353 469 L353 0 L162 0 L162 1349 L353 1349 L353 676 L925 1349 L1150 1349 L646 777 L1227 0 L1003 0 Z M698 1445 L534 1445 L280 1684 L280 1704 L384 1704 L616 1566 L618 1566 L837 1704 L942 1704 L942 1684 L698 1445 Z " />
<glyph glyph-name="uni01E9" unicode="&#x1e9;" horiz-adv-x="1229" d="M914 0 L548 499 L416 401 L416 0 L236 0 L236 1349 L416 1349 L416 557 L891 1082 L1102 1082 L663 617 L1125 0 L914 0 Z M738 1445 L574 1445 L320 1684 L320 1704 L424 1704 L656 1566 L658 1566 L877 1704 L982 1704 L982 1684 L738 1445 Z " />
<glyph glyph-name="uni01EA" unicode="&#x1ea;" horiz-adv-x="1229" d="M1126 681 Q1126 344 993.5 162 Q861 -20 613 -20 Q364 -20 233 159 Q102 338 102 681 Q102 1018 232 1194 Q362 1370 615 1370 Q862 1370 994 1196.5 Q1126 1023 1126 681 Z M925 681 Q925 1214 615 1214 Q303 1214 303 681 Q303 411 382 273 Q461 135 614 135 Q777 135 851 275 Q925 415 925 681 Z M827 -400 Q764 -427 688 -427 Q583 -427 530 -376 Q477 -325 477 -240 Q477 -172 518.5 -106.5 Q560 -41 632 0 L765 0 Q701 -36 659.5 -98.5 Q618 -161 618 -227 Q618 -269 642.5 -293 Q667 -317 712 -317 Q766 -317 827 -293 L827 -400 Z " />
<glyph glyph-name="uni01EB" unicode="&#x1eb;" horiz-adv-x="1229" d="M1097 542 Q1097 269 971.5 124.5 Q846 -20 609 -20 Q377 -20 253.5 126 Q130 272 130 542 Q130 821 256.5 961.5 Q383 1102 615 1102 Q859 1102 978 963 Q1097 824 1097 542 Z M908 542 Q908 757 839.5 863 Q771 969 618 969 Q463 969 391 861 Q319 753 319 542 Q319 332 391 222.5 Q463 113 607 113 Q766 113 837 220 Q908 327 908 542 Z M830 -400 Q767 -427 691 -427 Q586 -427 533 -376 Q480 -325 480 -240 Q480 -172 521.5 -106.5 Q563 -41 635 0 L768 0 Q704 -36 662.5 -98.5 Q621 -161 621 -227 Q621 -269 645.5 -293 Q670 -317 715 -317 Q769 -317 830 -293 L830 -400 Z " />
<glyph glyph-name="uni01EC" unicode="&#x1ec;" horiz-adv-x="1229" d="M1126 681 Q1126 344 993.5 162 Q861 -20 613 -20 Q364 -20 233 159 Q102 338 102 681 Q102 1018 232 1194 Q362 1370 615 1370 Q862 1370 994 1196.5 Q1126 1023 1126 681 Z M925 681 Q925 1214 615 1214 Q303 1214 303 681 Q303 411 382 273 Q461 135 614 135 Q777 135 851 275 Q925 415 925 681 Z M890 1503 L339 1503 L339 1630 L890 1630 L890 1503 Z M825 -400 Q762 -427 686 -427 Q581 -427 528 -376 Q475 -325 475 -240 Q475 -172 516.5 -106.5 Q558 -41 630 0 L763 0 Q699 -36 657.5 -98.5 Q616 -161 616 -227 Q616 -269 640.5 -293 Q665 -317 710 -317 Q764 -317 825 -293 L825 -400 Z " />
<glyph glyph-name="uni01ED" unicode="&#x1ed;" horiz-adv-x="1229" d="M1097 542 Q1097 269 971.5 124.5 Q846 -20 609 -20 Q377 -20 253.5 126 Q130 272 130 542 Q130 821 256.5 961.5 Q383 1102 615 1102 Q859 1102 978 963 Q1097 824 1097 542 Z M908 542 Q908 757 839.5 863 Q771 969 618 969 Q463 969 391 861 Q319 753 319 542 Q319 332 391 222.5 Q463 113 607 113 Q766 113 837 220 Q908 327 908 542 Z M889 1235 L340 1235 L340 1362 L889 1362 L889 1235 Z M836 -400 Q773 -427 697 -427 Q592 -427 539 -376 Q486 -325 486 -240 Q486 -172 527.5 -106.5 Q569 -41 641 0 L774 0 Q710 -36 668.5 -98.5 Q627 -161 627 -227 Q627 -269 651.5 -293 Q676 -317 721 -317 Q775 -317 836 -293 L836 -400 Z " />
<glyph glyph-name="uni01EE" unicode="&#x1ee;" horiz-adv-x="1229" d="M425 699 L925 1193 L150 1193 L150 1349 L1138 1349 L1138 1188 L633 699 Q899 682 1033.5 546 Q1168 410 1168 161 Q1168 -11 1097.5 -144.5 Q1027 -278 896.5 -352 Q766 -426 600 -426 Q462 -426 359.5 -389.5 Q257 -353 185 -282.5 Q113 -212 52 -80 L214 -5 Q277 -148 370 -212.5 Q463 -277 597 -277 Q773 -277 876.5 -160.5 Q980 -44 980 161 Q980 358 864 458 Q748 558 499 558 L425 558 L425 699 Z M727 1445 L563 1445 L309 1684 L309 1704 L413 1704 L645 1566 L647 1566 L866 1704 L971 1704 L971 1684 L727 1445 Z " />
<glyph glyph-name="uni01EF" unicode="&#x1ef;" horiz-adv-x="1229" d="M197 1082 L1070 1082 L1070 906 L687 544 Q883 519 994.5 393.5 Q1106 268 1106 69 Q1106 -70 1047 -184 Q988 -298 880 -361.5 Q772 -425 632 -425 Q416 -425 289 -330 Q162 -235 139 -48 L317 -36 Q336 -169 413 -228.5 Q490 -288 626 -288 Q763 -288 844 -188.5 Q925 -89 925 75 Q925 231 833.5 321 Q742 411 579 411 L497 411 L497 555 L890 941 L197 941 L197 1082 Z M721 1201 L557 1201 L303 1440 L303 1460 L407 1460 L639 1322 L641 1322 L860 1460 L965 1460 L965 1440 L721 1201 Z " />
<glyph glyph-name="uni01F0" unicode="&#x1f0;" horiz-adv-x="1229" d="M836 -28 Q836 -215 724 -320 Q612 -425 405 -425 Q326 -425 244 -412 Q162 -399 117 -382 L117 -242 Q267 -276 390 -276 Q518 -276 587 -210 Q656 -144 656 -25 L656 940 L249 940 L249 1082 L836 1082 L836 -28 Z M701 1201 L537 1201 L283 1440 L283 1460 L387 1460 L619 1322 L621 1322 L840 1460 L945 1460 L945 1440 L701 1201 Z " />
<glyph glyph-name="uni01F1" unicode="&#x1f1;" horiz-adv-x="1229" d="M656 688 Q656 339 555.5 169.5 Q455 0 254 0 L89 0 L89 1349 L211 1349 Q374 1349 470.5 1283 Q567 1217 611.5 1078.5 Q656 940 656 688 Z M489 688 Q489 946 433.5 1069.5 Q378 1193 255 1193 L251 1193 L251 156 L275 156 Q374 156 431.5 290 Q489 424 489 688 Z M1219 0 L657 0 L657 142 L1037 1193 L730 1193 L730 1349 L1219 1349 L1219 1211 L834 156 L1219 156 L1219 0 Z " />
<glyph glyph-name="uni01F2" unicode="&#x1f2;" horiz-adv-x="1229" d="M656 688 Q656 339 555.5 169.5 Q455 0 254 0 L89 0 L89 1349 L211 1349 Q374 1349 470.5 1283 Q567 1217 611.5 1078.5 Q656 940 656 688 Z M489 688 Q489 946 433.5 1069.5 Q378 1193 255 1193 L251 1193 L251 156 L275 156 Q374 156 431.5 290 Q489 424 489 688 Z M657 0 L657 132 L1009 943 L697 943 L697 1082 L1182 1082 L1182 950 L825 139 L1219 139 L1219 0 L657 0 Z " />
<glyph glyph-name="uni01F3" unicode="&#x1f3;" horiz-adv-x="1229" d="M465 124 Q433 37 394 5.5 Q355 -26 286 -26 Q164 -26 107 112.5 Q50 251 50 532 Q50 1098 288 1098 Q359 1098 397 1068.5 Q435 1039 466 954 L468 954 L466 1085 L466 1484 L626 1484 L626 223 Q626 45 631 0 L479 0 Q470 24 470 124 L465 124 Z M218 538 Q218 312 247 212.5 Q276 113 344 113 Q410 113 438 220.5 Q466 328 466 554 Q466 766 438 865.5 Q410 965 345 965 Q279 965 248.5 865.5 Q218 766 218 538 Z M677 0 L677 132 L1029 943 L717 943 L717 1082 L1202 1082 L1202 950 L845 139 L1229 139 L1229 0 L677 0 Z " />
<glyph glyph-name="uni01F4" unicode="&#x1f4;" horiz-adv-x="1229" d="M1101 133 Q872 -20 639 -20 Q389 -20 251 165.5 Q113 351 113 681 Q113 1028 245 1199 Q377 1370 642 1370 Q988 1370 1103 1039 L932 983 Q852 1214 644 1214 Q475 1214 394.5 1088 Q314 962 314 681 Q314 135 655 135 Q723 135 796 156 Q869 177 915 209 L915 545 L622 545 L622 705 L1101 705 L1101 133 Z M510 1445 L510 1465 L727 1691 L934 1691 L934 1662 L624 1445 L510 1445 Z " />
<glyph glyph-name="uni01F5" unicode="&#x1f5;" horiz-adv-x="1229" d="M615 -424 Q447 -424 345 -355 Q243 -286 215 -157 L399 -132 Q416 -207 472.5 -247.5 Q529 -288 621 -288 Q869 -288 869 27 L869 221 L867 221 Q818 118 731 65 Q644 12 524 12 Q326 12 234.5 141.5 Q143 271 143 549 Q143 832 241 965.5 Q339 1099 543 1099 Q656 1099 739.5 1046.5 Q823 994 868 897 L871 897 Q871 927 875 998.5 Q879 1070 883 1082 L1054 1082 Q1048 1028 1048 858 L1048 32 Q1048 -195 942 -309.5 Q836 -424 615 -424 Z M869 551 Q869 744 794 854.5 Q719 965 588 965 Q451 965 390 869.5 Q329 774 329 551 Q329 400 354.5 312.5 Q380 225 434 185 Q488 145 585 145 Q670 145 734.5 192.5 Q799 240 834 331.5 Q869 423 869 551 Z M468 1201 L468 1221 L695 1460 L892 1460 L892 1431 L592 1201 L468 1201 Z " />
<glyph glyph-name="uni01F6" unicode="&#x1f6;" horiz-adv-x="1229" d="M724 374 Q724 231 754 174 Q784 117 855 117 Q926 117 958 174.5 Q990 232 990 374 L990 1022 L1144 1022 L1144 345 Q1144 -20 854 -20 Q561 -20 561 342 L561 628 L256 628 L256 0 L93 0 L93 1349 L256 1349 L256 783 L561 783 L561 1349 L724 1349 L724 374 Z " />
<glyph glyph-name="uni01F7" unicode="&#x1f7;" horiz-adv-x="1229" d="M1129 871 Q1129 656 1030.5 452 Q932 248 755.5 89 Q579 -70 353 -160 L353 -425 L162 -425 L162 1349 L346 1349 L347 1185 Q407 1273 497 1321.5 Q587 1370 693 1370 Q904 1370 1016.5 1245.5 Q1129 1121 1129 871 Z M934 872 Q934 1215 666 1215 Q577 1215 506 1166.5 Q435 1118 394.5 1033 Q354 948 354 849 L353 2 Q508 62 645.5 201.5 Q783 341 858.5 519 Q934 697 934 872 Z " />
<glyph glyph-name="uni01F8" unicode="&#x1f8;" horiz-adv-x="1229" d="M836 0 L316 1130 Q332 958 332 876 L332 0 L162 0 L162 1349 L384 1349 L912 211 Q894 355 894 485 L894 1349 L1066 1349 L1066 0 L836 0 Z M610 1446 L300 1663 L300 1692 L507 1692 L724 1466 L724 1446 L610 1446 Z " />
<glyph glyph-name="uni01F9" unicode="&#x1f9;" horiz-adv-x="1229" d="M887 0 L887 695 Q887 831 834.5 897 Q782 963 667 963 Q543 963 463.5 872.5 Q384 782 384 627 L384 0 L204 0 L204 851 Q204 1040 198 1082 L368 1082 Q369 1077 370 1055 Q371 1033 372.5 1004.5 Q374 976 376 897 L379 897 Q484 1102 725 1102 Q898 1102 983 1008.5 Q1068 915 1068 721 L1068 0 L887 0 Z M638 1201 L338 1431 L338 1460 L535 1460 L762 1221 L762 1201 L638 1201 Z " />
<glyph glyph-name="Aringacute" unicode="&#x1fa;" horiz-adv-x="1229" d="M856 1211 Q856 1108 769 1051 L1228 0 L1034 0 L896 323 L333 323 L196 0 L0 0 L465 1047 Q372 1104 372 1211 Q372 1300 438.5 1355 Q505 1410 614 1410 Q725 1410 790.5 1354.5 Q856 1299 856 1211 Z M625 1011 L607 1011 L593 970 Q556 858 535 811 L395 476 L836 476 L701 811 Q635 982 625 1011 Z M525 1445 L525 1465 L752 1705 L949 1705 L949 1676 L649 1445 L525 1445 Z M735 1211 Q735 1248 702.5 1271 Q670 1294 614 1294 Q559 1294 525.5 1271 Q492 1248 492 1211 Q492 1173 525.5 1150 Q559 1127 614 1127 Q670 1127 702.5 1150 Q735 1173 735 1211 Z " />
<glyph glyph-name="aringacute" unicode="&#x1fb;" horiz-adv-x="1229" d="M846 1256 Q846 1204 820.5 1159 Q795 1114 742 1086 Q1000 1026 1000 738 L1000 272 Q1000 192 1021 151.5 Q1042 111 1101 111 Q1127 111 1160 118 L1160 6 Q1092 -10 1021 -10 Q921 -10 875.5 42.5 Q830 95 824 207 L818 207 Q753 86 664.5 33 Q576 -20 446 -20 Q288 -20 208 66 Q128 152 128 302 Q128 651 582 656 L818 660 L818 719 Q818 850 765 907.5 Q712 965 596 965 Q478 965 426 923 Q374 881 364 793 L176 810 Q212 1043 459 1090 Q410 1118 386 1162 Q362 1206 362 1256 Q362 1345 428.5 1400 Q495 1455 604 1455 Q715 1455 780.5 1399.5 Q846 1344 846 1256 Z M492 117 Q588 117 662 163 Q736 209 777 286 Q818 363 818 445 L818 534 L628 530 Q510 528 448 504 Q386 480 351.5 430.5 Q317 381 317 299 Q317 217 361.5 167 Q406 117 492 117 Z M508 1496 L508 1516 L735 1705 L932 1705 L932 1676 L632 1496 L508 1496 Z M725 1256 Q725 1293 692.5 1316 Q660 1339 604 1339 Q549 1339 515.5 1316 Q482 1293 482 1256 Q482 1218 515.5 1195 Q549 1172 604 1172 Q660 1172 692.5 1195 Q725 1218 725 1256 Z " />
<glyph glyph-name="AEacute" unicode="&#x1fc;" horiz-adv-x="1229" d="M646 412 L311 412 L169 0 L1 0 L487 1349 L1154 1349 L1154 1197 L817 1197 L817 767 L1144 767 L1144 617 L817 617 L817 152 L1195 152 L1195 0 L646 0 L646 412 Z M646 1202 L573 1202 Q569 1186 530.5 1056 Q492 926 362 561 L646 561 L646 1202 Z M647 1446 L647 1466 L874 1705 L1071 1705 L1071 1676 L771 1446 L647 1446 Z " />
<glyph glyph-name="aeacute" unicode="&#x1fd;" horiz-adv-x="1229" d="M679 503 L679 486 Q684 115 864 115 Q939 115 983.5 162 Q1028 209 1044 281 L1182 236 Q1114 -20 868 -20 Q747 -20 678.5 35 Q610 90 576 212 Q524 90 449.5 35 Q375 -20 278 -20 Q149 -20 84.5 62 Q20 144 20 302 Q20 651 350 656 L517 660 L517 719 Q517 854 485 909.5 Q453 965 381 965 Q307 965 273.5 924.5 Q240 884 233 793 L65 810 Q84 961 161.5 1031.5 Q239 1102 380 1102 Q556 1102 627 963 Q712 1102 873 1102 Q1039 1102 1123.5 960.5 Q1208 819 1208 527 L1208 503 L679 503 Z M189 299 Q189 217 217.5 167 Q246 117 303 117 Q367 117 415 161.5 Q463 206 490 281.5 Q517 357 517 445 L517 534 L395 530 Q316 528 275.5 504 Q235 480 212 430 Q189 380 189 299 Z M859 969 Q777 969 730.5 882 Q684 795 681 641 L1042 641 Q1033 812 989 890.5 Q945 969 859 969 Z M492 1201 L492 1221 L719 1460 L916 1460 L916 1431 L616 1201 L492 1201 Z " />
<glyph glyph-name="Oslashacute" unicode="&#x1fe;" horiz-adv-x="1229" d="M1126 681 Q1126 344 993.5 162 Q861 -20 613 -20 Q395 -20 267 118 L150 -38 L56 27 L197 216 Q102 390 102 681 Q102 1018 232 1194 Q362 1370 615 1370 Q832 1370 960 1236 L1076 1392 L1170 1327 L1030 1140 Q1126 970 1126 681 Z M925 681 Q925 845 895 959 L383 273 Q462 135 614 135 Q777 135 851 275 Q925 415 925 681 Z M303 681 Q303 515 333 399 L845 1083 Q768 1214 615 1214 Q303 1214 303 681 Z M502 1446 L502 1466 L729 1705 L926 1705 L926 1676 L626 1446 L502 1446 Z " />
<glyph glyph-name="oslashacute" unicode="&#x1ff;" horiz-adv-x="1229" d="M1117 542 Q1117 270 987 125 Q857 -20 609 -20 Q405 -20 278 87 L201 0 L125 68 L209 163 Q110 305 110 542 Q110 814 238.5 958 Q367 1102 615 1102 Q828 1102 950 1002 L1022 1084 L1100 1016 L1020 926 Q1117 789 1117 542 Z M928 542 Q928 689 895 784 L386 208 Q463 113 607 113 Q775 113 851.5 219.5 Q928 326 928 542 Z M299 542 Q299 396 333 304 L842 880 Q767 969 618 969 Q454 969 376.5 861.5 Q299 754 299 542 Z M502 1201 L502 1221 L729 1460 L926 1460 L926 1431 L626 1201 L502 1201 Z " />
<glyph glyph-name="uni0200" unicode="&#x200;" horiz-adv-x="1229" d="M1034 0 L896 382 L333 382 L196 0 L0 0 L510 1349 L727 1349 L1228 0 L1034 0 Z M616 1205 L604 1166 L535 954 L384 531 L847 531 L674 1031 L616 1205 Z M832 1445 L502 1663 L502 1692 L709 1692 L926 1465 L926 1445 L832 1445 Z M485 1445 L155 1663 L155 1692 L362 1692 L579 1465 L579 1445 L485 1445 Z " />
<glyph glyph-name="uni0201" unicode="&#x201;" horiz-adv-x="1229" d="M1101 111 Q1127 111 1160 118 L1160 6 Q1092 -10 1021 -10 Q921 -10 875.5 42.5 Q830 95 824 207 L818 207 Q753 86 664.5 33 Q576 -20 446 -20 Q288 -20 208 66 Q128 152 128 302 Q128 651 582 656 L818 660 L818 719 Q818 850 765 907.5 Q712 965 596 965 Q478 965 426 923 Q374 881 364 793 L176 810 Q222 1102 599 1102 Q799 1102 899.5 1008.5 Q1000 915 1000 738 L1000 272 Q1000 192 1021 151.5 Q1042 111 1101 111 Z M492 117 Q588 117 662 163 Q736 209 777 286 Q818 363 818 445 L818 534 L628 530 Q510 528 448 504 Q386 480 351.5 430.5 Q317 381 317 299 Q317 217 361.5 167 Q406 117 492 117 Z M772 1201 L442 1419 L442 1448 L649 1448 L866 1221 L866 1201 L772 1201 Z M425 1201 L95 1419 L95 1448 L302 1448 L519 1221 L519 1201 L425 1201 Z " />
<glyph glyph-name="uni0202" unicode="&#x202;" horiz-adv-x="1229" d="M1034 0 L896 382 L333 382 L196 0 L0 0 L510 1349 L727 1349 L1228 0 L1034 0 Z M616 1205 L604 1166 L535 954 L384 531 L847 531 L674 1031 L616 1205 Z M614 1710 Q733 1710 810.5 1641.5 Q888 1573 906 1450 L801 1450 Q786 1512 737 1547 Q688 1582 614 1582 Q538 1582 488.5 1545.5 Q439 1509 427 1450 L322 1450 Q337 1569 416 1639.5 Q495 1710 614 1710 Z " />
<glyph glyph-name="uni0203" unicode="&#x203;" horiz-adv-x="1229" d="M1101 111 Q1127 111 1160 118 L1160 6 Q1092 -10 1021 -10 Q921 -10 875.5 42.5 Q830 95 824 207 L818 207 Q753 86 664.5 33 Q576 -20 446 -20 Q288 -20 208 66 Q128 152 128 302 Q128 651 582 656 L818 660 L818 719 Q818 850 765 907.5 Q712 965 596 965 Q478 965 426 923 Q374 881 364 793 L176 810 Q222 1102 599 1102 Q799 1102 899.5 1008.5 Q1000 915 1000 738 L1000 272 Q1000 192 1021 151.5 Q1042 111 1101 111 Z M492 117 Q588 117 662 163 Q736 209 777 286 Q818 363 818 445 L818 534 L628 530 Q510 528 448 504 Q386 480 351.5 430.5 Q317 381 317 299 Q317 217 361.5 167 Q406 117 492 117 Z M593 1466 Q712 1466 789.5 1397.5 Q867 1329 885 1206 L780 1206 Q765 1268 716 1303 Q667 1338 593 1338 Q517 1338 467.5 1301.5 Q418 1265 406 1206 L301 1206 Q316 1325 395 1395.5 Q474 1466 593 1466 Z " />
<glyph glyph-name="uni0204" unicode="&#x204;" horiz-adv-x="1229" d="M162 0 L162 1349 L1081 1349 L1081 1193 L353 1193 L353 771 L1021 771 L1021 617 L353 617 L353 156 L1122 156 L1122 0 L162 0 Z M840 1445 L510 1663 L510 1692 L717 1692 L934 1465 L934 1445 L840 1445 Z M493 1445 L163 1663 L163 1692 L370 1692 L587 1465 L587 1445 L493 1445 Z " />
<glyph glyph-name="uni0205" unicode="&#x205;" horiz-adv-x="1229" d="M322 503 Q322 321 402.5 218 Q483 115 623 115 Q726 115 803.5 159.5 Q881 204 907 281 L1065 236 Q1021 112 903.5 46 Q786 -20 623 -20 Q387 -20 260 127 Q133 274 133 548 Q133 815 257.5 958.5 Q382 1102 617 1102 Q852 1102 973 959 Q1094 816 1094 527 L1094 503 L322 503 Z M619 969 Q485 969 407 881.5 Q329 794 324 641 L908 641 Q880 969 619 969 Z M792 1201 L462 1419 L462 1448 L669 1448 L886 1221 L886 1201 L792 1201 Z M445 1201 L115 1419 L115 1448 L322 1448 L539 1221 L539 1201 L445 1201 Z " />
<glyph glyph-name="uni0206" unicode="&#x206;" horiz-adv-x="1229" d="M162 0 L162 1349 L1081 1349 L1081 1193 L353 1193 L353 771 L1021 771 L1021 617 L353 617 L353 156 L1122 156 L1122 0 L162 0 Z M634 1710 Q753 1710 830.5 1641.5 Q908 1573 926 1450 L821 1450 Q806 1512 757 1547 Q708 1582 634 1582 Q558 1582 508.5 1545.5 Q459 1509 447 1450 L342 1450 Q357 1569 436 1639.5 Q515 1710 634 1710 Z " />
<glyph glyph-name="uni0207" unicode="&#x207;" horiz-adv-x="1229" d="M322 503 Q322 321 402.5 218 Q483 115 623 115 Q726 115 803.5 159.5 Q881 204 907 281 L1065 236 Q1021 112 903.5 46 Q786 -20 623 -20 Q387 -20 260 127 Q133 274 133 548 Q133 815 257.5 958.5 Q382 1102 617 1102 Q852 1102 973 959 Q1094 816 1094 527 L1094 503 L322 503 Z M619 969 Q485 969 407 881.5 Q329 794 324 641 L908 641 Q880 969 619 969 Z M614 1466 Q733 1466 810.5 1397.5 Q888 1329 906 1206 L801 1206 Q786 1268 737 1303 Q688 1338 614 1338 Q538 1338 488.5 1301.5 Q439 1265 427 1206 L322 1206 Q337 1325 416 1395.5 Q495 1466 614 1466 Z " />
<glyph glyph-name="uni0208" unicode="&#x208;" horiz-adv-x="1229" d="M202 1349 L1025 1349 L1025 1193 L709 1193 L709 156 L1025 156 L1025 0 L202 0 L202 156 L518 156 L518 1193 L202 1193 L202 1349 Z M791 1445 L461 1663 L461 1692 L668 1692 L885 1465 L885 1445 L791 1445 Z M444 1445 L114 1663 L114 1692 L321 1692 L538 1465 L538 1445 L444 1445 Z " />
<glyph glyph-name="uni0209" unicode="&#x209;" horiz-adv-x="1229" d="M745 142 L1125 142 L1125 0 L143 0 L143 142 L565 142 L565 940 L246 940 L246 1082 L745 1082 L745 142 Z M806 1201 L476 1419 L476 1448 L683 1448 L900 1221 L900 1201 L806 1201 Z M459 1201 L129 1419 L129 1448 L336 1448 L553 1221 L553 1201 L459 1201 Z " />
<glyph glyph-name="uni020A" unicode="&#x20a;" horiz-adv-x="1229" d="M202 1349 L1025 1349 L1025 1193 L709 1193 L709 156 L1025 156 L1025 0 L202 0 L202 156 L518 156 L518 1193 L202 1193 L202 1349 Z M614 1710 Q733 1710 810.5 1641.5 Q888 1573 906 1450 L801 1450 Q786 1512 737 1547 Q688 1582 614 1582 Q538 1582 488.5 1545.5 Q439 1509 427 1450 L322 1450 Q337 1569 416 1639.5 Q495 1710 614 1710 Z " />
<glyph glyph-name="uni020B" unicode="&#x20b;" horiz-adv-x="1229" d="M745 142 L1125 142 L1125 0 L143 0 L143 142 L565 142 L565 940 L246 940 L246 1082 L745 1082 L745 142 Z M624 1466 Q743 1466 820.5 1397.5 Q898 1329 916 1206 L811 1206 Q796 1268 747 1303 Q698 1338 624 1338 Q548 1338 498.5 1301.5 Q449 1265 437 1206 L332 1206 Q347 1325 426 1395.5 Q505 1466 624 1466 Z " />
<glyph glyph-name="uni020C" unicode="&#x20c;" horiz-adv-x="1229" d="M1126 681 Q1126 344 993.5 162 Q861 -20 613 -20 Q364 -20 233 159 Q102 338 102 681 Q102 1018 232 1194 Q362 1370 615 1370 Q862 1370 994 1196.5 Q1126 1023 1126 681 Z M925 681 Q925 1214 615 1214 Q303 1214 303 681 Q303 411 382 273 Q461 135 614 135 Q777 135 851 275 Q925 415 925 681 Z M818 1445 L488 1663 L488 1692 L695 1692 L912 1465 L912 1445 L818 1445 Z M471 1445 L141 1663 L141 1692 L348 1692 L565 1465 L565 1445 L471 1445 Z " />
<glyph glyph-name="uni020D" unicode="&#x20d;" horiz-adv-x="1229" d="M1097 542 Q1097 269 971.5 124.5 Q846 -20 609 -20 Q377 -20 253.5 126 Q130 272 130 542 Q130 821 256.5 961.5 Q383 1102 615 1102 Q859 1102 978 963 Q1097 824 1097 542 Z M908 542 Q908 757 839.5 863 Q771 969 618 969 Q463 969 391 861 Q319 753 319 542 Q319 332 391 222.5 Q463 113 607 113 Q766 113 837 220 Q908 327 908 542 Z M792 1201 L462 1419 L462 1448 L669 1448 L886 1221 L886 1201 L792 1201 Z M445 1201 L115 1419 L115 1448 L322 1448 L539 1221 L539 1201 L445 1201 Z " />
<glyph glyph-name="uni020E" unicode="&#x20e;" horiz-adv-x="1229" d="M1126 681 Q1126 344 993.5 162 Q861 -20 613 -20 Q364 -20 233 159 Q102 338 102 681 Q102 1018 232 1194 Q362 1370 615 1370 Q862 1370 994 1196.5 Q1126 1023 1126 681 Z M925 681 Q925 1214 615 1214 Q303 1214 303 681 Q303 411 382 273 Q461 135 614 135 Q777 135 851 275 Q925 415 925 681 Z M614 1710 Q733 1710 810.5 1641.5 Q888 1573 906 1450 L801 1450 Q786 1512 737 1547 Q688 1582 614 1582 Q538 1582 488.5 1545.5 Q439 1509 427 1450 L322 1450 Q337 1569 416 1639.5 Q495 1710 614 1710 Z " />
<glyph glyph-name="uni020F" unicode="&#x20f;" horiz-adv-x="1229" d="M1097 542 Q1097 269 971.5 124.5 Q846 -20 609 -20 Q377 -20 253.5 126 Q130 272 130 542 Q130 821 256.5 961.5 Q383 1102 615 1102 Q859 1102 978 963 Q1097 824 1097 542 Z M908 542 Q908 757 839.5 863 Q771 969 618 969 Q463 969 391 861 Q319 753 319 542 Q319 332 391 222.5 Q463 113 607 113 Q766 113 837 220 Q908 327 908 542 Z M614 1466 Q733 1466 810.5 1397.5 Q888 1329 906 1206 L801 1206 Q786 1268 737 1303 Q688 1338 614 1338 Q538 1338 488.5 1301.5 Q439 1265 427 1206 L322 1206 Q337 1325 416 1395.5 Q495 1466 614 1466 Z " />
<glyph glyph-name="uni0210" unicode="&#x210;" horiz-adv-x="1229" d="M957 0 L591 575 L353 575 L353 0 L162 0 L162 1349 L644 1349 Q877 1349 999 1252.5 Q1121 1156 1121 976 Q1121 827 1027.5 725 Q934 623 777 597 L1177 0 L957 0 Z M929 973 Q929 1196 625 1196 L353 1196 L353 726 L633 726 Q776 726 852.5 790 Q929 854 929 973 Z M852 1445 L522 1663 L522 1692 L729 1692 L946 1465 L946 1445 L852 1445 Z M505 1445 L175 1663 L175 1692 L382 1692 L599 1465 L599 1445 L505 1445 Z " />
<glyph glyph-name="uni0211" unicode="&#x211;" horiz-adv-x="1229" d="M1045 918 Q933 937 833 937 Q672 937 573 816 Q474 695 474 508 L474 0 L294 0 L294 701 Q294 777 280.5 880 Q267 983 242 1082 L413 1082 Q453 944 461 832 L466 832 Q516 944 564 996.5 Q612 1049 678 1075.5 Q744 1102 839 1102 Q943 1102 1045 1085 L1045 918 Z M792 1201 L462 1419 L462 1448 L669 1448 L886 1221 L886 1201 L792 1201 Z M445 1201 L115 1419 L115 1448 L322 1448 L539 1221 L539 1201 L445 1201 Z " />
<glyph glyph-name="uni0212" unicode="&#x212;" horiz-adv-x="1229" d="M957 0 L591 575 L353 575 L353 0 L162 0 L162 1349 L644 1349 Q877 1349 999 1252.5 Q1121 1156 1121 976 Q1121 827 1027.5 725 Q934 623 777 597 L1177 0 L957 0 Z M929 973 Q929 1196 625 1196 L353 1196 L353 726 L633 726 Q776 726 852.5 790 Q929 854 929 973 Z M620 1710 Q739 1710 816.5 1641.5 Q894 1573 912 1450 L807 1450 Q792 1512 743 1547 Q694 1582 620 1582 Q544 1582 494.5 1545.5 Q445 1509 433 1450 L328 1450 Q343 1569 422 1639.5 Q501 1710 620 1710 Z " />
<glyph glyph-name="uni0213" unicode="&#x213;" horiz-adv-x="1229" d="M1045 918 Q933 937 833 937 Q672 937 573 816 Q474 695 474 508 L474 0 L294 0 L294 701 Q294 777 280.5 880 Q267 983 242 1082 L413 1082 Q453 944 461 832 L466 832 Q516 944 564 996.5 Q612 1049 678 1075.5 Q744 1102 839 1102 Q943 1102 1045 1085 L1045 918 Z M644 1466 Q763 1466 840.5 1397.5 Q918 1329 936 1206 L831 1206 Q816 1268 767 1303 Q718 1338 644 1338 Q568 1338 518.5 1301.5 Q469 1265 457 1206 L352 1206 Q367 1325 446 1395.5 Q525 1466 644 1466 Z " />
<glyph glyph-name="uni0214" unicode="&#x214;" horiz-adv-x="1229" d="M1085 490 Q1085 223 971 101.5 Q857 -20 605 -20 Q361 -20 251.5 97.5 Q142 215 142 472 L142 1349 L333 1349 L333 498 Q333 294 391.5 214.5 Q450 135 604 135 Q765 135 830 217 Q895 299 895 511 L895 1349 L1085 1349 L1085 490 Z M832 1445 L502 1663 L502 1692 L709 1692 L926 1465 L926 1445 L832 1445 Z M485 1445 L155 1663 L155 1692 L362 1692 L579 1465 L579 1445 L485 1445 Z " />
<glyph glyph-name="uni0215" unicode="&#x215;" horiz-adv-x="1229" d="M365 1082 L365 396 Q365 240 414 179.5 Q463 119 589 119 Q718 119 793 207 Q868 295 868 455 L868 1082 L1049 1082 L1049 231 Q1049 42 1055 0 L885 0 Q884 5 883 27 Q882 49 880.5 77.5 Q879 106 877 185 L874 185 Q812 73 730.5 26.5 Q649 -20 528 -20 Q350 -20 267.5 68.5 Q185 157 185 361 L185 1082 L365 1082 Z M802 1201 L472 1419 L472 1448 L679 1448 L896 1221 L896 1201 L802 1201 Z M455 1201 L125 1419 L125 1448 L332 1448 L549 1221 L549 1201 L455 1201 Z " />
<glyph glyph-name="uni0216" unicode="&#x216;" horiz-adv-x="1229" d="M1085 490 Q1085 223 971 101.5 Q857 -20 605 -20 Q361 -20 251.5 97.5 Q142 215 142 472 L142 1349 L333 1349 L333 498 Q333 294 391.5 214.5 Q450 135 604 135 Q765 135 830 217 Q895 299 895 511 L895 1349 L1085 1349 L1085 490 Z M614 1710 Q733 1710 810.5 1641.5 Q888 1573 906 1450 L801 1450 Q786 1512 737 1547 Q688 1582 614 1582 Q538 1582 488.5 1545.5 Q439 1509 427 1450 L322 1450 Q337 1569 416 1639.5 Q495 1710 614 1710 Z " />
<glyph glyph-name="uni0217" unicode="&#x217;" horiz-adv-x="1229" d="M365 1082 L365 396 Q365 240 414 179.5 Q463 119 589 119 Q718 119 793 207 Q868 295 868 455 L868 1082 L1049 1082 L1049 231 Q1049 42 1055 0 L885 0 Q884 5 883 27 Q882 49 880.5 77.5 Q879 106 877 185 L874 185 Q812 73 730.5 26.5 Q649 -20 528 -20 Q350 -20 267.5 68.5 Q185 157 185 361 L185 1082 L365 1082 Z M614 1466 Q733 1466 810.5 1397.5 Q888 1329 906 1206 L801 1206 Q786 1268 737 1303 Q688 1338 614 1338 Q538 1338 488.5 1301.5 Q439 1265 427 1206 L322 1206 Q337 1325 416 1395.5 Q495 1466 614 1466 Z " />
<glyph glyph-name="Scommaaccent" unicode="&#x218;" horiz-adv-x="1229" d="M1128 370 Q1128 186 993.5 83 Q859 -20 610 -20 Q153 -20 79 338 L264 375 Q292 246 380 187.5 Q468 129 615 129 Q774 129 856.5 191 Q939 253 939 367 Q939 437 906.5 481 Q874 525 821 553 Q768 581 701.5 598.5 Q635 616 567 633 Q406 675 337.5 708 Q269 741 228 783.5 Q187 826 166 881 Q145 936 145 1010 Q145 1183 266.5 1276.5 Q388 1370 615 1370 Q827 1370 939 1296 Q1051 1222 1095 1046 L907 1013 Q883 1125 811 1175.5 Q739 1226 614 1226 Q331 1226 331 1013 Q331 953 357.5 915.5 Q384 878 429.5 853.5 Q475 829 535.5 813 Q596 797 665 779 Q804 744 865 720.5 Q926 697 973.5 667 Q1021 637 1055 596 Q1089 555 1108.5 500 Q1128 445 1128 370 Z M720 -204 Q720 -291 698 -349.5 Q676 -408 636 -455 L519 -455 Q613 -355 613 -265 L525 -265 L525 -98 L720 -98 L720 -204 Z " />
<glyph glyph-name="scommaaccent" unicode="&#x219;" horiz-adv-x="1229" d="M1060 309 Q1060 155 943.5 67.5 Q827 -20 621 -20 Q415 -20 307.5 44.5 Q200 109 167 248 L326 279 Q345 193 407.5 153.5 Q470 114 621 114 Q891 114 891 285 Q891 349 842 388.5 Q793 428 692 453 Q428 518 357 555 Q286 592 248 647.5 Q210 703 210 786 Q210 933 316 1016 Q422 1099 623 1099 Q799 1099 904 1032.5 Q1009 966 1035 839 L873 819 Q862 891 802 928 Q742 965 623 965 Q378 965 378 814 Q378 754 419.5 718 Q461 682 553 660 L672 629 Q835 589 906.5 550 Q978 511 1019 452.5 Q1060 394 1060 309 Z M720 -204 Q720 -291 698 -349.5 Q676 -408 636 -455 L519 -455 Q613 -355 613 -265 L525 -265 L525 -98 L720 -98 L720 -204 Z " />
</font>
</svg>
